<svg xmlns="http://www.w3.org/2000/svg" xmlns:xlink="http://www.w3.org/1999/xlink" contentStyleType="text/css" data-diagram-type="SEQUENCE" height="647px" preserveAspectRatio="none" style="width:595px;height:647px;background:#FFFFFF;" version="1.1" viewBox="0 0 595 647" width="595px" zoomAndPan="magnify"><title>Standard Data Type for Block</title><defs/><g><text fill="#000000" font-family="sans-serif" font-size="14" font-weight="bold" lengthAdjust="spacing" textLength="203.7552" x="194.6926" y="29.9659">Standard Data Type for Block</text><g><title>a1</title><rect fill="transparent" height="439.8842" width="8" x="14.5" y="124.1358"/><line style="stroke:#181818;stroke-width:0.5;stroke-dasharray:5.0,5.0;" x1="18" x2="18" y1="124.1358" y2="564.0201"/></g><g><title>block.grid.walk</title><rect fill="transparent" height="439.8842" width="8" x="101.4721" y="124.1358"/><line style="stroke:#181818;stroke-width:0.5;stroke-dasharray:5.0,5.0;" x1="104.9963" x2="104.9963" y1="124.1358" y2="564.0201"/></g><g><title>model.layout.gridwalk</title><rect fill="transparent" height="439.8842" width="8" x="248.2096" y="124.1358"/><line style="stroke:#181818;stroke-width:0.5;stroke-dasharray:5.0,5.0;" x1="251.9479" x2="251.9479" y1="124.1358" y2="564.0201"/></g><g><title>model.grid.walk</title><rect fill="transparent" height="439.8842" width="8" x="398.3421" y="124.1358"/><line style="stroke:#181818;stroke-width:0.5;stroke-dasharray:5.0,5.0;" x1="401.4713" x2="401.4713" y1="124.1358" y2="564.0201"/></g><g><title>newmodel.walk</title><rect fill="transparent" height="439.8842" width="8" x="526.6767" y="124.1358"/><line style="stroke:#181818;stroke-width:0.5;stroke-dasharray:5.0,5.0;" x1="530.2129" x2="530.2129" y1="124.1358" y2="564.0201"/></g><text fill="#000000" font-family="sans-serif" font-size="14" lengthAdjust="spacing" textLength="15.8619" x="7.569" y="120.0339">a1</text><ellipse cx="18.5" cy="53.5679" fill="#E2E2F0" rx="8" ry="8" style="stroke:#181818;stroke-width:0.5;"/><path d="M18.5,61.5679 L18.5,88.5679 M5.5,69.5679 L31.5,69.5679 M18.5,88.5679 L5.5,103.5679 M18.5,88.5679 L31.5,103.5679 " fill="transparent" style="stroke:#181818;stroke-width:0.5;"/><text fill="#000000" font-family="sans-serif" font-size="14" lengthAdjust="spacing" textLength="15.8619" x="7.569" y="577.986">a1</text><ellipse cx="18.5" cy="590.588" fill="#E2E2F0" rx="8" ry="8" style="stroke:#181818;stroke-width:0.5;"/><path d="M18.5,598.588 L18.5,625.588 M5.5,606.588 L31.5,606.588 M18.5,625.588 L5.5,640.588 M18.5,625.588 L31.5,640.588 " fill="transparent" style="stroke:#181818;stroke-width:0.5;"/><rect fill="#E2E2F0" height="33.0679" rx="2.5" ry="2.5" style="stroke:#181818;stroke-width:0.5;" width="112.9516" x="48.9963" y="90.0679"/><text fill="#000000" font-family="sans-serif" font-size="14" lengthAdjust="spacing" textLength="98.9516" x="55.9963" y="112.0339">block.grid.walk</text><rect fill="#E2E2F0" height="33.0679" rx="2.5" ry="2.5" style="stroke:#181818;stroke-width:0.5;" width="112.9516" x="48.9963" y="563.0201"/><text fill="#000000" font-family="sans-serif" font-size="14" lengthAdjust="spacing" textLength="98.9516" x="55.9963" y="584.986">block.grid.walk</text><rect fill="#E2E2F0" height="33.0679" rx="2.5" ry="2.5" style="stroke:#181818;stroke-width:0.5;" width="160.5234" x="171.9479" y="90.0679"/><text fill="#000000" font-family="sans-serif" font-size="14" lengthAdjust="spacing" textLength="146.5234" x="178.9479" y="112.0339">model.layout.gridwalk</text><rect fill="#E2E2F0" height="33.0679" rx="2.5" ry="2.5" style="stroke:#181818;stroke-width:0.5;" width="160.5234" x="171.9479" y="563.0201"/><text fill="#000000" font-family="sans-serif" font-size="14" lengthAdjust="spacing" textLength="146.5234" x="178.9479" y="584.986">model.layout.gridwalk</text><rect fill="#E2E2F0" height="33.0679" rx="2.5" ry="2.5" style="stroke:#181818;stroke-width:0.5;" width="119.7416" x="342.4713" y="90.0679"/><text fill="#000000" font-family="sans-serif" font-size="14" lengthAdjust="spacing" textLength="105.7416" x="349.4713" y="112.0339">model.grid.walk</text><rect fill="#E2E2F0" height="33.0679" rx="2.5" ry="2.5" style="stroke:#181818;stroke-width:0.5;" width="119.7416" x="342.4713" y="563.0201"/><text fill="#000000" font-family="sans-serif" font-size="14" lengthAdjust="spacing" textLength="105.7416" x="349.4713" y="584.986">model.grid.walk</text><rect fill="#E2E2F0" height="33.0679" rx="2.5" ry="2.5" style="stroke:#181818;stroke-width:0.5;" width="116.9276" x="472.2129" y="90.0679"/><text fill="#000000" font-family="sans-serif" font-size="14" lengthAdjust="spacing" textLength="102.9276" x="479.2129" y="112.0339">newmodel.walk</text><rect fill="#E2E2F0" height="33.0679" rx="2.5" ry="2.5" style="stroke:#181818;stroke-width:0.5;" width="116.9276" x="472.2129" y="563.0201"/><text fill="#000000" font-family="sans-serif" font-size="14" lengthAdjust="spacing" textLength="102.9276" x="479.2129" y="584.986">newmodel.walk</text><path d="M110,139.1358 L110,184.1358 L222,184.1358 L222,149.1358 L212,139.1358 L110,139.1358 " fill="#FEFFDD" style="stroke:#181818;stroke-width:0.5;"/><path d="M212,139.1358 L212,149.1358 L222,149.1358 L212,139.1358 " fill="#FEFFDD" style="stroke:#181818;stroke-width:0.5;"/><text fill="#000000" font-family="sans-serif" font-size="13" lengthAdjust="spacing" textLength="84.6171" x="116" y="158.0328">rename make</text><text fill="#000000" font-family="sans-serif" font-size="13" lengthAdjust="spacing" textLength="91.8321" x="116" y="175.7389">instead of walk</text><path d="M257,194.5479 L257,239.5479 L400,239.5479 L400,204.5479 L390,194.5479 L257,194.5479 " fill="#FEFFDD" style="stroke:#181818;stroke-width:0.5;"/><path d="M390,194.5479 L390,204.5479 L400,204.5479 L390,194.5479 " fill="#FEFFDD" style="stroke:#181818;stroke-width:0.5;"/><text fill="#000000" font-family="sans-serif" font-size="13" lengthAdjust="spacing" textLength="102.1671" x="263" y="213.4449">send blocks:gmk</text><text fill="#000000" font-family="sans-serif" font-size="13" lengthAdjust="spacing" textLength="122.9931" x="263" y="231.1509">rename svg.markup</text><path d="M407,249.9599 L407,294.9599 L523,294.9599 L523,259.9599 L513,249.9599 L407,249.9599 " fill="#FEFFDD" style="stroke:#181818;stroke-width:0.5;"/><path d="M513,249.9599 L513,259.9599 L523,259.9599 L513,249.9599 " fill="#FEFFDD" style="stroke:#181818;stroke-width:0.5;"/><text fill="#000000" font-family="sans-serif" font-size="13" lengthAdjust="spacing" textLength="74.5941" x="413" y="268.8569">replace with</text><text fill="#000000" font-family="sans-serif" font-size="13" lengthAdjust="spacing" textLength="95.5761" x="413" y="286.5629">newmodel.walk</text><polygon fill="#181818" points="93.4721,320.0779,103.4721,324.0779,93.4721,328.0779,97.4721,324.0779" style="stroke:#181818;stroke-width:1;"/><line style="stroke:#181818;stroke-width:1;" x1="18.5" x2="99.4721" y1="324.0779" y2="324.0779"/><text fill="#000000" font-family="sans-serif" font-size="13" lengthAdjust="spacing" textLength="52.2731" x="25.5" y="318.2689">cells:dict</text><polygon fill="#181818" points="29.5,351.784,19.5,355.784,29.5,359.784,25.5,355.784" style="stroke:#181818;stroke-width:1;"/><line style="stroke:#181818;stroke-width:1;" x1="23.5" x2="104.4721" y1="355.784" y2="355.784"/><text fill="#000000" font-family="sans-serif" font-size="13" lengthAdjust="spacing" textLength="62.9721" x="35.5" y="349.975">block:gmk</text><polygon fill="#181818" points="240.2096,383.49,250.2096,387.49,240.2096,391.49,244.2096,387.49" style="stroke:#181818;stroke-width:1;"/><line style="stroke:#181818;stroke-width:1;" x1="18.5" x2="246.2096" y1="387.49" y2="387.49"/><text fill="#000000" font-family="sans-serif" font-size="13" lengthAdjust="spacing" textLength="52.2731" x="25.5" y="381.681">cells:dict</text><polygon fill="#181818" points="29.5,415.196,19.5,419.196,29.5,423.196,25.5,419.196" style="stroke:#181818;stroke-width:1;"/><line style="stroke:#181818;stroke-width:1;" x1="23.5" x2="251.2096" y1="419.196" y2="419.196"/><text fill="#000000" font-family="sans-serif" font-size="13" lengthAdjust="spacing" textLength="20.826" x="35.5" y="413.387">svg</text><polygon fill="#181818" points="390.3421,446.902,400.3421,450.902,390.3421,454.902,394.3421,450.902" style="stroke:#181818;stroke-width:1;"/><line style="stroke:#181818;stroke-width:1;" x1="18.5" x2="396.3421" y1="450.902" y2="450.902"/><text fill="#000000" font-family="sans-serif" font-size="13" lengthAdjust="spacing" textLength="61.945" x="25.5" y="445.093">cells:array</text><polygon fill="#181818" points="29.5,478.608,19.5,482.608,29.5,486.608,25.5,482.608" style="stroke:#181818;stroke-width:1;"/><line style="stroke:#181818;stroke-width:1;" x1="23.5" x2="401.3421" y1="482.608" y2="482.608"/><text fill="#000000" font-family="sans-serif" font-size="13" lengthAdjust="spacing" textLength="69.1991" x="35.5" y="476.799">blocks:gmk</text><polygon fill="#181818" points="518.6767,510.314,528.6767,514.314,518.6767,518.314,522.6767,514.314" style="stroke:#181818;stroke-width:1;"/><line style="stroke:#181818;stroke-width:1;" x1="18.5" x2="524.6767" y1="514.314" y2="514.314"/><text fill="#000000" font-family="sans-serif" font-size="13" lengthAdjust="spacing" textLength="62.9721" x="25.5" y="508.505">block:gmk</text><polygon fill="#181818" points="29.5,542.0201,19.5,546.0201,29.5,550.0201,25.5,546.0201" style="stroke:#181818;stroke-width:1;"/><line style="stroke:#181818;stroke-width:1;" x1="23.5" x2="529.6767" y1="546.0201" y2="546.0201"/><text fill="#000000" font-family="sans-serif" font-size="13" lengthAdjust="spacing" textLength="69.1991" x="35.5" y="540.2111">blocks:gmk</text><!--SRC=[VPFFSgCm3CRlF8KcbvxA36tI9and3xjxxMNR5z1YaNWmDcD4ixnzBJiXWNHxvDDF-gm_i6P39RmnMeLUmMzaXFUn8wYTXv_6LKsMOSNX0ukiGy-wqXrQXjLV2UPxhrL-HDEi07le7ZBhcC3h_O71rI80UBBO4hJOKFZIjcT29L79oyWgaAHvzTOfChd1qGqSJIuUswN7DbJjfKnyKb_ks-RYsd_iynPzCtJVEYtws2qzTh5YPx0YE6e-X4zBnvJxJHip9fLUXu4MSFyZpAQ4YepfIwKh5l7bFegnZTZ52Tn-1GOnz7P6TcS4lSVnpEpAwvcSqFN2GS3r3CpkhlnWiUWGZ4eXw2au7yKi-yj5JaXuxGYB3OHWkhXtfvoC31ycQVM7gi5xRTCmyJ54PWFFjQrT6dHn4wiDCfDDuPjKeosXJ_VIK88s_uUENZEzKlXnoFzojau9JpUcGwUGJ-MU9VeOjx2vta9KPG-RjDGxM9oVl2CS-S4DHgLRnwZ44aAaxGLjkiF9wMbsFPDLa4TiZOmsSKMPDb7sx9CgM75-9__Z2_kSs4ROJm00]--></g></svg>