<?xml version="1.0" encoding="UTF-8" standalone="no"?><svg xmlns="http://www.w3.org/2000/svg" xmlns:xlink="http://www.w3.org/1999/xlink" contentScriptType="application/ecmascript" contentStyleType="text/css" height="480px" preserveAspectRatio="none" style="width:196px;height:480px;" version="1.1" viewBox="0 0 196 480" width="196px" zoomAndPan="magnify"><defs><filter height="300%" id="f1tqns4a9ftuud" width="300%" x="-1" y="-1"><feGaussianBlur result="blurOut" stdDeviation="2.0"/><feColorMatrix in="blurOut" result="blurOut2" type="matrix" values="0 0 0 0 0 0 0 0 0 0 0 0 0 0 0 0 0 0 .4 0"/><feOffset dx="4.0" dy="4.0" in="blurOut2" result="blurOut3"/><feBlend in="SourceGraphic" in2="blurOut3" mode="normal"/></filter></defs><g><text fill="#000000" font-family="sans-serif" font-size="18" lengthAdjust="spacingAndGlyphs" textLength="44" x="79.5" y="19.2419">Build</text><!--MD5=[a19a1bd4aab85387a00189bb676cf4e4]
cluster build--><polygon fill="#FFFFFF" filter="url(#f1tqns4a9ftuud)" points="22,272.5158,63,272.5158,70,297.5838,114,297.5838,114,374.5158,22,374.5158,22,272.5158" style="stroke: #000000; stroke-width: 1.5;"/><line style="stroke: #000000; stroke-width: 1.5;" x1="22" x2="70" y1="297.5838" y2="297.5838"/><text fill="#000000" font-family="sans-serif" font-size="14" font-weight="bold" lengthAdjust="spacingAndGlyphs" textLength="35" x="26" y="289.4818">build</text><!--MD5=[997e23627c96483b940b4fb6fa8ad631]
class build.build--><rect fill="#FEFECE" filter="url(#f1tqns4a9ftuud)" height="48" id="build.build" style="stroke: #A80036; stroke-width: 1.5;" width="59" x="38.5" y="310.5158"/><ellipse cx="53.5" cy="326.5158" fill="#ADD1B2" rx="11" ry="11" style="stroke: #A80036; stroke-width: 1.0;"/><path d="M56.4688,332.1565 Q55.8906,332.4533 55.25,332.594 Q54.6094,332.7502 53.9063,332.7502 Q51.4063,332.7502 50.0781,331.1096 Q48.7656,329.4533 48.7656,326.3283 Q48.7656,323.2033 50.0781,321.5471 Q51.4063,319.8908 53.9063,319.8908 Q54.6094,319.8908 55.25,320.0471 Q55.9063,320.2033 56.4688,320.5002 L56.4688,323.219 Q55.8438,322.6408 55.25,322.3752 Q54.6563,322.094 54.0313,322.094 Q52.6875,322.094 52,323.1721 Q51.3125,324.2346 51.3125,326.3283 Q51.3125,328.4221 52,329.5002 Q52.6875,330.5627 54.0313,330.5627 Q54.6563,330.5627 55.25,330.2971 Q55.8438,330.0158 56.4688,329.4377 L56.4688,332.1565 Z "/><text fill="#000000" font-family="sans-serif" font-size="12" lengthAdjust="spacingAndGlyphs" textLength="27" x="67.5" y="331.1719">build</text><line style="stroke: #A80036; stroke-width: 1.5;" x1="39.5" x2="96.5" y1="342.5158" y2="342.5158"/><line style="stroke: #A80036; stroke-width: 1.5;" x1="39.5" x2="96.5" y1="350.5158" y2="350.5158"/><!--MD5=[fb21a71b7e05bea158347acc63640bf6]
class recurrink--><rect fill="#FEFECE" filter="url(#f1tqns4a9ftuud)" height="48" id="recurrink" style="stroke: #A80036; stroke-width: 1.5;" width="83" x="26.5" y="32.5158"/><ellipse cx="41.5" cy="48.5158" fill="#ADD1B2" rx="11" ry="11" style="stroke: #A80036; stroke-width: 1.0;"/><path d="M44.4688,54.1565 Q43.8906,54.4533 43.25,54.594 Q42.6094,54.7502 41.9063,54.7502 Q39.4063,54.7502 38.0781,53.1096 Q36.7656,51.4533 36.7656,48.3283 Q36.7656,45.2033 38.0781,43.5471 Q39.4063,41.8908 41.9063,41.8908 Q42.6094,41.8908 43.25,42.0471 Q43.9063,42.2033 44.4688,42.5002 L44.4688,45.219 Q43.8438,44.6408 43.25,44.3752 Q42.6563,44.094 42.0313,44.094 Q40.6875,44.094 40,45.1721 Q39.3125,46.2346 39.3125,48.3283 Q39.3125,50.4221 40,51.5002 Q40.6875,52.5627 42.0313,52.5627 Q42.6563,52.5627 43.25,52.2971 Q43.8438,52.0158 44.4688,51.4377 L44.4688,54.1565 Z "/><text fill="#000000" font-family="sans-serif" font-size="12" lengthAdjust="spacingAndGlyphs" textLength="51" x="55.5" y="53.1719">recurrink</text><line style="stroke: #A80036; stroke-width: 1.5;" x1="27.5" x2="108.5" y1="64.5158" y2="64.5158"/><line style="stroke: #A80036; stroke-width: 1.5;" x1="27.5" x2="108.5" y1="72.5158" y2="72.5158"/><!--MD5=[4a4f4e499216fc5d64972b8812dc9737]
class svg--><rect fill="#FEFECE" filter="url(#f1tqns4a9ftuud)" height="48" id="svg" style="stroke: #A80036; stroke-width: 1.5;" width="51" x="42.5" y="421.5158"/><ellipse cx="57.5" cy="437.5158" fill="#ADD1B2" rx="11" ry="11" style="stroke: #A80036; stroke-width: 1.0;"/><path d="M60.4688,443.1565 Q59.8906,443.4533 59.25,443.594 Q58.6094,443.7502 57.9063,443.7502 Q55.4063,443.7502 54.0781,442.1096 Q52.7656,440.4533 52.7656,437.3283 Q52.7656,434.2033 54.0781,432.5471 Q55.4063,430.8908 57.9063,430.8908 Q58.6094,430.8908 59.25,431.0471 Q59.9063,431.2033 60.4688,431.5002 L60.4688,434.219 Q59.8438,433.6408 59.25,433.3752 Q58.6563,433.094 58.0313,433.094 Q56.6875,433.094 56,434.1721 Q55.3125,435.2346 55.3125,437.3283 Q55.3125,439.4221 56,440.5002 Q56.6875,441.5627 58.0313,441.5627 Q58.6563,441.5627 59.25,441.2971 Q59.8438,441.0158 60.4688,440.4377 L60.4688,443.1565 Z "/><text fill="#000000" font-family="sans-serif" font-size="12" lengthAdjust="spacingAndGlyphs" textLength="19" x="71.5" y="442.1719">svg</text><line style="stroke: #A80036; stroke-width: 1.5;" x1="43.5" x2="92.5" y1="453.5158" y2="453.5158"/><line style="stroke: #A80036; stroke-width: 1.5;" x1="43.5" x2="92.5" y1="461.5158" y2="461.5158"/><!--MD5=[d73585d71b2748f54a72687d17b93a91]
class file--><rect fill="#FEFECE" filter="url(#f1tqns4a9ftuud)" height="48" id="file" style="stroke: #A80036; stroke-width: 1.5;" width="49" x="43.5" y="159.5158"/><ellipse cx="58.5" cy="175.5158" fill="#ADD1B2" rx="11" ry="11" style="stroke: #A80036; stroke-width: 1.0;"/><path d="M61.4688,181.1565 Q60.8906,181.4533 60.25,181.594 Q59.6094,181.7502 58.9063,181.7502 Q56.4063,181.7502 55.0781,180.1096 Q53.7656,178.4533 53.7656,175.3283 Q53.7656,172.2033 55.0781,170.5471 Q56.4063,168.8908 58.9063,168.8908 Q59.6094,168.8908 60.25,169.0471 Q60.9063,169.2033 61.4688,169.5002 L61.4688,172.219 Q60.8438,171.6408 60.25,171.3752 Q59.6563,171.094 59.0313,171.094 Q57.6875,171.094 57,172.1721 Q56.3125,173.2346 56.3125,175.3283 Q56.3125,177.4221 57,178.5002 Q57.6875,179.5627 59.0313,179.5627 Q59.6563,179.5627 60.25,179.2971 Q60.8438,179.0158 61.4688,178.4377 L61.4688,181.1565 Z "/><text fill="#000000" font-family="sans-serif" font-size="12" lengthAdjust="spacingAndGlyphs" textLength="17" x="72.5" y="180.1719">file</text><line style="stroke: #A80036; stroke-width: 1.5;" x1="44.5" x2="91.5" y1="191.5158" y2="191.5158"/><line style="stroke: #A80036; stroke-width: 1.5;" x1="44.5" x2="91.5" y1="199.5158" y2="199.5158"/><!--MD5=[e92b3dcec8b720bd5cf36e2210025be2]
link recurrink to file--><path d="M68,80.7358 C68,101.5158 68,132.0558 68,154.2558 " fill="none" id="recurrink-&gt;file" style="stroke: #A80036; stroke-width: 1.0;"/><polygon fill="#A80036" points="68,159.4258,72,150.4258,68,154.4258,64,150.4258,68,159.4258" style="stroke: #A80036; stroke-width: 1.0;"/><text fill="#000000" font-family="sans-serif" font-size="13" lengthAdjust="spacingAndGlyphs" textLength="115" x="69" y="125.4129">explode True|False</text><!--MD5=[84c67dcc62af14f27d439636b7c3455b]
link file to build.build--><path d="M68,207.7958 C68,234.1458 68,277.0758 68,305.3058 " fill="none" id="file-&gt;build.build" style="stroke: #A80036; stroke-width: 1.0;"/><polygon fill="#A80036" points="68,310.3958,72,301.3958,68,305.3958,64,301.3958,68,310.3958" style="stroke: #A80036; stroke-width: 1.0;"/><text fill="#000000" font-family="sans-serif" font-size="13" lengthAdjust="spacingAndGlyphs" textLength="52" x="69" y="252.4129">rink conf</text><!--MD5=[9763664764a1b118cd3571d1855b612e]
link build.build to svg--><path d="M68,358.6358 C68,375.3958 68,398.1658 68,416.0558 " fill="none" id="build.build-&gt;svg" style="stroke: #A80036; stroke-width: 1.0;"/><polygon fill="#A80036" points="68,421.4358,72,412.4358,68,416.4358,64,412.4358,68,421.4358" style="stroke: #A80036; stroke-width: 1.0;"/><!--MD5=[94755fc8a8e1e7cb82ecfef47c892d65]
@startUML

title: Build

class build.build
class recurrink
class svg

recurrink - -> file: explode True|False
file - -> build.build: rink conf
build.build - -> svg

@endUML

PlantUML version 1.2020.02(Sun Mar 01 11:22:07 CET 2020)
(GPL source distribution)
Java Runtime: OpenJDK Runtime Environment
JVM: OpenJDK 64-Bit Server VM
Java Version: 21.0.10+7-Ubuntu-124.04
Operating System: Linux
Default Encoding: UTF-8
Language: en
Country: US
--></g></svg>