<?xml version="1.0" encoding="UTF-8" standalone="no"?><svg xmlns="http://www.w3.org/2000/svg" xmlns:xlink="http://www.w3.org/1999/xlink" contentScriptType="application/ecmascript" contentStyleType="text/css" height="924px" preserveAspectRatio="none" style="width:2549px;height:924px;" version="1.1" viewBox="0 0 2549 924" width="2549px" zoomAndPan="magnify"><defs><filter height="300%" id="f17h8x7wqwwqwj" width="300%" x="-1" y="-1"><feGaussianBlur result="blurOut" stdDeviation="2.0"/><feColorMatrix in="blurOut" result="blurOut2" type="matrix" values="0 0 0 0 0 0 0 0 0 0 0 0 0 0 0 0 0 0 .4 0"/><feOffset dx="4.0" dy="4.0" in="blurOut2" result="blurOut3"/><feBlend in="SourceGraphic" in2="blurOut3" mode="normal"/></filter></defs><g><!--MD5=[55cf3808fec2696047fe017ff57fa277]
cluster cell.Init--><polygon fill="#FFFFFF" filter="url(#f17h8x7wqwwqwj)" points="1337,253,1394,253,1401,278.0679,1461,278.0679,1461,430,1337,430,1337,253" style="stroke: #000000; stroke-width: 1.5;"/><line style="stroke: #000000; stroke-width: 1.5;" x1="1337" x2="1401" y1="278.0679" y2="278.0679"/><text fill="#000000" font-family="sans-serif" font-size="14" font-weight="bold" lengthAdjust="spacingAndGlyphs" textLength="51" x="1341" y="269.9659">cell.Init</text><!--MD5=[19331a237ee83b25aa6484bd51b9507d]
cluster cell.Geometry--><polygon fill="#FFFFFF" filter="url(#f17h8x7wqwwqwj)" points="807,89.5,909,89.5,916,114.5679,1313,114.5679,1313,400,807,400,807,89.5" style="stroke: #000000; stroke-width: 1.5;"/><line style="stroke: #000000; stroke-width: 1.5;" x1="807" x2="916" y1="114.5679" y2="114.5679"/><text fill="#000000" font-family="sans-serif" font-size="14" font-weight="bold" lengthAdjust="spacingAndGlyphs" textLength="96" x="811" y="106.4659">cell.Geometry</text><!--MD5=[6c04d5ecfaac253246f4208ff98836dc]
cluster cell.Palette--><polygon fill="#FFFFFF" filter="url(#f17h8x7wqwwqwj)" points="1499,104.5,1581,104.5,1588,129.5679,1637,129.5679,1637,221.5,1499,221.5,1499,104.5" style="stroke: #000000; stroke-width: 1.5;"/><line style="stroke: #000000; stroke-width: 1.5;" x1="1499" x2="1588" y1="129.5679" y2="129.5679"/><text fill="#000000" font-family="sans-serif" font-size="14" font-weight="bold" lengthAdjust="spacingAndGlyphs" textLength="76" x="1503" y="121.4659">cell.Palette</text><!--MD5=[987d6643e49fa4802f1b8dc4d9ebed69]
cluster cell.Strokes--><polygon fill="#FFFFFF" filter="url(#f17h8x7wqwwqwj)" points="1337,97,1423,97,1430,122.0679,1475,122.0679,1475,229,1337,229,1337,97" style="stroke: #000000; stroke-width: 1.5;"/><line style="stroke: #000000; stroke-width: 1.5;" x1="1337" x2="1430" y1="122.0679" y2="122.0679"/><text fill="#000000" font-family="sans-serif" font-size="14" font-weight="bold" lengthAdjust="spacingAndGlyphs" textLength="80" x="1341" y="113.9659">cell.Strokes</text><!--MD5=[1b9c5ac37525c69766cc6ed0818730fa]
cluster cell.Spiral--><polygon fill="#FFFFFF" filter="url(#f17h8x7wqwwqwj)" points="2093,89.5,2165,89.5,2172,114.5679,2527,114.5679,2527,609.5,2093,609.5,2093,89.5" style="stroke: #000000; stroke-width: 1.5;"/><line style="stroke: #000000; stroke-width: 1.5;" x1="2093" x2="2172" y1="114.5679" y2="114.5679"/><text fill="#000000" font-family="sans-serif" font-size="14" font-weight="bold" lengthAdjust="spacingAndGlyphs" textLength="66" x="2097" y="106.4659">cell.Spiral</text><!--MD5=[f440d9dc4cd7a7c3038132d63c4c04e1]
cluster cell.Transform--><polygon fill="#FFFFFF" filter="url(#f17h8x7wqwwqwj)" points="1493,275,1598,275,1605,300.0679,1881,300.0679,1881,610,1493,610,1493,275" style="stroke: #000000; stroke-width: 1.5;"/><line style="stroke: #000000; stroke-width: 1.5;" x1="1493" x2="1605" y1="300.0679" y2="300.0679"/><text fill="#000000" font-family="sans-serif" font-size="14" font-weight="bold" lengthAdjust="spacingAndGlyphs" textLength="99" x="1497" y="291.9659">cell.Transform</text><!--MD5=[291c4ab67f7f50adb193e84bf25933e9]
cluster cell.CellData--><polygon fill="#FFFFFF" filter="url(#f17h8x7wqwwqwj)" points="723,462,813,462,820,487.0679,1424,487.0679,1424,778,723,778,723,462" style="stroke: #000000; stroke-width: 1.5;"/><line style="stroke: #000000; stroke-width: 1.5;" x1="723" x2="820" y1="487.0679" y2="487.0679"/><text fill="#000000" font-family="sans-serif" font-size="14" font-weight="bold" lengthAdjust="spacingAndGlyphs" textLength="84" x="727" y="478.9659">cell.CellData</text><!--MD5=[45c3ae773aee1b71cddd4784a2059d28]
cluster cell.Layer--><polygon fill="#FFFFFF" filter="url(#f17h8x7wqwwqwj)" points="190,455,261,455,268,480.0679,691,480.0679,691,617,190,617,190,455" style="stroke: #000000; stroke-width: 1.5;"/><line style="stroke: #000000; stroke-width: 1.5;" x1="190" x2="268" y1="480.0679" y2="480.0679"/><text fill="#000000" font-family="sans-serif" font-size="14" font-weight="bold" lengthAdjust="spacingAndGlyphs" textLength="65" x="194" y="471.9659">cell.Layer</text><!--MD5=[c3f073b049b3e733d78f8add24a1197d]
cluster cell.InputValidator--><polygon fill="#FFFFFF" filter="url(#f17h8x7wqwwqwj)" points="22,470,156,470,163,495.0679,166,495.0679,166,762.5,22,762.5,22,470" style="stroke: #000000; stroke-width: 1.5;"/><line style="stroke: #000000; stroke-width: 1.5;" x1="22" x2="163" y1="495.0679" y2="495.0679"/><text fill="#000000" font-family="sans-serif" font-size="14" font-weight="bold" lengthAdjust="spacingAndGlyphs" textLength="128" x="26" y="486.9659">cell.InputValidator</text><!--MD5=[b902366bdf3670774ff5b76da809304b]
cluster cell.Line--><polygon fill="#FFFFFF" filter="url(#f17h8x7wqwwqwj)" points="99,81.5,161,81.5,168,106.5679,515,106.5679,515,415.5,99,415.5,99,81.5" style="stroke: #000000; stroke-width: 1.5;"/><line style="stroke: #000000; stroke-width: 1.5;" x1="99" x2="168" y1="106.5679" y2="106.5679"/><text fill="#000000" font-family="sans-serif" font-size="14" font-weight="bold" lengthAdjust="spacingAndGlyphs" textLength="56" x="103" y="98.4659">cell.Line</text><!--MD5=[475d7e31ae450c1f0e9380770a86aa35]
cluster cell--><polygon fill="#FFFFFF" filter="url(#f17h8x7wqwwqwj)" points="547,290.5,576,290.5,583,315.5679,736,315.5679,736,392.5,547,392.5,547,290.5" style="stroke: #000000; stroke-width: 1.5;"/><line style="stroke: #000000; stroke-width: 1.5;" x1="547" x2="583" y1="315.5679" y2="315.5679"/><text fill="#000000" font-family="sans-serif" font-size="14" font-weight="bold" lengthAdjust="spacingAndGlyphs" textLength="23" x="551" y="307.4659">cell</text><!--MD5=[2b2b1b8eef5aa9ac0b3258834263bffb]
cluster recurrink--><polygon fill="#FFFFFF" filter="url(#f17h8x7wqwwqwj)" points="674,810,744,810,751,835.0679,972,835.0679,972,912,674,912,674,810" style="stroke: #000000; stroke-width: 1.5;"/><line style="stroke: #000000; stroke-width: 1.5;" x1="674" x2="751" y1="835.0679" y2="835.0679"/><text fill="#000000" font-family="sans-serif" font-size="14" font-weight="bold" lengthAdjust="spacingAndGlyphs" textLength="64" x="678" y="826.9659">recurrink</text><!--MD5=[14d234a86bbecd8e03c4419937e916f8]
cluster block--><polygon fill="#FFFFFF" filter="url(#f17h8x7wqwwqwj)" points="512,645.5,556,645.5,563,670.5679,608,670.5679,608,747.5,512,747.5,512,645.5" style="stroke: #000000; stroke-width: 1.5;"/><line style="stroke: #000000; stroke-width: 1.5;" x1="512" x2="563" y1="670.5679" y2="670.5679"/><text fill="#000000" font-family="sans-serif" font-size="14" font-weight="bold" lengthAdjust="spacingAndGlyphs" textLength="38" x="516" y="662.4659">block</text><!--MD5=[387792cb0941dc668e27a2c63f439b16]
cluster cell.shape.Rectangle--><polygon fill="#FFFFFF" filter="url(#f17h8x7wqwwqwj)" points="1913,290.5,2059,290.5,2066,315.5679,2069,315.5679,2069,392.5,1913,392.5,1913,290.5" style="stroke: #000000; stroke-width: 1.5;"/><line style="stroke: #000000; stroke-width: 1.5;" x1="1913" x2="2066" y1="315.5679" y2="315.5679"/><text fill="#000000" font-family="sans-serif" font-size="14" font-weight="bold" lengthAdjust="spacingAndGlyphs" textLength="140" x="1917" y="307.4659">cell.shape.Rectangle</text><!--MD5=[47b683bd8b53bcea24fd095404f5cb70]
class cell.Init.generate--><rect fill="#FEFECE" filter="url(#f17h8x7wqwwqwj)" height="122.9094" id="cell.Init.generate" style="stroke: #A80036; stroke-width: 1.5;" width="91" x="1353.5" y="291"/><ellipse cx="1372.1" cy="307" fill="#ADD1B2" rx="11" ry="11" style="stroke: #A80036; stroke-width: 1.0;"/><path d="M1375.0688,312.6406 Q1374.4906,312.9375 1373.85,313.0781 Q1373.2094,313.2344 1372.5063,313.2344 Q1370.0063,313.2344 1368.6781,311.5938 Q1367.3656,309.9375 1367.3656,306.8125 Q1367.3656,303.6875 1368.6781,302.0313 Q1370.0063,300.375 1372.5063,300.375 Q1373.2094,300.375 1373.85,300.5313 Q1374.5063,300.6875 1375.0688,300.9844 L1375.0688,303.7031 Q1374.4438,303.125 1373.85,302.8594 Q1373.2563,302.5781 1372.6313,302.5781 Q1371.2875,302.5781 1370.6,303.6563 Q1369.9125,304.7188 1369.9125,306.8125 Q1369.9125,308.9063 1370.6,309.9844 Q1371.2875,311.0469 1372.6313,311.0469 Q1373.2563,311.0469 1373.85,310.7813 Q1374.4438,310.5 1375.0688,309.9219 L1375.0688,312.6406 Z "/><text fill="#000000" font-family="sans-serif" font-size="12" lengthAdjust="spacingAndGlyphs" textLength="51" x="1386.9" y="311.656">generate</text><line style="stroke: #A80036; stroke-width: 1.5;" x1="1354.5" x2="1443.5" y1="323" y2="323"/><text fill="#000000" font-family="sans-serif" font-size="11" lengthAdjust="spacingAndGlyphs" textLength="18" x="1359.5" y="338.7589">top</text><text fill="#000000" font-family="sans-serif" font-size="11" lengthAdjust="spacingAndGlyphs" textLength="57" x="1359.5" y="353.7408">axis: NONE</text><text fill="#000000" font-family="sans-serif" font-size="11" lengthAdjust="spacingAndGlyphs" textLength="79" x="1359.5" y="368.7227">facing_c: FALSE</text><text fill="#000000" font-family="sans-serif" font-size="11" lengthAdjust="spacingAndGlyphs" textLength="69" x="1359.5" y="383.7046">facing: NONE</text><text fill="#000000" font-family="sans-serif" font-size="11" lengthAdjust="spacingAndGlyphs" textLength="70" x="1359.5" y="398.6865">stroke: NONE</text><line style="stroke: #A80036; stroke-width: 1.5;" x1="1354.5" x2="1443.5" y1="405.9094" y2="405.9094"/><!--MD5=[3160b4e592e6d6e9533b871267c3ae3f]
class cell.Geometry.generateFacingAny--><rect fill="#FEFECE" filter="url(#f17h8x7wqwwqwj)" height="62.9819" id="cell.Geometry.generateFacingAny" style="stroke: #A80036; stroke-width: 1.5;" width="140" x="823" y="142.5"/><ellipse cx="838" cy="158.5" fill="#ADD1B2" rx="11" ry="11" style="stroke: #A80036; stroke-width: 1.0;"/><path d="M840.9688,164.1406 Q840.3906,164.4375 839.75,164.5781 Q839.1094,164.7344 838.4063,164.7344 Q835.9063,164.7344 834.5781,163.0938 Q833.2656,161.4375 833.2656,158.3125 Q833.2656,155.1875 834.5781,153.5313 Q835.9063,151.875 838.4063,151.875 Q839.1094,151.875 839.75,152.0313 Q840.4063,152.1875 840.9688,152.4844 L840.9688,155.2031 Q840.3438,154.625 839.75,154.3594 Q839.1563,154.0781 838.5313,154.0781 Q837.1875,154.0781 836.5,155.1563 Q835.8125,156.2188 835.8125,158.3125 Q835.8125,160.4063 836.5,161.4844 Q837.1875,162.5469 838.5313,162.5469 Q839.1563,162.5469 839.75,162.2813 Q840.3438,162 840.9688,161.4219 L840.9688,164.1406 Z "/><text fill="#000000" font-family="sans-serif" font-size="12" lengthAdjust="spacingAndGlyphs" textLength="108" x="852" y="163.156">generateFacingAny</text><line style="stroke: #A80036; stroke-width: 1.5;" x1="824" x2="962" y1="174.5" y2="174.5"/><text fill="#000000" font-family="sans-serif" font-size="11" lengthAdjust="spacingAndGlyphs" textLength="55" x="829" y="190.2589">top: FALSE</text><line style="stroke: #A80036; stroke-width: 1.5;" x1="824" x2="962" y1="197.4819" y2="197.4819"/><!--MD5=[d2c56c2a4dc591769aeedc11b9068e1d]
class cell.Geometry.generateFacingCentre--><rect fill="#FEFECE" filter="url(#f17h8x7wqwwqwj)" height="62.9819" id="cell.Geometry.generateFacingCentre" style="stroke: #A80036; stroke-width: 1.5;" width="157" x="998.5" y="142.5"/><ellipse cx="1013.5" cy="158.5" fill="#ADD1B2" rx="11" ry="11" style="stroke: #A80036; stroke-width: 1.0;"/><path d="M1016.4688,164.1406 Q1015.8906,164.4375 1015.25,164.5781 Q1014.6094,164.7344 1013.9063,164.7344 Q1011.4063,164.7344 1010.0781,163.0938 Q1008.7656,161.4375 1008.7656,158.3125 Q1008.7656,155.1875 1010.0781,153.5313 Q1011.4063,151.875 1013.9063,151.875 Q1014.6094,151.875 1015.25,152.0313 Q1015.9063,152.1875 1016.4688,152.4844 L1016.4688,155.2031 Q1015.8438,154.625 1015.25,154.3594 Q1014.6563,154.0781 1014.0313,154.0781 Q1012.6875,154.0781 1012,155.1563 Q1011.3125,156.2188 1011.3125,158.3125 Q1011.3125,160.4063 1012,161.4844 Q1012.6875,162.5469 1014.0313,162.5469 Q1014.6563,162.5469 1015.25,162.2813 Q1015.8438,162 1016.4688,161.4219 L1016.4688,164.1406 Z "/><text fill="#000000" font-family="sans-serif" font-size="12" lengthAdjust="spacingAndGlyphs" textLength="125" x="1027.5" y="163.156">generateFacingCentre</text><line style="stroke: #A80036; stroke-width: 1.5;" x1="999.5" x2="1154.5" y1="174.5" y2="174.5"/><text fill="#000000" font-family="sans-serif" font-size="11" lengthAdjust="spacingAndGlyphs" textLength="55" x="1004.5" y="190.2589">top: FALSE</text><line style="stroke: #A80036; stroke-width: 1.5;" x1="999.5" x2="1154.5" y1="197.4819" y2="197.4819"/><!--MD5=[45041ea7dd47c938d326921f5563aebb]
class cell.Geometry.generateOne--><rect fill="#FEFECE" filter="url(#f17h8x7wqwwqwj)" height="92.9457" id="cell.Geometry.generateOne" style="stroke: #A80036; stroke-width: 1.5;" width="106" x="1191" y="127.5"/><ellipse cx="1206" cy="143.5" fill="#ADD1B2" rx="11" ry="11" style="stroke: #A80036; stroke-width: 1.0;"/><path d="M1208.9688,149.1406 Q1208.3906,149.4375 1207.75,149.5781 Q1207.1094,149.7344 1206.4063,149.7344 Q1203.9063,149.7344 1202.5781,148.0938 Q1201.2656,146.4375 1201.2656,143.3125 Q1201.2656,140.1875 1202.5781,138.5313 Q1203.9063,136.875 1206.4063,136.875 Q1207.1094,136.875 1207.75,137.0313 Q1208.4063,137.1875 1208.9688,137.4844 L1208.9688,140.2031 Q1208.3438,139.625 1207.75,139.3594 Q1207.1563,139.0781 1206.5313,139.0781 Q1205.1875,139.0781 1204.5,140.1563 Q1203.8125,141.2188 1203.8125,143.3125 Q1203.8125,145.4063 1204.5,146.4844 Q1205.1875,147.5469 1206.5313,147.5469 Q1207.1563,147.5469 1207.75,147.2813 Q1208.3438,147 1208.9688,146.4219 L1208.9688,149.1406 Z "/><text fill="#000000" font-family="sans-serif" font-size="12" lengthAdjust="spacingAndGlyphs" textLength="74" x="1220" y="148.156">generateOne</text><line style="stroke: #A80036; stroke-width: 1.5;" x1="1192" x2="1296" y1="159.5" y2="159.5"/><text fill="#000000" font-family="sans-serif" font-size="11" lengthAdjust="spacingAndGlyphs" textLength="20" x="1197" y="175.2589">axis</text><text fill="#000000" font-family="sans-serif" font-size="11" lengthAdjust="spacingAndGlyphs" textLength="18" x="1197" y="190.2408">top</text><text fill="#000000" font-family="sans-serif" font-size="11" lengthAdjust="spacingAndGlyphs" textLength="69" x="1197" y="205.2227">facing: NONE</text><line style="stroke: #A80036; stroke-width: 1.5;" x1="1192" x2="1296" y1="212.4457" y2="212.4457"/><!--MD5=[443032edd9ec442bbd52e884ed1727be]
class cell.Geometry.candidates--><rect fill="#FEFECE" filter="url(#f17h8x7wqwwqwj)" height="62.9819" id="cell.Geometry.candidates" style="stroke: #A80036; stroke-width: 1.5;" width="93" x="1025.5" y="321"/><ellipse cx="1040.5" cy="337" fill="#ADD1B2" rx="11" ry="11" style="stroke: #A80036; stroke-width: 1.0;"/><path d="M1043.4688,342.6406 Q1042.8906,342.9375 1042.25,343.0781 Q1041.6094,343.2344 1040.9063,343.2344 Q1038.4063,343.2344 1037.0781,341.5938 Q1035.7656,339.9375 1035.7656,336.8125 Q1035.7656,333.6875 1037.0781,332.0313 Q1038.4063,330.375 1040.9063,330.375 Q1041.6094,330.375 1042.25,330.5313 Q1042.9063,330.6875 1043.4688,330.9844 L1043.4688,333.7031 Q1042.8438,333.125 1042.25,332.8594 Q1041.6563,332.5781 1041.0313,332.5781 Q1039.6875,332.5781 1039,333.6563 Q1038.3125,334.7188 1038.3125,336.8125 Q1038.3125,338.9063 1039,339.9844 Q1039.6875,341.0469 1041.0313,341.0469 Q1041.6563,341.0469 1042.25,340.7813 Q1042.8438,340.5 1043.4688,339.9219 L1043.4688,342.6406 Z "/><text fill="#000000" font-family="sans-serif" font-size="12" lengthAdjust="spacingAndGlyphs" textLength="61" x="1054.5" y="341.656">candidates</text><line style="stroke: #A80036; stroke-width: 1.5;" x1="1026.5" x2="1117.5" y1="353" y2="353"/><text fill="#000000" font-family="sans-serif" font-size="11" lengthAdjust="spacingAndGlyphs" textLength="32" x="1031.5" y="368.7589">facing</text><line style="stroke: #A80036; stroke-width: 1.5;" x1="1026.5" x2="1117.5" y1="375.9819" y2="375.9819"/><!--MD5=[788155a3eb5d03d4407fad4e6d5bc107]
class cell.Palette.generateOne--><rect fill="#FEFECE" filter="url(#f17h8x7wqwwqwj)" height="62.9819" id="cell.Palette.generateOne" style="stroke: #A80036; stroke-width: 1.5;" width="106" x="1515" y="142.5"/><ellipse cx="1530" cy="158.5" fill="#ADD1B2" rx="11" ry="11" style="stroke: #A80036; stroke-width: 1.0;"/><path d="M1532.9688,164.1406 Q1532.3906,164.4375 1531.75,164.5781 Q1531.1094,164.7344 1530.4063,164.7344 Q1527.9063,164.7344 1526.5781,163.0938 Q1525.2656,161.4375 1525.2656,158.3125 Q1525.2656,155.1875 1526.5781,153.5313 Q1527.9063,151.875 1530.4063,151.875 Q1531.1094,151.875 1531.75,152.0313 Q1532.4063,152.1875 1532.9688,152.4844 L1532.9688,155.2031 Q1532.3438,154.625 1531.75,154.3594 Q1531.1563,154.0781 1530.5313,154.0781 Q1529.1875,154.0781 1528.5,155.1563 Q1527.8125,156.2188 1527.8125,158.3125 Q1527.8125,160.4063 1528.5,161.4844 Q1529.1875,162.5469 1530.5313,162.5469 Q1531.1563,162.5469 1531.75,162.2813 Q1532.3438,162 1532.9688,161.4219 L1532.9688,164.1406 Z "/><text fill="#000000" font-family="sans-serif" font-size="12" lengthAdjust="spacingAndGlyphs" textLength="74" x="1544" y="163.156">generateOne</text><line style="stroke: #A80036; stroke-width: 1.5;" x1="1516" x2="1620" y1="174.5" y2="174.5"/><text fill="#000000" font-family="sans-serif" font-size="11" lengthAdjust="spacingAndGlyphs" textLength="32" x="1521" y="190.2589">colors</text><line style="stroke: #A80036; stroke-width: 1.5;" x1="1516" x2="1620" y1="197.4819" y2="197.4819"/><!--MD5=[ec8351765def375cc9e414ebbd82bf58]
class cell.Strokes.generateOne--><rect fill="#FEFECE" filter="url(#f17h8x7wqwwqwj)" height="77.9638" id="cell.Strokes.generateOne" style="stroke: #A80036; stroke-width: 1.5;" width="106" x="1353" y="135"/><ellipse cx="1368" cy="151" fill="#ADD1B2" rx="11" ry="11" style="stroke: #A80036; stroke-width: 1.0;"/><path d="M1370.9688,156.6406 Q1370.3906,156.9375 1369.75,157.0781 Q1369.1094,157.2344 1368.4063,157.2344 Q1365.9063,157.2344 1364.5781,155.5938 Q1363.2656,153.9375 1363.2656,150.8125 Q1363.2656,147.6875 1364.5781,146.0313 Q1365.9063,144.375 1368.4063,144.375 Q1369.1094,144.375 1369.75,144.5313 Q1370.4063,144.6875 1370.9688,144.9844 L1370.9688,147.7031 Q1370.3438,147.125 1369.75,146.8594 Q1369.1563,146.5781 1368.5313,146.5781 Q1367.1875,146.5781 1366.5,147.6563 Q1365.8125,148.7188 1365.8125,150.8125 Q1365.8125,152.9063 1366.5,153.9844 Q1367.1875,155.0469 1368.5313,155.0469 Q1369.1563,155.0469 1369.75,154.7813 Q1370.3438,154.5 1370.9688,153.9219 L1370.9688,156.6406 Z "/><text fill="#000000" font-family="sans-serif" font-size="12" lengthAdjust="spacingAndGlyphs" textLength="74" x="1382" y="155.656">generateOne</text><line style="stroke: #A80036; stroke-width: 1.5;" x1="1354" x2="1458" y1="167" y2="167"/><text fill="#000000" font-family="sans-serif" font-size="11" lengthAdjust="spacingAndGlyphs" textLength="32" x="1359" y="182.7589">colors</text><text fill="#000000" font-family="sans-serif" font-size="11" lengthAdjust="spacingAndGlyphs" textLength="32" x="1359" y="197.7408">colors</text><line style="stroke: #A80036; stroke-width: 1.5;" x1="1354" x2="1458" y1="204.9638" y2="204.9638"/><!--MD5=[7a5ae4820e4d17cf85d17135d9ff5717]
class cell.Spiral.make--><rect fill="#FEFECE" filter="url(#f17h8x7wqwwqwj)" height="77.9638" id="cell.Spiral.make" style="stroke: #A80036; stroke-width: 1.5;" width="63" x="2235.5" y="135"/><ellipse cx="2250.5" cy="151" fill="#ADD1B2" rx="11" ry="11" style="stroke: #A80036; stroke-width: 1.0;"/><path d="M2253.4688,156.6406 Q2252.8906,156.9375 2252.25,157.0781 Q2251.6094,157.2344 2250.9063,157.2344 Q2248.4063,157.2344 2247.0781,155.5938 Q2245.7656,153.9375 2245.7656,150.8125 Q2245.7656,147.6875 2247.0781,146.0313 Q2248.4063,144.375 2250.9063,144.375 Q2251.6094,144.375 2252.25,144.5313 Q2252.9063,144.6875 2253.4688,144.9844 L2253.4688,147.7031 Q2252.8438,147.125 2252.25,146.8594 Q2251.6563,146.5781 2251.0313,146.5781 Q2249.6875,146.5781 2249,147.6563 Q2248.3125,148.7188 2248.3125,150.8125 Q2248.3125,152.9063 2249,153.9844 Q2249.6875,155.0469 2251.0313,155.0469 Q2251.6563,155.0469 2252.25,154.7813 Q2252.8438,154.5 2253.4688,153.9219 L2253.4688,156.6406 Z "/><text fill="#000000" font-family="sans-serif" font-size="12" lengthAdjust="spacingAndGlyphs" textLength="31" x="2264.5" y="155.656">make</text><line style="stroke: #A80036; stroke-width: 1.5;" x1="2236.5" x2="2297.5" y1="167" y2="167"/><text fill="#000000" font-family="sans-serif" font-size="11" lengthAdjust="spacingAndGlyphs" textLength="21" x="2241.5" y="182.7589">clen</text><text fill="#000000" font-family="sans-serif" font-size="11" lengthAdjust="spacingAndGlyphs" textLength="40" x="2241.5" y="197.7408">bounds</text><line style="stroke: #A80036; stroke-width: 1.5;" x1="2236.5" x2="2297.5" y1="204.9638" y2="204.9638"/><!--MD5=[ce3df1d3069416b8f3b569c644b24320]
class cell.Spiral.offset--><rect fill="#FEFECE" filter="url(#f17h8x7wqwwqwj)" height="92.9457" id="cell.Spiral.offset" style="stroke: #A80036; stroke-width: 1.5;" width="64" x="2334" y="127.5"/><ellipse cx="2349" cy="143.5" fill="#ADD1B2" rx="11" ry="11" style="stroke: #A80036; stroke-width: 1.0;"/><path d="M2351.9688,149.1406 Q2351.3906,149.4375 2350.75,149.5781 Q2350.1094,149.7344 2349.4063,149.7344 Q2346.9063,149.7344 2345.5781,148.0938 Q2344.2656,146.4375 2344.2656,143.3125 Q2344.2656,140.1875 2345.5781,138.5313 Q2346.9063,136.875 2349.4063,136.875 Q2350.1094,136.875 2350.75,137.0313 Q2351.4063,137.1875 2351.9688,137.4844 L2351.9688,140.2031 Q2351.3438,139.625 2350.75,139.3594 Q2350.1563,139.0781 2349.5313,139.0781 Q2348.1875,139.0781 2347.5,140.1563 Q2346.8125,141.2188 2346.8125,143.3125 Q2346.8125,145.4063 2347.5,146.4844 Q2348.1875,147.5469 2349.5313,147.5469 Q2350.1563,147.5469 2350.75,147.2813 Q2351.3438,147 2351.9688,146.4219 L2351.9688,149.1406 Z "/><text fill="#000000" font-family="sans-serif" font-size="12" lengthAdjust="spacingAndGlyphs" textLength="32" x="2363" y="148.156">offset</text><line style="stroke: #A80036; stroke-width: 1.5;" x1="2335" x2="2397" y1="159.5" y2="159.5"/><text fill="#000000" font-family="sans-serif" font-size="11" lengthAdjust="spacingAndGlyphs" textLength="21" x="2340" y="175.2589">clen</text><text fill="#000000" font-family="sans-serif" font-size="11" lengthAdjust="spacingAndGlyphs" textLength="19" x="2340" y="190.2408">pos</text><text fill="#000000" font-family="sans-serif" font-size="11" lengthAdjust="spacingAndGlyphs" textLength="33" x="2340" y="205.2227">points</text><line style="stroke: #A80036; stroke-width: 1.5;" x1="2335" x2="2397" y1="212.4457" y2="212.4457"/><!--MD5=[1ade288f9fe3b4a7a3792247e41007e8]
class cell.Spiral.splitLine--><rect fill="#FEFECE" filter="url(#f17h8x7wqwwqwj)" height="77.9638" id="cell.Spiral.splitLine" style="stroke: #A80036; stroke-width: 1.5;" width="78" x="2433" y="135"/><ellipse cx="2448" cy="151" fill="#ADD1B2" rx="11" ry="11" style="stroke: #A80036; stroke-width: 1.0;"/><path d="M2450.9688,156.6406 Q2450.3906,156.9375 2449.75,157.0781 Q2449.1094,157.2344 2448.4063,157.2344 Q2445.9063,157.2344 2444.5781,155.5938 Q2443.2656,153.9375 2443.2656,150.8125 Q2443.2656,147.6875 2444.5781,146.0313 Q2445.9063,144.375 2448.4063,144.375 Q2449.1094,144.375 2449.75,144.5313 Q2450.4063,144.6875 2450.9688,144.9844 L2450.9688,147.7031 Q2450.3438,147.125 2449.75,146.8594 Q2449.1563,146.5781 2448.5313,146.5781 Q2447.1875,146.5781 2446.5,147.6563 Q2445.8125,148.7188 2445.8125,150.8125 Q2445.8125,152.9063 2446.5,153.9844 Q2447.1875,155.0469 2448.5313,155.0469 Q2449.1563,155.0469 2449.75,154.7813 Q2450.3438,154.5 2450.9688,153.9219 L2450.9688,156.6406 Z "/><text fill="#000000" font-family="sans-serif" font-size="12" lengthAdjust="spacingAndGlyphs" textLength="46" x="2462" y="155.656">splitLine</text><line style="stroke: #A80036; stroke-width: 1.5;" x1="2434" x2="2510" y1="167" y2="167"/><text fill="#000000" font-family="sans-serif" font-size="11" lengthAdjust="spacingAndGlyphs" textLength="19" x="2439" y="182.7589">line</text><text fill="#000000" font-family="sans-serif" font-size="11" lengthAdjust="spacingAndGlyphs" textLength="23" x="2439" y="197.7408">hole</text><line style="stroke: #A80036; stroke-width: 1.5;" x1="2434" x2="2510" y1="204.9638" y2="204.9638"/><!--MD5=[c7be4b10872b3ac283f1f6f8f4111beb]
class cell.Spiral.prettyPrint--><rect fill="#FEFECE" filter="url(#f17h8x7wqwwqwj)" height="77.9638" id="cell.Spiral.prettyPrint" style="stroke: #A80036; stroke-width: 1.5;" width="91" x="2109.5" y="135"/><ellipse cx="2124.5" cy="151" fill="#ADD1B2" rx="11" ry="11" style="stroke: #A80036; stroke-width: 1.0;"/><path d="M2127.4688,156.6406 Q2126.8906,156.9375 2126.25,157.0781 Q2125.6094,157.2344 2124.9063,157.2344 Q2122.4063,157.2344 2121.0781,155.5938 Q2119.7656,153.9375 2119.7656,150.8125 Q2119.7656,147.6875 2121.0781,146.0313 Q2122.4063,144.375 2124.9063,144.375 Q2125.6094,144.375 2126.25,144.5313 Q2126.9063,144.6875 2127.4688,144.9844 L2127.4688,147.7031 Q2126.8438,147.125 2126.25,146.8594 Q2125.6563,146.5781 2125.0313,146.5781 Q2123.6875,146.5781 2123,147.6563 Q2122.3125,148.7188 2122.3125,150.8125 Q2122.3125,152.9063 2123,153.9844 Q2123.6875,155.0469 2125.0313,155.0469 Q2125.6563,155.0469 2126.25,154.7813 Q2126.8438,154.5 2127.4688,153.9219 L2127.4688,156.6406 Z "/><text fill="#000000" font-family="sans-serif" font-size="12" lengthAdjust="spacingAndGlyphs" textLength="59" x="2138.5" y="155.656">prettyPrint</text><line style="stroke: #A80036; stroke-width: 1.5;" x1="2110.5" x2="2199.5" y1="167" y2="167"/><text fill="#000000" font-family="sans-serif" font-size="11" lengthAdjust="spacingAndGlyphs" textLength="21" x="2115.5" y="182.7589">clen</text><text fill="#000000" font-family="sans-serif" font-size="11" lengthAdjust="spacingAndGlyphs" textLength="14" x="2115.5" y="197.7408">db</text><line style="stroke: #A80036; stroke-width: 1.5;" x1="2110.5" x2="2199.5" y1="204.9638" y2="204.9638"/><!--MD5=[f4511cca64dea094642614cb3c305992]
class cell.Spiral.matrix--><rect fill="#FEFECE" filter="url(#f17h8x7wqwwqwj)" height="62.9819" id="cell.Spiral.matrix" style="stroke: #A80036; stroke-width: 1.5;" width="68" x="2283" y="321"/><ellipse cx="2298" cy="337" fill="#ADD1B2" rx="11" ry="11" style="stroke: #A80036; stroke-width: 1.0;"/><path d="M2300.9688,342.6406 Q2300.3906,342.9375 2299.75,343.0781 Q2299.1094,343.2344 2298.4063,343.2344 Q2295.9063,343.2344 2294.5781,341.5938 Q2293.2656,339.9375 2293.2656,336.8125 Q2293.2656,333.6875 2294.5781,332.0313 Q2295.9063,330.375 2298.4063,330.375 Q2299.1094,330.375 2299.75,330.5313 Q2300.4063,330.6875 2300.9688,330.9844 L2300.9688,333.7031 Q2300.3438,333.125 2299.75,332.8594 Q2299.1563,332.5781 2298.5313,332.5781 Q2297.1875,332.5781 2296.5,333.6563 Q2295.8125,334.7188 2295.8125,336.8125 Q2295.8125,338.9063 2296.5,339.9844 Q2297.1875,341.0469 2298.5313,341.0469 Q2299.1563,341.0469 2299.75,340.7813 Q2300.3438,340.5 2300.9688,339.9219 L2300.9688,342.6406 Z "/><text fill="#000000" font-family="sans-serif" font-size="12" lengthAdjust="spacingAndGlyphs" textLength="36" x="2312" y="341.656">matrix</text><line style="stroke: #A80036; stroke-width: 1.5;" x1="2284" x2="2350" y1="353" y2="353"/><text fill="#000000" font-family="sans-serif" font-size="11" lengthAdjust="spacingAndGlyphs" textLength="20" x="2289" y="368.7589">LEN</text><line style="stroke: #A80036; stroke-width: 1.5;" x1="2284" x2="2350" y1="375.9819" y2="375.9819"/><!--MD5=[a512a6fda83f7eb25d99cb1cd49bfdc0]
class cell.Spiral.r1--><rect fill="#FEFECE" filter="url(#f17h8x7wqwwqwj)" height="92.9457" id="cell.Spiral.r1" style="stroke: #A80036; stroke-width: 1.5;" width="44" x="2386" y="306"/><ellipse cx="2401" cy="322" fill="#ADD1B2" rx="11" ry="11" style="stroke: #A80036; stroke-width: 1.0;"/><path d="M2403.9688,327.6406 Q2403.3906,327.9375 2402.75,328.0781 Q2402.1094,328.2344 2401.4063,328.2344 Q2398.9063,328.2344 2397.5781,326.5938 Q2396.2656,324.9375 2396.2656,321.8125 Q2396.2656,318.6875 2397.5781,317.0313 Q2398.9063,315.375 2401.4063,315.375 Q2402.1094,315.375 2402.75,315.5313 Q2403.4063,315.6875 2403.9688,315.9844 L2403.9688,318.7031 Q2403.3438,318.125 2402.75,317.8594 Q2402.1563,317.5781 2401.5313,317.5781 Q2400.1875,317.5781 2399.5,318.6563 Q2398.8125,319.7188 2398.8125,321.8125 Q2398.8125,323.9063 2399.5,324.9844 Q2400.1875,326.0469 2401.5313,326.0469 Q2402.1563,326.0469 2402.75,325.7813 Q2403.3438,325.5 2403.9688,324.9219 L2403.9688,327.6406 Z "/><text fill="#000000" font-family="sans-serif" font-size="12" lengthAdjust="spacingAndGlyphs" textLength="12" x="2415" y="326.656">r1</text><line style="stroke: #A80036; stroke-width: 1.5;" x1="2387" x2="2429" y1="338" y2="338"/><text fill="#000000" font-family="sans-serif" font-size="11" lengthAdjust="spacingAndGlyphs" textLength="5" x="2392" y="353.7589">s</text><text fill="#000000" font-family="sans-serif" font-size="11" lengthAdjust="spacingAndGlyphs" textLength="7" x="2392" y="368.7408">n</text><text fill="#000000" font-family="sans-serif" font-size="11" lengthAdjust="spacingAndGlyphs" textLength="3" x="2392" y="383.7227">l</text><line style="stroke: #A80036; stroke-width: 1.5;" x1="2387" x2="2429" y1="390.9457" y2="390.9457"/><!--MD5=[c9bec49d989c6db4e5a64d8e826039ff]
class cell.Spiral.c1--><rect fill="#FEFECE" filter="url(#f17h8x7wqwwqwj)" height="92.9457" id="cell.Spiral.c1" style="stroke: #A80036; stroke-width: 1.5;" width="45" x="2465.5" y="306"/><ellipse cx="2480.5" cy="322" fill="#ADD1B2" rx="11" ry="11" style="stroke: #A80036; stroke-width: 1.0;"/><path d="M2483.4688,327.6406 Q2482.8906,327.9375 2482.25,328.0781 Q2481.6094,328.2344 2480.9063,328.2344 Q2478.4063,328.2344 2477.0781,326.5938 Q2475.7656,324.9375 2475.7656,321.8125 Q2475.7656,318.6875 2477.0781,317.0313 Q2478.4063,315.375 2480.9063,315.375 Q2481.6094,315.375 2482.25,315.5313 Q2482.9063,315.6875 2483.4688,315.9844 L2483.4688,318.7031 Q2482.8438,318.125 2482.25,317.8594 Q2481.6563,317.5781 2481.0313,317.5781 Q2479.6875,317.5781 2479,318.6563 Q2478.3125,319.7188 2478.3125,321.8125 Q2478.3125,323.9063 2479,324.9844 Q2479.6875,326.0469 2481.0313,326.0469 Q2481.6563,326.0469 2482.25,325.7813 Q2482.8438,325.5 2483.4688,324.9219 L2483.4688,327.6406 Z "/><text fill="#000000" font-family="sans-serif" font-size="12" lengthAdjust="spacingAndGlyphs" textLength="13" x="2494.5" y="326.656">c1</text><line style="stroke: #A80036; stroke-width: 1.5;" x1="2466.5" x2="2509.5" y1="338" y2="338"/><text fill="#000000" font-family="sans-serif" font-size="11" lengthAdjust="spacingAndGlyphs" textLength="5" x="2471.5" y="353.7589">s</text><text fill="#000000" font-family="sans-serif" font-size="11" lengthAdjust="spacingAndGlyphs" textLength="7" x="2471.5" y="368.7408">n</text><text fill="#000000" font-family="sans-serif" font-size="11" lengthAdjust="spacingAndGlyphs" textLength="3" x="2471.5" y="383.7227">l</text><line style="stroke: #A80036; stroke-width: 1.5;" x1="2466.5" x2="2509.5" y1="390.9457" y2="390.9457"/><!--MD5=[5a527b1db49e09475f05e95dac837bff]
class cell.Spiral.r2--><rect fill="#FEFECE" filter="url(#f17h8x7wqwwqwj)" height="92.9457" id="cell.Spiral.r2" style="stroke: #A80036; stroke-width: 1.5;" width="44" x="2295" y="500.5"/><ellipse cx="2310" cy="516.5" fill="#ADD1B2" rx="11" ry="11" style="stroke: #A80036; stroke-width: 1.0;"/><path d="M2312.9688,522.1406 Q2312.3906,522.4375 2311.75,522.5781 Q2311.1094,522.7344 2310.4063,522.7344 Q2307.9063,522.7344 2306.5781,521.0938 Q2305.2656,519.4375 2305.2656,516.3125 Q2305.2656,513.1875 2306.5781,511.5313 Q2307.9063,509.875 2310.4063,509.875 Q2311.1094,509.875 2311.75,510.0313 Q2312.4063,510.1875 2312.9688,510.4844 L2312.9688,513.2031 Q2312.3438,512.625 2311.75,512.3594 Q2311.1563,512.0781 2310.5313,512.0781 Q2309.1875,512.0781 2308.5,513.1563 Q2307.8125,514.2188 2307.8125,516.3125 Q2307.8125,518.4063 2308.5,519.4844 Q2309.1875,520.5469 2310.5313,520.5469 Q2311.1563,520.5469 2311.75,520.2813 Q2312.3438,520 2312.9688,519.4219 L2312.9688,522.1406 Z "/><text fill="#000000" font-family="sans-serif" font-size="12" lengthAdjust="spacingAndGlyphs" textLength="12" x="2324" y="521.156">r2</text><line style="stroke: #A80036; stroke-width: 1.5;" x1="2296" x2="2338" y1="532.5" y2="532.5"/><text fill="#000000" font-family="sans-serif" font-size="11" lengthAdjust="spacingAndGlyphs" textLength="5" x="2301" y="548.2589">s</text><text fill="#000000" font-family="sans-serif" font-size="11" lengthAdjust="spacingAndGlyphs" textLength="7" x="2301" y="563.2408">n</text><text fill="#000000" font-family="sans-serif" font-size="11" lengthAdjust="spacingAndGlyphs" textLength="3" x="2301" y="578.2227">l</text><line style="stroke: #A80036; stroke-width: 1.5;" x1="2296" x2="2338" y1="585.4457" y2="585.4457"/><!--MD5=[34564129cfc6adaf96dce4b64e7f8aad]
class cell.Spiral.c2--><rect fill="#FEFECE" filter="url(#f17h8x7wqwwqwj)" height="92.9457" id="cell.Spiral.c2" style="stroke: #A80036; stroke-width: 1.5;" width="45" x="2374.5" y="500.5"/><ellipse cx="2389.5" cy="516.5" fill="#ADD1B2" rx="11" ry="11" style="stroke: #A80036; stroke-width: 1.0;"/><path d="M2392.4688,522.1406 Q2391.8906,522.4375 2391.25,522.5781 Q2390.6094,522.7344 2389.9063,522.7344 Q2387.4063,522.7344 2386.0781,521.0938 Q2384.7656,519.4375 2384.7656,516.3125 Q2384.7656,513.1875 2386.0781,511.5313 Q2387.4063,509.875 2389.9063,509.875 Q2390.6094,509.875 2391.25,510.0313 Q2391.9063,510.1875 2392.4688,510.4844 L2392.4688,513.2031 Q2391.8438,512.625 2391.25,512.3594 Q2390.6563,512.0781 2390.0313,512.0781 Q2388.6875,512.0781 2388,513.1563 Q2387.3125,514.2188 2387.3125,516.3125 Q2387.3125,518.4063 2388,519.4844 Q2388.6875,520.5469 2390.0313,520.5469 Q2390.6563,520.5469 2391.25,520.2813 Q2391.8438,520 2392.4688,519.4219 L2392.4688,522.1406 Z "/><text fill="#000000" font-family="sans-serif" font-size="12" lengthAdjust="spacingAndGlyphs" textLength="13" x="2403.5" y="521.156">c2</text><line style="stroke: #A80036; stroke-width: 1.5;" x1="2375.5" x2="2418.5" y1="532.5" y2="532.5"/><text fill="#000000" font-family="sans-serif" font-size="11" lengthAdjust="spacingAndGlyphs" textLength="5" x="2380.5" y="548.2589">s</text><text fill="#000000" font-family="sans-serif" font-size="11" lengthAdjust="spacingAndGlyphs" textLength="7" x="2380.5" y="563.2408">n</text><text fill="#000000" font-family="sans-serif" font-size="11" lengthAdjust="spacingAndGlyphs" textLength="3" x="2380.5" y="578.2227">l</text><line style="stroke: #A80036; stroke-width: 1.5;" x1="2375.5" x2="2418.5" y1="585.4457" y2="585.4457"/><!--MD5=[136b10cb312359b683c7756d646c5379]
class cell.Transform.dataV2--><rect fill="#FEFECE" filter="url(#f17h8x7wqwwqwj)" height="62.9819" id="cell.Transform.dataV2" style="stroke: #A80036; stroke-width: 1.5;" width="71" x="1622.5" y="321"/><ellipse cx="1637.5" cy="337" fill="#ADD1B2" rx="11" ry="11" style="stroke: #A80036; stroke-width: 1.0;"/><path d="M1640.4688,342.6406 Q1639.8906,342.9375 1639.25,343.0781 Q1638.6094,343.2344 1637.9063,343.2344 Q1635.4063,343.2344 1634.0781,341.5938 Q1632.7656,339.9375 1632.7656,336.8125 Q1632.7656,333.6875 1634.0781,332.0313 Q1635.4063,330.375 1637.9063,330.375 Q1638.6094,330.375 1639.25,330.5313 Q1639.9063,330.6875 1640.4688,330.9844 L1640.4688,333.7031 Q1639.8438,333.125 1639.25,332.8594 Q1638.6563,332.5781 1638.0313,332.5781 Q1636.6875,332.5781 1636,333.6563 Q1635.3125,334.7188 1635.3125,336.8125 Q1635.3125,338.9063 1636,339.9844 Q1636.6875,341.0469 1638.0313,341.0469 Q1638.6563,341.0469 1639.25,340.7813 Q1639.8438,340.5 1640.4688,339.9219 L1640.4688,342.6406 Z "/><text fill="#000000" font-family="sans-serif" font-size="12" lengthAdjust="spacingAndGlyphs" textLength="39" x="1651.5" y="341.656">dataV2</text><line style="stroke: #A80036; stroke-width: 1.5;" x1="1623.5" x2="1692.5" y1="353" y2="353"/><text fill="#000000" font-family="sans-serif" font-size="11" lengthAdjust="spacingAndGlyphs" textLength="40" x="1628.5" y="368.7589">celldata</text><line style="stroke: #A80036; stroke-width: 1.5;" x1="1623.5" x2="1692.5" y1="375.9819" y2="375.9819"/><!--MD5=[6af159930241264eef9cbe73191a259e]
class cell.Transform.dataV3--><rect fill="#FEFECE" filter="url(#f17h8x7wqwwqwj)" height="62.9819" id="cell.Transform.dataV3" style="stroke: #A80036; stroke-width: 1.5;" width="71" x="1728.5" y="321"/><ellipse cx="1743.5" cy="337" fill="#ADD1B2" rx="11" ry="11" style="stroke: #A80036; stroke-width: 1.0;"/><path d="M1746.4688,342.6406 Q1745.8906,342.9375 1745.25,343.0781 Q1744.6094,343.2344 1743.9063,343.2344 Q1741.4063,343.2344 1740.0781,341.5938 Q1738.7656,339.9375 1738.7656,336.8125 Q1738.7656,333.6875 1740.0781,332.0313 Q1741.4063,330.375 1743.9063,330.375 Q1744.6094,330.375 1745.25,330.5313 Q1745.9063,330.6875 1746.4688,330.9844 L1746.4688,333.7031 Q1745.8438,333.125 1745.25,332.8594 Q1744.6563,332.5781 1744.0313,332.5781 Q1742.6875,332.5781 1742,333.6563 Q1741.3125,334.7188 1741.3125,336.8125 Q1741.3125,338.9063 1742,339.9844 Q1742.6875,341.0469 1744.0313,341.0469 Q1744.6563,341.0469 1745.25,340.7813 Q1745.8438,340.5 1746.4688,339.9219 L1746.4688,342.6406 Z "/><text fill="#000000" font-family="sans-serif" font-size="12" lengthAdjust="spacingAndGlyphs" textLength="39" x="1757.5" y="341.656">dataV3</text><line style="stroke: #A80036; stroke-width: 1.5;" x1="1729.5" x2="1798.5" y1="353" y2="353"/><text fill="#000000" font-family="sans-serif" font-size="11" lengthAdjust="spacingAndGlyphs" textLength="40" x="1734.5" y="368.7589">celldata</text><line style="stroke: #A80036; stroke-width: 1.5;" x1="1729.5" x2="1798.5" y1="375.9819" y2="375.9819"/><!--MD5=[2a979e92772bf3b6e1fd604c19b544f0]
class cell.Transform.txDbv3Yaml--><rect fill="#FEFECE" filter="url(#f17h8x7wqwwqwj)" height="77.9638" id="cell.Transform.txDbv3Yaml" style="stroke: #A80036; stroke-width: 1.5;" width="153" x="1525.5" y="508"/><ellipse cx="1564.8" cy="524" fill="#ADD1B2" rx="11" ry="11" style="stroke: #A80036; stroke-width: 1.0;"/><path d="M1567.7688,529.6406 Q1567.1906,529.9375 1566.55,530.0781 Q1565.9094,530.2344 1565.2063,530.2344 Q1562.7063,530.2344 1561.3781,528.5938 Q1560.0656,526.9375 1560.0656,523.8125 Q1560.0656,520.6875 1561.3781,519.0313 Q1562.7063,517.375 1565.2063,517.375 Q1565.9094,517.375 1566.55,517.5313 Q1567.2063,517.6875 1567.7688,517.9844 L1567.7688,520.7031 Q1567.1438,520.125 1566.55,519.8594 Q1565.9563,519.5781 1565.3313,519.5781 Q1563.9875,519.5781 1563.3,520.6563 Q1562.6125,521.7188 1562.6125,523.8125 Q1562.6125,525.9063 1563.3,526.9844 Q1563.9875,528.0469 1565.3313,528.0469 Q1565.9563,528.0469 1566.55,527.7813 Q1567.1438,527.5 1567.7688,526.9219 L1567.7688,529.6406 Z "/><text fill="#000000" font-family="sans-serif" font-size="12" lengthAdjust="spacingAndGlyphs" textLength="67" x="1584.2" y="528.656">txDbv3Yaml</text><line style="stroke: #A80036; stroke-width: 1.5;" x1="1526.5" x2="1677.5" y1="540" y2="540"/><text fill="#000000" font-family="sans-serif" font-size="11" lengthAdjust="spacingAndGlyphs" textLength="22" x="1531.5" y="555.7589">cells</text><line style="stroke: #A80036; stroke-width: 1.5;" x1="1526.5" x2="1677.5" y1="562.9819" y2="562.9819"/><text fill="#000000" font-family="sans-serif" font-size="11" lengthAdjust="spacingAndGlyphs" textLength="141" x="1531.5" y="578.7408">penwidth_mm: DECIMAL(1)</text><!--MD5=[f0225689ca2605536fc573985242d4c9]
class cell.Transform.txDbv3YamlOneCell--><rect fill="#FEFECE" filter="url(#f17h8x7wqwwqwj)" height="77.9638" id="cell.Transform.txDbv3YamlOneCell" style="stroke: #A80036; stroke-width: 1.5;" width="143" x="1713.5" y="508"/><ellipse cx="1728.5" cy="524" fill="#ADD1B2" rx="11" ry="11" style="stroke: #A80036; stroke-width: 1.0;"/><path d="M1731.4688,529.6406 Q1730.8906,529.9375 1730.25,530.0781 Q1729.6094,530.2344 1728.9063,530.2344 Q1726.4063,530.2344 1725.0781,528.5938 Q1723.7656,526.9375 1723.7656,523.8125 Q1723.7656,520.6875 1725.0781,519.0313 Q1726.4063,517.375 1728.9063,517.375 Q1729.6094,517.375 1730.25,517.5313 Q1730.9063,517.6875 1731.4688,517.9844 L1731.4688,520.7031 Q1730.8438,520.125 1730.25,519.8594 Q1729.6563,519.5781 1729.0313,519.5781 Q1727.6875,519.5781 1727,520.6563 Q1726.3125,521.7188 1726.3125,523.8125 Q1726.3125,525.9063 1727,526.9844 Q1727.6875,528.0469 1729.0313,528.0469 Q1729.6563,528.0469 1730.25,527.7813 Q1730.8438,527.5 1731.4688,526.9219 L1731.4688,529.6406 Z "/><text fill="#000000" font-family="sans-serif" font-size="12" lengthAdjust="spacingAndGlyphs" textLength="111" x="1742.5" y="528.656">txDbv3YamlOneCell</text><line style="stroke: #A80036; stroke-width: 1.5;" x1="1714.5" x2="1855.5" y1="540" y2="540"/><text fill="#000000" font-family="sans-serif" font-size="11" lengthAdjust="spacingAndGlyphs" textLength="17" x="1719.5" y="555.7589">cell</text><text fill="#000000" font-family="sans-serif" font-size="11" lengthAdjust="spacingAndGlyphs" textLength="75" x="1719.5" y="570.7408">penwidth_mm</text><line style="stroke: #A80036; stroke-width: 1.5;" x1="1714.5" x2="1855.5" y1="577.9638" y2="577.9638"/><!--MD5=[a9a6ebf903e4d63c45a9a9e2fcf687e3]
class cell.CellData.layers--><rect fill="#FEFECE" filter="url(#f17h8x7wqwwqwj)" height="77.9638" id="cell.CellData.layers" style="stroke: #A80036; stroke-width: 1.5;" width="89" x="853.5" y="508"/><ellipse cx="878.85" cy="524" fill="#ADD1B2" rx="11" ry="11" style="stroke: #A80036; stroke-width: 1.0;"/><path d="M881.8188,529.6406 Q881.2406,529.9375 880.6,530.0781 Q879.9594,530.2344 879.2563,530.2344 Q876.7563,530.2344 875.4281,528.5938 Q874.1156,526.9375 874.1156,523.8125 Q874.1156,520.6875 875.4281,519.0313 Q876.7563,517.375 879.2563,517.375 Q879.9594,517.375 880.6,517.5313 Q881.2563,517.6875 881.8188,517.9844 L881.8188,520.7031 Q881.1938,520.125 880.6,519.8594 Q880.0063,519.5781 879.3813,519.5781 Q878.0375,519.5781 877.35,520.6563 Q876.6625,521.7188 876.6625,523.8125 Q876.6625,525.9063 877.35,526.9844 Q878.0375,528.0469 879.3813,528.0469 Q880.0063,528.0469 880.6,527.7813 Q881.1938,527.5 881.8188,526.9219 L881.8188,529.6406 Z "/><text fill="#000000" font-family="sans-serif" font-size="12" lengthAdjust="spacingAndGlyphs" textLength="34" x="895.15" y="528.656">layers</text><line style="stroke: #A80036; stroke-width: 1.5;" x1="854.5" x2="941.5" y1="540" y2="540"/><text fill="#000000" font-family="sans-serif" font-size="11" lengthAdjust="spacingAndGlyphs" textLength="31" x="859.5" y="555.7589">rinkid</text><line style="stroke: #A80036; stroke-width: 1.5;" x1="854.5" x2="941.5" y1="562.9819" y2="562.9819"/><text fill="#000000" font-family="sans-serif" font-size="11" lengthAdjust="spacingAndGlyphs" textLength="77" x="859.5" y="578.7408">celldata: DICT()</text><!--MD5=[616d4ddf2a55e74909f791a1e59864a9]
class cell.CellData.layersRead--><rect fill="#FEFECE" filter="url(#f17h8x7wqwwqwj)" height="62.9819" id="cell.CellData.layersRead" style="stroke: #A80036; stroke-width: 1.5;" width="94" x="1287" y="515.5"/><ellipse cx="1302" cy="531.5" fill="#ADD1B2" rx="11" ry="11" style="stroke: #A80036; stroke-width: 1.0;"/><path d="M1304.9688,537.1406 Q1304.3906,537.4375 1303.75,537.5781 Q1303.1094,537.7344 1302.4063,537.7344 Q1299.9063,537.7344 1298.5781,536.0938 Q1297.2656,534.4375 1297.2656,531.3125 Q1297.2656,528.1875 1298.5781,526.5313 Q1299.9063,524.875 1302.4063,524.875 Q1303.1094,524.875 1303.75,525.0313 Q1304.4063,525.1875 1304.9688,525.4844 L1304.9688,528.2031 Q1304.3438,527.625 1303.75,527.3594 Q1303.1563,527.0781 1302.5313,527.0781 Q1301.1875,527.0781 1300.5,528.1563 Q1299.8125,529.2188 1299.8125,531.3125 Q1299.8125,533.4063 1300.5,534.4844 Q1301.1875,535.5469 1302.5313,535.5469 Q1303.1563,535.5469 1303.75,535.2813 Q1304.3438,535 1304.9688,534.4219 L1304.9688,537.1406 Z "/><text fill="#000000" font-family="sans-serif" font-size="12" lengthAdjust="spacingAndGlyphs" textLength="62" x="1316" y="536.156">layersRead</text><line style="stroke: #A80036; stroke-width: 1.5;" x1="1288" x2="1380" y1="547.5" y2="547.5"/><text fill="#000000" font-family="sans-serif" font-size="11" lengthAdjust="spacingAndGlyphs" textLength="31" x="1293" y="563.2589">rinkid</text><line style="stroke: #A80036; stroke-width: 1.5;" x1="1288" x2="1380" y1="570.4819" y2="570.4819"/><!--MD5=[68e22018a176776723135b236d7ccee1]
class cell.CellData.layersWrite--><rect fill="#FEFECE" filter="url(#f17h8x7wqwwqwj)" height="77.9638" id="cell.CellData.layersWrite" style="stroke: #A80036; stroke-width: 1.5;" width="96" x="1156" y="508"/><ellipse cx="1171" cy="524" fill="#ADD1B2" rx="11" ry="11" style="stroke: #A80036; stroke-width: 1.0;"/><path d="M1173.9688,529.6406 Q1173.3906,529.9375 1172.75,530.0781 Q1172.1094,530.2344 1171.4063,530.2344 Q1168.9063,530.2344 1167.5781,528.5938 Q1166.2656,526.9375 1166.2656,523.8125 Q1166.2656,520.6875 1167.5781,519.0313 Q1168.9063,517.375 1171.4063,517.375 Q1172.1094,517.375 1172.75,517.5313 Q1173.4063,517.6875 1173.9688,517.9844 L1173.9688,520.7031 Q1173.3438,520.125 1172.75,519.8594 Q1172.1563,519.5781 1171.5313,519.5781 Q1170.1875,519.5781 1169.5,520.6563 Q1168.8125,521.7188 1168.8125,523.8125 Q1168.8125,525.9063 1169.5,526.9844 Q1170.1875,528.0469 1171.5313,528.0469 Q1172.1563,528.0469 1172.75,527.7813 Q1173.3438,527.5 1173.9688,526.9219 L1173.9688,529.6406 Z "/><text fill="#000000" font-family="sans-serif" font-size="12" lengthAdjust="spacingAndGlyphs" textLength="64" x="1185" y="528.656">layersWrite</text><line style="stroke: #A80036; stroke-width: 1.5;" x1="1157" x2="1251" y1="540" y2="540"/><text fill="#000000" font-family="sans-serif" font-size="11" lengthAdjust="spacingAndGlyphs" textLength="31" x="1162" y="555.7589">rinkid</text><line style="stroke: #A80036; stroke-width: 1.5;" x1="1157" x2="1251" y1="562.9819" y2="562.9819"/><text fill="#000000" font-family="sans-serif" font-size="11" lengthAdjust="spacingAndGlyphs" textLength="77" x="1162" y="578.7408">celldata: DICT()</text><!--MD5=[d1f482f4fce78bd3bb84edcf55596b08]
class cell.CellData.cellWrite--><rect fill="#FEFECE" filter="url(#f17h8x7wqwwqwj)" height="92.9457" id="cell.CellData.cellWrite" style="stroke: #A80036; stroke-width: 1.5;" width="81" x="1158.5" y="661"/><ellipse cx="1173.5" cy="677" fill="#ADD1B2" rx="11" ry="11" style="stroke: #A80036; stroke-width: 1.0;"/><path d="M1176.4688,682.6406 Q1175.8906,682.9375 1175.25,683.0781 Q1174.6094,683.2344 1173.9063,683.2344 Q1171.4063,683.2344 1170.0781,681.5938 Q1168.7656,679.9375 1168.7656,676.8125 Q1168.7656,673.6875 1170.0781,672.0313 Q1171.4063,670.375 1173.9063,670.375 Q1174.6094,670.375 1175.25,670.5313 Q1175.9063,670.6875 1176.4688,670.9844 L1176.4688,673.7031 Q1175.8438,673.125 1175.25,672.8594 Q1174.6563,672.5781 1174.0313,672.5781 Q1172.6875,672.5781 1172,673.6563 Q1171.3125,674.7188 1171.3125,676.8125 Q1171.3125,678.9063 1172,679.9844 Q1172.6875,681.0469 1174.0313,681.0469 Q1174.6563,681.0469 1175.25,680.7813 Q1175.8438,680.5 1176.4688,679.9219 L1176.4688,682.6406 Z "/><text fill="#000000" font-family="sans-serif" font-size="12" lengthAdjust="spacingAndGlyphs" textLength="49" x="1187.5" y="681.656">cellWrite</text><line style="stroke: #A80036; stroke-width: 1.5;" x1="1159.5" x2="1238.5" y1="693" y2="693"/><text fill="#000000" font-family="sans-serif" font-size="11" lengthAdjust="spacingAndGlyphs" textLength="31" x="1164.5" y="708.7589">rinkid</text><text fill="#000000" font-family="sans-serif" font-size="11" lengthAdjust="spacingAndGlyphs" textLength="25" x="1164.5" y="723.7408">label</text><text fill="#000000" font-family="sans-serif" font-size="11" lengthAdjust="spacingAndGlyphs" textLength="17" x="1164.5" y="738.7227">cell</text><line style="stroke: #A80036; stroke-width: 1.5;" x1="1159.5" x2="1238.5" y1="745.9457" y2="745.9457"/><!--MD5=[fc6b9ad7d774796e8c23c9a736bffeea]
class cell.CellData.layersUpdate--><rect fill="#FEFECE" filter="url(#f17h8x7wqwwqwj)" height="77.9638" id="cell.CellData.layersUpdate" style="stroke: #A80036; stroke-width: 1.5;" width="107" x="1274.5" y="668.5"/><ellipse cx="1289.5" cy="684.5" fill="#ADD1B2" rx="11" ry="11" style="stroke: #A80036; stroke-width: 1.0;"/><path d="M1292.4688,690.1406 Q1291.8906,690.4375 1291.25,690.5781 Q1290.6094,690.7344 1289.9063,690.7344 Q1287.4063,690.7344 1286.0781,689.0938 Q1284.7656,687.4375 1284.7656,684.3125 Q1284.7656,681.1875 1286.0781,679.5313 Q1287.4063,677.875 1289.9063,677.875 Q1290.6094,677.875 1291.25,678.0313 Q1291.9063,678.1875 1292.4688,678.4844 L1292.4688,681.2031 Q1291.8438,680.625 1291.25,680.3594 Q1290.6563,680.0781 1290.0313,680.0781 Q1288.6875,680.0781 1288,681.1563 Q1287.3125,682.2188 1287.3125,684.3125 Q1287.3125,686.4063 1288,687.4844 Q1288.6875,688.5469 1290.0313,688.5469 Q1290.6563,688.5469 1291.25,688.2813 Q1291.8438,688 1292.4688,687.4219 L1292.4688,690.1406 Z "/><text fill="#000000" font-family="sans-serif" font-size="12" lengthAdjust="spacingAndGlyphs" textLength="75" x="1303.5" y="689.156">layersUpdate</text><line style="stroke: #A80036; stroke-width: 1.5;" x1="1275.5" x2="1380.5" y1="700.5" y2="700.5"/><text fill="#000000" font-family="sans-serif" font-size="11" lengthAdjust="spacingAndGlyphs" textLength="31" x="1280.5" y="716.2589">rinkid</text><text fill="#000000" font-family="sans-serif" font-size="11" lengthAdjust="spacingAndGlyphs" textLength="40" x="1280.5" y="731.2408">celldata</text><line style="stroke: #A80036; stroke-width: 1.5;" x1="1275.5" x2="1380.5" y1="738.4638" y2="738.4638"/><!--MD5=[c814171692f9bf21230cd7816d1a50b8]
class cell.CellData.dataV2--><rect fill="#FEFECE" filter="url(#f17h8x7wqwwqwj)" height="48" id="cell.CellData.dataV2" style="stroke: #A80036; stroke-width: 1.5;" width="71" x="747.5" y="523"/><ellipse cx="762.5" cy="539" fill="#ADD1B2" rx="11" ry="11" style="stroke: #A80036; stroke-width: 1.0;"/><path d="M765.4688,544.6406 Q764.8906,544.9375 764.25,545.0781 Q763.6094,545.2344 762.9063,545.2344 Q760.4063,545.2344 759.0781,543.5938 Q757.7656,541.9375 757.7656,538.8125 Q757.7656,535.6875 759.0781,534.0313 Q760.4063,532.375 762.9063,532.375 Q763.6094,532.375 764.25,532.5313 Q764.9063,532.6875 765.4688,532.9844 L765.4688,535.7031 Q764.8438,535.125 764.25,534.8594 Q763.6563,534.5781 763.0313,534.5781 Q761.6875,534.5781 761,535.6563 Q760.3125,536.7188 760.3125,538.8125 Q760.3125,540.9063 761,541.9844 Q761.6875,543.0469 763.0313,543.0469 Q763.6563,543.0469 764.25,542.7813 Q764.8438,542.5 765.4688,541.9219 L765.4688,544.6406 Z "/><text fill="#000000" font-family="sans-serif" font-size="12" lengthAdjust="spacingAndGlyphs" textLength="39" x="776.5" y="543.656">dataV2</text><line style="stroke: #A80036; stroke-width: 1.5;" x1="748.5" x2="817.5" y1="555" y2="555"/><line style="stroke: #A80036; stroke-width: 1.5;" x1="748.5" x2="817.5" y1="563" y2="563"/><!--MD5=[49a914485dd59bf53ce59a242bd5c4a4]
class cell.CellData.txDbv3Yaml--><rect fill="#FEFECE" filter="url(#f17h8x7wqwwqwj)" height="48" id="cell.CellData.txDbv3Yaml" style="stroke: #A80036; stroke-width: 1.5;" width="99" x="989.5" y="683.5"/><ellipse cx="1004.5" cy="699.5" fill="#ADD1B2" rx="11" ry="11" style="stroke: #A80036; stroke-width: 1.0;"/><path d="M1007.4688,705.1406 Q1006.8906,705.4375 1006.25,705.5781 Q1005.6094,705.7344 1004.9063,705.7344 Q1002.4063,705.7344 1001.0781,704.0938 Q999.7656,702.4375 999.7656,699.3125 Q999.7656,696.1875 1001.0781,694.5313 Q1002.4063,692.875 1004.9063,692.875 Q1005.6094,692.875 1006.25,693.0313 Q1006.9063,693.1875 1007.4688,693.4844 L1007.4688,696.2031 Q1006.8438,695.625 1006.25,695.3594 Q1005.6563,695.0781 1005.0313,695.0781 Q1003.6875,695.0781 1003,696.1563 Q1002.3125,697.2188 1002.3125,699.3125 Q1002.3125,701.4063 1003,702.4844 Q1003.6875,703.5469 1005.0313,703.5469 Q1005.6563,703.5469 1006.25,703.2813 Q1006.8438,703 1007.4688,702.4219 L1007.4688,705.1406 Z "/><text fill="#000000" font-family="sans-serif" font-size="12" lengthAdjust="spacingAndGlyphs" textLength="67" x="1018.5" y="704.156">txDbv3Yaml</text><line style="stroke: #A80036; stroke-width: 1.5;" x1="990.5" x2="1087.5" y1="715.5" y2="715.5"/><line style="stroke: #A80036; stroke-width: 1.5;" x1="990.5" x2="1087.5" y1="723.5" y2="723.5"/><!--MD5=[aa80c9f1f02ae670c8a3bf6bfe4a5b9b]
class cell.CellData.txDbv3YamlOneCell--><rect fill="#FEFECE" filter="url(#f17h8x7wqwwqwj)" height="48" id="cell.CellData.txDbv3YamlOneCell" style="stroke: #A80036; stroke-width: 1.5;" width="143" x="977.5" y="523"/><ellipse cx="992.5" cy="539" fill="#ADD1B2" rx="11" ry="11" style="stroke: #A80036; stroke-width: 1.0;"/><path d="M995.4688,544.6406 Q994.8906,544.9375 994.25,545.0781 Q993.6094,545.2344 992.9063,545.2344 Q990.4063,545.2344 989.0781,543.5938 Q987.7656,541.9375 987.7656,538.8125 Q987.7656,535.6875 989.0781,534.0313 Q990.4063,532.375 992.9063,532.375 Q993.6094,532.375 994.25,532.5313 Q994.9063,532.6875 995.4688,532.9844 L995.4688,535.7031 Q994.8438,535.125 994.25,534.8594 Q993.6563,534.5781 993.0313,534.5781 Q991.6875,534.5781 991,535.6563 Q990.3125,536.7188 990.3125,538.8125 Q990.3125,540.9063 991,541.9844 Q991.6875,543.0469 993.0313,543.0469 Q993.6563,543.0469 994.25,542.7813 Q994.8438,542.5 995.4688,541.9219 L995.4688,544.6406 Z "/><text fill="#000000" font-family="sans-serif" font-size="12" lengthAdjust="spacingAndGlyphs" textLength="111" x="1006.5" y="543.656">txDbv3YamlOneCell</text><line style="stroke: #A80036; stroke-width: 1.5;" x1="978.5" x2="1119.5" y1="555" y2="555"/><line style="stroke: #A80036; stroke-width: 1.5;" x1="978.5" x2="1119.5" y1="563" y2="563"/><!--MD5=[13ebeca09c43de95c4e06e30e0c0d224]
class cell.Layer.background--><rect fill="#FEFECE" filter="url(#f17h8x7wqwwqwj)" height="62.9819" id="cell.Layer.background" style="stroke: #A80036; stroke-width: 1.5;" width="98" x="577" y="515.5"/><ellipse cx="592" cy="531.5" fill="#ADD1B2" rx="11" ry="11" style="stroke: #A80036; stroke-width: 1.0;"/><path d="M594.9688,537.1406 Q594.3906,537.4375 593.75,537.5781 Q593.1094,537.7344 592.4063,537.7344 Q589.9063,537.7344 588.5781,536.0938 Q587.2656,534.4375 587.2656,531.3125 Q587.2656,528.1875 588.5781,526.5313 Q589.9063,524.875 592.4063,524.875 Q593.1094,524.875 593.75,525.0313 Q594.4063,525.1875 594.9688,525.4844 L594.9688,528.2031 Q594.3438,527.625 593.75,527.3594 Q593.1563,527.0781 592.5313,527.0781 Q591.1875,527.0781 590.5,528.1563 Q589.8125,529.2188 589.8125,531.3125 Q589.8125,533.4063 590.5,534.4844 Q591.1875,535.5469 592.5313,535.5469 Q593.1563,535.5469 593.75,535.2813 Q594.3438,535 594.9688,534.4219 L594.9688,537.1406 Z "/><text fill="#000000" font-family="sans-serif" font-size="12" lengthAdjust="spacingAndGlyphs" textLength="66" x="606" y="536.156">background</text><line style="stroke: #A80036; stroke-width: 1.5;" x1="578" x2="674" y1="547.5" y2="547.5"/><text fill="#000000" font-family="sans-serif" font-size="11" lengthAdjust="spacingAndGlyphs" textLength="17" x="583" y="563.2589">cell</text><line style="stroke: #A80036; stroke-width: 1.5;" x1="578" x2="674" y1="570.4819" y2="570.4819"/><!--MD5=[3852353f760167d4f6695f7198999dff]
class cell.Layer.foreground--><rect fill="#FEFECE" filter="url(#f17h8x7wqwwqwj)" height="62.9819" id="cell.Layer.foreground" style="stroke: #A80036; stroke-width: 1.5;" width="95" x="446.5" y="515.5"/><ellipse cx="461.5" cy="531.5" fill="#ADD1B2" rx="11" ry="11" style="stroke: #A80036; stroke-width: 1.0;"/><path d="M464.4688,537.1406 Q463.8906,537.4375 463.25,537.5781 Q462.6094,537.7344 461.9063,537.7344 Q459.4063,537.7344 458.0781,536.0938 Q456.7656,534.4375 456.7656,531.3125 Q456.7656,528.1875 458.0781,526.5313 Q459.4063,524.875 461.9063,524.875 Q462.6094,524.875 463.25,525.0313 Q463.9063,525.1875 464.4688,525.4844 L464.4688,528.2031 Q463.8438,527.625 463.25,527.3594 Q462.6563,527.0781 462.0313,527.0781 Q460.6875,527.0781 460,528.1563 Q459.3125,529.2188 459.3125,531.3125 Q459.3125,533.4063 460,534.4844 Q460.6875,535.5469 462.0313,535.5469 Q462.6563,535.5469 463.25,535.2813 Q463.8438,535 464.4688,534.4219 L464.4688,537.1406 Z "/><text fill="#000000" font-family="sans-serif" font-size="12" lengthAdjust="spacingAndGlyphs" textLength="63" x="475.5" y="536.156">foreground</text><line style="stroke: #A80036; stroke-width: 1.5;" x1="447.5" x2="540.5" y1="547.5" y2="547.5"/><text fill="#000000" font-family="sans-serif" font-size="11" lengthAdjust="spacingAndGlyphs" textLength="30" x="452.5" y="563.2589">geom</text><line style="stroke: #A80036; stroke-width: 1.5;" x1="447.5" x2="540.5" y1="570.4819" y2="570.4819"/><!--MD5=[63a9a959179cdabf0d34e673b5db8743]
class cell.Layer.dimension--><rect fill="#FEFECE" filter="url(#f17h8x7wqwwqwj)" height="92.9457" id="cell.Layer.dimension" style="stroke: #A80036; stroke-width: 1.5;" width="90" x="321" y="500.5"/><ellipse cx="336" cy="516.5" fill="#ADD1B2" rx="11" ry="11" style="stroke: #A80036; stroke-width: 1.0;"/><path d="M338.9688,522.1406 Q338.3906,522.4375 337.75,522.5781 Q337.1094,522.7344 336.4063,522.7344 Q333.9063,522.7344 332.5781,521.0938 Q331.2656,519.4375 331.2656,516.3125 Q331.2656,513.1875 332.5781,511.5313 Q333.9063,509.875 336.4063,509.875 Q337.1094,509.875 337.75,510.0313 Q338.4063,510.1875 338.9688,510.4844 L338.9688,513.2031 Q338.3438,512.625 337.75,512.3594 Q337.1563,512.0781 336.5313,512.0781 Q335.1875,512.0781 334.5,513.1563 Q333.8125,514.2188 333.8125,516.3125 Q333.8125,518.4063 334.5,519.4844 Q335.1875,520.5469 336.5313,520.5469 Q337.1563,520.5469 337.75,520.2813 Q338.3438,520 338.9688,519.4219 L338.9688,522.1406 Z "/><text fill="#000000" font-family="sans-serif" font-size="12" lengthAdjust="spacingAndGlyphs" textLength="58" x="350" y="521.156">dimension</text><line style="stroke: #A80036; stroke-width: 1.5;" x1="322" x2="410" y1="532.5" y2="532.5"/><text fill="#000000" font-family="sans-serif" font-size="11" lengthAdjust="spacingAndGlyphs" textLength="6" x="327" y="548.2589">x</text><text fill="#000000" font-family="sans-serif" font-size="11" lengthAdjust="spacingAndGlyphs" textLength="6" x="327" y="563.2408">y</text><text fill="#000000" font-family="sans-serif" font-size="11" lengthAdjust="spacingAndGlyphs" textLength="21" x="327" y="578.2227">clen</text><line style="stroke: #A80036; stroke-width: 1.5;" x1="322" x2="410" y1="585.4457" y2="585.4457"/><!--MD5=[b37ece05c3960902185da9142c5fb5b0]
class cell.Layer.points--><rect fill="#FEFECE" filter="url(#f17h8x7wqwwqwj)" height="107.9276" id="cell.Layer.points" style="stroke: #A80036; stroke-width: 1.5;" width="80" x="206" y="493"/><ellipse cx="227.3" cy="509" fill="#ADD1B2" rx="11" ry="11" style="stroke: #A80036; stroke-width: 1.0;"/><path d="M230.2688,514.6406 Q229.6906,514.9375 229.05,515.0781 Q228.4094,515.2344 227.7063,515.2344 Q225.2063,515.2344 223.8781,513.5938 Q222.5656,511.9375 222.5656,508.8125 Q222.5656,505.6875 223.8781,504.0313 Q225.2063,502.375 227.7063,502.375 Q228.4094,502.375 229.05,502.5313 Q229.7063,502.6875 230.2688,502.9844 L230.2688,505.7031 Q229.6438,505.125 229.05,504.8594 Q228.4563,504.5781 227.8313,504.5781 Q226.4875,504.5781 225.8,505.6563 Q225.1125,506.7188 225.1125,508.8125 Q225.1125,510.9063 225.8,511.9844 Q226.4875,513.0469 227.8313,513.0469 Q228.4563,513.0469 229.05,512.7813 Q229.6438,512.5 230.2688,511.9219 L230.2688,514.6406 Z "/><text fill="#000000" font-family="sans-serif" font-size="12" lengthAdjust="spacingAndGlyphs" textLength="34" x="242.7" y="513.656">points</text><line style="stroke: #A80036; stroke-width: 1.5;" x1="207" x2="285" y1="525" y2="525"/><text fill="#000000" font-family="sans-serif" font-size="11" lengthAdjust="spacingAndGlyphs" textLength="6" x="212" y="540.7589">x</text><text fill="#000000" font-family="sans-serif" font-size="11" lengthAdjust="spacingAndGlyphs" textLength="6" x="212" y="555.7408">y</text><text fill="#000000" font-family="sans-serif" font-size="11" lengthAdjust="spacingAndGlyphs" textLength="68" x="212" y="570.7227">stroke_width</text><text fill="#000000" font-family="sans-serif" font-size="11" lengthAdjust="spacingAndGlyphs" textLength="21" x="212" y="585.7046">clen</text><line style="stroke: #A80036; stroke-width: 1.5;" x1="207" x2="285" y1="592.9276" y2="592.9276"/><!--MD5=[773ded44446439df0d708d0dff5a91f0]
class cell.InputValidator.validate--><rect fill="#FEFECE" filter="url(#f17h8x7wqwwqwj)" height="77.9638" id="cell.InputValidator.validate" style="stroke: #A80036; stroke-width: 1.5;" width="76" x="71" y="668.5"/><ellipse cx="86" cy="684.5" fill="#ADD1B2" rx="11" ry="11" style="stroke: #A80036; stroke-width: 1.0;"/><path d="M88.9688,690.1406 Q88.3906,690.4375 87.75,690.5781 Q87.1094,690.7344 86.4063,690.7344 Q83.9063,690.7344 82.5781,689.0938 Q81.2656,687.4375 81.2656,684.3125 Q81.2656,681.1875 82.5781,679.5313 Q83.9063,677.875 86.4063,677.875 Q87.1094,677.875 87.75,678.0313 Q88.4063,678.1875 88.9688,678.4844 L88.9688,681.2031 Q88.3438,680.625 87.75,680.3594 Q87.1563,680.0781 86.5313,680.0781 Q85.1875,680.0781 84.5,681.1563 Q83.8125,682.2188 83.8125,684.3125 Q83.8125,686.4063 84.5,687.4844 Q85.1875,688.5469 86.5313,688.5469 Q87.1563,688.5469 87.75,688.2813 Q88.3438,688 88.9688,687.4219 L88.9688,690.1406 Z "/><text fill="#000000" font-family="sans-serif" font-size="12" lengthAdjust="spacingAndGlyphs" textLength="44" x="100" y="689.156">validate</text><line style="stroke: #A80036; stroke-width: 1.5;" x1="72" x2="146" y1="700.5" y2="700.5"/><text fill="#000000" font-family="sans-serif" font-size="11" lengthAdjust="spacingAndGlyphs" textLength="25" x="77" y="716.2589">label</text><text fill="#000000" font-family="sans-serif" font-size="11" lengthAdjust="spacingAndGlyphs" textLength="17" x="77" y="731.2408">cell</text><line style="stroke: #A80036; stroke-width: 1.5;" x1="72" x2="146" y1="738.4638" y2="738.4638"/><!--MD5=[c705e0562dfd23a2d744e077ad2e60d6]
class cell.InputValidator.geometry--><rect fill="#FEFECE" filter="url(#f17h8x7wqwwqwj)" height="77.9638" id="cell.InputValidator.geometry" style="stroke: #A80036; stroke-width: 1.5;" width="86" x="64" y="508"/><ellipse cx="79" cy="524" fill="#ADD1B2" rx="11" ry="11" style="stroke: #A80036; stroke-width: 1.0;"/><path d="M81.9688,529.6406 Q81.3906,529.9375 80.75,530.0781 Q80.1094,530.2344 79.4063,530.2344 Q76.9063,530.2344 75.5781,528.5938 Q74.2656,526.9375 74.2656,523.8125 Q74.2656,520.6875 75.5781,519.0313 Q76.9063,517.375 79.4063,517.375 Q80.1094,517.375 80.75,517.5313 Q81.4063,517.6875 81.9688,517.9844 L81.9688,520.7031 Q81.3438,520.125 80.75,519.8594 Q80.1563,519.5781 79.5313,519.5781 Q78.1875,519.5781 77.5,520.6563 Q76.8125,521.7188 76.8125,523.8125 Q76.8125,525.9063 77.5,526.9844 Q78.1875,528.0469 79.5313,528.0469 Q80.1563,528.0469 80.75,527.7813 Q81.3438,527.5 81.9688,526.9219 L81.9688,529.6406 Z "/><text fill="#000000" font-family="sans-serif" font-size="12" lengthAdjust="spacingAndGlyphs" textLength="54" x="93" y="528.656">geometry</text><line style="stroke: #A80036; stroke-width: 1.5;" x1="65" x2="149" y1="540" y2="540"/><text fill="#000000" font-family="sans-serif" font-size="11" lengthAdjust="spacingAndGlyphs" textLength="25" x="70" y="555.7589">label</text><text fill="#000000" font-family="sans-serif" font-size="11" lengthAdjust="spacingAndGlyphs" textLength="30" x="70" y="570.7408">geom</text><line style="stroke: #A80036; stroke-width: 1.5;" x1="65" x2="149" y1="577.9638" y2="577.9638"/><!--MD5=[6bf9de787570b64f2c7468f621d110c4]
class cell.Line.guidelines--><rect fill="#FEFECE" filter="url(#f17h8x7wqwwqwj)" height="92.9457" id="cell.Line.guidelines" style="stroke: #A80036; stroke-width: 1.5;" width="89" x="122.5" y="127.5"/><ellipse cx="137.5" cy="143.5" fill="#ADD1B2" rx="11" ry="11" style="stroke: #A80036; stroke-width: 1.0;"/><path d="M140.4688,149.1406 Q139.8906,149.4375 139.25,149.5781 Q138.6094,149.7344 137.9063,149.7344 Q135.4063,149.7344 134.0781,148.0938 Q132.7656,146.4375 132.7656,143.3125 Q132.7656,140.1875 134.0781,138.5313 Q135.4063,136.875 137.9063,136.875 Q138.6094,136.875 139.25,137.0313 Q139.9063,137.1875 140.4688,137.4844 L140.4688,140.2031 Q139.8438,139.625 139.25,139.3594 Q138.6563,139.0781 138.0313,139.0781 Q136.6875,139.0781 136,140.1563 Q135.3125,141.2188 135.3125,143.3125 Q135.3125,145.4063 136,146.4844 Q136.6875,147.5469 138.0313,147.5469 Q138.6563,147.5469 139.25,147.2813 Q139.8438,147 140.4688,146.4219 L140.4688,149.1406 Z "/><text fill="#000000" font-family="sans-serif" font-size="12" lengthAdjust="spacingAndGlyphs" textLength="57" x="151.5" y="148.156">guidelines</text><line style="stroke: #A80036; stroke-width: 1.5;" x1="123.5" x2="210.5" y1="159.5" y2="159.5"/><text fill="#000000" font-family="sans-serif" font-size="11" lengthAdjust="spacingAndGlyphs" textLength="32" x="128.5" y="175.2589">facing</text><text fill="#000000" font-family="sans-serif" font-size="11" lengthAdjust="spacingAndGlyphs" textLength="21" x="128.5" y="190.2408">clen</text><text fill="#000000" font-family="sans-serif" font-size="11" lengthAdjust="spacingAndGlyphs" textLength="40" x="128.5" y="205.2227">bounds</text><line style="stroke: #A80036; stroke-width: 1.5;" x1="123.5" x2="210.5" y1="212.4457" y2="212.4457"/><!--MD5=[46a568ec4fa47ce35adaa3ec62384d39]
class cell.Line.collectPoints--><rect fill="#FEFECE" filter="url(#f17h8x7wqwwqwj)" height="77.9638" id="cell.Line.collectPoints" style="stroke: #A80036; stroke-width: 1.5;" width="102" x="247" y="135"/><ellipse cx="262" cy="151" fill="#ADD1B2" rx="11" ry="11" style="stroke: #A80036; stroke-width: 1.0;"/><path d="M264.9688,156.6406 Q264.3906,156.9375 263.75,157.0781 Q263.1094,157.2344 262.4063,157.2344 Q259.9063,157.2344 258.5781,155.5938 Q257.2656,153.9375 257.2656,150.8125 Q257.2656,147.6875 258.5781,146.0313 Q259.9063,144.375 262.4063,144.375 Q263.1094,144.375 263.75,144.5313 Q264.4063,144.6875 264.9688,144.9844 L264.9688,147.7031 Q264.3438,147.125 263.75,146.8594 Q263.1563,146.5781 262.5313,146.5781 Q261.1875,146.5781 260.5,147.6563 Q259.8125,148.7188 259.8125,150.8125 Q259.8125,152.9063 260.5,153.9844 Q261.1875,155.0469 262.5313,155.0469 Q263.1563,155.0469 263.75,154.7813 Q264.3438,154.5 264.9688,153.9219 L264.9688,156.6406 Z "/><text fill="#000000" font-family="sans-serif" font-size="12" lengthAdjust="spacingAndGlyphs" textLength="70" x="276" y="155.656">collectPoints</text><line style="stroke: #A80036; stroke-width: 1.5;" x1="248" x2="348" y1="167" y2="167"/><text fill="#000000" font-family="sans-serif" font-size="11" lengthAdjust="spacingAndGlyphs" textLength="54" x="253" y="182.7589">guidelines</text><text fill="#000000" font-family="sans-serif" font-size="11" lengthAdjust="spacingAndGlyphs" textLength="69" x="253" y="197.7408">facing: NONE</text><line style="stroke: #A80036; stroke-width: 1.5;" x1="248" x2="348" y1="204.9638" y2="204.9638"/><!--MD5=[cb6a99421a8549030dd0e5cf27d9b797]
class cell.Line.orderGrid--><rect fill="#FEFECE" filter="url(#f17h8x7wqwwqwj)" height="77.9638" id="cell.Line.orderGrid" style="stroke: #A80036; stroke-width: 1.5;" width="87" x="384.5" y="135"/><ellipse cx="399.5" cy="151" fill="#ADD1B2" rx="11" ry="11" style="stroke: #A80036; stroke-width: 1.0;"/><path d="M402.4688,156.6406 Q401.8906,156.9375 401.25,157.0781 Q400.6094,157.2344 399.9063,157.2344 Q397.4063,157.2344 396.0781,155.5938 Q394.7656,153.9375 394.7656,150.8125 Q394.7656,147.6875 396.0781,146.0313 Q397.4063,144.375 399.9063,144.375 Q400.6094,144.375 401.25,144.5313 Q401.9063,144.6875 402.4688,144.9844 L402.4688,147.7031 Q401.8438,147.125 401.25,146.8594 Q400.6563,146.5781 400.0313,146.5781 Q398.6875,146.5781 398,147.6563 Q397.3125,148.7188 397.3125,150.8125 Q397.3125,152.9063 398,153.9844 Q398.6875,155.0469 400.0313,155.0469 Q400.6563,155.0469 401.25,154.7813 Q401.8438,154.5 402.4688,153.9219 L402.4688,156.6406 Z "/><text fill="#000000" font-family="sans-serif" font-size="12" lengthAdjust="spacingAndGlyphs" textLength="55" x="413.5" y="155.656">orderGrid</text><line style="stroke: #A80036; stroke-width: 1.5;" x1="385.5" x2="470.5" y1="167" y2="167"/><text fill="#000000" font-family="sans-serif" font-size="11" lengthAdjust="spacingAndGlyphs" textLength="49" x="390.5" y="182.7589">guideline</text><text fill="#000000" font-family="sans-serif" font-size="11" lengthAdjust="spacingAndGlyphs" textLength="69" x="390.5" y="197.7408">facing: NONE</text><line style="stroke: #A80036; stroke-width: 1.5;" x1="385.5" x2="470.5" y1="204.9638" y2="204.9638"/><!--MD5=[e090107675eaf232596ca4eb0ca7edeb]
class cell.Line.makeStripes--><rect fill="#FEFECE" filter="url(#f17h8x7wqwwqwj)" height="62.9819" id="cell.Line.makeStripes" style="stroke: #A80036; stroke-width: 1.5;" width="102" x="123" y="321"/><ellipse cx="138" cy="337" fill="#ADD1B2" rx="11" ry="11" style="stroke: #A80036; stroke-width: 1.0;"/><path d="M140.9688,342.6406 Q140.3906,342.9375 139.75,343.0781 Q139.1094,343.2344 138.4063,343.2344 Q135.9063,343.2344 134.5781,341.5938 Q133.2656,339.9375 133.2656,336.8125 Q133.2656,333.6875 134.5781,332.0313 Q135.9063,330.375 138.4063,330.375 Q139.1094,330.375 139.75,330.5313 Q140.4063,330.6875 140.9688,330.9844 L140.9688,333.7031 Q140.3438,333.125 139.75,332.8594 Q139.1563,332.5781 138.5313,332.5781 Q137.1875,332.5781 136.5,333.6563 Q135.8125,334.7188 135.8125,336.8125 Q135.8125,338.9063 136.5,339.9844 Q137.1875,341.0469 138.5313,341.0469 Q139.1563,341.0469 139.75,340.7813 Q140.3438,340.5 140.9688,339.9219 L140.9688,342.6406 Z "/><text fill="#000000" font-family="sans-serif" font-size="12" lengthAdjust="spacingAndGlyphs" textLength="70" x="152" y="341.656">makeStripes</text><line style="stroke: #A80036; stroke-width: 1.5;" x1="124" x2="224" y1="353" y2="353"/><text fill="#000000" font-family="sans-serif" font-size="11" lengthAdjust="spacingAndGlyphs" textLength="33" x="129" y="368.7589">points</text><line style="stroke: #A80036; stroke-width: 1.5;" x1="124" x2="224" y1="375.9819" y2="375.9819"/><!--MD5=[ba200a65322dd065e0e9d12f514d8657]
class cell.Line.sliceByThird--><rect fill="#FEFECE" filter="url(#f17h8x7wqwwqwj)" height="77.9638" id="cell.Line.sliceByThird" style="stroke: #A80036; stroke-width: 1.5;" width="100" x="260" y="313.5"/><ellipse cx="275" cy="329.5" fill="#ADD1B2" rx="11" ry="11" style="stroke: #A80036; stroke-width: 1.0;"/><path d="M277.9688,335.1406 Q277.3906,335.4375 276.75,335.5781 Q276.1094,335.7344 275.4063,335.7344 Q272.9063,335.7344 271.5781,334.0938 Q270.2656,332.4375 270.2656,329.3125 Q270.2656,326.1875 271.5781,324.5313 Q272.9063,322.875 275.4063,322.875 Q276.1094,322.875 276.75,323.0313 Q277.4063,323.1875 277.9688,323.4844 L277.9688,326.2031 Q277.3438,325.625 276.75,325.3594 Q276.1563,325.0781 275.5313,325.0781 Q274.1875,325.0781 273.5,326.1563 Q272.8125,327.2188 272.8125,329.3125 Q272.8125,331.4063 273.5,332.4844 Q274.1875,333.5469 275.5313,333.5469 Q276.1563,333.5469 276.75,333.2813 Q277.3438,333 277.9688,332.4219 L277.9688,335.1406 Z "/><text fill="#000000" font-family="sans-serif" font-size="12" lengthAdjust="spacingAndGlyphs" textLength="68" x="289" y="334.156">sliceByThird</text><line style="stroke: #A80036; stroke-width: 1.5;" x1="261" x2="359" y1="345.5" y2="345.5"/><text fill="#000000" font-family="sans-serif" font-size="11" lengthAdjust="spacingAndGlyphs" textLength="32" x="266" y="361.2589">facing</text><text fill="#000000" font-family="sans-serif" font-size="11" lengthAdjust="spacingAndGlyphs" textLength="33" x="266" y="376.2408">points</text><line style="stroke: #A80036; stroke-width: 1.5;" x1="261" x2="359" y1="383.4638" y2="383.4638"/><!--MD5=[0881fd3d4dd156708e35d54515dcfc11]
class cell.Db2--><rect fill="#FEFECE" filter="url(#f17h8x7wqwwqwj)" height="48" id="cell.Db2" style="stroke: #A80036; stroke-width: 1.5;" width="55" x="664.5" y="328.5"/><ellipse cx="679.5" cy="344.5" fill="#ADD1B2" rx="11" ry="11" style="stroke: #A80036; stroke-width: 1.0;"/><path d="M682.4688,350.1406 Q681.8906,350.4375 681.25,350.5781 Q680.6094,350.7344 679.9063,350.7344 Q677.4063,350.7344 676.0781,349.0938 Q674.7656,347.4375 674.7656,344.3125 Q674.7656,341.1875 676.0781,339.5313 Q677.4063,337.875 679.9063,337.875 Q680.6094,337.875 681.25,338.0313 Q681.9063,338.1875 682.4688,338.4844 L682.4688,341.2031 Q681.8438,340.625 681.25,340.3594 Q680.6563,340.0781 680.0313,340.0781 Q678.6875,340.0781 678,341.1563 Q677.3125,342.2188 677.3125,344.3125 Q677.3125,346.4063 678,347.4844 Q678.6875,348.5469 680.0313,348.5469 Q680.6563,348.5469 681.25,348.2813 Q681.8438,348 682.4688,347.4219 L682.4688,350.1406 Z "/><text fill="#000000" font-family="sans-serif" font-size="12" lengthAdjust="spacingAndGlyphs" textLength="23" x="693.5" y="349.156">Db2</text><line style="stroke: #A80036; stroke-width: 1.5;" x1="665.5" x2="718.5" y1="360.5" y2="360.5"/><line style="stroke: #A80036; stroke-width: 1.5;" x1="665.5" x2="718.5" y1="368.5" y2="368.5"/><!--MD5=[91303cac9995b7156795d4cacfa31f81]
class cell.shape--><rect fill="#FEFECE" filter="url(#f17h8x7wqwwqwj)" height="48" id="cell.shape" style="stroke: #A80036; stroke-width: 1.5;" width="66" x="563" y="328.5"/><ellipse cx="578" cy="344.5" fill="#ADD1B2" rx="11" ry="11" style="stroke: #A80036; stroke-width: 1.0;"/><path d="M580.9688,350.1406 Q580.3906,350.4375 579.75,350.5781 Q579.1094,350.7344 578.4063,350.7344 Q575.9063,350.7344 574.5781,349.0938 Q573.2656,347.4375 573.2656,344.3125 Q573.2656,341.1875 574.5781,339.5313 Q575.9063,337.875 578.4063,337.875 Q579.1094,337.875 579.75,338.0313 Q580.4063,338.1875 580.9688,338.4844 L580.9688,341.2031 Q580.3438,340.625 579.75,340.3594 Q579.1563,340.0781 578.5313,340.0781 Q577.1875,340.0781 576.5,341.1563 Q575.8125,342.2188 575.8125,344.3125 Q575.8125,346.4063 576.5,347.4844 Q577.1875,348.5469 578.5313,348.5469 Q579.1563,348.5469 579.75,348.2813 Q580.3438,348 580.9688,347.4219 L580.9688,350.1406 Z "/><text fill="#000000" font-family="sans-serif" font-size="12" lengthAdjust="spacingAndGlyphs" textLength="34" x="592" y="349.156">shape</text><line style="stroke: #A80036; stroke-width: 1.5;" x1="564" x2="628" y1="360.5" y2="360.5"/><line style="stroke: #A80036; stroke-width: 1.5;" x1="564" x2="628" y1="368.5" y2="368.5"/><!--MD5=[9a37da4f3394da0fbb8b52349579c1f7]
class recurrink.build--><rect fill="#FEFECE" filter="url(#f17h8x7wqwwqwj)" height="48" id="recurrink.build" style="stroke: #A80036; stroke-width: 1.5;" width="59" x="690.5" y="848"/><ellipse cx="705.5" cy="864" fill="#ADD1B2" rx="11" ry="11" style="stroke: #A80036; stroke-width: 1.0;"/><path d="M708.4688,869.6406 Q707.8906,869.9375 707.25,870.0781 Q706.6094,870.2344 705.9063,870.2344 Q703.4063,870.2344 702.0781,868.5938 Q700.7656,866.9375 700.7656,863.8125 Q700.7656,860.6875 702.0781,859.0313 Q703.4063,857.375 705.9063,857.375 Q706.6094,857.375 707.25,857.5313 Q707.9063,857.6875 708.4688,857.9844 L708.4688,860.7031 Q707.8438,860.125 707.25,859.8594 Q706.6563,859.5781 706.0313,859.5781 Q704.6875,859.5781 704,860.6563 Q703.3125,861.7188 703.3125,863.8125 Q703.3125,865.9063 704,866.9844 Q704.6875,868.0469 706.0313,868.0469 Q706.6563,868.0469 707.25,867.7813 Q707.8438,867.5 708.4688,866.9219 L708.4688,869.6406 Z "/><text fill="#000000" font-family="sans-serif" font-size="12" lengthAdjust="spacingAndGlyphs" textLength="27" x="719.5" y="868.656">build</text><line style="stroke: #A80036; stroke-width: 1.5;" x1="691.5" x2="748.5" y1="880" y2="880"/><line style="stroke: #A80036; stroke-width: 1.5;" x1="691.5" x2="748.5" y1="888" y2="888"/><!--MD5=[812e826af3fabe8d1c51780cbb1e20db]
class recurrink.commit--><rect fill="#FEFECE" filter="url(#f17h8x7wqwwqwj)" height="48" id="recurrink.commit" style="stroke: #A80036; stroke-width: 1.5;" width="74" x="785" y="848"/><ellipse cx="800" cy="864" fill="#ADD1B2" rx="11" ry="11" style="stroke: #A80036; stroke-width: 1.0;"/><path d="M802.9688,869.6406 Q802.3906,869.9375 801.75,870.0781 Q801.1094,870.2344 800.4063,870.2344 Q797.9063,870.2344 796.5781,868.5938 Q795.2656,866.9375 795.2656,863.8125 Q795.2656,860.6875 796.5781,859.0313 Q797.9063,857.375 800.4063,857.375 Q801.1094,857.375 801.75,857.5313 Q802.4063,857.6875 802.9688,857.9844 L802.9688,860.7031 Q802.3438,860.125 801.75,859.8594 Q801.1563,859.5781 800.5313,859.5781 Q799.1875,859.5781 798.5,860.6563 Q797.8125,861.7188 797.8125,863.8125 Q797.8125,865.9063 798.5,866.9844 Q799.1875,868.0469 800.5313,868.0469 Q801.1563,868.0469 801.75,867.7813 Q802.3438,867.5 802.9688,866.9219 L802.9688,869.6406 Z "/><text fill="#000000" font-family="sans-serif" font-size="12" lengthAdjust="spacingAndGlyphs" textLength="42" x="814" y="868.656">commit</text><line style="stroke: #A80036; stroke-width: 1.5;" x1="786" x2="858" y1="880" y2="880"/><line style="stroke: #A80036; stroke-width: 1.5;" x1="786" x2="858" y1="888" y2="888"/><!--MD5=[0d6f6866c3e51d76cf10368dc4b78fd5]
class recurrink.clone--><rect fill="#FEFECE" filter="url(#f17h8x7wqwwqwj)" height="48" id="recurrink.clone" style="stroke: #A80036; stroke-width: 1.5;" width="62" x="894" y="848"/><ellipse cx="909" cy="864" fill="#ADD1B2" rx="11" ry="11" style="stroke: #A80036; stroke-width: 1.0;"/><path d="M911.9688,869.6406 Q911.3906,869.9375 910.75,870.0781 Q910.1094,870.2344 909.4063,870.2344 Q906.9063,870.2344 905.5781,868.5938 Q904.2656,866.9375 904.2656,863.8125 Q904.2656,860.6875 905.5781,859.0313 Q906.9063,857.375 909.4063,857.375 Q910.1094,857.375 910.75,857.5313 Q911.4063,857.6875 911.9688,857.9844 L911.9688,860.7031 Q911.3438,860.125 910.75,859.8594 Q910.1563,859.5781 909.5313,859.5781 Q908.1875,859.5781 907.5,860.6563 Q906.8125,861.7188 906.8125,863.8125 Q906.8125,865.9063 907.5,866.9844 Q908.1875,868.0469 909.5313,868.0469 Q910.1563,868.0469 910.75,867.7813 Q911.3438,867.5 911.9688,866.9219 L911.9688,869.6406 Z "/><text fill="#000000" font-family="sans-serif" font-size="12" lengthAdjust="spacingAndGlyphs" textLength="30" x="923" y="868.656">clone</text><line style="stroke: #A80036; stroke-width: 1.5;" x1="895" x2="955" y1="880" y2="880"/><line style="stroke: #A80036; stroke-width: 1.5;" x1="895" x2="955" y1="888" y2="888"/><!--MD5=[f71ac60b8b4eaa22ac7abbaa0d247fbf]
class block.make--><rect fill="#FEFECE" filter="url(#f17h8x7wqwwqwj)" height="48" id="block.make" style="stroke: #A80036; stroke-width: 1.5;" width="63" x="528.5" y="683.5"/><ellipse cx="543.5" cy="699.5" fill="#ADD1B2" rx="11" ry="11" style="stroke: #A80036; stroke-width: 1.0;"/><path d="M546.4688,705.1406 Q545.8906,705.4375 545.25,705.5781 Q544.6094,705.7344 543.9063,705.7344 Q541.4063,705.7344 540.0781,704.0938 Q538.7656,702.4375 538.7656,699.3125 Q538.7656,696.1875 540.0781,694.5313 Q541.4063,692.875 543.9063,692.875 Q544.6094,692.875 545.25,693.0313 Q545.9063,693.1875 546.4688,693.4844 L546.4688,696.2031 Q545.8438,695.625 545.25,695.3594 Q544.6563,695.0781 544.0313,695.0781 Q542.6875,695.0781 542,696.1563 Q541.3125,697.2188 541.3125,699.3125 Q541.3125,701.4063 542,702.4844 Q542.6875,703.5469 544.0313,703.5469 Q544.6563,703.5469 545.25,703.2813 Q545.8438,703 546.4688,702.4219 L546.4688,705.1406 Z "/><text fill="#000000" font-family="sans-serif" font-size="12" lengthAdjust="spacingAndGlyphs" textLength="31" x="557.5" y="704.156">make</text><line style="stroke: #A80036; stroke-width: 1.5;" x1="529.5" x2="590.5" y1="715.5" y2="715.5"/><line style="stroke: #A80036; stroke-width: 1.5;" x1="529.5" x2="590.5" y1="723.5" y2="723.5"/><!--MD5=[4e0f8a03b24a1690aee9be25adbe3715]
class cell.shape.Rectangle.draw--><rect fill="#FEFECE" filter="url(#f17h8x7wqwwqwj)" height="48" id="cell.shape.Rectangle.draw" style="stroke: #A80036; stroke-width: 1.5;" width="60" x="1993" y="328.5"/><ellipse cx="2008" cy="344.5" fill="#ADD1B2" rx="11" ry="11" style="stroke: #A80036; stroke-width: 1.0;"/><path d="M2010.9688,350.1406 Q2010.3906,350.4375 2009.75,350.5781 Q2009.1094,350.7344 2008.4063,350.7344 Q2005.9063,350.7344 2004.5781,349.0938 Q2003.2656,347.4375 2003.2656,344.3125 Q2003.2656,341.1875 2004.5781,339.5313 Q2005.9063,337.875 2008.4063,337.875 Q2009.1094,337.875 2009.75,338.0313 Q2010.4063,338.1875 2010.9688,338.4844 L2010.9688,341.2031 Q2010.3438,340.625 2009.75,340.3594 Q2009.1563,340.0781 2008.5313,340.0781 Q2007.1875,340.0781 2006.5,341.1563 Q2005.8125,342.2188 2005.8125,344.3125 Q2005.8125,346.4063 2006.5,347.4844 Q2007.1875,348.5469 2008.5313,348.5469 Q2009.1563,348.5469 2009.75,348.2813 Q2010.3438,348 2010.9688,347.4219 L2010.9688,350.1406 Z "/><text fill="#000000" font-family="sans-serif" font-size="12" lengthAdjust="spacingAndGlyphs" textLength="28" x="2022" y="349.156">draw</text><line style="stroke: #A80036; stroke-width: 1.5;" x1="1994" x2="2052" y1="360.5" y2="360.5"/><line style="stroke: #A80036; stroke-width: 1.5;" x1="1994" x2="2052" y1="368.5" y2="368.5"/><!--MD5=[0613ec48a4e415b881231ac4b6400cde]
reverse link cell.Transform to cell.CellData--><path d="M1492.9797,371.6626 C1492.7818,372.1107 1492.5809,372.5656 1492.377,373.0272 C1490.7462,376.7202 1488.9266,380.8405 1486.9561,385.3028 C1479.0741,403.1519 1468.7769,426.4712 1458.4812,449.7875 C1448.1856,473.1038 1437.8916,496.4169 1430.0158,514.2534 C1428.0468,518.7126 1426.229,522.8294 1424.6001,526.5185 C1424.4983,526.749 1424.3973,526.9779 1424.2969,527.2051 C1424.2468,527.3187 1424.1968,527.4319 1424.147,527.5447 " fill="none" id="cell.Transform&lt;-cell.CellData" style="stroke: #A80036; stroke-width: 1.0;"/><polygon fill="#FFFFFF" points="1492.9797,371.6626,1478.9007,386.2154,1491.7075,391.871,1492.9797,371.6626" style="stroke: #A80036; stroke-width: 1.0;"/><!--MD5=[9ffd82a46a86aa9d1143beef3e76032c]
reverse link cell.Db2 to cell.Transform--><path d="M704.42,308.98 C712.93,286.7 726.48,260.97 747,245 C753.3,240.1 756.57,241.89 764.5,241 C801.98,236.77 1406.02,236.77 1443.5,241 C1451.43,241.89 1455,239.74 1461,245 C1470.135,253.0075 1477.1875,263.3025 1482.6314,274.3402 C1485.3534,279.859 1487.6732,285.5635 1489.6501,291.2605 C1490.6385,294.1091 1491.5412,296.9557 1492.3656,299.7764 C1492.5717,300.4816 1492.7729,301.1851 1492.9694,301.8866 " fill="none" id="cell.Db2&lt;-cell.Transform" style="stroke: #A80036; stroke-width: 1.0;"/><polygon fill="none" points="710.99,311.39,697.96,328.1,697.73,306.91,710.99,311.39" style="stroke: #A80036; stroke-width: 1.0;"/><!--MD5=[19aa24c6f07495dc4d2d1d806938efbf]
link cell.InputValidator.validate to recurrink.build--><path d="M147.22,718.67 C259.95,748.65 589.5,836.29 690.34,863.11 " fill="none" id="cell.InputValidator.validate-recurrink.build" style="stroke: #A80036; stroke-width: 1.0;"/><!--MD5=[6faa44c6706574e402feb97aec25aca0]
link cell.CellData.layers to recurrink.commit--><path d="M889.06,586 C873.17,653.54 840.46,792.56 827.48,847.71 " fill="none" id="cell.CellData.layers-recurrink.commit" style="stroke: #A80036; stroke-width: 1.0;"/><!--MD5=[090cb8941d33de2ef5f325a13e477f32]
link cell.CellData.dataV2 to recurrink.commit--><path d="M785.8,571.23 C793,630.83 812.05,788.62 819.22,847.98 " fill="none" id="cell.CellData.dataV2-recurrink.commit" style="stroke: #A80036; stroke-width: 1.0;"/><!--MD5=[76d0c1d9840126b61c40a45b2b947bfa]
link cell.CellData.layers to recurrink.clone--><path d="M901.18,586 C906.82,653.54 918.44,792.56 923.05,847.71 " fill="none" id="cell.CellData.layers-recurrink.clone" style="stroke: #A80036; stroke-width: 1.0;"/><!--MD5=[f5e61c5bbcc8b106741a539345700c83]
link cell.CellData.txDbv3Yaml to recurrink.clone--><path d="M1022.67,731.78 C1001,762.67 962.96,816.89 941.3,847.76 " fill="none" id="cell.CellData.txDbv3Yaml-recurrink.clone" style="stroke: #A80036; stroke-width: 1.0;"/><!--MD5=[00bb9abb1bef9182c804545aa443b1a9]
link cell.CellData.txDbv3YamlOneCell to cell.CellData.txDbv3Yaml--><path d="M1047.55,571.05 C1045.65,601.1 1042.35,653.36 1040.46,683.42 " fill="none" id="cell.CellData.txDbv3YamlOneCell-cell.CellData.txDbv3Yaml" style="stroke: #A80036; stroke-width: 1.0;"/><!--MD5=[5e4fa16b396277333ec26fdbbf86c14e]
link cell.shape to cell.Layer.background--><path d="M599.62,376.72 C605.03,411.42 615.22,476.84 621.23,515.4 " fill="none" id="cell.shape-cell.Layer.background" style="stroke: #A80036; stroke-width: 1.0;"/><!--MD5=[5907b69f7e3fa8c78c9ae1d800477422]
link cell.shape to cell.Layer.foreground--><path d="M583.7,376.72 C565.31,411.42 530.65,476.84 510.21,515.4 " fill="none" id="cell.shape-cell.Layer.foreground" style="stroke: #A80036; stroke-width: 1.0;"/><!--MD5=[d20124619ee68bba2d30f2fb983114eb]
link cell.InputValidator.geometry to cell.InputValidator.validate--><path d="M107.48,586.37 C107.8,611.29 108.21,643.64 108.52,668.48 " fill="none" id="cell.InputValidator.geometry-cell.InputValidator.validate" style="stroke: #A80036; stroke-width: 1.0;"/><!--MD5=[e775d712474582e8573c3935e3df6a99]
reverse link cell.shape to cell.InputValidator.geometry--><path d="M565.61,386.02 C545.61,405.03 517.7,427.31 488,438 C456.83,449.21 219.79,431.52 190,446 C163.11,459.07 141.82,485.4 127.54,507.76 " fill="none" id="cell.shape&lt;-cell.InputValidator.geometry" style="stroke: #A80036; stroke-width: 1.0;"/><polygon fill="#A80036" points="575.05,376.75,567.9671,378.1037,566.4925,385.1625,573.5754,383.8087,575.05,376.75" style="stroke: #A80036; stroke-width: 1.0;"/><!--MD5=[e5732beebc12dd20c9aee26fb2dd82bf]
link cell.Palette.generateOne to cell.Init.generate--><path d="M1528.63,205.6 C1514.36,217.36 1498.45,231.26 1485,245 C1471.12,259.18 1457.14,275.44 1444.61,290.92 " fill="none" id="cell.Palette.generateOne-cell.Init.generate" style="stroke: #A80036; stroke-width: 1.0;"/><!--MD5=[e267dee8ad21d9258a656f53601a26fb]
link cell.Strokes.generateOne to cell.Init.generate--><path d="M1404.48,213.3 C1403.58,235.91 1402.43,265.04 1401.41,290.72 " fill="none" id="cell.Strokes.generateOne-cell.Init.generate" style="stroke: #A80036; stroke-width: 1.0;"/><!--MD5=[c1f6823167d957c0c2ce35aaf9db5a1d]
reverse link cell.Geometry.generateOne to cell.Init.generate--><path d="M1299.35,230.16 C1304.03,235.12 1308.64,240.11 1313,245 C1326.53,260.16 1340.62,277.07 1353.38,292.88 " fill="none" id="cell.Geometry.generateOne&lt;-cell.Init.generate" style="stroke: #A80036; stroke-width: 1.0;"/><polygon fill="#A80036" points="1290.31,220.69,1291.5646,227.7911,1298.602,229.3643,1297.3474,222.2631,1290.31,220.69" style="stroke: #A80036; stroke-width: 1.0;"/><!--MD5=[27dcf9ec40ebff017344059f57600e05]
link cell.Layer.foreground to block.make--><path d="M506.73,578.56 C519.46,609.15 538.78,655.53 550.31,683.24 " fill="none" id="cell.Layer.foreground-block.make" style="stroke: #A80036; stroke-width: 1.0;"/><!--MD5=[d20d69014213ae12d1368829b31b1268]
link cell.Layer.background to block.make--><path d="M613.27,578.56 C600.54,609.15 581.22,655.53 569.69,683.24 " fill="none" id="cell.Layer.background-block.make" style="stroke: #A80036; stroke-width: 1.0;"/><!--MD5=[26bc7ec0bbaed3d5c631e23bda8765da]
link cell.Line to cell.shape--><path d="M515.1919,191.2486 C515.3523,191.5665 515.5146,191.8883 515.6788,192.2139 C516.0072,192.8651 516.3433,193.5314 516.6867,194.2123 C522.1816,205.1072 529.5594,219.7369 537.6112,235.7038 C553.715,267.6375 572.515,304.92 584.34,328.37 " fill="none" id="cell.Line-cell.shape" style="stroke: #A80036; stroke-width: 1.0;"/><!--MD5=[a9450f8a957c876366e9b16d4878dd8f]
link cell.Spiral.make to cell.shape.Rectangle.draw--><path d="M2244.95,213.14 C2237.62,222.52 2228.57,231.46 2218,237 C2193.35,249.93 2117.06,231.01 2093,245 C2061.25,263.46 2041.24,302.76 2031.1,328.11 " fill="none" id="cell.Spiral.make-cell.shape.Rectangle.draw" style="stroke: #A80036; stroke-width: 1.0;"/><!--MD5=[d11b3640e690a51a473ed4724f9fc2d3]
link cell.Geometry.generateFacingAny to cell.Geometry.generateFacingCentre--><!--MD5=[92065cd18f05a3ad01efa763ff1ace05]
link cell.Geometry.generateFacingAny to cell.Geometry.candidates--><!--MD5=[eacfb15400687d3333803387a0557a65]
link cell.Spiral.offset to cell.Spiral.splitLine--><!--MD5=[cb5b06878d1dcb0c4b074b5062e26fde]
link cell.Spiral.splitLine to cell.Spiral.prettyPrint--><!--MD5=[3355c57b4e9bd9876b45fdc67178a6df]
link cell.Spiral.offset to cell.Spiral.matrix--><!--MD5=[46638de056fc693f0808766d23f273a1]
link cell.Spiral.matrix to cell.Spiral.r1--><!--MD5=[6f5ec343df9e36ef391fe32f882c78e3]
link cell.Spiral.r1 to cell.Spiral.c1--><!--MD5=[52b300e8adc1ac50c267b59c68d41bf1]
link cell.Spiral.matrix to cell.Spiral.r2--><!--MD5=[925c35fc6e570224a49b36b36af40b47]
link cell.Spiral.r2 to cell.Spiral.c2--><!--MD5=[c55a4b981af75562f8eb514c9ddaf7d1]
link cell.Transform.dataV2 to cell.Transform.dataV3--><!--MD5=[2495c87067c8d81870af05b9d45720a2]
link cell.Transform.dataV2 to cell.Transform.txDbv3Yaml--><!--MD5=[181ba9ab05f37ddd40ebebb8e37c19f7]
link cell.Transform.txDbv3Yaml to cell.Transform.txDbv3YamlOneCell--><!--MD5=[583452789bcba8c3dbf783f1d91cea76]
link cell.CellData.layersRead to cell.CellData.layersWrite--><!--MD5=[1b284c31f631bf4865cbf463f17448a1]
link cell.CellData.layersRead to cell.CellData.cellWrite--><!--MD5=[5668548be568346ecfb5896f223374f3]
link cell.CellData.cellWrite to cell.CellData.layersUpdate--><!--MD5=[5bf48e6bc329e39702204b988711c2b2]
link cell.Line.guidelines to cell.Line.collectPoints--><!--MD5=[4fabbe10ac7a127ea91ad40887d2189c]
link cell.Line.collectPoints to cell.Line.orderGrid--><!--MD5=[bfb236f48d29d6672cd45f443280aaf3]
link cell.Line.guidelines to cell.Line.makeStripes--><!--MD5=[8b0358b04c174d61da823932d91f95e7]
link cell.Line.makeStripes to cell.Line.sliceByThird--><!--MD5=[59edca5ad99553987f53a941baf0bb68]
link cell.Geometry.generateFacingCentre to cell.Spiral.offset--><!--MD5=[d5ab9a7134f6cfe608625ea23535b465]
link cell.Spiral.prettyPrint to cell.Transform.dataV2--><!--MD5=[6368099987d5d0c8f04899eb93407271]
link cell.Geometry.candidates to cell.CellData.layersRead--><!--MD5=[b86125a1e85788f33efe0e88d69e47ba]
link cell.CellData.layersWrite to cell.Line.guidelines--><!--MD5=[71498d082f6e8718fed867b669260ee3]
@startuml

class cell.Init.generate {
   top
   axis: NONE
   facing_c: FALSE
   facing: NONE
   stroke: NONE
}
class cell.Geometry.generateFacingAny {
   top: FALSE
}
class cell.Geometry.generateFacingCentre {
   top: FALSE
}
class cell.Geometry.generateOne {
   axis
   top
   facing: NONE
}
class cell.Geometry.candidates {
   facing
}
class cell.Palette.generateOne {
   colors
}
class cell.Strokes.generateOne {
   colors
}

class cell.Spiral.make {
   clen
   bounds
}
class cell.Spiral.offset {
   clen
   pos
   points
}
class cell.Spiral.splitLine {
   line
   hole
}
class cell.Spiral.prettyPrint {
   clen
   db
}
class cell.Spiral.matrix {
   LEN
}
class cell.Spiral.r1 {
   s
   n
   l
}
class cell.Spiral.c1 {
   s
   n
   l
}
class cell.Spiral.r2 {
   s
   n
   l
}
class cell.Spiral.c2 {
   s
   n
   l
}

class cell.Transform.dataV2 {
   celldata
}
class cell.Transform.dataV3 {
   celldata
}
class cell.Transform.txDbv3Yaml {
   cells
   penwidth_mm: DECIMAL(1)
}
class cell.Transform.txDbv3YamlOneCell {
   cell
   penwidth_mm
}

class cell.CellData.layers {
   rinkid
   celldata: DICT()
}
class cell.CellData.layersRead {
   rinkid
}
class cell.CellData.layersWrite {
   rinkid
   celldata: DICT()
}
class cell.CellData.cellWrite {
   rinkid
   label
   cell
}
class cell.CellData.layersUpdate {
   rinkid
   celldata
}
class cell.Strokes.generateOne {
   colors
}
class cell.Layer.background {
   cell
}
class cell.Layer.foreground {
   geom
}
class cell.Layer.dimension {
   x
   y
   clen
}
class cell.Layer.points {
   x
   y
   stroke_width
   clen
}

class cell.InputValidator.validate {
   label
   cell
}
class cell.InputValidator.geometry {
   label
   geom
}

class cell.Line.guidelines {
   facing
   clen
   bounds
}
class cell.Line.collectPoints {
   guidelines
   facing: NONE
}
class cell.Line.orderGrid {
   guideline
   facing: NONE
}
class cell.Line.makeStripes {
   points
}
class cell.Line.sliceByThird {
   facing
   points
}


cell.Transform <|- - cell.CellData
cell.Db2 <|- - cell.Transform

cell.InputValidator.validate - - recurrink.build
cell.CellData.layers  - - recurrink.commit
cell.CellData.dataV2  - - recurrink.commit
cell.CellData.layers  - - recurrink.clone
cell.CellData.txDbv3Yaml - - recurrink.clone
cell.CellData.txDbv3YamlOneCell - - cell.CellData.txDbv3Yaml

cell.shape - - cell.Layer.background
cell.shape - - cell.Layer.foreground
cell.InputValidator.geometry - - cell.InputValidator.validate
cell.shape *- - cell.InputValidator.geometry

cell.Palette.generateOne - - cell.Init.generate
cell.Strokes.generateOne - - cell.Init.generate
cell.Geometry.generateOne *- - cell.Init.generate

cell.Layer.foreground - - block.make
cell.Layer.background - - block.make
cell.Line - - cell.shape

cell.Spiral.make - - cell.shape.Rectangle.draw

@enduml

PlantUML version 1.2020.02(Sun Mar 01 11:22:07 CET 2020)
(GPL source distribution)
Java Runtime: OpenJDK Runtime Environment
JVM: OpenJDK 64-Bit Server VM
Java Version: 21.0.10+7-Ubuntu-124.04
Operating System: Linux
Default Encoding: UTF-8
Language: en
Country: US
--></g></svg>