<?xml version="1.0" encoding="UTF-8" standalone="no"?><svg xmlns="http://www.w3.org/2000/svg" xmlns:xlink="http://www.w3.org/1999/xlink" contentScriptType="application/ecmascript" contentStyleType="text/css" height="462px" preserveAspectRatio="none" style="width:355px;height:462px;" version="1.1" viewBox="0 0 355 462" width="355px" zoomAndPan="magnify"><defs><filter height="300%" id="f3ahwnktxlj4m" width="300%" x="-1" y="-1"><feGaussianBlur result="blurOut" stdDeviation="2.0"/><feColorMatrix in="blurOut" result="blurOut2" type="matrix" values="0 0 0 0 0 0 0 0 0 0 0 0 0 0 0 0 0 0 .4 0"/><feOffset dx="4.0" dy="4.0" in="blurOut2" result="blurOut3"/><feBlend in="SourceGraphic" in2="blurOut3" mode="normal"/></filter></defs><g><text fill="#000000" font-family="sans-serif" font-size="18" lengthAdjust="spacingAndGlyphs" textLength="48" x="159.5" y="19.2419">Clone</text><!--MD5=[36542d3fe5548789b2d7925f6029e24e]
cluster clone--><polygon fill="#FFFFFF" filter="url(#f3ahwnktxlj4m)" points="22,254.5158,65,254.5158,72,279.5838,333,279.5838,333,356.5158,22,356.5158,22,254.5158" style="stroke: #000000; stroke-width: 1.5;"/><line style="stroke: #000000; stroke-width: 1.5;" x1="22" x2="72" y1="279.5838" y2="279.5838"/><text fill="#000000" font-family="sans-serif" font-size="14" font-weight="bold" lengthAdjust="spacingAndGlyphs" textLength="37" x="26" y="271.4818">clone</text><!--MD5=[41f460bc8c2205516928d969af071c71]
class clone.palette--><rect fill="#FEFECE" filter="url(#f3ahwnktxlj4m)" height="48" id="clone.palette" style="stroke: #A80036; stroke-width: 1.5;" width="71" x="38.5" y="292.5158"/><ellipse cx="53.5" cy="308.5158" fill="#ADD1B2" rx="11" ry="11" style="stroke: #A80036; stroke-width: 1.0;"/><path d="M56.4688,314.1565 Q55.8906,314.4533 55.25,314.594 Q54.6094,314.7502 53.9063,314.7502 Q51.4063,314.7502 50.0781,313.1096 Q48.7656,311.4533 48.7656,308.3283 Q48.7656,305.2033 50.0781,303.5471 Q51.4063,301.8908 53.9063,301.8908 Q54.6094,301.8908 55.25,302.0471 Q55.9063,302.2033 56.4688,302.5002 L56.4688,305.219 Q55.8438,304.6408 55.25,304.3752 Q54.6563,304.094 54.0313,304.094 Q52.6875,304.094 52,305.1721 Q51.3125,306.2346 51.3125,308.3283 Q51.3125,310.4221 52,311.5002 Q52.6875,312.5627 54.0313,312.5627 Q54.6563,312.5627 55.25,312.2971 Q55.8438,312.0158 56.4688,311.4377 L56.4688,314.1565 Z "/><text fill="#000000" font-family="sans-serif" font-size="12" lengthAdjust="spacingAndGlyphs" textLength="39" x="67.5" y="313.1719">palette</text><line style="stroke: #A80036; stroke-width: 1.5;" x1="39.5" x2="108.5" y1="324.5158" y2="324.5158"/><line style="stroke: #A80036; stroke-width: 1.5;" x1="39.5" x2="108.5" y1="332.5158" y2="332.5158"/><!--MD5=[bea9fc3f8faf4fbfa84ac7e200a4d7ac]
class clone.rinks--><rect fill="#FEFECE" filter="url(#f3ahwnktxlj4m)" height="48" id="clone.rinks" style="stroke: #A80036; stroke-width: 1.5;" width="59" x="144.5" y="292.5158"/><ellipse cx="159.5" cy="308.5158" fill="#ADD1B2" rx="11" ry="11" style="stroke: #A80036; stroke-width: 1.0;"/><path d="M162.4688,314.1565 Q161.8906,314.4533 161.25,314.594 Q160.6094,314.7502 159.9063,314.7502 Q157.4063,314.7502 156.0781,313.1096 Q154.7656,311.4533 154.7656,308.3283 Q154.7656,305.2033 156.0781,303.5471 Q157.4063,301.8908 159.9063,301.8908 Q160.6094,301.8908 161.25,302.0471 Q161.9063,302.2033 162.4688,302.5002 L162.4688,305.219 Q161.8438,304.6408 161.25,304.3752 Q160.6563,304.094 160.0313,304.094 Q158.6875,304.094 158,305.1721 Q157.3125,306.2346 157.3125,308.3283 Q157.3125,310.4221 158,311.5002 Q158.6875,312.5627 160.0313,312.5627 Q160.6563,312.5627 161.25,312.2971 Q161.8438,312.0158 162.4688,311.4377 L162.4688,314.1565 Z "/><text fill="#000000" font-family="sans-serif" font-size="12" lengthAdjust="spacingAndGlyphs" textLength="27" x="173.5" y="313.1719">rinks</text><line style="stroke: #A80036; stroke-width: 1.5;" x1="145.5" x2="202.5" y1="324.5158" y2="324.5158"/><line style="stroke: #A80036; stroke-width: 1.5;" x1="145.5" x2="202.5" y1="332.5158" y2="332.5158"/><!--MD5=[a4d0eafe45e008627eaf273037c9e1a3]
class clone.palSwap--><rect fill="#FEFECE" filter="url(#f3ahwnktxlj4m)" height="48" id="clone.palSwap" style="stroke: #A80036; stroke-width: 1.5;" width="79" x="238.5" y="292.5158"/><ellipse cx="253.5" cy="308.5158" fill="#ADD1B2" rx="11" ry="11" style="stroke: #A80036; stroke-width: 1.0;"/><path d="M256.4688,314.1565 Q255.8906,314.4533 255.25,314.594 Q254.6094,314.7502 253.9063,314.7502 Q251.4063,314.7502 250.0781,313.1096 Q248.7656,311.4533 248.7656,308.3283 Q248.7656,305.2033 250.0781,303.5471 Q251.4063,301.8908 253.9063,301.8908 Q254.6094,301.8908 255.25,302.0471 Q255.9063,302.2033 256.4688,302.5002 L256.4688,305.219 Q255.8438,304.6408 255.25,304.3752 Q254.6563,304.094 254.0313,304.094 Q252.6875,304.094 252,305.1721 Q251.3125,306.2346 251.3125,308.3283 Q251.3125,310.4221 252,311.5002 Q252.6875,312.5627 254.0313,312.5627 Q254.6563,312.5627 255.25,312.2971 Q255.8438,312.0158 256.4688,311.4377 L256.4688,314.1565 Z "/><text fill="#000000" font-family="sans-serif" font-size="12" lengthAdjust="spacingAndGlyphs" textLength="47" x="267.5" y="313.1719">palSwap</text><line style="stroke: #A80036; stroke-width: 1.5;" x1="239.5" x2="316.5" y1="324.5158" y2="324.5158"/><line style="stroke: #A80036; stroke-width: 1.5;" x1="239.5" x2="316.5" y1="332.5158" y2="332.5158"/><!--MD5=[a653da9285a52f9d253372cfed81819e]
class db--><rect fill="#FEFECE" filter="url(#f3ahwnktxlj4m)" height="48" id="db" style="stroke: #A80036; stroke-width: 1.5;" width="46" x="155" y="141.5158"/><ellipse cx="170" cy="157.5158" fill="#ADD1B2" rx="11" ry="11" style="stroke: #A80036; stroke-width: 1.0;"/><path d="M172.9688,163.1565 Q172.3906,163.4533 171.75,163.594 Q171.1094,163.7502 170.4063,163.7502 Q167.9063,163.7502 166.5781,162.1096 Q165.2656,160.4533 165.2656,157.3283 Q165.2656,154.2033 166.5781,152.5471 Q167.9063,150.8908 170.4063,150.8908 Q171.1094,150.8908 171.75,151.0471 Q172.4063,151.2033 172.9688,151.5002 L172.9688,154.219 Q172.3438,153.6408 171.75,153.3752 Q171.1563,153.094 170.5313,153.094 Q169.1875,153.094 168.5,154.1721 Q167.8125,155.2346 167.8125,157.3283 Q167.8125,159.4221 168.5,160.5002 Q169.1875,161.5627 170.5313,161.5627 Q171.1563,161.5627 171.75,161.2971 Q172.3438,161.0158 172.9688,160.4377 L172.9688,163.1565 Z "/><text fill="#000000" font-family="sans-serif" font-size="12" lengthAdjust="spacingAndGlyphs" textLength="14" x="184" y="162.1719">db</text><line style="stroke: #A80036; stroke-width: 1.5;" x1="156" x2="200" y1="173.5158" y2="173.5158"/><line style="stroke: #A80036; stroke-width: 1.5;" x1="156" x2="200" y1="181.5158" y2="181.5158"/><!--MD5=[d73585d71b2748f54a72687d17b93a91]
class file--><rect fill="#FEFECE" filter="url(#f3ahwnktxlj4m)" height="48" id="file" style="stroke: #A80036; stroke-width: 1.5;" width="49" x="149.5" y="403.5158"/><ellipse cx="164.5" cy="419.5158" fill="#ADD1B2" rx="11" ry="11" style="stroke: #A80036; stroke-width: 1.0;"/><path d="M167.4688,425.1565 Q166.8906,425.4533 166.25,425.594 Q165.6094,425.7502 164.9063,425.7502 Q162.4063,425.7502 161.0781,424.1096 Q159.7656,422.4533 159.7656,419.3283 Q159.7656,416.2033 161.0781,414.5471 Q162.4063,412.8908 164.9063,412.8908 Q165.6094,412.8908 166.25,413.0471 Q166.9063,413.2033 167.4688,413.5002 L167.4688,416.219 Q166.8438,415.6408 166.25,415.3752 Q165.6563,415.094 165.0313,415.094 Q163.6875,415.094 163,416.1721 Q162.3125,417.2346 162.3125,419.3283 Q162.3125,421.4221 163,422.5002 Q163.6875,423.5627 165.0313,423.5627 Q165.6563,423.5627 166.25,423.2971 Q166.8438,423.0158 167.4688,422.4377 L167.4688,425.1565 Z "/><text fill="#000000" font-family="sans-serif" font-size="12" lengthAdjust="spacingAndGlyphs" textLength="17" x="178.5" y="424.1719">file</text><line style="stroke: #A80036; stroke-width: 1.5;" x1="150.5" x2="197.5" y1="435.5158" y2="435.5158"/><line style="stroke: #A80036; stroke-width: 1.5;" x1="150.5" x2="197.5" y1="443.5158" y2="443.5158"/><!--MD5=[fb21a71b7e05bea158347acc63640bf6]
class recurrink--><rect fill="#FEFECE" filter="url(#f3ahwnktxlj4m)" height="48" id="recurrink" style="stroke: #A80036; stroke-width: 1.5;" width="83" x="136.5" y="32.5158"/><ellipse cx="151.5" cy="48.5158" fill="#ADD1B2" rx="11" ry="11" style="stroke: #A80036; stroke-width: 1.0;"/><path d="M154.4688,54.1565 Q153.8906,54.4533 153.25,54.594 Q152.6094,54.7502 151.9063,54.7502 Q149.4063,54.7502 148.0781,53.1096 Q146.7656,51.4533 146.7656,48.3283 Q146.7656,45.2033 148.0781,43.5471 Q149.4063,41.8908 151.9063,41.8908 Q152.6094,41.8908 153.25,42.0471 Q153.9063,42.2033 154.4688,42.5002 L154.4688,45.219 Q153.8438,44.6408 153.25,44.3752 Q152.6563,44.094 152.0313,44.094 Q150.6875,44.094 150,45.1721 Q149.3125,46.2346 149.3125,48.3283 Q149.3125,50.4221 150,51.5002 Q150.6875,52.5627 152.0313,52.5627 Q152.6563,52.5627 153.25,52.2971 Q153.8438,52.0158 154.4688,51.4377 L154.4688,54.1565 Z "/><text fill="#000000" font-family="sans-serif" font-size="12" lengthAdjust="spacingAndGlyphs" textLength="51" x="165.5" y="53.1719">recurrink</text><line style="stroke: #A80036; stroke-width: 1.5;" x1="137.5" x2="218.5" y1="64.5158" y2="64.5158"/><line style="stroke: #A80036; stroke-width: 1.5;" x1="137.5" x2="218.5" y1="72.5158" y2="72.5158"/><!--MD5=[7342f2950b6462b272f8ddc9be0629df]
link db to clone.palSwap--><path d="M201.07,183.7558 C212.69,193.3158 226.31,205.9858 236,219.5158 C250.94,240.3758 262.17,267.3958 269.24,287.4458 " fill="none" id="db-&gt;clone.palSwap" style="stroke: #A80036; stroke-width: 1.0;"/><polygon fill="#A80036" points="270.94,292.3858,271.7821,282.5731,269.3074,287.6599,264.2206,285.1852,270.94,292.3858" style="stroke: #A80036; stroke-width: 1.0;"/><text fill="#000000" font-family="sans-serif" font-size="13" lengthAdjust="spacingAndGlyphs" textLength="62" x="247" y="234.4129">rink colors</text><!--MD5=[34b88b14b3816fe4989b0eae2091b66d]
link db to clone.palette--><path d="M154.87,177.8658 C138.48,187.0158 117.15,201.3358 104,219.5158 C89.47,239.6058 81.83,266.9358 77.91,287.2958 " fill="none" id="db-&gt;clone.palette" style="stroke: #A80036; stroke-width: 1.0;"/><polygon fill="#A80036" points="76.99,292.3158,82.5459,284.1837,77.8907,287.3976,74.6767,282.7425,76.99,292.3158" style="stroke: #A80036; stroke-width: 1.0;"/><text fill="#000000" font-family="sans-serif" font-size="13" lengthAdjust="spacingAndGlyphs" textLength="62" x="105" y="234.4129">pen colors</text><!--MD5=[ebc85fac2dfb9faf739b89839d86534a]
link db to clone.rinks--><path d="M177.38,189.7958 C176.67,216.1458 175.52,259.0758 174.76,287.3058 " fill="none" id="db-&gt;clone.rinks" style="stroke: #A80036; stroke-width: 1.0;"/><polygon fill="#A80036" points="174.62,292.3958,178.8507,283.502,174.7489,287.3975,170.8533,283.2957,174.62,292.3958" style="stroke: #A80036; stroke-width: 1.0;"/><text fill="#000000" font-family="sans-serif" font-size="13" lengthAdjust="spacingAndGlyphs" textLength="53" x="177" y="234.4129">rink data</text><!--MD5=[68ad3e703931caf6c239ba3655bf1f6c]
link clone.palSwap to file--><path d="M255.94,340.6358 C239.54,357.8258 217.09,381.3458 199.84,399.4258 " fill="none" id="clone.palSwap-&gt;file" style="stroke: #A80036; stroke-width: 1.0;"/><polygon fill="#A80036" points="196.02,403.4358,205.1316,399.697,199.4761,399.8226,199.3504,394.1672,196.02,403.4358" style="stroke: #A80036; stroke-width: 1.0;"/><!--MD5=[de000793c749785a237548a5b2b240b4]
link clone.palette to file--><path d="M95.21,340.6358 C110.98,357.8258 132.56,381.3458 149.15,399.4258 " fill="none" id="clone.palette-&gt;file" style="stroke: #A80036; stroke-width: 1.0;"/><polygon fill="#A80036" points="152.82,403.4358,149.6773,394.1019,149.4375,399.7536,143.7857,399.5139,152.82,403.4358" style="stroke: #A80036; stroke-width: 1.0;"/><!--MD5=[f382d9230c7da66ce17d3b3cb03ffd2b]
link clone.rinks to file--><path d="M174,340.6358 C174,357.3958 174,380.1658 174,398.0558 " fill="none" id="clone.rinks-&gt;file" style="stroke: #A80036; stroke-width: 1.0;"/><polygon fill="#A80036" points="174,403.4358,178,394.4358,174,398.4358,170,394.4358,174,403.4358" style="stroke: #A80036; stroke-width: 1.0;"/><!--MD5=[4422049cd152053a1d5fe9d36fef4eff]
link recurrink to db--><path d="M178,80.7358 C178,96.9958 178,118.8358 178,136.1358 " fill="none" id="recurrink-&gt;db" style="stroke: #A80036; stroke-width: 1.0;"/><polygon fill="#A80036" points="178,141.3458,182,132.3458,178,136.3458,174,132.3458,178,141.3458" style="stroke: #A80036; stroke-width: 1.0;"/><!--MD5=[411750f2965c60dda1035a9527da7a5a]
@startUML

title: Clone

class clone.palette
class clone.rinks

class db
class file
class recurrink

db - -> clone.palSwap: rink colors
db - -> clone.palette: pen colors
db - -> clone.rinks: rink data
clone.palSwap - -> file
clone.palette - -> file
clone.rinks - -> file
recurrink - -> db

@endUML

PlantUML version 1.2020.02(Sun Mar 01 11:22:07 CET 2020)
(GPL source distribution)
Java Runtime: OpenJDK Runtime Environment
JVM: OpenJDK 64-Bit Server VM
Java Version: 21.0.10+7-Ubuntu-124.04
Operating System: Linux
Default Encoding: UTF-8
Language: en
Country: US
--></g></svg>