<?xml version="1.0" encoding="UTF-8" standalone="no"?><svg xmlns="http://www.w3.org/2000/svg" xmlns:xlink="http://www.w3.org/1999/xlink" contentScriptType="application/ecmascript" contentStyleType="text/css" height="462px" preserveAspectRatio="none" style="width:658px;height:462px;" version="1.1" viewBox="0 0 658 462" width="658px" zoomAndPan="magnify"><defs><filter height="300%" id="f4w6nj66cz34i" width="300%" x="-1" y="-1"><feGaussianBlur result="blurOut" stdDeviation="2.0"/><feColorMatrix in="blurOut" result="blurOut2" type="matrix" values="0 0 0 0 0 0 0 0 0 0 0 0 0 0 0 0 0 0 .4 0"/><feOffset dx="4.0" dy="4.0" in="blurOut2" result="blurOut3"/><feBlend in="SourceGraphic" in2="blurOut3" mode="normal"/></filter></defs><g><text fill="#000000" font-family="sans-serif" font-size="18" lengthAdjust="spacingAndGlyphs" textLength="68" x="301" y="19.2419">Commit</text><!--MD5=[dfce2c7b170a3944862694d9609ef276]
cluster commit--><polygon fill="#FFFFFF" filter="url(#f4w6nj66cz34i)" points="22,254.5158,82,254.5158,89,279.5838,636,279.5838,636,356.5158,22,356.5158,22,254.5158" style="stroke: #000000; stroke-width: 1.5;"/><line style="stroke: #000000; stroke-width: 1.5;" x1="22" x2="89" y1="279.5838" y2="279.5838"/><text fill="#000000" font-family="sans-serif" font-size="14" font-weight="bold" lengthAdjust="spacingAndGlyphs" textLength="54" x="26" y="271.4818">commit</text><!--MD5=[ecccbe19c5a1318d1ad12d71591c788a]
class commit.addColor--><rect fill="#FEFECE" filter="url(#f4w6nj66cz34i)" height="48" id="commit.addColor" style="stroke: #A80036; stroke-width: 1.5;" width="83" x="38.5" y="292.5158"/><ellipse cx="53.5" cy="308.5158" fill="#ADD1B2" rx="11" ry="11" style="stroke: #A80036; stroke-width: 1.0;"/><path d="M56.4688,314.1565 Q55.8906,314.4533 55.25,314.594 Q54.6094,314.7502 53.9063,314.7502 Q51.4063,314.7502 50.0781,313.1096 Q48.7656,311.4533 48.7656,308.3283 Q48.7656,305.2033 50.0781,303.5471 Q51.4063,301.8908 53.9063,301.8908 Q54.6094,301.8908 55.25,302.0471 Q55.9063,302.2033 56.4688,302.5002 L56.4688,305.219 Q55.8438,304.6408 55.25,304.3752 Q54.6563,304.094 54.0313,304.094 Q52.6875,304.094 52,305.1721 Q51.3125,306.2346 51.3125,308.3283 Q51.3125,310.4221 52,311.5002 Q52.6875,312.5627 54.0313,312.5627 Q54.6563,312.5627 55.25,312.2971 Q55.8438,312.0158 56.4688,311.4377 L56.4688,314.1565 Z "/><text fill="#000000" font-family="sans-serif" font-size="12" lengthAdjust="spacingAndGlyphs" textLength="51" x="67.5" y="313.1719">addColor</text><line style="stroke: #A80036; stroke-width: 1.5;" x1="39.5" x2="120.5" y1="324.5158" y2="324.5158"/><line style="stroke: #A80036; stroke-width: 1.5;" x1="39.5" x2="120.5" y1="332.5158" y2="332.5158"/><!--MD5=[a7444581d4063f24bcf7ebdf0f48d2d0]
class commit.addRink--><rect fill="#FEFECE" filter="url(#f4w6nj66cz34i)" height="48" id="commit.addRink" style="stroke: #A80036; stroke-width: 1.5;" width="76" x="157" y="292.5158"/><ellipse cx="172" cy="308.5158" fill="#ADD1B2" rx="11" ry="11" style="stroke: #A80036; stroke-width: 1.0;"/><path d="M174.9688,314.1565 Q174.3906,314.4533 173.75,314.594 Q173.1094,314.7502 172.4063,314.7502 Q169.9063,314.7502 168.5781,313.1096 Q167.2656,311.4533 167.2656,308.3283 Q167.2656,305.2033 168.5781,303.5471 Q169.9063,301.8908 172.4063,301.8908 Q173.1094,301.8908 173.75,302.0471 Q174.4063,302.2033 174.9688,302.5002 L174.9688,305.219 Q174.3438,304.6408 173.75,304.3752 Q173.1563,304.094 172.5313,304.094 Q171.1875,304.094 170.5,305.1721 Q169.8125,306.2346 169.8125,308.3283 Q169.8125,310.4221 170.5,311.5002 Q171.1875,312.5627 172.5313,312.5627 Q173.1563,312.5627 173.75,312.2971 Q174.3438,312.0158 174.9688,311.4377 L174.9688,314.1565 Z "/><text fill="#000000" font-family="sans-serif" font-size="12" lengthAdjust="spacingAndGlyphs" textLength="44" x="186" y="313.1719">addRink</text><line style="stroke: #A80036; stroke-width: 1.5;" x1="158" x2="232" y1="324.5158" y2="324.5158"/><line style="stroke: #A80036; stroke-width: 1.5;" x1="158" x2="232" y1="332.5158" y2="332.5158"/><!--MD5=[e2a0b5d353f7c64e191aaf051ff57ddc]
class commit.updateVer--><rect fill="#FEFECE" filter="url(#f4w6nj66cz34i)" height="48" id="commit.updateVer" style="stroke: #A80036; stroke-width: 1.5;" width="90" x="268" y="292.5158"/><ellipse cx="283" cy="308.5158" fill="#ADD1B2" rx="11" ry="11" style="stroke: #A80036; stroke-width: 1.0;"/><path d="M285.9688,314.1565 Q285.3906,314.4533 284.75,314.594 Q284.1094,314.7502 283.4063,314.7502 Q280.9063,314.7502 279.5781,313.1096 Q278.2656,311.4533 278.2656,308.3283 Q278.2656,305.2033 279.5781,303.5471 Q280.9063,301.8908 283.4063,301.8908 Q284.1094,301.8908 284.75,302.0471 Q285.4063,302.2033 285.9688,302.5002 L285.9688,305.219 Q285.3438,304.6408 284.75,304.3752 Q284.1563,304.094 283.5313,304.094 Q282.1875,304.094 281.5,305.1721 Q280.8125,306.2346 280.8125,308.3283 Q280.8125,310.4221 281.5,311.5002 Q282.1875,312.5627 283.5313,312.5627 Q284.1563,312.5627 284.75,312.2971 Q285.3438,312.0158 285.9688,311.4377 L285.9688,314.1565 Z "/><text fill="#000000" font-family="sans-serif" font-size="12" lengthAdjust="spacingAndGlyphs" textLength="58" x="297" y="313.1719">updateVer</text><line style="stroke: #A80036; stroke-width: 1.5;" x1="269" x2="357" y1="324.5158" y2="324.5158"/><line style="stroke: #A80036; stroke-width: 1.5;" x1="269" x2="357" y1="332.5158" y2="332.5158"/><!--MD5=[5517d6c9bbdfc8d401a5a6873d34b523]
class commit.updatePubdate--><rect fill="#FEFECE" filter="url(#f4w6nj66cz34i)" height="48" id="commit.updatePubdate" style="stroke: #A80036; stroke-width: 1.5;" width="117" x="393.5" y="292.5158"/><ellipse cx="408.5" cy="308.5158" fill="#ADD1B2" rx="11" ry="11" style="stroke: #A80036; stroke-width: 1.0;"/><path d="M411.4688,314.1565 Q410.8906,314.4533 410.25,314.594 Q409.6094,314.7502 408.9063,314.7502 Q406.4063,314.7502 405.0781,313.1096 Q403.7656,311.4533 403.7656,308.3283 Q403.7656,305.2033 405.0781,303.5471 Q406.4063,301.8908 408.9063,301.8908 Q409.6094,301.8908 410.25,302.0471 Q410.9063,302.2033 411.4688,302.5002 L411.4688,305.219 Q410.8438,304.6408 410.25,304.3752 Q409.6563,304.094 409.0313,304.094 Q407.6875,304.094 407,305.1721 Q406.3125,306.2346 406.3125,308.3283 Q406.3125,310.4221 407,311.5002 Q407.6875,312.5627 409.0313,312.5627 Q409.6563,312.5627 410.25,312.2971 Q410.8438,312.0158 411.4688,311.4377 L411.4688,314.1565 Z "/><text fill="#000000" font-family="sans-serif" font-size="12" lengthAdjust="spacingAndGlyphs" textLength="85" x="422.5" y="313.1719">updatePubdate</text><line style="stroke: #A80036; stroke-width: 1.5;" x1="394.5" x2="509.5" y1="324.5158" y2="324.5158"/><line style="stroke: #A80036; stroke-width: 1.5;" x1="394.5" x2="509.5" y1="332.5158" y2="332.5158"/><!--MD5=[49c9b2ed5ffed4409dbbd06dbc941eb1]
class commit.remove--><rect fill="#FEFECE" filter="url(#f4w6nj66cz34i)" height="48" id="commit.remove" style="stroke: #A80036; stroke-width: 1.5;" width="75" x="545.5" y="292.5158"/><ellipse cx="560.5" cy="308.5158" fill="#ADD1B2" rx="11" ry="11" style="stroke: #A80036; stroke-width: 1.0;"/><path d="M563.4688,314.1565 Q562.8906,314.4533 562.25,314.594 Q561.6094,314.7502 560.9063,314.7502 Q558.4063,314.7502 557.0781,313.1096 Q555.7656,311.4533 555.7656,308.3283 Q555.7656,305.2033 557.0781,303.5471 Q558.4063,301.8908 560.9063,301.8908 Q561.6094,301.8908 562.25,302.0471 Q562.9063,302.2033 563.4688,302.5002 L563.4688,305.219 Q562.8438,304.6408 562.25,304.3752 Q561.6563,304.094 561.0313,304.094 Q559.6875,304.094 559,305.1721 Q558.3125,306.2346 558.3125,308.3283 Q558.3125,310.4221 559,311.5002 Q559.6875,312.5627 561.0313,312.5627 Q561.6563,312.5627 562.25,312.2971 Q562.8438,312.0158 563.4688,311.4377 L563.4688,314.1565 Z "/><text fill="#000000" font-family="sans-serif" font-size="12" lengthAdjust="spacingAndGlyphs" textLength="43" x="574.5" y="313.1719">remove</text><line style="stroke: #A80036; stroke-width: 1.5;" x1="546.5" x2="619.5" y1="324.5158" y2="324.5158"/><line style="stroke: #A80036; stroke-width: 1.5;" x1="546.5" x2="619.5" y1="332.5158" y2="332.5158"/><!--MD5=[a653da9285a52f9d253372cfed81819e]
class db--><rect fill="#FEFECE" filter="url(#f4w6nj66cz34i)" height="48" id="db" style="stroke: #A80036; stroke-width: 1.5;" width="46" x="290" y="403.5158"/><ellipse cx="305" cy="419.5158" fill="#ADD1B2" rx="11" ry="11" style="stroke: #A80036; stroke-width: 1.0;"/><path d="M307.9688,425.1565 Q307.3906,425.4533 306.75,425.594 Q306.1094,425.7502 305.4063,425.7502 Q302.9063,425.7502 301.5781,424.1096 Q300.2656,422.4533 300.2656,419.3283 Q300.2656,416.2033 301.5781,414.5471 Q302.9063,412.8908 305.4063,412.8908 Q306.1094,412.8908 306.75,413.0471 Q307.4063,413.2033 307.9688,413.5002 L307.9688,416.219 Q307.3438,415.6408 306.75,415.3752 Q306.1563,415.094 305.5313,415.094 Q304.1875,415.094 303.5,416.1721 Q302.8125,417.2346 302.8125,419.3283 Q302.8125,421.4221 303.5,422.5002 Q304.1875,423.5627 305.5313,423.5627 Q306.1563,423.5627 306.75,423.2971 Q307.3438,423.0158 307.9688,422.4377 L307.9688,425.1565 Z "/><text fill="#000000" font-family="sans-serif" font-size="12" lengthAdjust="spacingAndGlyphs" textLength="14" x="319" y="424.1719">db</text><line style="stroke: #A80036; stroke-width: 1.5;" x1="291" x2="335" y1="435.5158" y2="435.5158"/><line style="stroke: #A80036; stroke-width: 1.5;" x1="291" x2="335" y1="443.5158" y2="443.5158"/><!--MD5=[d73585d71b2748f54a72687d17b93a91]
class file--><rect fill="#FEFECE" filter="url(#f4w6nj66cz34i)" height="48" id="file" style="stroke: #A80036; stroke-width: 1.5;" width="49" x="224.5" y="141.5158"/><ellipse cx="239.5" cy="157.5158" fill="#ADD1B2" rx="11" ry="11" style="stroke: #A80036; stroke-width: 1.0;"/><path d="M242.4688,163.1565 Q241.8906,163.4533 241.25,163.594 Q240.6094,163.7502 239.9063,163.7502 Q237.4063,163.7502 236.0781,162.1096 Q234.7656,160.4533 234.7656,157.3283 Q234.7656,154.2033 236.0781,152.5471 Q237.4063,150.8908 239.9063,150.8908 Q240.6094,150.8908 241.25,151.0471 Q241.9063,151.2033 242.4688,151.5002 L242.4688,154.219 Q241.8438,153.6408 241.25,153.3752 Q240.6563,153.094 240.0313,153.094 Q238.6875,153.094 238,154.1721 Q237.3125,155.2346 237.3125,157.3283 Q237.3125,159.4221 238,160.5002 Q238.6875,161.5627 240.0313,161.5627 Q240.6563,161.5627 241.25,161.2971 Q241.8438,161.0158 242.4688,160.4377 L242.4688,163.1565 Z "/><text fill="#000000" font-family="sans-serif" font-size="12" lengthAdjust="spacingAndGlyphs" textLength="17" x="253.5" y="162.1719">file</text><line style="stroke: #A80036; stroke-width: 1.5;" x1="225.5" x2="272.5" y1="173.5158" y2="173.5158"/><line style="stroke: #A80036; stroke-width: 1.5;" x1="225.5" x2="272.5" y1="181.5158" y2="181.5158"/><!--MD5=[fb21a71b7e05bea158347acc63640bf6]
class recurrink--><rect fill="#FEFECE" filter="url(#f4w6nj66cz34i)" height="48" id="recurrink" style="stroke: #A80036; stroke-width: 1.5;" width="83" x="410.5" y="32.5158"/><ellipse cx="425.5" cy="48.5158" fill="#ADD1B2" rx="11" ry="11" style="stroke: #A80036; stroke-width: 1.0;"/><path d="M428.4688,54.1565 Q427.8906,54.4533 427.25,54.594 Q426.6094,54.7502 425.9063,54.7502 Q423.4063,54.7502 422.0781,53.1096 Q420.7656,51.4533 420.7656,48.3283 Q420.7656,45.2033 422.0781,43.5471 Q423.4063,41.8908 425.9063,41.8908 Q426.6094,41.8908 427.25,42.0471 Q427.9063,42.2033 428.4688,42.5002 L428.4688,45.219 Q427.8438,44.6408 427.25,44.3752 Q426.6563,44.094 426.0313,44.094 Q424.6875,44.094 424,45.1721 Q423.3125,46.2346 423.3125,48.3283 Q423.3125,50.4221 424,51.5002 Q424.6875,52.5627 426.0313,52.5627 Q426.6563,52.5627 427.25,52.2971 Q427.8438,52.0158 428.4688,51.4377 L428.4688,54.1565 Z "/><text fill="#000000" font-family="sans-serif" font-size="12" lengthAdjust="spacingAndGlyphs" textLength="51" x="439.5" y="53.1719">recurrink</text><line style="stroke: #A80036; stroke-width: 1.5;" x1="411.5" x2="492.5" y1="64.5158" y2="64.5158"/><line style="stroke: #A80036; stroke-width: 1.5;" x1="411.5" x2="492.5" y1="72.5158" y2="72.5158"/><!--MD5=[012cb35a978c6c6a1d7f4910811d3092]
link file to commit.addRink--><path d="M224.46,189.1758 C216.58,197.8758 208.69,208.3958 204,219.5158 C194.93,241.0458 193.08,267.6158 193.26,287.3458 " fill="none" id="file-&gt;commit.addRink" style="stroke: #A80036; stroke-width: 1.0;"/><polygon fill="#A80036" points="193.36,292.4658,197.1787,283.3874,193.2597,287.4669,189.1803,283.5479,193.36,292.4658" style="stroke: #A80036; stroke-width: 1.0;"/><text fill="#000000" font-family="sans-serif" font-size="13" lengthAdjust="spacingAndGlyphs" textLength="53" x="205" y="234.4129">rink data</text><!--MD5=[8682c299951750df3855f6ccc8658391]
link commit.addRink to db--><path d="M220.02,340.6358 C239.31,358.4458 265.93,383.0358 285.75,401.3458 " fill="none" id="commit.addRink-&gt;db" style="stroke: #A80036; stroke-width: 1.0;"/><polygon fill="#A80036" points="289.62,404.9158,285.7155,395.874,285.9443,401.5262,280.2921,401.7551,289.62,404.9158" style="stroke: #A80036; stroke-width: 1.0;"/><!--MD5=[bf8b9cad505f7df6f8aef1f3070eed82]
link file to commit.updateVer--><path d="M259,189.7958 C270.37,216.2558 288.91,259.4258 301.03,287.6558 " fill="none" id="file-&gt;commit.updateVer" style="stroke: #A80036; stroke-width: 1.0;"/><polygon fill="#A80036" points="303.07,292.3958,303.1902,282.5477,301.0952,287.8023,295.8406,285.7074,303.07,292.3958" style="stroke: #A80036; stroke-width: 1.0;"/><text fill="#000000" font-family="sans-serif" font-size="13" lengthAdjust="spacingAndGlyphs" textLength="46" x="281" y="234.4129">new pal</text><!--MD5=[1ac4ea01622ab3adfb3fdf72018d76a0]
link commit.updateVer to db--><path d="M313,340.6358 C313,357.3958 313,380.1658 313,398.0558 " fill="none" id="commit.updateVer-&gt;db" style="stroke: #A80036; stroke-width: 1.0;"/><polygon fill="#A80036" points="313,403.4358,317,394.4358,313,398.4358,309,394.4358,313,403.4358" style="stroke: #A80036; stroke-width: 1.0;"/><!--MD5=[e66bc43a33a32ee832a384e28fd3d091]
link file to commit.addColor--><path d="M224.08,181.3358 C200.56,196.0558 165.1,220.1858 139,246.5158 C125.93,259.7058 112.39,275.3658 101.59,288.4358 " fill="none" id="file-&gt;commit.addColor" style="stroke: #A80036; stroke-width: 1.0;"/><polygon fill="#A80036" points="98.33,292.4058,107.1454,288.0139,101.514,288.5507,100.9772,282.9194,98.33,292.4058" style="stroke: #A80036; stroke-width: 1.0;"/><text fill="#000000" font-family="sans-serif" font-size="13" lengthAdjust="spacingAndGlyphs" textLength="19" x="168" y="234.4129">gpl</text><!--MD5=[bdc20f0fc70aa612dcd496bbe783d551]
link commit.addColor to db--><path d="M105.11,340.5458 C115.13,348.8958 127.1,357.8958 139,364.5158 C187.22,391.3258 249.21,410.1058 284.69,419.5358 " fill="none" id="commit.addColor-&gt;db" style="stroke: #A80036; stroke-width: 1.0;"/><polygon fill="#A80036" points="289.72,420.8558,282.0352,414.696,284.8848,419.5827,279.9981,422.4323,289.72,420.8558" style="stroke: #A80036; stroke-width: 1.0;"/><!--MD5=[c1597cb7236e50cfc3835146a91e1bb2]
link recurrink to commit.updatePubdate--><path d="M452,80.8658 C452,128.3558 452,236.0258 452,287.3258 " fill="none" id="recurrink-&gt;commit.updatePubdate" style="stroke: #A80036; stroke-width: 1.0;"/><polygon fill="#A80036" points="452,292.4058,456,283.4058,452,287.4058,448,283.4058,452,292.4058" style="stroke: #A80036; stroke-width: 1.0;"/><text fill="#000000" font-family="sans-serif" font-size="13" lengthAdjust="spacingAndGlyphs" textLength="37" x="453" y="170.9129">rink id</text><!--MD5=[72003ba9a969a9fa842f1bbf45f4e94e]
link commit.updatePubdate to db--><path d="M422.52,340.6358 C398.11,359.7758 363.72,386.7458 340.01,405.3358 " fill="none" id="commit.updatePubdate-&gt;db" style="stroke: #A80036; stroke-width: 1.0;"/><polygon fill="#A80036" points="336.01,408.4758,345.5628,406.0791,339.9475,405.3943,340.6323,399.7791,336.01,408.4758" style="stroke: #A80036; stroke-width: 1.0;"/><!--MD5=[b66ca3249b9c2e626fc8a657a135ebf6]
link recurrink to commit.remove--><path d="M465.55,80.8458 C475.15,97.5858 488.2,120.7658 499,141.5158 C525.5,192.4258 554.1,252.9958 570.15,287.5858 " fill="none" id="recurrink-&gt;commit.remove" style="stroke: #A80036; stroke-width: 1.0;"/><polygon fill="#A80036" points="572.43,292.4958,572.2726,282.6482,570.3265,287.9598,565.015,286.0138,572.43,292.4958" style="stroke: #A80036; stroke-width: 1.0;"/><text fill="#000000" font-family="sans-serif" font-size="13" lengthAdjust="spacingAndGlyphs" textLength="37" x="523" y="170.9129">rink id</text><!--MD5=[5b14cf5792b7590e2a4994b5706bb8eb]
link commit.remove to db--><path d="M560.29,340.7558 C550.95,349.2358 539.61,358.2658 528,364.5158 C465.88,397.9658 383.69,415.1558 341.17,422.3258 " fill="none" id="commit.remove-&gt;db" style="stroke: #A80036; stroke-width: 1.0;"/><polygon fill="#A80036" points="336.19,423.1558,345.7274,425.6129,341.1212,422.3292,344.4049,417.723,336.19,423.1558" style="stroke: #A80036; stroke-width: 1.0;"/><!--MD5=[e92b3dcec8b720bd5cf36e2210025be2]
link recurrink to file--><path d="M410.43,79.4258 C371.02,100.1958 312.83,130.8658 278.14,149.1558 " fill="none" id="recurrink-&gt;file" style="stroke: #A80036; stroke-width: 1.0;"/><polygon fill="#A80036" points="273.61,151.5458,283.4366,150.8846,278.0324,149.213,279.7041,143.8088,273.61,151.5458" style="stroke: #A80036; stroke-width: 1.0;"/><!--MD5=[712184c3188f3da794229c5b54e340b8]
@startUML

title: Commit

class commit.addColor
class commit.addRink
class commit.updateVer
class commit.updatePubdate
class commit.remove

class db
class file
class recurrink

file - -> commit.addRink: rink data
commit.addRink - -> db

file - -> commit.updateVer: new pal
commit.updateVer - -> db

file - -> commit.addColor: gpl
commit.addColor - -> db

recurrink - -> commit.updatePubdate: rink id
commit.updatePubdate - -> db

recurrink - -> commit.remove: rink id
commit.remove - -> db
recurrink - -> file

@endUML

PlantUML version 1.2020.02(Sun Mar 01 11:22:07 CET 2020)
(GPL source distribution)
Java Runtime: OpenJDK Runtime Environment
JVM: OpenJDK 64-Bit Server VM
Java Version: 21.0.10+7-Ubuntu-124.04
Operating System: Linux
Default Encoding: UTF-8
Language: en
Country: US
--></g></svg>