<svg xmlns="http://www.w3.org/2000/svg" xmlns:xlink="http://www.w3.org/1999/xlink" contentStyleType="text/css" data-diagram-type="CLASS" height="695px" preserveAspectRatio="none" style="width:479px;height:695px;background:#FFFFFF;" version="1.1" viewBox="0 0 479 695" width="479px" zoomAndPan="magnify"><defs/><g><!--class blocks--><g class="entity" data-entity="blocks" data-source-line="1" data-uid="ent0002" id="entity_blocks"><rect fill="#F1F1F1" height="113.1875" rx="2.5" ry="2.5" style="stroke:#181818;stroke-width:0.5;" width="99.7734" x="174" y="451"/><ellipse cx="199.4999" cy="467" fill="#ADD1B2" rx="11" ry="11" style="stroke:#181818;stroke-width:1;"/><path d="M203.6092,473 L195.8905,473 L195.8905,460.6094 L203.6092,460.6094 L203.6092,462.7656 L198.3436,462.7656 L198.3436,465.4375 L203.1092,465.4375 L203.1092,467.5938 L198.3436,467.5938 L198.3436,470.8438 L203.6092,470.8438 L203.6092,473 Z " fill="#000000"/><text fill="#000000" font-family="sans-serif" font-size="14" lengthAdjust="spacing" textLength="44.4404" x="215.8332" y="471.8467">blocks</text><line style="stroke:#181818;stroke-width:0.5;" x1="175" x2="272.7734" y1="483" y2="483"/><text fill="#000000" font-family="sans-serif" font-size="14" lengthAdjust="spacing" textLength="79.9258" x="180" y="499.9951">model: STR</text><text fill="#000000" font-family="sans-serif" font-size="14" lengthAdjust="spacing" textLength="87.7734" x="180" y="516.292">position: INT</text><text fill="#000000" font-family="sans-serif" font-size="14" lengthAdjust="spacing" textLength="72.8643" x="180" y="532.5889">cell: CHAR</text><text fill="#000000" font-family="sans-serif" font-size="14" lengthAdjust="spacing" textLength="71.5518" x="180" y="548.8857">top: BOOL</text><line style="stroke:#181818;stroke-width:0.5;" x1="175" x2="272.7734" y1="556.1875" y2="556.1875"/></g><!--class compass--><g class="entity" data-entity="compass" data-source-line="7" data-uid="ent0003" id="entity_compass"><rect fill="#F1F1F1" height="113.1875" rx="2.5" ry="2.5" style="stroke:#181818;stroke-width:0.5;" width="93.9541" x="45" y="451"/><ellipse cx="60" cy="467" fill="#ADD1B2" rx="11" ry="11" style="stroke:#181818;stroke-width:1;"/><path d="M64.1094,473 L56.3906,473 L56.3906,460.6094 L64.1094,460.6094 L64.1094,462.7656 L58.8438,462.7656 L58.8438,465.4375 L63.6094,465.4375 L63.6094,467.5938 L58.8438,467.5938 L58.8438,470.8438 L64.1094,470.8438 L64.1094,473 Z " fill="#000000"/><text fill="#000000" font-family="sans-serif" font-size="14" lengthAdjust="spacing" textLength="61.9541" x="74" y="471.8467">compass</text><line style="stroke:#181818;stroke-width:0.5;" x1="46" x2="137.9541" y1="483" y2="483"/><text fill="#000000" font-family="sans-serif" font-size="14" lengthAdjust="spacing" textLength="79.9258" x="51" y="499.9951">model: STR</text><text fill="#000000" font-family="sans-serif" font-size="14" lengthAdjust="spacing" textLength="72.8643" x="51" y="516.292">cell: CHAR</text><text fill="#000000" font-family="sans-serif" font-size="14" lengthAdjust="spacing" textLength="75.8857" x="51" y="532.5889">pair: CHAR</text><text fill="#000000" font-family="sans-serif" font-size="14" lengthAdjust="spacing" textLength="79.1875" x="51" y="548.8857">facing: STR</text><line style="stroke:#181818;stroke-width:0.5;" x1="46" x2="137.9541" y1="556.1875" y2="556.1875"/></g><!--class geometry--><g class="entity" data-entity="geometry" data-source-line="13" data-uid="ent0004" id="entity_geometry"><rect fill="#F1F1F1" height="145.7813" rx="2.5" ry="2.5" style="stroke:#181818;stroke-width:0.5;" width="103.6289" x="7" y="15"/><ellipse cx="23.702" cy="31" fill="#ADD1B2" rx="11" ry="11" style="stroke:#181818;stroke-width:1;"/><path d="M27.8114,37 L20.0926,37 L20.0926,24.6094 L27.8114,24.6094 L27.8114,26.7656 L22.5458,26.7656 L22.5458,29.4375 L27.3114,29.4375 L27.3114,31.5938 L22.5458,31.5938 L22.5458,34.8438 L27.8114,34.8438 L27.8114,37 Z " fill="#000000"/><text fill="#000000" font-family="sans-serif" font-size="14" lengthAdjust="spacing" textLength="67.8467" x="38.0802" y="35.8467">geometry</text><line style="stroke:#181818;stroke-width:0.5;" x1="8" x2="109.6289" y1="47" y2="47"/><text fill="#000000" font-family="sans-serif" font-size="14" lengthAdjust="spacing" textLength="88.1768" x="13" y="63.9951">rinkid: CHAR</text><text fill="#000000" font-family="sans-serif" font-size="14" lengthAdjust="spacing" textLength="72.8643" x="13" y="80.292">cell: CHAR</text><text fill="#000000" font-family="sans-serif" font-size="14" lengthAdjust="spacing" textLength="67.4434" x="13" y="96.5889">layer: INT</text><text fill="#000000" font-family="sans-serif" font-size="14" lengthAdjust="spacing" textLength="76.0361" x="13" y="112.8857">name: STR</text><text fill="#000000" font-family="sans-serif" font-size="14" lengthAdjust="spacing" textLength="63.4785" x="13" y="129.1826">size: STR</text><text fill="#000000" font-family="sans-serif" font-size="14" lengthAdjust="spacing" textLength="91.6289" x="13" y="145.4795">facing: CHAR</text><line style="stroke:#181818;stroke-width:0.5;" x1="8" x2="109.6289" y1="152.7813" y2="152.7813"/></g><!--class inkpal--><g class="entity" data-entity="inkpal" data-source-line="21" data-uid="ent0005" id="entity_inkpal"><rect fill="#F1F1F1" height="80.5938" rx="2.5" ry="2.5" style="stroke:#181818;stroke-width:0.5;" width="91.3174" x="359.5" y="467"/><ellipse cx="382.1913" cy="483" fill="#ADD1B2" rx="11" ry="11" style="stroke:#181818;stroke-width:1;"/><path d="M386.3007,489 L378.5819,489 L378.5819,476.6094 L386.3007,476.6094 L386.3007,478.7656 L381.0351,478.7656 L381.0351,481.4375 L385.8007,481.4375 L385.8007,483.5938 L381.0351,483.5938 L381.0351,486.8438 L386.3007,486.8438 L386.3007,489 Z " fill="#000000"/><text fill="#000000" font-family="sans-serif" font-size="14" lengthAdjust="spacing" textLength="42.2256" x="397.9005" y="487.8467">inkpal</text><line style="stroke:#181818;stroke-width:0.5;" x1="360.5" x2="449.8174" y1="499" y2="499"/><text fill="#000000" font-family="sans-serif" font-size="14" lengthAdjust="spacing" textLength="54.9746" x="365.5" y="515.9951">ver: INT</text><text fill="#000000" font-family="sans-serif" font-size="14" lengthAdjust="spacing" textLength="79.3174" x="365.5" y="532.292">gplfile: STR</text><line style="stroke:#181818;stroke-width:0.5;" x1="360.5" x2="449.8174" y1="539.5938" y2="539.5938"/></g><!--class palette--><g class="entity" data-entity="palette" data-source-line="25" data-uid="ent0006" id="entity_palette"><rect fill="#F1F1F1" height="145.7813" rx="2.5" ry="2.5" style="stroke:#181818;stroke-width:0.5;" width="135.5459" x="337" y="15"/><ellipse cx="376.2934" cy="31" fill="#ADD1B2" rx="11" ry="11" style="stroke:#181818;stroke-width:1;"/><path d="M380.4028,37 L372.684,37 L372.684,24.6094 L380.4028,24.6094 L380.4028,26.7656 L375.1372,26.7656 L375.1372,29.4375 L379.9028,29.4375 L379.9028,31.5938 L375.1372,31.5938 L375.1372,34.8438 L380.4028,34.8438 L380.4028,37 Z " fill="#000000"/><text fill="#000000" font-family="sans-serif" font-size="14" lengthAdjust="spacing" textLength="49.5605" x="395.6919" y="35.8467">palette</text><line style="stroke:#181818;stroke-width:0.5;" x1="338" x2="471.5459" y1="47" y2="47"/><text fill="#000000" font-family="sans-serif" font-size="14" lengthAdjust="spacing" textLength="88.1768" x="343" y="63.9951">rinkid: CHAR</text><text fill="#000000" font-family="sans-serif" font-size="14" lengthAdjust="spacing" textLength="72.8643" x="343" y="80.292">cell: CHAR</text><text fill="#000000" font-family="sans-serif" font-size="14" lengthAdjust="spacing" textLength="67.4434" x="343" y="96.5889">layer: INT</text><text fill="#000000" font-family="sans-serif" font-size="14" lengthAdjust="spacing" textLength="54.9746" x="343" y="112.8857">ver: INT</text><text fill="#000000" font-family="sans-serif" font-size="14" lengthAdjust="spacing" textLength="54.7285" x="343" y="129.1826">fill: HEX</text><text fill="#000000" font-family="sans-serif" font-size="14" lengthAdjust="spacing" textLength="123.5459" x="343" y="145.4795">opacity: DECIMAL</text><line style="stroke:#181818;stroke-width:0.5;" x1="338" x2="471.5459" y1="152.7813" y2="152.7813"/></g><!--class models--><g class="entity" data-entity="models" data-source-line="33" data-uid="ent0007" id="entity_models"><rect fill="#F1F1F1" height="64.2969" rx="2.5" ry="2.5" style="stroke:#181818;stroke-width:0.5;" width="91.9258" x="112" y="624"/><ellipse cx="131.0676" cy="640" fill="#ADD1B2" rx="11" ry="11" style="stroke:#181818;stroke-width:1;"/><path d="M135.177,646 L127.4582,646 L127.4582,633.6094 L135.177,633.6094 L135.177,635.7656 L129.9113,635.7656 L129.9113,638.4375 L134.677,638.4375 L134.677,640.5938 L129.9113,640.5938 L129.9113,643.8438 L135.177,643.8438 L135.177,646 Z " fill="#000000"/><text fill="#000000" font-family="sans-serif" font-size="14" lengthAdjust="spacing" textLength="50.8867" x="145.9715" y="644.8467">models</text><line style="stroke:#181818;stroke-width:0.5;" x1="113" x2="202.9258" y1="656" y2="656"/><text fill="#000000" font-family="sans-serif" font-size="14" lengthAdjust="spacing" textLength="79.9258" x="118" y="672.9951">model: STR</text><line style="stroke:#181818;stroke-width:0.5;" x1="113" x2="202.9258" y1="680.2969" y2="680.2969"/></g><!--class pens--><g class="entity" data-entity="pens" data-source-line="36" data-uid="ent0008" id="entity_pens"><rect fill="#F1F1F1" height="96.8906" rx="2.5" ry="2.5" style="stroke:#181818;stroke-width:0.5;" width="96.9229" x="356.5" y="261.5"/><ellipse cx="385.5651" cy="277.5" fill="#ADD1B2" rx="11" ry="11" style="stroke:#181818;stroke-width:1;"/><path d="M389.6745,283.5 L381.9558,283.5 L381.9558,271.1094 L389.6745,271.1094 L389.6745,273.2656 L384.4089,273.2656 L384.4089,275.9375 L389.1745,275.9375 L389.1745,278.0938 L384.4089,278.0938 L384.4089,281.3438 L389.6745,281.3438 L389.6745,283.5 Z " fill="#000000"/><text fill="#000000" font-family="sans-serif" font-size="14" lengthAdjust="spacing" textLength="33.667" x="402.6907" y="282.3467">pens</text><line style="stroke:#181818;stroke-width:0.5;" x1="357.5" x2="452.4229" y1="293.5" y2="293.5"/><text fill="#000000" font-family="sans-serif" font-size="14" lengthAdjust="spacing" textLength="54.9746" x="362.5" y="310.4951">ver: INT</text><text fill="#000000" font-family="sans-serif" font-size="14" lengthAdjust="spacing" textLength="54.7285" x="362.5" y="326.792">fill: HEX</text><text fill="#000000" font-family="sans-serif" font-size="14" lengthAdjust="spacing" textLength="84.9229" x="362.5" y="343.0889">penam: STR</text><line style="stroke:#181818;stroke-width:0.5;" x1="357.5" x2="452.4229" y1="350.3906" y2="350.3906"/></g><!--class strokes--><g class="entity" data-entity="strokes" data-source-line="41" data-uid="ent0009" id="entity_strokes"><rect fill="#F1F1F1" height="162.0781" rx="2.5" ry="2.5" style="stroke:#181818;stroke-width:0.5;" width="154.7412" x="146.5" y="7"/><ellipse cx="194.061" cy="23" fill="#ADD1B2" rx="11" ry="11" style="stroke:#181818;stroke-width:1;"/><path d="M198.1704,29 L190.4517,29 L190.4517,16.6094 L198.1704,16.6094 L198.1704,18.7656 L192.9048,18.7656 L192.9048,21.4375 L197.6704,21.4375 L197.6704,23.5938 L192.9048,23.5938 L192.9048,26.8438 L198.1704,26.8438 L198.1704,29 Z " fill="#000000"/><text fill="#000000" font-family="sans-serif" font-size="14" lengthAdjust="spacing" textLength="51.1191" x="214.561" y="27.8467">strokes</text><line style="stroke:#181818;stroke-width:0.5;" x1="147.5" x2="300.2412" y1="39" y2="39"/><text fill="#000000" font-family="sans-serif" font-size="14" lengthAdjust="spacing" textLength="88.1768" x="152.5" y="55.9951">rinkid: CHAR</text><text fill="#000000" font-family="sans-serif" font-size="14" lengthAdjust="spacing" textLength="72.8643" x="152.5" y="72.292">cell: CHAR</text><text fill="#000000" font-family="sans-serif" font-size="14" lengthAdjust="spacing" textLength="68.6191" x="152.5" y="88.5889">layer: INR</text><text fill="#000000" font-family="sans-serif" font-size="14" lengthAdjust="spacing" textLength="54.7285" x="152.5" y="104.8857">fill: HEX</text><text fill="#000000" font-family="sans-serif" font-size="14" lengthAdjust="spacing" textLength="110.7422" x="152.5" y="121.1826">width: DECIMAL</text><text fill="#000000" font-family="sans-serif" font-size="14" lengthAdjust="spacing" textLength="142.7412" x="152.5" y="137.4795">dasharray: DECIMAL</text><text fill="#000000" font-family="sans-serif" font-size="14" lengthAdjust="spacing" textLength="123.5459" x="152.5" y="153.7764">opacity: DECIMAL</text><line style="stroke:#181818;stroke-width:0.5;" x1="147.5" x2="300.2412" y1="161.0781" y2="161.0781"/></g><!--class rinks--><g class="entity" data-entity="rinks" data-source-line="50" data-uid="ent0010" id="entity_rinks"><rect fill="#F1F1F1" height="162.0781" rx="2.5" ry="2.5" style="stroke:#181818;stroke-width:0.5;" width="125.1689" x="161.5" y="229"/><ellipse cx="203.1621" cy="245" fill="#ADD1B2" rx="11" ry="11" style="stroke:#181818;stroke-width:1;"/><path d="M207.2714,251 L199.5527,251 L199.5527,238.6094 L207.2714,238.6094 L207.2714,240.7656 L202.0058,240.7656 L202.0058,243.4375 L206.7714,243.4375 L206.7714,245.5938 L202.0058,245.5938 L202.0058,248.8438 L207.2714,248.8438 L207.2714,251 Z " fill="#000000"/><text fill="#000000" font-family="sans-serif" font-size="14" lengthAdjust="spacing" textLength="33.9199" x="223.087" y="249.8467">rinks</text><line style="stroke:#181818;stroke-width:0.5;" x1="162.5" x2="285.6689" y1="261" y2="261"/><text fill="#000000" font-family="sans-serif" font-size="14" lengthAdjust="spacing" textLength="88.1768" x="167.5" y="277.9951">rinkid: CHAR</text><text fill="#000000" font-family="sans-serif" font-size="14" lengthAdjust="spacing" textLength="79.9258" x="167.5" y="294.292">model: STR</text><text fill="#000000" font-family="sans-serif" font-size="14" lengthAdjust="spacing" textLength="59.4658" x="167.5" y="310.5889">size: INT</text><text fill="#000000" font-family="sans-serif" font-size="14" lengthAdjust="spacing" textLength="113.1689" x="167.5" y="326.8857">factor: DECIMAL</text><text fill="#000000" font-family="sans-serif" font-size="14" lengthAdjust="spacing" textLength="100.5566" x="167.5" y="343.1826">created: DATE</text><text fill="#000000" font-family="sans-serif" font-size="14" lengthAdjust="spacing" textLength="54.9746" x="167.5" y="359.4795">ver: INT</text><text fill="#000000" font-family="sans-serif" font-size="14" lengthAdjust="spacing" textLength="105.1367" x="167.5" y="375.7764">pubdate: DATE</text><line style="stroke:#181818;stroke-width:0.5;" x1="162.5" x2="285.6689" y1="383.0781" y2="383.0781"/></g><!--reverse link strokes to rinks--><g class="link" data-entity-1="strokes" data-entity-2="rinks" data-source-line="61" data-uid="lnk11" id="link_strokes_rinks"><path codeLine="61" d="M224,181.05 C224,200.46 224,209.22 224,228.64" fill="none" id="strokes-backto-rinks" style="stroke:#181818;stroke-width:1;"/><polygon fill="#181818" points="224,169.05,220,175.05,224,181.05,228,175.05,224,169.05" style="stroke:#181818;stroke-width:1;"/></g><!--reverse link geometry to rinks--><g class="link" data-entity-1="geometry" data-entity-2="rinks" data-source-line="62" data-uid="lnk12" id="link_geometry_rinks"><path codeLine="62" d="M118.41,168.21 C135.12,190.49 146.56,205.74 163.79,228.72" fill="none" id="geometry-backto-rinks" style="stroke:#181818;stroke-width:1;"/><polygon fill="#181818" points="111.21,158.61,111.61,165.81,118.41,168.21,118.01,161.01,111.21,158.61" style="stroke:#181818;stroke-width:1;"/></g><!--reverse link palette to rinks--><g class="link" data-entity-1="palette" data-entity-2="rinks" data-source-line="63" data-uid="lnk13" id="link_palette_rinks"><path codeLine="63" d="M338.1045,170.3056 C319.1345,193.3556 305.71,209.69 286.51,233.02" fill="none" id="palette-backto-rinks" style="stroke:#181818;stroke-width:1;"/><polygon fill="#181818" points="345.73,161.04,338.8287,163.131,338.1045,170.3056,345.0058,168.2146,345.73,161.04" style="stroke:#181818;stroke-width:1;"/></g><!--reverse link rinks to blocks--><g class="link" data-entity-1="rinks" data-entity-2="blocks" data-source-line="64" data-uid="lnk14" id="link_rinks_blocks"><path codeLine="64" d="M224,403.08 C224,423.12 224,432.18 224,450.74" fill="none" id="rinks-backto-blocks" style="stroke:#181818;stroke-width:1;"/><polygon fill="#181818" points="224,391.08,220,397.08,224,403.08,228,397.08,224,391.08" style="stroke:#181818;stroke-width:1;"/></g><!--reverse link palette to pens--><g class="link" data-entity-1="palette" data-entity-2="pens" data-source-line="65" data-uid="lnk15" id="link_palette_pens"><path codeLine="65" d="M405,173.04 C405,205.99 405,232.13 405,261.44" fill="none" id="palette-backto-pens" style="stroke:#181818;stroke-width:1;"/><polygon fill="#181818" points="405,161.04,401,167.04,405,173.04,409,167.04,405,161.04" style="stroke:#181818;stroke-width:1;"/></g><!--reverse link pens to inkpal--><g class="link" data-entity-1="pens" data-entity-2="inkpal" data-source-line="66" data-uid="lnk16" id="link_pens_inkpal"><path codeLine="66" d="M405,370.57 C405,403.8 405,435.65 405,466.96" fill="none" id="pens-backto-inkpal" style="stroke:#181818;stroke-width:1;"/><polygon fill="#181818" points="405,358.57,401,364.57,405,370.57,409,364.57,405,358.57" style="stroke:#181818;stroke-width:1;"/></g><!--reverse link blocks to models--><g class="link" data-entity-1="blocks" data-entity-2="models" data-source-line="67" data-uid="lnk17" id="link_blocks_models"><path codeLine="67" d="M193.9307,575.2408 C184.8207,595.4608 179.8,606.62 171.99,623.94" fill="none" id="blocks-backto-models" style="stroke:#181818;stroke-width:1;"/><polygon fill="#181818" points="198.86,564.3,192.7484,568.1273,193.9307,575.2408,200.0423,571.4135,198.86,564.3" style="stroke:#181818;stroke-width:1;"/></g><!--reverse link compass to models--><g class="link" data-entity-1="compass" data-entity-2="models" data-source-line="68" data-uid="lnk18" id="link_compass_models"><path codeLine="68" d="M122.0693,575.2408 C131.1793,595.4608 136.2,606.62 144.01,623.94" fill="none" id="compass-backto-models" style="stroke:#181818;stroke-width:1;"/><polygon fill="#181818" points="117.14,564.3,115.9577,571.4135,122.0693,575.2408,123.2516,568.1273,117.14,564.3" style="stroke:#181818;stroke-width:1;"/></g><!--SRC=[bPDBRiCW48Rtd6BMbN81xzp4KYArZPHuqIt14mS56mIqbLlbxWLZWsqbKhjZNj_yCm2sbjiEJaAogu4V0j382aK6n_80pbBISCjbcy7khNGsG-62wstUHwrK6Jplzo_aHZ2Gc6mKDVTGgTHpATVHE5F6sxfFJA0QPODMTpr9y_RAgrWmGmdQeHxrjRJ1008m_3kUnnPzJUpXg8eAt-4p8cebpbpWGerBGslnVs8I51pI9MsBTtUMoecnNGQROhrxpIVBwnUstDr41BOX-03iuhHPr1YhvHNDtuKV5j0lNjbBqWfGKNEXMjDkwdmyaszwj_raml6kXf4eir9FwKmZjUXADtbPpETN7wVAnORGZH0oJloqMeNc93wbv1hlCtc2Jc-7pp1ByPid_Vgz5PuD6JwDzuIB8-FZJwvV]--></g></svg>