<?xml version="1.0" encoding="UTF-8" standalone="no"?><svg xmlns="http://www.w3.org/2000/svg" xmlns:xlink="http://www.w3.org/1999/xlink" contentScriptType="application/ecmascript" contentStyleType="text/css" height="690px" preserveAspectRatio="none" style="width:397px;height:690px;" version="1.1" viewBox="0 0 397 690" width="397px" zoomAndPan="magnify"><defs><filter height="300%" id="ftkmh0aqzoobv" width="300%" x="-1" y="-1"><feGaussianBlur result="blurOut" stdDeviation="2.0"/><feColorMatrix in="blurOut" result="blurOut2" type="matrix" values="0 0 0 0 0 0 0 0 0 0 0 0 0 0 0 0 0 0 .4 0"/><feOffset dx="4.0" dy="4.0" in="blurOut2" result="blurOut3"/><feBlend in="SourceGraphic" in2="blurOut3" mode="normal"/></filter></defs><g><!--MD5=[d1aca5112466275106e9a5da8befcbb3]
class blocks--><rect fill="#FEFECE" filter="url(#ftkmh0aqzoobv)" height="107.9276" id="blocks" style="stroke: #A80036; stroke-width: 1.5;" width="79" x="147.5" y="434"/><ellipse cx="167.9" cy="450" fill="#ADD1B2" rx="11" ry="11" style="stroke: #A80036; stroke-width: 1.0;"/><path d="M172.0094,456 L164.2906,456 L164.2906,443.6094 L172.0094,443.6094 L172.0094,445.7656 L166.7438,445.7656 L166.7438,448.4375 L171.5094,448.4375 L171.5094,450.5938 L166.7438,450.5938 L166.7438,453.8438 L172.0094,453.8438 L172.0094,456 Z "/><text fill="#000000" font-family="sans-serif" font-size="12" lengthAdjust="spacingAndGlyphs" textLength="35" x="183.1" y="454.656">blocks</text><line style="stroke: #A80036; stroke-width: 1.5;" x1="148.5" x2="225.5" y1="466" y2="466"/><text fill="#000000" font-family="sans-serif" font-size="11" lengthAdjust="spacingAndGlyphs" textLength="45" x="153.5" y="481.7589">mid: STR</text><text fill="#000000" font-family="sans-serif" font-size="11" lengthAdjust="spacingAndGlyphs" textLength="67" x="153.5" y="496.7408">position: INT</text><text fill="#000000" font-family="sans-serif" font-size="11" lengthAdjust="spacingAndGlyphs" textLength="52" x="153.5" y="511.7227">cell: CHAR</text><text fill="#000000" font-family="sans-serif" font-size="11" lengthAdjust="spacingAndGlyphs" textLength="55" x="153.5" y="526.7046">top: BOOL</text><line style="stroke: #A80036; stroke-width: 1.5;" x1="148.5" x2="225.5" y1="533.9276" y2="533.9276"/><!--MD5=[0f46d268803bfed1d658af1f363ac1ff]
class compass--><rect fill="#FEFECE" filter="url(#ftkmh0aqzoobv)" height="107.9276" id="compass" style="stroke: #A80036; stroke-width: 1.5;" width="82" x="30" y="434"/><ellipse cx="45" cy="450" fill="#ADD1B2" rx="11" ry="11" style="stroke: #A80036; stroke-width: 1.0;"/><path d="M49.1094,456 L41.3906,456 L41.3906,443.6094 L49.1094,443.6094 L49.1094,445.7656 L43.8438,445.7656 L43.8438,448.4375 L48.6094,448.4375 L48.6094,450.5938 L43.8438,450.5938 L43.8438,453.8438 L49.1094,453.8438 L49.1094,456 Z "/><text fill="#000000" font-family="sans-serif" font-size="12" lengthAdjust="spacingAndGlyphs" textLength="50" x="59" y="454.656">compass</text><line style="stroke: #A80036; stroke-width: 1.5;" x1="31" x2="111" y1="466" y2="466"/><text fill="#000000" font-family="sans-serif" font-size="11" lengthAdjust="spacingAndGlyphs" textLength="45" x="36" y="481.7589">mid: STR</text><text fill="#000000" font-family="sans-serif" font-size="11" lengthAdjust="spacingAndGlyphs" textLength="52" x="36" y="496.7408">cell: CHAR</text><text fill="#000000" font-family="sans-serif" font-size="11" lengthAdjust="spacingAndGlyphs" textLength="56" x="36" y="511.7227">pair: CHAR</text><text fill="#000000" font-family="sans-serif" font-size="11" lengthAdjust="spacingAndGlyphs" textLength="57" x="36" y="526.7046">facing: STR</text><line style="stroke: #A80036; stroke-width: 1.5;" x1="31" x2="111" y1="533.9276" y2="533.9276"/><!--MD5=[8051d565d0e2b0e670caf2b9e435ea1e]
class geometry--><rect fill="#FEFECE" filter="url(#ftkmh0aqzoobv)" height="137.8913" id="geometry" style="stroke: #A80036; stroke-width: 1.5;" width="86" x="6" y="15.5"/><ellipse cx="21" cy="31.5" fill="#ADD1B2" rx="11" ry="11" style="stroke: #A80036; stroke-width: 1.0;"/><path d="M25.1094,37.5 L17.3906,37.5 L17.3906,25.1094 L25.1094,25.1094 L25.1094,27.2656 L19.8438,27.2656 L19.8438,29.9375 L24.6094,29.9375 L24.6094,32.0938 L19.8438,32.0938 L19.8438,35.3438 L25.1094,35.3438 L25.1094,37.5 Z "/><text fill="#000000" font-family="sans-serif" font-size="12" lengthAdjust="spacingAndGlyphs" textLength="54" x="35" y="36.156">geometry</text><line style="stroke: #A80036; stroke-width: 1.5;" x1="7" x2="91" y1="47.5" y2="47.5"/><text fill="#000000" font-family="sans-serif" font-size="11" lengthAdjust="spacingAndGlyphs" textLength="66" x="12" y="63.2589">rinkid: CHAR</text><text fill="#000000" font-family="sans-serif" font-size="11" lengthAdjust="spacingAndGlyphs" textLength="52" x="12" y="78.2408">cell: CHAR</text><text fill="#000000" font-family="sans-serif" font-size="11" lengthAdjust="spacingAndGlyphs" textLength="50" x="12" y="93.2227">layer: INT</text><text fill="#000000" font-family="sans-serif" font-size="11" lengthAdjust="spacingAndGlyphs" textLength="54" x="12" y="108.2046">name: STR</text><text fill="#000000" font-family="sans-serif" font-size="11" lengthAdjust="spacingAndGlyphs" textLength="44" x="12" y="123.1865">size: STR</text><text fill="#000000" font-family="sans-serif" font-size="11" lengthAdjust="spacingAndGlyphs" textLength="67" x="12" y="138.1684">facing: CHAR</text><line style="stroke: #A80036; stroke-width: 1.5;" x1="7" x2="91" y1="145.3913" y2="145.3913"/><!--MD5=[88f1ac8e490d8eb58ba4a1e36b745320]
class pens--><rect fill="#FEFECE" filter="url(#ftkmh0aqzoobv)" height="77.9638" id="pens" style="stroke: #A80036; stroke-width: 1.5;" width="70" x="299" y="449"/><ellipse cx="318.95" cy="465" fill="#ADD1B2" rx="11" ry="11" style="stroke: #A80036; stroke-width: 1.0;"/><path d="M323.0594,471 L315.3406,471 L315.3406,458.6094 L323.0594,458.6094 L323.0594,460.7656 L317.7938,460.7656 L317.7938,463.4375 L322.5594,463.4375 L322.5594,465.5938 L317.7938,465.5938 L317.7938,468.8438 L323.0594,468.8438 L323.0594,471 Z "/><text fill="#000000" font-family="sans-serif" font-size="12" lengthAdjust="spacingAndGlyphs" textLength="27" x="334.05" y="469.656">pens</text><line style="stroke: #A80036; stroke-width: 1.5;" x1="300" x2="368" y1="481" y2="481"/><text fill="#000000" font-family="sans-serif" font-size="11" lengthAdjust="spacingAndGlyphs" textLength="41" x="305" y="496.7589">ver: INT</text><text fill="#000000" font-family="sans-serif" font-size="11" lengthAdjust="spacingAndGlyphs" textLength="58" x="305" y="511.7408">gplfile: STR</text><line style="stroke: #A80036; stroke-width: 1.5;" x1="300" x2="368" y1="518.9638" y2="518.9638"/><!--MD5=[037a9bda7a654a1be6a90ba49edd8f4f]
class palette--><rect fill="#FEFECE" filter="url(#ftkmh0aqzoobv)" height="137.8913" id="palette" style="stroke: #A80036; stroke-width: 1.5;" width="104" x="282" y="15.5"/><ellipse cx="311.85" cy="31.5" fill="#ADD1B2" rx="11" ry="11" style="stroke: #A80036; stroke-width: 1.0;"/><path d="M315.9594,37.5 L308.2406,37.5 L308.2406,25.1094 L315.9594,25.1094 L315.9594,27.2656 L310.6938,27.2656 L310.6938,29.9375 L315.4594,29.9375 L315.4594,32.0938 L310.6938,32.0938 L310.6938,35.3438 L315.9594,35.3438 L315.9594,37.5 Z "/><text fill="#000000" font-family="sans-serif" font-size="12" lengthAdjust="spacingAndGlyphs" textLength="39" x="329.15" y="36.156">palette</text><line style="stroke: #A80036; stroke-width: 1.5;" x1="283" x2="385" y1="47.5" y2="47.5"/><text fill="#000000" font-family="sans-serif" font-size="11" lengthAdjust="spacingAndGlyphs" textLength="66" x="288" y="63.2589">rinkid: CHAR</text><text fill="#000000" font-family="sans-serif" font-size="11" lengthAdjust="spacingAndGlyphs" textLength="52" x="288" y="78.2408">cell: CHAR</text><text fill="#000000" font-family="sans-serif" font-size="11" lengthAdjust="spacingAndGlyphs" textLength="50" x="288" y="93.2227">layer: INT</text><text fill="#000000" font-family="sans-serif" font-size="11" lengthAdjust="spacingAndGlyphs" textLength="41" x="288" y="108.2046">ver: INT</text><text fill="#000000" font-family="sans-serif" font-size="11" lengthAdjust="spacingAndGlyphs" textLength="39" x="288" y="123.1865">fill: HEX</text><text fill="#000000" font-family="sans-serif" font-size="11" lengthAdjust="spacingAndGlyphs" textLength="92" x="288" y="138.1684">opacity: DECIMAL</text><line style="stroke: #A80036; stroke-width: 1.5;" x1="283" x2="385" y1="145.3913" y2="145.3913"/><!--MD5=[7b5b565fe1dbd694c04b99aa32d95775]
class models--><rect fill="#FEFECE" filter="url(#ftkmh0aqzoobv)" height="77.9638" id="models" style="stroke: #A80036; stroke-width: 1.5;" width="73" x="92.5" y="602"/><ellipse cx="107.5" cy="618" fill="#ADD1B2" rx="11" ry="11" style="stroke: #A80036; stroke-width: 1.0;"/><path d="M111.6094,624 L103.8906,624 L103.8906,611.6094 L111.6094,611.6094 L111.6094,613.7656 L106.3438,613.7656 L106.3438,616.4375 L111.1094,616.4375 L111.1094,618.5938 L106.3438,618.5938 L106.3438,621.8438 L111.6094,621.8438 L111.6094,624 Z "/><text fill="#000000" font-family="sans-serif" font-size="12" lengthAdjust="spacingAndGlyphs" textLength="41" x="121.5" y="622.656">models</text><line style="stroke: #A80036; stroke-width: 1.5;" x1="93.5" x2="164.5" y1="634" y2="634"/><text fill="#000000" font-family="sans-serif" font-size="11" lengthAdjust="spacingAndGlyphs" textLength="44" x="98.5" y="649.7589">mid: INT</text><text fill="#000000" font-family="sans-serif" font-size="11" lengthAdjust="spacingAndGlyphs" textLength="58" x="98.5" y="664.7408">model: STR</text><line style="stroke: #A80036; stroke-width: 1.5;" x1="93.5" x2="164.5" y1="671.9638" y2="671.9638"/><!--MD5=[b79a6dbdb435efa72378790761c8d246]
class colors--><rect fill="#FEFECE" filter="url(#ftkmh0aqzoobv)" height="92.9457" id="colors" style="stroke: #A80036; stroke-width: 1.5;" width="73" x="297.5" y="251"/><ellipse cx="315.65" cy="267" fill="#ADD1B2" rx="11" ry="11" style="stroke: #A80036; stroke-width: 1.0;"/><path d="M319.7594,273 L312.0406,273 L312.0406,260.6094 L319.7594,260.6094 L319.7594,262.7656 L314.4938,262.7656 L314.4938,265.4375 L319.2594,265.4375 L319.2594,267.5938 L314.4938,267.5938 L314.4938,270.8438 L319.7594,270.8438 L319.7594,273 Z "/><text fill="#000000" font-family="sans-serif" font-size="12" lengthAdjust="spacingAndGlyphs" textLength="34" x="330.35" y="271.656">colors</text><line style="stroke: #A80036; stroke-width: 1.5;" x1="298.5" x2="369.5" y1="283" y2="283"/><text fill="#000000" font-family="sans-serif" font-size="11" lengthAdjust="spacingAndGlyphs" textLength="41" x="303.5" y="298.7589">ver: INT</text><text fill="#000000" font-family="sans-serif" font-size="11" lengthAdjust="spacingAndGlyphs" textLength="39" x="303.5" y="313.7408">fill: HEX</text><text fill="#000000" font-family="sans-serif" font-size="11" lengthAdjust="spacingAndGlyphs" textLength="61" x="303.5" y="328.7227">penam: STR</text><line style="stroke: #A80036; stroke-width: 1.5;" x1="298.5" x2="369.5" y1="335.9457" y2="335.9457"/><!--MD5=[30121dc86adb6c012bfde2d3b1c7acb1]
class strokes--><rect fill="#FEFECE" filter="url(#ftkmh0aqzoobv)" height="152.8732" id="strokes" style="stroke: #A80036; stroke-width: 1.5;" width="119" x="127.5" y="8"/><ellipse cx="163.2" cy="24" fill="#ADD1B2" rx="11" ry="11" style="stroke: #A80036; stroke-width: 1.0;"/><path d="M167.3094,30 L159.5906,30 L159.5906,17.6094 L167.3094,17.6094 L167.3094,19.7656 L162.0438,19.7656 L162.0438,22.4375 L166.8094,22.4375 L166.8094,24.5938 L162.0438,24.5938 L162.0438,27.8438 L167.3094,27.8438 L167.3094,30 Z "/><text fill="#000000" font-family="sans-serif" font-size="12" lengthAdjust="spacingAndGlyphs" textLength="41" x="181.8" y="28.656">strokes</text><line style="stroke: #A80036; stroke-width: 1.5;" x1="128.5" x2="245.5" y1="40" y2="40"/><text fill="#000000" font-family="sans-serif" font-size="11" lengthAdjust="spacingAndGlyphs" textLength="66" x="133.5" y="55.7589">rinkid: CHAR</text><text fill="#000000" font-family="sans-serif" font-size="11" lengthAdjust="spacingAndGlyphs" textLength="52" x="133.5" y="70.7408">cell: CHAR</text><text fill="#000000" font-family="sans-serif" font-size="11" lengthAdjust="spacingAndGlyphs" textLength="50" x="133.5" y="85.7227">layer: INT</text><text fill="#000000" font-family="sans-serif" font-size="11" lengthAdjust="spacingAndGlyphs" textLength="39" x="133.5" y="100.7046">fill: HEX</text><text fill="#000000" font-family="sans-serif" font-size="11" lengthAdjust="spacingAndGlyphs" textLength="84" x="133.5" y="115.6865">width: DECIMAL</text><text fill="#000000" font-family="sans-serif" font-size="11" lengthAdjust="spacingAndGlyphs" textLength="107" x="133.5" y="130.6684">dasharray: DECIMAL</text><text fill="#000000" font-family="sans-serif" font-size="11" lengthAdjust="spacingAndGlyphs" textLength="92" x="133.5" y="145.6502">opacity: DECIMAL</text><line style="stroke: #A80036; stroke-width: 1.5;" x1="128.5" x2="245.5" y1="152.8732" y2="152.8732"/><!--MD5=[fa15644e1e0a2c1560a3518610537da7]
class rinks--><rect fill="#FEFECE" filter="url(#ftkmh0aqzoobv)" height="152.8732" id="rinks" style="stroke: #A80036; stroke-width: 1.5;" width="97" x="138.5" y="221"/><ellipse cx="170.6" cy="237" fill="#ADD1B2" rx="11" ry="11" style="stroke: #A80036; stroke-width: 1.0;"/><path d="M174.7094,243 L166.9906,243 L166.9906,230.6094 L174.7094,230.6094 L174.7094,232.7656 L169.4438,232.7656 L169.4438,235.4375 L174.2094,235.4375 L174.2094,237.5938 L169.4438,237.5938 L169.4438,240.8438 L174.7094,240.8438 L174.7094,243 Z "/><text fill="#000000" font-family="sans-serif" font-size="12" lengthAdjust="spacingAndGlyphs" textLength="27" x="188.4" y="241.656">rinks</text><line style="stroke: #A80036; stroke-width: 1.5;" x1="139.5" x2="234.5" y1="253" y2="253"/><text fill="#000000" font-family="sans-serif" font-size="11" lengthAdjust="spacingAndGlyphs" textLength="66" x="144.5" y="268.7589">rinkid: CHAR</text><text fill="#000000" font-family="sans-serif" font-size="11" lengthAdjust="spacingAndGlyphs" textLength="45" x="144.5" y="283.7408">mid: STR</text><text fill="#000000" font-family="sans-serif" font-size="11" lengthAdjust="spacingAndGlyphs" textLength="43" x="144.5" y="298.7227">size: INT</text><text fill="#000000" font-family="sans-serif" font-size="11" lengthAdjust="spacingAndGlyphs" textLength="85" x="144.5" y="313.7046">factor: DECIMAL</text><text fill="#000000" font-family="sans-serif" font-size="11" lengthAdjust="spacingAndGlyphs" textLength="72" x="144.5" y="328.6865">created: DATE</text><text fill="#000000" font-family="sans-serif" font-size="11" lengthAdjust="spacingAndGlyphs" textLength="41" x="144.5" y="343.6684">ver: INT</text><text fill="#000000" font-family="sans-serif" font-size="11" lengthAdjust="spacingAndGlyphs" textLength="77" x="144.5" y="358.6502">pubdate: DATE</text><line style="stroke: #A80036; stroke-width: 1.5;" x1="139.5" x2="234.5" y1="365.8732" y2="365.8732"/><!--MD5=[e241285be523e7cc2ef70bd5fbb66f78]
reverse link strokes to rinks--><path d="M187,174.45 C187,189.85 187,205.73 187,220.74 " fill="none" id="strokes&lt;-rinks" style="stroke: #A80036; stroke-width: 1.0;"/><polygon fill="#A80036" points="187,161.08,183,167.08,187,173.08,191,167.08,187,161.08" style="stroke: #A80036; stroke-width: 1.0;"/><!--MD5=[eb86bc81102fc3d1015dcdac53efd68d]
reverse link geometry to rinks--><path d="M99.29,162.4 C112.07,181.93 125.77,202.88 138.46,222.28 " fill="none" id="geometry&lt;-rinks" style="stroke: #A80036; stroke-width: 1.0;"/><polygon fill="#A80036" points="92.1,151.39,92.0341,158.6008,98.6649,161.435,98.7308,154.2242,92.1,151.39" style="stroke: #A80036; stroke-width: 1.0;"/><!--MD5=[48e64d7d767c4d224d00dada2ca6d25f]
reverse link palette to rinks--><path d="M278.92,164.57 C264.69,184.98 249.49,206.81 235.62,226.71 " fill="none" id="palette&lt;-rinks" style="stroke: #A80036; stroke-width: 1.0;"/><polygon fill="#A80036" points="286.48,153.71,279.7692,156.3491,279.6241,163.5587,286.335,160.9196,286.48,153.71" style="stroke: #A80036; stroke-width: 1.0;"/><!--MD5=[1f0dbae719cba117b83826a9e0234b6e]
reverse link rinks to blocks--><path d="M187,387.39 C187,403.33 187,419.48 187,434 " fill="none" id="rinks&lt;-blocks" style="stroke: #A80036; stroke-width: 1.0;"/><polygon fill="#A80036" points="187,374.08,183,380.08,187,386.08,191,380.08,187,374.08" style="stroke: #A80036; stroke-width: 1.0;"/><!--MD5=[fd49ea5dbcb12dcb0d173ad8549d42b6]
reverse link palette to colors--><path d="M334,167.01 C334,195.45 334,226.35 334,250.83 " fill="none" id="palette&lt;-colors" style="stroke: #A80036; stroke-width: 1.0;"/><polygon fill="#A80036" points="334,153.71,330,159.71,334,165.71,338,159.71,334,153.71" style="stroke: #A80036; stroke-width: 1.0;"/><!--MD5=[df7a0e046f8daeb25e11421450e196cf]
reverse link colors to pens--><path d="M334,357.39 C334,387.2 334,422.54 334,448.78 " fill="none" id="colors&lt;-pens" style="stroke: #A80036; stroke-width: 1.0;"/><polygon fill="#A80036" points="334,344.13,330,350.13,334,356.13,338,350.13,334,344.13" style="stroke: #A80036; stroke-width: 1.0;"/><!--MD5=[e8982a3c61972d7a332375e6a8c0360e]
reverse link blocks to models--><path d="M161.85,554.47 C155.63,570.68 149.15,587.53 143.62,601.94 " fill="none" id="blocks&lt;-models" style="stroke: #A80036; stroke-width: 1.0;"/><polygon fill="#A80036" points="166.55,542.24,160.6667,546.4097,162.2529,553.4442,168.1362,549.2745,166.55,542.24" style="stroke: #A80036; stroke-width: 1.0;"/><!--MD5=[e09b97d127677a098a6f10e715cb2f33]
reverse link compass to models--><path d="M96.15,554.47 C102.37,570.68 108.85,587.53 114.38,601.94 " fill="none" id="compass&lt;-models" style="stroke: #A80036; stroke-width: 1.0;"/><polygon fill="#A80036" points="91.45,542.24,89.8638,549.2745,95.7471,553.4442,97.3333,546.4097,91.45,542.24" style="stroke: #A80036; stroke-width: 1.0;"/><!--MD5=[b4426670f1c4401935f9d98a9be60509]
@startuml


entity blocks {
  mid: STR 
  position: INT
  cell: CHAR 
  top: BOOL
}
entity compass {
  mid: STR 
  cell: CHAR
  pair: CHAR
  facing: STR
}
entity geometry {
  rinkid: CHAR
  cell: CHAR
  layer: INT
  name: STR
  size: STR
  facing: CHAR
}
entity pens {
 ver: INT
 gplfile: STR
}
entity palette {
  rinkid: CHAR
  cell: CHAR
  layer: INT
  ver: INT
  fill: HEX
  opacity: DECIMAL
}
entity models {
  mid: INT
  model: STR
}
entity colors {
  ver: INT
  fill: HEX
  penam: STR
}
entity strokes {
  rinkid: CHAR
  cell: CHAR
  layer: INT
  fill: HEX
  width: DECIMAL
  dasharray: DECIMAL
  opacity: DECIMAL
}
entity rinks {
  rinkid: CHAR
  mid: STR
  size: INT
  factor: DECIMAL
  created: DATE
  ver: INT
  pubdate: DATE
}


strokes *- - rinks
geometry *- - rinks
palette *- - rinks
rinks *- - blocks
palette *- - colors
colors *- - pens
blocks *- - models
compass *- - models

@enduml

PlantUML version 1.2020.02(Sun Mar 01 11:22:07 CET 2020)
(GPL source distribution)
Java Runtime: OpenJDK Runtime Environment
JVM: OpenJDK 64-Bit Server VM
Java Version: 21.0.9+10-Ubuntu-124.04
Operating System: Linux
Default Encoding: UTF-8
Language: en
Country: US
--></g></svg>