<svg xmlns="http://www.w3.org/2000/svg" xmlns:xlink="http://www.w3.org/1999/xlink" contentStyleType="text/css" data-diagram-type="CHEN_EER" height="247px" preserveAspectRatio="none" style="width:3126px;height:247px;background:#FFFFFF;" version="1.1" viewBox="0 0 3126 247" width="3126px" zoomAndPan="magnify"><defs/><g><g id="colours"><rect fill="#F1F1F1" height="39.0679" style="stroke:#181818;stroke-width:0.5;" width="68.4118" x="12.5" y="102"/><text fill="#000000" font-family="sans-serif" font-size="14" lengthAdjust="spacing" textLength="48.4118" x="22.5" y="126.9659">colours</text></g><g id="colours/fill : HEX"><ellipse cx="46.509" cy="23.4831" fill="#F1F1F1" rx="40.509" ry="16.4831" style="stroke:#181818;stroke-width:0.5;"/><text fill="#000000" font-family="sans-serif" font-size="14" lengthAdjust="spacing" textLength="53.0458" x="19.9861" y="27.9659">fill : HEX</text></g><g id="inkpal"><rect fill="#F1F1F1" height="39.0679" style="stroke:#181818;stroke-width:0.5;" width="59.8158" x="203.5" y="202"/><text fill="#000000" font-family="sans-serif" font-size="14" lengthAdjust="spacing" textLength="39.8158" x="213.5" y="226.9659">inkpal</text></g><g id="inkpal/ver: INT"><ellipse cx="233.3112" cy="121.4831" fill="#F1F1F1" rx="39.3112" ry="16.4831" style="stroke:#181818;stroke-width:0.5;"/><text fill="#000000" font-family="sans-serif" font-size="14" lengthAdjust="spacing" textLength="51.3518" x="207.6353" y="125.9659">ver: INT</text></g><g id="inkpal/gplfile: STR"><ellipse cx="362.6505" cy="121.4831" fill="#F1F1F1" rx="54.1505" ry="16.4831" style="stroke:#181818;stroke-width:0.5;"/><text fill="#000000" font-family="sans-serif" font-size="14" lengthAdjust="spacing" textLength="72.3377" x="326.4816" y="125.9659">gplfile: STR</text></g><g id="palette"><rect fill="#F1F1F1" height="39.0679" style="stroke:#181818;stroke-width:0.5;" width="65.9758" x="1452.5" y="202"/><text fill="#000000" font-family="sans-serif" font-size="14" lengthAdjust="spacing" textLength="45.9758" x="1462.5" y="226.9659">palette</text></g><g id="palette/pid: INT"><ellipse cx="1863.3409" cy="121.4831" fill="#F1F1F1" rx="39.3409" ry="16.4831" style="stroke:#181818;stroke-width:0.5;"/><text fill="#000000" font-family="sans-serif" font-size="14" lengthAdjust="spacing" textLength="51.3938" x="1837.644" y="125.9659">pid: INT</text></g><g id="palette/ver: INT"><ellipse cx="1026.3112" cy="121.4831" fill="#F1F1F1" rx="39.3112" ry="16.4831" style="stroke:#181818;stroke-width:0.5;"/><text fill="#000000" font-family="sans-serif" font-size="14" lengthAdjust="spacing" textLength="51.3518" x="1000.6353" y="125.9659">ver: INT</text></g><g id="palette/fill: HEX"><ellipse cx="1139.4352" cy="121.4831" fill="#F1F1F1" rx="37.9352" ry="16.4831" style="stroke:#181818;stroke-width:0.5;"/><text fill="#000000" font-family="sans-serif" font-size="14" lengthAdjust="spacing" textLength="49.4058" x="1114.7323" y="125.9659">fill: HEX</text></g><g id="palette/bg: HEX:"><ellipse cx="1254.697" cy="121.4831" fill="#F1F1F1" rx="41.697" ry="16.4831" style="stroke:#181818;stroke-width:0.5;"/><text fill="#000000" font-family="sans-serif" font-size="14" lengthAdjust="spacing" textLength="54.7258" x="1227.3341" y="125.9659">bg: HEX:</text></g><g id="palette/opacity: FLOAT"><ellipse cx="1402.5468" cy="121.6094" fill="#F1F1F1" rx="71.0468" ry="16.6094" style="stroke:#181818;stroke-width:0.5;"/><text fill="#000000" font-family="sans-serif" font-size="14" lengthAdjust="spacing" textLength="97.1176" x="1353.988" y="125.9659">opacity: FLOAT</text></g><g id="palette/relation: INT"><ellipse cx="1569.6247" cy="121.4831" fill="#F1F1F1" rx="60.6247" ry="16.4831" style="stroke:#181818;stroke-width:0.5;"/><text fill="#000000" font-family="sans-serif" font-size="14" lengthAdjust="spacing" textLength="81.4937" x="1528.8779" y="125.9659">relation: INT</text></g><g id="cells"><rect fill="#F1F1F1" height="39.0679" style="stroke:#181818;stroke-width:0.5;" width="48.5459" x="2100" y="202"/><text fill="#000000" font-family="sans-serif" font-size="14" lengthAdjust="spacing" textLength="28.5459" x="2110" y="226.9659">cells</text></g><g id="cells/pid: INT"><ellipse cx="2249.3409" cy="121.4831" fill="#F1F1F1" rx="39.3409" ry="16.4831" style="stroke:#181818;stroke-width:0.5;"/><text fill="#000000" font-family="sans-serif" font-size="14" lengthAdjust="spacing" textLength="51.3938" x="2223.644" y="125.9659">pid: INT</text></g><g id="cells/sid: INT"><ellipse cx="1976.4946" cy="121.4831" fill="#F1F1F1" rx="37.9946" ry="16.4831" style="stroke:#181818;stroke-width:0.5;"/><text fill="#000000" font-family="sans-serif" font-size="14" lengthAdjust="spacing" textLength="49.4898" x="1951.7497" y="125.9659">sid: INT</text></g><g id="pens"><rect fill="#F1F1F1" height="39.0679" style="stroke:#181818;stroke-width:0.5;" width="51.8639" x="709.5" y="202"/><text fill="#000000" font-family="sans-serif" font-size="14" lengthAdjust="spacing" textLength="31.8639" x="719.5" y="226.9659">pens</text></g><g id="pens/ver: INT"><ellipse cx="491.3112" cy="121.4831" fill="#F1F1F1" rx="39.3112" ry="16.4831" style="stroke:#181818;stroke-width:0.5;"/><text fill="#000000" font-family="sans-serif" font-size="14" lengthAdjust="spacing" textLength="51.3518" x="465.6353" y="125.9659">ver: INT</text></g><g id="pens/fill: HEX"><ellipse cx="604.4352" cy="121.4831" fill="#F1F1F1" rx="37.9352" ry="16.4831" style="stroke:#181818;stroke-width:0.5;"/><text fill="#000000" font-family="sans-serif" font-size="14" lengthAdjust="spacing" textLength="49.4058" x="579.7323" y="125.9659">fill: HEX</text></g><g id="pens/penam: STR"><ellipse cx="735.4222" cy="121.4831" fill="#F1F1F1" rx="57.9222" ry="16.4831" style="stroke:#181818;stroke-width:0.5;"/><text fill="#000000" font-family="sans-serif" font-size="14" lengthAdjust="spacing" textLength="77.6717" x="696.5863" y="125.9659">penam: STR</text></g><g id="strokes"><rect fill="#F1F1F1" height="39.0679" style="stroke:#181818;stroke-width:0.5;" width="68.0898" x="2734.5" y="202"/><text fill="#000000" font-family="sans-serif" font-size="14" lengthAdjust="spacing" textLength="48.0898" x="2744.5" y="226.9659">strokes</text></g><g id="strokes/sid: INT"><ellipse cx="3082.4946" cy="121.4831" fill="#F1F1F1" rx="37.9946" ry="16.4831" style="stroke:#181818;stroke-width:0.5;"/><text fill="#000000" font-family="sans-serif" font-size="14" lengthAdjust="spacing" textLength="49.4898" x="3057.7497" y="125.9659">sid: INT</text></g><g id="strokes/fill: HEX"><ellipse cx="2362.4352" cy="121.4831" fill="#F1F1F1" rx="37.9352" ry="16.4831" style="stroke:#181818;stroke-width:0.5;"/><text fill="#000000" font-family="sans-serif" font-size="14" lengthAdjust="spacing" textLength="49.4058" x="2337.7323" y="125.9659">fill: HEX</text></g><g id="strokes/width: FLOAT"><ellipse cx="2499.7281" cy="121.4831" fill="#F1F1F1" rx="64.2281" ry="16.4831" style="stroke:#181818;stroke-width:0.5;"/><text fill="#000000" font-family="sans-serif" font-size="14" lengthAdjust="spacing" textLength="86.5897" x="2456.4333" y="125.9659">width: FLOAT</text></g><g id="strokes/dasharray: FLOAT"><ellipse cx="2676.5341" cy="121.5068" fill="#F1F1F1" rx="78.0341" ry="18.0068" style="stroke:#181818;stroke-width:0.5;"/><text fill="#000000" font-family="sans-serif" font-size="14" lengthAdjust="spacing" textLength="115.8916" x="2618.5884" y="124.4659">dasharray: FLOAT</text></g><g id="strokes/opacity: FLOAT"><ellipse cx="2860.5468" cy="121.6094" fill="#F1F1F1" rx="71.0468" ry="16.6094" style="stroke:#181818;stroke-width:0.5;"/><text fill="#000000" font-family="sans-serif" font-size="14" lengthAdjust="spacing" textLength="97.1176" x="2811.988" y="125.9659">opacity: FLOAT</text></g><g id="A"><polygon fill="#F1F1F1" points="1091,23.3606,1125.7212,6,1160.4425,23.3606,1125.7212,40.7212" style="stroke:#181818;stroke-width:0.5;"/><text fill="#000000" font-family="sans-serif" font-size="14" lengthAdjust="spacing" textLength="8.946" x="1121.2483" y="28.7926">A</text></g><g id="B"><polygon fill="#F1F1F1" points="1897.5,23.3991,1932.2982,6,1967.0965,23.3991,1932.2982,40.7982" style="stroke:#181818;stroke-width:0.5;"/><text fill="#000000" font-family="sans-serif" font-size="14" lengthAdjust="spacing" textLength="9.1" x="1927.7483" y="28.8311">B</text></g><g id="C"><polygon fill="#F1F1F1" points="2549,23.3361,2583.6722,6,2618.3445,23.3361,2583.6722,40.6722" style="stroke:#181818;stroke-width:0.5;"/><text fill="#000000" font-family="sans-serif" font-size="14" lengthAdjust="spacing" textLength="8.848" x="2579.2483" y="28.7681">C</text></g><g id="D"><polygon fill="#F1F1F1" points="645,23.6791,680.3582,6,715.7165,23.6791,680.3582,41.3582" style="stroke:#181818;stroke-width:0.5;"/><text fill="#000000" font-family="sans-serif" font-size="14" lengthAdjust="spacing" textLength="10.22" x="675.2483" y="29.1111">D</text></g><!--link colours/fill : HEX to colours--><g id="link_colours/fill : HEX_colours"><path d="M46.5,40.35 C46.5,57.29 46.5,84.1 46.5,101.99 " fill="transparent" id="colours/fill : HEX-colours" style="stroke:#181818;stroke-width:1;"/></g><!--link inkpal/ver: INT to inkpal--><g id="link_inkpal/ver: INT_inkpal"><path d="M233.5,138.25 C233.5,155.56 233.5,183.36 233.5,201.78 " fill="transparent" id="inkpal/ver: INT-inkpal" style="stroke:#181818;stroke-width:1;"/></g><!--link inkpal/gplfile: STR to inkpal--><g id="link_inkpal/gplfile: STR_inkpal"><path d="M343.47,136.96 C320.76,154.21 282.75,183.08 257.91,201.96 " fill="transparent" id="inkpal/gplfile: STR-inkpal" style="stroke:#181818;stroke-width:1;"/></g><!--link palette/pid: INT to palette--><g id="link_palette/pid: INT_palette"><path d="M1850.6,137.62 C1839.97,149.01 1823.87,163.98 1806.5,172 C1709.02,217.01 1578.86,221.89 1518.64,221.44 " fill="transparent" id="palette/pid: INT-palette" style="stroke:#181818;stroke-width:1;"/></g><!--link palette/ver: INT to palette--><g id="link_palette/ver: INT_palette"><path d="M1055.59,132.68 C1064.49,135.59 1074.34,138.62 1083.5,141 C1218.79,176.2 1383.24,204.2 1452.37,215.32 " fill="transparent" id="palette/ver: INT-palette" style="stroke:#181818;stroke-width:1;"/></g><!--link palette/fill: HEX to palette--><g id="link_palette/fill: HEX_palette"><path d="M1168.47,132.39 C1177.14,135.26 1186.68,138.34 1195.5,141 C1287.95,168.92 1398.23,198.01 1452.29,211.99 " fill="transparent" id="palette/fill: HEX-palette" style="stroke:#181818;stroke-width:1;"/></g><!--link palette/bg: HEX: to palette--><g id="link_palette/bg: HEX:_palette"><path d="M1281.91,134.13 C1324.45,152.18 1406.26,186.88 1452.17,206.36 " fill="transparent" id="palette/bg: HEX:-palette" style="stroke:#181818;stroke-width:1;"/></g><!--link palette/opacity: FLOAT to palette--><g id="link_palette/opacity: FLOAT_palette"><path d="M1415.47,137.81 C1430.15,155.15 1454.06,183.38 1469.79,201.95 " fill="transparent" id="palette/opacity: FLOAT-palette" style="stroke:#181818;stroke-width:1;"/></g><!--link palette/relation: INT to palette--><g id="link_palette/relation: INT_palette"><path d="M1556.38,137.81 C1541.52,155.15 1517.31,183.38 1501.4,201.95 " fill="transparent" id="palette/relation: INT-palette" style="stroke:#181818;stroke-width:1;"/></g><!--link cells/pid: INT to cells--><g id="link_cells/pid: INT_cells"><path d="M2233.2,136.66 C2221.49,146.72 2205.22,160.44 2190.5,172 C2177.08,182.54 2161.74,193.86 2149.23,202.9 " fill="transparent" id="cells/pid: INT-cells" style="stroke:#181818;stroke-width:1;"/></g><!--link cells/sid: INT to cells--><g id="link_cells/sid: INT_cells"><path d="M1996.46,135.72 C2023.29,153.48 2070.95,185.04 2099.94,204.24 " fill="transparent" id="cells/sid: INT-cells" style="stroke:#181818;stroke-width:1;"/></g><!--link pens/ver: INT to pens--><g id="link_pens/ver: INT_pens"><path d="M519.02,133.55 C566.38,152.57 662.68,191.25 709.2,209.94 " fill="transparent" id="pens/ver: INT-pens" style="stroke:#181818;stroke-width:1;"/></g><!--link pens/fill: HEX to pens--><g id="link_pens/fill: HEX_pens"><path d="M622.71,136.13 C645.63,153.27 685.09,182.79 710.73,201.97 " fill="transparent" id="pens/fill: HEX-pens" style="stroke:#181818;stroke-width:1;"/></g><!--link pens/penam: STR to pens--><g id="link_pens/penam: STR_pens"><path d="M735.5,138.25 C735.5,155.56 735.5,183.36 735.5,201.78 " fill="transparent" id="pens/penam: STR-pens" style="stroke:#181818;stroke-width:1;"/></g><!--link strokes/sid: INT to strokes--><g id="link_strokes/sid: INT_strokes"><path d="M3070.08,137.46 C3059.84,148.76 3044.31,163.69 3027.5,172 C2953.06,208.78 2853.99,217.79 2802.63,219.91 " fill="transparent" id="strokes/sid: INT-strokes" style="stroke:#181818;stroke-width:1;"/></g><!--link strokes/fill: HEX to strokes--><g id="link_strokes/fill: HEX_strokes"><path d="M2391.11,132.54 C2399.85,135.44 2409.52,138.5 2418.5,141 C2533.16,172.88 2671.56,201.45 2734.44,213.89 " fill="transparent" id="strokes/fill: HEX-strokes" style="stroke:#181818;stroke-width:1;"/></g><!--link strokes/width: FLOAT to strokes--><g id="link_strokes/width: FLOAT_strokes"><path d="M2534.67,135.31 C2586.51,154.2 2682.82,189.29 2734.17,207.99 " fill="transparent" id="strokes/width: FLOAT-strokes" style="stroke:#181818;stroke-width:1;"/></g><!--link strokes/dasharray: FLOAT to strokes--><g id="link_strokes/dasharray: FLOAT_strokes"><path d="M2692.53,139.57 C2708.9,157.01 2734.24,184 2751.09,201.96 " fill="transparent" id="strokes/dasharray: FLOAT-strokes" style="stroke:#181818;stroke-width:1;"/></g><!--link strokes/opacity: FLOAT to strokes--><g id="link_strokes/opacity: FLOAT_strokes"><path d="M2846.12,137.81 C2829.85,155.15 2803.34,183.38 2785.91,201.95 " fill="transparent" id="strokes/opacity: FLOAT-strokes" style="stroke:#181818;stroke-width:1;"/></g><!--link A to pens--><g id="link_A_pens"><path d="M1108.15,32.41 C1078.1,46.18 1014.49,75.6 961.5,102 C888.54,138.35 803.71,183.66 761.76,206.28 " fill="transparent" id="A-pens" style="stroke:#181818;stroke-width:1;"/><text fill="#000000" font-family="sans-serif" font-size="11" lengthAdjust="spacing" textLength="6.2919" x="962.5" y="126.2589">1</text></g><!--link A to palette--><g id="link_A_palette"><path d="M1158.97,24.07 C1263.97,23.52 1583.7,28.03 1647.5,102 C1691.31,152.8 1577.63,194.2 1518.54,211.62 " fill="transparent" id="A-palette" style="stroke:#181818;stroke-width:1;"/><text fill="#000000" font-family="sans-serif" font-size="11" lengthAdjust="spacing" textLength="8.3599" x="1658.5" y="126.2589">N</text></g><!--link B to palette--><g id="link_B_palette"><path d="M1917.34,33.49 C1875.24,58.18 1752.81,128.15 1644.5,172 C1602.1,189.17 1551.25,203.67 1518.67,212.22 " fill="transparent" id="B-palette" style="stroke:#181818;stroke-width:1;"/><text fill="#000000" font-family="sans-serif" font-size="11" lengthAdjust="spacing" textLength="6.2919" x="1794.5" y="126.2589">1</text></g><!--link B to cells--><g id="link_B_cells"><path d="M1946.82,34.05 C1966.89,47.8 2004.01,74.54 2031.5,102 C2063.7,134.16 2095.09,177.34 2111.9,201.71 " fill="transparent" id="B-cells" style="stroke:#181818;stroke-width:1;"/><text fill="#000000" font-family="sans-serif" font-size="11" lengthAdjust="spacing" textLength="8.3599" x="2067.5" y="126.2589">N</text></g><!--link C to strokes--><g id="link_C_strokes"><path d="M2613.08,26.14 C2692.45,31.2 2907.02,49.58 2949.5,102 C2995.5,158.75 2867.12,197.67 2802.78,213.1 " fill="transparent" id="C-strokes" style="stroke:#181818;stroke-width:1;"/><text fill="#000000" font-family="sans-serif" font-size="11" lengthAdjust="spacing" textLength="6.2919" x="2959.5" y="126.2589">1</text></g><!--link C to cells--><g id="link_C_cells"><path d="M2555.04,26.72 C2473.58,33.59 2241.62,56.75 2182.5,102 C2149.76,127.06 2134.39,175.46 2128.14,201.99 " fill="transparent" id="C-cells" style="stroke:#181818;stroke-width:1;"/><text fill="#000000" font-family="sans-serif" font-size="11" lengthAdjust="spacing" textLength="8.3599" x="2183.5" y="126.2589">N</text></g><!--link D to inkpal--><g id="link_D_inkpal"><path d="M646.2,24.18 C541.72,24 230.71,29.66 168.5,102 C141.72,133.13 181.93,177.08 210.05,201.77 " fill="transparent" id="D-inkpal" style="stroke:#181818;stroke-width:1;"/><text fill="#000000" font-family="sans-serif" font-size="11" lengthAdjust="spacing" textLength="6.2919" x="169.5" y="126.2589">1</text></g><!--link D to pens--><g id="link_D_pens"><path d="M702.4,30.22 C732.97,39.51 787.27,61.1 810.5,102 C831.06,138.2 790.69,178.91 761.62,201.96 " fill="transparent" id="D-pens" style="stroke:#181818;stroke-width:1;"/><text fill="#000000" font-family="sans-serif" font-size="11" lengthAdjust="spacing" textLength="8.3599" x="817.5" y="126.2589">N</text></g><!--SRC=[RP9FKy8m4CNl-HHxb4CT456d9sWBAF9lj3fUGnjAXf1saXJ7SVZkRb9AWV6MP7_lxKkoVMseCic6IKAODDpyG9ABl5GQVWcikH3Wm_FmYnpgCfVRWWfRtJFbmyiy9f0L0b7cmtlyrf28CMEOHGkU7j56PCqhRrXbRk4Jo0kQeDQ7qNGnG4WnGGtFPQKvMITC29Vmp1bqlMmICAalavurnIBTNKNMHkLRvZGdjtFDDq_DvXGkfNf3bQ9DtAlu1qBg2-WDBs20nWSo0A_ZkMnsEVVgXxfa0yS65Ni40eUxor_2eOD31n_lO7V_mv638mTNlsatysCaqcSohGPYAQWq7xEfVJ-DQkZSthNlUhVjcxXaCA4Ise_GUVAxFR_x0E4m1bjkaPlnSWeQXoXXa7BCmrUbxTuY4xgdy5RYO-zmMXROS1AzrWSmb7kkShd3po2Jpra3FDnx0JVmpXGcWSyPYTYQbiAW8ibJBd5yFkAHzqIcL6ObpT0RyuSv-YhyZ77m1m00]--></g></svg>