<?xml version="1.0" encoding="UTF-8" standalone="no"?><svg xmlns="http://www.w3.org/2000/svg" xmlns:xlink="http://www.w3.org/1999/xlink" contentScriptType="application/ecmascript" contentStyleType="text/css" height="966px" preserveAspectRatio="none" style="width:423px;height:966px;" version="1.1" viewBox="0 0 423 966" width="423px" zoomAndPan="magnify"><defs><filter height="300%" id="fv91q16cfqxrh" width="300%" x="-1" y="-1"><feGaussianBlur result="blurOut" stdDeviation="2.0"/><feColorMatrix in="blurOut" result="blurOut2" type="matrix" values="0 0 0 0 0 0 0 0 0 0 0 0 0 0 0 0 0 0 .4 0"/><feOffset dx="4.0" dy="4.0" in="blurOut2" result="blurOut3"/><feBlend in="SourceGraphic" in2="blurOut3" mode="normal"/></filter></defs><g><!--MD5=[5d4cd377749310b66bf14896f5cd8d9b]
cluster model--><polygon fill="#FFFFFF" filter="url(#fv91q16cfqxrh)" points="22,654,72,654,79,679.0679,401,679.0679,401,954,22,954,22,654" style="stroke: #000000; stroke-width: 1.5;"/><line style="stroke: #000000; stroke-width: 1.5;" x1="22" x2="79" y1="679.0679" y2="679.0679"/><text fill="#000000" font-family="sans-serif" font-size="14" font-weight="bold" lengthAdjust="spacingAndGlyphs" textLength="44" x="26" y="670.9659">model</text><!--MD5=[14d234a86bbecd8e03c4419937e916f8]
cluster block--><polygon fill="#FFFFFF" filter="url(#fv91q16cfqxrh)" points="165,270,209,270,216,295.0679,293,295.0679,293,630,165,630,165,270" style="stroke: #000000; stroke-width: 1.5;"/><line style="stroke: #000000; stroke-width: 1.5;" x1="165" x2="216" y1="295.0679" y2="295.0679"/><text fill="#000000" font-family="sans-serif" font-size="14" font-weight="bold" lengthAdjust="spacingAndGlyphs" textLength="38" x="169" y="286.9659">block</text><!--MD5=[475d7e31ae450c1f0e9380770a86aa35]
cluster cell--><polygon fill="#FFFFFF" filter="url(#fv91q16cfqxrh)" points="169,24,198,24,205,49.0679,289,49.0679,289,246,169,246,169,24" style="stroke: #000000; stroke-width: 1.5;"/><line style="stroke: #000000; stroke-width: 1.5;" x1="169" x2="205" y1="49.0679" y2="49.0679"/><text fill="#000000" font-family="sans-serif" font-size="14" font-weight="bold" lengthAdjust="spacingAndGlyphs" textLength="23" x="173" y="40.9659">cell</text><!--MD5=[88f1ac8e490d8eb58ba4a1e36b745320]
class pens--><rect fill="#FEFECE" filter="url(#fv91q16cfqxrh)" height="92.9457" id="pens" style="stroke: #A80036; stroke-width: 1.5;" width="116" x="155" y="699.5"/><ellipse cx="195.65" cy="715.5" fill="#ADD1B2" rx="11" ry="11" style="stroke: #A80036; stroke-width: 1.0;"/><path d="M199.7594,721.5 L192.0406,721.5 L192.0406,709.1094 L199.7594,709.1094 L199.7594,711.2656 L194.4938,711.2656 L194.4938,713.9375 L199.2594,713.9375 L199.2594,716.0938 L194.4938,716.0938 L194.4938,719.3438 L199.7594,719.3438 L199.7594,721.5 Z "/><text fill="#000000" font-family="sans-serif" font-size="12" lengthAdjust="spacingAndGlyphs" textLength="27" x="215.35" y="720.156">pens</text><line style="stroke: #A80036; stroke-width: 1.5;" x1="156" x2="270" y1="731.5" y2="731.5"/><text fill="#000000" font-family="sans-serif" font-size="11" lengthAdjust="spacingAndGlyphs" textLength="41" x="161" y="747.2589">ver: INT</text><text fill="#000000" font-family="sans-serif" font-size="11" lengthAdjust="spacingAndGlyphs" textLength="58" x="161" y="762.2408">gplfile: STR</text><text fill="#000000" font-family="sans-serif" font-size="11" lengthAdjust="spacingAndGlyphs" textLength="104" x="161" y="777.2227">widthmm: DECIMAL</text><line style="stroke: #A80036; stroke-width: 1.5;" x1="156" x2="270" y1="784.4457" y2="784.4457"/><!--MD5=[7b5b565fe1dbd694c04b99aa32d95775]
class models--><rect fill="#FEFECE" filter="url(#fv91q16cfqxrh)" height="77.9638" id="models" style="stroke: #A80036; stroke-width: 1.5;" width="73" x="175.5" y="860"/><ellipse cx="190.5" cy="876" fill="#ADD1B2" rx="11" ry="11" style="stroke: #A80036; stroke-width: 1.0;"/><path d="M194.6094,882 L186.8906,882 L186.8906,869.6094 L194.6094,869.6094 L194.6094,871.7656 L189.3438,871.7656 L189.3438,874.4375 L194.1094,874.4375 L194.1094,876.5938 L189.3438,876.5938 L189.3438,879.8438 L194.6094,879.8438 L194.6094,882 Z "/><text fill="#000000" font-family="sans-serif" font-size="12" lengthAdjust="spacingAndGlyphs" textLength="41" x="204.5" y="880.656">models</text><line style="stroke: #A80036; stroke-width: 1.5;" x1="176.5" x2="247.5" y1="892" y2="892"/><text fill="#000000" font-family="sans-serif" font-size="11" lengthAdjust="spacingAndGlyphs" textLength="44" x="181.5" y="907.7589">mid: INT</text><text fill="#000000" font-family="sans-serif" font-size="11" lengthAdjust="spacingAndGlyphs" textLength="58" x="181.5" y="922.7408">model: STR</text><line style="stroke: #A80036; stroke-width: 1.5;" x1="176.5" x2="247.5" y1="929.9638" y2="929.9638"/><!--MD5=[d1aca5112466275106e9a5da8befcbb3]
class blocks--><rect fill="#FEFECE" filter="url(#fv91q16cfqxrh)" height="107.9276" id="blocks" style="stroke: #A80036; stroke-width: 1.5;" width="79" x="306.5" y="692"/><ellipse cx="326.9" cy="708" fill="#ADD1B2" rx="11" ry="11" style="stroke: #A80036; stroke-width: 1.0;"/><path d="M331.0094,714 L323.2906,714 L323.2906,701.6094 L331.0094,701.6094 L331.0094,703.7656 L325.7438,703.7656 L325.7438,706.4375 L330.5094,706.4375 L330.5094,708.5938 L325.7438,708.5938 L325.7438,711.8438 L331.0094,711.8438 L331.0094,714 Z "/><text fill="#000000" font-family="sans-serif" font-size="12" lengthAdjust="spacingAndGlyphs" textLength="35" x="342.1" y="712.656">blocks</text><line style="stroke: #A80036; stroke-width: 1.5;" x1="307.5" x2="384.5" y1="724" y2="724"/><text fill="#000000" font-family="sans-serif" font-size="11" lengthAdjust="spacingAndGlyphs" textLength="45" x="312.5" y="739.7589">mid: STR</text><text fill="#000000" font-family="sans-serif" font-size="11" lengthAdjust="spacingAndGlyphs" textLength="67" x="312.5" y="754.7408">position: INT</text><text fill="#000000" font-family="sans-serif" font-size="11" lengthAdjust="spacingAndGlyphs" textLength="52" x="312.5" y="769.7227">cell: CHAR</text><text fill="#000000" font-family="sans-serif" font-size="11" lengthAdjust="spacingAndGlyphs" textLength="55" x="312.5" y="784.7046">top: BOOL</text><line style="stroke: #A80036; stroke-width: 1.5;" x1="307.5" x2="384.5" y1="791.9276" y2="791.9276"/><!--MD5=[0f46d268803bfed1d658af1f363ac1ff]
class compass--><rect fill="#FEFECE" filter="url(#fv91q16cfqxrh)" height="107.9276" id="compass" style="stroke: #A80036; stroke-width: 1.5;" width="82" x="38" y="692"/><ellipse cx="53" cy="708" fill="#ADD1B2" rx="11" ry="11" style="stroke: #A80036; stroke-width: 1.0;"/><path d="M57.1094,714 L49.3906,714 L49.3906,701.6094 L57.1094,701.6094 L57.1094,703.7656 L51.8438,703.7656 L51.8438,706.4375 L56.6094,706.4375 L56.6094,708.5938 L51.8438,708.5938 L51.8438,711.8438 L57.1094,711.8438 L57.1094,714 Z "/><text fill="#000000" font-family="sans-serif" font-size="12" lengthAdjust="spacingAndGlyphs" textLength="50" x="67" y="712.656">compass</text><line style="stroke: #A80036; stroke-width: 1.5;" x1="39" x2="119" y1="724" y2="724"/><text fill="#000000" font-family="sans-serif" font-size="11" lengthAdjust="spacingAndGlyphs" textLength="45" x="44" y="739.7589">mid: STR</text><text fill="#000000" font-family="sans-serif" font-size="11" lengthAdjust="spacingAndGlyphs" textLength="52" x="44" y="754.7408">cell: CHAR</text><text fill="#000000" font-family="sans-serif" font-size="11" lengthAdjust="spacingAndGlyphs" textLength="56" x="44" y="769.7227">pair: CHAR</text><text fill="#000000" font-family="sans-serif" font-size="11" lengthAdjust="spacingAndGlyphs" textLength="57" x="44" y="784.7046">facing: STR</text><line style="stroke: #A80036; stroke-width: 1.5;" x1="39" x2="119" y1="791.9276" y2="791.9276"/><!--MD5=[b79a6dbdb435efa72378790761c8d246]
class colors--><rect fill="#FEFECE" filter="url(#fv91q16cfqxrh)" height="92.9457" id="colors" style="stroke: #A80036; stroke-width: 1.5;" width="73" x="187.5" y="521"/><ellipse cx="205.65" cy="537" fill="#ADD1B2" rx="11" ry="11" style="stroke: #A80036; stroke-width: 1.0;"/><path d="M209.7594,543 L202.0406,543 L202.0406,530.6094 L209.7594,530.6094 L209.7594,532.7656 L204.4938,532.7656 L204.4938,535.4375 L209.2594,535.4375 L209.2594,537.5938 L204.4938,537.5938 L204.4938,540.8438 L209.7594,540.8438 L209.7594,543 Z "/><text fill="#000000" font-family="sans-serif" font-size="12" lengthAdjust="spacingAndGlyphs" textLength="34" x="220.35" y="541.656">colors</text><line style="stroke: #A80036; stroke-width: 1.5;" x1="188.5" x2="259.5" y1="553" y2="553"/><text fill="#000000" font-family="sans-serif" font-size="11" lengthAdjust="spacingAndGlyphs" textLength="41" x="193.5" y="568.7589">ver: INT</text><text fill="#000000" font-family="sans-serif" font-size="11" lengthAdjust="spacingAndGlyphs" textLength="39" x="193.5" y="583.7408">fill: HEX</text><text fill="#000000" font-family="sans-serif" font-size="11" lengthAdjust="spacingAndGlyphs" textLength="61" x="193.5" y="598.7227">penam: STR</text><line style="stroke: #A80036; stroke-width: 1.5;" x1="188.5" x2="259.5" y1="605.9457" y2="605.9457"/><!--MD5=[fa15644e1e0a2c1560a3518610537da7]
class rinks--><rect fill="#FEFECE" filter="url(#fv91q16cfqxrh)" height="152.8732" id="rinks" style="stroke: #A80036; stroke-width: 1.5;" width="97" x="180.5" y="308"/><ellipse cx="212.6" cy="324" fill="#ADD1B2" rx="11" ry="11" style="stroke: #A80036; stroke-width: 1.0;"/><path d="M216.7094,330 L208.9906,330 L208.9906,317.6094 L216.7094,317.6094 L216.7094,319.7656 L211.4438,319.7656 L211.4438,322.4375 L216.2094,322.4375 L216.2094,324.5938 L211.4438,324.5938 L211.4438,327.8438 L216.7094,327.8438 L216.7094,330 Z "/><text fill="#000000" font-family="sans-serif" font-size="12" lengthAdjust="spacingAndGlyphs" textLength="27" x="230.4" y="328.656">rinks</text><line style="stroke: #A80036; stroke-width: 1.5;" x1="181.5" x2="276.5" y1="340" y2="340"/><text fill="#000000" font-family="sans-serif" font-size="11" lengthAdjust="spacingAndGlyphs" textLength="66" x="186.5" y="355.7589">rinkid: CHAR</text><text fill="#000000" font-family="sans-serif" font-size="11" lengthAdjust="spacingAndGlyphs" textLength="45" x="186.5" y="370.7408">mid: STR</text><text fill="#000000" font-family="sans-serif" font-size="11" lengthAdjust="spacingAndGlyphs" textLength="43" x="186.5" y="385.7227">size: INT</text><text fill="#000000" font-family="sans-serif" font-size="11" lengthAdjust="spacingAndGlyphs" textLength="85" x="186.5" y="400.7046">factor: DECIMAL</text><text fill="#000000" font-family="sans-serif" font-size="11" lengthAdjust="spacingAndGlyphs" textLength="72" x="186.5" y="415.6865">created: DATE</text><text fill="#000000" font-family="sans-serif" font-size="11" lengthAdjust="spacingAndGlyphs" textLength="41" x="186.5" y="430.6684">ver: INT</text><text fill="#000000" font-family="sans-serif" font-size="11" lengthAdjust="spacingAndGlyphs" textLength="77" x="186.5" y="445.6502">pubdate: DATE</text><line style="stroke: #A80036; stroke-width: 1.5;" x1="181.5" x2="276.5" y1="452.8732" y2="452.8732"/><!--MD5=[72f95645e79fe8edccccc1e29a0f1b1d]
class layers--><rect fill="#FEFECE" filter="url(#fv91q16cfqxrh)" height="167.8551" id="layers" style="stroke: #A80036; stroke-width: 1.5;" width="89" x="184.5" y="62"/><ellipse cx="209.85" cy="78" fill="#ADD1B2" rx="11" ry="11" style="stroke: #A80036; stroke-width: 1.0;"/><path d="M213.9594,84 L206.2406,84 L206.2406,71.6094 L213.9594,71.6094 L213.9594,73.7656 L208.6938,73.7656 L208.6938,76.4375 L213.4594,76.4375 L213.4594,78.5938 L208.6938,78.5938 L208.6938,81.8438 L213.9594,81.8438 L213.9594,84 Z "/><text fill="#000000" font-family="sans-serif" font-size="12" lengthAdjust="spacingAndGlyphs" textLength="34" x="226.15" y="82.656">layers</text><line style="stroke: #A80036; stroke-width: 1.5;" x1="185.5" x2="272.5" y1="94" y2="94"/><text fill="#000000" font-family="sans-serif" font-size="11" lengthAdjust="spacingAndGlyphs" textLength="66" x="190.5" y="109.7589">rinkid: CHAR</text><text fill="#000000" font-family="sans-serif" font-size="11" lengthAdjust="spacingAndGlyphs" textLength="52" x="190.5" y="124.7408">cell: CHAR</text><text fill="#000000" font-family="sans-serif" font-size="11" lengthAdjust="spacingAndGlyphs" textLength="50" x="190.5" y="139.7227">layer: INT</text><text fill="#000000" font-family="sans-serif" font-size="11" lengthAdjust="spacingAndGlyphs" textLength="54" x="190.5" y="154.7046">name: STR</text><text fill="#000000" font-family="sans-serif" font-size="11" lengthAdjust="spacingAndGlyphs" textLength="44" x="190.5" y="169.6865">size: STR</text><text fill="#000000" font-family="sans-serif" font-size="11" lengthAdjust="spacingAndGlyphs" textLength="67" x="190.5" y="184.6684">facing: CHAR</text><text fill="#000000" font-family="sans-serif" font-size="11" lengthAdjust="spacingAndGlyphs" textLength="59" x="190.5" y="199.6502">stroke: HEX</text><text fill="#000000" font-family="sans-serif" font-size="11" lengthAdjust="spacingAndGlyphs" textLength="77" x="190.5" y="214.6321">dasharray: INT</text><line style="stroke: #A80036; stroke-width: 1.5;" x1="185.5" x2="272.5" y1="221.8551" y2="221.8551"/><!--MD5=[ea222daedd5763ce62560b97939864fc]
reverse link layers to rinks--><path d="M229,243.27 C229,264.76 229,287.25 229,307.77 " fill="none" id="layers&lt;-rinks" style="stroke: #A80036; stroke-width: 1.0;"/><polygon fill="#A80036" points="229,230.05,225,236.05,229,242.05,233,236.05,229,230.05" style="stroke: #A80036; stroke-width: 1.0;"/><!--MD5=[1f0dbae719cba117b83826a9e0234b6e]
reverse link rinks to blocks--><path d="M261.64,473.68 C267.24,489.39 272.9,505.64 278,521 C297.29,579.04 317.4,646.26 330.7,691.8 " fill="none" id="rinks&lt;-blocks" style="stroke: #A80036; stroke-width: 1.0;"/><polygon fill="#A80036" points="257.17,461.22,255.4304,468.2181,261.2211,472.5155,262.9607,465.5174,257.17,461.22" style="stroke: #A80036; stroke-width: 1.0;"/><!--MD5=[5704741de926d1790ae8c4e42c957cdf]
reverse link rinks to colors--><path d="M226.54,474.6 C226.1,490.61 225.65,506.67 225.26,520.79 " fill="none" id="rinks&lt;-colors" style="stroke: #A80036; stroke-width: 1.0;"/><polygon fill="#A80036" points="226.91,461.21,222.7467,467.0979,226.5805,473.2055,230.7437,467.3176,226.91,461.21" style="stroke: #A80036; stroke-width: 1.0;"/><!--MD5=[df7a0e046f8daeb25e11421450e196cf]
reverse link colors to pens--><path d="M220.33,627.42 C218.87,650.85 217.21,677.39 215.85,699.32 " fill="none" id="colors&lt;-pens" style="stroke: #A80036; stroke-width: 1.0;"/><polygon fill="#A80036" points="221.14,614.41,216.7719,620.1476,220.3882,626.3864,224.7562,620.6488,221.14,614.41" style="stroke: #A80036; stroke-width: 1.0;"/><!--MD5=[e8982a3c61972d7a332375e6a8c0360e]
reverse link blocks to models--><path d="M297.43,801.73 C280.39,820.94 261.62,842.09 246.03,859.66 " fill="none" id="blocks&lt;-models" style="stroke: #A80036; stroke-width: 1.0;"/><polygon fill="#A80036" points="306.16,791.9,299.1848,793.7295,298.1909,800.8718,305.1661,799.0423,306.16,791.9" style="stroke: #A80036; stroke-width: 1.0;"/><!--MD5=[e09b97d127677a098a6f10e715cb2f33]
reverse link compass to models--><path d="M129.05,803.82 C145.47,822.47 163.33,842.74 178.25,859.68 " fill="none" id="compass&lt;-models" style="stroke: #A80036; stroke-width: 1.0;"/><polygon fill="#A80036" points="120.35,793.95,121.3107,801.0968,128.2772,802.9588,127.3166,795.812,120.35,793.95" style="stroke: #A80036; stroke-width: 1.0;"/><!--MD5=[7fa6b80919ef5df589f3905a68abd4c9]
@startuml

package "model" {
  entity pens {
   ver: INT
   gplfile: STR
   widthmm: DECIMAL
  }
  entity models {
    mid: INT
    model: STR
  }
  entity blocks {
    mid: STR 
    position: INT
    cell: CHAR 
    top: BOOL
  }
  entity compass {
    mid: STR 
    cell: CHAR
    pair: CHAR
    facing: STR
  }
}
package "block" {
  entity colors {
    ver: INT
    fill: HEX
    penam: STR
  }
  entity rinks {
    rinkid: CHAR
    mid: STR
    size: INT
    factor: DECIMAL
    created: DATE
    ver: INT
    pubdate: DATE
  }
}
package "cell" {
  entity layers {
    rinkid: CHAR
    cell: CHAR
    layer: INT
    name: STR
    size: STR
    facing: CHAR
    stroke: HEX
    dasharray: INT
  } 
}


layers  *- - rinks
rinks   *- - blocks
rinks   *- - colors
colors  *- - pens
blocks  *- - models
compass *- - models

@enduml

PlantUML version 1.2020.02(Sun Mar 01 11:22:07 CET 2020)
(GPL source distribution)
Java Runtime: OpenJDK Runtime Environment
JVM: OpenJDK 64-Bit Server VM
Java Version: 21.0.10+7-Ubuntu-124.04
Operating System: Linux
Default Encoding: UTF-8
Language: en
Country: US
--></g></svg>