<svg xmlns="http://www.w3.org/2000/svg" xmlns:xlink="http://www.w3.org/1999/xlink" contentStyleType="text/css" data-diagram-type="CLASS" height="554px" preserveAspectRatio="none" style="width:967px;height:554px;background:#FFFFFF;" version="1.1" viewBox="0 0 967 554" width="967px" zoomAndPan="magnify"><defs/><g><!--class blocks--><g class="entity" data-entity="blocks" data-source-line="1" data-uid="ent0002" id="entity_blocks"><rect fill="#F1F1F1" height="113.1875" rx="2.5" ry="2.5" style="stroke:#181818;stroke-width:0.5;" width="99.7734" x="860.5" y="228.5"/><ellipse cx="885.9999" cy="244.5" fill="#ADD1B2" rx="11" ry="11" style="stroke:#181818;stroke-width:1;"/><path d="M890.1092,250.5 L882.3905,250.5 L882.3905,238.1094 L890.1092,238.1094 L890.1092,240.2656 L884.8436,240.2656 L884.8436,242.9375 L889.6092,242.9375 L889.6092,245.0938 L884.8436,245.0938 L884.8436,248.3438 L890.1092,248.3438 L890.1092,250.5 Z " fill="#000000"/><text fill="#000000" font-family="sans-serif" font-size="14" lengthAdjust="spacing" textLength="44.4404" x="902.3332" y="249.3467">blocks</text><line style="stroke:#181818;stroke-width:0.5;" x1="861.5" x2="959.2734" y1="260.5" y2="260.5"/><text fill="#000000" font-family="sans-serif" font-size="14" lengthAdjust="spacing" textLength="79.9258" x="866.5" y="277.4951">model: STR</text><text fill="#000000" font-family="sans-serif" font-size="14" lengthAdjust="spacing" textLength="87.7734" x="866.5" y="293.792">position: INT</text><text fill="#000000" font-family="sans-serif" font-size="14" lengthAdjust="spacing" textLength="72.8643" x="866.5" y="310.0889">cell: CHAR</text><text fill="#000000" font-family="sans-serif" font-size="14" lengthAdjust="spacing" textLength="71.5518" x="866.5" y="326.3857">top: BOOL</text><line style="stroke:#181818;stroke-width:0.5;" x1="861.5" x2="959.2734" y1="333.6875" y2="333.6875"/></g><!--class colours--><g class="entity" data-entity="colours" data-source-line="8" data-uid="ent0003" id="entity_colours"><rect fill="#F1F1F1" height="64.2969" rx="2.5" ry="2.5" style="stroke:#181818;stroke-width:0.5;" width="82.6406" x="7" y="458.5"/><ellipse cx="22" cy="474.5" fill="#ADD1B2" rx="11" ry="11" style="stroke:#181818;stroke-width:1;"/><path d="M26.1094,480.5 L18.3906,480.5 L18.3906,468.1094 L26.1094,468.1094 L26.1094,470.2656 L20.8438,470.2656 L20.8438,472.9375 L25.6094,472.9375 L25.6094,475.0938 L20.8438,475.0938 L20.8438,478.3438 L26.1094,478.3438 L26.1094,480.5 Z " fill="#000000"/><text fill="#000000" font-family="sans-serif" font-size="14" lengthAdjust="spacing" textLength="50.6406" x="36" y="479.3467">colours</text><line style="stroke:#181818;stroke-width:0.5;" x1="8" x2="88.6406" y1="490.5" y2="490.5"/><text fill="#000000" font-family="sans-serif" font-size="14" lengthAdjust="spacing" textLength="59.1787" x="13" y="507.4951">fill : HEX</text><line style="stroke:#181818;stroke-width:0.5;" x1="8" x2="88.6406" y1="514.7969" y2="514.7969"/></g><!--class compass--><g class="entity" data-entity="compass" data-source-line="11" data-uid="ent0004" id="entity_compass"><rect fill="#F1F1F1" height="113.1875" rx="2.5" ry="2.5" style="stroke:#181818;stroke-width:0.5;" width="93.9541" x="403.5" y="228.5"/><ellipse cx="418.5" cy="244.5" fill="#ADD1B2" rx="11" ry="11" style="stroke:#181818;stroke-width:1;"/><path d="M422.6094,250.5 L414.8906,250.5 L414.8906,238.1094 L422.6094,238.1094 L422.6094,240.2656 L417.3438,240.2656 L417.3438,242.9375 L422.1094,242.9375 L422.1094,245.0938 L417.3438,245.0938 L417.3438,248.3438 L422.6094,248.3438 L422.6094,250.5 Z " fill="#000000"/><text fill="#000000" font-family="sans-serif" font-size="14" lengthAdjust="spacing" textLength="61.9541" x="432.5" y="249.3467">compass</text><line style="stroke:#181818;stroke-width:0.5;" x1="404.5" x2="496.4541" y1="260.5" y2="260.5"/><text fill="#000000" font-family="sans-serif" font-size="14" lengthAdjust="spacing" textLength="79.9258" x="409.5" y="277.4951">model: STR</text><text fill="#000000" font-family="sans-serif" font-size="14" lengthAdjust="spacing" textLength="72.8643" x="409.5" y="293.792">cell: CHAR</text><text fill="#000000" font-family="sans-serif" font-size="14" lengthAdjust="spacing" textLength="75.8857" x="409.5" y="310.0889">pair: CHAR</text><text fill="#000000" font-family="sans-serif" font-size="14" lengthAdjust="spacing" textLength="79.1875" x="409.5" y="326.3857">facing: STR</text><line style="stroke:#181818;stroke-width:0.5;" x1="404.5" x2="496.4541" y1="333.6875" y2="333.6875"/></g><!--class geometry--><g class="entity" data-entity="geometry" data-source-line="17" data-uid="ent0005" id="entity_geometry"><rect fill="#F1F1F1" height="129.4844" rx="2.5" ry="2.5" style="stroke:#181818;stroke-width:0.5;" width="103.6289" x="264.5" y="220.5"/><ellipse cx="281.202" cy="236.5" fill="#ADD1B2" rx="11" ry="11" style="stroke:#181818;stroke-width:1;"/><path d="M285.3114,242.5 L277.5926,242.5 L277.5926,230.1094 L285.3114,230.1094 L285.3114,232.2656 L280.0458,232.2656 L280.0458,234.9375 L284.8114,234.9375 L284.8114,237.0938 L280.0458,237.0938 L280.0458,240.3438 L285.3114,240.3438 L285.3114,242.5 Z " fill="#000000"/><text fill="#000000" font-family="sans-serif" font-size="14" lengthAdjust="spacing" textLength="67.8467" x="295.5802" y="241.3467">geometry</text><line style="stroke:#181818;stroke-width:0.5;" x1="265.5" x2="367.1289" y1="252.5" y2="252.5"/><text fill="#000000" font-family="sans-serif" font-size="14" lengthAdjust="spacing" textLength="53.9834" x="270.5" y="269.4951">gid: INT</text><text fill="#000000" font-family="sans-serif" font-size="14" lengthAdjust="spacing" textLength="78.5791" x="270.5" y="285.792">shape: STR</text><text fill="#000000" font-family="sans-serif" font-size="14" lengthAdjust="spacing" textLength="63.4785" x="270.5" y="302.0889">size: STR</text><text fill="#000000" font-family="sans-serif" font-size="14" lengthAdjust="spacing" textLength="91.6289" x="270.5" y="318.3857">facing: CHAR</text><text fill="#000000" font-family="sans-serif" font-size="14" lengthAdjust="spacing" textLength="71.5518" x="270.5" y="334.6826">top: BOOL</text><line style="stroke:#181818;stroke-width:0.5;" x1="265.5" x2="367.1289" y1="341.9844" y2="341.9844"/></g><!--class inkpal--><g class="entity" data-entity="inkpal" data-source-line="24" data-uid="ent0006" id="entity_inkpal"><rect fill="#F1F1F1" height="80.5938" rx="2.5" ry="2.5" style="stroke:#181818;stroke-width:0.5;" width="91.3174" x="125" y="450"/><ellipse cx="147.6913" cy="466" fill="#ADD1B2" rx="11" ry="11" style="stroke:#181818;stroke-width:1;"/><path d="M151.8007,472 L144.0819,472 L144.0819,459.6094 L151.8007,459.6094 L151.8007,461.7656 L146.5351,461.7656 L146.5351,464.4375 L151.3007,464.4375 L151.3007,466.5938 L146.5351,466.5938 L146.5351,469.8438 L151.8007,469.8438 L151.8007,472 Z " fill="#000000"/><text fill="#000000" font-family="sans-serif" font-size="14" lengthAdjust="spacing" textLength="42.2256" x="163.4005" y="470.8467">inkpal</text><line style="stroke:#181818;stroke-width:0.5;" x1="126" x2="215.3174" y1="482" y2="482"/><text fill="#000000" font-family="sans-serif" font-size="14" lengthAdjust="spacing" textLength="54.9746" x="131" y="498.9951">ver: INT</text><text fill="#000000" font-family="sans-serif" font-size="14" lengthAdjust="spacing" textLength="79.3174" x="131" y="515.292">gplfile: STR</text><line style="stroke:#181818;stroke-width:0.5;" x1="126" x2="215.3174" y1="522.5938" y2="522.5938"/></g><!--class palette--><g class="entity" data-entity="palette" data-source-line="28" data-uid="ent0007" id="entity_palette"><rect fill="#F1F1F1" height="145.7813" rx="2.5" ry="2.5" style="stroke:#181818;stroke-width:0.5;" width="117.5605" x="111.5" y="212"/><ellipse cx="142.7" cy="228" fill="#ADD1B2" rx="11" ry="11" style="stroke:#181818;stroke-width:1;"/><path d="M146.8094,234 L139.0906,234 L139.0906,221.6094 L146.8094,221.6094 L146.8094,223.7656 L141.5438,223.7656 L141.5438,226.4375 L146.3094,226.4375 L146.3094,228.5938 L141.5438,228.5938 L141.5438,231.8438 L146.8094,231.8438 L146.8094,234 Z " fill="#000000"/><text fill="#000000" font-family="sans-serif" font-size="14" lengthAdjust="spacing" textLength="49.5605" x="160.3" y="232.8467">palette</text><line style="stroke:#181818;stroke-width:0.5;" x1="112.5" x2="228.0605" y1="244" y2="244"/><text fill="#000000" font-family="sans-serif" font-size="14" lengthAdjust="spacing" textLength="53.9834" x="117.5" y="260.9951">pid: INT</text><text fill="#000000" font-family="sans-serif" font-size="14" lengthAdjust="spacing" textLength="54.9746" x="117.5" y="277.292">ver: INT</text><text fill="#000000" font-family="sans-serif" font-size="14" lengthAdjust="spacing" textLength="54.7285" x="117.5" y="293.5889">fill: HEX</text><text fill="#000000" font-family="sans-serif" font-size="14" lengthAdjust="spacing" textLength="60.6211" x="117.5" y="309.8857">bg: HEX:</text><text fill="#000000" font-family="sans-serif" font-size="14" lengthAdjust="spacing" textLength="105.5605" x="117.5" y="326.1826">opacity: FLOAT</text><text fill="#000000" font-family="sans-serif" font-size="14" lengthAdjust="spacing" textLength="85.9756" x="117.5" y="342.4795">relation: INT</text><line style="stroke:#181818;stroke-width:0.5;" x1="112.5" x2="228.0605" y1="349.7813" y2="349.7813"/></g><!--class cells--><g class="entity" data-entity="cells" data-source-line="36" data-uid="ent0008" id="entity_cells"><rect fill="#F1F1F1" height="129.4844" rx="2.5" ry="2.5" style="stroke:#181818;stroke-width:0.5;" width="93.0127" x="555" y="7"/><ellipse cx="583.333" cy="23" fill="#ADD1B2" rx="11" ry="11" style="stroke:#181818;stroke-width:1;"/><path d="M587.4424,29 L579.7236,29 L579.7236,16.6094 L587.4424,16.6094 L587.4424,18.7656 L582.1768,18.7656 L582.1768,21.4375 L586.9424,21.4375 L586.9424,23.5938 L582.1768,23.5938 L582.1768,26.8438 L587.4424,26.8438 L587.4424,29 Z " fill="#000000"/><text fill="#000000" font-family="sans-serif" font-size="14" lengthAdjust="spacing" textLength="31.3838" x="600.2959" y="27.8467">cells</text><line style="stroke:#181818;stroke-width:0.5;" x1="556" x2="647.0127" y1="39" y2="39"/><text fill="#000000" font-family="sans-serif" font-size="14" lengthAdjust="spacing" textLength="81.0127" x="561" y="55.9951">view: CHAR</text><text fill="#000000" font-family="sans-serif" font-size="14" lengthAdjust="spacing" textLength="72.8643" x="561" y="72.292">cell: CHAR</text><text fill="#000000" font-family="sans-serif" font-size="14" lengthAdjust="spacing" textLength="53.9834" x="561" y="88.5889">gid: INT</text><text fill="#000000" font-family="sans-serif" font-size="14" lengthAdjust="spacing" textLength="53.9834" x="561" y="104.8857">pid: INT</text><text fill="#000000" font-family="sans-serif" font-size="14" lengthAdjust="spacing" textLength="52.3906" x="561" y="121.1826">sid: INT</text><line style="stroke:#181818;stroke-width:0.5;" x1="556" x2="647.0127" y1="128.4844" y2="128.4844"/></g><!--class models--><g class="entity" data-entity="models" data-source-line="43" data-uid="ent0009" id="entity_models"><rect fill="#F1F1F1" height="113.1875" rx="2.5" ry="2.5" style="stroke:#181818;stroke-width:0.5;" width="125.1826" x="703" y="434"/><ellipse cx="737.0332" cy="450" fill="#ADD1B2" rx="11" ry="11" style="stroke:#181818;stroke-width:1;"/><path d="M741.1425,456 L733.4238,456 L733.4238,443.6094 L741.1425,443.6094 L741.1425,445.7656 L735.8769,445.7656 L735.8769,448.4375 L740.6425,448.4375 L740.6425,450.5938 L735.8769,450.5938 L735.8769,453.8438 L741.1425,453.8438 L741.1425,456 Z " fill="#000000"/><text fill="#000000" font-family="sans-serif" font-size="14" lengthAdjust="spacing" textLength="50.8867" x="755.2627" y="454.8467">models</text><line style="stroke:#181818;stroke-width:0.5;" x1="704" x2="827.1826" y1="466" y2="466"/><text fill="#000000" font-family="sans-serif" font-size="14" lengthAdjust="spacing" textLength="79.9258" x="709" y="482.9951">model: STR</text><text fill="#000000" font-family="sans-serif" font-size="14" lengthAdjust="spacing" textLength="94.2266" x="709" y="499.292">uniqcells: INT</text><text fill="#000000" font-family="sans-serif" font-size="14" lengthAdjust="spacing" textLength="113.1826" x="709" y="515.5889">blocksizexy: INT</text><text fill="#000000" font-family="sans-serif" font-size="14" lengthAdjust="spacing" textLength="108.2266" x="709" y="531.8857">scale: DECIMAL</text><line style="stroke:#181818;stroke-width:0.5;" x1="704" x2="827.1826" y1="539.1875" y2="539.1875"/></g><!--class pens--><g class="entity" data-entity="pens" data-source-line="50" data-uid="ent0010" id="entity_pens"><rect fill="#F1F1F1" height="96.8906" rx="2.5" ry="2.5" style="stroke:#181818;stroke-width:0.5;" width="96.9229" x="251" y="442"/><ellipse cx="280.0651" cy="458" fill="#ADD1B2" rx="11" ry="11" style="stroke:#181818;stroke-width:1;"/><path d="M284.1745,464 L276.4558,464 L276.4558,451.6094 L284.1745,451.6094 L284.1745,453.7656 L278.9089,453.7656 L278.9089,456.4375 L283.6745,456.4375 L283.6745,458.5938 L278.9089,458.5938 L278.9089,461.8438 L284.1745,461.8438 L284.1745,464 Z " fill="#000000"/><text fill="#000000" font-family="sans-serif" font-size="14" lengthAdjust="spacing" textLength="33.667" x="297.1907" y="462.8467">pens</text><line style="stroke:#181818;stroke-width:0.5;" x1="252" x2="346.9229" y1="474" y2="474"/><text fill="#000000" font-family="sans-serif" font-size="14" lengthAdjust="spacing" textLength="54.9746" x="257" y="490.9951">ver: INT</text><text fill="#000000" font-family="sans-serif" font-size="14" lengthAdjust="spacing" textLength="54.7285" x="257" y="507.292">fill: HEX</text><text fill="#000000" font-family="sans-serif" font-size="14" lengthAdjust="spacing" textLength="84.9229" x="257" y="523.5889">penam: STR</text><line style="stroke:#181818;stroke-width:0.5;" x1="252" x2="346.9229" y1="530.8906" y2="530.8906"/></g><!--class strokes--><g class="entity" data-entity="strokes" data-source-line="55" data-uid="ent0011" id="entity_strokes"><rect fill="#F1F1F1" height="129.4844" rx="2.5" ry="2.5" style="stroke:#181818;stroke-width:0.5;" width="136.7559" x="533" y="220.5"/><ellipse cx="572.1365" cy="236.5" fill="#ADD1B2" rx="11" ry="11" style="stroke:#181818;stroke-width:1;"/><path d="M576.2459,242.5 L568.5271,242.5 L568.5271,230.1094 L576.2459,230.1094 L576.2459,232.2656 L570.9803,232.2656 L570.9803,234.9375 L575.7459,234.9375 L575.7459,237.0938 L570.9803,237.0938 L570.9803,240.3438 L576.2459,240.3438 L576.2459,242.5 Z " fill="#000000"/><text fill="#000000" font-family="sans-serif" font-size="14" lengthAdjust="spacing" textLength="51.1191" x="591.5002" y="241.3467">strokes</text><line style="stroke:#181818;stroke-width:0.5;" x1="534" x2="668.7559" y1="252.5" y2="252.5"/><text fill="#000000" font-family="sans-serif" font-size="14" lengthAdjust="spacing" textLength="52.3906" x="539" y="269.4951">sid: INT</text><text fill="#000000" font-family="sans-serif" font-size="14" lengthAdjust="spacing" textLength="54.7285" x="539" y="285.792">fill: HEX</text><text fill="#000000" font-family="sans-serif" font-size="14" lengthAdjust="spacing" textLength="92.7568" x="539" y="302.0889">width: FLOAT</text><text fill="#000000" font-family="sans-serif" font-size="14" lengthAdjust="spacing" textLength="124.7559" x="539" y="318.3857">dasharray: FLOAT</text><text fill="#000000" font-family="sans-serif" font-size="14" lengthAdjust="spacing" textLength="105.5605" x="539" y="334.6826">opacity: FLOAT</text><line style="stroke:#181818;stroke-width:0.5;" x1="534" x2="668.7559" y1="341.9844" y2="341.9844"/></g><!--class views--><g class="entity" data-entity="views" data-source-line="62" data-uid="ent0012" id="entity_views"><rect fill="#F1F1F1" height="178.375" rx="2.5" ry="2.5" style="stroke:#181818;stroke-width:0.5;" width="120.2266" x="705.5" y="196"/><ellipse cx="742.4125" cy="212" fill="#ADD1B2" rx="11" ry="11" style="stroke:#181818;stroke-width:1;"/><path d="M746.5218,218 L738.8031,218 L738.8031,205.6094 L746.5218,205.6094 L746.5218,207.7656 L741.2562,207.7656 L741.2562,210.4375 L746.0218,210.4375 L746.0218,212.5938 L741.2562,212.5938 L741.2562,215.8438 L746.5218,215.8438 L746.5218,218 Z " fill="#000000"/><text fill="#000000" font-family="sans-serif" font-size="14" lengthAdjust="spacing" textLength="39.5322" x="761.2819" y="216.8467">views</text><line style="stroke:#181818;stroke-width:0.5;" x1="706.5" x2="824.7266" y1="228" y2="228"/><text fill="#000000" font-family="sans-serif" font-size="14" lengthAdjust="spacing" textLength="81.0127" x="711.5" y="244.9951">view: CHAR</text><text fill="#000000" font-family="sans-serif" font-size="14" lengthAdjust="spacing" textLength="79.9258" x="711.5" y="261.292">model: STR</text><text fill="#000000" font-family="sans-serif" font-size="14" lengthAdjust="spacing" textLength="82.4688" x="711.5" y="277.5889">author: STR</text><text fill="#000000" font-family="sans-serif" font-size="14" lengthAdjust="spacing" textLength="108.2266" x="711.5" y="293.8857">scale: DECIMAL</text><text fill="#000000" font-family="sans-serif" font-size="14" lengthAdjust="spacing" textLength="100.5566" x="711.5" y="310.1826">created: DATE</text><text fill="#000000" font-family="sans-serif" font-size="14" lengthAdjust="spacing" textLength="107.0508" x="711.5" y="326.4795">colournum: INT</text><text fill="#000000" font-family="sans-serif" font-size="14" lengthAdjust="spacing" textLength="54.9746" x="711.5" y="342.7764">ver: INT</text><text fill="#000000" font-family="sans-serif" font-size="14" lengthAdjust="spacing" textLength="105.1367" x="711.5" y="359.0732">pubdate: DATE</text><line style="stroke:#181818;stroke-width:0.5;" x1="706.5" x2="824.7266" y1="366.375" y2="366.375"/></g><!--reverse link cells to palette--><g class="link" data-entity-1="cells" data-entity-2="palette" data-source-line="74" data-uid="lnk13" id="link_cells_palette"><path codeLine="74" d="M543.1093,82.9847 C471.7193,97.1447 345.02,129.09 246.5,196 C239.65,200.65 233.05,206.07 226.79,211.89" fill="none" id="cells-backto-palette" style="stroke:#181818;stroke-width:1;"/><polygon fill="#181818" points="554.88,80.65,548.2164,77.8938,543.1093,82.9847,549.7729,85.7409,554.88,80.65" style="stroke:#181818;stroke-width:1;"/></g><!--reverse link cells to strokes--><g class="link" data-entity-1="cells" data-entity-2="strokes" data-source-line="75" data-uid="lnk14" id="link_cells_strokes"><path codeLine="75" d="M601.5,148.24 C601.5,174.88 601.5,193.76 601.5,220.39" fill="none" id="cells-backto-strokes" style="stroke:#181818;stroke-width:1;"/><polygon fill="#181818" points="601.5,136.24,597.5,142.24,601.5,148.24,605.5,142.24,601.5,136.24" style="stroke:#181818;stroke-width:1;"/></g><!--reverse link cells to geometry--><g class="link" data-entity-1="cells" data-entity-2="geometry" data-source-line="76" data-uid="lnk15" id="link_cells_geometry"><path codeLine="76" d="M543.903,97.7571 C497.763,119.1471 437.63,150.95 385.5,196 C377.13,203.24 369.06,211.61 361.58,220.26" fill="none" id="cells-backto-geometry" style="stroke:#181818;stroke-width:1;"/><polygon fill="#181818" points="554.79,92.71,547.6641,91.6045,543.903,97.7571,551.0289,98.8625,554.79,92.71" style="stroke:#181818;stroke-width:1;"/></g><!--reverse link cells to views--><g class="link" data-entity-1="cells" data-entity-2="views" data-source-line="77" data-uid="lnk16" id="link_cells_views"><path codeLine="77" d="M655.4124,142.0238 C673.2124,164.9838 686.42,182.02 705.32,206.39" fill="none" id="cells-backto-views" style="stroke:#181818;stroke-width:1;"/><polygon fill="#181818" points="648.06,132.54,648.5749,139.7327,655.4124,142.0238,654.8975,134.8311,648.06,132.54" style="stroke:#181818;stroke-width:1;"/></g><!--reverse link cells to blocks--><g class="link" data-entity-1="cells" data-entity-2="blocks" data-source-line="78" data-uid="lnk17" id="link_cells_blocks"><path codeLine="78" d="M659.5887,93.4415 C711.1987,113.3115 783.59,145.95 843.5,196 C854.55,205.23 864.88,216.61 873.96,228.08" fill="none" id="cells-backto-blocks" style="stroke:#181818;stroke-width:1;"/><polygon fill="#181818" points="648.39,89.13,652.5522,95.0187,659.5887,93.4415,655.4265,87.5529,648.39,89.13" style="stroke:#181818;stroke-width:1;"/></g><!--reverse link palette to pens--><g class="link" data-entity-1="palette" data-entity-2="pens" data-source-line="79" data-uid="lnk18" id="link_palette_pens"><path codeLine="79" d="M222.5831,368.1662 C240.1931,395.9562 253.44,416.84 269.24,441.77" fill="none" id="palette-backto-pens" style="stroke:#181818;stroke-width:1;"/><polygon fill="#181818" points="216.16,358.03,215.9928,365.2392,222.5831,368.1662,222.7503,360.9571,216.16,358.03" style="stroke:#181818;stroke-width:1;"/></g><!--reverse link palette to inkpal--><g class="link" data-entity-1="palette" data-entity-2="inkpal" data-source-line="80" data-uid="lnk19" id="link_palette_inkpal"><path codeLine="80" d="M170.5,370.03 C170.5,400.9 170.5,423.78 170.5,449.84" fill="none" id="palette-backto-inkpal" style="stroke:#181818;stroke-width:1;"/><polygon fill="#181818" points="170.5,358.03,166.5,364.03,170.5,370.03,174.5,364.03,170.5,358.03" style="stroke:#181818;stroke-width:1;"/></g><!--reverse link palette to colours--><g class="link" data-entity-1="palette" data-entity-2="colours" data-source-line="81" data-uid="lnk20" id="link_palette_colours"><path codeLine="81" d="M121.1487,368.3215 C100.5087,402.7415 83.07,431.84 67.11,458.45" fill="none" id="palette-backto-colours" style="stroke:#181818;stroke-width:1;"/><polygon fill="#181818" points="127.32,358.03,120.8038,361.1186,121.1487,368.3215,127.6648,365.2329,127.32,358.03" style="stroke:#181818;stroke-width:1;"/></g><!--reverse link blocks to models--><g class="link" data-entity-1="blocks" data-entity-2="models" data-source-line="82" data-uid="lnk21" id="link_blocks_models"><path codeLine="82" d="M863.9158,351.3824 C843.4558,380.0924 825.53,405.26 805.07,433.96" fill="none" id="blocks-backto-models" style="stroke:#181818;stroke-width:1;"/><polygon fill="#181818" points="870.88,341.61,864.1404,344.1748,863.9158,351.3824,870.6553,348.8176,870.88,341.61" style="stroke:#181818;stroke-width:1;"/></g><!--reverse link compass to models--><g class="link" data-entity-1="compass" data-entity-2="models" data-source-line="83" data-uid="lnk22" id="link_compass_models"><path codeLine="83" d="M492.4258,351.3297 C501.3358,362.9397 504.31,364.88 515.5,374 C571.75,419.83 649.16,451.91 702.87,470.44" fill="none" id="compass-backto-models" style="stroke:#181818;stroke-width:1;"/><polygon fill="#181818" points="485.12,341.81,485.5997,349.0051,492.4258,351.3297,491.9462,344.1346,485.12,341.81" style="stroke:#181818;stroke-width:1;"/></g><!--reverse link views to models--><g class="link" data-entity-1="views" data-entity-2="models" data-source-line="84" data-uid="lnk23" id="link_views_models"><path codeLine="84" d="M765.5,386.07 C765.5,406.38 765.5,415.42 765.5,433.89" fill="none" id="views-backto-models" style="stroke:#181818;stroke-width:1;"/><polygon fill="#181818" points="765.5,374.07,761.5,380.07,765.5,386.07,769.5,380.07,765.5,374.07" style="stroke:#181818;stroke-width:1;"/></g><!--SRC=[RLDDJyCm3BtdL_YCj3_GMzc6DWcO13jmpLglYvOs8Kqt2kA_uoHDcrRSugzdlsS76oji3oUfYciBFmngLQBCuFtu1WoqQeKLgibW_tfaKA2aq7gNkvXLEeF7m-6P_JA60QPGKdN6uvo5b931Rlj1yJ5SQzxwyBpF14mzkJ3nVUQ5Q2gVDQ5Kg6gqfdSmbIY7sTeBrnWoeHNVyHaH0buwyu0ccglcqc7Tq0nObPOqFYxwKXfQYovLZssd8aSuy8LJvHyP0wMfl-qpU7e-v9HaKF99q4aOuXzakGcynsbdiYHKa_P4jLnWUM6N6fFHDUBJzucbOUSarLS_eXNSqTvir_kNF5singQTQvJGfI2l5sArrgWh-ffnnBJcBafx6MKfEQtF63u9jH1kn7Nw_AFKZ2dlx4MPQ2quaQe6kKMQQPCVjyxsHzjqTLHX8WcwEvMKFEII7Yoiwc6rYlUGU0RIYIVUQkBo318xh875w_B8fFRC4OvqvXg-6Xj-hdE5pRFuon9NK6ro_040]--></g></svg>