<?xml version="1.0" encoding="UTF-8" standalone="no"?><svg xmlns="http://www.w3.org/2000/svg" xmlns:xlink="http://www.w3.org/1999/xlink" contentScriptType="application/ecmascript" contentStyleType="text/css" height="462px" preserveAspectRatio="none" style="width:474px;height:462px;" version="1.1" viewBox="0 0 474 462" width="474px" zoomAndPan="magnify"><defs><filter height="300%" id="f1ora7xmwlxfi1" width="300%" x="-1" y="-1"><feGaussianBlur result="blurOut" stdDeviation="2.0"/><feColorMatrix in="blurOut" result="blurOut2" type="matrix" values="0 0 0 0 0 0 0 0 0 0 0 0 0 0 0 0 0 0 .4 0"/><feOffset dx="4.0" dy="4.0" in="blurOut2" result="blurOut3"/><feBlend in="SourceGraphic" in2="blurOut3" mode="normal"/></filter></defs><g><text fill="#000000" font-family="sans-serif" font-size="18" lengthAdjust="spacingAndGlyphs" textLength="34" x="226" y="19.2419">Info</text><!--MD5=[cc30f0d8be56bec825528aa7d05b8bdc]
cluster info--><polygon fill="#FFFFFF" filter="url(#f1ora7xmwlxfi1)" points="22,254.5158,55,254.5158,62,279.5838,452,279.5838,452,356.5158,22,356.5158,22,254.5158" style="stroke: #000000; stroke-width: 1.5;"/><line style="stroke: #000000; stroke-width: 1.5;" x1="22" x2="62" y1="279.5838" y2="279.5838"/><text fill="#000000" font-family="sans-serif" font-size="14" font-weight="bold" lengthAdjust="spacingAndGlyphs" textLength="27" x="26" y="271.4818">info</text><!--MD5=[a954977562b4d0c361cfd16b79bcb4d1]
class info.listPens--><rect fill="#FEFECE" filter="url(#f1ora7xmwlxfi1)" height="48" id="info.listPens" style="stroke: #A80036; stroke-width: 1.5;" width="75" x="37.5" y="292.5158"/><ellipse cx="52.5" cy="308.5158" fill="#ADD1B2" rx="11" ry="11" style="stroke: #A80036; stroke-width: 1.0;"/><path d="M55.4688,314.1565 Q54.8906,314.4533 54.25,314.594 Q53.6094,314.7502 52.9063,314.7502 Q50.4063,314.7502 49.0781,313.1096 Q47.7656,311.4533 47.7656,308.3283 Q47.7656,305.2033 49.0781,303.5471 Q50.4063,301.8908 52.9063,301.8908 Q53.6094,301.8908 54.25,302.0471 Q54.9063,302.2033 55.4688,302.5002 L55.4688,305.219 Q54.8438,304.6408 54.25,304.3752 Q53.6563,304.094 53.0313,304.094 Q51.6875,304.094 51,305.1721 Q50.3125,306.2346 50.3125,308.3283 Q50.3125,310.4221 51,311.5002 Q51.6875,312.5627 53.0313,312.5627 Q53.6563,312.5627 54.25,312.2971 Q54.8438,312.0158 55.4688,311.4377 L55.4688,314.1565 Z "/><text fill="#000000" font-family="sans-serif" font-size="12" lengthAdjust="spacingAndGlyphs" textLength="43" x="66.5" y="313.1719">listPens</text><line style="stroke: #A80036; stroke-width: 1.5;" x1="38.5" x2="111.5" y1="324.5158" y2="324.5158"/><line style="stroke: #A80036; stroke-width: 1.5;" x1="38.5" x2="111.5" y1="332.5158" y2="332.5158"/><!--MD5=[d617af9f10e1a3fc0f66b36dd03fbe96]
class info.position--><rect fill="#FEFECE" filter="url(#f1ora7xmwlxfi1)" height="48" id="info.position" style="stroke: #A80036; stroke-width: 1.5;" width="76" x="148" y="292.5158"/><ellipse cx="163" cy="308.5158" fill="#ADD1B2" rx="11" ry="11" style="stroke: #A80036; stroke-width: 1.0;"/><path d="M165.9688,314.1565 Q165.3906,314.4533 164.75,314.594 Q164.1094,314.7502 163.4063,314.7502 Q160.9063,314.7502 159.5781,313.1096 Q158.2656,311.4533 158.2656,308.3283 Q158.2656,305.2033 159.5781,303.5471 Q160.9063,301.8908 163.4063,301.8908 Q164.1094,301.8908 164.75,302.0471 Q165.4063,302.2033 165.9688,302.5002 L165.9688,305.219 Q165.3438,304.6408 164.75,304.3752 Q164.1563,304.094 163.5313,304.094 Q162.1875,304.094 161.5,305.1721 Q160.8125,306.2346 160.8125,308.3283 Q160.8125,310.4221 161.5,311.5002 Q162.1875,312.5627 163.5313,312.5627 Q164.1563,312.5627 164.75,312.2971 Q165.3438,312.0158 165.9688,311.4377 L165.9688,314.1565 Z "/><text fill="#000000" font-family="sans-serif" font-size="12" lengthAdjust="spacingAndGlyphs" textLength="44" x="177" y="313.1719">position</text><line style="stroke: #A80036; stroke-width: 1.5;" x1="149" x2="223" y1="324.5158" y2="324.5158"/><line style="stroke: #A80036; stroke-width: 1.5;" x1="149" x2="223" y1="332.5158" y2="332.5158"/><!--MD5=[46ec500f770b91518ee9792e2ad6413e]
class info.rinkMeta--><rect fill="#FEFECE" filter="url(#f1ora7xmwlxfi1)" height="48" id="info.rinkMeta" style="stroke: #A80036; stroke-width: 1.5;" width="82" x="259" y="292.5158"/><ellipse cx="274" cy="308.5158" fill="#ADD1B2" rx="11" ry="11" style="stroke: #A80036; stroke-width: 1.0;"/><path d="M276.9688,314.1565 Q276.3906,314.4533 275.75,314.594 Q275.1094,314.7502 274.4063,314.7502 Q271.9063,314.7502 270.5781,313.1096 Q269.2656,311.4533 269.2656,308.3283 Q269.2656,305.2033 270.5781,303.5471 Q271.9063,301.8908 274.4063,301.8908 Q275.1094,301.8908 275.75,302.0471 Q276.4063,302.2033 276.9688,302.5002 L276.9688,305.219 Q276.3438,304.6408 275.75,304.3752 Q275.1563,304.094 274.5313,304.094 Q273.1875,304.094 272.5,305.1721 Q271.8125,306.2346 271.8125,308.3283 Q271.8125,310.4221 272.5,311.5002 Q273.1875,312.5627 274.5313,312.5627 Q275.1563,312.5627 275.75,312.2971 Q276.3438,312.0158 276.9688,311.4377 L276.9688,314.1565 Z "/><text fill="#000000" font-family="sans-serif" font-size="12" lengthAdjust="spacingAndGlyphs" textLength="50" x="288" y="313.1719">rinkMeta</text><line style="stroke: #A80036; stroke-width: 1.5;" x1="260" x2="340" y1="324.5158" y2="324.5158"/><line style="stroke: #A80036; stroke-width: 1.5;" x1="260" x2="340" y1="332.5158" y2="332.5158"/><!--MD5=[4ef9a527234f6a10e51401d23ba1dfd9]
class info.stats--><rect fill="#FEFECE" filter="url(#f1ora7xmwlxfi1)" height="48" id="info.stats" style="stroke: #A80036; stroke-width: 1.5;" width="59" x="376.5" y="292.5158"/><ellipse cx="391.5" cy="308.5158" fill="#ADD1B2" rx="11" ry="11" style="stroke: #A80036; stroke-width: 1.0;"/><path d="M394.4688,314.1565 Q393.8906,314.4533 393.25,314.594 Q392.6094,314.7502 391.9063,314.7502 Q389.4063,314.7502 388.0781,313.1096 Q386.7656,311.4533 386.7656,308.3283 Q386.7656,305.2033 388.0781,303.5471 Q389.4063,301.8908 391.9063,301.8908 Q392.6094,301.8908 393.25,302.0471 Q393.9063,302.2033 394.4688,302.5002 L394.4688,305.219 Q393.8438,304.6408 393.25,304.3752 Q392.6563,304.094 392.0313,304.094 Q390.6875,304.094 390,305.1721 Q389.3125,306.2346 389.3125,308.3283 Q389.3125,310.4221 390,311.5002 Q390.6875,312.5627 392.0313,312.5627 Q392.6563,312.5627 393.25,312.2971 Q393.8438,312.0158 394.4688,311.4377 L394.4688,314.1565 Z "/><text fill="#000000" font-family="sans-serif" font-size="12" lengthAdjust="spacingAndGlyphs" textLength="27" x="405.5" y="313.1719">stats</text><line style="stroke: #A80036; stroke-width: 1.5;" x1="377.5" x2="434.5" y1="324.5158" y2="324.5158"/><line style="stroke: #A80036; stroke-width: 1.5;" x1="377.5" x2="434.5" y1="332.5158" y2="332.5158"/><!--MD5=[fb21a71b7e05bea158347acc63640bf6]
class recurrink--><rect fill="#FEFECE" filter="url(#f1ora7xmwlxfi1)" height="48" id="recurrink" style="stroke: #A80036; stroke-width: 1.5;" width="83" x="197.5" y="32.5158"/><ellipse cx="212.5" cy="48.5158" fill="#ADD1B2" rx="11" ry="11" style="stroke: #A80036; stroke-width: 1.0;"/><path d="M215.4688,54.1565 Q214.8906,54.4533 214.25,54.594 Q213.6094,54.7502 212.9063,54.7502 Q210.4063,54.7502 209.0781,53.1096 Q207.7656,51.4533 207.7656,48.3283 Q207.7656,45.2033 209.0781,43.5471 Q210.4063,41.8908 212.9063,41.8908 Q213.6094,41.8908 214.25,42.0471 Q214.9063,42.2033 215.4688,42.5002 L215.4688,45.219 Q214.8438,44.6408 214.25,44.3752 Q213.6563,44.094 213.0313,44.094 Q211.6875,44.094 211,45.1721 Q210.3125,46.2346 210.3125,48.3283 Q210.3125,50.4221 211,51.5002 Q211.6875,52.5627 213.0313,52.5627 Q213.6563,52.5627 214.25,52.2971 Q214.8438,52.0158 215.4688,51.4377 L215.4688,54.1565 Z "/><text fill="#000000" font-family="sans-serif" font-size="12" lengthAdjust="spacingAndGlyphs" textLength="51" x="226.5" y="53.1719">recurrink</text><line style="stroke: #A80036; stroke-width: 1.5;" x1="198.5" x2="279.5" y1="64.5158" y2="64.5158"/><line style="stroke: #A80036; stroke-width: 1.5;" x1="198.5" x2="279.5" y1="72.5158" y2="72.5158"/><!--MD5=[f3bb6a0badfb335b403fa9876e289bf4]
class screen--><rect fill="#FEFECE" filter="url(#f1ora7xmwlxfi1)" height="48" id="screen" style="stroke: #A80036; stroke-width: 1.5;" width="70" x="207" y="403.5158"/><ellipse cx="222" cy="419.5158" fill="#ADD1B2" rx="11" ry="11" style="stroke: #A80036; stroke-width: 1.0;"/><path d="M224.9688,425.1565 Q224.3906,425.4533 223.75,425.594 Q223.1094,425.7502 222.4063,425.7502 Q219.9063,425.7502 218.5781,424.1096 Q217.2656,422.4533 217.2656,419.3283 Q217.2656,416.2033 218.5781,414.5471 Q219.9063,412.8908 222.4063,412.8908 Q223.1094,412.8908 223.75,413.0471 Q224.4063,413.2033 224.9688,413.5002 L224.9688,416.219 Q224.3438,415.6408 223.75,415.3752 Q223.1563,415.094 222.5313,415.094 Q221.1875,415.094 220.5,416.1721 Q219.8125,417.2346 219.8125,419.3283 Q219.8125,421.4221 220.5,422.5002 Q221.1875,423.5627 222.5313,423.5627 Q223.1563,423.5627 223.75,423.2971 Q224.3438,423.0158 224.9688,422.4377 L224.9688,425.1565 Z "/><text fill="#000000" font-family="sans-serif" font-size="12" lengthAdjust="spacingAndGlyphs" textLength="38" x="236" y="424.1719">screen</text><line style="stroke: #A80036; stroke-width: 1.5;" x1="208" x2="276" y1="435.5158" y2="435.5158"/><line style="stroke: #A80036; stroke-width: 1.5;" x1="208" x2="276" y1="443.5158" y2="443.5158"/><!--MD5=[a653da9285a52f9d253372cfed81819e]
class db--><rect fill="#FEFECE" filter="url(#f1ora7xmwlxfi1)" height="48" id="db" style="stroke: #A80036; stroke-width: 1.5;" width="46" x="216" y="141.5158"/><ellipse cx="231" cy="157.5158" fill="#ADD1B2" rx="11" ry="11" style="stroke: #A80036; stroke-width: 1.0;"/><path d="M233.9688,163.1565 Q233.3906,163.4533 232.75,163.594 Q232.1094,163.7502 231.4063,163.7502 Q228.9063,163.7502 227.5781,162.1096 Q226.2656,160.4533 226.2656,157.3283 Q226.2656,154.2033 227.5781,152.5471 Q228.9063,150.8908 231.4063,150.8908 Q232.1094,150.8908 232.75,151.0471 Q233.4063,151.2033 233.9688,151.5002 L233.9688,154.219 Q233.3438,153.6408 232.75,153.3752 Q232.1563,153.094 231.5313,153.094 Q230.1875,153.094 229.5,154.1721 Q228.8125,155.2346 228.8125,157.3283 Q228.8125,159.4221 229.5,160.5002 Q230.1875,161.5627 231.5313,161.5627 Q232.1563,161.5627 232.75,161.2971 Q233.3438,161.0158 233.9688,160.4377 L233.9688,163.1565 Z "/><text fill="#000000" font-family="sans-serif" font-size="12" lengthAdjust="spacingAndGlyphs" textLength="14" x="245" y="162.1719">db</text><line style="stroke: #A80036; stroke-width: 1.5;" x1="217" x2="261" y1="173.5158" y2="173.5158"/><line style="stroke: #A80036; stroke-width: 1.5;" x1="217" x2="261" y1="181.5158" y2="181.5158"/><!--MD5=[4422049cd152053a1d5fe9d36fef4eff]
link recurrink to db--><path d="M239,80.7358 C239,96.9958 239,118.8358 239,136.1358 " fill="none" id="recurrink-&gt;db" style="stroke: #A80036; stroke-width: 1.0;"/><polygon fill="#A80036" points="239,141.3458,243,132.3458,239,136.3458,235,132.3458,239,141.3458" style="stroke: #A80036; stroke-width: 1.0;"/><!--MD5=[e54f191bd5d9afb45aba071d1fdc3bf3]
link db to info.listPens--><path d="M215.89,177.2658 C196.95,186.7558 170.1,201.7958 150,219.5158 C127.19,239.6158 106.34,267.4258 92.45,287.9358 " fill="none" id="db-&gt;info.listPens" style="stroke: #A80036; stroke-width: 1.0;"/><polygon fill="#A80036" points="89.59,292.1958,97.923,286.946,92.3734,288.0422,91.2772,282.4926,89.59,292.1958" style="stroke: #A80036; stroke-width: 1.0;"/><text fill="#000000" font-family="sans-serif" font-size="13" lengthAdjust="spacingAndGlyphs" textLength="29" x="151" y="234.4129">pens</text><!--MD5=[a1ee71c9512a387a94d39243705099d9]
link db to info.position--><path d="M215.81,187.6058 C207.46,196.5858 198.91,207.6958 194,219.5158 C185.05,241.0658 183.48,267.6458 183.9,287.3658 " fill="none" id="db-&gt;info.position" style="stroke: #A80036; stroke-width: 1.0;"/><polygon fill="#A80036" points="184.06,292.4858,187.7753,283.3646,183.9029,287.4883,179.7793,283.6159,184.06,292.4858" style="stroke: #A80036; stroke-width: 1.0;"/><text fill="#000000" font-family="sans-serif" font-size="13" lengthAdjust="spacingAndGlyphs" textLength="57" x="195" y="234.4129">block pos</text><!--MD5=[3f545fc46fbfb8a54ce5f7549a4670f5]
link db to info.rinkMeta--><path d="M248.53,189.7958 C259.36,216.2558 277.04,259.4258 288.59,287.6558 " fill="none" id="db-&gt;info.rinkMeta" style="stroke: #A80036; stroke-width: 1.0;"/><polygon fill="#A80036" points="290.54,292.3958,290.8227,282.551,288.6413,287.7704,283.4219,285.589,290.54,292.3958" style="stroke: #A80036; stroke-width: 1.0;"/><text fill="#000000" font-family="sans-serif" font-size="13" lengthAdjust="spacingAndGlyphs" textLength="53" x="269" y="234.4129">rink data</text><!--MD5=[c294c941d1ca2eca8784ecb5640a531f]
link db to info.stats--><path d="M262.28,177.8958 C281.49,187.7558 309.05,203.0058 331,219.5158 C344.82,229.9058 347.85,233.3058 359,246.5158 C369.92,259.4558 380.65,274.9458 389.11,287.9758 " fill="none" id="db-&gt;info.stats" style="stroke: #A80036; stroke-width: 1.0;"/><polygon fill="#A80036" points="391.88,292.2958,390.3696,282.5635,389.1726,288.0923,383.6438,286.8953,391.88,292.2958" style="stroke: #A80036; stroke-width: 1.0;"/><text fill="#000000" font-family="sans-serif" font-size="13" lengthAdjust="spacingAndGlyphs" textLength="44" x="353" y="234.4129">models</text><!--MD5=[50f2eaf41e5fae21dc4d221100f17a6c]
link info.listPens to screen--><path d="M99.88,340.6258 C109.03,348.6158 119.68,357.3558 130,364.5158 C152.93,380.4158 180.31,395.6358 202.26,407.0158 " fill="none" id="info.listPens-&gt;screen" style="stroke: #A80036; stroke-width: 1.0;"/><polygon fill="#A80036" points="206.86,409.3858,200.7064,401.696,202.4197,407.0872,197.0286,408.8005,206.86,409.3858" style="stroke: #A80036; stroke-width: 1.0;"/><!--MD5=[bc7eb2e7580a1926d842b2d122b5f6d5]
link info.position to screen--><path d="M197.88,340.6358 C206.64,357.6858 218.59,380.9558 227.85,398.9758 " fill="none" id="info.position-&gt;screen" style="stroke: #A80036; stroke-width: 1.0;"/><polygon fill="#A80036" points="230.14,403.4358,229.5796,393.6029,227.8526,398.9897,222.4658,397.2628,230.14,403.4358" style="stroke: #A80036; stroke-width: 1.0;"/><!--MD5=[2cd1c58cc2e03f5fc35aa8f0a0efa8ae]
link info.rinkMeta to screen--><path d="M287.7,340.6358 C278.63,357.6858 266.24,380.9558 256.66,398.9758 " fill="none" id="info.rinkMeta-&gt;screen" style="stroke: #A80036; stroke-width: 1.0;"/><polygon fill="#A80036" points="254.28,403.4358,262.0478,397.3809,256.6352,399.0253,254.9908,393.6127,254.28,403.4358" style="stroke: #A80036; stroke-width: 1.0;"/><!--MD5=[5f987afd3f9b73312d960c123e60bff4]
link info.stats to screen--><path d="M385.25,340.9658 C377.48,348.9858 368.28,357.6558 359,364.5158 C334.99,382.2558 305.24,397.9458 281.75,409.1058 " fill="none" id="info.stats-&gt;screen" style="stroke: #A80036; stroke-width: 1.0;"/><polygon fill="#A80036" points="277.13,411.2758,286.9767,411.0674,281.6551,409.1489,283.5736,403.8273,277.13,411.2758" style="stroke: #A80036; stroke-width: 1.0;"/><!--MD5=[ebc22b43c7258c835f6dc2436f6b7e39]
@startUML

title: Info

class info.listPens
class info.position
class info.rinkMeta
class info.stats

class recurrink
class screen
class db

recurrink - -> db
db - -> info.listPens: pens
db - -> info.position: block pos
db - -> info.rinkMeta: rink data
db - -> info.stats: models

info.listPens - -> screen
info.position - -> screen
info.rinkMeta - -> screen
info.stats - -> screen

@endUML

PlantUML version 1.2020.02(Sun Mar 01 11:22:07 CET 2020)
(GPL source distribution)
Java Runtime: OpenJDK Runtime Environment
JVM: OpenJDK 64-Bit Server VM
Java Version: 21.0.10+7-Ubuntu-124.04
Operating System: Linux
Default Encoding: UTF-8
Language: en
Country: US
--></g></svg>