<?xml version="1.0" encoding="UTF-8" standalone="no"?><svg xmlns="http://www.w3.org/2000/svg" xmlns:xlink="http://www.w3.org/1999/xlink" contentScriptType="application/ecmascript" contentStyleType="text/css" height="480px" preserveAspectRatio="none" style="width:271px;height:480px;" version="1.1" viewBox="0 0 271 480" width="271px" zoomAndPan="magnify"><defs><filter height="300%" id="fpaqb1080zhik" width="300%" x="-1" y="-1"><feGaussianBlur result="blurOut" stdDeviation="2.0"/><feColorMatrix in="blurOut" result="blurOut2" type="matrix" values="0 0 0 0 0 0 0 0 0 0 0 0 0 0 0 0 0 0 .4 0"/><feOffset dx="4.0" dy="4.0" in="blurOut2" result="blurOut3"/><feBlend in="SourceGraphic" in2="blurOut3" mode="normal"/></filter></defs><g><text fill="#000000" font-family="sans-serif" font-size="18" lengthAdjust="spacingAndGlyphs" textLength="29" x="127" y="19.2419">Init</text><!--MD5=[62e981aedead5d296a0ed090cac6c220]
cluster init--><polygon fill="#FFFFFF" filter="url(#fpaqb1080zhik)" points="22,127.5158,51,127.5158,58,152.5838,249,152.5838,249,356.5158,22,356.5158,22,127.5158" style="stroke: #000000; stroke-width: 1.5;"/><line style="stroke: #000000; stroke-width: 1.5;" x1="22" x2="58" y1="152.5838" y2="152.5838"/><text fill="#000000" font-family="sans-serif" font-size="14" font-weight="bold" lengthAdjust="spacingAndGlyphs" textLength="23" x="26" y="144.4818">init</text><!--MD5=[e2b7988b305c27e06dd92bfb427e348d]
class init.setInput--><rect fill="#FEFECE" filter="url(#fpaqb1080zhik)" height="48" id="init.setInput" style="stroke: #A80036; stroke-width: 1.5;" width="78" x="155" y="165.5158"/><ellipse cx="170" cy="181.5158" fill="#ADD1B2" rx="11" ry="11" style="stroke: #A80036; stroke-width: 1.0;"/><path d="M172.9688,187.1565 Q172.3906,187.4533 171.75,187.594 Q171.1094,187.7502 170.4063,187.7502 Q167.9063,187.7502 166.5781,186.1096 Q165.2656,184.4533 165.2656,181.3283 Q165.2656,178.2033 166.5781,176.5471 Q167.9063,174.8908 170.4063,174.8908 Q171.1094,174.8908 171.75,175.0471 Q172.4063,175.2033 172.9688,175.5002 L172.9688,178.219 Q172.3438,177.6408 171.75,177.3752 Q171.1563,177.094 170.5313,177.094 Q169.1875,177.094 168.5,178.1721 Q167.8125,179.2346 167.8125,181.3283 Q167.8125,183.4221 168.5,184.5002 Q169.1875,185.5627 170.5313,185.5627 Q171.1563,185.5627 171.75,185.2971 Q172.3438,185.0158 172.9688,184.4377 L172.9688,187.1565 Z "/><text fill="#000000" font-family="sans-serif" font-size="12" lengthAdjust="spacingAndGlyphs" textLength="46" x="184" y="186.1719">setInput</text><line style="stroke: #A80036; stroke-width: 1.5;" x1="156" x2="232" y1="197.5158" y2="197.5158"/><line style="stroke: #A80036; stroke-width: 1.5;" x1="156" x2="232" y1="205.5158" y2="205.5158"/><!--MD5=[f5e5339e4d8a29b4671da84e3cc39a41]
class init.compass--><rect fill="#FEFECE" filter="url(#fpaqb1080zhik)" height="48" id="init.compass" style="stroke: #A80036; stroke-width: 1.5;" width="82" x="38" y="165.5158"/><ellipse cx="53" cy="181.5158" fill="#ADD1B2" rx="11" ry="11" style="stroke: #A80036; stroke-width: 1.0;"/><path d="M55.9688,187.1565 Q55.3906,187.4533 54.75,187.594 Q54.1094,187.7502 53.4063,187.7502 Q50.9063,187.7502 49.5781,186.1096 Q48.2656,184.4533 48.2656,181.3283 Q48.2656,178.2033 49.5781,176.5471 Q50.9063,174.8908 53.4063,174.8908 Q54.1094,174.8908 54.75,175.0471 Q55.4063,175.2033 55.9688,175.5002 L55.9688,178.219 Q55.3438,177.6408 54.75,177.3752 Q54.1563,177.094 53.5313,177.094 Q52.1875,177.094 51.5,178.1721 Q50.8125,179.2346 50.8125,181.3283 Q50.8125,183.4221 51.5,184.5002 Q52.1875,185.5627 53.5313,185.5627 Q54.1563,185.5627 54.75,185.2971 Q55.3438,185.0158 55.9688,184.4377 L55.9688,187.1565 Z "/><text fill="#000000" font-family="sans-serif" font-size="12" lengthAdjust="spacingAndGlyphs" textLength="50" x="67" y="186.1719">compass</text><line style="stroke: #A80036; stroke-width: 1.5;" x1="39" x2="119" y1="197.5158" y2="197.5158"/><line style="stroke: #A80036; stroke-width: 1.5;" x1="39" x2="119" y1="205.5158" y2="205.5158"/><!--MD5=[77844c14b2ca3a81b70fe3147ecd6657]
class init.generate--><rect fill="#FEFECE" filter="url(#fpaqb1080zhik)" height="48" id="init.generate" style="stroke: #A80036; stroke-width: 1.5;" width="83" x="75.5" y="292.5158"/><ellipse cx="90.5" cy="308.5158" fill="#ADD1B2" rx="11" ry="11" style="stroke: #A80036; stroke-width: 1.0;"/><path d="M93.4688,314.1565 Q92.8906,314.4533 92.25,314.594 Q91.6094,314.7502 90.9063,314.7502 Q88.4063,314.7502 87.0781,313.1096 Q85.7656,311.4533 85.7656,308.3283 Q85.7656,305.2033 87.0781,303.5471 Q88.4063,301.8908 90.9063,301.8908 Q91.6094,301.8908 92.25,302.0471 Q92.9063,302.2033 93.4688,302.5002 L93.4688,305.219 Q92.8438,304.6408 92.25,304.3752 Q91.6563,304.094 91.0313,304.094 Q89.6875,304.094 89,305.1721 Q88.3125,306.2346 88.3125,308.3283 Q88.3125,310.4221 89,311.5002 Q89.6875,312.5627 91.0313,312.5627 Q91.6563,312.5627 92.25,312.2971 Q92.8438,312.0158 93.4688,311.4377 L93.4688,314.1565 Z "/><text fill="#000000" font-family="sans-serif" font-size="12" lengthAdjust="spacingAndGlyphs" textLength="51" x="104.5" y="313.1719">generate</text><line style="stroke: #A80036; stroke-width: 1.5;" x1="76.5" x2="157.5" y1="324.5158" y2="324.5158"/><line style="stroke: #A80036; stroke-width: 1.5;" x1="76.5" x2="157.5" y1="332.5158" y2="332.5158"/><!--MD5=[d73585d71b2748f54a72687d17b93a91]
class file--><rect fill="#FEFECE" filter="url(#fpaqb1080zhik)" height="48" id="file" style="stroke: #A80036; stroke-width: 1.5;" width="49" x="92.5" y="421.5158"/><ellipse cx="107.5" cy="437.5158" fill="#ADD1B2" rx="11" ry="11" style="stroke: #A80036; stroke-width: 1.0;"/><path d="M110.4688,443.1565 Q109.8906,443.4533 109.25,443.594 Q108.6094,443.7502 107.9063,443.7502 Q105.4063,443.7502 104.0781,442.1096 Q102.7656,440.4533 102.7656,437.3283 Q102.7656,434.2033 104.0781,432.5471 Q105.4063,430.8908 107.9063,430.8908 Q108.6094,430.8908 109.25,431.0471 Q109.9063,431.2033 110.4688,431.5002 L110.4688,434.219 Q109.8438,433.6408 109.25,433.3752 Q108.6563,433.094 108.0313,433.094 Q106.6875,433.094 106,434.1721 Q105.3125,435.2346 105.3125,437.3283 Q105.3125,439.4221 106,440.5002 Q106.6875,441.5627 108.0313,441.5627 Q108.6563,441.5627 109.25,441.2971 Q109.8438,441.0158 110.4688,440.4377 L110.4688,443.1565 Z "/><text fill="#000000" font-family="sans-serif" font-size="12" lengthAdjust="spacingAndGlyphs" textLength="17" x="121.5" y="442.1719">file</text><line style="stroke: #A80036; stroke-width: 1.5;" x1="93.5" x2="140.5" y1="453.5158" y2="453.5158"/><line style="stroke: #A80036; stroke-width: 1.5;" x1="93.5" x2="140.5" y1="461.5158" y2="461.5158"/><!--MD5=[fb21a71b7e05bea158347acc63640bf6]
class recurrink--><rect fill="#FEFECE" filter="url(#fpaqb1080zhik)" height="48" id="recurrink" style="stroke: #A80036; stroke-width: 1.5;" width="83" x="152.5" y="32.5158"/><ellipse cx="167.5" cy="48.5158" fill="#ADD1B2" rx="11" ry="11" style="stroke: #A80036; stroke-width: 1.0;"/><path d="M170.4688,54.1565 Q169.8906,54.4533 169.25,54.594 Q168.6094,54.7502 167.9063,54.7502 Q165.4063,54.7502 164.0781,53.1096 Q162.7656,51.4533 162.7656,48.3283 Q162.7656,45.2033 164.0781,43.5471 Q165.4063,41.8908 167.9063,41.8908 Q168.6094,41.8908 169.25,42.0471 Q169.9063,42.2033 170.4688,42.5002 L170.4688,45.219 Q169.8438,44.6408 169.25,44.3752 Q168.6563,44.094 168.0313,44.094 Q166.6875,44.094 166,45.1721 Q165.3125,46.2346 165.3125,48.3283 Q165.3125,50.4221 166,51.5002 Q166.6875,52.5627 168.0313,52.5627 Q168.6563,52.5627 169.25,52.2971 Q169.8438,52.0158 170.4688,51.4377 L170.4688,54.1565 Z "/><text fill="#000000" font-family="sans-serif" font-size="12" lengthAdjust="spacingAndGlyphs" textLength="51" x="181.5" y="53.1719">recurrink</text><line style="stroke: #A80036; stroke-width: 1.5;" x1="153.5" x2="234.5" y1="64.5158" y2="64.5158"/><line style="stroke: #A80036; stroke-width: 1.5;" x1="153.5" x2="234.5" y1="72.5158" y2="72.5158"/><!--MD5=[f79054533f9ea791f63ae6517ec32e2f]
link recurrink to init.setInput--><path d="M194,80.6358 C194,102.7558 194,136.1958 194,159.9658 " fill="none" id="recurrink-&gt;init.setInput" style="stroke: #A80036; stroke-width: 1.0;"/><polygon fill="#A80036" points="194,165.1858,198,156.1858,194,160.1858,190,156.1858,194,165.1858" style="stroke: #A80036; stroke-width: 1.0;"/><!--MD5=[955e37b81fc9e33dbedf2878ff0ae49d]
link init.setInput to init.generate--><path d="M179.7,213.7358 C166.73,234.7858 147.61,265.8258 133.89,288.0958 " fill="none" id="init.setInput-&gt;init.generate" style="stroke: #A80036; stroke-width: 1.0;"/><polygon fill="#A80036" points="131.23,292.4258,139.3618,286.8695,133.8569,288.1715,132.5548,282.6665,131.23,292.4258" style="stroke: #A80036; stroke-width: 1.0;"/><text fill="#000000" font-family="sans-serif" font-size="13" lengthAdjust="spacingAndGlyphs" textLength="76" x="162" y="258.4129">pens models</text><!--MD5=[7d2a664b8f1d4ca096f341138d8112f2]
link init.compass to init.generate--><path d="M72.25,213.5358 C69.18,228.0058 67.34,246.8258 73,262.5158 C76.36,271.8158 82.14,280.6358 88.42,288.3258 " fill="none" id="init.compass-&gt;init.generate" style="stroke: #A80036; stroke-width: 1.0;"/><polygon fill="#A80036" points="91.95,292.4658,89.1504,283.0233,88.7043,288.6625,83.0651,288.2164,91.95,292.4658" style="stroke: #A80036; stroke-width: 1.0;"/><text fill="#000000" font-family="sans-serif" font-size="13" lengthAdjust="spacingAndGlyphs" textLength="37" x="74" y="258.4129">config</text><!--MD5=[d5773bd36973386a259f96926d0c38fa]
link init.generate to file--><path d="M117,340.8058 C117,362.0258 117,393.4058 117,416.0958 " fill="none" id="init.generate-&gt;file" style="stroke: #A80036; stroke-width: 1.0;"/><polygon fill="#A80036" points="117,421.3658,121,412.3658,117,416.3658,113,412.3658,117,421.3658" style="stroke: #A80036; stroke-width: 1.0;"/><text fill="#000000" font-family="sans-serif" font-size="13" lengthAdjust="spacingAndGlyphs" textLength="53" x="118" y="387.4129">rink data</text><!--MD5=[204853f5c4065f552bf61ec0fba3188d]
@startUML

title: Init

class init.setInput
class init.compass

class file
class recurrink


recurrink - -> init.setInput
init.setInput - -> init.generate: pens models
init.compass - -> init.generate: config
init.generate - -> file: rink data

@endUML

PlantUML version 1.2020.02(Sun Mar 01 11:22:07 CET 2020)
(GPL source distribution)
Java Runtime: OpenJDK Runtime Environment
JVM: OpenJDK 64-Bit Server VM
Java Version: 21.0.10+7-Ubuntu-124.04
Operating System: Linux
Default Encoding: UTF-8
Language: en
Country: US
--></g></svg>