<svg xmlns="http://www.w3.org/2000/svg" xmlns:xlink="http://www.w3.org/1999/xlink" contentStyleType="text/css" data-diagram-type="CLASS" height="658px" preserveAspectRatio="none" style="width:242px;height:658px;background:#FFFFFF;" version="1.1" viewBox="0 0 242 658" width="242px" zoomAndPan="magnify"><title>Layout</title><defs/><g><text fill="#000000" font-family="sans-serif" font-size="14" font-weight="bold" lengthAdjust="spacing" textLength="48.2718" x="89.8641" y="24.9659">Layout</text><!--cluster cell--><g id="cluster_cell"><path d="M113.5,549.0679 L138.5099,549.0679 A3.75,3.75 0 0 1 141.0099,551.5679 L148.0099,574.1358 L232.5,574.1358 A2.5,2.5 0 0 1 235,576.6358 L235,648.5679 A2.5,2.5 0 0 1 232.5,651.0679 L113.5,651.0679 A2.5,2.5 0 0 1 111,648.5679 L111,551.5679 A2.5,2.5 0 0 1 113.5,549.0679 " fill="transparent" style="stroke:#000000;stroke-width:1.5;"/><line style="stroke:#000000;stroke-width:1.5;" x1="111" x2="148.0099" y1="574.1358" y2="574.1358"/><text fill="#000000" font-family="sans-serif" font-size="14" font-weight="bold" lengthAdjust="spacing" textLength="24.0099" x="115" y="566.0339">cell</text></g><!--class Meander--><g id="elem_Meander"><rect fill="#F1F1F1" height="48" id="Meander" rx="2.5" ry="2.5" style="stroke:#181818;stroke-width:0.5;" width="91.3878" x="127.5" y="587.0679"/><ellipse cx="142.5" cy="603.0679" fill="#ADD1B2" rx="11" ry="11" style="stroke:#181818;stroke-width:1;"/><path d="M145.4688,608.7085 Q144.8906,609.0054 144.25,609.146 Q143.6094,609.3023 142.9063,609.3023 Q140.4063,609.3023 139.0781,607.6617 Q137.7656,606.0054 137.7656,602.8804 Q137.7656,599.7554 139.0781,598.0992 Q140.4063,596.4429 142.9063,596.4429 Q143.6094,596.4429 144.25,596.5992 Q144.9063,596.7554 145.4688,597.0523 L145.4688,599.771 Q144.8438,599.1929 144.25,598.9273 Q143.6563,598.646 143.0313,598.646 Q141.6875,598.646 141,599.7242 Q140.3125,600.7867 140.3125,602.8804 Q140.3125,604.9742 141,606.0523 Q141.6875,607.1148 143.0313,607.1148 Q143.6563,607.1148 144.25,606.8492 Q144.8438,606.5679 145.4688,605.9898 L145.4688,608.7085 Z " fill="#000000"/><text fill="#000000" font-family="sans-serif" font-size="14" lengthAdjust="spacing" textLength="59.3878" x="156.5" y="608.4999">Meander</text><line style="stroke:#181818;stroke-width:0.5;" x1="128.5" x2="217.8878" y1="619.0679" y2="619.0679"/><line style="stroke:#181818;stroke-width:0.5;" x1="128.5" x2="217.8878" y1="627.0679" y2="627.0679"/></g><!--class recurrink--><g id="elem_recurrink"><rect fill="#F1F1F1" height="48" id="recurrink" rx="2.5" ry="2.5" style="stroke:#181818;stroke-width:0.5;" width="92.3538" x="7" y="155.0679"/><ellipse cx="22" cy="171.0679" fill="#ADD1B2" rx="11" ry="11" style="stroke:#181818;stroke-width:1;"/><path d="M24.9688,176.7085 Q24.3906,177.0054 23.75,177.146 Q23.1094,177.3023 22.4063,177.3023 Q19.9063,177.3023 18.5781,175.6617 Q17.2656,174.0054 17.2656,170.8804 Q17.2656,167.7554 18.5781,166.0992 Q19.9063,164.4429 22.4063,164.4429 Q23.1094,164.4429 23.75,164.5992 Q24.4063,164.7554 24.9688,165.0523 L24.9688,167.771 Q24.3438,167.1929 23.75,166.9273 Q23.1563,166.646 22.5313,166.646 Q21.1875,166.646 20.5,167.7242 Q19.8125,168.7867 19.8125,170.8804 Q19.8125,172.9742 20.5,174.0523 Q21.1875,175.1148 22.5313,175.1148 Q23.1563,175.1148 23.75,174.8492 Q24.3438,174.5679 24.9688,173.9898 L24.9688,176.7085 Z " fill="#000000"/><text fill="#000000" font-family="sans-serif" font-size="14" lengthAdjust="spacing" textLength="60.3538" x="36" y="176.4999">recurrink</text><line style="stroke:#181818;stroke-width:0.5;" x1="8" x2="98.3538" y1="187.0679" y2="187.0679"/><line style="stroke:#181818;stroke-width:0.5;" x1="8" x2="98.3538" y1="195.0679" y2="195.0679"/></g><!--class LinearSvg--><g id="elem_LinearSvg"><rect fill="#F1F1F1" height="48" id="LinearSvg" rx="2.5" ry="2.5" style="stroke:#181818;stroke-width:0.5;" width="96.5397" x="64.5" y="371.0679"/><ellipse cx="79.5" cy="387.0679" fill="#ADD1B2" rx="11" ry="11" style="stroke:#181818;stroke-width:1;"/><path d="M82.4688,392.7085 Q81.8906,393.0054 81.25,393.146 Q80.6094,393.3023 79.9063,393.3023 Q77.4063,393.3023 76.0781,391.6617 Q74.7656,390.0054 74.7656,386.8804 Q74.7656,383.7554 76.0781,382.0992 Q77.4063,380.4429 79.9063,380.4429 Q80.6094,380.4429 81.25,380.5992 Q81.9063,380.7554 82.4688,381.0523 L82.4688,383.771 Q81.8438,383.1929 81.25,382.9273 Q80.6563,382.646 80.0313,382.646 Q78.6875,382.646 78,383.7242 Q77.3125,384.7867 77.3125,386.8804 Q77.3125,388.9742 78,390.0523 Q78.6875,391.1148 80.0313,391.1148 Q80.6563,391.1148 81.25,390.8492 Q81.8438,390.5679 82.4688,389.9898 L82.4688,392.7085 Z " fill="#000000"/><text fill="#000000" font-family="sans-serif" font-size="14" lengthAdjust="spacing" textLength="64.5397" x="93.5" y="392.4999">LinearSvg</text><line style="stroke:#181818;stroke-width:0.5;" x1="65.5" x2="160.0397" y1="403.0679" y2="403.0679"/><line style="stroke:#181818;stroke-width:0.5;" x1="65.5" x2="160.0397" y1="411.0679" y2="411.0679"/></g><!--class Grid--><g id="elem_Grid"><rect fill="#F1F1F1" height="48" id="Grid" rx="2.5" ry="2.5" style="stroke:#181818;stroke-width:0.5;" width="60.1959" x="78" y="263.0679"/><ellipse cx="93" cy="279.0679" fill="#ADD1B2" rx="11" ry="11" style="stroke:#181818;stroke-width:1;"/><path d="M95.9688,284.7085 Q95.3906,285.0054 94.75,285.146 Q94.1094,285.3023 93.4063,285.3023 Q90.9063,285.3023 89.5781,283.6617 Q88.2656,282.0054 88.2656,278.8804 Q88.2656,275.7554 89.5781,274.0992 Q90.9063,272.4429 93.4063,272.4429 Q94.1094,272.4429 94.75,272.5992 Q95.4063,272.7554 95.9688,273.0523 L95.9688,275.771 Q95.3438,275.1929 94.75,274.9273 Q94.1563,274.646 93.5313,274.646 Q92.1875,274.646 91.5,275.7242 Q90.8125,276.7867 90.8125,278.8804 Q90.8125,280.9742 91.5,282.0523 Q92.1875,283.1148 93.5313,283.1148 Q94.1563,283.1148 94.75,282.8492 Q95.3438,282.5679 95.9688,281.9898 L95.9688,284.7085 Z " fill="#000000"/><text fill="#000000" font-family="sans-serif" font-size="14" lengthAdjust="spacing" textLength="28.1959" x="107" y="284.4999">Grid</text><line style="stroke:#181818;stroke-width:0.5;" x1="79" x2="137.1959" y1="295.0679" y2="295.0679"/><line style="stroke:#181818;stroke-width:0.5;" x1="79" x2="137.1959" y1="303.0679" y2="303.0679"/></g><!--class Flatten--><g id="elem_Flatten"><rect fill="#F1F1F1" height="48" id="Flatten" rx="2.5" ry="2.5" style="stroke:#181818;stroke-width:0.5;" width="77.3878" x="15.5" y="479.0679"/><ellipse cx="30.5" cy="495.0679" fill="#ADD1B2" rx="11" ry="11" style="stroke:#181818;stroke-width:1;"/><path d="M33.4688,500.7085 Q32.8906,501.0054 32.25,501.146 Q31.6094,501.3023 30.9063,501.3023 Q28.4063,501.3023 27.0781,499.6617 Q25.7656,498.0054 25.7656,494.8804 Q25.7656,491.7554 27.0781,490.0992 Q28.4063,488.4429 30.9063,488.4429 Q31.6094,488.4429 32.25,488.5992 Q32.9063,488.7554 33.4688,489.0523 L33.4688,491.771 Q32.8438,491.1929 32.25,490.9273 Q31.6563,490.646 31.0313,490.646 Q29.6875,490.646 29,491.7242 Q28.3125,492.7867 28.3125,494.8804 Q28.3125,496.9742 29,498.0523 Q29.6875,499.1148 31.0313,499.1148 Q31.6563,499.1148 32.25,498.8492 Q32.8438,498.5679 33.4688,497.9898 L33.4688,500.7085 Z " fill="#000000"/><text fill="#000000" font-family="sans-serif" font-size="14" lengthAdjust="spacing" textLength="45.3878" x="44.5" y="500.4999">Flatten</text><line style="stroke:#181818;stroke-width:0.5;" x1="16.5" x2="91.8878" y1="511.0679" y2="511.0679"/><line style="stroke:#181818;stroke-width:0.5;" x1="16.5" x2="91.8878" y1="519.0679" y2="519.0679"/></g><!--class Geomink--><g id="elem_Geomink"><rect fill="#F1F1F1" height="48" id="Geomink" rx="2.5" ry="2.5" style="stroke:#181818;stroke-width:0.5;" width="91.3878" x="127.5" y="479.0679"/><ellipse cx="142.5" cy="495.0679" fill="#ADD1B2" rx="11" ry="11" style="stroke:#181818;stroke-width:1;"/><path d="M145.4688,500.7085 Q144.8906,501.0054 144.25,501.146 Q143.6094,501.3023 142.9063,501.3023 Q140.4063,501.3023 139.0781,499.6617 Q137.7656,498.0054 137.7656,494.8804 Q137.7656,491.7554 139.0781,490.0992 Q140.4063,488.4429 142.9063,488.4429 Q143.6094,488.4429 144.25,488.5992 Q144.9063,488.7554 145.4688,489.0523 L145.4688,491.771 Q144.8438,491.1929 144.25,490.9273 Q143.6563,490.646 143.0313,490.646 Q141.6875,490.646 141,491.7242 Q140.3125,492.7867 140.3125,494.8804 Q140.3125,496.9742 141,498.0523 Q141.6875,499.1148 143.0313,499.1148 Q143.6563,499.1148 144.25,498.8492 Q144.8438,498.5679 145.4688,497.9898 L145.4688,500.7085 Z " fill="#000000"/><text fill="#000000" font-family="sans-serif" font-size="14" lengthAdjust="spacing" textLength="59.3878" x="156.5" y="500.4999">Geomink</text><line style="stroke:#181818;stroke-width:0.5;" x1="128.5" x2="217.8878" y1="511.0679" y2="511.0679"/><line style="stroke:#181818;stroke-width:0.5;" x1="128.5" x2="217.8878" y1="519.0679" y2="519.0679"/></g><!--class Svg--><g id="elem_Svg"><rect fill="#F1F1F1" height="48" id="Svg" rx="2.5" ry="2.5" style="stroke:#181818;stroke-width:0.5;" width="55.4079" x="173.5" y="263.0679"/><ellipse cx="188.5" cy="279.0679" fill="#ADD1B2" rx="11" ry="11" style="stroke:#181818;stroke-width:1;"/><path d="M191.4688,284.7085 Q190.8906,285.0054 190.25,285.146 Q189.6094,285.3023 188.9063,285.3023 Q186.4063,285.3023 185.0781,283.6617 Q183.7656,282.0054 183.7656,278.8804 Q183.7656,275.7554 185.0781,274.0992 Q186.4063,272.4429 188.9063,272.4429 Q189.6094,272.4429 190.25,272.5992 Q190.9063,272.7554 191.4688,273.0523 L191.4688,275.771 Q190.8438,275.1929 190.25,274.9273 Q189.6563,274.646 189.0313,274.646 Q187.6875,274.646 187,275.7242 Q186.3125,276.7867 186.3125,278.8804 Q186.3125,280.9742 187,282.0523 Q187.6875,283.1148 189.0313,283.1148 Q189.6563,283.1148 190.25,282.8492 Q190.8438,282.5679 191.4688,281.9898 L191.4688,284.7085 Z " fill="#000000"/><text fill="#000000" font-family="sans-serif" font-size="14" lengthAdjust="spacing" textLength="23.4079" x="202.5" y="284.4999">Svg</text><line style="stroke:#181818;stroke-width:0.5;" x1="174.5" x2="227.9079" y1="295.0679" y2="295.0679"/><line style="stroke:#181818;stroke-width:0.5;" x1="174.5" x2="227.9079" y1="303.0679" y2="303.0679"/></g><!--class Layout--><g id="elem_Layout"><rect fill="#F1F1F1" height="48" id="Layout" rx="2.5" ry="2.5" style="stroke:#181818;stroke-width:0.5;" width="76.5058" x="148.5" y="155.0679"/><ellipse cx="163.5" cy="171.0679" fill="#ADD1B2" rx="11" ry="11" style="stroke:#181818;stroke-width:1;"/><path d="M166.4688,176.7085 Q165.8906,177.0054 165.25,177.146 Q164.6094,177.3023 163.9063,177.3023 Q161.4063,177.3023 160.0781,175.6617 Q158.7656,174.0054 158.7656,170.8804 Q158.7656,167.7554 160.0781,166.0992 Q161.4063,164.4429 163.9063,164.4429 Q164.6094,164.4429 165.25,164.5992 Q165.9063,164.7554 166.4688,165.0523 L166.4688,167.771 Q165.8438,167.1929 165.25,166.9273 Q164.6563,166.646 164.0313,166.646 Q162.6875,166.646 162,167.7242 Q161.3125,168.7867 161.3125,170.8804 Q161.3125,172.9742 162,174.0523 Q162.6875,175.1148 164.0313,175.1148 Q164.6563,175.1148 165.25,174.8492 Q165.8438,174.5679 166.4688,173.9898 L166.4688,176.7085 Z " fill="#000000"/><text fill="#000000" font-family="sans-serif" font-size="14" lengthAdjust="spacing" textLength="44.5058" x="177.5" y="176.4999">Layout</text><line style="stroke:#181818;stroke-width:0.5;" x1="149.5" x2="224.0058" y1="187.0679" y2="187.0679"/><line style="stroke:#181818;stroke-width:0.5;" x1="149.5" x2="224.0058" y1="195.0679" y2="195.0679"/></g><!--class Shapes--><g id="elem_Shapes"><rect fill="#F1F1F1" height="48" id="Shapes" rx="2.5" ry="2.5" style="stroke:#181818;stroke-width:0.5;" width="79.4038" x="147.5" y="47.0679"/><ellipse cx="162.5" cy="63.0679" fill="#ADD1B2" rx="11" ry="11" style="stroke:#181818;stroke-width:1;"/><path d="M165.4688,68.7085 Q164.8906,69.0054 164.25,69.146 Q163.6094,69.3023 162.9063,69.3023 Q160.4063,69.3023 159.0781,67.6617 Q157.7656,66.0054 157.7656,62.8804 Q157.7656,59.7554 159.0781,58.0992 Q160.4063,56.4429 162.9063,56.4429 Q163.6094,56.4429 164.25,56.5992 Q164.9063,56.7554 165.4688,57.0523 L165.4688,59.771 Q164.8438,59.1929 164.25,58.9273 Q163.6563,58.646 163.0313,58.646 Q161.6875,58.646 161,59.7242 Q160.3125,60.7867 160.3125,62.8804 Q160.3125,64.9742 161,66.0523 Q161.6875,67.1148 163.0313,67.1148 Q163.6563,67.1148 164.25,66.8492 Q164.8438,66.5679 165.4688,65.9898 L165.4688,68.7085 Z " fill="#000000"/><text fill="#000000" font-family="sans-serif" font-size="14" lengthAdjust="spacing" textLength="47.4038" x="176.5" y="68.4999">Shapes</text><line style="stroke:#181818;stroke-width:0.5;" x1="148.5" x2="225.9038" y1="79.0679" y2="79.0679"/><line style="stroke:#181818;stroke-width:0.5;" x1="148.5" x2="225.9038" y1="87.0679" y2="87.0679"/></g><!--link recurrink to LinearSvg--><g id="link_recurrink_LinearSvg"><path codeLine="6" d="M50.73,203.4279 C48.93,230.1379 48.37,274.8579 60,311.0679 C67.11,333.2079 77.9934,350.4756 90.0334,366.2756 " fill="transparent" id="recurrink-to-LinearSvg" style="stroke:#181818;stroke-width:1;"/><polygon fill="#181818" points="93.67,371.0479,91.3966,361.465,90.6395,367.071,85.0335,366.3139,93.67,371.0479" style="stroke:#181818;stroke-width:1;"/></g><!--link recurrink to Grid--><g id="link_recurrink_Grid"><path codeLine="7" d="M64.93,203.0679 C74.1,220.7279 83.9377,239.6816 93.1377,257.4216 " fill="transparent" id="recurrink-to-Grid" style="stroke:#181818;stroke-width:1;"/><polygon fill="#181818" points="95.9,262.7479,95.3075,252.9169,93.5981,258.3093,88.2057,256.5999,95.9,262.7479" style="stroke:#181818;stroke-width:1;"/></g><!--link LinearSvg to Flatten--><g id="link_LinearSvg_Flatten"><path codeLine="8" d="M100.2,419.0679 C90.37,436.7279 79.7671,455.7648 69.8971,473.5048 " fill="transparent" id="LinearSvg-to-Flatten" style="stroke:#181818;stroke-width:1;"/><polygon fill="#181818" points="66.98,478.7479,74.8511,472.828,69.4109,474.3786,67.8603,468.9385,66.98,478.7479" style="stroke:#181818;stroke-width:1;"/></g><!--link LinearSvg to Geomink--><g id="link_LinearSvg_Geomink"><path codeLine="9" d="M126.02,419.0679 C136.01,436.7279 146.8047,455.7862 156.8447,473.5262 " fill="transparent" id="LinearSvg-to-Geomink" style="stroke:#181818;stroke-width:1;"/><polygon fill="#181818" points="159.8,478.7479,158.8483,468.9452,157.3373,474.3965,151.886,472.8855,159.8,478.7479" style="stroke:#181818;stroke-width:1;"/></g><!--link Geomink to Meander--><g id="link_Geomink_Meander"><path codeLine="10" d="M173,527.0679 C173,544.7279 173,563.0079 173,580.7479 " fill="transparent" id="Geomink-to-Meander" style="stroke:#181818;stroke-width:1;"/><polygon fill="#181818" points="173,586.7479,177,577.7479,173,581.7479,169,577.7479,173,586.7479" style="stroke:#181818;stroke-width:1;"/></g><!--reverse link Svg to LinearSvg--><g id="link_Svg_LinearSvg"><path codeLine="12" d="M170.4129,324.9177 C155.7529,342.5777 147.09,353.0079 132.36,370.7479 " fill="transparent" id="Svg-backto-LinearSvg" style="stroke:#181818;stroke-width:1;stroke-dasharray:7.0,7.0;"/><polygon fill="transparent" points="181.91,311.0679,165.7963,321.0854,175.0295,328.7501,181.91,311.0679" style="stroke:#181818;stroke-width:1;"/></g><!--reverse link Layout to Grid--><g id="link_Layout_Grid"><path codeLine="13" d="M159.1045,217.5012 C145.9445,235.1612 138.6,245.0079 125.38,262.7479 " fill="transparent" id="Layout-backto-Grid" style="stroke:#181818;stroke-width:1;stroke-dasharray:7.0,7.0;"/><polygon fill="transparent" points="169.86,203.0679,154.2934,213.916,163.9156,221.0864,169.86,203.0679" style="stroke:#181818;stroke-width:1;"/></g><!--reverse link Layout to Svg--><g id="link_Layout_Svg"><path codeLine="14" d="M192.3945,220.9133 C194.7245,238.5733 195.58,245.0079 197.92,262.7479 " fill="transparent" id="Layout-backto-Svg" style="stroke:#181818;stroke-width:1;stroke-dasharray:7.0,7.0;"/><polygon fill="transparent" points="190.04,203.0679,186.446,221.6981,198.3429,220.1284,190.04,203.0679" style="stroke:#181818;stroke-width:1;"/></g><!--reverse link Shapes to Layout--><g id="link_Shapes_Layout"><path codeLine="16" d="M187,113.0679 C187,130.7279 187,137.0079 187,154.7479 " fill="transparent" id="Shapes-backto-Layout" style="stroke:#181818;stroke-width:1;stroke-dasharray:7.0,7.0;"/><polygon fill="transparent" points="187,95.0679,181,113.0679,193,113.0679,187,95.0679" style="stroke:#181818;stroke-width:1;"/></g><!--SRC=[NOwz2iCm38HtFOMsJlO3bD2nMT8fJs0IqOZQIb2TGg0FN_-4jaIBuBixxY97JsVit3Ql4U24B1CfHqpNlAt5ZCBYAP0as1W3e3IigYmFDEQ27GivxL_t0s-LH_YA1LszYv7aG5kQGmh1_bDnfWDvRs_aP2G5oDuovzTM9rTQk_v0Da0_kOMUUww87m00]--></g></svg>