<svg xmlns="http://www.w3.org/2000/svg" xmlns:xlink="http://www.w3.org/1999/xlink" contentStyleType="text/css" data-diagram-type="CLASS" height="695px" preserveAspectRatio="none" style="width:1217px;height:695px;background:#FFFFFF;" version="1.1" viewBox="0 0 1217 695" width="1217px" zoomAndPan="magnify"><title>Layout</title><defs/><g><text fill="#000000" font-family="sans-serif" font-size="14" font-weight="bold" lengthAdjust="spacing" textLength="48.2718" x="577.3641" y="24.9659">Layout</text><!--cluster model--><g id="cluster_model"><path d="M8.5,46.6699 L53.3198,46.6699 A3.75,3.75 0 0 1 55.8198,49.1699 L62.8198,71.7378 L237.5,71.7378 A2.5,2.5 0 0 1 240,74.2378 L240,362.1699 A2.5,2.5 0 0 1 237.5,364.6699 L8.5,364.6699 A2.5,2.5 0 0 1 6,362.1699 L6,49.1699 A2.5,2.5 0 0 1 8.5,46.6699 " fill="transparent" style="stroke:#000000;stroke-width:1.5;"/><line style="stroke:#000000;stroke-width:1.5;" x1="6" x2="62.8198" y1="71.7378" y2="71.7378"/><text fill="#000000" font-family="sans-serif" font-size="14" font-weight="bold" lengthAdjust="spacing" textLength="43.8198" x="10" y="63.6358">model</text></g><!--cluster block--><g id="cluster_block"><path d="M420.5,262.6699 L459.1739,262.6699 A3.75,3.75 0 0 1 461.6739,265.1699 L468.6739,287.7378 L926.5,287.7378 A2.5,2.5 0 0 1 929,290.2378 L929,470.1699 A2.5,2.5 0 0 1 926.5,472.6699 L420.5,472.6699 A2.5,2.5 0 0 1 418,470.1699 L418,265.1699 A2.5,2.5 0 0 1 420.5,262.6699 " fill="transparent" style="stroke:#000000;stroke-width:1.5;"/><line style="stroke:#000000;stroke-width:1.5;" x1="418" x2="468.6739" y1="287.7378" y2="287.7378"/><text fill="#000000" font-family="sans-serif" font-size="14" font-weight="bold" lengthAdjust="spacing" textLength="37.6739" x="422" y="279.6358">block</text></g><!--cluster cell--><g id="cluster_cell"><path d="M955.5,262.6699 L980.5099,262.6699 A3.75,3.75 0 0 1 983.0099,265.1699 L990.0099,287.7378 L1207.5,287.7378 A2.5,2.5 0 0 1 1210,290.2378 L1210,686.1699 A2.5,2.5 0 0 1 1207.5,688.6699 L955.5,688.6699 A2.5,2.5 0 0 1 953,686.1699 L953,265.1699 A2.5,2.5 0 0 1 955.5,262.6699 " fill="transparent" style="stroke:#000000;stroke-width:1.5;"/><line style="stroke:#000000;stroke-width:1.5;" x1="953" x2="990.0099" y1="287.7378" y2="287.7378"/><text fill="#000000" font-family="sans-serif" font-size="14" font-weight="bold" lengthAdjust="spacing" textLength="24.0099" x="957" y="279.6358">cell</text></g><!--class LinearSvg--><g id="elem_LinearSvg"><rect fill="#F1F1F1" height="48" id="LinearSvg" rx="2.5" ry="2.5" style="stroke:#181818;stroke-width:0.5;" width="96.5397" x="127.5" y="300.6699"/><ellipse cx="142.5" cy="316.6699" fill="#ADD1B2" rx="11" ry="11" style="stroke:#181818;stroke-width:1;"/><path d="M145.4688,322.3105 Q144.8906,322.6074 144.25,322.748 Q143.6094,322.9043 142.9063,322.9043 Q140.4063,322.9043 139.0781,321.2636 Q137.7656,319.6074 137.7656,316.4824 Q137.7656,313.3574 139.0781,311.7011 Q140.4063,310.0449 142.9063,310.0449 Q143.6094,310.0449 144.25,310.2011 Q144.9063,310.3574 145.4688,310.6543 L145.4688,313.373 Q144.8438,312.7949 144.25,312.5293 Q143.6563,312.248 143.0313,312.248 Q141.6875,312.248 141,313.3261 Q140.3125,314.3886 140.3125,316.4824 Q140.3125,318.5761 141,319.6543 Q141.6875,320.7168 143.0313,320.7168 Q143.6563,320.7168 144.25,320.4511 Q144.8438,320.1699 145.4688,319.5918 L145.4688,322.3105 Z " fill="#000000"/><text fill="#000000" font-family="sans-serif" font-size="14" lengthAdjust="spacing" textLength="64.5397" x="156.5" y="322.1019">LinearSvg</text><line style="stroke:#181818;stroke-width:0.5;" x1="128.5" x2="223.0397" y1="332.6699" y2="332.6699"/><line style="stroke:#181818;stroke-width:0.5;" x1="128.5" x2="223.0397" y1="340.6699" y2="340.6699"/></g><!--class Svg--><g id="elem_Svg"><rect fill="#F1F1F1" height="48" id="Svg" rx="2.5" ry="2.5" style="stroke:#181818;stroke-width:0.5;" width="55.4079" x="130.5" y="192.6699"/><ellipse cx="145.5" cy="208.6699" fill="#ADD1B2" rx="11" ry="11" style="stroke:#181818;stroke-width:1;"/><path d="M148.4688,214.3105 Q147.8906,214.6074 147.25,214.748 Q146.6094,214.9043 145.9063,214.9043 Q143.4063,214.9043 142.0781,213.2636 Q140.7656,211.6074 140.7656,208.4824 Q140.7656,205.3574 142.0781,203.7011 Q143.4063,202.0449 145.9063,202.0449 Q146.6094,202.0449 147.25,202.2011 Q147.9063,202.3574 148.4688,202.6543 L148.4688,205.373 Q147.8438,204.7949 147.25,204.5293 Q146.6563,204.248 146.0313,204.248 Q144.6875,204.248 144,205.3261 Q143.3125,206.3886 143.3125,208.4824 Q143.3125,210.5761 144,211.6543 Q144.6875,212.7168 146.0313,212.7168 Q146.6563,212.7168 147.25,212.4511 Q147.8438,212.1699 148.4688,211.5918 L148.4688,214.3105 Z " fill="#000000"/><text fill="#000000" font-family="sans-serif" font-size="14" lengthAdjust="spacing" textLength="23.4079" x="159.5" y="214.1019">Svg</text><line style="stroke:#181818;stroke-width:0.5;" x1="131.5" x2="184.9079" y1="224.6699" y2="224.6699"/><line style="stroke:#181818;stroke-width:0.5;" x1="131.5" x2="184.9079" y1="232.6699" y2="232.6699"/></g><!--class Views--><g id="elem_Views"><rect fill="#F1F1F1" height="48" id="Views" rx="2.5" ry="2.5" style="stroke:#181818;stroke-width:0.5;" width="69.6178" x="22" y="300.6699"/><ellipse cx="37" cy="316.6699" fill="#ADD1B2" rx="11" ry="11" style="stroke:#181818;stroke-width:1;"/><path d="M39.9688,322.3105 Q39.3906,322.6074 38.75,322.748 Q38.1094,322.9043 37.4063,322.9043 Q34.9063,322.9043 33.5781,321.2636 Q32.2656,319.6074 32.2656,316.4824 Q32.2656,313.3574 33.5781,311.7011 Q34.9063,310.0449 37.4063,310.0449 Q38.1094,310.0449 38.75,310.2011 Q39.4063,310.3574 39.9688,310.6543 L39.9688,313.373 Q39.3438,312.7949 38.75,312.5293 Q38.1563,312.248 37.5313,312.248 Q36.1875,312.248 35.5,313.3261 Q34.8125,314.3886 34.8125,316.4824 Q34.8125,318.5761 35.5,319.6543 Q36.1875,320.7168 37.5313,320.7168 Q38.1563,320.7168 38.75,320.4511 Q39.3438,320.1699 39.9688,319.5918 L39.9688,322.3105 Z " fill="#000000"/><text fill="#000000" font-family="sans-serif" font-size="14" lengthAdjust="spacing" textLength="37.6178" x="51" y="322.1019">Views</text><line style="stroke:#181818;stroke-width:0.5;" x1="23" x2="90.6178" y1="332.6699" y2="332.6699"/><line style="stroke:#181818;stroke-width:0.5;" x1="23" x2="90.6178" y1="340.6699" y2="340.6699"/></g><!--class Layout--><g id="elem_Layout"><rect fill="#F1F1F1" height="48" id="Layout" rx="2.5" ry="2.5" style="stroke:#181818;stroke-width:0.5;" width="76.5058" x="119.5" y="84.6699"/><ellipse cx="134.5" cy="100.6699" fill="#ADD1B2" rx="11" ry="11" style="stroke:#181818;stroke-width:1;"/><path d="M137.4688,106.3105 Q136.8906,106.6074 136.25,106.748 Q135.6094,106.9043 134.9063,106.9043 Q132.4063,106.9043 131.0781,105.2636 Q129.7656,103.6074 129.7656,100.4824 Q129.7656,97.3574 131.0781,95.7011 Q132.4063,94.0449 134.9063,94.0449 Q135.6094,94.0449 136.25,94.2011 Q136.9063,94.3574 137.4688,94.6543 L137.4688,97.373 Q136.8438,96.7949 136.25,96.5293 Q135.6563,96.248 135.0313,96.248 Q133.6875,96.248 133,97.3261 Q132.3125,98.3886 132.3125,100.4824 Q132.3125,102.5761 133,103.6543 Q133.6875,104.7168 135.0313,104.7168 Q135.6563,104.7168 136.25,104.4511 Q136.8438,104.1699 137.4688,103.5918 L137.4688,106.3105 Z " fill="#000000"/><text fill="#000000" font-family="sans-serif" font-size="14" lengthAdjust="spacing" textLength="44.5058" x="148.5" y="106.1019">Layout</text><line style="stroke:#181818;stroke-width:0.5;" x1="120.5" x2="195.0058" y1="116.6699" y2="116.6699"/><line style="stroke:#181818;stroke-width:0.5;" x1="120.5" x2="195.0058" y1="124.6699" y2="124.6699"/></g><!--class Db--><g id="elem_Db"><rect fill="#F1F1F1" height="48" id="Db" rx="2.5" ry="2.5" style="stroke:#181818;stroke-width:0.5;" width="50.8299" x="33.5" y="84.6699"/><ellipse cx="48.5" cy="100.6699" fill="#ADD1B2" rx="11" ry="11" style="stroke:#181818;stroke-width:1;"/><path d="M51.4688,106.3105 Q50.8906,106.6074 50.25,106.748 Q49.6094,106.9043 48.9063,106.9043 Q46.4063,106.9043 45.0781,105.2636 Q43.7656,103.6074 43.7656,100.4824 Q43.7656,97.3574 45.0781,95.7011 Q46.4063,94.0449 48.9063,94.0449 Q49.6094,94.0449 50.25,94.2011 Q50.9063,94.3574 51.4688,94.6543 L51.4688,97.373 Q50.8438,96.7949 50.25,96.5293 Q49.6563,96.248 49.0313,96.248 Q47.6875,96.248 47,97.3261 Q46.3125,98.3886 46.3125,100.4824 Q46.3125,102.5761 47,103.6543 Q47.6875,104.7168 49.0313,104.7168 Q49.6563,104.7168 50.25,104.4511 Q50.8438,104.1699 51.4688,103.5918 L51.4688,106.3105 Z " fill="#000000"/><text fill="#000000" font-family="sans-serif" font-size="14" lengthAdjust="spacing" textLength="18.8299" x="62.5" y="106.1019">Db</text><line style="stroke:#181818;stroke-width:0.5;" x1="34.5" x2="83.3299" y1="116.6699" y2="116.6699"/><line style="stroke:#181818;stroke-width:0.5;" x1="34.5" x2="83.3299" y1="124.6699" y2="124.6699"/></g><!--class Model--><g id="elem_Model"><rect fill="#F1F1F1" height="48" id="Model" rx="2.5" ry="2.5" style="stroke:#181818;stroke-width:0.5;" width="73.2858" x="22.5" y="192.6699"/><ellipse cx="37.5" cy="208.6699" fill="#ADD1B2" rx="11" ry="11" style="stroke:#181818;stroke-width:1;"/><path d="M40.4688,214.3105 Q39.8906,214.6074 39.25,214.748 Q38.6094,214.9043 37.9063,214.9043 Q35.4063,214.9043 34.0781,213.2636 Q32.7656,211.6074 32.7656,208.4824 Q32.7656,205.3574 34.0781,203.7011 Q35.4063,202.0449 37.9063,202.0449 Q38.6094,202.0449 39.25,202.2011 Q39.9063,202.3574 40.4688,202.6543 L40.4688,205.373 Q39.8438,204.7949 39.25,204.5293 Q38.6563,204.248 38.0313,204.248 Q36.6875,204.248 36,205.3261 Q35.3125,206.3886 35.3125,208.4824 Q35.3125,210.5761 36,211.6543 Q36.6875,212.7168 38.0313,212.7168 Q38.6563,212.7168 39.25,212.4511 Q39.8438,212.1699 40.4688,211.5918 L40.4688,214.3105 Z " fill="#000000"/><text fill="#000000" font-family="sans-serif" font-size="14" lengthAdjust="spacing" textLength="41.2858" x="51.5" y="214.1019">Model</text><line style="stroke:#181818;stroke-width:0.5;" x1="23.5" x2="94.7858" y1="224.6699" y2="224.6699"/><line style="stroke:#181818;stroke-width:0.5;" x1="23.5" x2="94.7858" y1="232.6699" y2="232.6699"/></g><!--class BlockData--><g id="elem_BlockData"><rect fill="#F1F1F1" height="48" id="BlockData" rx="2.5" ry="2.5" style="stroke:#181818;stroke-width:0.5;" width="98.3597" x="434" y="408.6699"/><ellipse cx="449" cy="424.6699" fill="#ADD1B2" rx="11" ry="11" style="stroke:#181818;stroke-width:1;"/><path d="M451.9688,430.3105 Q451.3906,430.6074 450.75,430.748 Q450.1094,430.9043 449.4063,430.9043 Q446.9063,430.9043 445.5781,429.2636 Q444.2656,427.6074 444.2656,424.4824 Q444.2656,421.3574 445.5781,419.7011 Q446.9063,418.0449 449.4063,418.0449 Q450.1094,418.0449 450.75,418.2011 Q451.4063,418.3574 451.9688,418.6543 L451.9688,421.373 Q451.3438,420.7949 450.75,420.5293 Q450.1563,420.248 449.5313,420.248 Q448.1875,420.248 447.5,421.3261 Q446.8125,422.3886 446.8125,424.4824 Q446.8125,426.5761 447.5,427.6543 Q448.1875,428.7168 449.5313,428.7168 Q450.1563,428.7168 450.75,428.4511 Q451.3438,428.1699 451.9688,427.5918 L451.9688,430.3105 Z " fill="#000000"/><text fill="#000000" font-family="sans-serif" font-size="14" lengthAdjust="spacing" textLength="66.3597" x="463" y="430.1019">BlockData</text><line style="stroke:#181818;stroke-width:0.5;" x1="435" x2="531.3597" y1="440.6699" y2="440.6699"/><line style="stroke:#181818;stroke-width:0.5;" x1="435" x2="531.3597" y1="448.6699" y2="448.6699"/></g><!--class Grid--><g id="elem_Grid"><rect fill="#F1F1F1" height="48" id="Grid" rx="2.5" ry="2.5" style="stroke:#181818;stroke-width:0.5;" width="60.1959" x="570" y="408.6699"/><ellipse cx="585" cy="424.6699" fill="#ADD1B2" rx="11" ry="11" style="stroke:#181818;stroke-width:1;"/><path d="M587.9688,430.3105 Q587.3906,430.6074 586.75,430.748 Q586.1094,430.9043 585.4063,430.9043 Q582.9063,430.9043 581.5781,429.2636 Q580.2656,427.6074 580.2656,424.4824 Q580.2656,421.3574 581.5781,419.7011 Q582.9063,418.0449 585.4063,418.0449 Q586.1094,418.0449 586.75,418.2011 Q587.4063,418.3574 587.9688,418.6543 L587.9688,421.373 Q587.3438,420.7949 586.75,420.5293 Q586.1563,420.248 585.5313,420.248 Q584.1875,420.248 583.5,421.3261 Q582.8125,422.3886 582.8125,424.4824 Q582.8125,426.5761 583.5,427.6543 Q584.1875,428.7168 585.5313,428.7168 Q586.1563,428.7168 586.75,428.4511 Q587.3438,428.1699 587.9688,427.5918 L587.9688,430.3105 Z " fill="#000000"/><text fill="#000000" font-family="sans-serif" font-size="14" lengthAdjust="spacing" textLength="28.1959" x="599" y="430.1019">Grid</text><line style="stroke:#181818;stroke-width:0.5;" x1="571" x2="629.1959" y1="440.6699" y2="440.6699"/><line style="stroke:#181818;stroke-width:0.5;" x1="571" x2="629.1959" y1="448.6699" y2="448.6699"/></g><!--class TmpFile--><g id="elem_TmpFile"><rect fill="#F1F1F1" height="48" id="TmpFile" rx="2.5" ry="2.5" style="stroke:#181818;stroke-width:0.5;" width="83.8698" x="674" y="300.6699"/><ellipse cx="689" cy="316.6699" fill="#ADD1B2" rx="11" ry="11" style="stroke:#181818;stroke-width:1;"/><path d="M691.9688,322.3105 Q691.3906,322.6074 690.75,322.748 Q690.1094,322.9043 689.4063,322.9043 Q686.9063,322.9043 685.5781,321.2636 Q684.2656,319.6074 684.2656,316.4824 Q684.2656,313.3574 685.5781,311.7011 Q686.9063,310.0449 689.4063,310.0449 Q690.1094,310.0449 690.75,310.2011 Q691.4063,310.3574 691.9688,310.6543 L691.9688,313.373 Q691.3438,312.7949 690.75,312.5293 Q690.1563,312.248 689.5313,312.248 Q688.1875,312.248 687.5,313.3261 Q686.8125,314.3886 686.8125,316.4824 Q686.8125,318.5761 687.5,319.6543 Q688.1875,320.7168 689.5313,320.7168 Q690.1563,320.7168 690.75,320.4511 Q691.3438,320.1699 691.9688,319.5918 L691.9688,322.3105 Z " fill="#000000"/><text fill="#000000" font-family="sans-serif" font-size="14" lengthAdjust="spacing" textLength="51.8698" x="703" y="322.1019">TmpFile</text><line style="stroke:#181818;stroke-width:0.5;" x1="675" x2="756.8698" y1="332.6699" y2="332.6699"/><line style="stroke:#181818;stroke-width:0.5;" x1="675" x2="756.8698" y1="340.6699" y2="340.6699"/></g><!--class PaletteMaker--><g id="elem_PaletteMaker"><rect fill="#F1F1F1" height="48" id="PaletteMaker" rx="2.5" ry="2.5" style="stroke:#181818;stroke-width:0.5;" width="119.5417" x="793" y="300.6699"/><ellipse cx="808" cy="316.6699" fill="#ADD1B2" rx="11" ry="11" style="stroke:#181818;stroke-width:1;"/><path d="M810.9688,322.3105 Q810.3906,322.6074 809.75,322.748 Q809.1094,322.9043 808.4063,322.9043 Q805.9063,322.9043 804.5781,321.2636 Q803.2656,319.6074 803.2656,316.4824 Q803.2656,313.3574 804.5781,311.7011 Q805.9063,310.0449 808.4063,310.0449 Q809.1094,310.0449 809.75,310.2011 Q810.4063,310.3574 810.9688,310.6543 L810.9688,313.373 Q810.3438,312.7949 809.75,312.5293 Q809.1563,312.248 808.5313,312.248 Q807.1875,312.248 806.5,313.3261 Q805.8125,314.3886 805.8125,316.4824 Q805.8125,318.5761 806.5,319.6543 Q807.1875,320.7168 808.5313,320.7168 Q809.1563,320.7168 809.75,320.4511 Q810.3438,320.1699 810.9688,319.5918 L810.9688,322.3105 Z " fill="#000000"/><text fill="#000000" font-family="sans-serif" font-size="14" lengthAdjust="spacing" textLength="87.5417" x="822" y="322.1019">PaletteMaker</text><line style="stroke:#181818;stroke-width:0.5;" x1="794" x2="911.5417" y1="332.6699" y2="332.6699"/><line style="stroke:#181818;stroke-width:0.5;" x1="794" x2="911.5417" y1="340.6699" y2="340.6699"/></g><!--class Flatten--><g id="elem_Flatten"><rect fill="#F1F1F1" height="48" id="Flatten" rx="2.5" ry="2.5" style="stroke:#181818;stroke-width:0.5;" width="77.3878" x="561.5" y="300.6699"/><ellipse cx="576.5" cy="316.6699" fill="#ADD1B2" rx="11" ry="11" style="stroke:#181818;stroke-width:1;"/><path d="M579.4688,322.3105 Q578.8906,322.6074 578.25,322.748 Q577.6094,322.9043 576.9063,322.9043 Q574.4063,322.9043 573.0781,321.2636 Q571.7656,319.6074 571.7656,316.4824 Q571.7656,313.3574 573.0781,311.7011 Q574.4063,310.0449 576.9063,310.0449 Q577.6094,310.0449 578.25,310.2011 Q578.9063,310.3574 579.4688,310.6543 L579.4688,313.373 Q578.8438,312.7949 578.25,312.5293 Q577.6563,312.248 577.0313,312.248 Q575.6875,312.248 575,313.3261 Q574.3125,314.3886 574.3125,316.4824 Q574.3125,318.5761 575,319.6543 Q575.6875,320.7168 577.0313,320.7168 Q577.6563,320.7168 578.25,320.4511 Q578.8438,320.1699 579.4688,319.5918 L579.4688,322.3105 Z " fill="#000000"/><text fill="#000000" font-family="sans-serif" font-size="14" lengthAdjust="spacing" textLength="45.3878" x="590.5" y="322.1019">Flatten</text><line style="stroke:#181818;stroke-width:0.5;" x1="562.5" x2="637.8878" y1="332.6699" y2="332.6699"/><line style="stroke:#181818;stroke-width:0.5;" x1="562.5" x2="637.8878" y1="340.6699" y2="340.6699"/></g><!--class Compass--><g id="elem_Compass"><rect fill="#F1F1F1" height="48" id="Compass" rx="2.5" ry="2.5" style="stroke:#181818;stroke-width:0.5;" width="92.2838" x="434" y="300.6699"/><ellipse cx="449" cy="316.6699" fill="#ADD1B2" rx="11" ry="11" style="stroke:#181818;stroke-width:1;"/><path d="M451.9688,322.3105 Q451.3906,322.6074 450.75,322.748 Q450.1094,322.9043 449.4063,322.9043 Q446.9063,322.9043 445.5781,321.2636 Q444.2656,319.6074 444.2656,316.4824 Q444.2656,313.3574 445.5781,311.7011 Q446.9063,310.0449 449.4063,310.0449 Q450.1094,310.0449 450.75,310.2011 Q451.4063,310.3574 451.9688,310.6543 L451.9688,313.373 Q451.3438,312.7949 450.75,312.5293 Q450.1563,312.248 449.5313,312.248 Q448.1875,312.248 447.5,313.3261 Q446.8125,314.3886 446.8125,316.4824 Q446.8125,318.5761 447.5,319.6543 Q448.1875,320.7168 449.5313,320.7168 Q450.1563,320.7168 450.75,320.4511 Q451.3438,320.1699 451.9688,319.5918 L451.9688,322.3105 Z " fill="#000000"/><text fill="#000000" font-family="sans-serif" font-size="14" lengthAdjust="spacing" textLength="60.2838" x="463" y="322.1019">Compass</text><line style="stroke:#181818;stroke-width:0.5;" x1="435" x2="525.2838" y1="332.6699" y2="332.6699"/><line style="stroke:#181818;stroke-width:0.5;" x1="435" x2="525.2838" y1="340.6699" y2="340.6699"/></g><!--class CellData--><g id="elem_CellData"><rect fill="#F1F1F1" height="48" id="CellData" rx="2.5" ry="2.5" style="stroke:#181818;stroke-width:0.5;" width="86.9498" x="1032.5" y="624.6699"/><ellipse cx="1047.5" cy="640.6699" fill="#ADD1B2" rx="11" ry="11" style="stroke:#181818;stroke-width:1;"/><path d="M1050.4688,646.3105 Q1049.8906,646.6074 1049.25,646.748 Q1048.6094,646.9043 1047.9063,646.9043 Q1045.4063,646.9043 1044.0781,645.2636 Q1042.7656,643.6074 1042.7656,640.4824 Q1042.7656,637.3574 1044.0781,635.7011 Q1045.4063,634.0449 1047.9063,634.0449 Q1048.6094,634.0449 1049.25,634.2011 Q1049.9063,634.3574 1050.4688,634.6543 L1050.4688,637.373 Q1049.8438,636.7949 1049.25,636.5293 Q1048.6563,636.248 1048.0313,636.248 Q1046.6875,636.248 1046,637.3261 Q1045.3125,638.3886 1045.3125,640.4824 Q1045.3125,642.5761 1046,643.6543 Q1046.6875,644.7168 1048.0313,644.7168 Q1048.6563,644.7168 1049.25,644.4511 Q1049.8438,644.1699 1050.4688,643.5918 L1050.4688,646.3105 Z " fill="#000000"/><text fill="#000000" font-family="sans-serif" font-size="14" lengthAdjust="spacing" textLength="54.9498" x="1061.5" y="646.1019">CellData</text><line style="stroke:#181818;stroke-width:0.5;" x1="1033.5" x2="1118.4498" y1="656.6699" y2="656.6699"/><line style="stroke:#181818;stroke-width:0.5;" x1="1033.5" x2="1118.4498" y1="664.6699" y2="664.6699"/></g><!--class Geomink--><g id="elem_Geomink"><rect fill="#F1F1F1" height="48" id="Geomink" rx="2.5" ry="2.5" style="stroke:#181818;stroke-width:0.5;" width="91.3878" x="969.5" y="516.6699"/><ellipse cx="984.5" cy="532.6699" fill="#ADD1B2" rx="11" ry="11" style="stroke:#181818;stroke-width:1;"/><path d="M987.4688,538.3105 Q986.8906,538.6074 986.25,538.748 Q985.6094,538.9043 984.9063,538.9043 Q982.4063,538.9043 981.0781,537.2636 Q979.7656,535.6074 979.7656,532.4824 Q979.7656,529.3574 981.0781,527.7011 Q982.4063,526.0449 984.9063,526.0449 Q985.6094,526.0449 986.25,526.2011 Q986.9063,526.3574 987.4688,526.6543 L987.4688,529.373 Q986.8438,528.7949 986.25,528.5293 Q985.6563,528.248 985.0313,528.248 Q983.6875,528.248 983,529.3261 Q982.3125,530.3886 982.3125,532.4824 Q982.3125,534.5761 983,535.6543 Q983.6875,536.7168 985.0313,536.7168 Q985.6563,536.7168 986.25,536.4511 Q986.8438,536.1699 987.4688,535.5918 L987.4688,538.3105 Z " fill="#000000"/><text fill="#000000" font-family="sans-serif" font-size="14" lengthAdjust="spacing" textLength="59.3878" x="998.5" y="538.1019">Geomink</text><line style="stroke:#181818;stroke-width:0.5;" x1="970.5" x2="1059.8878" y1="548.6699" y2="548.6699"/><line style="stroke:#181818;stroke-width:0.5;" x1="970.5" x2="1059.8878" y1="556.6699" y2="556.6699"/></g><!--class Meander--><g id="elem_Meander"><rect fill="#F1F1F1" height="48" id="Meander" rx="2.5" ry="2.5" style="stroke:#181818;stroke-width:0.5;" width="91.3878" x="969.5" y="300.6699"/><ellipse cx="984.5" cy="316.6699" fill="#ADD1B2" rx="11" ry="11" style="stroke:#181818;stroke-width:1;"/><path d="M987.4688,322.3105 Q986.8906,322.6074 986.25,322.748 Q985.6094,322.9043 984.9063,322.9043 Q982.4063,322.9043 981.0781,321.2636 Q979.7656,319.6074 979.7656,316.4824 Q979.7656,313.3574 981.0781,311.7011 Q982.4063,310.0449 984.9063,310.0449 Q985.6094,310.0449 986.25,310.2011 Q986.9063,310.3574 987.4688,310.6543 L987.4688,313.373 Q986.8438,312.7949 986.25,312.5293 Q985.6563,312.248 985.0313,312.248 Q983.6875,312.248 983,313.3261 Q982.3125,314.3886 982.3125,316.4824 Q982.3125,318.5761 983,319.6543 Q983.6875,320.7168 985.0313,320.7168 Q985.6563,320.7168 986.25,320.4511 Q986.8438,320.1699 987.4688,319.5918 L987.4688,322.3105 Z " fill="#000000"/><text fill="#000000" font-family="sans-serif" font-size="14" lengthAdjust="spacing" textLength="59.3878" x="998.5" y="322.1019">Meander</text><line style="stroke:#181818;stroke-width:0.5;" x1="970.5" x2="1059.8878" y1="332.6699" y2="332.6699"/><line style="stroke:#181818;stroke-width:0.5;" x1="970.5" x2="1059.8878" y1="340.6699" y2="340.6699"/></g><!--class Shapes--><g id="elem_Shapes"><rect fill="#F1F1F1" height="48" id="Shapes" rx="2.5" ry="2.5" style="stroke:#181818;stroke-width:0.5;" width="79.4038" x="975.5" y="408.6699"/><ellipse cx="990.5" cy="424.6699" fill="#ADD1B2" rx="11" ry="11" style="stroke:#181818;stroke-width:1;"/><path d="M993.4688,430.3105 Q992.8906,430.6074 992.25,430.748 Q991.6094,430.9043 990.9063,430.9043 Q988.4063,430.9043 987.0781,429.2636 Q985.7656,427.6074 985.7656,424.4824 Q985.7656,421.3574 987.0781,419.7011 Q988.4063,418.0449 990.9063,418.0449 Q991.6094,418.0449 992.25,418.2011 Q992.9063,418.3574 993.4688,418.6543 L993.4688,421.373 Q992.8438,420.7949 992.25,420.5293 Q991.6563,420.248 991.0313,420.248 Q989.6875,420.248 989,421.3261 Q988.3125,422.3886 988.3125,424.4824 Q988.3125,426.5761 989,427.6543 Q989.6875,428.7168 991.0313,428.7168 Q991.6563,428.7168 992.25,428.4511 Q992.8438,428.1699 993.4688,427.5918 L993.4688,430.3105 Z " fill="#000000"/><text fill="#000000" font-family="sans-serif" font-size="14" lengthAdjust="spacing" textLength="47.4038" x="1004.5" y="430.1019">Shapes</text><line style="stroke:#181818;stroke-width:0.5;" x1="976.5" x2="1053.9038" y1="440.6699" y2="440.6699"/><line style="stroke:#181818;stroke-width:0.5;" x1="976.5" x2="1053.9038" y1="448.6699" y2="448.6699"/></g><!--class Geometry--><g id="elem_Geometry"><rect fill="#F1F1F1" height="48" id="Geometry" rx="2.5" ry="2.5" style="stroke:#181818;stroke-width:0.5;" width="97.5197" x="1096" y="300.6699"/><ellipse cx="1111" cy="316.6699" fill="#ADD1B2" rx="11" ry="11" style="stroke:#181818;stroke-width:1;"/><path d="M1113.9688,322.3105 Q1113.3906,322.6074 1112.75,322.748 Q1112.1094,322.9043 1111.4063,322.9043 Q1108.9063,322.9043 1107.5781,321.2636 Q1106.2656,319.6074 1106.2656,316.4824 Q1106.2656,313.3574 1107.5781,311.7011 Q1108.9063,310.0449 1111.4063,310.0449 Q1112.1094,310.0449 1112.75,310.2011 Q1113.4063,310.3574 1113.9688,310.6543 L1113.9688,313.373 Q1113.3438,312.7949 1112.75,312.5293 Q1112.1563,312.248 1111.5313,312.248 Q1110.1875,312.248 1109.5,313.3261 Q1108.8125,314.3886 1108.8125,316.4824 Q1108.8125,318.5761 1109.5,319.6543 Q1110.1875,320.7168 1111.5313,320.7168 Q1112.1563,320.7168 1112.75,320.4511 Q1113.3438,320.1699 1113.9688,319.5918 L1113.9688,322.3105 Z " fill="#000000"/><text fill="#000000" font-family="sans-serif" font-size="14" lengthAdjust="spacing" textLength="65.5197" x="1125" y="322.1019">Geometry</text><line style="stroke:#181818;stroke-width:0.5;" x1="1097" x2="1192.5197" y1="332.6699" y2="332.6699"/><line style="stroke:#181818;stroke-width:0.5;" x1="1097" x2="1192.5197" y1="340.6699" y2="340.6699"/></g><!--class Palette--><g id="elem_Palette"><rect fill="#F1F1F1" height="48" id="Palette" rx="2.5" ry="2.5" style="stroke:#181818;stroke-width:0.5;" width="77.8358" x="1103" y="408.6699"/><ellipse cx="1118" cy="424.6699" fill="#ADD1B2" rx="11" ry="11" style="stroke:#181818;stroke-width:1;"/><path d="M1120.9688,430.3105 Q1120.3906,430.6074 1119.75,430.748 Q1119.1094,430.9043 1118.4063,430.9043 Q1115.9063,430.9043 1114.5781,429.2636 Q1113.2656,427.6074 1113.2656,424.4824 Q1113.2656,421.3574 1114.5781,419.7011 Q1115.9063,418.0449 1118.4063,418.0449 Q1119.1094,418.0449 1119.75,418.2011 Q1120.4063,418.3574 1120.9688,418.6543 L1120.9688,421.373 Q1120.3438,420.7949 1119.75,420.5293 Q1119.1563,420.248 1118.5313,420.248 Q1117.1875,420.248 1116.5,421.3261 Q1115.8125,422.3886 1115.8125,424.4824 Q1115.8125,426.5761 1116.5,427.6543 Q1117.1875,428.7168 1118.5313,428.7168 Q1119.1563,428.7168 1119.75,428.4511 Q1120.3438,428.1699 1120.9688,427.5918 L1120.9688,430.3105 Z " fill="#000000"/><text fill="#000000" font-family="sans-serif" font-size="14" lengthAdjust="spacing" textLength="45.8358" x="1132" y="430.1019">Palette</text><line style="stroke:#181818;stroke-width:0.5;" x1="1104" x2="1179.8358" y1="440.6699" y2="440.6699"/><line style="stroke:#181818;stroke-width:0.5;" x1="1104" x2="1179.8358" y1="448.6699" y2="448.6699"/></g><!--class Strokes--><g id="elem_Strokes"><rect fill="#F1F1F1" height="48" id="Strokes" rx="2.5" ry="2.5" style="stroke:#181818;stroke-width:0.5;" width="81.0698" x="1099.5" y="516.6699"/><ellipse cx="1114.5" cy="532.6699" fill="#ADD1B2" rx="11" ry="11" style="stroke:#181818;stroke-width:1;"/><path d="M1117.4688,538.3105 Q1116.8906,538.6074 1116.25,538.748 Q1115.6094,538.9043 1114.9063,538.9043 Q1112.4063,538.9043 1111.0781,537.2636 Q1109.7656,535.6074 1109.7656,532.4824 Q1109.7656,529.3574 1111.0781,527.7011 Q1112.4063,526.0449 1114.9063,526.0449 Q1115.6094,526.0449 1116.25,526.2011 Q1116.9063,526.3574 1117.4688,526.6543 L1117.4688,529.373 Q1116.8438,528.7949 1116.25,528.5293 Q1115.6563,528.248 1115.0313,528.248 Q1113.6875,528.248 1113,529.3261 Q1112.3125,530.3886 1112.3125,532.4824 Q1112.3125,534.5761 1113,535.6543 Q1113.6875,536.7168 1115.0313,536.7168 Q1115.6563,536.7168 1116.25,536.4511 Q1116.8438,536.1699 1117.4688,535.5918 L1117.4688,538.3105 Z " fill="#000000"/><text fill="#000000" font-family="sans-serif" font-size="14" lengthAdjust="spacing" textLength="49.0698" x="1128.5" y="538.1019">Strokes</text><line style="stroke:#181818;stroke-width:0.5;" x1="1100.5" x2="1179.5698" y1="548.6699" y2="548.6699"/><line style="stroke:#181818;stroke-width:0.5;" x1="1100.5" x2="1179.5698" y1="556.6699" y2="556.6699"/></g><!--class recurrink--><g id="elem_recurrink"><rect fill="#F1F1F1" height="48" id="recurrink" rx="2.5" ry="2.5" style="stroke:#181818;stroke-width:0.5;" width="92.3538" x="264" y="84.6699"/><ellipse cx="279" cy="100.6699" fill="#ADD1B2" rx="11" ry="11" style="stroke:#181818;stroke-width:1;"/><path d="M281.9688,106.3105 Q281.3906,106.6074 280.75,106.748 Q280.1094,106.9043 279.4063,106.9043 Q276.9063,106.9043 275.5781,105.2636 Q274.2656,103.6074 274.2656,100.4824 Q274.2656,97.3574 275.5781,95.7011 Q276.9063,94.0449 279.4063,94.0449 Q280.1094,94.0449 280.75,94.2011 Q281.4063,94.3574 281.9688,94.6543 L281.9688,97.373 Q281.3438,96.7949 280.75,96.5293 Q280.1563,96.248 279.5313,96.248 Q278.1875,96.248 277.5,97.3261 Q276.8125,98.3886 276.8125,100.4824 Q276.8125,102.5761 277.5,103.6543 Q278.1875,104.7168 279.5313,104.7168 Q280.1563,104.7168 280.75,104.4511 Q281.3438,104.1699 281.9688,103.5918 L281.9688,106.3105 Z " fill="#000000"/><text fill="#000000" font-family="sans-serif" font-size="14" lengthAdjust="spacing" textLength="60.3538" x="293" y="106.1019">recurrink</text><line style="stroke:#181818;stroke-width:0.5;" x1="265" x2="355.3538" y1="116.6699" y2="116.6699"/><line style="stroke:#181818;stroke-width:0.5;" x1="265" x2="355.3538" y1="124.6699" y2="124.6699"/></g><!--class palette--><g id="elem_palette"><rect fill="#F1F1F1" height="48" id="palette" rx="2.5" ry="2.5" style="stroke:#181818;stroke-width:0.5;" width="77.9758" x="814" y="192.6699"/><ellipse cx="829" cy="208.6699" fill="#ADD1B2" rx="11" ry="11" style="stroke:#181818;stroke-width:1;"/><path d="M831.9688,214.3105 Q831.3906,214.6074 830.75,214.748 Q830.1094,214.9043 829.4063,214.9043 Q826.9063,214.9043 825.5781,213.2636 Q824.2656,211.6074 824.2656,208.4824 Q824.2656,205.3574 825.5781,203.7011 Q826.9063,202.0449 829.4063,202.0449 Q830.1094,202.0449 830.75,202.2011 Q831.4063,202.3574 831.9688,202.6543 L831.9688,205.373 Q831.3438,204.7949 830.75,204.5293 Q830.1563,204.248 829.5313,204.248 Q828.1875,204.248 827.5,205.3261 Q826.8125,206.3886 826.8125,208.4824 Q826.8125,210.5761 827.5,211.6543 Q828.1875,212.7168 829.5313,212.7168 Q830.1563,212.7168 830.75,212.4511 Q831.3438,212.1699 831.9688,211.5918 L831.9688,214.3105 Z " fill="#000000"/><text fill="#000000" font-family="sans-serif" font-size="14" lengthAdjust="spacing" textLength="45.9758" x="843" y="214.1019">palette</text><line style="stroke:#181818;stroke-width:0.5;" x1="815" x2="890.9758" y1="224.6699" y2="224.6699"/><line style="stroke:#181818;stroke-width:0.5;" x1="815" x2="890.9758" y1="232.6699" y2="232.6699"/></g><!--link recurrink to LinearSvg--><g id="link_recurrink_LinearSvg"><path codeLine="6" d="M305.61,132.9599 C299.65,160.4099 287.12,206.5799 265,240.6699 C249.82,264.0699 231.308,281.6427 212.408,296.8227 " fill="transparent" id="recurrink-to-LinearSvg" style="stroke:#181818;stroke-width:1;"/><polygon fill="#181818" points="207.73,300.5799,217.2518,298.0627,211.6283,297.4489,212.2421,291.8254,207.73,300.5799" style="stroke:#181818;stroke-width:1;"/></g><!--link recurrink to Svg--><g id="link_recurrink_Svg"><path codeLine="7" d="M277.02,132.6699 C249.78,151.6699 216.4611,174.8973 190.7411,192.8373 " fill="transparent" id="recurrink-to-Svg" style="stroke:#181818;stroke-width:1;"/><polygon fill="#181818" points="185.82,196.2699,195.4901,194.4018,189.9209,193.4094,190.9133,187.8403,185.82,196.2699" style="stroke:#181818;stroke-width:1;"/></g><!--link recurrink to Views--><g id="link_recurrink_Views"><path codeLine="8" d="M298.2,132.8199 C281.45,163.0599 247.78,215.1699 203,240.6699 C166.68,261.3499 146.01,233.4499 110,254.6699 C91.78,265.4099 80.6612,279.856 71.5812,295.436 " fill="transparent" id="recurrink-to-Views" style="stroke:#181818;stroke-width:1;"/><polygon fill="#181818" points="68.56,300.6199,76.5477,294.8582,71.0776,296.3,69.6358,290.83,68.56,300.6199" style="stroke:#181818;stroke-width:1;"/></g><!--link Views to BlockData--><g id="link_Views_BlockData"><path codeLine="9" d="M77.37,348.6999 C86.47,357.5799 97.88,366.9499 110,372.6699 C217.6,423.4799 354.1202,431.8511 427.9602,432.4511 " fill="transparent" id="Views-to-BlockData" style="stroke:#181818;stroke-width:1;"/><polygon fill="#181818" points="433.96,432.4999,424.9928,428.4269,428.9602,432.4593,424.9278,436.4266,433.96,432.4999" style="stroke:#181818;stroke-width:1;"/></g><!--reverse link Svg to LinearSvg--><g id="link_Svg_LinearSvg"><path codeLine="10" d="M164.9148,258.4173 C167.9048,276.0773 169.03,282.6099 172.04,300.3499 " fill="transparent" id="Svg-backto-LinearSvg" style="stroke:#181818;stroke-width:1;stroke-dasharray:7.0,7.0;"/><polygon fill="transparent" points="161.91,240.6699,158.999,259.4189,170.8306,257.4157,161.91,240.6699" style="stroke:#181818;stroke-width:1;"/></g><!--reverse link Layout to Svg--><g id="link_Layout_Svg"><path codeLine="11" d="M158,150.6699 C158,168.3299 158,174.6099 158,192.3499 " fill="transparent" id="Layout-backto-Svg" style="stroke:#181818;stroke-width:1;stroke-dasharray:7.0,7.0;"/><polygon fill="transparent" points="158,132.6699,152,150.6699,164,150.6699,158,132.6699" style="stroke:#181818;stroke-width:1;"/></g><!--reverse link Db to Model--><g id="link_Db_Model"><path codeLine="12" d="M59,150.6699 C59,168.3299 59,174.6099 59,192.3499 " fill="transparent" id="Db-backto-Model" style="stroke:#181818;stroke-width:1;stroke-dasharray:7.0,7.0;"/><polygon fill="transparent" points="59,132.6699,53,150.6699,65,150.6699,59,132.6699" style="stroke:#181818;stroke-width:1;"/></g><!--reverse link Model to Views--><g id="link_Model_Views"><path codeLine="13" d="M58.2235,258.6666 C57.8835,276.3266 57.77,282.6099 57.44,300.3499 " fill="transparent" id="Model-backto-Views" style="stroke:#181818;stroke-width:1;stroke-dasharray:7.0,7.0;"/><polygon fill="transparent" points="58.57,240.6699,52.2246,258.5511,64.2224,258.7821,58.57,240.6699" style="stroke:#181818;stroke-width:1;"/></g><!--link recurrink to Grid--><g id="link_recurrink_Grid"><path codeLine="15" d="M312.57,132.9199 C319.51,184.1799 343.35,307.4999 417,372.6699 C462.86,413.2499 492.43,387.7999 550,408.6699 C556.56,411.0499 557.9683,411.4781 564.4583,414.3981 " fill="transparent" id="recurrink-to-Grid" style="stroke:#181818;stroke-width:1;"/><polygon fill="#181818" points="569.93,416.8599,563.3637,409.5194,565.3703,414.8084,560.0812,416.8149,569.93,416.8599" style="stroke:#181818;stroke-width:1;"/></g><!--link recurrink to TmpFile--><g id="link_recurrink_TmpFile"><path codeLine="16" d="M356.22,121.6899 C425.95,141.3499 560.07,185.3199 656,254.6699 C673.37,267.2299 685.5021,280.9283 696.5021,295.6083 " fill="transparent" id="recurrink-to-TmpFile" style="stroke:#181818;stroke-width:1;"/><polygon fill="#181818" points="700.1,300.4099,697.9042,290.8089,697.1017,296.4086,691.5021,295.6061,700.1,300.4099" style="stroke:#181818;stroke-width:1;"/></g><!--link palette to PaletteMaker--><g id="link_palette_PaletteMaker"><path codeLine="17" d="M853,240.6699 C853,258.3299 853,276.6099 853,294.3499 " fill="transparent" id="palette-to-PaletteMaker" style="stroke:#181818;stroke-width:1;"/><polygon fill="#181818" points="853,300.3499,857,291.3499,853,295.3499,849,291.3499,853,300.3499" style="stroke:#181818;stroke-width:1;"/></g><!--reverse link Flatten to Grid--><g id="link_Flatten_Grid"><path codeLine="18" d="M600,366.6699 C600,384.3299 600,390.6099 600,408.3499 " fill="transparent" id="Flatten-backto-Grid" style="stroke:#181818;stroke-width:1;stroke-dasharray:7.0,7.0;"/><polygon fill="transparent" points="600,348.6699,594,366.6699,606,366.6699,600,348.6699" style="stroke:#181818;stroke-width:1;"/></g><!--reverse link Compass to BlockData--><g id="link_Compass_BlockData"><path codeLine="19" d="M481.1594,366.6627 C481.6594,384.3227 481.84,390.6099 482.34,408.3499 " fill="transparent" id="Compass-backto-BlockData" style="stroke:#181818;stroke-width:1;stroke-dasharray:7.0,7.0;"/><polygon fill="transparent" points="480.65,348.6699,475.1618,366.8325,487.157,366.4929,480.65,348.6699" style="stroke:#181818;stroke-width:1;"/></g><!--link BlockData to CellData--><g id="link_BlockData_CellData"><path codeLine="20" d="M513.23,456.6999 C525.17,465.0499 539.29,474.0499 553,480.6699 C722.06,562.3799 934.7905,615.8845 1026.5605,636.8345 " fill="transparent" id="BlockData-to-CellData" style="stroke:#181818;stroke-width:1;"/><polygon fill="#181818" points="1032.41,638.1699,1024.526,632.2672,1027.5354,637.0571,1022.7455,640.0665,1032.41,638.1699" style="stroke:#181818;stroke-width:1;"/></g><!--link Flatten to Geomink--><g id="link_Flatten_Geomink"><path codeLine="21" d="M625.34,348.8899 C634.86,356.9799 646.05,365.7599 657,372.6699 C762.7,439.3799 893.7408,493.5938 963.7008,520.5338 " fill="transparent" id="Flatten-to-Geomink" style="stroke:#181818;stroke-width:1;"/><polygon fill="#181818" points="969.3,522.6899,962.3386,515.7229,964.634,520.8931,959.4638,523.1885,969.3,522.6899" style="stroke:#181818;stroke-width:1;"/></g><!--link Grid to Geomink--><g id="link_Grid_Geomink"><path codeLine="22" d="M630.16,441.9099 C665.18,451.4299 724.69,467.4899 776,480.6699 C843.06,497.8999 915.1187,515.5372 963.2887,527.2072 " fill="transparent" id="Grid-to-Geomink" style="stroke:#181818;stroke-width:1;"/><polygon fill="#181818" points="969.12,528.6199,961.3149,522.6133,964.2606,527.4426,959.4312,530.3883,969.12,528.6199" style="stroke:#181818;stroke-width:1;"/></g><!--reverse link Meander to Shapes--><g id="link_Meander_Shapes"><path codeLine="24" d="M1015,366.6699 C1015,384.3299 1015,390.6099 1015,408.3499 " fill="transparent" id="Meander-backto-Shapes" style="stroke:#181818;stroke-width:1;stroke-dasharray:7.0,7.0;"/><polygon fill="transparent" points="1015,348.6699,1009,366.6699,1021,366.6699,1015,348.6699" style="stroke:#181818;stroke-width:1;"/></g><!--reverse link Shapes to Geomink--><g id="link_Shapes_Geomink"><path codeLine="25" d="M1015,474.6699 C1015,492.3299 1015,498.6099 1015,516.3499 " fill="transparent" id="Shapes-backto-Geomink" style="stroke:#181818;stroke-width:1;stroke-dasharray:7.0,7.0;"/><polygon fill="transparent" points="1015,456.6699,1009,474.6699,1021,474.6699,1015,456.6699" style="stroke:#181818;stroke-width:1;"/></g><!--reverse link Geometry to Palette--><g id="link_Geometry_Palette"><path codeLine="26" d="M1143.8406,366.6627 C1143.3406,384.3227 1143.16,390.6099 1142.66,408.3499 " fill="transparent" id="Geometry-backto-Palette" style="stroke:#181818;stroke-width:1;stroke-dasharray:7.0,7.0;"/><polygon fill="transparent" points="1144.35,348.6699,1137.843,366.4929,1149.8382,366.8325,1144.35,348.6699" style="stroke:#181818;stroke-width:1;"/></g><!--reverse link Palette to Strokes--><g id="link_Palette_Strokes"><path codeLine="27" d="M1141.2235,474.6666 C1140.8835,492.3266 1140.77,498.6099 1140.44,516.3499 " fill="transparent" id="Palette-backto-Strokes" style="stroke:#181818;stroke-width:1;stroke-dasharray:7.0,7.0;"/><polygon fill="transparent" points="1141.57,456.6699,1135.2246,474.5511,1147.2224,474.7821,1141.57,456.6699" style="stroke:#181818;stroke-width:1;"/></g><!--reverse link Strokes to CellData--><g id="link_Strokes_CellData"><path codeLine="28" d="M1116.808,580.0801 C1106.148,597.7401 1100.79,606.6099 1090.08,624.3499 " fill="transparent" id="Strokes-backto-CellData" style="stroke:#181818;stroke-width:1;stroke-dasharray:7.0,7.0;"/><polygon fill="transparent" points="1126.11,564.6699,1111.6713,576.9794,1121.9448,583.1807,1126.11,564.6699" style="stroke:#181818;stroke-width:1;"/></g><!--SRC=[TP1DQiCm48NtSmhjkh8EK48NJKWsCHHIibVieH7M7sEb8T33LvPSPN1IBuPvxvDddXHrDFWgzkhcBn7WHMXtHj9Hf6_r8wMOB1iCMdJ9N3KD065t8T9k44tp9gplqSYzTgZeyFtrbFxd7pLUHs1zPYVZkq6-JtMZee8weoHQBfnrlW4_SMUR4_VRgGBhEIo95c5Be1tf_Yduj66h3K9G1cD4HZwAqwe12OgrDIevhknaWqkxzZQeSIpquI4MEY_gq1YvJeMT-DjH-GwzJPdXlk-HGLOjAjSZbG3PEPnLm15Op-3yiu2gCDAD7PXV0BZWmoFveKulWk5wB_W5]--></g></svg>