<svg xmlns="http://www.w3.org/2000/svg" xmlns:xlink="http://www.w3.org/1999/xlink" contentStyleType="text/css" data-diagram-type="CLASS" height="371px" preserveAspectRatio="none" style="width:793px;height:371px;background:#FFFFFF;" version="1.1" viewBox="0 0 793 371" width="793px" zoomAndPan="magnify"><title>Layout</title><defs/><g><text fill="#000000" font-family="sans-serif" font-size="14" font-weight="bold" lengthAdjust="spacing" textLength="48.2718" x="365.3641" y="24.9659">Layout</text><!--cluster model--><g id="cluster_model"><path d="M8.5,46.6699 L53.3198,46.6699 A3.75,3.75 0 0 1 55.8198,49.1699 L62.8198,71.7378 L131.5,71.7378 A2.5,2.5 0 0 1 134,74.2378 L134,362.1699 A2.5,2.5 0 0 1 131.5,364.6699 L8.5,364.6699 A2.5,2.5 0 0 1 6,362.1699 L6,49.1699 A2.5,2.5 0 0 1 8.5,46.6699 " fill="transparent" style="stroke:#000000;stroke-width:1.5;"/><line style="stroke:#000000;stroke-width:1.5;" x1="6" x2="62.8198" y1="71.7378" y2="71.7378"/><text fill="#000000" font-family="sans-serif" font-size="14" font-weight="bold" lengthAdjust="spacing" textLength="43.8198" x="10" y="63.6358">model</text></g><!--cluster block--><g id="cluster_block"><path d="M256.5,154.6699 L295.1739,154.6699 A3.75,3.75 0 0 1 297.6739,157.1699 L304.6739,179.7378 L635.5,179.7378 A2.5,2.5 0 0 1 638,182.2378 L638,362.1699 A2.5,2.5 0 0 1 635.5,364.6699 L256.5,364.6699 A2.5,2.5 0 0 1 254,362.1699 L254,157.1699 A2.5,2.5 0 0 1 256.5,154.6699 " fill="transparent" style="stroke:#000000;stroke-width:1.5;"/><line style="stroke:#000000;stroke-width:1.5;" x1="254" x2="304.6739" y1="179.7378" y2="179.7378"/><text fill="#000000" font-family="sans-serif" font-size="14" font-weight="bold" lengthAdjust="spacing" textLength="37.6739" x="258" y="171.6358">block</text></g><!--cluster cell--><g id="cluster_cell"><path d="M664.5,46.6699 L689.5099,46.6699 A3.75,3.75 0 0 1 692.0099,49.1699 L699.0099,71.7378 L783.5,71.7378 A2.5,2.5 0 0 1 786,74.2378 L786,362.1699 A2.5,2.5 0 0 1 783.5,364.6699 L664.5,364.6699 A2.5,2.5 0 0 1 662,362.1699 L662,49.1699 A2.5,2.5 0 0 1 664.5,46.6699 " fill="transparent" style="stroke:#000000;stroke-width:1.5;"/><line style="stroke:#000000;stroke-width:1.5;" x1="662" x2="699.0099" y1="71.7378" y2="71.7378"/><text fill="#000000" font-family="sans-serif" font-size="14" font-weight="bold" lengthAdjust="spacing" textLength="24.0099" x="666" y="63.6358">cell</text></g><!--class LinearSvg--><g id="elem_LinearSvg"><rect fill="#F1F1F1" height="48" id="LinearSvg" rx="2.5" ry="2.5" style="stroke:#181818;stroke-width:0.5;" width="96.5397" x="21.5" y="300.6699"/><ellipse cx="36.5" cy="316.6699" fill="#ADD1B2" rx="11" ry="11" style="stroke:#181818;stroke-width:1;"/><path d="M39.4688,322.3105 Q38.8906,322.6074 38.25,322.748 Q37.6094,322.9043 36.9063,322.9043 Q34.4063,322.9043 33.0781,321.2636 Q31.7656,319.6074 31.7656,316.4824 Q31.7656,313.3574 33.0781,311.7011 Q34.4063,310.0449 36.9063,310.0449 Q37.6094,310.0449 38.25,310.2011 Q38.9063,310.3574 39.4688,310.6543 L39.4688,313.373 Q38.8438,312.7949 38.25,312.5293 Q37.6563,312.248 37.0313,312.248 Q35.6875,312.248 35,313.3261 Q34.3125,314.3886 34.3125,316.4824 Q34.3125,318.5761 35,319.6543 Q35.6875,320.7168 37.0313,320.7168 Q37.6563,320.7168 38.25,320.4511 Q38.8438,320.1699 39.4688,319.5918 L39.4688,322.3105 Z " fill="#000000"/><text fill="#000000" font-family="sans-serif" font-size="14" lengthAdjust="spacing" textLength="64.5397" x="50.5" y="322.1019">LinearSvg</text><line style="stroke:#181818;stroke-width:0.5;" x1="22.5" x2="117.0397" y1="332.6699" y2="332.6699"/><line style="stroke:#181818;stroke-width:0.5;" x1="22.5" x2="117.0397" y1="340.6699" y2="340.6699"/></g><!--class Svg--><g id="elem_Svg"><rect fill="#F1F1F1" height="48" id="Svg" rx="2.5" ry="2.5" style="stroke:#181818;stroke-width:0.5;" width="55.4079" x="37.5" y="192.6699"/><ellipse cx="52.5" cy="208.6699" fill="#ADD1B2" rx="11" ry="11" style="stroke:#181818;stroke-width:1;"/><path d="M55.4688,214.3105 Q54.8906,214.6074 54.25,214.748 Q53.6094,214.9043 52.9063,214.9043 Q50.4063,214.9043 49.0781,213.2636 Q47.7656,211.6074 47.7656,208.4824 Q47.7656,205.3574 49.0781,203.7011 Q50.4063,202.0449 52.9063,202.0449 Q53.6094,202.0449 54.25,202.2011 Q54.9063,202.3574 55.4688,202.6543 L55.4688,205.373 Q54.8438,204.7949 54.25,204.5293 Q53.6563,204.248 53.0313,204.248 Q51.6875,204.248 51,205.3261 Q50.3125,206.3886 50.3125,208.4824 Q50.3125,210.5761 51,211.6543 Q51.6875,212.7168 53.0313,212.7168 Q53.6563,212.7168 54.25,212.4511 Q54.8438,212.1699 55.4688,211.5918 L55.4688,214.3105 Z " fill="#000000"/><text fill="#000000" font-family="sans-serif" font-size="14" lengthAdjust="spacing" textLength="23.4079" x="66.5" y="214.1019">Svg</text><line style="stroke:#181818;stroke-width:0.5;" x1="38.5" x2="91.9079" y1="224.6699" y2="224.6699"/><line style="stroke:#181818;stroke-width:0.5;" x1="38.5" x2="91.9079" y1="232.6699" y2="232.6699"/></g><!--class Layout--><g id="elem_Layout"><rect fill="#F1F1F1" height="48" id="Layout" rx="2.5" ry="2.5" style="stroke:#181818;stroke-width:0.5;" width="76.5058" x="26.5" y="84.6699"/><ellipse cx="41.5" cy="100.6699" fill="#ADD1B2" rx="11" ry="11" style="stroke:#181818;stroke-width:1;"/><path d="M44.4688,106.3105 Q43.8906,106.6074 43.25,106.748 Q42.6094,106.9043 41.9063,106.9043 Q39.4063,106.9043 38.0781,105.2636 Q36.7656,103.6074 36.7656,100.4824 Q36.7656,97.3574 38.0781,95.7011 Q39.4063,94.0449 41.9063,94.0449 Q42.6094,94.0449 43.25,94.2011 Q43.9063,94.3574 44.4688,94.6543 L44.4688,97.373 Q43.8438,96.7949 43.25,96.5293 Q42.6563,96.248 42.0313,96.248 Q40.6875,96.248 40,97.3261 Q39.3125,98.3886 39.3125,100.4824 Q39.3125,102.5761 40,103.6543 Q40.6875,104.7168 42.0313,104.7168 Q42.6563,104.7168 43.25,104.4511 Q43.8438,104.1699 44.4688,103.5918 L44.4688,106.3105 Z " fill="#000000"/><text fill="#000000" font-family="sans-serif" font-size="14" lengthAdjust="spacing" textLength="44.5058" x="55.5" y="106.1019">Layout</text><line style="stroke:#181818;stroke-width:0.5;" x1="27.5" x2="102.0058" y1="116.6699" y2="116.6699"/><line style="stroke:#181818;stroke-width:0.5;" x1="27.5" x2="102.0058" y1="124.6699" y2="124.6699"/></g><!--class Grid--><g id="elem_Grid"><rect fill="#F1F1F1" height="48" id="Grid" rx="2.5" ry="2.5" style="stroke:#181818;stroke-width:0.5;" width="60.1959" x="274" y="300.6699"/><ellipse cx="289" cy="316.6699" fill="#ADD1B2" rx="11" ry="11" style="stroke:#181818;stroke-width:1;"/><path d="M291.9688,322.3105 Q291.3906,322.6074 290.75,322.748 Q290.1094,322.9043 289.4063,322.9043 Q286.9063,322.9043 285.5781,321.2636 Q284.2656,319.6074 284.2656,316.4824 Q284.2656,313.3574 285.5781,311.7011 Q286.9063,310.0449 289.4063,310.0449 Q290.1094,310.0449 290.75,310.2011 Q291.4063,310.3574 291.9688,310.6543 L291.9688,313.373 Q291.3438,312.7949 290.75,312.5293 Q290.1563,312.248 289.5313,312.248 Q288.1875,312.248 287.5,313.3261 Q286.8125,314.3886 286.8125,316.4824 Q286.8125,318.5761 287.5,319.6543 Q288.1875,320.7168 289.5313,320.7168 Q290.1563,320.7168 290.75,320.4511 Q291.3438,320.1699 291.9688,319.5918 L291.9688,322.3105 Z " fill="#000000"/><text fill="#000000" font-family="sans-serif" font-size="14" lengthAdjust="spacing" textLength="28.1959" x="303" y="322.1019">Grid</text><line style="stroke:#181818;stroke-width:0.5;" x1="275" x2="333.1959" y1="332.6699" y2="332.6699"/><line style="stroke:#181818;stroke-width:0.5;" x1="275" x2="333.1959" y1="340.6699" y2="340.6699"/></g><!--class TmpFile--><g id="elem_TmpFile"><rect fill="#F1F1F1" height="48" id="TmpFile" rx="2.5" ry="2.5" style="stroke:#181818;stroke-width:0.5;" width="83.8698" x="383" y="192.6699"/><ellipse cx="398" cy="208.6699" fill="#ADD1B2" rx="11" ry="11" style="stroke:#181818;stroke-width:1;"/><path d="M400.9688,214.3105 Q400.3906,214.6074 399.75,214.748 Q399.1094,214.9043 398.4063,214.9043 Q395.9063,214.9043 394.5781,213.2636 Q393.2656,211.6074 393.2656,208.4824 Q393.2656,205.3574 394.5781,203.7011 Q395.9063,202.0449 398.4063,202.0449 Q399.1094,202.0449 399.75,202.2011 Q400.4063,202.3574 400.9688,202.6543 L400.9688,205.373 Q400.3438,204.7949 399.75,204.5293 Q399.1563,204.248 398.5313,204.248 Q397.1875,204.248 396.5,205.3261 Q395.8125,206.3886 395.8125,208.4824 Q395.8125,210.5761 396.5,211.6543 Q397.1875,212.7168 398.5313,212.7168 Q399.1563,212.7168 399.75,212.4511 Q400.3438,212.1699 400.9688,211.5918 L400.9688,214.3105 Z " fill="#000000"/><text fill="#000000" font-family="sans-serif" font-size="14" lengthAdjust="spacing" textLength="51.8698" x="412" y="214.1019">TmpFile</text><line style="stroke:#181818;stroke-width:0.5;" x1="384" x2="465.8698" y1="224.6699" y2="224.6699"/><line style="stroke:#181818;stroke-width:0.5;" x1="384" x2="465.8698" y1="232.6699" y2="232.6699"/></g><!--class PaletteMaker--><g id="elem_PaletteMaker"><rect fill="#F1F1F1" height="48" id="PaletteMaker" rx="2.5" ry="2.5" style="stroke:#181818;stroke-width:0.5;" width="119.5417" x="502" y="192.6699"/><ellipse cx="517" cy="208.6699" fill="#ADD1B2" rx="11" ry="11" style="stroke:#181818;stroke-width:1;"/><path d="M519.9688,214.3105 Q519.3906,214.6074 518.75,214.748 Q518.1094,214.9043 517.4063,214.9043 Q514.9063,214.9043 513.5781,213.2636 Q512.2656,211.6074 512.2656,208.4824 Q512.2656,205.3574 513.5781,203.7011 Q514.9063,202.0449 517.4063,202.0449 Q518.1094,202.0449 518.75,202.2011 Q519.4063,202.3574 519.9688,202.6543 L519.9688,205.373 Q519.3438,204.7949 518.75,204.5293 Q518.1563,204.248 517.5313,204.248 Q516.1875,204.248 515.5,205.3261 Q514.8125,206.3886 514.8125,208.4824 Q514.8125,210.5761 515.5,211.6543 Q516.1875,212.7168 517.5313,212.7168 Q518.1563,212.7168 518.75,212.4511 Q519.3438,212.1699 519.9688,211.5918 L519.9688,214.3105 Z " fill="#000000"/><text fill="#000000" font-family="sans-serif" font-size="14" lengthAdjust="spacing" textLength="87.5417" x="531" y="214.1019">PaletteMaker</text><line style="stroke:#181818;stroke-width:0.5;" x1="503" x2="620.5417" y1="224.6699" y2="224.6699"/><line style="stroke:#181818;stroke-width:0.5;" x1="503" x2="620.5417" y1="232.6699" y2="232.6699"/></g><!--class Flatten--><g id="elem_Flatten"><rect fill="#F1F1F1" height="48" id="Flatten" rx="2.5" ry="2.5" style="stroke:#181818;stroke-width:0.5;" width="77.3878" x="270.5" y="192.6699"/><ellipse cx="285.5" cy="208.6699" fill="#ADD1B2" rx="11" ry="11" style="stroke:#181818;stroke-width:1;"/><path d="M288.4688,214.3105 Q287.8906,214.6074 287.25,214.748 Q286.6094,214.9043 285.9063,214.9043 Q283.4063,214.9043 282.0781,213.2636 Q280.7656,211.6074 280.7656,208.4824 Q280.7656,205.3574 282.0781,203.7011 Q283.4063,202.0449 285.9063,202.0449 Q286.6094,202.0449 287.25,202.2011 Q287.9063,202.3574 288.4688,202.6543 L288.4688,205.373 Q287.8438,204.7949 287.25,204.5293 Q286.6563,204.248 286.0313,204.248 Q284.6875,204.248 284,205.3261 Q283.3125,206.3886 283.3125,208.4824 Q283.3125,210.5761 284,211.6543 Q284.6875,212.7168 286.0313,212.7168 Q286.6563,212.7168 287.25,212.4511 Q287.8438,212.1699 288.4688,211.5918 L288.4688,214.3105 Z " fill="#000000"/><text fill="#000000" font-family="sans-serif" font-size="14" lengthAdjust="spacing" textLength="45.3878" x="299.5" y="214.1019">Flatten</text><line style="stroke:#181818;stroke-width:0.5;" x1="271.5" x2="346.8878" y1="224.6699" y2="224.6699"/><line style="stroke:#181818;stroke-width:0.5;" x1="271.5" x2="346.8878" y1="232.6699" y2="232.6699"/></g><!--class Geomink--><g id="elem_Geomink"><rect fill="#F1F1F1" height="48" id="Geomink" rx="2.5" ry="2.5" style="stroke:#181818;stroke-width:0.5;" width="91.3878" x="678.5" y="300.6699"/><ellipse cx="693.5" cy="316.6699" fill="#ADD1B2" rx="11" ry="11" style="stroke:#181818;stroke-width:1;"/><path d="M696.4688,322.3105 Q695.8906,322.6074 695.25,322.748 Q694.6094,322.9043 693.9063,322.9043 Q691.4063,322.9043 690.0781,321.2636 Q688.7656,319.6074 688.7656,316.4824 Q688.7656,313.3574 690.0781,311.7011 Q691.4063,310.0449 693.9063,310.0449 Q694.6094,310.0449 695.25,310.2011 Q695.9063,310.3574 696.4688,310.6543 L696.4688,313.373 Q695.8438,312.7949 695.25,312.5293 Q694.6563,312.248 694.0313,312.248 Q692.6875,312.248 692,313.3261 Q691.3125,314.3886 691.3125,316.4824 Q691.3125,318.5761 692,319.6543 Q692.6875,320.7168 694.0313,320.7168 Q694.6563,320.7168 695.25,320.4511 Q695.8438,320.1699 696.4688,319.5918 L696.4688,322.3105 Z " fill="#000000"/><text fill="#000000" font-family="sans-serif" font-size="14" lengthAdjust="spacing" textLength="59.3878" x="707.5" y="322.1019">Geomink</text><line style="stroke:#181818;stroke-width:0.5;" x1="679.5" x2="768.8878" y1="332.6699" y2="332.6699"/><line style="stroke:#181818;stroke-width:0.5;" x1="679.5" x2="768.8878" y1="340.6699" y2="340.6699"/></g><!--class Meander--><g id="elem_Meander"><rect fill="#F1F1F1" height="48" id="Meander" rx="2.5" ry="2.5" style="stroke:#181818;stroke-width:0.5;" width="91.3878" x="678.5" y="84.6699"/><ellipse cx="693.5" cy="100.6699" fill="#ADD1B2" rx="11" ry="11" style="stroke:#181818;stroke-width:1;"/><path d="M696.4688,106.3105 Q695.8906,106.6074 695.25,106.748 Q694.6094,106.9043 693.9063,106.9043 Q691.4063,106.9043 690.0781,105.2636 Q688.7656,103.6074 688.7656,100.4824 Q688.7656,97.3574 690.0781,95.7011 Q691.4063,94.0449 693.9063,94.0449 Q694.6094,94.0449 695.25,94.2011 Q695.9063,94.3574 696.4688,94.6543 L696.4688,97.373 Q695.8438,96.7949 695.25,96.5293 Q694.6563,96.248 694.0313,96.248 Q692.6875,96.248 692,97.3261 Q691.3125,98.3886 691.3125,100.4824 Q691.3125,102.5761 692,103.6543 Q692.6875,104.7168 694.0313,104.7168 Q694.6563,104.7168 695.25,104.4511 Q695.8438,104.1699 696.4688,103.5918 L696.4688,106.3105 Z " fill="#000000"/><text fill="#000000" font-family="sans-serif" font-size="14" lengthAdjust="spacing" textLength="59.3878" x="707.5" y="106.1019">Meander</text><line style="stroke:#181818;stroke-width:0.5;" x1="679.5" x2="768.8878" y1="116.6699" y2="116.6699"/><line style="stroke:#181818;stroke-width:0.5;" x1="679.5" x2="768.8878" y1="124.6699" y2="124.6699"/></g><!--class Shapes--><g id="elem_Shapes"><rect fill="#F1F1F1" height="48" id="Shapes" rx="2.5" ry="2.5" style="stroke:#181818;stroke-width:0.5;" width="79.4038" x="684.5" y="192.6699"/><ellipse cx="699.5" cy="208.6699" fill="#ADD1B2" rx="11" ry="11" style="stroke:#181818;stroke-width:1;"/><path d="M702.4688,214.3105 Q701.8906,214.6074 701.25,214.748 Q700.6094,214.9043 699.9063,214.9043 Q697.4063,214.9043 696.0781,213.2636 Q694.7656,211.6074 694.7656,208.4824 Q694.7656,205.3574 696.0781,203.7011 Q697.4063,202.0449 699.9063,202.0449 Q700.6094,202.0449 701.25,202.2011 Q701.9063,202.3574 702.4688,202.6543 L702.4688,205.373 Q701.8438,204.7949 701.25,204.5293 Q700.6563,204.248 700.0313,204.248 Q698.6875,204.248 698,205.3261 Q697.3125,206.3886 697.3125,208.4824 Q697.3125,210.5761 698,211.6543 Q698.6875,212.7168 700.0313,212.7168 Q700.6563,212.7168 701.25,212.4511 Q701.8438,212.1699 702.4688,211.5918 L702.4688,214.3105 Z " fill="#000000"/><text fill="#000000" font-family="sans-serif" font-size="14" lengthAdjust="spacing" textLength="47.4038" x="713.5" y="214.1019">Shapes</text><line style="stroke:#181818;stroke-width:0.5;" x1="685.5" x2="762.9038" y1="224.6699" y2="224.6699"/><line style="stroke:#181818;stroke-width:0.5;" x1="685.5" x2="762.9038" y1="232.6699" y2="232.6699"/></g><!--class recurrink--><g id="elem_recurrink"><rect fill="#F1F1F1" height="48" id="recurrink" rx="2.5" ry="2.5" style="stroke:#181818;stroke-width:0.5;" width="92.3538" x="161" y="84.6699"/><ellipse cx="176" cy="100.6699" fill="#ADD1B2" rx="11" ry="11" style="stroke:#181818;stroke-width:1;"/><path d="M178.9688,106.3105 Q178.3906,106.6074 177.75,106.748 Q177.1094,106.9043 176.4063,106.9043 Q173.9063,106.9043 172.5781,105.2636 Q171.2656,103.6074 171.2656,100.4824 Q171.2656,97.3574 172.5781,95.7011 Q173.9063,94.0449 176.4063,94.0449 Q177.1094,94.0449 177.75,94.2011 Q178.4063,94.3574 178.9688,94.6543 L178.9688,97.373 Q178.3438,96.7949 177.75,96.5293 Q177.1563,96.248 176.5313,96.248 Q175.1875,96.248 174.5,97.3261 Q173.8125,98.3886 173.8125,100.4824 Q173.8125,102.5761 174.5,103.6543 Q175.1875,104.7168 176.5313,104.7168 Q177.1563,104.7168 177.75,104.4511 Q178.3438,104.1699 178.9688,103.5918 L178.9688,106.3105 Z " fill="#000000"/><text fill="#000000" font-family="sans-serif" font-size="14" lengthAdjust="spacing" textLength="60.3538" x="190" y="106.1019">recurrink</text><line style="stroke:#181818;stroke-width:0.5;" x1="162" x2="252.3538" y1="116.6699" y2="116.6699"/><line style="stroke:#181818;stroke-width:0.5;" x1="162" x2="252.3538" y1="124.6699" y2="124.6699"/></g><!--class palette--><g id="elem_palette"><rect fill="#F1F1F1" height="48" id="palette" rx="2.5" ry="2.5" style="stroke:#181818;stroke-width:0.5;" width="77.9758" x="523" y="84.6699"/><ellipse cx="538" cy="100.6699" fill="#ADD1B2" rx="11" ry="11" style="stroke:#181818;stroke-width:1;"/><path d="M540.9688,106.3105 Q540.3906,106.6074 539.75,106.748 Q539.1094,106.9043 538.4063,106.9043 Q535.9063,106.9043 534.5781,105.2636 Q533.2656,103.6074 533.2656,100.4824 Q533.2656,97.3574 534.5781,95.7011 Q535.9063,94.0449 538.4063,94.0449 Q539.1094,94.0449 539.75,94.2011 Q540.4063,94.3574 540.9688,94.6543 L540.9688,97.373 Q540.3438,96.7949 539.75,96.5293 Q539.1563,96.248 538.5313,96.248 Q537.1875,96.248 536.5,97.3261 Q535.8125,98.3886 535.8125,100.4824 Q535.8125,102.5761 536.5,103.6543 Q537.1875,104.7168 538.5313,104.7168 Q539.1563,104.7168 539.75,104.4511 Q540.3438,104.1699 540.9688,103.5918 L540.9688,106.3105 Z " fill="#000000"/><text fill="#000000" font-family="sans-serif" font-size="14" lengthAdjust="spacing" textLength="45.9758" x="552" y="106.1019">palette</text><line style="stroke:#181818;stroke-width:0.5;" x1="524" x2="599.9758" y1="116.6699" y2="116.6699"/><line style="stroke:#181818;stroke-width:0.5;" x1="524" x2="599.9758" y1="124.6699" y2="124.6699"/></g><!--link recurrink to LinearSvg--><g id="link_recurrink_LinearSvg"><path codeLine="6" d="M192.08,132.9799 C165.72,174.1399 114.4752,254.1969 88.1352,295.3369 " fill="transparent" id="recurrink-to-LinearSvg" style="stroke:#181818;stroke-width:1;"/><polygon fill="#181818" points="84.9,300.3899,93.1215,294.9671,87.596,296.179,86.3841,290.6535,84.9,300.3899" style="stroke:#181818;stroke-width:1;"/></g><!--link recurrink to Svg--><g id="link_recurrink_Svg"><path codeLine="7" d="M160.88,124.3299 C146.96,130.0199 132.15,137.4299 120,146.6699 C103.54,159.1899 92.4986,172.718 82.5686,187.418 " fill="transparent" id="recurrink-to-Svg" style="stroke:#181818;stroke-width:1;"/><polygon fill="#181818" points="79.21,192.3899,87.5625,187.1711,82.0088,188.2466,80.9333,182.693,79.21,192.3899" style="stroke:#181818;stroke-width:1;"/></g><!--reverse link Svg to LinearSvg--><g id="link_Svg_LinearSvg"><path codeLine="8" d="M66.9352,258.6496 C67.7752,276.3096 68.06,282.6099 68.9,300.3499 " fill="transparent" id="Svg-backto-LinearSvg" style="stroke:#181818;stroke-width:1;stroke-dasharray:7.0,7.0;"/><polygon fill="transparent" points="66.08,240.6699,60.942,258.9346,72.9284,258.3645,66.08,240.6699" style="stroke:#181818;stroke-width:1;"/></g><!--reverse link Layout to Svg--><g id="link_Layout_Svg"><path codeLine="9" d="M65,150.6699 C65,168.3299 65,174.6099 65,192.3499 " fill="transparent" id="Layout-backto-Svg" style="stroke:#181818;stroke-width:1;stroke-dasharray:7.0,7.0;"/><polygon fill="transparent" points="65,132.6699,59,150.6699,71,150.6699,65,132.6699" style="stroke:#181818;stroke-width:1;"/></g><!--link recurrink to Grid--><g id="link_recurrink_Grid"><path codeLine="11" d="M213.54,132.9799 C221.39,159.6499 235.7,204.3199 253,240.6699 C263.03,261.7399 273.7453,279.2252 284.5553,295.4652 " fill="transparent" id="recurrink-to-Grid" style="stroke:#181818;stroke-width:1;"/><polygon fill="#181818" points="287.88,300.4599,286.2228,290.7515,285.1095,296.2977,279.5632,295.1843,287.88,300.4599" style="stroke:#181818;stroke-width:1;"/></g><!--link recurrink to TmpFile--><g id="link_recurrink_TmpFile"><path codeLine="12" d="M253.06,112.8999 C286.19,116.9499 330.86,126.0899 365,146.6699 C383.76,157.9799 396.2767,172.2433 407.0167,187.5033 " fill="transparent" id="recurrink-to-TmpFile" style="stroke:#181818;stroke-width:1;"/><polygon fill="#181818" points="410.47,192.4099,408.5612,182.7478,407.5923,188.3211,402.019,187.3522,410.47,192.4099" style="stroke:#181818;stroke-width:1;"/></g><!--link palette to PaletteMaker--><g id="link_palette_PaletteMaker"><path codeLine="13" d="M562,132.6699 C562,150.3299 562,168.6099 562,186.3499 " fill="transparent" id="palette-to-PaletteMaker" style="stroke:#181818;stroke-width:1;"/><polygon fill="#181818" points="562,192.3499,566,183.3499,562,187.3499,558,183.3499,562,192.3499" style="stroke:#181818;stroke-width:1;"/></g><!--reverse link Flatten to Grid--><g id="link_Flatten_Grid"><path codeLine="14" d="M307.0648,258.6496 C306.2248,276.3096 305.94,282.6099 305.1,300.3499 " fill="transparent" id="Flatten-backto-Grid" style="stroke:#181818;stroke-width:1;stroke-dasharray:7.0,7.0;"/><polygon fill="transparent" points="307.92,240.6699,301.0716,258.3645,313.058,258.9346,307.92,240.6699" style="stroke:#181818;stroke-width:1;"/></g><!--link Flatten to Geomink--><g id="link_Flatten_Geomink"><path codeLine="16" d="M347.63,234.2599 C353.72,236.5799 359.99,238.8099 366,240.6699 C484.25,277.2899 517.73,271.3399 638,300.6699 C651.06,303.8599 659.3845,305.977 672.3345,309.447 " fill="transparent" id="Flatten-to-Geomink" style="stroke:#181818;stroke-width:1;"/><polygon fill="#181818" points="678.13,310.9999,670.472,304.8068,673.3004,309.7058,668.4014,312.5342,678.13,310.9999" style="stroke:#181818;stroke-width:1;"/></g><!--reverse link Meander to Shapes--><g id="link_Meander_Shapes"><path codeLine="17" d="M724,150.6699 C724,168.3299 724,174.6099 724,192.3499 " fill="transparent" id="Meander-backto-Shapes" style="stroke:#181818;stroke-width:1;stroke-dasharray:7.0,7.0;"/><polygon fill="transparent" points="724,132.6699,718,150.6699,730,150.6699,724,132.6699" style="stroke:#181818;stroke-width:1;"/></g><!--reverse link Shapes to Geomink--><g id="link_Shapes_Geomink"><path codeLine="18" d="M724,258.6699 C724,276.3299 724,282.6099 724,300.3499 " fill="transparent" id="Shapes-backto-Geomink" style="stroke:#181818;stroke-width:1;stroke-dasharray:7.0,7.0;"/><polygon fill="transparent" points="724,240.6699,718,258.6699,730,258.6699,724,240.6699" style="stroke:#181818;stroke-width:1;"/></g><!--SRC=[ROzD2iCW44RtSmftNUa1IkWosIHGI2zWaw6HZ3zOKoZqyDKOMWbnDVEUyuq65GZFh9LlkmI04rDcGgy2YwVw2C4IqevGeucmuXp0ux1uhypCEBymRKSaqIg3qlUlnw5D_5VbtFtOrg_lA6yajykyanrcqNWr7egRThKY12S9Gy3uaR-xPjR96JraL9ECnEITHVHEfum1YKI3LiU5i3OTIZEYpyChwIVfy0b5NSXjbi4N]--></g></svg>