<?xml version="1.0" encoding="UTF-8" standalone="no"?><svg xmlns="http://www.w3.org/2000/svg" xmlns:xlink="http://www.w3.org/1999/xlink" contentScriptType="application/ecmascript" contentStyleType="text/css" height="936px" preserveAspectRatio="none" style="width:2420px;height:936px;" version="1.1" viewBox="0 0 2420 936" width="2420px" zoomAndPan="magnify"><defs><filter height="300%" id="fgquueods7wp5" width="300%" x="-1" y="-1"><feGaussianBlur result="blurOut" stdDeviation="2.0"/><feColorMatrix in="blurOut" result="blurOut2" type="matrix" values="0 0 0 0 0 0 0 0 0 0 0 0 0 0 0 0 0 0 .4 0"/><feOffset dx="4.0" dy="4.0" in="blurOut2" result="blurOut3"/><feBlend in="SourceGraphic" in2="blurOut3" mode="normal"/></filter></defs><g><!--MD5=[a9fa7428180d8710775adccf6dc39ef1]
cluster model.ModelData--><polygon fill="#FFFFFF" filter="url(#fgquueods7wp5)" points="30,158,159,158,166,183.0679,940,183.0679,940,577,30,577,30,158" style="stroke: #000000; stroke-width: 1.5;"/><line style="stroke: #000000; stroke-width: 1.5;" x1="30" x2="166" y1="183.0679" y2="183.0679"/><text fill="#000000" font-family="sans-serif" font-size="14" font-weight="bold" lengthAdjust="spacingAndGlyphs" textLength="123" x="34" y="174.9659">model.ModelData</text><!--MD5=[56985f8f7317439163ae0343731efc11]
cluster model.Init--><polygon fill="#FFFFFF" filter="url(#fgquueods7wp5)" points="1222,631,1300,631,1307,656.0679,1490,656.0679,1490,779,1222,779,1222,631" style="stroke: #000000; stroke-width: 1.5;"/><line style="stroke: #000000; stroke-width: 1.5;" x1="1222" x2="1307" y1="656.0679" y2="656.0679"/><text fill="#000000" font-family="sans-serif" font-size="14" font-weight="bold" lengthAdjust="spacingAndGlyphs" textLength="72" x="1226" y="647.9659">model.Init</text><!--MD5=[e74713f92f0eeeba90b23eba3e010db8]
cluster model.Compass--><polygon fill="#FFFFFF" filter="url(#fgquueods7wp5)" points="980,444,1097,444,1104,469.0679,1182,469.0679,1182,771.5,980,771.5,980,444" style="stroke: #000000; stroke-width: 1.5;"/><line style="stroke: #000000; stroke-width: 1.5;" x1="980" x2="1104" y1="469.0679" y2="469.0679"/><text fill="#000000" font-family="sans-serif" font-size="14" font-weight="bold" lengthAdjust="spacingAndGlyphs" textLength="111" x="984" y="460.9659">model.Compass</text><!--MD5=[793de760fa1c2d4a307441edf6ee43ea]
cluster model.SvgPalette--><polygon fill="#FFFFFF" filter="url(#fgquueods7wp5)" points="614,639,742,639,749,664.0679,948,664.0679,948,916.5,614,916.5,614,639" style="stroke: #000000; stroke-width: 1.5;"/><line style="stroke: #000000; stroke-width: 1.5;" x1="614" x2="749" y1="664.0679" y2="664.0679"/><text fill="#000000" font-family="sans-serif" font-size="14" font-weight="bold" lengthAdjust="spacingAndGlyphs" textLength="122" x="618" y="655.9659">model.SvgPalette</text><!--MD5=[7003c8c89cc622cbc7f09887340b0e32]
cluster model.SvgModel--><polygon fill="#FFFFFF" filter="url(#fgquueods7wp5)" points="1998,609,2120,609,2127,634.0679,2398,634.0679,2398,924,1998,924,1998,609" style="stroke: #000000; stroke-width: 1.5;"/><line style="stroke: #000000; stroke-width: 1.5;" x1="1998" x2="2127" y1="634.0679" y2="634.0679"/><text fill="#000000" font-family="sans-serif" font-size="14" font-weight="bold" lengthAdjust="spacingAndGlyphs" textLength="116" x="2002" y="625.9659">model.SvgModel</text><!--MD5=[5d4cd377749310b66bf14896f5cd8d9b]
cluster model--><polygon fill="#FFFFFF" filter="url(#fgquueods7wp5)" points="888,24,938,24,945,49.0679,976,49.0679,976,126,888,126,888,24" style="stroke: #000000; stroke-width: 1.5;"/><line style="stroke: #000000; stroke-width: 1.5;" x1="888" x2="945" y1="49.0679" y2="49.0679"/><text fill="#000000" font-family="sans-serif" font-size="14" font-weight="bold" lengthAdjust="spacingAndGlyphs" textLength="44" x="892" y="40.9659">model</text><!--MD5=[2b2b1b8eef5aa9ac0b3258834263bffb]
cluster recurrink--><polygon fill="#FFFFFF" filter="url(#fgquueods7wp5)" points="1403,814.5,1473,814.5,1480,839.5679,1895,839.5679,1895,916.5,1403,916.5,1403,814.5" style="stroke: #000000; stroke-width: 1.5;"/><line style="stroke: #000000; stroke-width: 1.5;" x1="1403" x2="1480" y1="839.5679" y2="839.5679"/><text fill="#000000" font-family="sans-serif" font-size="14" font-weight="bold" lengthAdjust="spacingAndGlyphs" textLength="64" x="1407" y="831.4659">recurrink</text><!--MD5=[e4c884f68a2e0b6b878a9fbb100e96e9]
class model.ModelData.model--><rect fill="#FEFECE" filter="url(#fgquueods7wp5)" height="77.9638" id="model.ModelData.model" style="stroke: #A80036; stroke-width: 1.5;" width="78" x="548" y="204"/><ellipse cx="567.95" cy="220" fill="#ADD1B2" rx="11" ry="11" style="stroke: #A80036; stroke-width: 1.0;"/><path d="M570.9188,225.6406 Q570.3406,225.9375 569.7,226.0781 Q569.0594,226.2344 568.3563,226.2344 Q565.8563,226.2344 564.5281,224.5938 Q563.2156,222.9375 563.2156,219.8125 Q563.2156,216.6875 564.5281,215.0313 Q565.8563,213.375 568.3563,213.375 Q569.0594,213.375 569.7,213.5313 Q570.3563,213.6875 570.9188,213.9844 L570.9188,216.7031 Q570.2938,216.125 569.7,215.8594 Q569.1063,215.5781 568.4813,215.5781 Q567.1375,215.5781 566.45,216.6563 Q565.7625,217.7188 565.7625,219.8125 Q565.7625,221.9063 566.45,222.9844 Q567.1375,224.0469 568.4813,224.0469 Q569.1063,224.0469 569.7,223.7813 Q570.2938,223.5 570.9188,222.9219 L570.9188,225.6406 Z "/><text fill="#000000" font-family="sans-serif" font-size="12" lengthAdjust="spacingAndGlyphs" textLength="35" x="583.05" y="224.656">model</text><line style="stroke: #A80036; stroke-width: 1.5;" x1="549" x2="625" y1="236" y2="236"/><text fill="#000000" font-family="sans-serif" font-size="11" lengthAdjust="spacingAndGlyphs" textLength="66" x="554" y="251.7589">name: NONE</text><text fill="#000000" font-family="sans-serif" font-size="11" lengthAdjust="spacingAndGlyphs" textLength="32" x="554" y="266.7408">mid: 0</text><line style="stroke: #A80036; stroke-width: 1.5;" x1="549" x2="625" y1="273.9638" y2="273.9638"/><!--MD5=[f20dd768cca599dd972a93f7771f88df]
class model.ModelData.modelRead--><rect fill="#FEFECE" filter="url(#fgquueods7wp5)" height="48" id="model.ModelData.modelRead" style="stroke: #A80036; stroke-width: 1.5;" width="95" x="54.5" y="219"/><ellipse cx="69.5" cy="235" fill="#ADD1B2" rx="11" ry="11" style="stroke: #A80036; stroke-width: 1.0;"/><path d="M72.4688,240.6406 Q71.8906,240.9375 71.25,241.0781 Q70.6094,241.2344 69.9063,241.2344 Q67.4063,241.2344 66.0781,239.5938 Q64.7656,237.9375 64.7656,234.8125 Q64.7656,231.6875 66.0781,230.0313 Q67.4063,228.375 69.9063,228.375 Q70.6094,228.375 71.25,228.5313 Q71.9063,228.6875 72.4688,228.9844 L72.4688,231.7031 Q71.8438,231.125 71.25,230.8594 Q70.6563,230.5781 70.0313,230.5781 Q68.6875,230.5781 68,231.6563 Q67.3125,232.7188 67.3125,234.8125 Q67.3125,236.9063 68,237.9844 Q68.6875,239.0469 70.0313,239.0469 Q70.6563,239.0469 71.25,238.7813 Q71.8438,238.5 72.4688,237.9219 L72.4688,240.6406 Z "/><text fill="#000000" font-family="sans-serif" font-size="12" lengthAdjust="spacingAndGlyphs" textLength="63" x="83.5" y="239.656">modelRead</text><line style="stroke: #A80036; stroke-width: 1.5;" x1="55.5" x2="148.5" y1="251" y2="251"/><line style="stroke: #A80036; stroke-width: 1.5;" x1="55.5" x2="148.5" y1="259" y2="259"/><!--MD5=[3389a81b31e77cad06e71d3803e2314f]
class model.ModelData.modelWrite--><rect fill="#FEFECE" filter="url(#fgquueods7wp5)" height="62.9819" id="model.ModelData.modelWrite" style="stroke: #A80036; stroke-width: 1.5;" width="97" x="184.5" y="211.5"/><ellipse cx="199.5" cy="227.5" fill="#ADD1B2" rx="11" ry="11" style="stroke: #A80036; stroke-width: 1.0;"/><path d="M202.4688,233.1406 Q201.8906,233.4375 201.25,233.5781 Q200.6094,233.7344 199.9063,233.7344 Q197.4063,233.7344 196.0781,232.0938 Q194.7656,230.4375 194.7656,227.3125 Q194.7656,224.1875 196.0781,222.5313 Q197.4063,220.875 199.9063,220.875 Q200.6094,220.875 201.25,221.0313 Q201.9063,221.1875 202.4688,221.4844 L202.4688,224.2031 Q201.8438,223.625 201.25,223.3594 Q200.6563,223.0781 200.0313,223.0781 Q198.6875,223.0781 198,224.1563 Q197.3125,225.2188 197.3125,227.3125 Q197.3125,229.4063 198,230.4844 Q198.6875,231.5469 200.0313,231.5469 Q200.6563,231.5469 201.25,231.2813 Q201.8438,231 202.4688,230.4219 L202.4688,233.1406 Z "/><text fill="#000000" font-family="sans-serif" font-size="12" lengthAdjust="spacingAndGlyphs" textLength="65" x="213.5" y="232.156">modelWrite</text><line style="stroke: #A80036; stroke-width: 1.5;" x1="185.5" x2="280.5" y1="243.5" y2="243.5"/><text fill="#000000" font-family="sans-serif" font-size="11" lengthAdjust="spacingAndGlyphs" textLength="29" x="190.5" y="259.2589">name</text><line style="stroke: #A80036; stroke-width: 1.5;" x1="185.5" x2="280.5" y1="266.4819" y2="266.4819"/><!--MD5=[ab78e0c30b70647e8ecfe64e69553f73]
class model.ModelData.blocks--><rect fill="#FEFECE" filter="url(#fgquueods7wp5)" height="77.9638" id="model.ModelData.blocks" style="stroke: #A80036; stroke-width: 1.5;" width="99" x="797.5" y="204"/><ellipse cx="826.9" cy="220" fill="#ADD1B2" rx="11" ry="11" style="stroke: #A80036; stroke-width: 1.0;"/><path d="M829.8688,225.6406 Q829.2906,225.9375 828.65,226.0781 Q828.0094,226.2344 827.3063,226.2344 Q824.8063,226.2344 823.4781,224.5938 Q822.1656,222.9375 822.1656,219.8125 Q822.1656,216.6875 823.4781,215.0313 Q824.8063,213.375 827.3063,213.375 Q828.0094,213.375 828.65,213.5313 Q829.3063,213.6875 829.8688,213.9844 L829.8688,216.7031 Q829.2438,216.125 828.65,215.8594 Q828.0563,215.5781 827.4313,215.5781 Q826.0875,215.5781 825.4,216.6563 Q824.7125,217.7188 824.7125,219.8125 Q824.7125,221.9063 825.4,222.9844 Q826.0875,224.0469 827.4313,224.0469 Q828.0563,224.0469 828.65,223.7813 Q829.2438,223.5 829.8688,222.9219 L829.8688,225.6406 Z "/><text fill="#000000" font-family="sans-serif" font-size="12" lengthAdjust="spacingAndGlyphs" textLength="35" x="844.1" y="224.656">blocks</text><line style="stroke: #A80036; stroke-width: 1.5;" x1="798.5" x2="895.5" y1="236" y2="236"/><text fill="#000000" font-family="sans-serif" font-size="11" lengthAdjust="spacingAndGlyphs" textLength="20" x="803.5" y="251.7589">mid</text><line style="stroke: #A80036; stroke-width: 1.5;" x1="798.5" x2="895.5" y1="258.9819" y2="258.9819"/><text fill="#000000" font-family="sans-serif" font-size="11" lengthAdjust="spacingAndGlyphs" textLength="87" x="803.5" y="274.7408">blocks_v1: DICT()</text><!--MD5=[23416948ac9816d74e71e834aff71bff]
class model.ModelData.blocksRead--><rect fill="#FEFECE" filter="url(#fgquueods7wp5)" height="62.9819" id="model.ModelData.blocksRead" style="stroke: #A80036; stroke-width: 1.5;" width="95" x="316.5" y="211.5"/><ellipse cx="331.5" cy="227.5" fill="#ADD1B2" rx="11" ry="11" style="stroke: #A80036; stroke-width: 1.0;"/><path d="M334.4688,233.1406 Q333.8906,233.4375 333.25,233.5781 Q332.6094,233.7344 331.9063,233.7344 Q329.4063,233.7344 328.0781,232.0938 Q326.7656,230.4375 326.7656,227.3125 Q326.7656,224.1875 328.0781,222.5313 Q329.4063,220.875 331.9063,220.875 Q332.6094,220.875 333.25,221.0313 Q333.9063,221.1875 334.4688,221.4844 L334.4688,224.2031 Q333.8438,223.625 333.25,223.3594 Q332.6563,223.0781 332.0313,223.0781 Q330.6875,223.0781 330,224.1563 Q329.3125,225.2188 329.3125,227.3125 Q329.3125,229.4063 330,230.4844 Q330.6875,231.5469 332.0313,231.5469 Q332.6563,231.5469 333.25,231.2813 Q333.8438,231 334.4688,230.4219 L334.4688,233.1406 Z "/><text fill="#000000" font-family="sans-serif" font-size="12" lengthAdjust="spacingAndGlyphs" textLength="63" x="345.5" y="232.156">blocksRead</text><line style="stroke: #A80036; stroke-width: 1.5;" x1="317.5" x2="410.5" y1="243.5" y2="243.5"/><text fill="#000000" font-family="sans-serif" font-size="11" lengthAdjust="spacingAndGlyphs" textLength="20" x="322.5" y="259.2589">mid</text><line style="stroke: #A80036; stroke-width: 1.5;" x1="317.5" x2="410.5" y1="266.4819" y2="266.4819"/><!--MD5=[47071b84dc9241c9bad23684e2af5816]
class model.ModelData.blocksWrite--><rect fill="#FEFECE" filter="url(#fgquueods7wp5)" height="77.9638" id="model.ModelData.blocksWrite" style="stroke: #A80036; stroke-width: 1.5;" width="97" x="294.5" y="342"/><ellipse cx="309.5" cy="358" fill="#ADD1B2" rx="11" ry="11" style="stroke: #A80036; stroke-width: 1.0;"/><path d="M312.4688,363.6406 Q311.8906,363.9375 311.25,364.0781 Q310.6094,364.2344 309.9063,364.2344 Q307.4063,364.2344 306.0781,362.5938 Q304.7656,360.9375 304.7656,357.8125 Q304.7656,354.6875 306.0781,353.0313 Q307.4063,351.375 309.9063,351.375 Q310.6094,351.375 311.25,351.5313 Q311.9063,351.6875 312.4688,351.9844 L312.4688,354.7031 Q311.8438,354.125 311.25,353.8594 Q310.6563,353.5781 310.0313,353.5781 Q308.6875,353.5781 308,354.6563 Q307.3125,355.7188 307.3125,357.8125 Q307.3125,359.9063 308,360.9844 Q308.6875,362.0469 310.0313,362.0469 Q310.6563,362.0469 311.25,361.7813 Q311.8438,361.5 312.4688,360.9219 L312.4688,363.6406 Z "/><text fill="#000000" font-family="sans-serif" font-size="12" lengthAdjust="spacingAndGlyphs" textLength="65" x="323.5" y="362.656">blocksWrite</text><line style="stroke: #A80036; stroke-width: 1.5;" x1="295.5" x2="390.5" y1="374" y2="374"/><text fill="#000000" font-family="sans-serif" font-size="11" lengthAdjust="spacingAndGlyphs" textLength="20" x="300.5" y="389.7589">mid</text><text fill="#000000" font-family="sans-serif" font-size="11" lengthAdjust="spacingAndGlyphs" textLength="33" x="300.5" y="404.7408">blocks</text><line style="stroke: #A80036; stroke-width: 1.5;" x1="295.5" x2="390.5" y1="411.9638" y2="411.9638"/><!--MD5=[5082531de29ae6b61b8a127573845298]
class model.ModelData.compass--><rect fill="#FEFECE" filter="url(#fgquueods7wp5)" height="77.9638" id="model.ModelData.compass" style="stroke: #A80036; stroke-width: 1.5;" width="82" x="427" y="342"/><ellipse cx="442" cy="358" fill="#ADD1B2" rx="11" ry="11" style="stroke: #A80036; stroke-width: 1.0;"/><path d="M444.9688,363.6406 Q444.3906,363.9375 443.75,364.0781 Q443.1094,364.2344 442.4063,364.2344 Q439.9063,364.2344 438.5781,362.5938 Q437.2656,360.9375 437.2656,357.8125 Q437.2656,354.6875 438.5781,353.0313 Q439.9063,351.375 442.4063,351.375 Q443.1094,351.375 443.75,351.5313 Q444.4063,351.6875 444.9688,351.9844 L444.9688,354.7031 Q444.3438,354.125 443.75,353.8594 Q443.1563,353.5781 442.5313,353.5781 Q441.1875,353.5781 440.5,354.6563 Q439.8125,355.7188 439.8125,357.8125 Q439.8125,359.9063 440.5,360.9844 Q441.1875,362.0469 442.5313,362.0469 Q443.1563,362.0469 443.75,361.7813 Q444.3438,361.5 444.9688,360.9219 L444.9688,363.6406 Z "/><text fill="#000000" font-family="sans-serif" font-size="12" lengthAdjust="spacingAndGlyphs" textLength="50" x="456" y="362.656">compass</text><line style="stroke: #A80036; stroke-width: 1.5;" x1="428" x2="508" y1="374" y2="374"/><text fill="#000000" font-family="sans-serif" font-size="11" lengthAdjust="spacingAndGlyphs" textLength="20" x="433" y="389.7589">mid</text><text fill="#000000" font-family="sans-serif" font-size="11" lengthAdjust="spacingAndGlyphs" textLength="60" x="433" y="404.7408">conf: NONE</text><line style="stroke: #A80036; stroke-width: 1.5;" x1="428" x2="508" y1="411.9638" y2="411.9638"/><!--MD5=[b08dfe3d1e174479b4b89856b4cf40da]
class model.ModelData.compassWrite--><rect fill="#FEFECE" filter="url(#fgquueods7wp5)" height="77.9638" id="model.ModelData.compassWrite" style="stroke: #A80036; stroke-width: 1.5;" width="112" x="544" y="342"/><ellipse cx="559" cy="358" fill="#ADD1B2" rx="11" ry="11" style="stroke: #A80036; stroke-width: 1.0;"/><path d="M561.9688,363.6406 Q561.3906,363.9375 560.75,364.0781 Q560.1094,364.2344 559.4063,364.2344 Q556.9063,364.2344 555.5781,362.5938 Q554.2656,360.9375 554.2656,357.8125 Q554.2656,354.6875 555.5781,353.0313 Q556.9063,351.375 559.4063,351.375 Q560.1094,351.375 560.75,351.5313 Q561.4063,351.6875 561.9688,351.9844 L561.9688,354.7031 Q561.3438,354.125 560.75,353.8594 Q560.1563,353.5781 559.5313,353.5781 Q558.1875,353.5781 557.5,354.6563 Q556.8125,355.7188 556.8125,357.8125 Q556.8125,359.9063 557.5,360.9844 Q558.1875,362.0469 559.5313,362.0469 Q560.1563,362.0469 560.75,361.7813 Q561.3438,361.5 561.9688,360.9219 L561.9688,363.6406 Z "/><text fill="#000000" font-family="sans-serif" font-size="12" lengthAdjust="spacingAndGlyphs" textLength="80" x="573" y="362.656">compassWrite</text><line style="stroke: #A80036; stroke-width: 1.5;" x1="545" x2="655" y1="374" y2="374"/><text fill="#000000" font-family="sans-serif" font-size="11" lengthAdjust="spacingAndGlyphs" textLength="20" x="550" y="389.7589">mid</text><text fill="#000000" font-family="sans-serif" font-size="11" lengthAdjust="spacingAndGlyphs" textLength="23" x="550" y="404.7408">conf</text><line style="stroke: #A80036; stroke-width: 1.5;" x1="545" x2="655" y1="411.9638" y2="411.9638"/><!--MD5=[882d4454a9692ae77a01b43907f5df7e]
class model.ModelData.compassRead--><rect fill="#FEFECE" filter="url(#fgquueods7wp5)" height="62.9819" id="model.ModelData.compassRead" style="stroke: #A80036; stroke-width: 1.5;" width="110" x="418" y="490"/><ellipse cx="433" cy="506" fill="#ADD1B2" rx="11" ry="11" style="stroke: #A80036; stroke-width: 1.0;"/><path d="M435.9688,511.6406 Q435.3906,511.9375 434.75,512.0781 Q434.1094,512.2344 433.4063,512.2344 Q430.9063,512.2344 429.5781,510.5938 Q428.2656,508.9375 428.2656,505.8125 Q428.2656,502.6875 429.5781,501.0313 Q430.9063,499.375 433.4063,499.375 Q434.1094,499.375 434.75,499.5313 Q435.4063,499.6875 435.9688,499.9844 L435.9688,502.7031 Q435.3438,502.125 434.75,501.8594 Q434.1563,501.5781 433.5313,501.5781 Q432.1875,501.5781 431.5,502.6563 Q430.8125,503.7188 430.8125,505.8125 Q430.8125,507.9063 431.5,508.9844 Q432.1875,510.0469 433.5313,510.0469 Q434.1563,510.0469 434.75,509.7813 Q435.3438,509.5 435.9688,508.9219 L435.9688,511.6406 Z "/><text fill="#000000" font-family="sans-serif" font-size="12" lengthAdjust="spacingAndGlyphs" textLength="78" x="447" y="510.656">compassRead</text><line style="stroke: #A80036; stroke-width: 1.5;" x1="419" x2="527" y1="522" y2="522"/><text fill="#000000" font-family="sans-serif" font-size="11" lengthAdjust="spacingAndGlyphs" textLength="20" x="424" y="537.7589">mid</text><line style="stroke: #A80036; stroke-width: 1.5;" x1="419" x2="527" y1="544.9819" y2="544.9819"/><!--MD5=[80316a74d09cdcc1defd161aa22d5dd3]
class model.ModelData.pens--><rect fill="#FEFECE" filter="url(#fgquueods7wp5)" height="62.9819" id="model.ModelData.pens" style="stroke: #A80036; stroke-width: 1.5;" width="66" x="447" y="211.5"/><ellipse cx="465.15" cy="227.5" fill="#ADD1B2" rx="11" ry="11" style="stroke: #A80036; stroke-width: 1.0;"/><path d="M468.1188,233.1406 Q467.5406,233.4375 466.9,233.5781 Q466.2594,233.7344 465.5563,233.7344 Q463.0563,233.7344 461.7281,232.0938 Q460.4156,230.4375 460.4156,227.3125 Q460.4156,224.1875 461.7281,222.5313 Q463.0563,220.875 465.5563,220.875 Q466.2594,220.875 466.9,221.0313 Q467.5563,221.1875 468.1188,221.4844 L468.1188,224.2031 Q467.4938,223.625 466.9,223.3594 Q466.3063,223.0781 465.6813,223.0781 Q464.3375,223.0781 463.65,224.1563 Q462.9625,225.2188 462.9625,227.3125 Q462.9625,229.4063 463.65,230.4844 Q464.3375,231.5469 465.6813,231.5469 Q466.3063,231.5469 466.9,231.2813 Q467.4938,231 468.1188,230.4219 L468.1188,233.1406 Z "/><text fill="#000000" font-family="sans-serif" font-size="12" lengthAdjust="spacingAndGlyphs" textLength="27" x="479.85" y="232.156">pens</text><line style="stroke: #A80036; stroke-width: 1.5;" x1="448" x2="512" y1="243.5" y2="243.5"/><text fill="#000000" font-family="sans-serif" font-size="11" lengthAdjust="spacingAndGlyphs" textLength="54" x="453" y="259.2589">ver: NONE</text><line style="stroke: #A80036; stroke-width: 1.5;" x1="448" x2="512" y1="266.4819" y2="266.4819"/><!--MD5=[e9d41d88ada62685a750a6662dc2d9d5]
class model.ModelData.setBlocksize--><rect fill="#FEFECE" filter="url(#fgquueods7wp5)" height="62.9819" id="model.ModelData.setBlocksize" style="stroke: #A80036; stroke-width: 1.5;" width="101" x="661.5" y="211.5"/><ellipse cx="676.5" cy="227.5" fill="#ADD1B2" rx="11" ry="11" style="stroke: #A80036; stroke-width: 1.0;"/><path d="M679.4688,233.1406 Q678.8906,233.4375 678.25,233.5781 Q677.6094,233.7344 676.9063,233.7344 Q674.4063,233.7344 673.0781,232.0938 Q671.7656,230.4375 671.7656,227.3125 Q671.7656,224.1875 673.0781,222.5313 Q674.4063,220.875 676.9063,220.875 Q677.6094,220.875 678.25,221.0313 Q678.9063,221.1875 679.4688,221.4844 L679.4688,224.2031 Q678.8438,223.625 678.25,223.3594 Q677.6563,223.0781 677.0313,223.0781 Q675.6875,223.0781 675,224.1563 Q674.3125,225.2188 674.3125,227.3125 Q674.3125,229.4063 675,230.4844 Q675.6875,231.5469 677.0313,231.5469 Q677.6563,231.5469 678.25,231.2813 Q678.8438,231 679.4688,230.4219 L679.4688,233.1406 Z "/><text fill="#000000" font-family="sans-serif" font-size="12" lengthAdjust="spacingAndGlyphs" textLength="69" x="690.5" y="232.156">setBlocksize</text><line style="stroke: #A80036; stroke-width: 1.5;" x1="662.5" x2="761.5" y1="243.5" y2="243.5"/><text fill="#000000" font-family="sans-serif" font-size="11" lengthAdjust="spacingAndGlyphs" textLength="20" x="667.5" y="259.2589">mid</text><line style="stroke: #A80036; stroke-width: 1.5;" x1="662.5" x2="761.5" y1="266.4819" y2="266.4819"/><!--MD5=[5e715efdc21ba5adb2e1e5460d46e0b8]
class model.ModelData.positionString--><rect fill="#FEFECE" filter="url(#fgquueods7wp5)" height="62.9819" id="model.ModelData.positionString" style="stroke: #A80036; stroke-width: 1.5;" width="109" x="563.5" y="490"/><ellipse cx="578.5" cy="506" fill="#ADD1B2" rx="11" ry="11" style="stroke: #A80036; stroke-width: 1.0;"/><path d="M581.4688,511.6406 Q580.8906,511.9375 580.25,512.0781 Q579.6094,512.2344 578.9063,512.2344 Q576.4063,512.2344 575.0781,510.5938 Q573.7656,508.9375 573.7656,505.8125 Q573.7656,502.6875 575.0781,501.0313 Q576.4063,499.375 578.9063,499.375 Q579.6094,499.375 580.25,499.5313 Q580.9063,499.6875 581.4688,499.9844 L581.4688,502.7031 Q580.8438,502.125 580.25,501.8594 Q579.6563,501.5781 579.0313,501.5781 Q577.6875,501.5781 577,502.6563 Q576.3125,503.7188 576.3125,505.8125 Q576.3125,507.9063 577,508.9844 Q577.6875,510.0469 579.0313,510.0469 Q579.6563,510.0469 580.25,509.7813 Q580.8438,509.5 581.4688,508.9219 L581.4688,511.6406 Z "/><text fill="#000000" font-family="sans-serif" font-size="12" lengthAdjust="spacingAndGlyphs" textLength="77" x="592.5" y="510.656">positionString</text><line style="stroke: #A80036; stroke-width: 1.5;" x1="564.5" x2="671.5" y1="522" y2="522"/><text fill="#000000" font-family="sans-serif" font-size="11" lengthAdjust="spacingAndGlyphs" textLength="20" x="569.5" y="537.7589">mid</text><line style="stroke: #A80036; stroke-width: 1.5;" x1="564.5" x2="671.5" y1="544.9819" y2="544.9819"/><!--MD5=[5bf9eb9dfc2c2eeefa5eaaf815c0237a]
class model.ModelData.stats--><rect fill="#FEFECE" filter="url(#fgquueods7wp5)" height="48" id="model.ModelData.stats" style="stroke: #A80036; stroke-width: 1.5;" width="59" x="707.5" y="497.5"/><ellipse cx="722.5" cy="513.5" fill="#ADD1B2" rx="11" ry="11" style="stroke: #A80036; stroke-width: 1.0;"/><path d="M725.4688,519.1406 Q724.8906,519.4375 724.25,519.5781 Q723.6094,519.7344 722.9063,519.7344 Q720.4063,519.7344 719.0781,518.0938 Q717.7656,516.4375 717.7656,513.3125 Q717.7656,510.1875 719.0781,508.5313 Q720.4063,506.875 722.9063,506.875 Q723.6094,506.875 724.25,507.0313 Q724.9063,507.1875 725.4688,507.4844 L725.4688,510.2031 Q724.8438,509.625 724.25,509.3594 Q723.6563,509.0781 723.0313,509.0781 Q721.6875,509.0781 721,510.1563 Q720.3125,511.2188 720.3125,513.3125 Q720.3125,515.4063 721,516.4844 Q721.6875,517.5469 723.0313,517.5469 Q723.6563,517.5469 724.25,517.2813 Q724.8438,517 725.4688,516.4219 L725.4688,519.1406 Z "/><text fill="#000000" font-family="sans-serif" font-size="12" lengthAdjust="spacingAndGlyphs" textLength="27" x="736.5" y="518.156">stats</text><line style="stroke: #A80036; stroke-width: 1.5;" x1="708.5" x2="765.5" y1="529.5" y2="529.5"/><line style="stroke: #A80036; stroke-width: 1.5;" x1="708.5" x2="765.5" y1="537.5" y2="537.5"/><!--MD5=[7f8d5a434782bb0a76752cad4fdf4397]
class model.Init.setInput--><rect fill="#FEFECE" filter="url(#fgquueods7wp5)" height="77.9638" id="model.Init.setInput" style="stroke: #A80036; stroke-width: 1.5;" width="82" x="1365" y="677"/><ellipse cx="1381.8" cy="693" fill="#ADD1B2" rx="11" ry="11" style="stroke: #A80036; stroke-width: 1.0;"/><path d="M1384.7688,698.6406 Q1384.1906,698.9375 1383.55,699.0781 Q1382.9094,699.2344 1382.2063,699.2344 Q1379.7063,699.2344 1378.3781,697.5938 Q1377.0656,695.9375 1377.0656,692.8125 Q1377.0656,689.6875 1378.3781,688.0313 Q1379.7063,686.375 1382.2063,686.375 Q1382.9094,686.375 1383.55,686.5313 Q1384.2063,686.6875 1384.7688,686.9844 L1384.7688,689.7031 Q1384.1438,689.125 1383.55,688.8594 Q1382.9563,688.5781 1382.3313,688.5781 Q1380.9875,688.5781 1380.3,689.6563 Q1379.6125,690.7188 1379.6125,692.8125 Q1379.6125,694.9063 1380.3,695.9844 Q1380.9875,697.0469 1382.3313,697.0469 Q1382.9563,697.0469 1383.55,696.7813 Q1384.1438,696.5 1384.7688,695.9219 L1384.7688,698.6406 Z "/><text fill="#000000" font-family="sans-serif" font-size="12" lengthAdjust="spacingAndGlyphs" textLength="46" x="1396.2" y="697.656">setInput</text><line style="stroke: #A80036; stroke-width: 1.5;" x1="1366" x2="1446" y1="709" y2="709"/><text fill="#000000" font-family="sans-serif" font-size="11" lengthAdjust="spacingAndGlyphs" textLength="70" x="1371" y="724.7589">mnam: NONE</text><text fill="#000000" font-family="sans-serif" font-size="11" lengthAdjust="spacingAndGlyphs" textLength="57" x="1371" y="739.7408">pen: NONE</text><line style="stroke: #A80036; stroke-width: 1.5;" x1="1366" x2="1446" y1="746.9638" y2="746.9638"/><!--MD5=[812d639d2c64f35d14bb4185a2f4802b]
class model.Init.generate--><rect fill="#FEFECE" filter="url(#fgquueods7wp5)" height="77.9638" id="model.Init.generate" style="stroke: #A80036; stroke-width: 1.5;" width="83" x="1246.5" y="677"/><ellipse cx="1261.5" cy="693" fill="#ADD1B2" rx="11" ry="11" style="stroke: #A80036; stroke-width: 1.0;"/><path d="M1264.4688,698.6406 Q1263.8906,698.9375 1263.25,699.0781 Q1262.6094,699.2344 1261.9063,699.2344 Q1259.4063,699.2344 1258.0781,697.5938 Q1256.7656,695.9375 1256.7656,692.8125 Q1256.7656,689.6875 1258.0781,688.0313 Q1259.4063,686.375 1261.9063,686.375 Q1262.6094,686.375 1263.25,686.5313 Q1263.9063,686.6875 1264.4688,686.9844 L1264.4688,689.7031 Q1263.8438,689.125 1263.25,688.8594 Q1262.6563,688.5781 1262.0313,688.5781 Q1260.6875,688.5781 1260,689.6563 Q1259.3125,690.7188 1259.3125,692.8125 Q1259.3125,694.9063 1260,695.9844 Q1260.6875,697.0469 1262.0313,697.0469 Q1262.6563,697.0469 1263.25,696.7813 Q1263.8438,696.5 1264.4688,695.9219 L1264.4688,698.6406 Z "/><text fill="#000000" font-family="sans-serif" font-size="12" lengthAdjust="spacingAndGlyphs" textLength="51" x="1275.5" y="697.656">generate</text><line style="stroke: #A80036; stroke-width: 1.5;" x1="1247.5" x2="1328.5" y1="709" y2="709"/><text fill="#000000" font-family="sans-serif" font-size="11" lengthAdjust="spacingAndGlyphs" textLength="33" x="1252.5" y="724.7589">model</text><text fill="#000000" font-family="sans-serif" font-size="11" lengthAdjust="spacingAndGlyphs" textLength="20" x="1252.5" y="739.7408">pen</text><line style="stroke: #A80036; stroke-width: 1.5;" x1="1247.5" x2="1328.5" y1="746.9638" y2="746.9638"/><!--MD5=[ced8ead238ea92aed66b32df59bbbfec]
class model.Compass.axis--><rect fill="#FEFECE" filter="url(#fgquueods7wp5)" height="48" id="model.Compass.axis" style="stroke: #A80036; stroke-width: 1.5;" width="54" x="1004" y="497.5"/><ellipse cx="1019" cy="513.5" fill="#ADD1B2" rx="11" ry="11" style="stroke: #A80036; stroke-width: 1.0;"/><path d="M1021.9688,519.1406 Q1021.3906,519.4375 1020.75,519.5781 Q1020.1094,519.7344 1019.4063,519.7344 Q1016.9063,519.7344 1015.5781,518.0938 Q1014.2656,516.4375 1014.2656,513.3125 Q1014.2656,510.1875 1015.5781,508.5313 Q1016.9063,506.875 1019.4063,506.875 Q1020.1094,506.875 1020.75,507.0313 Q1021.4063,507.1875 1021.9688,507.4844 L1021.9688,510.2031 Q1021.3438,509.625 1020.75,509.3594 Q1020.1563,509.0781 1019.5313,509.0781 Q1018.1875,509.0781 1017.5,510.1563 Q1016.8125,511.2188 1016.8125,513.3125 Q1016.8125,515.4063 1017.5,516.4844 Q1018.1875,517.5469 1019.5313,517.5469 Q1020.1563,517.5469 1020.75,517.2813 Q1021.3438,517 1021.9688,516.4219 L1021.9688,519.1406 Z "/><text fill="#000000" font-family="sans-serif" font-size="12" lengthAdjust="spacingAndGlyphs" textLength="22" x="1033" y="518.156">axis</text><line style="stroke: #A80036; stroke-width: 1.5;" x1="1005" x2="1057" y1="529.5" y2="529.5"/><line style="stroke: #A80036; stroke-width: 1.5;" x1="1005" x2="1057" y1="537.5" y2="537.5"/><!--MD5=[e5fea740f47a02e52c480ae78bfd0c6d]
class model.Compass.all--><rect fill="#FEFECE" filter="url(#fgquueods7wp5)" height="62.9819" id="model.Compass.all" style="stroke: #A80036; stroke-width: 1.5;" width="45" x="1093.5" y="490"/><ellipse cx="1108.5" cy="506" fill="#ADD1B2" rx="11" ry="11" style="stroke: #A80036; stroke-width: 1.0;"/><path d="M1111.4688,511.6406 Q1110.8906,511.9375 1110.25,512.0781 Q1109.6094,512.2344 1108.9063,512.2344 Q1106.4063,512.2344 1105.0781,510.5938 Q1103.7656,508.9375 1103.7656,505.8125 Q1103.7656,502.6875 1105.0781,501.0313 Q1106.4063,499.375 1108.9063,499.375 Q1109.6094,499.375 1110.25,499.5313 Q1110.9063,499.6875 1111.4688,499.9844 L1111.4688,502.7031 Q1110.8438,502.125 1110.25,501.8594 Q1109.6563,501.5781 1109.0313,501.5781 Q1107.6875,501.5781 1107,502.6563 Q1106.3125,503.7188 1106.3125,505.8125 Q1106.3125,507.9063 1107,508.9844 Q1107.6875,510.0469 1109.0313,510.0469 Q1109.6563,510.0469 1110.25,509.7813 Q1110.8438,509.5 1111.4688,508.9219 L1111.4688,511.6406 Z "/><text fill="#000000" font-family="sans-serif" font-size="12" lengthAdjust="spacingAndGlyphs" textLength="13" x="1122.5" y="510.656">all</text><line style="stroke: #A80036; stroke-width: 1.5;" x1="1094.5" x2="1137.5" y1="522" y2="522"/><text fill="#000000" font-family="sans-serif" font-size="11" lengthAdjust="spacingAndGlyphs" textLength="17" x="1099.5" y="537.7589">cell</text><line style="stroke: #A80036; stroke-width: 1.5;" x1="1094.5" x2="1137.5" y1="544.9819" y2="544.9819"/><!--MD5=[4365ef6b6c1ed0ad6e2736291e9f7ee2]
class model.Compass.one--><rect fill="#FEFECE" filter="url(#fgquueods7wp5)" height="62.9819" id="model.Compass.one" style="stroke: #A80036; stroke-width: 1.5;" width="53" x="1004.5" y="684.5"/><ellipse cx="1019.5" cy="700.5" fill="#ADD1B2" rx="11" ry="11" style="stroke: #A80036; stroke-width: 1.0;"/><path d="M1022.4688,706.1406 Q1021.8906,706.4375 1021.25,706.5781 Q1020.6094,706.7344 1019.9063,706.7344 Q1017.4063,706.7344 1016.0781,705.0938 Q1014.7656,703.4375 1014.7656,700.3125 Q1014.7656,697.1875 1016.0781,695.5313 Q1017.4063,693.875 1019.9063,693.875 Q1020.6094,693.875 1021.25,694.0313 Q1021.9063,694.1875 1022.4688,694.4844 L1022.4688,697.2031 Q1021.8438,696.625 1021.25,696.3594 Q1020.6563,696.0781 1020.0313,696.0781 Q1018.6875,696.0781 1018,697.1563 Q1017.3125,698.2188 1017.3125,700.3125 Q1017.3125,702.4063 1018,703.4844 Q1018.6875,704.5469 1020.0313,704.5469 Q1020.6563,704.5469 1021.25,704.2813 Q1021.8438,704 1022.4688,703.4219 L1022.4688,706.1406 Z "/><text fill="#000000" font-family="sans-serif" font-size="12" lengthAdjust="spacingAndGlyphs" textLength="21" x="1033.5" y="705.156">one</text><line style="stroke: #A80036; stroke-width: 1.5;" x1="1005.5" x2="1056.5" y1="716.5" y2="716.5"/><text fill="#000000" font-family="sans-serif" font-size="11" lengthAdjust="spacingAndGlyphs" textLength="17" x="1010.5" y="732.2589">cell</text><line style="stroke: #A80036; stroke-width: 1.5;" x1="1005.5" x2="1056.5" y1="739.4819" y2="739.4819"/><!--MD5=[1024a6dad5fe8ee8435bd9f1c5b6c1e3]
class model.SvgPalette.render--><rect fill="#FEFECE" filter="url(#fgquueods7wp5)" height="77.9638" id="model.SvgPalette.render" style="stroke: #A80036; stroke-width: 1.5;" width="70" x="630" y="677"/><ellipse cx="645" cy="693" fill="#ADD1B2" rx="11" ry="11" style="stroke: #A80036; stroke-width: 1.0;"/><path d="M647.9688,698.6406 Q647.3906,698.9375 646.75,699.0781 Q646.1094,699.2344 645.4063,699.2344 Q642.9063,699.2344 641.5781,697.5938 Q640.2656,695.9375 640.2656,692.8125 Q640.2656,689.6875 641.5781,688.0313 Q642.9063,686.375 645.4063,686.375 Q646.1094,686.375 646.75,686.5313 Q647.4063,686.6875 647.9688,686.9844 L647.9688,689.7031 Q647.3438,689.125 646.75,688.8594 Q646.1563,688.5781 645.5313,688.5781 Q644.1875,688.5781 643.5,689.6563 Q642.8125,690.7188 642.8125,692.8125 Q642.8125,694.9063 643.5,695.9844 Q644.1875,697.0469 645.5313,697.0469 Q646.1563,697.0469 646.75,696.7813 Q647.3438,696.5 647.9688,695.9219 L647.9688,698.6406 Z "/><text fill="#000000" font-family="sans-serif" font-size="12" lengthAdjust="spacingAndGlyphs" textLength="38" x="659" y="697.656">render</text><line style="stroke: #A80036; stroke-width: 1.5;" x1="631" x2="699" y1="709" y2="709"/><text fill="#000000" font-family="sans-serif" font-size="11" lengthAdjust="spacingAndGlyphs" textLength="11" x="636" y="724.7589">fn</text><text fill="#000000" font-family="sans-serif" font-size="11" lengthAdjust="spacingAndGlyphs" textLength="36" x="636" y="739.7408">palette</text><line style="stroke: #A80036; stroke-width: 1.5;" x1="631" x2="699" y1="746.9638" y2="746.9638"/><!--MD5=[75928706f62f08e6a41480b31f66ce60]
class model.SvgPalette.hexRgb--><rect fill="#FEFECE" filter="url(#fgquueods7wp5)" height="62.9819" id="model.SvgPalette.hexRgb" style="stroke: #A80036; stroke-width: 1.5;" width="73" x="735.5" y="684.5"/><ellipse cx="750.5" cy="700.5" fill="#ADD1B2" rx="11" ry="11" style="stroke: #A80036; stroke-width: 1.0;"/><path d="M753.4688,706.1406 Q752.8906,706.4375 752.25,706.5781 Q751.6094,706.7344 750.9063,706.7344 Q748.4063,706.7344 747.0781,705.0938 Q745.7656,703.4375 745.7656,700.3125 Q745.7656,697.1875 747.0781,695.5313 Q748.4063,693.875 750.9063,693.875 Q751.6094,693.875 752.25,694.0313 Q752.9063,694.1875 753.4688,694.4844 L753.4688,697.2031 Q752.8438,696.625 752.25,696.3594 Q751.6563,696.0781 751.0313,696.0781 Q749.6875,696.0781 749,697.1563 Q748.3125,698.2188 748.3125,700.3125 Q748.3125,702.4063 749,703.4844 Q749.6875,704.5469 751.0313,704.5469 Q751.6563,704.5469 752.25,704.2813 Q752.8438,704 753.4688,703.4219 L753.4688,706.1406 Z "/><text fill="#000000" font-family="sans-serif" font-size="12" lengthAdjust="spacingAndGlyphs" textLength="41" x="764.5" y="705.156">hexRgb</text><line style="stroke: #A80036; stroke-width: 1.5;" x1="736.5" x2="807.5" y1="716.5" y2="716.5"/><text fill="#000000" font-family="sans-serif" font-size="11" lengthAdjust="spacingAndGlyphs" textLength="33" x="741.5" y="732.2589">hexstr</text><line style="stroke: #A80036; stroke-width: 1.5;" x1="736.5" x2="807.5" y1="739.4819" y2="739.4819"/><!--MD5=[bb75b5f751a108d45e0e84436e6e107d]
class model.SvgPalette.tableRows--><rect fill="#FEFECE" filter="url(#fgquueods7wp5)" height="62.9819" id="model.SvgPalette.tableRows" style="stroke: #A80036; stroke-width: 1.5;" width="89" x="843.5" y="684.5"/><ellipse cx="858.5" cy="700.5" fill="#ADD1B2" rx="11" ry="11" style="stroke: #A80036; stroke-width: 1.0;"/><path d="M861.4688,706.1406 Q860.8906,706.4375 860.25,706.5781 Q859.6094,706.7344 858.9063,706.7344 Q856.4063,706.7344 855.0781,705.0938 Q853.7656,703.4375 853.7656,700.3125 Q853.7656,697.1875 855.0781,695.5313 Q856.4063,693.875 858.9063,693.875 Q859.6094,693.875 860.25,694.0313 Q860.9063,694.1875 861.4688,694.4844 L861.4688,697.2031 Q860.8438,696.625 860.25,696.3594 Q859.6563,696.0781 859.0313,696.0781 Q857.6875,696.0781 857,697.1563 Q856.3125,698.2188 856.3125,700.3125 Q856.3125,702.4063 857,703.4844 Q857.6875,704.5469 859.0313,704.5469 Q859.6563,704.5469 860.25,704.2813 Q860.8438,704 861.4688,703.4219 L861.4688,706.1406 Z "/><text fill="#000000" font-family="sans-serif" font-size="12" lengthAdjust="spacingAndGlyphs" textLength="57" x="872.5" y="705.156">tableRows</text><line style="stroke: #A80036; stroke-width: 1.5;" x1="844.5" x2="931.5" y1="716.5" y2="716.5"/><text fill="#000000" font-family="sans-serif" font-size="11" lengthAdjust="spacingAndGlyphs" textLength="36" x="849.5" y="732.2589">palette</text><line style="stroke: #A80036; stroke-width: 1.5;" x1="844.5" x2="931.5" y1="739.4819" y2="739.4819"/><!--MD5=[66ec293ff9d3fd14e85efa9bbc501ad1]
class model.SvgPalette.htmlHeader--><rect fill="#FEFECE" filter="url(#fgquueods7wp5)" height="48" id="model.SvgPalette.htmlHeader" style="stroke: #A80036; stroke-width: 1.5;" width="99" x="630.5" y="852.5"/><ellipse cx="645.5" cy="868.5" fill="#ADD1B2" rx="11" ry="11" style="stroke: #A80036; stroke-width: 1.0;"/><path d="M648.4688,874.1406 Q647.8906,874.4375 647.25,874.5781 Q646.6094,874.7344 645.9063,874.7344 Q643.4063,874.7344 642.0781,873.0938 Q640.7656,871.4375 640.7656,868.3125 Q640.7656,865.1875 642.0781,863.5313 Q643.4063,861.875 645.9063,861.875 Q646.6094,861.875 647.25,862.0313 Q647.9063,862.1875 648.4688,862.4844 L648.4688,865.2031 Q647.8438,864.625 647.25,864.3594 Q646.6563,864.0781 646.0313,864.0781 Q644.6875,864.0781 644,865.1563 Q643.3125,866.2188 643.3125,868.3125 Q643.3125,870.4063 644,871.4844 Q644.6875,872.5469 646.0313,872.5469 Q646.6563,872.5469 647.25,872.2813 Q647.8438,872 648.4688,871.4219 L648.4688,874.1406 Z "/><text fill="#000000" font-family="sans-serif" font-size="12" lengthAdjust="spacingAndGlyphs" textLength="67" x="659.5" y="873.156">htmlHeader</text><line style="stroke: #A80036; stroke-width: 1.5;" x1="631.5" x2="728.5" y1="884.5" y2="884.5"/><line style="stroke: #A80036; stroke-width: 1.5;" x1="631.5" x2="728.5" y1="892.5" y2="892.5"/><!--MD5=[6c18740190f8fb688248a75dee4771f5]
class model.SvgPalette.htmlFooter--><rect fill="#FEFECE" filter="url(#fgquueods7wp5)" height="48" id="model.SvgPalette.htmlFooter" style="stroke: #A80036; stroke-width: 1.5;" width="93" x="764.5" y="852.5"/><ellipse cx="779.5" cy="868.5" fill="#ADD1B2" rx="11" ry="11" style="stroke: #A80036; stroke-width: 1.0;"/><path d="M782.4688,874.1406 Q781.8906,874.4375 781.25,874.5781 Q780.6094,874.7344 779.9063,874.7344 Q777.4063,874.7344 776.0781,873.0938 Q774.7656,871.4375 774.7656,868.3125 Q774.7656,865.1875 776.0781,863.5313 Q777.4063,861.875 779.9063,861.875 Q780.6094,861.875 781.25,862.0313 Q781.9063,862.1875 782.4688,862.4844 L782.4688,865.2031 Q781.8438,864.625 781.25,864.3594 Q780.6563,864.0781 780.0313,864.0781 Q778.6875,864.0781 778,865.1563 Q777.3125,866.2188 777.3125,868.3125 Q777.3125,870.4063 778,871.4844 Q778.6875,872.5469 780.0313,872.5469 Q780.6563,872.5469 781.25,872.2813 Q781.8438,872 782.4688,871.4219 L782.4688,874.1406 Z "/><text fill="#000000" font-family="sans-serif" font-size="12" lengthAdjust="spacingAndGlyphs" textLength="61" x="793.5" y="873.156">htmlFooter</text><line style="stroke: #A80036; stroke-width: 1.5;" x1="765.5" x2="856.5" y1="884.5" y2="884.5"/><line style="stroke: #A80036; stroke-width: 1.5;" x1="765.5" x2="856.5" y1="892.5" y2="892.5"/><!--MD5=[96210a556cb57069f3a1d3e089eefb83]
class model.SvgModel.explode--><rect fill="#FEFECE" filter="url(#fgquueods7wp5)" height="62.9819" id="model.SvgModel.explode" style="stroke: #A80036; stroke-width: 1.5;" width="76" x="2119" y="684.5"/><ellipse cx="2134" cy="700.5" fill="#ADD1B2" rx="11" ry="11" style="stroke: #A80036; stroke-width: 1.0;"/><path d="M2136.9688,706.1406 Q2136.3906,706.4375 2135.75,706.5781 Q2135.1094,706.7344 2134.4063,706.7344 Q2131.9063,706.7344 2130.5781,705.0938 Q2129.2656,703.4375 2129.2656,700.3125 Q2129.2656,697.1875 2130.5781,695.5313 Q2131.9063,693.875 2134.4063,693.875 Q2135.1094,693.875 2135.75,694.0313 Q2136.4063,694.1875 2136.9688,694.4844 L2136.9688,697.2031 Q2136.3438,696.625 2135.75,696.3594 Q2135.1563,696.0781 2134.5313,696.0781 Q2133.1875,696.0781 2132.5,697.1563 Q2131.8125,698.2188 2131.8125,700.3125 Q2131.8125,702.4063 2132.5,703.4844 Q2133.1875,704.5469 2134.5313,704.5469 Q2135.1563,704.5469 2135.75,704.2813 Q2136.3438,704 2136.9688,703.4219 L2136.9688,706.1406 Z "/><text fill="#000000" font-family="sans-serif" font-size="12" lengthAdjust="spacingAndGlyphs" textLength="44" x="2148" y="705.156">explode</text><line style="stroke: #A80036; stroke-width: 1.5;" x1="2120" x2="2194" y1="716.5" y2="716.5"/><text fill="#000000" font-family="sans-serif" font-size="11" lengthAdjust="spacingAndGlyphs" textLength="28" x="2125" y="732.2589">block</text><line style="stroke: #A80036; stroke-width: 1.5;" x1="2120" x2="2194" y1="739.4819" y2="739.4819"/><!--MD5=[5cee4b145b1dc138df0a62eaa2428153]
class model.SvgModel.walk--><rect fill="#FEFECE" filter="url(#fgquueods7wp5)" height="137.8913" id="model.SvgModel.walk" style="stroke: #A80036; stroke-width: 1.5;" width="57" x="2230.5" y="647"/><ellipse cx="2245.5" cy="663" fill="#ADD1B2" rx="11" ry="11" style="stroke: #A80036; stroke-width: 1.0;"/><path d="M2248.4688,668.6406 Q2247.8906,668.9375 2247.25,669.0781 Q2246.6094,669.2344 2245.9063,669.2344 Q2243.4063,669.2344 2242.0781,667.5938 Q2240.7656,665.9375 2240.7656,662.8125 Q2240.7656,659.6875 2242.0781,658.0313 Q2243.4063,656.375 2245.9063,656.375 Q2246.6094,656.375 2247.25,656.5313 Q2247.9063,656.6875 2248.4688,656.9844 L2248.4688,659.7031 Q2247.8438,659.125 2247.25,658.8594 Q2246.6563,658.5781 2246.0313,658.5781 Q2244.6875,658.5781 2244,659.6563 Q2243.3125,660.7188 2243.3125,662.8125 Q2243.3125,664.9063 2244,665.9844 Q2244.6875,667.0469 2246.0313,667.0469 Q2246.6563,667.0469 2247.25,666.7813 Q2247.8438,666.5 2248.4688,665.9219 L2248.4688,668.6406 Z "/><text fill="#000000" font-family="sans-serif" font-size="12" lengthAdjust="spacingAndGlyphs" textLength="25" x="2259.5" y="667.656">walk</text><line style="stroke: #A80036; stroke-width: 1.5;" x1="2231.5" x2="2286.5" y1="679" y2="679"/><text fill="#000000" font-family="sans-serif" font-size="11" lengthAdjust="spacingAndGlyphs" textLength="28" x="2236.5" y="694.7589">block</text><text fill="#000000" font-family="sans-serif" font-size="11" lengthAdjust="spacingAndGlyphs" textLength="41" x="2236.5" y="709.7408">cellnum</text><text fill="#000000" font-family="sans-serif" font-size="11" lengthAdjust="spacingAndGlyphs" textLength="13" x="2236.5" y="724.7227">b0</text><text fill="#000000" font-family="sans-serif" font-size="11" lengthAdjust="spacingAndGlyphs" textLength="13" x="2236.5" y="739.7046">b1</text><text fill="#000000" font-family="sans-serif" font-size="11" lengthAdjust="spacingAndGlyphs" textLength="27" x="2236.5" y="754.6865">CLEN</text><text fill="#000000" font-family="sans-serif" font-size="11" lengthAdjust="spacingAndGlyphs" textLength="26" x="2236.5" y="769.6684">edge</text><line style="stroke: #A80036; stroke-width: 1.5;" x1="2231.5" x2="2286.5" y1="776.8913" y2="776.8913"/><!--MD5=[27dd6ebbd88b5da3b3e6e92cf1c52db7]
class model.SvgModel.build--><rect fill="#FEFECE" filter="url(#fgquueods7wp5)" height="62.9819" id="model.SvgModel.build" style="stroke: #A80036; stroke-width: 1.5;" width="59" x="2322.5" y="684.5"/><ellipse cx="2337.5" cy="700.5" fill="#ADD1B2" rx="11" ry="11" style="stroke: #A80036; stroke-width: 1.0;"/><path d="M2340.4688,706.1406 Q2339.8906,706.4375 2339.25,706.5781 Q2338.6094,706.7344 2337.9063,706.7344 Q2335.4063,706.7344 2334.0781,705.0938 Q2332.7656,703.4375 2332.7656,700.3125 Q2332.7656,697.1875 2334.0781,695.5313 Q2335.4063,693.875 2337.9063,693.875 Q2338.6094,693.875 2339.25,694.0313 Q2339.9063,694.1875 2340.4688,694.4844 L2340.4688,697.2031 Q2339.8438,696.625 2339.25,696.3594 Q2338.6563,696.0781 2338.0313,696.0781 Q2336.6875,696.0781 2336,697.1563 Q2335.3125,698.2188 2335.3125,700.3125 Q2335.3125,702.4063 2336,703.4844 Q2336.6875,704.5469 2338.0313,704.5469 Q2338.6563,704.5469 2339.25,704.2813 Q2339.8438,704 2340.4688,703.4219 L2340.4688,706.1406 Z "/><text fill="#000000" font-family="sans-serif" font-size="12" lengthAdjust="spacingAndGlyphs" textLength="27" x="2351.5" y="705.156">build</text><line style="stroke: #A80036; stroke-width: 1.5;" x1="2323.5" x2="2380.5" y1="716.5" y2="716.5"/><text fill="#000000" font-family="sans-serif" font-size="11" lengthAdjust="spacingAndGlyphs" textLength="28" x="2328.5" y="732.2589">block</text><line style="stroke: #A80036; stroke-width: 1.5;" x1="2323.5" x2="2380.5" y1="739.4819" y2="739.4819"/><!--MD5=[9ffe449fbf1524fc59c2d55226f4276c]
class model.SvgModel.setSvgHeader--><rect fill="#FEFECE" filter="url(#fgquueods7wp5)" height="48" id="model.SvgModel.setSvgHeader" style="stroke: #A80036; stroke-width: 1.5;" width="111" x="2175.5" y="852.5"/><ellipse cx="2190.5" cy="868.5" fill="#ADD1B2" rx="11" ry="11" style="stroke: #A80036; stroke-width: 1.0;"/><path d="M2193.4688,874.1406 Q2192.8906,874.4375 2192.25,874.5781 Q2191.6094,874.7344 2190.9063,874.7344 Q2188.4063,874.7344 2187.0781,873.0938 Q2185.7656,871.4375 2185.7656,868.3125 Q2185.7656,865.1875 2187.0781,863.5313 Q2188.4063,861.875 2190.9063,861.875 Q2191.6094,861.875 2192.25,862.0313 Q2192.9063,862.1875 2193.4688,862.4844 L2193.4688,865.2031 Q2192.8438,864.625 2192.25,864.3594 Q2191.6563,864.0781 2191.0313,864.0781 Q2189.6875,864.0781 2189,865.1563 Q2188.3125,866.2188 2188.3125,868.3125 Q2188.3125,870.4063 2189,871.4844 Q2189.6875,872.5469 2191.0313,872.5469 Q2191.6563,872.5469 2192.25,872.2813 Q2192.8438,872 2193.4688,871.4219 L2193.4688,874.1406 Z "/><text fill="#000000" font-family="sans-serif" font-size="12" lengthAdjust="spacingAndGlyphs" textLength="79" x="2204.5" y="873.156">setSvgHeader</text><line style="stroke: #A80036; stroke-width: 1.5;" x1="2176.5" x2="2285.5" y1="884.5" y2="884.5"/><line style="stroke: #A80036; stroke-width: 1.5;" x1="2176.5" x2="2285.5" y1="892.5" y2="892.5"/><!--MD5=[2d77bd63b5cdc022592b0199450d7a21]
class model.SvgModel.render--><rect fill="#FEFECE" filter="url(#fgquueods7wp5)" height="77.9638" id="model.SvgModel.render" style="stroke: #A80036; stroke-width: 1.5;" width="70" x="2014" y="677"/><ellipse cx="2029" cy="693" fill="#ADD1B2" rx="11" ry="11" style="stroke: #A80036; stroke-width: 1.0;"/><path d="M2031.9688,698.6406 Q2031.3906,698.9375 2030.75,699.0781 Q2030.1094,699.2344 2029.4063,699.2344 Q2026.9063,699.2344 2025.5781,697.5938 Q2024.2656,695.9375 2024.2656,692.8125 Q2024.2656,689.6875 2025.5781,688.0313 Q2026.9063,686.375 2029.4063,686.375 Q2030.1094,686.375 2030.75,686.5313 Q2031.4063,686.6875 2031.9688,686.9844 L2031.9688,689.7031 Q2031.3438,689.125 2030.75,688.8594 Q2030.1563,688.5781 2029.5313,688.5781 Q2028.1875,688.5781 2027.5,689.6563 Q2026.8125,690.7188 2026.8125,692.8125 Q2026.8125,694.9063 2027.5,695.9844 Q2028.1875,697.0469 2029.5313,697.0469 Q2030.1563,697.0469 2030.75,696.7813 Q2031.3438,696.5 2031.9688,695.9219 L2031.9688,698.6406 Z "/><text fill="#000000" font-family="sans-serif" font-size="12" lengthAdjust="spacingAndGlyphs" textLength="38" x="2043" y="697.656">render</text><line style="stroke: #A80036; stroke-width: 1.5;" x1="2015" x2="2083" y1="709" y2="709"/><text fill="#000000" font-family="sans-serif" font-size="11" lengthAdjust="spacingAndGlyphs" textLength="33" x="2020" y="724.7589">model</text><text fill="#000000" font-family="sans-serif" font-size="11" lengthAdjust="spacingAndGlyphs" textLength="56" x="2020" y="739.7408">line: FALSE</text><line style="stroke: #A80036; stroke-width: 1.5;" x1="2015" x2="2083" y1="746.9638" y2="746.9638"/><!--MD5=[eeca27da2556c0e4d51a09dffcacc739]
class model.SvgModel.write--><rect fill="#FEFECE" filter="url(#fgquueods7wp5)" height="62.9819" id="model.SvgModel.write" style="stroke: #A80036; stroke-width: 1.5;" width="60" x="2322" y="845"/><ellipse cx="2337" cy="861" fill="#ADD1B2" rx="11" ry="11" style="stroke: #A80036; stroke-width: 1.0;"/><path d="M2339.9688,866.6406 Q2339.3906,866.9375 2338.75,867.0781 Q2338.1094,867.2344 2337.4063,867.2344 Q2334.9063,867.2344 2333.5781,865.5938 Q2332.2656,863.9375 2332.2656,860.8125 Q2332.2656,857.6875 2333.5781,856.0313 Q2334.9063,854.375 2337.4063,854.375 Q2338.1094,854.375 2338.75,854.5313 Q2339.4063,854.6875 2339.9688,854.9844 L2339.9688,857.7031 Q2339.3438,857.125 2338.75,856.8594 Q2338.1563,856.5781 2337.5313,856.5781 Q2336.1875,856.5781 2335.5,857.6563 Q2334.8125,858.7188 2334.8125,860.8125 Q2334.8125,862.9063 2335.5,863.9844 Q2336.1875,865.0469 2337.5313,865.0469 Q2338.1563,865.0469 2338.75,864.7813 Q2339.3438,864.5 2339.9688,863.9219 L2339.9688,866.6406 Z "/><text fill="#000000" font-family="sans-serif" font-size="12" lengthAdjust="spacingAndGlyphs" textLength="28" x="2351" y="865.656">write</text><line style="stroke: #A80036; stroke-width: 1.5;" x1="2323" x2="2381" y1="877" y2="877"/><text fill="#000000" font-family="sans-serif" font-size="11" lengthAdjust="spacingAndGlyphs" textLength="34" x="2328" y="892.7589">svgfile</text><line style="stroke: #A80036; stroke-width: 1.5;" x1="2323" x2="2381" y1="899.9819" y2="899.9819"/><!--MD5=[e0ba76fa80e83f5c5cfa268b29fd8122]
class model.Db2--><rect fill="#FEFECE" filter="url(#fgquueods7wp5)" height="48" id="model.Db2" style="stroke: #A80036; stroke-width: 1.5;" width="55" x="904.5" y="62"/><ellipse cx="919.5" cy="78" fill="#ADD1B2" rx="11" ry="11" style="stroke: #A80036; stroke-width: 1.0;"/><path d="M922.4688,83.6406 Q921.8906,83.9375 921.25,84.0781 Q920.6094,84.2344 919.9063,84.2344 Q917.4063,84.2344 916.0781,82.5938 Q914.7656,80.9375 914.7656,77.8125 Q914.7656,74.6875 916.0781,73.0313 Q917.4063,71.375 919.9063,71.375 Q920.6094,71.375 921.25,71.5313 Q921.9063,71.6875 922.4688,71.9844 L922.4688,74.7031 Q921.8438,74.125 921.25,73.8594 Q920.6563,73.5781 920.0313,73.5781 Q918.6875,73.5781 918,74.6563 Q917.3125,75.7188 917.3125,77.8125 Q917.3125,79.9063 918,80.9844 Q918.6875,82.0469 920.0313,82.0469 Q920.6563,82.0469 921.25,81.7813 Q921.8438,81.5 922.4688,80.9219 L922.4688,83.6406 Z "/><text fill="#000000" font-family="sans-serif" font-size="12" lengthAdjust="spacingAndGlyphs" textLength="23" x="933.5" y="82.656">Db2</text><line style="stroke: #A80036; stroke-width: 1.5;" x1="905.5" x2="958.5" y1="94" y2="94"/><line style="stroke: #A80036; stroke-width: 1.5;" x1="905.5" x2="958.5" y1="102" y2="102"/><!--MD5=[812e826af3fabe8d1c51780cbb1e20db]
class recurrink.commit--><rect fill="#FEFECE" filter="url(#fgquueods7wp5)" height="48" id="recurrink.commit" style="stroke: #A80036; stroke-width: 1.5;" width="74" x="1601" y="852.5"/><ellipse cx="1616" cy="868.5" fill="#ADD1B2" rx="11" ry="11" style="stroke: #A80036; stroke-width: 1.0;"/><path d="M1618.9688,874.1406 Q1618.3906,874.4375 1617.75,874.5781 Q1617.1094,874.7344 1616.4063,874.7344 Q1613.9063,874.7344 1612.5781,873.0938 Q1611.2656,871.4375 1611.2656,868.3125 Q1611.2656,865.1875 1612.5781,863.5313 Q1613.9063,861.875 1616.4063,861.875 Q1617.1094,861.875 1617.75,862.0313 Q1618.4063,862.1875 1618.9688,862.4844 L1618.9688,865.2031 Q1618.3438,864.625 1617.75,864.3594 Q1617.1563,864.0781 1616.5313,864.0781 Q1615.1875,864.0781 1614.5,865.1563 Q1613.8125,866.2188 1613.8125,868.3125 Q1613.8125,870.4063 1614.5,871.4844 Q1615.1875,872.5469 1616.5313,872.5469 Q1617.1563,872.5469 1617.75,872.2813 Q1618.3438,872 1618.9688,871.4219 L1618.9688,874.1406 Z "/><text fill="#000000" font-family="sans-serif" font-size="12" lengthAdjust="spacingAndGlyphs" textLength="42" x="1630" y="873.156">commit</text><line style="stroke: #A80036; stroke-width: 1.5;" x1="1602" x2="1674" y1="884.5" y2="884.5"/><line style="stroke: #A80036; stroke-width: 1.5;" x1="1602" x2="1674" y1="892.5" y2="892.5"/><!--MD5=[0d6f6866c3e51d76cf10368dc4b78fd5]
class recurrink.clone--><rect fill="#FEFECE" filter="url(#fgquueods7wp5)" height="48" id="recurrink.clone" style="stroke: #A80036; stroke-width: 1.5;" width="62" x="1504" y="852.5"/><ellipse cx="1519" cy="868.5" fill="#ADD1B2" rx="11" ry="11" style="stroke: #A80036; stroke-width: 1.0;"/><path d="M1521.9688,874.1406 Q1521.3906,874.4375 1520.75,874.5781 Q1520.1094,874.7344 1519.4063,874.7344 Q1516.9063,874.7344 1515.5781,873.0938 Q1514.2656,871.4375 1514.2656,868.3125 Q1514.2656,865.1875 1515.5781,863.5313 Q1516.9063,861.875 1519.4063,861.875 Q1520.1094,861.875 1520.75,862.0313 Q1521.4063,862.1875 1521.9688,862.4844 L1521.9688,865.2031 Q1521.3438,864.625 1520.75,864.3594 Q1520.1563,864.0781 1519.5313,864.0781 Q1518.1875,864.0781 1517.5,865.1563 Q1516.8125,866.2188 1516.8125,868.3125 Q1516.8125,870.4063 1517.5,871.4844 Q1518.1875,872.5469 1519.5313,872.5469 Q1520.1563,872.5469 1520.75,872.2813 Q1521.3438,872 1521.9688,871.4219 L1521.9688,874.1406 Z "/><text fill="#000000" font-family="sans-serif" font-size="12" lengthAdjust="spacingAndGlyphs" textLength="30" x="1533" y="873.156">clone</text><line style="stroke: #A80036; stroke-width: 1.5;" x1="1505" x2="1565" y1="884.5" y2="884.5"/><line style="stroke: #A80036; stroke-width: 1.5;" x1="1505" x2="1565" y1="892.5" y2="892.5"/><!--MD5=[e8ec0dba5cf2d359b7de66869eddc727]
class recurrink.explode--><rect fill="#FEFECE" filter="url(#fgquueods7wp5)" height="48" id="recurrink.explode" style="stroke: #A80036; stroke-width: 1.5;" width="76" x="1803" y="852.5"/><ellipse cx="1818" cy="868.5" fill="#ADD1B2" rx="11" ry="11" style="stroke: #A80036; stroke-width: 1.0;"/><path d="M1820.9688,874.1406 Q1820.3906,874.4375 1819.75,874.5781 Q1819.1094,874.7344 1818.4063,874.7344 Q1815.9063,874.7344 1814.5781,873.0938 Q1813.2656,871.4375 1813.2656,868.3125 Q1813.2656,865.1875 1814.5781,863.5313 Q1815.9063,861.875 1818.4063,861.875 Q1819.1094,861.875 1819.75,862.0313 Q1820.4063,862.1875 1820.9688,862.4844 L1820.9688,865.2031 Q1820.3438,864.625 1819.75,864.3594 Q1819.1563,864.0781 1818.5313,864.0781 Q1817.1875,864.0781 1816.5,865.1563 Q1815.8125,866.2188 1815.8125,868.3125 Q1815.8125,870.4063 1816.5,871.4844 Q1817.1875,872.5469 1818.5313,872.5469 Q1819.1563,872.5469 1819.75,872.2813 Q1820.3438,872 1820.9688,871.4219 L1820.9688,874.1406 Z "/><text fill="#000000" font-family="sans-serif" font-size="12" lengthAdjust="spacingAndGlyphs" textLength="44" x="1832" y="873.156">explode</text><line style="stroke: #A80036; stroke-width: 1.5;" x1="1804" x2="1878" y1="884.5" y2="884.5"/><line style="stroke: #A80036; stroke-width: 1.5;" x1="1804" x2="1878" y1="892.5" y2="892.5"/><!--MD5=[2111ce9d021ab0f12c1d9aad80bfd671]
class recurrink.init--><rect fill="#FEFECE" filter="url(#fgquueods7wp5)" height="48" id="recurrink.init" style="stroke: #A80036; stroke-width: 1.5;" width="49" x="1419.5" y="852.5"/><ellipse cx="1434.5" cy="868.5" fill="#ADD1B2" rx="11" ry="11" style="stroke: #A80036; stroke-width: 1.0;"/><path d="M1437.4688,874.1406 Q1436.8906,874.4375 1436.25,874.5781 Q1435.6094,874.7344 1434.9063,874.7344 Q1432.4063,874.7344 1431.0781,873.0938 Q1429.7656,871.4375 1429.7656,868.3125 Q1429.7656,865.1875 1431.0781,863.5313 Q1432.4063,861.875 1434.9063,861.875 Q1435.6094,861.875 1436.25,862.0313 Q1436.9063,862.1875 1437.4688,862.4844 L1437.4688,865.2031 Q1436.8438,864.625 1436.25,864.3594 Q1435.6563,864.0781 1435.0313,864.0781 Q1433.6875,864.0781 1433,865.1563 Q1432.3125,866.2188 1432.3125,868.3125 Q1432.3125,870.4063 1433,871.4844 Q1433.6875,872.5469 1435.0313,872.5469 Q1435.6563,872.5469 1436.25,872.2813 Q1436.8438,872 1437.4688,871.4219 L1437.4688,874.1406 Z "/><text fill="#000000" font-family="sans-serif" font-size="12" lengthAdjust="spacingAndGlyphs" textLength="17" x="1448.5" y="873.156">init</text><line style="stroke: #A80036; stroke-width: 1.5;" x1="1420.5" x2="1467.5" y1="884.5" y2="884.5"/><line style="stroke: #A80036; stroke-width: 1.5;" x1="1420.5" x2="1467.5" y1="892.5" y2="892.5"/><!--MD5=[53f96ed7304dba8ccb52faa9ac56b55d]
class recurrink.read--><rect fill="#FEFECE" filter="url(#fgquueods7wp5)" height="48" id="recurrink.read" style="stroke: #A80036; stroke-width: 1.5;" width="58" x="1710" y="852.5"/><ellipse cx="1725" cy="868.5" fill="#ADD1B2" rx="11" ry="11" style="stroke: #A80036; stroke-width: 1.0;"/><path d="M1727.9688,874.1406 Q1727.3906,874.4375 1726.75,874.5781 Q1726.1094,874.7344 1725.4063,874.7344 Q1722.9063,874.7344 1721.5781,873.0938 Q1720.2656,871.4375 1720.2656,868.3125 Q1720.2656,865.1875 1721.5781,863.5313 Q1722.9063,861.875 1725.4063,861.875 Q1726.1094,861.875 1726.75,862.0313 Q1727.4063,862.1875 1727.9688,862.4844 L1727.9688,865.2031 Q1727.3438,864.625 1726.75,864.3594 Q1726.1563,864.0781 1725.5313,864.0781 Q1724.1875,864.0781 1723.5,865.1563 Q1722.8125,866.2188 1722.8125,868.3125 Q1722.8125,870.4063 1723.5,871.4844 Q1724.1875,872.5469 1725.5313,872.5469 Q1726.1563,872.5469 1726.75,872.2813 Q1727.3438,872 1727.9688,871.4219 L1727.9688,874.1406 Z "/><text fill="#000000" font-family="sans-serif" font-size="12" lengthAdjust="spacingAndGlyphs" textLength="26" x="1739" y="873.156">read</text><line style="stroke: #A80036; stroke-width: 1.5;" x1="1711" x2="1767" y1="884.5" y2="884.5"/><line style="stroke: #A80036; stroke-width: 1.5;" x1="1711" x2="1767" y1="892.5" y2="892.5"/><!--MD5=[8290ad1b0ef6d5837d45bb3e4d09841d]
reverse link model.Db2 to model.ModelData--><path d="M932,130.41 C932,136.0375 932,141.9645 932,148.0328 C932,151.067 932,154.1364 932,157.2214 C932,157.4142 932,157.6071 932,157.8 " fill="none" id="model.Db2&lt;-model.ModelData" style="stroke: #A80036; stroke-width: 1.0;"/><polygon fill="none" points="925,130.21,932,110.21,939,130.21,925,130.21" style="stroke: #A80036; stroke-width: 1.0;"/><!--MD5=[38eb71fbf9926749733afee59929358b]
reverse link model.ModelData to model.Init--><path d="M940.5763,246.8155 C940.8185,246.8971 941.0656,246.9805 941.3175,247.0657 C941.8213,247.2361 942.3444,247.4135 942.8865,247.5981 C945.0549,248.3363 947.5276,249.1882 950.2868,250.1538 C961.3234,254.0164 976.9427,259.6991 995.9998,267.2083 C1034.1141,282.2266 1085.9794,304.5506 1142.4363,334.2313 C1255.35,393.5925 1386.63,482.38 1463,601 C1466.4212,606.3138 1469.2883,612.0458 1471.6857,618.0127 C1472.8844,620.9962 1473.9657,624.0384 1474.9401,627.1164 C1475.1838,627.8859 1475.4207,628.6576 1475.6511,629.4312 C1475.7663,629.818 1475.8799,630.2053 1475.9919,630.593 " fill="none" id="model.ModelData&lt;-model.Init" style="stroke: #A80036; stroke-width: 1.0;"/><polygon fill="#FFFFFF" points="940.5763,246.8155,956.3459,259.5167,960.8169,246.2499,940.5763,246.8155" style="stroke: #A80036; stroke-width: 1.0;"/><!--MD5=[132713410c67f24164c7021d4c143f73]
link model.ModelData.model to recurrink.commit--><path d="M626.1,273.79 C631.86,277.06 637.92,279.94 644,282 C740.71,314.77 1486.04,272.67 1561,342 C1636.92,412.21 1639.14,758.79 1638.33,852.25 " fill="none" id="model.ModelData.model-recurrink.commit" style="stroke: #A80036; stroke-width: 1.0;"/><!--MD5=[2146866b51c7a402962d401a208a112a]
link model.ModelData.pens to recurrink.clone--><path d="M513.15,272.3 C518.54,275.97 524.25,279.36 530,282 C646.07,335.25 686.28,314.54 811,342 C1129.68,412.18 1314.69,331.04 1498,601 C1551.62,679.97 1544.33,801.51 1538.35,852.13 " fill="none" id="model.ModelData.pens-recurrink.clone" style="stroke: #A80036; stroke-width: 1.0;"/><!--MD5=[0e7fbbbf07a9dc371434711a6efff71c]
link model.ModelData.model to recurrink.explode--><path d="M626.07,273.88 C631.84,277.13 637.9,279.99 644,282 C770.87,323.9 1752.91,245.19 1845,342 C1915.54,416.16 1861.31,759.87 1845.16,852.47 " fill="none" id="model.ModelData.model-recurrink.explode" style="stroke: #A80036; stroke-width: 1.0;"/><!--MD5=[29c8f053d471630a5746e178ee2675b8]
link model.ModelData.pens to recurrink.explode--><path d="M513.21,273.01 C518.55,276.53 524.23,279.69 530,282 C755.07,371.91 833.31,299.97 1072,342 C1408.98,401.33 1590.83,327.93 1797,601 C1826.88,640.58 1837.14,793.5 1840.03,852.29 " fill="none" id="model.ModelData.pens-recurrink.explode" style="stroke: #A80036; stroke-width: 1.0;"/><!--MD5=[f543fc839ea2060b9470be6658de1c73]
link model.ModelData.blocks to recurrink.explode--><path d="M896.81,280.78 C897.87,281.22 898.93,281.62 900,282 C1006.59,319.77 1838.43,259.71 1916,342 C2054.1,488.5 1989.75,607.66 1916,795 C1907.04,817.75 1888.29,837.88 1871.78,852.31 " fill="none" id="model.ModelData.blocks-recurrink.explode" style="stroke: #A80036; stroke-width: 1.0;"/><!--MD5=[e4899d0dd770393ebcaa5b3ead66de73]
link model.SvgModel.explode to recurrink.explode--><path d="M2143.41,747.52 C2134.23,764.41 2120.41,784.13 2102,795 C2061.96,818.64 2042.92,794.45 1998,806.5 C1955.73,817.84 1910.24,838.91 1879.16,854.79 " fill="none" id="model.SvgModel.explode-recurrink.explode" style="stroke: #A80036; stroke-width: 1.0;"/><!--MD5=[d2dd1e64eb9acc050895f0bea5f98c60]
link model.SvgModel.render to recurrink.explode--><path d="M2023.32,755.36 C2013.06,768.92 2000.48,783.61 1987,795 C1954.17,822.74 1910.3,845.39 1879.24,859.51 " fill="none" id="model.SvgModel.render-recurrink.explode" style="stroke: #A80036; stroke-width: 1.0;"/><!--MD5=[d77cf8c7ca3ebd468cb7cffb5c1b07b8]
link model.Init.setInput to recurrink.init--><path d="M1415.2,755.37 C1422.45,785.6 1432.32,826.77 1438.42,852.21 " fill="none" id="model.Init.setInput-recurrink.init" style="stroke: #A80036; stroke-width: 1.0;"/><!--MD5=[20dabefdc04b58f2c12f608e92b4a162]
link model.Init.generate to recurrink.init--><path d="M1314.81,755.25 C1324.67,768.36 1336.29,782.79 1348,795 C1370.43,818.39 1399.27,841.83 1419.46,857.33 " fill="none" id="model.Init.generate-recurrink.init" style="stroke: #A80036; stroke-width: 1.0;"/><!--MD5=[af2dae383d2d1083ed2f3dcfee8d52a5]
link model.Compass to model.Init.generate--><path d="M1182.083,536.1507 C1182.2525,536.4369 1182.4243,536.7269 1182.5983,537.0207 C1183.2943,538.196 1184.0264,539.4321 1184.792,540.7248 C1190.9172,551.0672 1199.1931,565.0419 1208.4088,580.6038 C1226.84,611.7275 1249.03,649.2 1265.29,676.66 " fill="none" id="model.Compass-model.Init.generate" style="stroke: #A80036; stroke-width: 1.0;"/><!--MD5=[864d4fcc3653478305f54845262d2216]
link model.ModelData.model to recurrink.read--><path d="M626.09,273.81 C631.86,277.07 637.91,279.95 644,282 C846.97,350.42 1432.08,216.97 1606,342 C1775.35,463.75 1752.5,766.32 1742.18,852.35 " fill="none" id="model.ModelData.model-recurrink.read" style="stroke: #A80036; stroke-width: 1.0;"/><!--MD5=[efec6774195be0a288b19865daa6f73c]
link model.ModelData.setBlocksize to recurrink.read--><path d="M761.01,274.67 C767.23,277.57 773.64,280.12 780,282 C878.56,311.12 1630.24,269.42 1703,342 C1845.78,484.43 1772.15,769.33 1746.59,852.32 " fill="none" id="model.ModelData.setBlocksize-recurrink.read" style="stroke: #A80036; stroke-width: 1.0;"/><!--MD5=[73b821842de2226f2308714c8c72e32d]
link model.ModelData.modelRead to model.ModelData.modelWrite--><!--MD5=[5f8492a6a4afefc1efad59750746c4ea]
link model.ModelData.modelWrite to model.ModelData.blocksRead--><!--MD5=[dba0497ac07637197c24ab2b916f8db6]
link model.ModelData.modelRead to model.ModelData.blocksWrite--><!--MD5=[cb66ee42cd422fefe0f560a14d2e2dc2]
link model.ModelData.blocksWrite to model.ModelData.compass--><!--MD5=[0e32ed5eb3ce880d81c4fca544f98d39]
link model.ModelData.compass to model.ModelData.compassWrite--><!--MD5=[8d5150c1a421025cb7551a21c1c78fe1]
link model.ModelData.blocksWrite to model.ModelData.compassRead--><!--MD5=[e8f59414526d43df5ec7e9f66e1af5d0]
link model.ModelData.compassRead to model.ModelData.positionString--><!--MD5=[48afbe0b985231e5b57b8eb85f60d7e2]
link model.ModelData.positionString to model.ModelData.stats--><!--MD5=[1d86145c9a2424b9332b6c85131f7f2a]
link model.Compass.axis to model.Compass.all--><!--MD5=[ce4002f062414ffa86b81a42a6d82278]
link model.Compass.axis to model.Compass.one--><!--MD5=[bff3da733277e7cf08758710a3400706]
link model.SvgPalette.render to model.SvgPalette.hexRgb--><!--MD5=[847270db31d3d293bcf9803d5b624779]
link model.SvgPalette.hexRgb to model.SvgPalette.tableRows--><!--MD5=[dbd02ef74c03d09450b014f520b5f62d]
link model.SvgPalette.render to model.SvgPalette.htmlHeader--><!--MD5=[85006398740df505cf4fe23f599597ae]
link model.SvgPalette.htmlHeader to model.SvgPalette.htmlFooter--><!--MD5=[d9789cba3e9f077fbcc34ff32f51d374]
link model.SvgModel.walk to model.SvgModel.build--><!--MD5=[70c3ad8f7c0120f27b4a724b704b6d29]
link model.SvgModel.walk to model.SvgModel.setSvgHeader--><!--MD5=[9effb6fabae161e0f918d05373e46c68]
link model.SvgModel.setSvgHeader to model.SvgModel.write--><!--MD5=[b1f1829801a80e2d292e5e5b6789edf6]
link model.ModelData.blocksRead to model.Compass.axis--><!--MD5=[1e67e5d3ad286d7df27373e49f501b95]
link model.ModelData.compassRead to model.SvgPalette.render--><!--MD5=[09b97174ae85493dfbfc637d05d2a1ad]
link model.SvgPalette.tableRows to model.SvgModel.walk--><!--MD5=[252a849397608fe87f919f9315892f35]
@startuml
class model.ModelData.model {
   name: NONE
   mid: 0
}
class model.ModelData.modelRead {}
class model.ModelData.modelWrite {
   name
}
class model.ModelData.blocks {
   mid
   blocks_v1: DICT()
}
class model.ModelData.blocksRead {
   mid
}
class model.ModelData.blocksWrite {
   mid
   blocks
}
class model.ModelData.compass {
   mid
   conf: NONE
}
class model.ModelData.compassWrite {
   mid
   conf
}
class model.ModelData.compassRead {
   mid
}
class model.ModelData.pens {
   ver: NONE
}
class model.ModelData.setBlocksize {
   mid
}
class model.ModelData.positionString {
   mid
}
class model.ModelData.stats {}
class model.Init.setInput {
   mnam: NONE
   pen: NONE
}
class model.Init.generate {
   model
   pen
}
class model.Compass.axis {}
class model.Compass.all {
   cell
}
class model.Compass.one {
   cell
}
class model.SvgPalette.render {
   fn
   palette
}
class model.SvgPalette.hexRgb {
   hexstr
}
class model.SvgPalette.tableRows {
   palette
}
class model.SvgPalette.htmlHeader {}
class model.SvgPalette.htmlFooter {}
class model.SvgModel.explode {
   block
}
class model.SvgModel.walk {
   block
   cellnum
   b0
   b1
   CLEN
   edge
}
class model.SvgModel.build {
   block
}
class model.SvgModel.setSvgHeader {}
class model.SvgModel.render {
   model
   line: FALSE
}
class model.SvgModel.write {
   svgfile
}
model.Db2 <|- - model.ModelData
model.ModelData <|- - model.Init

model.ModelData.model - - recurrink.commit
model.ModelData.pens - - recurrink.clone

model.ModelData.model - - recurrink.explode
model.ModelData.pens - - recurrink.explode
model.ModelData.blocks - - recurrink.explode

model.SvgModel.explode - - recurrink.explode
model.SvgModel.render - - recurrink.explode

model.Init.setInput - - recurrink.init
model.Init.generate - - recurrink.init
model.Compass - - model.Init.generate

model.ModelData.model - - recurrink.read
model.ModelData.setBlocksize - - recurrink.read


@enduml

PlantUML version 1.2020.02(Sun Mar 01 11:22:07 CET 2020)
(GPL source distribution)
Java Runtime: OpenJDK Runtime Environment
JVM: OpenJDK 64-Bit Server VM
Java Version: 21.0.10+7-Ubuntu-124.04
Operating System: Linux
Default Encoding: UTF-8
Language: en
Country: US
--></g></svg>