<svg xmlns="http://www.w3.org/2000/svg" viewBox="0 0 540 300" width="540px" height="300px"><g id="g00" style="fill:#FFF"><rect id="r0" x="0" y="0" width="60" height="60" /></g><g id="g01" style="fill:#C71585;fill-opacity:1.0;stroke:#FFF;stroke-width:1"><rect id="r0" x="0" y="0" width="60" height="60" /></g><g id="g10" style="fill:#FFF"><rect id="r1" x="60" y="0" width="60" height="60" /></g><g id="g11" style="fill:#C71585;fill-opacity:0.7;stroke:#FFF;stroke-width:1"><rect id="r1" x="60" y="0" width="60" height="60" /></g><g id="g20" style="fill:#9ACD32"><rect id="r2" x="120" y="0" width="60" height="60" /></g><g id="g21" style="fill:#C71585;fill-opacity:0.7;stroke:#FFF;stroke-width:1"><rect id="r2" x="120" y="0" width="60" height="60" /></g><g id="g30" style="fill:#CD5C5C"><rect id="r3" x="180" y="0" width="60" height="60" /></g><g id="g31" style="fill:#C71585;fill-opacity:0.7;stroke:#FFF;stroke-width:1"><rect id="r3" x="180" y="0" width="60" height="60" /></g><g id="g40" style="fill:#000"><rect id="r4" x="240" y="0" width="60" height="60" /></g><g id="g41" style="fill:#C71585;fill-opacity:0.7;stroke:#FFF;stroke-width:1"><rect id="r4" x="240" y="0" width="60" height="60" /></g><g id="g50" style="fill:#FFF"><rect id="r5" x="300" y="0" width="60" height="60" /></g><g id="g51" style="fill:#C71585;fill-opacity:0.4;stroke:#FFF;stroke-width:1"><rect id="r5" x="300" y="0" width="60" height="60" /></g><g id="g60" style="fill:#9ACD32"><rect id="r6" x="360" y="0" width="60" height="60" /></g><g id="g61" style="fill:#C71585;fill-opacity:0.4;stroke:#FFF;stroke-width:1"><rect id="r6" x="360" y="0" width="60" height="60" /></g><g id="g70" style="fill:#CD5C5C"><rect id="r7" x="420" y="0" width="60" height="60" /></g><g id="g71" style="fill:#C71585;fill-opacity:0.4;stroke:#FFF;stroke-width:1"><rect id="r7" x="420" y="0" width="60" height="60" /></g><g id="g80" style="fill:#000"><rect id="r8" x="480" y="0" width="60" height="60" /></g><g id="g81" style="fill:#C71585;fill-opacity:0.4;stroke:#FFF;stroke-width:1"><rect id="r8" x="480" y="0" width="60" height="60" /></g><g id="g90" style="fill:#FFF"><rect id="r9" x="0" y="60" width="60" height="60" /></g><g id="g91" style="fill:#DC143C;fill-opacity:1.0;stroke:#FFF;stroke-width:1"><rect id="r9" x="0" y="60" width="60" height="60" /></g><g id="g100" style="fill:#FFF"><rect id="r10" x="60" y="60" width="60" height="60" /></g><g id="g101" style="fill:#DC143C;fill-opacity:0.7;stroke:#FFF;stroke-width:1"><rect id="r10" x="60" y="60" width="60" height="60" /></g><g id="g110" style="fill:#9ACD32"><rect id="r11" x="120" y="60" width="60" height="60" /></g><g id="g111" style="fill:#DC143C;fill-opacity:0.7;stroke:#FFF;stroke-width:1"><rect id="r11" x="120" y="60" width="60" height="60" /></g><g id="g120" style="fill:#CD5C5C"><rect id="r12" x="180" y="60" width="60" height="60" /></g><g id="g121" style="fill:#DC143C;fill-opacity:0.7;stroke:#FFF;stroke-width:1"><rect id="r12" x="180" y="60" width="60" height="60" /></g><g id="g130" style="fill:#000"><rect id="r13" x="240" y="60" width="60" height="60" /></g><g id="g131" style="fill:#DC143C;fill-opacity:0.7;stroke:#FFF;stroke-width:1"><rect id="r13" x="240" y="60" width="60" height="60" /></g><g id="g140" style="fill:#FFF"><rect id="r14" x="300" y="60" width="60" height="60" /></g><g id="g141" style="fill:#DC143C;fill-opacity:0.4;stroke:#FFF;stroke-width:1"><rect id="r14" x="300" y="60" width="60" height="60" /></g><g id="g150" style="fill:#9ACD32"><rect id="r15" x="360" y="60" width="60" height="60" /></g><g id="g151" style="fill:#DC143C;fill-opacity:0.4;stroke:#FFF;stroke-width:1"><rect id="r15" x="360" y="60" width="60" height="60" /></g><g id="g160" style="fill:#CD5C5C"><rect id="r16" x="420" y="60" width="60" height="60" /></g><g id="g161" style="fill:#DC143C;fill-opacity:0.4;stroke:#FFF;stroke-width:1"><rect id="r16" x="420" y="60" width="60" height="60" /></g><g id="g170" style="fill:#000"><rect id="r17" x="480" y="60" width="60" height="60" /></g><g id="g171" style="fill:#DC143C;fill-opacity:0.4;stroke:#FFF;stroke-width:1"><rect id="r17" x="480" y="60" width="60" height="60" /></g><g id="g180" style="fill:#FFF"><rect id="r18" x="0" y="120" width="60" height="60" /></g><g id="g181" style="fill:#FFA500;fill-opacity:1.0;stroke:#FFF;stroke-width:1"><rect id="r18" x="0" y="120" width="60" height="60" /></g><g id="g190" style="fill:#FFF"><rect id="r19" x="60" y="120" width="60" height="60" /></g><g id="g191" style="fill:#FFA500;fill-opacity:0.7;stroke:#FFF;stroke-width:1"><rect id="r19" x="60" y="120" width="60" height="60" /></g><g id="g200" style="fill:#9ACD32"><rect id="r20" x="120" y="120" width="60" height="60" /></g><g id="g201" style="fill:#FFA500;fill-opacity:0.7;stroke:#FFF;stroke-width:1"><rect id="r20" x="120" y="120" width="60" height="60" /></g><g id="g210" style="fill:#CD5C5C"><rect id="r21" x="180" y="120" width="60" height="60" /></g><g id="g211" style="fill:#FFA500;fill-opacity:0.7;stroke:#FFF;stroke-width:1"><rect id="r21" x="180" y="120" width="60" height="60" /></g><g id="g220" style="fill:#000"><rect id="r22" x="240" y="120" width="60" height="60" /></g><g id="g221" style="fill:#FFA500;fill-opacity:0.7;stroke:#FFF;stroke-width:1"><rect id="r22" x="240" y="120" width="60" height="60" /></g><g id="g230" style="fill:#FFF"><rect id="r23" x="300" y="120" width="60" height="60" /></g><g id="g231" style="fill:#FFA500;fill-opacity:0.4;stroke:#FFF;stroke-width:1"><rect id="r23" x="300" y="120" width="60" height="60" /></g><g id="g240" style="fill:#9ACD32"><rect id="r24" x="360" y="120" width="60" height="60" /></g><g id="g241" style="fill:#FFA500;fill-opacity:0.4;stroke:#FFF;stroke-width:1"><rect id="r24" x="360" y="120" width="60" height="60" /></g><g id="g250" style="fill:#CD5C5C"><rect id="r25" x="420" y="120" width="60" height="60" /></g><g id="g251" style="fill:#FFA500;fill-opacity:0.4;stroke:#FFF;stroke-width:1"><rect id="r25" x="420" y="120" width="60" height="60" /></g><g id="g260" style="fill:#000"><rect id="r26" x="480" y="120" width="60" height="60" /></g><g id="g261" style="fill:#FFA500;fill-opacity:0.4;stroke:#FFF;stroke-width:1"><rect id="r26" x="480" y="120" width="60" height="60" /></g><g id="g270" style="fill:#FFF"><rect id="r27" x="0" y="180" width="60" height="60" /></g><g id="g271" style="fill:#32CD32;fill-opacity:1.0;stroke:#FFF;stroke-width:1"><rect id="r27" x="0" y="180" width="60" height="60" /></g><g id="g280" style="fill:#FFF"><rect id="r28" x="60" y="180" width="60" height="60" /></g><g id="g281" style="fill:#32CD32;fill-opacity:0.7;stroke:#FFF;stroke-width:1"><rect id="r28" x="60" y="180" width="60" height="60" /></g><g id="g290" style="fill:#9ACD32"><rect id="r29" x="120" y="180" width="60" height="60" /></g><g id="g291" style="fill:#32CD32;fill-opacity:0.7;stroke:#FFF;stroke-width:1"><rect id="r29" x="120" y="180" width="60" height="60" /></g><g id="g300" style="fill:#CD5C5C"><rect id="r30" x="180" y="180" width="60" height="60" /></g><g id="g301" style="fill:#32CD32;fill-opacity:0.7;stroke:#FFF;stroke-width:1"><rect id="r30" x="180" y="180" width="60" height="60" /></g><g id="g310" style="fill:#000"><rect id="r31" x="240" y="180" width="60" height="60" /></g><g id="g311" style="fill:#32CD32;fill-opacity:0.7;stroke:#FFF;stroke-width:1"><rect id="r31" x="240" y="180" width="60" height="60" /></g><g id="g320" style="fill:#FFF"><rect id="r32" x="300" y="180" width="60" height="60" /></g><g id="g321" style="fill:#32CD32;fill-opacity:0.4;stroke:#FFF;stroke-width:1"><rect id="r32" x="300" y="180" width="60" height="60" /></g><g id="g330" style="fill:#9ACD32"><rect id="r33" x="360" y="180" width="60" height="60" /></g><g id="g331" style="fill:#32CD32;fill-opacity:0.4;stroke:#FFF;stroke-width:1"><rect id="r33" x="360" y="180" width="60" height="60" /></g><g id="g340" style="fill:#CD5C5C"><rect id="r34" x="420" y="180" width="60" height="60" /></g><g id="g341" style="fill:#32CD32;fill-opacity:0.4;stroke:#FFF;stroke-width:1"><rect id="r34" x="420" y="180" width="60" height="60" /></g><g id="g350" style="fill:#000"><rect id="r35" x="480" y="180" width="60" height="60" /></g><g id="g351" style="fill:#32CD32;fill-opacity:0.4;stroke:#FFF;stroke-width:1"><rect id="r35" x="480" y="180" width="60" height="60" /></g><g id="g360" style="fill:#FFF"><rect id="r36" x="0" y="240" width="60" height="60" /></g><g id="g361" style="fill:#4B0082;fill-opacity:1.0;stroke:#FFF;stroke-width:1"><rect id="r36" x="0" y="240" width="60" height="60" /></g><g id="g370" style="fill:#FFF"><rect id="r37" x="60" y="240" width="60" height="60" /></g><g id="g371" style="fill:#4B0082;fill-opacity:0.7;stroke:#FFF;stroke-width:1"><rect id="r37" x="60" y="240" width="60" height="60" /></g><g id="g380" style="fill:#9ACD32"><rect id="r38" x="120" y="240" width="60" height="60" /></g><g id="g381" style="fill:#4B0082;fill-opacity:0.7;stroke:#FFF;stroke-width:1"><rect id="r38" x="120" y="240" width="60" height="60" /></g><g id="g390" style="fill:#CD5C5C"><rect id="r39" x="180" y="240" width="60" height="60" /></g><g id="g391" style="fill:#4B0082;fill-opacity:0.7;stroke:#FFF;stroke-width:1"><rect id="r39" x="180" y="240" width="60" height="60" /></g><g id="g400" style="fill:#000"><rect id="r40" x="240" y="240" width="60" height="60" /></g><g id="g401" style="fill:#4B0082;fill-opacity:0.7;stroke:#FFF;stroke-width:1"><rect id="r40" x="240" y="240" width="60" height="60" /></g><g id="g410" style="fill:#FFF"><rect id="r41" x="300" y="240" width="60" height="60" /></g><g id="g411" style="fill:#4B0082;fill-opacity:0.4;stroke:#FFF;stroke-width:1"><rect id="r41" x="300" y="240" width="60" height="60" /></g><g id="g420" style="fill:#9ACD32"><rect id="r42" x="360" y="240" width="60" height="60" /></g><g id="g421" style="fill:#4B0082;fill-opacity:0.4;stroke:#FFF;stroke-width:1"><rect id="r42" x="360" y="240" width="60" height="60" /></g><g id="g430" style="fill:#CD5C5C"><rect id="r43" x="420" y="240" width="60" height="60" /></g><g id="g431" style="fill:#4B0082;fill-opacity:0.4;stroke:#FFF;stroke-width:1"><rect id="r43" x="420" y="240" width="60" height="60" /></g><g id="g440" style="fill:#000"><rect id="r44" x="480" y="240" width="60" height="60" /></g><g id="g441" style="fill:#4B0082;fill-opacity:0.4;stroke:#FFF;stroke-width:1"><rect id="r44" x="480" y="240" width="60" height="60" /></g><g id="0" style="fill:#FFF;stroke:#000;stroke-width:0.1;"><text id="t0" x="10" y="30">01</text><text id="t1" x="70" y="30">02</text><text id="t2" x="130" y="30">03</text><text id="t3" x="190" y="30">04</text><text id="t4" x="250" y="30">05</text><text id="t5" x="310" y="30">06</text><text id="t6" x="370" y="30">07</text><text id="t7" x="430" y="30">08</text><text id="t8" x="490" y="30">09</text><text id="t9" x="10" y="90">10</text><text id="t10" x="70" y="90">11</text><text id="t11" x="130" y="90">12</text><text id="t12" x="190" y="90">13</text><text id="t13" x="250" y="90">14</text><text id="t14" x="310" y="90">15</text><text id="t15" x="370" y="90">16</text><text id="t16" x="430" y="90">17</text><text id="t17" x="490" y="90">18</text><text id="t18" x="10" y="150">19</text><text id="t19" x="70" y="150">20</text><text id="t20" x="130" y="150">21</text><text id="t21" x="190" y="150">22</text><text id="t22" x="250" y="150">23</text><text id="t23" x="310" y="150">24</text><text id="t24" x="370" y="150">25</text><text id="t25" x="430" y="150">26</text><text id="t26" x="490" y="150">27</text><text id="t27" x="10" y="210">28</text><text id="t28" x="70" y="210">29</text><text id="t29" x="130" y="210">30</text><text id="t30" x="190" y="210">31</text><text id="t31" x="250" y="210">32</text><text id="t32" x="310" y="210">33</text><text id="t33" x="370" y="210">34</text><text id="t34" x="430" y="210">35</text><text id="t35" x="490" y="210">36</text><text id="t36" x="10" y="270">37</text><text id="t37" x="70" y="270">38</text><text id="t38" x="130" y="270">39</text><text id="t39" x="190" y="270">40</text><text id="t40" x="250" y="270">41</text><text id="t41" x="310" y="270">42</text><text id="t42" x="370" y="270">43</text><text id="t43" x="430" y="270">44</text><text id="t44" x="490" y="270">45</text></g></svg>