<?xml version="1.0" encoding="UTF-8" standalone="no"?><svg xmlns="http://www.w3.org/2000/svg" xmlns:xlink="http://www.w3.org/1999/xlink" contentScriptType="application/ecmascript" contentStyleType="text/css" height="1232px" preserveAspectRatio="none" style="width:2202px;height:1232px;" version="1.1" viewBox="0 0 2202 1232" width="2202px" zoomAndPan="magnify"><defs><filter height="300%" id="fioccfsy3q9te" width="300%" x="-1" y="-1"><feGaussianBlur result="blurOut" stdDeviation="2.0"/><feColorMatrix in="blurOut" result="blurOut2" type="matrix" values="0 0 0 0 0 0 0 0 0 0 0 0 0 0 0 0 0 0 .4 0"/><feOffset dx="4.0" dy="4.0" in="blurOut2" result="blurOut3"/><feBlend in="SourceGraphic" in2="blurOut3" mode="normal"/></filter></defs><g><!--MD5=[b902366bdf3670774ff5b76da809304b]
cluster cell.Line--><polygon fill="#FFFFFF" filter="url(#fioccfsy3q9te)" points="1623,69,1685,69,1692,94.0679,2039,94.0679,2039,370,1623,370,1623,69" style="stroke: #000000; stroke-width: 1.5;"/><line style="stroke: #000000; stroke-width: 1.5;" x1="1623" x2="1692" y1="94.0679" y2="94.0679"/><text fill="#000000" font-family="sans-serif" font-size="14" font-weight="bold" lengthAdjust="spacingAndGlyphs" textLength="56" x="1627" y="85.9659">cell.Line</text><!--MD5=[56b7915db0d2069ce4b96bcb3884a225]
cluster cell.shape.Circle--><polygon fill="#FFFFFF" filter="url(#fioccfsy3q9te)" points="30,417.5,146,417.5,153,442.5679,453,442.5679,453,741,30,741,30,417.5" style="stroke: #000000; stroke-width: 1.5;"/><line style="stroke: #000000; stroke-width: 1.5;" x1="30" x2="153" y1="442.5679" y2="442.5679"/><text fill="#000000" font-family="sans-serif" font-size="14" font-weight="bold" lengthAdjust="spacingAndGlyphs" textLength="110" x="34" y="434.4659">cell.shape.Circle</text><!--MD5=[3c0d04c9d80304434669fbb02dbc28af]
cluster cell.shape.Diamond--><polygon fill="#FFFFFF" filter="url(#fioccfsy3q9te)" points="493,417.5,634,417.5,641,442.5679,852,442.5679,852,733.5,493,733.5,493,417.5" style="stroke: #000000; stroke-width: 1.5;"/><line style="stroke: #000000; stroke-width: 1.5;" x1="493" x2="641" y1="442.5679" y2="442.5679"/><text fill="#000000" font-family="sans-serif" font-size="14" font-weight="bold" lengthAdjust="spacingAndGlyphs" textLength="135" x="497" y="434.4659">cell.shape.Diamond</text><!--MD5=[8436161bebdd34c1fbd31ea8f412ea24]
cluster cell.shape.Gnomon--><polygon fill="#FFFFFF" filter="url(#fioccfsy3q9te)" points="1748,410,1886,410,1893,435.0679,2081,435.0679,2081,741,1748,741,1748,410" style="stroke: #000000; stroke-width: 1.5;"/><line style="stroke: #000000; stroke-width: 1.5;" x1="1748" x2="1893" y1="435.0679" y2="435.0679"/><text fill="#000000" font-family="sans-serif" font-size="14" font-weight="bold" lengthAdjust="spacingAndGlyphs" textLength="132" x="1752" y="426.9659">cell.shape.Gnomon</text><!--MD5=[846d477bef68d0168bfe7bdf58713b66]
cluster cell.shape.Parabola--><polygon fill="#FFFFFF" filter="url(#fioccfsy3q9te)" points="892,417.5,1031,417.5,1038,442.5679,1291,442.5679,1291,756,892,756,892,417.5" style="stroke: #000000; stroke-width: 1.5;"/><line style="stroke: #000000; stroke-width: 1.5;" x1="892" x2="1038" y1="442.5679" y2="442.5679"/><text fill="#000000" font-family="sans-serif" font-size="14" font-weight="bold" lengthAdjust="spacingAndGlyphs" textLength="133" x="896" y="434.4659">cell.shape.Parabola</text><!--MD5=[387792cb0941dc668e27a2c63f439b16]
cluster cell.shape.Rectangle--><polygon fill="#FFFFFF" filter="url(#fioccfsy3q9te)" points="1375,410,1521,410,1528,435.0679,1708,435.0679,1708,741,1375,741,1375,410" style="stroke: #000000; stroke-width: 1.5;"/><line style="stroke: #000000; stroke-width: 1.5;" x1="1375" x2="1528" y1="435.0679" y2="435.0679"/><text fill="#000000" font-family="sans-serif" font-size="14" font-weight="bold" lengthAdjust="spacingAndGlyphs" textLength="140" x="1379" y="426.9659">cell.shape.Rectangle</text><!--MD5=[87f90148fc7fca43638d34a6dfa5b2ff]
cluster cell.shape.Triangle--><polygon fill="#FFFFFF" filter="url(#fioccfsy3q9te)" points="1753,796,1887,796,1894,821.0679,2135,821.0679,2135,1220,1753,1220,1753,796" style="stroke: #000000; stroke-width: 1.5;"/><line style="stroke: #000000; stroke-width: 1.5;" x1="1753" x2="1894" y1="821.0679" y2="821.0679"/><text fill="#000000" font-family="sans-serif" font-size="14" font-weight="bold" lengthAdjust="spacingAndGlyphs" textLength="128" x="1757" y="812.9659">cell.shape.Triangle</text><!--MD5=[45c3ae773aee1b71cddd4784a2059d28]
cluster cell.Layer--><polygon fill="#FFFFFF" filter="url(#fioccfsy3q9te)" points="1233,245,1304,245,1311,270.0679,1494,270.0679,1494,347,1233,347,1233,245" style="stroke: #000000; stroke-width: 1.5;"/><line style="stroke: #000000; stroke-width: 1.5;" x1="1233" x2="1311" y1="270.0679" y2="270.0679"/><text fill="#000000" font-family="sans-serif" font-size="14" font-weight="bold" lengthAdjust="spacingAndGlyphs" textLength="65" x="1237" y="261.9659">cell.Layer</text><!--MD5=[6bf9de787570b64f2c7468f621d110c4]
class cell.Line.guidelines--><rect fill="#FEFECE" filter="url(#fioccfsy3q9te)" height="92.9457" id="cell.Line.guidelines" style="stroke: #A80036; stroke-width: 1.5;" width="89" x="1788.5" y="115"/><ellipse cx="1803.5" cy="131" fill="#ADD1B2" rx="11" ry="11" style="stroke: #A80036; stroke-width: 1.0;"/><path d="M1806.4688,136.6406 Q1805.8906,136.9375 1805.25,137.0781 Q1804.6094,137.2344 1803.9063,137.2344 Q1801.4063,137.2344 1800.0781,135.5938 Q1798.7656,133.9375 1798.7656,130.8125 Q1798.7656,127.6875 1800.0781,126.0313 Q1801.4063,124.375 1803.9063,124.375 Q1804.6094,124.375 1805.25,124.5313 Q1805.9063,124.6875 1806.4688,124.9844 L1806.4688,127.7031 Q1805.8438,127.125 1805.25,126.8594 Q1804.6563,126.5781 1804.0313,126.5781 Q1802.6875,126.5781 1802,127.6563 Q1801.3125,128.7188 1801.3125,130.8125 Q1801.3125,132.9063 1802,133.9844 Q1802.6875,135.0469 1804.0313,135.0469 Q1804.6563,135.0469 1805.25,134.7813 Q1805.8438,134.5 1806.4688,133.9219 L1806.4688,136.6406 Z "/><text fill="#000000" font-family="sans-serif" font-size="12" lengthAdjust="spacingAndGlyphs" textLength="57" x="1817.5" y="135.656">guidelines</text><line style="stroke: #A80036; stroke-width: 1.5;" x1="1789.5" x2="1876.5" y1="147" y2="147"/><text fill="#000000" font-family="sans-serif" font-size="11" lengthAdjust="spacingAndGlyphs" textLength="32" x="1794.5" y="162.7589">facing</text><text fill="#000000" font-family="sans-serif" font-size="11" lengthAdjust="spacingAndGlyphs" textLength="21" x="1794.5" y="177.7408">clen</text><text fill="#000000" font-family="sans-serif" font-size="11" lengthAdjust="spacingAndGlyphs" textLength="40" x="1794.5" y="192.7227">bounds</text><line style="stroke: #A80036; stroke-width: 1.5;" x1="1789.5" x2="1876.5" y1="199.9457" y2="199.9457"/><!--MD5=[46a568ec4fa47ce35adaa3ec62384d39]
class cell.Line.collectPoints--><rect fill="#FEFECE" filter="url(#fioccfsy3q9te)" height="77.9638" id="cell.Line.collectPoints" style="stroke: #A80036; stroke-width: 1.5;" width="102" x="1913" y="122.5"/><ellipse cx="1928" cy="138.5" fill="#ADD1B2" rx="11" ry="11" style="stroke: #A80036; stroke-width: 1.0;"/><path d="M1930.9688,144.1406 Q1930.3906,144.4375 1929.75,144.5781 Q1929.1094,144.7344 1928.4063,144.7344 Q1925.9063,144.7344 1924.5781,143.0938 Q1923.2656,141.4375 1923.2656,138.3125 Q1923.2656,135.1875 1924.5781,133.5313 Q1925.9063,131.875 1928.4063,131.875 Q1929.1094,131.875 1929.75,132.0313 Q1930.4063,132.1875 1930.9688,132.4844 L1930.9688,135.2031 Q1930.3438,134.625 1929.75,134.3594 Q1929.1563,134.0781 1928.5313,134.0781 Q1927.1875,134.0781 1926.5,135.1563 Q1925.8125,136.2188 1925.8125,138.3125 Q1925.8125,140.4063 1926.5,141.4844 Q1927.1875,142.5469 1928.5313,142.5469 Q1929.1563,142.5469 1929.75,142.2813 Q1930.3438,142 1930.9688,141.4219 L1930.9688,144.1406 Z "/><text fill="#000000" font-family="sans-serif" font-size="12" lengthAdjust="spacingAndGlyphs" textLength="70" x="1942" y="143.156">collectPoints</text><line style="stroke: #A80036; stroke-width: 1.5;" x1="1914" x2="2014" y1="154.5" y2="154.5"/><text fill="#000000" font-family="sans-serif" font-size="11" lengthAdjust="spacingAndGlyphs" textLength="54" x="1919" y="170.2589">guidelines</text><text fill="#000000" font-family="sans-serif" font-size="11" lengthAdjust="spacingAndGlyphs" textLength="69" x="1919" y="185.2408">facing: NONE</text><line style="stroke: #A80036; stroke-width: 1.5;" x1="1914" x2="2014" y1="192.4638" y2="192.4638"/><!--MD5=[cb6a99421a8549030dd0e5cf27d9b797]
class cell.Line.orderGrid--><rect fill="#FEFECE" filter="url(#fioccfsy3q9te)" height="77.9638" id="cell.Line.orderGrid" style="stroke: #A80036; stroke-width: 1.5;" width="87" x="1666.5" y="122.5"/><ellipse cx="1681.5" cy="138.5" fill="#ADD1B2" rx="11" ry="11" style="stroke: #A80036; stroke-width: 1.0;"/><path d="M1684.4688,144.1406 Q1683.8906,144.4375 1683.25,144.5781 Q1682.6094,144.7344 1681.9063,144.7344 Q1679.4063,144.7344 1678.0781,143.0938 Q1676.7656,141.4375 1676.7656,138.3125 Q1676.7656,135.1875 1678.0781,133.5313 Q1679.4063,131.875 1681.9063,131.875 Q1682.6094,131.875 1683.25,132.0313 Q1683.9063,132.1875 1684.4688,132.4844 L1684.4688,135.2031 Q1683.8438,134.625 1683.25,134.3594 Q1682.6563,134.0781 1682.0313,134.0781 Q1680.6875,134.0781 1680,135.1563 Q1679.3125,136.2188 1679.3125,138.3125 Q1679.3125,140.4063 1680,141.4844 Q1680.6875,142.5469 1682.0313,142.5469 Q1682.6563,142.5469 1683.25,142.2813 Q1683.8438,142 1684.4688,141.4219 L1684.4688,144.1406 Z "/><text fill="#000000" font-family="sans-serif" font-size="12" lengthAdjust="spacingAndGlyphs" textLength="55" x="1695.5" y="143.156">orderGrid</text><line style="stroke: #A80036; stroke-width: 1.5;" x1="1667.5" x2="1752.5" y1="154.5" y2="154.5"/><text fill="#000000" font-family="sans-serif" font-size="11" lengthAdjust="spacingAndGlyphs" textLength="49" x="1672.5" y="170.2589">guideline</text><text fill="#000000" font-family="sans-serif" font-size="11" lengthAdjust="spacingAndGlyphs" textLength="69" x="1672.5" y="185.2408">facing: NONE</text><line style="stroke: #A80036; stroke-width: 1.5;" x1="1667.5" x2="1752.5" y1="192.4638" y2="192.4638"/><!--MD5=[e090107675eaf232596ca4eb0ca7edeb]
class cell.Line.makeStripes--><rect fill="#FEFECE" filter="url(#fioccfsy3q9te)" height="62.9819" id="cell.Line.makeStripes" style="stroke: #A80036; stroke-width: 1.5;" width="102" x="1778" y="275.5"/><ellipse cx="1793" cy="291.5" fill="#ADD1B2" rx="11" ry="11" style="stroke: #A80036; stroke-width: 1.0;"/><path d="M1795.9688,297.1406 Q1795.3906,297.4375 1794.75,297.5781 Q1794.1094,297.7344 1793.4063,297.7344 Q1790.9063,297.7344 1789.5781,296.0938 Q1788.2656,294.4375 1788.2656,291.3125 Q1788.2656,288.1875 1789.5781,286.5313 Q1790.9063,284.875 1793.4063,284.875 Q1794.1094,284.875 1794.75,285.0313 Q1795.4063,285.1875 1795.9688,285.4844 L1795.9688,288.2031 Q1795.3438,287.625 1794.75,287.3594 Q1794.1563,287.0781 1793.5313,287.0781 Q1792.1875,287.0781 1791.5,288.1563 Q1790.8125,289.2188 1790.8125,291.3125 Q1790.8125,293.4063 1791.5,294.4844 Q1792.1875,295.5469 1793.5313,295.5469 Q1794.1563,295.5469 1794.75,295.2813 Q1795.3438,295 1795.9688,294.4219 L1795.9688,297.1406 Z "/><text fill="#000000" font-family="sans-serif" font-size="12" lengthAdjust="spacingAndGlyphs" textLength="70" x="1807" y="296.156">makeStripes</text><line style="stroke: #A80036; stroke-width: 1.5;" x1="1779" x2="1879" y1="307.5" y2="307.5"/><text fill="#000000" font-family="sans-serif" font-size="11" lengthAdjust="spacingAndGlyphs" textLength="33" x="1784" y="323.2589">points</text><line style="stroke: #A80036; stroke-width: 1.5;" x1="1779" x2="1879" y1="330.4819" y2="330.4819"/><!--MD5=[ba200a65322dd065e0e9d12f514d8657]
class cell.Line.sliceByThird--><rect fill="#FEFECE" filter="url(#fioccfsy3q9te)" height="77.9638" id="cell.Line.sliceByThird" style="stroke: #A80036; stroke-width: 1.5;" width="100" x="1915" y="268"/><ellipse cx="1930" cy="284" fill="#ADD1B2" rx="11" ry="11" style="stroke: #A80036; stroke-width: 1.0;"/><path d="M1932.9688,289.6406 Q1932.3906,289.9375 1931.75,290.0781 Q1931.1094,290.2344 1930.4063,290.2344 Q1927.9063,290.2344 1926.5781,288.5938 Q1925.2656,286.9375 1925.2656,283.8125 Q1925.2656,280.6875 1926.5781,279.0313 Q1927.9063,277.375 1930.4063,277.375 Q1931.1094,277.375 1931.75,277.5313 Q1932.4063,277.6875 1932.9688,277.9844 L1932.9688,280.7031 Q1932.3438,280.125 1931.75,279.8594 Q1931.1563,279.5781 1930.5313,279.5781 Q1929.1875,279.5781 1928.5,280.6563 Q1927.8125,281.7188 1927.8125,283.8125 Q1927.8125,285.9063 1928.5,286.9844 Q1929.1875,288.0469 1930.5313,288.0469 Q1931.1563,288.0469 1931.75,287.7813 Q1932.3438,287.5 1932.9688,286.9219 L1932.9688,289.6406 Z "/><text fill="#000000" font-family="sans-serif" font-size="12" lengthAdjust="spacingAndGlyphs" textLength="68" x="1944" y="288.656">sliceByThird</text><line style="stroke: #A80036; stroke-width: 1.5;" x1="1916" x2="2014" y1="300" y2="300"/><text fill="#000000" font-family="sans-serif" font-size="11" lengthAdjust="spacingAndGlyphs" textLength="32" x="1921" y="315.7589">facing</text><text fill="#000000" font-family="sans-serif" font-size="11" lengthAdjust="spacingAndGlyphs" textLength="33" x="1921" y="330.7408">points</text><line style="stroke: #A80036; stroke-width: 1.5;" x1="1916" x2="2014" y1="337.9638" y2="337.9638"/><!--MD5=[ffd2a04b457f5f8e0ac855d154bc9e05]
class cell.shape.Circle.validate--><rect fill="#FEFECE" filter="url(#fioccfsy3q9te)" height="62.9819" id="cell.shape.Circle.validate" style="stroke: #A80036; stroke-width: 1.5;" width="76" x="144" y="471"/><ellipse cx="159" cy="487" fill="#ADD1B2" rx="11" ry="11" style="stroke: #A80036; stroke-width: 1.0;"/><path d="M161.9688,492.6406 Q161.3906,492.9375 160.75,493.0781 Q160.1094,493.2344 159.4063,493.2344 Q156.9063,493.2344 155.5781,491.5938 Q154.2656,489.9375 154.2656,486.8125 Q154.2656,483.6875 155.5781,482.0313 Q156.9063,480.375 159.4063,480.375 Q160.1094,480.375 160.75,480.5313 Q161.4063,480.6875 161.9688,480.9844 L161.9688,483.7031 Q161.3438,483.125 160.75,482.8594 Q160.1563,482.5781 159.5313,482.5781 Q158.1875,482.5781 157.5,483.6563 Q156.8125,484.7188 156.8125,486.8125 Q156.8125,488.9063 157.5,489.9844 Q158.1875,491.0469 159.5313,491.0469 Q160.1563,491.0469 160.75,490.7813 Q161.3438,490.5 161.9688,489.9219 L161.9688,492.6406 Z "/><text fill="#000000" font-family="sans-serif" font-size="12" lengthAdjust="spacingAndGlyphs" textLength="44" x="173" y="491.656">validate</text><line style="stroke: #A80036; stroke-width: 1.5;" x1="145" x2="219" y1="503" y2="503"/><text fill="#000000" font-family="sans-serif" font-size="11" lengthAdjust="spacingAndGlyphs" textLength="30" x="150" y="518.7589">geom</text><line style="stroke: #A80036; stroke-width: 1.5;" x1="145" x2="219" y1="525.9819" y2="525.9819"/><!--MD5=[da46f7dc9b7c618d07275199d0ced18c]
class cell.shape.Circle.draw--><rect fill="#FEFECE" filter="url(#fioccfsy3q9te)" height="77.9638" id="cell.shape.Circle.draw" style="stroke: #A80036; stroke-width: 1.5;" width="60" x="255" y="463.5"/><ellipse cx="270" cy="479.5" fill="#ADD1B2" rx="11" ry="11" style="stroke: #A80036; stroke-width: 1.0;"/><path d="M272.9688,485.1406 Q272.3906,485.4375 271.75,485.5781 Q271.1094,485.7344 270.4063,485.7344 Q267.9063,485.7344 266.5781,484.0938 Q265.2656,482.4375 265.2656,479.3125 Q265.2656,476.1875 266.5781,474.5313 Q267.9063,472.875 270.4063,472.875 Q271.1094,472.875 271.75,473.0313 Q272.4063,473.1875 272.9688,473.4844 L272.9688,476.2031 Q272.3438,475.625 271.75,475.3594 Q271.1563,475.0781 270.5313,475.0781 Q269.1875,475.0781 268.5,476.1563 Q267.8125,477.2188 267.8125,479.3125 Q267.8125,481.4063 268.5,482.4844 Q269.1875,483.5469 270.5313,483.5469 Q271.1563,483.5469 271.75,483.2813 Q272.3438,483 272.9688,482.4219 L272.9688,485.1406 Z "/><text fill="#000000" font-family="sans-serif" font-size="12" lengthAdjust="spacingAndGlyphs" textLength="28" x="284" y="484.156">draw</text><line style="stroke: #A80036; stroke-width: 1.5;" x1="256" x2="314" y1="495.5" y2="495.5"/><text fill="#000000" font-family="sans-serif" font-size="11" lengthAdjust="spacingAndGlyphs" textLength="33" x="261" y="511.2589">points</text><text fill="#000000" font-family="sans-serif" font-size="11" lengthAdjust="spacingAndGlyphs" textLength="30" x="261" y="526.2408">geom</text><line style="stroke: #A80036; stroke-width: 1.5;" x1="256" x2="314" y1="533.4638" y2="533.4638"/><!--MD5=[8e30f2ca0166d4e81639ba025bd82d7e]
class cell.shape.Circle.paint--><rect fill="#FEFECE" filter="url(#fioccfsy3q9te)" height="77.9638" id="cell.shape.Circle.paint" style="stroke: #A80036; stroke-width: 1.5;" width="60" x="350" y="463.5"/><ellipse cx="365" cy="479.5" fill="#ADD1B2" rx="11" ry="11" style="stroke: #A80036; stroke-width: 1.0;"/><path d="M367.9688,485.1406 Q367.3906,485.4375 366.75,485.5781 Q366.1094,485.7344 365.4063,485.7344 Q362.9063,485.7344 361.5781,484.0938 Q360.2656,482.4375 360.2656,479.3125 Q360.2656,476.1875 361.5781,474.5313 Q362.9063,472.875 365.4063,472.875 Q366.1094,472.875 366.75,473.0313 Q367.4063,473.1875 367.9688,473.4844 L367.9688,476.2031 Q367.3438,475.625 366.75,475.3594 Q366.1563,475.0781 365.5313,475.0781 Q364.1875,475.0781 363.5,476.1563 Q362.8125,477.2188 362.8125,479.3125 Q362.8125,481.4063 363.5,482.4844 Q364.1875,483.5469 365.5313,483.5469 Q366.1563,483.5469 366.75,483.2813 Q367.3438,483 367.9688,482.4219 L367.9688,485.1406 Z "/><text fill="#000000" font-family="sans-serif" font-size="12" lengthAdjust="spacingAndGlyphs" textLength="28" x="379" y="484.156">paint</text><line style="stroke: #A80036; stroke-width: 1.5;" x1="351" x2="409" y1="495.5" y2="495.5"/><text fill="#000000" font-family="sans-serif" font-size="11" lengthAdjust="spacingAndGlyphs" textLength="33" x="356" y="511.2589">points</text><text fill="#000000" font-family="sans-serif" font-size="11" lengthAdjust="spacingAndGlyphs" textLength="30" x="356" y="526.2408">geom</text><line style="stroke: #A80036; stroke-width: 1.5;" x1="351" x2="409" y1="533.4638" y2="533.4638"/><!--MD5=[921585fea03d47fe51cb83efaf443e8b]
class cell.shape.Circle.getRadius--><rect fill="#FEFECE" filter="url(#fioccfsy3q9te)" height="92.9457" id="cell.shape.Circle.getRadius" style="stroke: #A80036; stroke-width: 1.5;" width="87" x="54.5" y="624"/><ellipse cx="69.5" cy="640" fill="#ADD1B2" rx="11" ry="11" style="stroke: #A80036; stroke-width: 1.0;"/><path d="M72.4688,645.6406 Q71.8906,645.9375 71.25,646.0781 Q70.6094,646.2344 69.9063,646.2344 Q67.4063,646.2344 66.0781,644.5938 Q64.7656,642.9375 64.7656,639.8125 Q64.7656,636.6875 66.0781,635.0313 Q67.4063,633.375 69.9063,633.375 Q70.6094,633.375 71.25,633.5313 Q71.9063,633.6875 72.4688,633.9844 L72.4688,636.7031 Q71.8438,636.125 71.25,635.8594 Q70.6563,635.5781 70.0313,635.5781 Q68.6875,635.5781 68,636.6563 Q67.3125,637.7188 67.3125,639.8125 Q67.3125,641.9063 68,642.9844 Q68.6875,644.0469 70.0313,644.0469 Q70.6563,644.0469 71.25,643.7813 Q71.8438,643.5 72.4688,642.9219 L72.4688,645.6406 Z "/><text fill="#000000" font-family="sans-serif" font-size="12" lengthAdjust="spacingAndGlyphs" textLength="55" x="83.5" y="644.656">getRadius</text><line style="stroke: #A80036; stroke-width: 1.5;" x1="55.5" x2="140.5" y1="656" y2="656"/><text fill="#000000" font-family="sans-serif" font-size="11" lengthAdjust="spacingAndGlyphs" textLength="19" x="60.5" y="671.7589">size</text><text fill="#000000" font-family="sans-serif" font-size="11" lengthAdjust="spacingAndGlyphs" textLength="21" x="60.5" y="686.7408">clen</text><text fill="#000000" font-family="sans-serif" font-size="11" lengthAdjust="spacingAndGlyphs" textLength="35" x="60.5" y="701.7227">swidth</text><line style="stroke: #A80036; stroke-width: 1.5;" x1="55.5" x2="140.5" y1="708.9457" y2="708.9457"/><!--MD5=[3f08e11f6e49c1f9b07131a8a54046b6]
class cell.shape.Circle.adjustSize--><rect fill="#FEFECE" filter="url(#fioccfsy3q9te)" height="77.9638" id="cell.shape.Circle.adjustSize" style="stroke: #A80036; stroke-width: 1.5;" width="89" x="176.5" y="631.5"/><ellipse cx="191.5" cy="647.5" fill="#ADD1B2" rx="11" ry="11" style="stroke: #A80036; stroke-width: 1.0;"/><path d="M194.4688,653.1406 Q193.8906,653.4375 193.25,653.5781 Q192.6094,653.7344 191.9063,653.7344 Q189.4063,653.7344 188.0781,652.0938 Q186.7656,650.4375 186.7656,647.3125 Q186.7656,644.1875 188.0781,642.5313 Q189.4063,640.875 191.9063,640.875 Q192.6094,640.875 193.25,641.0313 Q193.9063,641.1875 194.4688,641.4844 L194.4688,644.2031 Q193.8438,643.625 193.25,643.3594 Q192.6563,643.0781 192.0313,643.0781 Q190.6875,643.0781 190,644.1563 Q189.3125,645.2188 189.3125,647.3125 Q189.3125,649.4063 190,650.4844 Q190.6875,651.5469 192.0313,651.5469 Q192.6563,651.5469 193.25,651.2813 Q193.8438,651 194.4688,650.4219 L194.4688,653.1406 Z "/><text fill="#000000" font-family="sans-serif" font-size="12" lengthAdjust="spacingAndGlyphs" textLength="57" x="205.5" y="652.156">adjustSize</text><line style="stroke: #A80036; stroke-width: 1.5;" x1="177.5" x2="264.5" y1="663.5" y2="663.5"/><text fill="#000000" font-family="sans-serif" font-size="11" lengthAdjust="spacingAndGlyphs" textLength="19" x="182.5" y="679.2589">size</text><text fill="#000000" font-family="sans-serif" font-size="11" lengthAdjust="spacingAndGlyphs" textLength="33" x="182.5" y="694.2408">points</text><line style="stroke: #A80036; stroke-width: 1.5;" x1="177.5" x2="264.5" y1="701.4638" y2="701.4638"/><!--MD5=[f640a676b74ccf73ac963f58890f41a0]
class cell.shape.Circle.drawConcentric--><rect fill="#FEFECE" filter="url(#fioccfsy3q9te)" height="77.9638" id="cell.shape.Circle.drawConcentric" style="stroke: #A80036; stroke-width: 1.5;" width="120" x="301" y="631.5"/><ellipse cx="316" cy="647.5" fill="#ADD1B2" rx="11" ry="11" style="stroke: #A80036; stroke-width: 1.0;"/><path d="M318.9688,653.1406 Q318.3906,653.4375 317.75,653.5781 Q317.1094,653.7344 316.4063,653.7344 Q313.9063,653.7344 312.5781,652.0938 Q311.2656,650.4375 311.2656,647.3125 Q311.2656,644.1875 312.5781,642.5313 Q313.9063,640.875 316.4063,640.875 Q317.1094,640.875 317.75,641.0313 Q318.4063,641.1875 318.9688,641.4844 L318.9688,644.2031 Q318.3438,643.625 317.75,643.3594 Q317.1563,643.0781 316.5313,643.0781 Q315.1875,643.0781 314.5,644.1563 Q313.8125,645.2188 313.8125,647.3125 Q313.8125,649.4063 314.5,650.4844 Q315.1875,651.5469 316.5313,651.5469 Q317.1563,651.5469 317.75,651.2813 Q318.3438,651 318.9688,650.4219 L318.9688,653.1406 Z "/><text fill="#000000" font-family="sans-serif" font-size="12" lengthAdjust="spacingAndGlyphs" textLength="88" x="330" y="652.156">drawConcentric</text><line style="stroke: #A80036; stroke-width: 1.5;" x1="302" x2="420" y1="663.5" y2="663.5"/><text fill="#000000" font-family="sans-serif" font-size="11" lengthAdjust="spacingAndGlyphs" textLength="33" x="307" y="679.2589">points</text><text fill="#000000" font-family="sans-serif" font-size="11" lengthAdjust="spacingAndGlyphs" textLength="30" x="307" y="694.2408">geom</text><line style="stroke: #A80036; stroke-width: 1.5;" x1="302" x2="420" y1="701.4638" y2="701.4638"/><!--MD5=[37a29976a739b73a12e0bb18fa4673c6]
class cell.shape.Diamond.validate--><rect fill="#FEFECE" filter="url(#fioccfsy3q9te)" height="62.9819" id="cell.shape.Diamond.validate" style="stroke: #A80036; stroke-width: 1.5;" width="76" x="536" y="471"/><ellipse cx="551" cy="487" fill="#ADD1B2" rx="11" ry="11" style="stroke: #A80036; stroke-width: 1.0;"/><path d="M553.9688,492.6406 Q553.3906,492.9375 552.75,493.0781 Q552.1094,493.2344 551.4063,493.2344 Q548.9063,493.2344 547.5781,491.5938 Q546.2656,489.9375 546.2656,486.8125 Q546.2656,483.6875 547.5781,482.0313 Q548.9063,480.375 551.4063,480.375 Q552.1094,480.375 552.75,480.5313 Q553.4063,480.6875 553.9688,480.9844 L553.9688,483.7031 Q553.3438,483.125 552.75,482.8594 Q552.1563,482.5781 551.5313,482.5781 Q550.1875,482.5781 549.5,483.6563 Q548.8125,484.7188 548.8125,486.8125 Q548.8125,488.9063 549.5,489.9844 Q550.1875,491.0469 551.5313,491.0469 Q552.1563,491.0469 552.75,490.7813 Q553.3438,490.5 553.9688,489.9219 L553.9688,492.6406 Z "/><text fill="#000000" font-family="sans-serif" font-size="12" lengthAdjust="spacingAndGlyphs" textLength="44" x="565" y="491.656">validate</text><line style="stroke: #A80036; stroke-width: 1.5;" x1="537" x2="611" y1="503" y2="503"/><text fill="#000000" font-family="sans-serif" font-size="11" lengthAdjust="spacingAndGlyphs" textLength="30" x="542" y="518.7589">geom</text><line style="stroke: #A80036; stroke-width: 1.5;" x1="537" x2="611" y1="525.9819" y2="525.9819"/><!--MD5=[e370739a71438fdaebcab79804d6d12c]
class cell.shape.Diamond.draw--><rect fill="#FEFECE" filter="url(#fioccfsy3q9te)" height="77.9638" id="cell.shape.Diamond.draw" style="stroke: #A80036; stroke-width: 1.5;" width="60" x="647" y="463.5"/><ellipse cx="662" cy="479.5" fill="#ADD1B2" rx="11" ry="11" style="stroke: #A80036; stroke-width: 1.0;"/><path d="M664.9688,485.1406 Q664.3906,485.4375 663.75,485.5781 Q663.1094,485.7344 662.4063,485.7344 Q659.9063,485.7344 658.5781,484.0938 Q657.2656,482.4375 657.2656,479.3125 Q657.2656,476.1875 658.5781,474.5313 Q659.9063,472.875 662.4063,472.875 Q663.1094,472.875 663.75,473.0313 Q664.4063,473.1875 664.9688,473.4844 L664.9688,476.2031 Q664.3438,475.625 663.75,475.3594 Q663.1563,475.0781 662.5313,475.0781 Q661.1875,475.0781 660.5,476.1563 Q659.8125,477.2188 659.8125,479.3125 Q659.8125,481.4063 660.5,482.4844 Q661.1875,483.5469 662.5313,483.5469 Q663.1563,483.5469 663.75,483.2813 Q664.3438,483 664.9688,482.4219 L664.9688,485.1406 Z "/><text fill="#000000" font-family="sans-serif" font-size="12" lengthAdjust="spacingAndGlyphs" textLength="28" x="676" y="484.156">draw</text><line style="stroke: #A80036; stroke-width: 1.5;" x1="648" x2="706" y1="495.5" y2="495.5"/><text fill="#000000" font-family="sans-serif" font-size="11" lengthAdjust="spacingAndGlyphs" textLength="33" x="653" y="511.2589">points</text><text fill="#000000" font-family="sans-serif" font-size="11" lengthAdjust="spacingAndGlyphs" textLength="30" x="653" y="526.2408">geom</text><line style="stroke: #A80036; stroke-width: 1.5;" x1="648" x2="706" y1="533.4638" y2="533.4638"/><!--MD5=[45df6f0f35ea36a401a361a06f877976]
class cell.shape.Diamond.paint--><rect fill="#FEFECE" filter="url(#fioccfsy3q9te)" height="77.9638" id="cell.shape.Diamond.paint" style="stroke: #A80036; stroke-width: 1.5;" width="60" x="742" y="463.5"/><ellipse cx="757" cy="479.5" fill="#ADD1B2" rx="11" ry="11" style="stroke: #A80036; stroke-width: 1.0;"/><path d="M759.9688,485.1406 Q759.3906,485.4375 758.75,485.5781 Q758.1094,485.7344 757.4063,485.7344 Q754.9063,485.7344 753.5781,484.0938 Q752.2656,482.4375 752.2656,479.3125 Q752.2656,476.1875 753.5781,474.5313 Q754.9063,472.875 757.4063,472.875 Q758.1094,472.875 758.75,473.0313 Q759.4063,473.1875 759.9688,473.4844 L759.9688,476.2031 Q759.3438,475.625 758.75,475.3594 Q758.1563,475.0781 757.5313,475.0781 Q756.1875,475.0781 755.5,476.1563 Q754.8125,477.2188 754.8125,479.3125 Q754.8125,481.4063 755.5,482.4844 Q756.1875,483.5469 757.5313,483.5469 Q758.1563,483.5469 758.75,483.2813 Q759.3438,483 759.9688,482.4219 L759.9688,485.1406 Z "/><text fill="#000000" font-family="sans-serif" font-size="12" lengthAdjust="spacingAndGlyphs" textLength="28" x="771" y="484.156">paint</text><line style="stroke: #A80036; stroke-width: 1.5;" x1="743" x2="801" y1="495.5" y2="495.5"/><text fill="#000000" font-family="sans-serif" font-size="11" lengthAdjust="spacingAndGlyphs" textLength="33" x="748" y="511.2589">points</text><text fill="#000000" font-family="sans-serif" font-size="11" lengthAdjust="spacingAndGlyphs" textLength="30" x="748" y="526.2408">geom</text><line style="stroke: #A80036; stroke-width: 1.5;" x1="743" x2="801" y1="533.4638" y2="533.4638"/><!--MD5=[06d514bbd0f774945a3f788113aaafd4]
class cell.shape.Diamond.coords--><rect fill="#FEFECE" filter="url(#fioccfsy3q9te)" height="77.9638" id="cell.shape.Diamond.coords" style="stroke: #A80036; stroke-width: 1.5;" width="70" x="525" y="631.5"/><ellipse cx="540" cy="647.5" fill="#ADD1B2" rx="11" ry="11" style="stroke: #A80036; stroke-width: 1.0;"/><path d="M542.9688,653.1406 Q542.3906,653.4375 541.75,653.5781 Q541.1094,653.7344 540.4063,653.7344 Q537.9063,653.7344 536.5781,652.0938 Q535.2656,650.4375 535.2656,647.3125 Q535.2656,644.1875 536.5781,642.5313 Q537.9063,640.875 540.4063,640.875 Q541.1094,640.875 541.75,641.0313 Q542.4063,641.1875 542.9688,641.4844 L542.9688,644.2031 Q542.3438,643.625 541.75,643.3594 Q541.1563,643.0781 540.5313,643.0781 Q539.1875,643.0781 538.5,644.1563 Q537.8125,645.2188 537.8125,647.3125 Q537.8125,649.4063 538.5,650.4844 Q539.1875,651.5469 540.5313,651.5469 Q541.1563,651.5469 541.75,651.2813 Q542.3438,651 542.9688,650.4219 L542.9688,653.1406 Z "/><text fill="#000000" font-family="sans-serif" font-size="12" lengthAdjust="spacingAndGlyphs" textLength="38" x="554" y="652.156">coords</text><line style="stroke: #A80036; stroke-width: 1.5;" x1="526" x2="594" y1="663.5" y2="663.5"/><text fill="#000000" font-family="sans-serif" font-size="11" lengthAdjust="spacingAndGlyphs" textLength="33" x="531" y="679.2589">points</text><text fill="#000000" font-family="sans-serif" font-size="11" lengthAdjust="spacingAndGlyphs" textLength="32" x="531" y="694.2408">facing</text><line style="stroke: #A80036; stroke-width: 1.5;" x1="526" x2="594" y1="701.4638" y2="701.4638"/><!--MD5=[fd0eba897b1b02ac6701685e3ddffddb]
class cell.shape.Diamond.guidelines--><rect fill="#FEFECE" filter="url(#fioccfsy3q9te)" height="77.9638" id="cell.shape.Diamond.guidelines" style="stroke: #A80036; stroke-width: 1.5;" width="89" x="630.5" y="631.5"/><ellipse cx="645.5" cy="647.5" fill="#ADD1B2" rx="11" ry="11" style="stroke: #A80036; stroke-width: 1.0;"/><path d="M648.4688,653.1406 Q647.8906,653.4375 647.25,653.5781 Q646.6094,653.7344 645.9063,653.7344 Q643.4063,653.7344 642.0781,652.0938 Q640.7656,650.4375 640.7656,647.3125 Q640.7656,644.1875 642.0781,642.5313 Q643.4063,640.875 645.9063,640.875 Q646.6094,640.875 647.25,641.0313 Q647.9063,641.1875 648.4688,641.4844 L648.4688,644.2031 Q647.8438,643.625 647.25,643.3594 Q646.6563,643.0781 646.0313,643.0781 Q644.6875,643.0781 644,644.1563 Q643.3125,645.2188 643.3125,647.3125 Q643.3125,649.4063 644,650.4844 Q644.6875,651.5469 646.0313,651.5469 Q646.6563,651.5469 647.25,651.2813 Q647.8438,651 648.4688,650.4219 L648.4688,653.1406 Z "/><text fill="#000000" font-family="sans-serif" font-size="12" lengthAdjust="spacingAndGlyphs" textLength="57" x="659.5" y="652.156">guidelines</text><line style="stroke: #A80036; stroke-width: 1.5;" x1="631.5" x2="718.5" y1="663.5" y2="663.5"/><text fill="#000000" font-family="sans-serif" font-size="11" lengthAdjust="spacingAndGlyphs" textLength="33" x="636.5" y="679.2589">points</text><text fill="#000000" font-family="sans-serif" font-size="11" lengthAdjust="spacingAndGlyphs" textLength="30" x="636.5" y="694.2408">geom</text><line style="stroke: #A80036; stroke-width: 1.5;" x1="631.5" x2="718.5" y1="701.4638" y2="701.4638"/><!--MD5=[d83fa428516dfe2fe7596ad2ccced238]
class cell.shape.Diamond.__guide--><rect fill="#FEFECE" filter="url(#fioccfsy3q9te)" height="62.9819" id="cell.shape.Diamond.__guide" style="stroke: #A80036; stroke-width: 1.5;" width="73" x="754.5" y="639"/><ellipse cx="769.5" cy="655" fill="#ADD1B2" rx="11" ry="11" style="stroke: #A80036; stroke-width: 1.0;"/><path d="M772.4688,660.6406 Q771.8906,660.9375 771.25,661.0781 Q770.6094,661.2344 769.9063,661.2344 Q767.4063,661.2344 766.0781,659.5938 Q764.7656,657.9375 764.7656,654.8125 Q764.7656,651.6875 766.0781,650.0313 Q767.4063,648.375 769.9063,648.375 Q770.6094,648.375 771.25,648.5313 Q771.9063,648.6875 772.4688,648.9844 L772.4688,651.7031 Q771.8438,651.125 771.25,650.8594 Q770.6563,650.5781 770.0313,650.5781 Q768.6875,650.5781 768,651.6563 Q767.3125,652.7188 767.3125,654.8125 Q767.3125,656.9063 768,657.9844 Q768.6875,659.0469 770.0313,659.0469 Q770.6563,659.0469 771.25,658.7813 Q771.8438,658.5 772.4688,657.9219 L772.4688,660.6406 Z "/><text fill="#000000" font-family="sans-serif" font-size="12" lengthAdjust="spacingAndGlyphs" textLength="41" x="783.5" y="659.656">__guide</text><line style="stroke: #A80036; stroke-width: 1.5;" x1="755.5" x2="826.5" y1="671" y2="671"/><text fill="#000000" font-family="sans-serif" font-size="11" lengthAdjust="spacingAndGlyphs" textLength="32" x="760.5" y="686.7589">facing</text><line style="stroke: #A80036; stroke-width: 1.5;" x1="755.5" x2="826.5" y1="693.9819" y2="693.9819"/><!--MD5=[3ba98030bad060ff5f55c6639320ca09]
class cell.shape.Gnomon.validate--><rect fill="#FEFECE" filter="url(#fioccfsy3q9te)" height="62.9819" id="cell.shape.Gnomon.validate" style="stroke: #A80036; stroke-width: 1.5;" width="76" x="1791" y="471"/><ellipse cx="1806" cy="487" fill="#ADD1B2" rx="11" ry="11" style="stroke: #A80036; stroke-width: 1.0;"/><path d="M1808.9688,492.6406 Q1808.3906,492.9375 1807.75,493.0781 Q1807.1094,493.2344 1806.4063,493.2344 Q1803.9063,493.2344 1802.5781,491.5938 Q1801.2656,489.9375 1801.2656,486.8125 Q1801.2656,483.6875 1802.5781,482.0313 Q1803.9063,480.375 1806.4063,480.375 Q1807.1094,480.375 1807.75,480.5313 Q1808.4063,480.6875 1808.9688,480.9844 L1808.9688,483.7031 Q1808.3438,483.125 1807.75,482.8594 Q1807.1563,482.5781 1806.5313,482.5781 Q1805.1875,482.5781 1804.5,483.6563 Q1803.8125,484.7188 1803.8125,486.8125 Q1803.8125,488.9063 1804.5,489.9844 Q1805.1875,491.0469 1806.5313,491.0469 Q1807.1563,491.0469 1807.75,490.7813 Q1808.3438,490.5 1808.9688,489.9219 L1808.9688,492.6406 Z "/><text fill="#000000" font-family="sans-serif" font-size="12" lengthAdjust="spacingAndGlyphs" textLength="44" x="1820" y="491.656">validate</text><line style="stroke: #A80036; stroke-width: 1.5;" x1="1792" x2="1866" y1="503" y2="503"/><text fill="#000000" font-family="sans-serif" font-size="11" lengthAdjust="spacingAndGlyphs" textLength="30" x="1797" y="518.7589">geom</text><line style="stroke: #A80036; stroke-width: 1.5;" x1="1792" x2="1866" y1="525.9819" y2="525.9819"/><!--MD5=[64fc26551366abdef2a97cd918f65fee]
class cell.shape.Gnomon.draw--><rect fill="#FEFECE" filter="url(#fioccfsy3q9te)" height="92.9457" id="cell.shape.Gnomon.draw" style="stroke: #A80036; stroke-width: 1.5;" width="60" x="1902" y="456"/><ellipse cx="1917" cy="472" fill="#ADD1B2" rx="11" ry="11" style="stroke: #A80036; stroke-width: 1.0;"/><path d="M1919.9688,477.6406 Q1919.3906,477.9375 1918.75,478.0781 Q1918.1094,478.2344 1917.4063,478.2344 Q1914.9063,478.2344 1913.5781,476.5938 Q1912.2656,474.9375 1912.2656,471.8125 Q1912.2656,468.6875 1913.5781,467.0313 Q1914.9063,465.375 1917.4063,465.375 Q1918.1094,465.375 1918.75,465.5313 Q1919.4063,465.6875 1919.9688,465.9844 L1919.9688,468.7031 Q1919.3438,468.125 1918.75,467.8594 Q1918.1563,467.5781 1917.5313,467.5781 Q1916.1875,467.5781 1915.5,468.6563 Q1914.8125,469.7188 1914.8125,471.8125 Q1914.8125,473.9063 1915.5,474.9844 Q1916.1875,476.0469 1917.5313,476.0469 Q1918.1563,476.0469 1918.75,475.7813 Q1919.3438,475.5 1919.9688,474.9219 L1919.9688,477.6406 Z "/><text fill="#000000" font-family="sans-serif" font-size="12" lengthAdjust="spacingAndGlyphs" textLength="28" x="1931" y="476.656">draw</text><line style="stroke: #A80036; stroke-width: 1.5;" x1="1903" x2="1961" y1="488" y2="488"/><text fill="#000000" font-family="sans-serif" font-size="11" lengthAdjust="spacingAndGlyphs" textLength="21" x="1908" y="503.7589">clen</text><text fill="#000000" font-family="sans-serif" font-size="11" lengthAdjust="spacingAndGlyphs" textLength="20" x="1908" y="518.7408">dim</text><text fill="#000000" font-family="sans-serif" font-size="11" lengthAdjust="spacingAndGlyphs" textLength="30" x="1908" y="533.7227">geom</text><line style="stroke: #A80036; stroke-width: 1.5;" x1="1903" x2="1961" y1="540.9457" y2="540.9457"/><!--MD5=[7c86430edd31d89df9922acc27c1c5da]
class cell.shape.Gnomon.paint--><rect fill="#FEFECE" filter="url(#fioccfsy3q9te)" height="77.9638" id="cell.shape.Gnomon.paint" style="stroke: #A80036; stroke-width: 1.5;" width="60" x="1997" y="463.5"/><ellipse cx="2012" cy="479.5" fill="#ADD1B2" rx="11" ry="11" style="stroke: #A80036; stroke-width: 1.0;"/><path d="M2014.9688,485.1406 Q2014.3906,485.4375 2013.75,485.5781 Q2013.1094,485.7344 2012.4063,485.7344 Q2009.9063,485.7344 2008.5781,484.0938 Q2007.2656,482.4375 2007.2656,479.3125 Q2007.2656,476.1875 2008.5781,474.5313 Q2009.9063,472.875 2012.4063,472.875 Q2013.1094,472.875 2013.75,473.0313 Q2014.4063,473.1875 2014.9688,473.4844 L2014.9688,476.2031 Q2014.3438,475.625 2013.75,475.3594 Q2013.1563,475.0781 2012.5313,475.0781 Q2011.1875,475.0781 2010.5,476.1563 Q2009.8125,477.2188 2009.8125,479.3125 Q2009.8125,481.4063 2010.5,482.4844 Q2011.1875,483.5469 2012.5313,483.5469 Q2013.1563,483.5469 2013.75,483.2813 Q2014.3438,483 2014.9688,482.4219 L2014.9688,485.1406 Z "/><text fill="#000000" font-family="sans-serif" font-size="12" lengthAdjust="spacingAndGlyphs" textLength="28" x="2026" y="484.156">paint</text><line style="stroke: #A80036; stroke-width: 1.5;" x1="1998" x2="2056" y1="495.5" y2="495.5"/><text fill="#000000" font-family="sans-serif" font-size="11" lengthAdjust="spacingAndGlyphs" textLength="20" x="2003" y="511.2589">dim</text><text fill="#000000" font-family="sans-serif" font-size="11" lengthAdjust="spacingAndGlyphs" textLength="38" x="2003" y="526.2408">kwargs</text><line style="stroke: #A80036; stroke-width: 1.5;" x1="1998" x2="2056" y1="533.4638" y2="533.4638"/><!--MD5=[0a8142b9b27b999e5dbaff7a400ef964]
class cell.shape.Gnomon.coords--><rect fill="#FEFECE" filter="url(#fioccfsy3q9te)" height="92.9457" id="cell.shape.Gnomon.coords" style="stroke: #A80036; stroke-width: 1.5;" width="70" x="1794" y="624"/><ellipse cx="1809" cy="640" fill="#ADD1B2" rx="11" ry="11" style="stroke: #A80036; stroke-width: 1.0;"/><path d="M1811.9688,645.6406 Q1811.3906,645.9375 1810.75,646.0781 Q1810.1094,646.2344 1809.4063,646.2344 Q1806.9063,646.2344 1805.5781,644.5938 Q1804.2656,642.9375 1804.2656,639.8125 Q1804.2656,636.6875 1805.5781,635.0313 Q1806.9063,633.375 1809.4063,633.375 Q1810.1094,633.375 1810.75,633.5313 Q1811.4063,633.6875 1811.9688,633.9844 L1811.9688,636.7031 Q1811.3438,636.125 1810.75,635.8594 Q1810.1563,635.5781 1809.5313,635.5781 Q1808.1875,635.5781 1807.5,636.6563 Q1806.8125,637.7188 1806.8125,639.8125 Q1806.8125,641.9063 1807.5,642.9844 Q1808.1875,644.0469 1809.5313,644.0469 Q1810.1563,644.0469 1810.75,643.7813 Q1811.3438,643.5 1811.9688,642.9219 L1811.9688,645.6406 Z "/><text fill="#000000" font-family="sans-serif" font-size="12" lengthAdjust="spacingAndGlyphs" textLength="38" x="1823" y="644.656">coords</text><line style="stroke: #A80036; stroke-width: 1.5;" x1="1795" x2="1863" y1="656" y2="656"/><text fill="#000000" font-family="sans-serif" font-size="11" lengthAdjust="spacingAndGlyphs" textLength="20" x="1800" y="671.7589">dim</text><text fill="#000000" font-family="sans-serif" font-size="11" lengthAdjust="spacingAndGlyphs" textLength="32" x="1800" y="686.7408">facing</text><text fill="#000000" font-family="sans-serif" font-size="11" lengthAdjust="spacingAndGlyphs" textLength="19" x="1800" y="701.7227">size</text><line style="stroke: #A80036; stroke-width: 1.5;" x1="1795" x2="1863" y1="708.9457" y2="708.9457"/><!--MD5=[d25d380747d2f9b4e0c1bc0fd066154a]
class cell.shape.Gnomon.__guide--><rect fill="#FEFECE" filter="url(#fioccfsy3q9te)" height="62.9819" id="cell.shape.Gnomon.__guide" style="stroke: #A80036; stroke-width: 1.5;" width="73" x="1899.5" y="639"/><ellipse cx="1914.5" cy="655" fill="#ADD1B2" rx="11" ry="11" style="stroke: #A80036; stroke-width: 1.0;"/><path d="M1917.4688,660.6406 Q1916.8906,660.9375 1916.25,661.0781 Q1915.6094,661.2344 1914.9063,661.2344 Q1912.4063,661.2344 1911.0781,659.5938 Q1909.7656,657.9375 1909.7656,654.8125 Q1909.7656,651.6875 1911.0781,650.0313 Q1912.4063,648.375 1914.9063,648.375 Q1915.6094,648.375 1916.25,648.5313 Q1916.9063,648.6875 1917.4688,648.9844 L1917.4688,651.7031 Q1916.8438,651.125 1916.25,650.8594 Q1915.6563,650.5781 1915.0313,650.5781 Q1913.6875,650.5781 1913,651.6563 Q1912.3125,652.7188 1912.3125,654.8125 Q1912.3125,656.9063 1913,657.9844 Q1913.6875,659.0469 1915.0313,659.0469 Q1915.6563,659.0469 1916.25,658.7813 Q1916.8438,658.5 1917.4688,657.9219 L1917.4688,660.6406 Z "/><text fill="#000000" font-family="sans-serif" font-size="12" lengthAdjust="spacingAndGlyphs" textLength="41" x="1928.5" y="659.656">__guide</text><line style="stroke: #A80036; stroke-width: 1.5;" x1="1900.5" x2="1971.5" y1="671" y2="671"/><text fill="#000000" font-family="sans-serif" font-size="11" lengthAdjust="spacingAndGlyphs" textLength="32" x="1905.5" y="686.7589">facing</text><line style="stroke: #A80036; stroke-width: 1.5;" x1="1900.5" x2="1971.5" y1="693.9819" y2="693.9819"/><!--MD5=[1bfe65aea24156eba6d9601d3f674864]
class cell.shape.Parabola.validate--><rect fill="#FEFECE" filter="url(#fioccfsy3q9te)" height="62.9819" id="cell.shape.Parabola.validate" style="stroke: #A80036; stroke-width: 1.5;" width="76" x="991" y="471"/><ellipse cx="1006" cy="487" fill="#ADD1B2" rx="11" ry="11" style="stroke: #A80036; stroke-width: 1.0;"/><path d="M1008.9688,492.6406 Q1008.3906,492.9375 1007.75,493.0781 Q1007.1094,493.2344 1006.4063,493.2344 Q1003.9063,493.2344 1002.5781,491.5938 Q1001.2656,489.9375 1001.2656,486.8125 Q1001.2656,483.6875 1002.5781,482.0313 Q1003.9063,480.375 1006.4063,480.375 Q1007.1094,480.375 1007.75,480.5313 Q1008.4063,480.6875 1008.9688,480.9844 L1008.9688,483.7031 Q1008.3438,483.125 1007.75,482.8594 Q1007.1563,482.5781 1006.5313,482.5781 Q1005.1875,482.5781 1004.5,483.6563 Q1003.8125,484.7188 1003.8125,486.8125 Q1003.8125,488.9063 1004.5,489.9844 Q1005.1875,491.0469 1006.5313,491.0469 Q1007.1563,491.0469 1007.75,490.7813 Q1008.3438,490.5 1008.9688,489.9219 L1008.9688,492.6406 Z "/><text fill="#000000" font-family="sans-serif" font-size="12" lengthAdjust="spacingAndGlyphs" textLength="44" x="1020" y="491.656">validate</text><line style="stroke: #A80036; stroke-width: 1.5;" x1="992" x2="1066" y1="503" y2="503"/><text fill="#000000" font-family="sans-serif" font-size="11" lengthAdjust="spacingAndGlyphs" textLength="30" x="997" y="518.7589">geom</text><line style="stroke: #A80036; stroke-width: 1.5;" x1="992" x2="1066" y1="525.9819" y2="525.9819"/><!--MD5=[f8d4c78a56c28d8d76bd5dc0eb1e8ff1]
class cell.shape.Parabola.paint--><rect fill="#FEFECE" filter="url(#fioccfsy3q9te)" height="77.9638" id="cell.shape.Parabola.paint" style="stroke: #A80036; stroke-width: 1.5;" width="60" x="1102" y="463.5"/><ellipse cx="1117" cy="479.5" fill="#ADD1B2" rx="11" ry="11" style="stroke: #A80036; stroke-width: 1.0;"/><path d="M1119.9688,485.1406 Q1119.3906,485.4375 1118.75,485.5781 Q1118.1094,485.7344 1117.4063,485.7344 Q1114.9063,485.7344 1113.5781,484.0938 Q1112.2656,482.4375 1112.2656,479.3125 Q1112.2656,476.1875 1113.5781,474.5313 Q1114.9063,472.875 1117.4063,472.875 Q1118.1094,472.875 1118.75,473.0313 Q1119.4063,473.1875 1119.9688,473.4844 L1119.9688,476.2031 Q1119.3438,475.625 1118.75,475.3594 Q1118.1563,475.0781 1117.5313,475.0781 Q1116.1875,475.0781 1115.5,476.1563 Q1114.8125,477.2188 1114.8125,479.3125 Q1114.8125,481.4063 1115.5,482.4844 Q1116.1875,483.5469 1117.5313,483.5469 Q1118.1563,483.5469 1118.75,483.2813 Q1119.3438,483 1119.9688,482.4219 L1119.9688,485.1406 Z "/><text fill="#000000" font-family="sans-serif" font-size="12" lengthAdjust="spacingAndGlyphs" textLength="28" x="1131" y="484.156">paint</text><line style="stroke: #A80036; stroke-width: 1.5;" x1="1103" x2="1161" y1="495.5" y2="495.5"/><text fill="#000000" font-family="sans-serif" font-size="11" lengthAdjust="spacingAndGlyphs" textLength="20" x="1108" y="511.2589">dim</text><text fill="#000000" font-family="sans-serif" font-size="11" lengthAdjust="spacingAndGlyphs" textLength="30" x="1108" y="526.2408">geom</text><line style="stroke: #A80036; stroke-width: 1.5;" x1="1103" x2="1161" y1="533.4638" y2="533.4638"/><!--MD5=[858073ada0f3087b626c56dd4413351f]
class cell.shape.Parabola.coords--><rect fill="#FEFECE" filter="url(#fioccfsy3q9te)" height="77.9638" id="cell.shape.Parabola.coords" style="stroke: #A80036; stroke-width: 1.5;" width="70" x="1197" y="463.5"/><ellipse cx="1212" cy="479.5" fill="#ADD1B2" rx="11" ry="11" style="stroke: #A80036; stroke-width: 1.0;"/><path d="M1214.9688,485.1406 Q1214.3906,485.4375 1213.75,485.5781 Q1213.1094,485.7344 1212.4063,485.7344 Q1209.9063,485.7344 1208.5781,484.0938 Q1207.2656,482.4375 1207.2656,479.3125 Q1207.2656,476.1875 1208.5781,474.5313 Q1209.9063,472.875 1212.4063,472.875 Q1213.1094,472.875 1213.75,473.0313 Q1214.4063,473.1875 1214.9688,473.4844 L1214.9688,476.2031 Q1214.3438,475.625 1213.75,475.3594 Q1213.1563,475.0781 1212.5313,475.0781 Q1211.1875,475.0781 1210.5,476.1563 Q1209.8125,477.2188 1209.8125,479.3125 Q1209.8125,481.4063 1210.5,482.4844 Q1211.1875,483.5469 1212.5313,483.5469 Q1213.1563,483.5469 1213.75,483.2813 Q1214.3438,483 1214.9688,482.4219 L1214.9688,485.1406 Z "/><text fill="#000000" font-family="sans-serif" font-size="12" lengthAdjust="spacingAndGlyphs" textLength="38" x="1226" y="484.156">coords</text><line style="stroke: #A80036; stroke-width: 1.5;" x1="1198" x2="1266" y1="495.5" y2="495.5"/><text fill="#000000" font-family="sans-serif" font-size="11" lengthAdjust="spacingAndGlyphs" textLength="20" x="1203" y="511.2589">dim</text><text fill="#000000" font-family="sans-serif" font-size="11" lengthAdjust="spacingAndGlyphs" textLength="32" x="1203" y="526.2408">facing</text><line style="stroke: #A80036; stroke-width: 1.5;" x1="1198" x2="1266" y1="533.4638" y2="533.4638"/><!--MD5=[277c0659dec47291981d9f6e044d7b86]
class cell.shape.Parabola.draw--><rect fill="#FEFECE" filter="url(#fioccfsy3q9te)" height="107.9276" id="cell.shape.Parabola.draw" style="stroke: #A80036; stroke-width: 1.5;" width="93" x="923.5" y="616.5"/><ellipse cx="953.35" cy="632.5" fill="#ADD1B2" rx="11" ry="11" style="stroke: #A80036; stroke-width: 1.0;"/><path d="M956.3188,638.1406 Q955.7406,638.4375 955.1,638.5781 Q954.4594,638.7344 953.7563,638.7344 Q951.2563,638.7344 949.9281,637.0938 Q948.6156,635.4375 948.6156,632.3125 Q948.6156,629.1875 949.9281,627.5313 Q951.2563,625.875 953.7563,625.875 Q954.4594,625.875 955.1,626.0313 Q955.7563,626.1875 956.3188,626.4844 L956.3188,629.2031 Q955.6938,628.625 955.1,628.3594 Q954.5063,628.0781 953.8813,628.0781 Q952.5375,628.0781 951.85,629.1563 Q951.1625,630.2188 951.1625,632.3125 Q951.1625,634.4063 951.85,635.4844 Q952.5375,636.5469 953.8813,636.5469 Q954.5063,636.5469 955.1,636.2813 Q955.6938,636 956.3188,635.4219 L956.3188,638.1406 Z "/><text fill="#000000" font-family="sans-serif" font-size="12" lengthAdjust="spacingAndGlyphs" textLength="28" x="970.65" y="637.156">draw</text><line style="stroke: #A80036; stroke-width: 1.5;" x1="924.5" x2="1015.5" y1="648.5" y2="648.5"/><text fill="#000000" font-family="sans-serif" font-size="11" lengthAdjust="spacingAndGlyphs" textLength="21" x="929.5" y="664.2589">clen</text><text fill="#000000" font-family="sans-serif" font-size="11" lengthAdjust="spacingAndGlyphs" textLength="20" x="929.5" y="679.2408">dim</text><text fill="#000000" font-family="sans-serif" font-size="11" lengthAdjust="spacingAndGlyphs" textLength="30" x="929.5" y="694.2227">geom</text><text fill="#000000" font-family="sans-serif" font-size="11" lengthAdjust="spacingAndGlyphs" textLength="81" x="929.5" y="709.2046">padding: FALSE</text><line style="stroke: #A80036; stroke-width: 1.5;" x1="924.5" x2="1015.5" y1="716.4276" y2="716.4276"/><!--MD5=[fb2cd2d9300d9b294b01a1019ee307ad]
class cell.shape.Parabola.reString--><rect fill="#FEFECE" filter="url(#fioccfsy3q9te)" height="122.9094" id="cell.shape.Parabola.reString" style="stroke: #A80036; stroke-width: 1.5;" width="89" x="1051.5" y="609"/><ellipse cx="1071.9" cy="625" fill="#ADD1B2" rx="11" ry="11" style="stroke: #A80036; stroke-width: 1.0;"/><path d="M1074.8688,630.6406 Q1074.2906,630.9375 1073.65,631.0781 Q1073.0094,631.2344 1072.3063,631.2344 Q1069.8063,631.2344 1068.4781,629.5938 Q1067.1656,627.9375 1067.1656,624.8125 Q1067.1656,621.6875 1068.4781,620.0313 Q1069.8063,618.375 1072.3063,618.375 Q1073.0094,618.375 1073.65,618.5313 Q1074.3063,618.6875 1074.8688,618.9844 L1074.8688,621.7031 Q1074.2438,621.125 1073.65,620.8594 Q1073.0563,620.5781 1072.4313,620.5781 Q1071.0875,620.5781 1070.4,621.6563 Q1069.7125,622.7188 1069.7125,624.8125 Q1069.7125,626.9063 1070.4,627.9844 Q1071.0875,629.0469 1072.4313,629.0469 Q1073.0563,629.0469 1073.65,628.7813 Q1074.2438,628.5 1074.8688,627.9219 L1074.8688,630.6406 Z "/><text fill="#000000" font-family="sans-serif" font-size="12" lengthAdjust="spacingAndGlyphs" textLength="45" x="1087.1" y="629.656">reString</text><line style="stroke: #A80036; stroke-width: 1.5;" x1="1052.5" x2="1139.5" y1="641" y2="641"/><text fill="#000000" font-family="sans-serif" font-size="11" lengthAdjust="spacingAndGlyphs" textLength="27" x="1057.5" y="656.7589">linstr</text><text fill="#000000" font-family="sans-serif" font-size="11" lengthAdjust="spacingAndGlyphs" textLength="28" x="1057.5" y="671.7408">point</text><text fill="#000000" font-family="sans-serif" font-size="11" lengthAdjust="spacingAndGlyphs" textLength="76" x="1057.5" y="686.7227">reverse: FALSE</text><text fill="#000000" font-family="sans-serif" font-size="11" lengthAdjust="spacingAndGlyphs" textLength="77" x="1057.5" y="701.7046">append: FALSE</text><text fill="#000000" font-family="sans-serif" font-size="11" lengthAdjust="spacingAndGlyphs" textLength="34" x="1057.5" y="716.6865">case: 0</text><line style="stroke: #A80036; stroke-width: 1.5;" x1="1052.5" x2="1139.5" y1="723.9094" y2="723.9094"/><!--MD5=[7de4afff055b2b5de3ae7b56298b48bb]
class cell.shape.Parabola.joinStrings--><rect fill="#FEFECE" filter="url(#fioccfsy3q9te)" height="77.9638" id="cell.shape.Parabola.joinStrings" style="stroke: #A80036; stroke-width: 1.5;" width="91" x="1175.5" y="631.5"/><ellipse cx="1190.5" cy="647.5" fill="#ADD1B2" rx="11" ry="11" style="stroke: #A80036; stroke-width: 1.0;"/><path d="M1193.4688,653.1406 Q1192.8906,653.4375 1192.25,653.5781 Q1191.6094,653.7344 1190.9063,653.7344 Q1188.4063,653.7344 1187.0781,652.0938 Q1185.7656,650.4375 1185.7656,647.3125 Q1185.7656,644.1875 1187.0781,642.5313 Q1188.4063,640.875 1190.9063,640.875 Q1191.6094,640.875 1192.25,641.0313 Q1192.9063,641.1875 1193.4688,641.4844 L1193.4688,644.2031 Q1192.8438,643.625 1192.25,643.3594 Q1191.6563,643.0781 1191.0313,643.0781 Q1189.6875,643.0781 1189,644.1563 Q1188.3125,645.2188 1188.3125,647.3125 Q1188.3125,649.4063 1189,650.4844 Q1189.6875,651.5469 1191.0313,651.5469 Q1191.6563,651.5469 1192.25,651.2813 Q1192.8438,651 1193.4688,650.4219 L1193.4688,653.1406 Z "/><text fill="#000000" font-family="sans-serif" font-size="12" lengthAdjust="spacingAndGlyphs" textLength="59" x="1204.5" y="652.156">joinStrings</text><line style="stroke: #A80036; stroke-width: 1.5;" x1="1176.5" x2="1265.5" y1="663.5" y2="663.5"/><text fill="#000000" font-family="sans-serif" font-size="11" lengthAdjust="spacingAndGlyphs" textLength="45" x="1181.5" y="679.2589">gnomon</text><text fill="#000000" font-family="sans-serif" font-size="11" lengthAdjust="spacingAndGlyphs" textLength="26" x="1181.5" y="694.2408">edge</text><line style="stroke: #A80036; stroke-width: 1.5;" x1="1176.5" x2="1265.5" y1="701.4638" y2="701.4638"/><!--MD5=[6f4987ae70d885b74c2873df2d1a2133]
class cell.shape.Rectangle.validate--><rect fill="#FEFECE" filter="url(#fioccfsy3q9te)" height="62.9819" id="cell.shape.Rectangle.validate" style="stroke: #A80036; stroke-width: 1.5;" width="76" x="1494" y="471"/><ellipse cx="1509" cy="487" fill="#ADD1B2" rx="11" ry="11" style="stroke: #A80036; stroke-width: 1.0;"/><path d="M1511.9688,492.6406 Q1511.3906,492.9375 1510.75,493.0781 Q1510.1094,493.2344 1509.4063,493.2344 Q1506.9063,493.2344 1505.5781,491.5938 Q1504.2656,489.9375 1504.2656,486.8125 Q1504.2656,483.6875 1505.5781,482.0313 Q1506.9063,480.375 1509.4063,480.375 Q1510.1094,480.375 1510.75,480.5313 Q1511.4063,480.6875 1511.9688,480.9844 L1511.9688,483.7031 Q1511.3438,483.125 1510.75,482.8594 Q1510.1563,482.5781 1509.5313,482.5781 Q1508.1875,482.5781 1507.5,483.6563 Q1506.8125,484.7188 1506.8125,486.8125 Q1506.8125,488.9063 1507.5,489.9844 Q1508.1875,491.0469 1509.5313,491.0469 Q1510.1563,491.0469 1510.75,490.7813 Q1511.3438,490.5 1511.9688,489.9219 L1511.9688,492.6406 Z "/><text fill="#000000" font-family="sans-serif" font-size="12" lengthAdjust="spacingAndGlyphs" textLength="44" x="1523" y="491.656">validate</text><line style="stroke: #A80036; stroke-width: 1.5;" x1="1495" x2="1569" y1="503" y2="503"/><text fill="#000000" font-family="sans-serif" font-size="11" lengthAdjust="spacingAndGlyphs" textLength="30" x="1500" y="518.7589">geom</text><line style="stroke: #A80036; stroke-width: 1.5;" x1="1495" x2="1569" y1="525.9819" y2="525.9819"/><!--MD5=[4e0f8a03b24a1690aee9be25adbe3715]
class cell.shape.Rectangle.draw--><rect fill="#FEFECE" filter="url(#fioccfsy3q9te)" height="92.9457" id="cell.shape.Rectangle.draw" style="stroke: #A80036; stroke-width: 1.5;" width="60" x="1399" y="456"/><ellipse cx="1414" cy="472" fill="#ADD1B2" rx="11" ry="11" style="stroke: #A80036; stroke-width: 1.0;"/><path d="M1416.9688,477.6406 Q1416.3906,477.9375 1415.75,478.0781 Q1415.1094,478.2344 1414.4063,478.2344 Q1411.9063,478.2344 1410.5781,476.5938 Q1409.2656,474.9375 1409.2656,471.8125 Q1409.2656,468.6875 1410.5781,467.0313 Q1411.9063,465.375 1414.4063,465.375 Q1415.1094,465.375 1415.75,465.5313 Q1416.4063,465.6875 1416.9688,465.9844 L1416.9688,468.7031 Q1416.3438,468.125 1415.75,467.8594 Q1415.1563,467.5781 1414.5313,467.5781 Q1413.1875,467.5781 1412.5,468.6563 Q1411.8125,469.7188 1411.8125,471.8125 Q1411.8125,473.9063 1412.5,474.9844 Q1413.1875,476.0469 1414.5313,476.0469 Q1415.1563,476.0469 1415.75,475.7813 Q1416.3438,475.5 1416.9688,474.9219 L1416.9688,477.6406 Z "/><text fill="#000000" font-family="sans-serif" font-size="12" lengthAdjust="spacingAndGlyphs" textLength="28" x="1428" y="476.656">draw</text><line style="stroke: #A80036; stroke-width: 1.5;" x1="1400" x2="1458" y1="488" y2="488"/><text fill="#000000" font-family="sans-serif" font-size="11" lengthAdjust="spacingAndGlyphs" textLength="21" x="1405" y="503.7589">clen</text><text fill="#000000" font-family="sans-serif" font-size="11" lengthAdjust="spacingAndGlyphs" textLength="20" x="1405" y="518.7408">dim</text><text fill="#000000" font-family="sans-serif" font-size="11" lengthAdjust="spacingAndGlyphs" textLength="30" x="1405" y="533.7227">geom</text><line style="stroke: #A80036; stroke-width: 1.5;" x1="1400" x2="1458" y1="540.9457" y2="540.9457"/><!--MD5=[2d4023e0936631864ca12c6582a2e6b4]
class cell.shape.Rectangle.paint--><rect fill="#FEFECE" filter="url(#fioccfsy3q9te)" height="77.9638" id="cell.shape.Rectangle.paint" style="stroke: #A80036; stroke-width: 1.5;" width="60" x="1605" y="463.5"/><ellipse cx="1620" cy="479.5" fill="#ADD1B2" rx="11" ry="11" style="stroke: #A80036; stroke-width: 1.0;"/><path d="M1622.9688,485.1406 Q1622.3906,485.4375 1621.75,485.5781 Q1621.1094,485.7344 1620.4063,485.7344 Q1617.9063,485.7344 1616.5781,484.0938 Q1615.2656,482.4375 1615.2656,479.3125 Q1615.2656,476.1875 1616.5781,474.5313 Q1617.9063,472.875 1620.4063,472.875 Q1621.1094,472.875 1621.75,473.0313 Q1622.4063,473.1875 1622.9688,473.4844 L1622.9688,476.2031 Q1622.3438,475.625 1621.75,475.3594 Q1621.1563,475.0781 1620.5313,475.0781 Q1619.1875,475.0781 1618.5,476.1563 Q1617.8125,477.2188 1617.8125,479.3125 Q1617.8125,481.4063 1618.5,482.4844 Q1619.1875,483.5469 1620.5313,483.5469 Q1621.1563,483.5469 1621.75,483.2813 Q1622.3438,483 1622.9688,482.4219 L1622.9688,485.1406 Z "/><text fill="#000000" font-family="sans-serif" font-size="12" lengthAdjust="spacingAndGlyphs" textLength="28" x="1634" y="484.156">paint</text><line style="stroke: #A80036; stroke-width: 1.5;" x1="1606" x2="1664" y1="495.5" y2="495.5"/><text fill="#000000" font-family="sans-serif" font-size="11" lengthAdjust="spacingAndGlyphs" textLength="20" x="1611" y="511.2589">dim</text><text fill="#000000" font-family="sans-serif" font-size="11" lengthAdjust="spacingAndGlyphs" textLength="38" x="1611" y="526.2408">kwargs</text><line style="stroke: #A80036; stroke-width: 1.5;" x1="1606" x2="1664" y1="533.4638" y2="533.4638"/><!--MD5=[2b80b5ea8336c1a9e1141c260a935773]
class cell.shape.Rectangle.coords--><rect fill="#FEFECE" filter="url(#fioccfsy3q9te)" height="92.9457" id="cell.shape.Rectangle.coords" style="stroke: #A80036; stroke-width: 1.5;" width="70" x="1486" y="624"/><ellipse cx="1501" cy="640" fill="#ADD1B2" rx="11" ry="11" style="stroke: #A80036; stroke-width: 1.0;"/><path d="M1503.9688,645.6406 Q1503.3906,645.9375 1502.75,646.0781 Q1502.1094,646.2344 1501.4063,646.2344 Q1498.9063,646.2344 1497.5781,644.5938 Q1496.2656,642.9375 1496.2656,639.8125 Q1496.2656,636.6875 1497.5781,635.0313 Q1498.9063,633.375 1501.4063,633.375 Q1502.1094,633.375 1502.75,633.5313 Q1503.4063,633.6875 1503.9688,633.9844 L1503.9688,636.7031 Q1503.3438,636.125 1502.75,635.8594 Q1502.1563,635.5781 1501.5313,635.5781 Q1500.1875,635.5781 1499.5,636.6563 Q1498.8125,637.7188 1498.8125,639.8125 Q1498.8125,641.9063 1499.5,642.9844 Q1500.1875,644.0469 1501.5313,644.0469 Q1502.1563,644.0469 1502.75,643.7813 Q1503.3438,643.5 1503.9688,642.9219 L1503.9688,645.6406 Z "/><text fill="#000000" font-family="sans-serif" font-size="12" lengthAdjust="spacingAndGlyphs" textLength="38" x="1515" y="644.656">coords</text><line style="stroke: #A80036; stroke-width: 1.5;" x1="1487" x2="1555" y1="656" y2="656"/><text fill="#000000" font-family="sans-serif" font-size="11" lengthAdjust="spacingAndGlyphs" textLength="20" x="1492" y="671.7589">dim</text><text fill="#000000" font-family="sans-serif" font-size="11" lengthAdjust="spacingAndGlyphs" textLength="19" x="1492" y="686.7408">size</text><text fill="#000000" font-family="sans-serif" font-size="11" lengthAdjust="spacingAndGlyphs" textLength="32" x="1492" y="701.7227">facing</text><line style="stroke: #A80036; stroke-width: 1.5;" x1="1487" x2="1555" y1="708.9457" y2="708.9457"/><!--MD5=[16e601276a2c0ea19d2a4cd187c1bdcc]
class cell.shape.Rectangle.__guide--><rect fill="#FEFECE" filter="url(#fioccfsy3q9te)" height="62.9819" id="cell.shape.Rectangle.__guide" style="stroke: #A80036; stroke-width: 1.5;" width="73" x="1591.5" y="639"/><ellipse cx="1606.5" cy="655" fill="#ADD1B2" rx="11" ry="11" style="stroke: #A80036; stroke-width: 1.0;"/><path d="M1609.4688,660.6406 Q1608.8906,660.9375 1608.25,661.0781 Q1607.6094,661.2344 1606.9063,661.2344 Q1604.4063,661.2344 1603.0781,659.5938 Q1601.7656,657.9375 1601.7656,654.8125 Q1601.7656,651.6875 1603.0781,650.0313 Q1604.4063,648.375 1606.9063,648.375 Q1607.6094,648.375 1608.25,648.5313 Q1608.9063,648.6875 1609.4688,648.9844 L1609.4688,651.7031 Q1608.8438,651.125 1608.25,650.8594 Q1607.6563,650.5781 1607.0313,650.5781 Q1605.6875,650.5781 1605,651.6563 Q1604.3125,652.7188 1604.3125,654.8125 Q1604.3125,656.9063 1605,657.9844 Q1605.6875,659.0469 1607.0313,659.0469 Q1607.6563,659.0469 1608.25,658.7813 Q1608.8438,658.5 1609.4688,657.9219 L1609.4688,660.6406 Z "/><text fill="#000000" font-family="sans-serif" font-size="12" lengthAdjust="spacingAndGlyphs" textLength="41" x="1620.5" y="659.656">__guide</text><line style="stroke: #A80036; stroke-width: 1.5;" x1="1592.5" x2="1663.5" y1="671" y2="671"/><text fill="#000000" font-family="sans-serif" font-size="11" lengthAdjust="spacingAndGlyphs" textLength="47" x="1597.5" y="686.7589">direction</text><line style="stroke: #A80036; stroke-width: 1.5;" x1="1592.5" x2="1663.5" y1="693.9819" y2="693.9819"/><!--MD5=[a8723fd161f5bc302f60f44c36a81be2]
class cell.shape.Triangle.paint--><rect fill="#FEFECE" filter="url(#fioccfsy3q9te)" height="77.9638" id="cell.shape.Triangle.paint" style="stroke: #A80036; stroke-width: 1.5;" width="60" x="1799" y="842"/><ellipse cx="1814" cy="858" fill="#ADD1B2" rx="11" ry="11" style="stroke: #A80036; stroke-width: 1.0;"/><path d="M1816.9688,863.6406 Q1816.3906,863.9375 1815.75,864.0781 Q1815.1094,864.2344 1814.4063,864.2344 Q1811.9063,864.2344 1810.5781,862.5938 Q1809.2656,860.9375 1809.2656,857.8125 Q1809.2656,854.6875 1810.5781,853.0313 Q1811.9063,851.375 1814.4063,851.375 Q1815.1094,851.375 1815.75,851.5313 Q1816.4063,851.6875 1816.9688,851.9844 L1816.9688,854.7031 Q1816.3438,854.125 1815.75,853.8594 Q1815.1563,853.5781 1814.5313,853.5781 Q1813.1875,853.5781 1812.5,854.6563 Q1811.8125,855.7188 1811.8125,857.8125 Q1811.8125,859.9063 1812.5,860.9844 Q1813.1875,862.0469 1814.5313,862.0469 Q1815.1563,862.0469 1815.75,861.7813 Q1816.3438,861.5 1816.9688,860.9219 L1816.9688,863.6406 Z "/><text fill="#000000" font-family="sans-serif" font-size="12" lengthAdjust="spacingAndGlyphs" textLength="28" x="1828" y="862.656">paint</text><line style="stroke: #A80036; stroke-width: 1.5;" x1="1800" x2="1858" y1="874" y2="874"/><text fill="#000000" font-family="sans-serif" font-size="11" lengthAdjust="spacingAndGlyphs" textLength="33" x="1805" y="889.7589">points</text><text fill="#000000" font-family="sans-serif" font-size="11" lengthAdjust="spacingAndGlyphs" textLength="30" x="1805" y="904.7408">geom</text><line style="stroke: #A80036; stroke-width: 1.5;" x1="1800" x2="1858" y1="911.9638" y2="911.9638"/><!--MD5=[5ed325d0a349d58b5b519c30140b81fd]
class cell.shape.Triangle.coords--><rect fill="#FEFECE" filter="url(#fioccfsy3q9te)" height="77.9638" id="cell.shape.Triangle.coords" style="stroke: #A80036; stroke-width: 1.5;" width="70" x="1894" y="842"/><ellipse cx="1909" cy="858" fill="#ADD1B2" rx="11" ry="11" style="stroke: #A80036; stroke-width: 1.0;"/><path d="M1911.9688,863.6406 Q1911.3906,863.9375 1910.75,864.0781 Q1910.1094,864.2344 1909.4063,864.2344 Q1906.9063,864.2344 1905.5781,862.5938 Q1904.2656,860.9375 1904.2656,857.8125 Q1904.2656,854.6875 1905.5781,853.0313 Q1906.9063,851.375 1909.4063,851.375 Q1910.1094,851.375 1910.75,851.5313 Q1911.4063,851.6875 1911.9688,851.9844 L1911.9688,854.7031 Q1911.3438,854.125 1910.75,853.8594 Q1910.1563,853.5781 1909.5313,853.5781 Q1908.1875,853.5781 1907.5,854.6563 Q1906.8125,855.7188 1906.8125,857.8125 Q1906.8125,859.9063 1907.5,860.9844 Q1908.1875,862.0469 1909.5313,862.0469 Q1910.1563,862.0469 1910.75,861.7813 Q1911.3438,861.5 1911.9688,860.9219 L1911.9688,863.6406 Z "/><text fill="#000000" font-family="sans-serif" font-size="12" lengthAdjust="spacingAndGlyphs" textLength="38" x="1923" y="862.656">coords</text><line style="stroke: #A80036; stroke-width: 1.5;" x1="1895" x2="1963" y1="874" y2="874"/><text fill="#000000" font-family="sans-serif" font-size="11" lengthAdjust="spacingAndGlyphs" textLength="33" x="1900" y="889.7589">points</text><text fill="#000000" font-family="sans-serif" font-size="11" lengthAdjust="spacingAndGlyphs" textLength="32" x="1900" y="904.7408">facing</text><line style="stroke: #A80036; stroke-width: 1.5;" x1="1895" x2="1963" y1="911.9638" y2="911.9638"/><!--MD5=[0379bb1d417d25260910f06547a725ec]
class cell.shape.Triangle.draw--><rect fill="#FEFECE" filter="url(#fioccfsy3q9te)" height="77.9638" id="cell.shape.Triangle.draw" style="stroke: #A80036; stroke-width: 1.5;" width="60" x="1999" y="842"/><ellipse cx="2014" cy="858" fill="#ADD1B2" rx="11" ry="11" style="stroke: #A80036; stroke-width: 1.0;"/><path d="M2016.9688,863.6406 Q2016.3906,863.9375 2015.75,864.0781 Q2015.1094,864.2344 2014.4063,864.2344 Q2011.9063,864.2344 2010.5781,862.5938 Q2009.2656,860.9375 2009.2656,857.8125 Q2009.2656,854.6875 2010.5781,853.0313 Q2011.9063,851.375 2014.4063,851.375 Q2015.1094,851.375 2015.75,851.5313 Q2016.4063,851.6875 2016.9688,851.9844 L2016.9688,854.7031 Q2016.3438,854.125 2015.75,853.8594 Q2015.1563,853.5781 2014.5313,853.5781 Q2013.1875,853.5781 2012.5,854.6563 Q2011.8125,855.7188 2011.8125,857.8125 Q2011.8125,859.9063 2012.5,860.9844 Q2013.1875,862.0469 2014.5313,862.0469 Q2015.1563,862.0469 2015.75,861.7813 Q2016.3438,861.5 2016.9688,860.9219 L2016.9688,863.6406 Z "/><text fill="#000000" font-family="sans-serif" font-size="12" lengthAdjust="spacingAndGlyphs" textLength="28" x="2028" y="862.656">draw</text><line style="stroke: #A80036; stroke-width: 1.5;" x1="2000" x2="2058" y1="874" y2="874"/><text fill="#000000" font-family="sans-serif" font-size="11" lengthAdjust="spacingAndGlyphs" textLength="33" x="2005" y="889.7589">points</text><text fill="#000000" font-family="sans-serif" font-size="11" lengthAdjust="spacingAndGlyphs" textLength="30" x="2005" y="904.7408">geom</text><line style="stroke: #A80036; stroke-width: 1.5;" x1="2000" x2="2058" y1="911.9638" y2="911.9638"/><!--MD5=[ee6b4b27fb2c3d2f47ae783891f8f2f2]
class cell.shape.Triangle.orderGrid--><rect fill="#FEFECE" filter="url(#fioccfsy3q9te)" height="77.9638" id="cell.shape.Triangle.orderGrid" style="stroke: #A80036; stroke-width: 1.5;" width="87" x="1785.5" y="980"/><ellipse cx="1800.5" cy="996" fill="#ADD1B2" rx="11" ry="11" style="stroke: #A80036; stroke-width: 1.0;"/><path d="M1803.4688,1001.6406 Q1802.8906,1001.9375 1802.25,1002.0781 Q1801.6094,1002.2344 1800.9063,1002.2344 Q1798.4063,1002.2344 1797.0781,1000.5938 Q1795.7656,998.9375 1795.7656,995.8125 Q1795.7656,992.6875 1797.0781,991.0313 Q1798.4063,989.375 1800.9063,989.375 Q1801.6094,989.375 1802.25,989.5313 Q1802.9063,989.6875 1803.4688,989.9844 L1803.4688,992.7031 Q1802.8438,992.125 1802.25,991.8594 Q1801.6563,991.5781 1801.0313,991.5781 Q1799.6875,991.5781 1799,992.6563 Q1798.3125,993.7188 1798.3125,995.8125 Q1798.3125,997.9063 1799,998.9844 Q1799.6875,1000.0469 1801.0313,1000.0469 Q1801.6563,1000.0469 1802.25,999.7813 Q1802.8438,999.5 1803.4688,998.9219 L1803.4688,1001.6406 Z "/><text fill="#000000" font-family="sans-serif" font-size="12" lengthAdjust="spacingAndGlyphs" textLength="55" x="1814.5" y="1000.656">orderGrid</text><line style="stroke: #A80036; stroke-width: 1.5;" x1="1786.5" x2="1871.5" y1="1012" y2="1012"/><text fill="#000000" font-family="sans-serif" font-size="11" lengthAdjust="spacingAndGlyphs" textLength="49" x="1791.5" y="1027.7589">guideline</text><text fill="#000000" font-family="sans-serif" font-size="11" lengthAdjust="spacingAndGlyphs" textLength="69" x="1791.5" y="1042.7408">facing: NONE</text><line style="stroke: #A80036; stroke-width: 1.5;" x1="1786.5" x2="1871.5" y1="1049.9638" y2="1049.9638"/><!--MD5=[33e17a94c617604b020bafc520c69647]
class cell.shape.Triangle._orderGrid--><rect fill="#FEFECE" filter="url(#fioccfsy3q9te)" height="62.9819" id="cell.shape.Triangle._orderGrid" style="stroke: #A80036; stroke-width: 1.5;" width="92" x="1908" y="987.5"/><ellipse cx="1923" cy="1003.5" fill="#ADD1B2" rx="11" ry="11" style="stroke: #A80036; stroke-width: 1.0;"/><path d="M1925.9688,1009.1406 Q1925.3906,1009.4375 1924.75,1009.5781 Q1924.1094,1009.7344 1923.4063,1009.7344 Q1920.9063,1009.7344 1919.5781,1008.0938 Q1918.2656,1006.4375 1918.2656,1003.3125 Q1918.2656,1000.1875 1919.5781,998.5313 Q1920.9063,996.875 1923.4063,996.875 Q1924.1094,996.875 1924.75,997.0313 Q1925.4063,997.1875 1925.9688,997.4844 L1925.9688,1000.2031 Q1925.3438,999.625 1924.75,999.3594 Q1924.1563,999.0781 1923.5313,999.0781 Q1922.1875,999.0781 1921.5,1000.1563 Q1920.8125,1001.2188 1920.8125,1003.3125 Q1920.8125,1005.4063 1921.5,1006.4844 Q1922.1875,1007.5469 1923.5313,1007.5469 Q1924.1563,1007.5469 1924.75,1007.2813 Q1925.3438,1007 1925.9688,1006.4219 L1925.9688,1009.1406 Z "/><text fill="#000000" font-family="sans-serif" font-size="12" lengthAdjust="spacingAndGlyphs" textLength="60" x="1937" y="1008.156">_orderGrid</text><line style="stroke: #A80036; stroke-width: 1.5;" x1="1909" x2="1999" y1="1019.5" y2="1019.5"/><text fill="#000000" font-family="sans-serif" font-size="11" lengthAdjust="spacingAndGlyphs" textLength="40" x="1914" y="1035.2589">guideln</text><line style="stroke: #A80036; stroke-width: 1.5;" x1="1909" x2="1999" y1="1042.4819" y2="1042.4819"/><!--MD5=[6f834223d727fd12dfc9acf91bbf86b8]
class cell.shape.Triangle.validate--><rect fill="#FEFECE" filter="url(#fioccfsy3q9te)" height="62.9819" id="cell.shape.Triangle.validate" style="stroke: #A80036; stroke-width: 1.5;" width="76" x="2035" y="987.5"/><ellipse cx="2050" cy="1003.5" fill="#ADD1B2" rx="11" ry="11" style="stroke: #A80036; stroke-width: 1.0;"/><path d="M2052.9688,1009.1406 Q2052.3906,1009.4375 2051.75,1009.5781 Q2051.1094,1009.7344 2050.4063,1009.7344 Q2047.9063,1009.7344 2046.5781,1008.0938 Q2045.2656,1006.4375 2045.2656,1003.3125 Q2045.2656,1000.1875 2046.5781,998.5313 Q2047.9063,996.875 2050.4063,996.875 Q2051.1094,996.875 2051.75,997.0313 Q2052.4063,997.1875 2052.9688,997.4844 L2052.9688,1000.2031 Q2052.3438,999.625 2051.75,999.3594 Q2051.1563,999.0781 2050.5313,999.0781 Q2049.1875,999.0781 2048.5,1000.1563 Q2047.8125,1001.2188 2047.8125,1003.3125 Q2047.8125,1005.4063 2048.5,1006.4844 Q2049.1875,1007.5469 2050.5313,1007.5469 Q2051.1563,1007.5469 2051.75,1007.2813 Q2052.3438,1007 2052.9688,1006.4219 L2052.9688,1009.1406 Z "/><text fill="#000000" font-family="sans-serif" font-size="12" lengthAdjust="spacingAndGlyphs" textLength="44" x="2064" y="1008.156">validate</text><line style="stroke: #A80036; stroke-width: 1.5;" x1="2036" x2="2110" y1="1019.5" y2="1019.5"/><text fill="#000000" font-family="sans-serif" font-size="11" lengthAdjust="spacingAndGlyphs" textLength="30" x="2041" y="1035.2589">geom</text><line style="stroke: #A80036; stroke-width: 1.5;" x1="2036" x2="2110" y1="1042.4819" y2="1042.4819"/><!--MD5=[ead54562f65634d5c7611d4e7e55a3fe]
class cell.shape.Triangle.guidelines--><rect fill="#FEFECE" filter="url(#fioccfsy3q9te)" height="77.9638" id="cell.shape.Triangle.guidelines" style="stroke: #A80036; stroke-width: 1.5;" width="89" x="1784.5" y="1118"/><ellipse cx="1799.5" cy="1134" fill="#ADD1B2" rx="11" ry="11" style="stroke: #A80036; stroke-width: 1.0;"/><path d="M1802.4688,1139.6406 Q1801.8906,1139.9375 1801.25,1140.0781 Q1800.6094,1140.2344 1799.9063,1140.2344 Q1797.4063,1140.2344 1796.0781,1138.5938 Q1794.7656,1136.9375 1794.7656,1133.8125 Q1794.7656,1130.6875 1796.0781,1129.0313 Q1797.4063,1127.375 1799.9063,1127.375 Q1800.6094,1127.375 1801.25,1127.5313 Q1801.9063,1127.6875 1802.4688,1127.9844 L1802.4688,1130.7031 Q1801.8438,1130.125 1801.25,1129.8594 Q1800.6563,1129.5781 1800.0313,1129.5781 Q1798.6875,1129.5781 1798,1130.6563 Q1797.3125,1131.7188 1797.3125,1133.8125 Q1797.3125,1135.9063 1798,1136.9844 Q1798.6875,1138.0469 1800.0313,1138.0469 Q1800.6563,1138.0469 1801.25,1137.7813 Q1801.8438,1137.5 1802.4688,1136.9219 L1802.4688,1139.6406 Z "/><text fill="#000000" font-family="sans-serif" font-size="12" lengthAdjust="spacingAndGlyphs" textLength="57" x="1813.5" y="1138.656">guidelines</text><line style="stroke: #A80036; stroke-width: 1.5;" x1="1785.5" x2="1872.5" y1="1150" y2="1150"/><text fill="#000000" font-family="sans-serif" font-size="11" lengthAdjust="spacingAndGlyphs" textLength="33" x="1790.5" y="1165.7589">points</text><text fill="#000000" font-family="sans-serif" font-size="11" lengthAdjust="spacingAndGlyphs" textLength="30" x="1790.5" y="1180.7408">geom</text><line style="stroke: #A80036; stroke-width: 1.5;" x1="1785.5" x2="1872.5" y1="1187.9638" y2="1187.9638"/><!--MD5=[13ebeca09c43de95c4e06e30e0c0d224]
class cell.Layer.background--><rect fill="#FEFECE" filter="url(#fioccfsy3q9te)" height="48" id="cell.Layer.background" style="stroke: #A80036; stroke-width: 1.5;" width="98" x="1380" y="283"/><ellipse cx="1395" cy="299" fill="#ADD1B2" rx="11" ry="11" style="stroke: #A80036; stroke-width: 1.0;"/><path d="M1397.9688,304.6406 Q1397.3906,304.9375 1396.75,305.0781 Q1396.1094,305.2344 1395.4063,305.2344 Q1392.9063,305.2344 1391.5781,303.5938 Q1390.2656,301.9375 1390.2656,298.8125 Q1390.2656,295.6875 1391.5781,294.0313 Q1392.9063,292.375 1395.4063,292.375 Q1396.1094,292.375 1396.75,292.5313 Q1397.4063,292.6875 1397.9688,292.9844 L1397.9688,295.7031 Q1397.3438,295.125 1396.75,294.8594 Q1396.1563,294.5781 1395.5313,294.5781 Q1394.1875,294.5781 1393.5,295.6563 Q1392.8125,296.7188 1392.8125,298.8125 Q1392.8125,300.9063 1393.5,301.9844 Q1394.1875,303.0469 1395.5313,303.0469 Q1396.1563,303.0469 1396.75,302.7813 Q1397.3438,302.5 1397.9688,301.9219 L1397.9688,304.6406 Z "/><text fill="#000000" font-family="sans-serif" font-size="12" lengthAdjust="spacingAndGlyphs" textLength="66" x="1409" y="303.656">background</text><line style="stroke: #A80036; stroke-width: 1.5;" x1="1381" x2="1477" y1="315" y2="315"/><line style="stroke: #A80036; stroke-width: 1.5;" x1="1381" x2="1477" y1="323" y2="323"/><!--MD5=[3852353f760167d4f6695f7198999dff]
class cell.Layer.foreground--><rect fill="#FEFECE" filter="url(#fioccfsy3q9te)" height="48" id="cell.Layer.foreground" style="stroke: #A80036; stroke-width: 1.5;" width="95" x="1249.5" y="283"/><ellipse cx="1264.5" cy="299" fill="#ADD1B2" rx="11" ry="11" style="stroke: #A80036; stroke-width: 1.0;"/><path d="M1267.4688,304.6406 Q1266.8906,304.9375 1266.25,305.0781 Q1265.6094,305.2344 1264.9063,305.2344 Q1262.4063,305.2344 1261.0781,303.5938 Q1259.7656,301.9375 1259.7656,298.8125 Q1259.7656,295.6875 1261.0781,294.0313 Q1262.4063,292.375 1264.9063,292.375 Q1265.6094,292.375 1266.25,292.5313 Q1266.9063,292.6875 1267.4688,292.9844 L1267.4688,295.7031 Q1266.8438,295.125 1266.25,294.8594 Q1265.6563,294.5781 1265.0313,294.5781 Q1263.6875,294.5781 1263,295.6563 Q1262.3125,296.7188 1262.3125,298.8125 Q1262.3125,300.9063 1263,301.9844 Q1263.6875,303.0469 1265.0313,303.0469 Q1265.6563,303.0469 1266.25,302.7813 Q1266.8438,302.5 1267.4688,301.9219 L1267.4688,304.6406 Z "/><text fill="#000000" font-family="sans-serif" font-size="12" lengthAdjust="spacingAndGlyphs" textLength="63" x="1278.5" y="303.656">foreground</text><line style="stroke: #A80036; stroke-width: 1.5;" x1="1250.5" x2="1343.5" y1="315" y2="315"/><line style="stroke: #A80036; stroke-width: 1.5;" x1="1250.5" x2="1343.5" y1="323" y2="323"/><!--MD5=[127a1287bf0ffcd7bf67b1cb71ebed06]
reverse link cell.Line to cell.shape.Triangle--><path d="M2039.4318,244.5129 C2039.8015,244.8683 2040.1667,245.2235 2040.5276,245.5783 C2043.4146,248.4173 2046.0218,251.239 2048.3763,254.0529 C2053.0852,259.6808 2056.7832,265.2779 2059.687,270.9208 C2065.4947,282.2066 2068.1256,293.6756 2069.3138,305.9412 C2071.69,330.4725 2068.295,358.19 2073,394 C2094.89,560.57 2190.22,651.65 2073,772 C2061.21,784.1 1781.26,768.38 1769,780 C1753.075,795.095 1750.8875,819.555 1752.7725,840.505 C1752.8314,841.1597 1752.8943,841.8109 1752.9609,842.4584 " fill="none" id="cell.Line&lt;-cell.shape.Triangle" style="stroke: #A80036; stroke-width: 1.0;"/><polygon fill="#FFFFFF" points="2039.4318,244.5129,2048.2766,262.7275,2057.9797,252.6354,2039.4318,244.5129" style="stroke: #A80036; stroke-width: 1.0;"/><!--MD5=[38aa5a4a0399d9c7a231f8fc949eca05]
reverse link cell.Line to cell.shape.Diamond--><path d="M1622.4053,162.5167 C1621.3828,162.5217 1620.2724,162.5279 1619.0763,162.5357 C1616.684,162.5514 1613.9482,162.5732 1610.884,162.6037 C1598.6273,162.7255 1581.1155,162.9847 1559.3078,163.5319 C1515.6925,164.6262 1454.8938,166.8725 1384.585,171.475 C1243.9675,180.68 1065.31,199.31 910,237 C724,282.14 622.68,240.02 509,394 C505.4988,398.7425 502.738,403.9455 500.5885,409.4238 C500.0511,410.7934 499.5519,412.1802 499.0889,413.5813 C498.8574,414.2818 498.635,414.986 498.4213,415.6933 C498.3145,416.047 498.2099,416.4015 498.1074,416.7567 C498.0562,416.9343 498.0055,417.1121 497.9553,417.2901 " fill="none" id="cell.Line&lt;-cell.shape.Diamond" style="stroke: #A80036; stroke-width: 1.0;"/><polygon fill="#FFFFFF" points="1622.4053,162.5167,1603.3714,155.6094,1603.4397,169.6093,1622.4053,162.5167" style="stroke: #A80036; stroke-width: 1.0;"/><!--MD5=[9ad3536fad148e5907a13419844a7aab]
reverse link cell.Line to cell.shape.Gnomon--><path d="M1622.869,193.294 C1622.8119,193.5515 1622.7549,193.8104 1622.6978,194.0705 C1622.5837,194.5906 1622.4694,195.1159 1622.3551,195.6461 C1621.898,197.767 1621.4402,199.9673 1620.9869,202.2404 C1620.0801,206.7865 1619.1909,211.6235 1618.3586,216.6974 C1616.6941,226.8451 1615.2575,237.9403 1614.365,249.5512 C1610.795,295.995 1615.93,350.69 1650,386 C1670.52,407.26 1692.8,375.71 1716,394 C1725.8525,401.7675 1733.2781,412.2225 1738.8747,423.5717 C1741.673,429.2463 1744.014,435.1445 1745.9725,441.0421 C1746.4621,442.5164 1746.9278,443.9908 1747.3708,445.4616 C1747.4815,445.8293 1747.5908,446.1968 1747.6987,446.564 C1747.7527,446.7476 1747.8063,446.9311 1747.8596,447.1146 " fill="none" id="cell.Line&lt;-cell.shape.Gnomon" style="stroke: #A80036; stroke-width: 1.0;"/><polygon fill="#FFFFFF" points="1622.869,193.294,1611.9282,210.3322,1625.5973,213.3578,1622.869,193.294" style="stroke: #A80036; stroke-width: 1.0;"/><!--MD5=[774f80854b595b242e4c4189ed8a410e]
reverse link cell.Line to cell.shape.Parabola--><path d="M1622.8853,163.2105 C1622.7038,163.2272 1622.5194,163.2442 1622.3321,163.2615 C1621.9576,163.296 1621.5715,163.3319 1621.1741,163.3689 C1620.3793,163.4429 1619.539,163.5219 1618.6543,163.6058 C1611.5768,164.2773 1601.6561,165.267 1589.4197,166.6116 C1564.9469,169.3006 1531.2112,173.4088 1492.4325,179.2275 C1414.875,190.865 1317.145,209.345 1233,237 C1080.6,287.09 998.25,261.38 908,394 C904.6838,398.8738 902.0625,404.1758 900.0154,409.7269 C899.5037,411.1147 899.0278,412.518 898.5859,413.9341 C898.365,414.6422 898.1525,415.3534 897.9483,416.0675 C897.8462,416.4246 897.7462,416.7823 897.6482,417.1408 " fill="none" id="cell.Line&lt;-cell.shape.Parabola" style="stroke: #A80036; stroke-width: 1.0;"/><polygon fill="#FFFFFF" points="1622.8853,163.2105,1603.3243,157.9791,1604.6058,171.9203,1622.8853,163.2105" style="stroke: #A80036; stroke-width: 1.0;"/><!--MD5=[dbc82ec887a78ed8163b69a270c0a7be]
reverse link cell.Line to cell.shape.Rectangle--><path d="M1622.7183,175.8279 C1622.6122,176.0073 1622.5054,176.1883 1622.3978,176.3709 C1621.9674,177.1012 1621.525,177.857 1621.0716,178.6376 C1619.2578,181.7596 1617.267,185.2766 1615.1619,189.1363 C1606.7412,204.575 1596.49,225.4975 1588.41,248.565 C1572.25,294.7 1564.775,349.415 1598,386 C1610.46,399.72 1667.39,381.42 1681,394 C1685.385,398.0513 1688.9786,402.7331 1691.9091,407.8291 C1692.2755,408.4661 1692.6314,409.1096 1692.9773,409.7591 " fill="none" id="cell.Line&lt;-cell.shape.Rectangle" style="stroke: #A80036; stroke-width: 1.0;"/><polygon fill="#FFFFFF" points="1622.7183,175.8279,1607.0223,188.6199,1619.0732,195.7456,1622.7183,175.8279" style="stroke: #A80036; stroke-width: 1.0;"/><!--MD5=[27c5267d951561211c235d28b095e256]
link cell.Layer.background to cell.shape.Rectangle.draw--><path d="M1429,331.34 C1429,362.1 1429,416.87 1429,455.97 " fill="none" id="cell.Layer.background-cell.shape.Rectangle.draw" style="stroke: #A80036; stroke-width: 1.0;"/><!--MD5=[bb9caa057df03994f7b44dec00ca3996]
link cell.Layer.foreground to cell.shape.Triangle--><path d="M1293.63,331.16 C1284.16,405.75 1265.19,642.43 1383,772 C1412.155,804.065 1505.4125,830.895 1591.995,849.7925 C1635.2863,859.2413 1676.9088,866.7069 1708.0153,871.8522 C1723.5686,874.4248 1736.4929,876.4174 1745.6823,877.7878 C1747.9797,878.1304 1750.0436,878.4341 1751.8568,878.6982 C1752.0834,878.7312 1752.3062,878.7636 1752.525,878.7954 " fill="none" id="cell.Layer.foreground-cell.shape.Triangle" style="stroke: #A80036; stroke-width: 1.0;"/><!--MD5=[78ff036a8aa89d2159348abfdd4916f7]
link cell.Layer.foreground to cell.shape.Diamond--><path d="M1249.23,315.54 C1147.08,331.35 899.73,368.01 691,386 C680.92,386.87 516.26,386.95 509,394 C492.075,410.42 489.8725,436.7175 492,459.1925 C492.2659,462.0019 492.5995,464.7515 492.9805,467.4147 " fill="none" id="cell.Layer.foreground-cell.shape.Diamond" style="stroke: #A80036; stroke-width: 1.0;"/><!--MD5=[05597ce9ccd2ceeeb81baeef67e1e1b4]
link cell.Layer.foreground to cell.shape.Gnomon--><path d="M1309.23,331.15 C1320.46,349.72 1338.99,374.53 1363,386 C1380.7,394.45 1700.02,382.62 1716,394 C1726.22,401.275 1733.8325,411.48 1739.5019,422.7322 C1742.3366,428.3583 1744.6855,434.2462 1746.6316,440.1605 C1746.8749,440.8998 1747.1119,441.6395 1747.3427,442.3792 C1747.4582,442.749 1747.5721,443.1188 1747.6844,443.4886 C1747.7406,443.6734 1747.7964,443.8583 1747.8519,444.0431 " fill="none" id="cell.Layer.foreground-cell.shape.Gnomon" style="stroke: #A80036; stroke-width: 1.0;"/><!--MD5=[af92aabfdae86fb1a292cd7973903f17]
link cell.Layer.foreground to cell.shape.Parabola--><path d="M1249.4,329.17 C1204.99,347.82 1136.4,373.85 1074,386 C1055.87,389.53 921.23,381.11 908,394 C891.11,410.455 888.9075,436.755 891.0263,459.2225 C891.1587,460.6267 891.308,462.016 891.4716,463.3869 C891.5534,464.0724 891.6389,464.7533 891.7275,465.4292 C891.7719,465.7671 891.817,466.1038 891.863,466.4392 C891.886,466.6069 891.9091,466.7743 891.9325,466.9413 " fill="none" id="cell.Layer.foreground-cell.shape.Parabola" style="stroke: #A80036; stroke-width: 1.0;"/><!--MD5=[058aa3bf8bd555a475e5bfd2ac01d931]
link cell.Layer.foreground to cell.shape.Rectangle--><path d="M1309.23,331.13 C1320.47,349.7 1339,374.5 1363,386 C1378.94,393.64 1667.6,382.47 1681,394 C1685.525,397.8938 1689.2241,402.4569 1692.2319,407.4657 C1692.6079,408.0918 1692.9731,408.7248 1693.3277,409.3644 C1693.4164,409.5243 1693.5044,409.6846 1693.5918,409.8454 " fill="none" id="cell.Layer.foreground-cell.shape.Rectangle" style="stroke: #A80036; stroke-width: 1.0;"/><!--MD5=[e4baa9a12e8dc5254d0e2be0c8008ddd]
link cell.Layer.foreground to cell.shape.Circle--><path d="M1249.3,310.15 C1084.46,317.97 545.61,346.95 485,394 C475.09,401.6925 467.635,412.1094 462.0269,423.4438 C459.2228,429.1109 456.8805,435.0075 454.9238,440.9076 C454.4347,442.3826 453.9696,443.8578 453.5275,445.3298 C453.4169,445.6977 453.3078,446.0655 453.2002,446.433 C453.1463,446.6168 453.0928,446.8005 453.0397,446.9841 " fill="none" id="cell.Layer.foreground-cell.shape.Circle" style="stroke: #A80036; stroke-width: 1.0;"/><!--MD5=[5bf48e6bc329e39702204b988711c2b2]
link cell.Line.guidelines to cell.Line.collectPoints--><!--MD5=[4fabbe10ac7a127ea91ad40887d2189c]
link cell.Line.collectPoints to cell.Line.orderGrid--><!--MD5=[bfb236f48d29d6672cd45f443280aaf3]
link cell.Line.guidelines to cell.Line.makeStripes--><!--MD5=[8b0358b04c174d61da823932d91f95e7]
link cell.Line.makeStripes to cell.Line.sliceByThird--><!--MD5=[d694d98ff3f1c35e8decd64486edee8b]
link cell.shape.Circle.validate to cell.shape.Circle.draw--><!--MD5=[7c92f9ae47c1d65205b1d916a2707553]
link cell.shape.Circle.draw to cell.shape.Circle.paint--><!--MD5=[880ba7d59fddd87561e7eaae4eb19b75]
link cell.shape.Circle.validate to cell.shape.Circle.getRadius--><!--MD5=[06e9ba3731bd673a4fd7ee902671a989]
link cell.shape.Circle.getRadius to cell.shape.Circle.adjustSize--><!--MD5=[d2e621870ba11d00c4c77a023a763786]
link cell.shape.Circle.adjustSize to cell.shape.Circle.drawConcentric--><!--MD5=[8a9e7922295b6672a838c45a6e63bd7c]
link cell.shape.Diamond.validate to cell.shape.Diamond.draw--><!--MD5=[76fefe45b1a408efc224af2878975645]
link cell.shape.Diamond.draw to cell.shape.Diamond.paint--><!--MD5=[950f2668396e0dc568fa7b3107e4ae3d]
link cell.shape.Diamond.validate to cell.shape.Diamond.coords--><!--MD5=[32daf0ace6912eae7267ed412358d51f]
link cell.shape.Diamond.coords to cell.shape.Diamond.guidelines--><!--MD5=[68d2b61713cc4ae1c17f4477e9552eef]
link cell.shape.Diamond.guidelines to cell.shape.Diamond.__guide--><!--MD5=[d18b7f9c7fa3c4e238a6cfa23c966180]
link cell.shape.Gnomon.validate to cell.shape.Gnomon.draw--><!--MD5=[93758c51ae63483bddcce55b5e412407]
link cell.shape.Gnomon.draw to cell.shape.Gnomon.paint--><!--MD5=[054bccd097bc605abb81b5c98017f014]
link cell.shape.Gnomon.validate to cell.shape.Gnomon.coords--><!--MD5=[77a2e02e8b045ef51457c2db333f9011]
link cell.shape.Gnomon.coords to cell.shape.Gnomon.__guide--><!--MD5=[9d451475530e4c6efb6796d271f9b96b]
link cell.shape.Parabola.validate to cell.shape.Parabola.paint--><!--MD5=[a1dd5378c81a2e250ed9ab551825c2f6]
link cell.shape.Parabola.paint to cell.shape.Parabola.coords--><!--MD5=[3a1bf0adb682d635d44eca2cf47f3d9f]
link cell.shape.Parabola.validate to cell.shape.Parabola.draw--><!--MD5=[089701508da02e27553058ba165e3d76]
link cell.shape.Parabola.draw to cell.shape.Parabola.reString--><!--MD5=[b26f6e36426b9d029711c8402824ae8f]
link cell.shape.Parabola.reString to cell.shape.Parabola.joinStrings--><!--MD5=[d2ef548adccaa4566e23d091694d6a9d]
link cell.shape.Rectangle.validate to cell.shape.Rectangle.paint--><!--MD5=[2cf2b0edba1aab71c7a939a4b4cc549f]
link cell.shape.Rectangle.validate to cell.shape.Rectangle.coords--><!--MD5=[dfca75ca37680d59598a5a301d926dff]
link cell.shape.Rectangle.coords to cell.shape.Rectangle.__guide--><!--MD5=[dafa042f9aba8b3a1ec6b031eb908c35]
link cell.shape.Triangle.paint to cell.shape.Triangle.coords--><!--MD5=[a4387019ce4af43285b6282c5e3c2220]
link cell.shape.Triangle.coords to cell.shape.Triangle.draw--><!--MD5=[b1cad8ee745d7772026396b2dbb37327]
link cell.shape.Triangle.paint to cell.shape.Triangle.orderGrid--><!--MD5=[7d4ce87cafd6708e882b4d13a713929b]
link cell.shape.Triangle.orderGrid to cell.shape.Triangle._orderGrid--><!--MD5=[98a0a26e92dca51babd69edf94e9e5a4]
link cell.shape.Triangle._orderGrid to cell.shape.Triangle.validate--><!--MD5=[ad0feb8f863ff8928ca53921e8664d34]
link cell.shape.Triangle.orderGrid to cell.shape.Triangle.guidelines--><!--MD5=[c1814b0d5123a661b7efc6e6db7c9515]
link cell.Line.orderGrid to cell.shape.Circle.validate--><!--MD5=[77c8492e563cb9cc08f7f4e0d504591f]
link cell.shape.Circle.paint to cell.shape.Diamond.validate--><!--MD5=[58128dbcc086ae8fdc39053461b897ea]
link cell.Line.makeStripes to cell.shape.Gnomon.validate--><!--MD5=[cf51a07d76510094c55aeb33ea72b731]
link cell.shape.Gnomon.paint to cell.shape.Parabola.validate--><!--MD5=[9c2e84a3776e5973ff729c81d05d7410]
link cell.shape.Parabola.coords to cell.shape.Rectangle.validate--><!--MD5=[1fb486ae848a13850d7ef53c0cba18de]
link cell.shape.Gnomon.coords to cell.shape.Triangle.paint--><!--MD5=[d78b03fe2c4683e0fefa225a94a316f1]
@startuml

class cell.Line.guidelines {
   facing
   clen
   bounds
}
class cell.Line.collectPoints {
   guidelines
   facing: NONE
}
class cell.Line.orderGrid {
   guideline
   facing: NONE
}
class cell.Line.makeStripes {
   points
}
class cell.Line.sliceByThird {
   facing
   points
}
class cell.shape.Circle.validate {
   geom
}
class cell.shape.Circle.draw {
   points
   geom
}
class cell.shape.Circle.paint {
   points
   geom
}
class cell.shape.Circle.getRadius {
   size
   clen
   swidth
}
class cell.shape.Circle.adjustSize {
   size
   points
}
class cell.shape.Circle.drawConcentric {
   points
   geom
}
class cell.shape.Diamond.validate {
   geom
}
class cell.shape.Diamond.draw {
   points
   geom
}
class cell.shape.Diamond.paint {
   points
   geom
}
class cell.shape.Diamond.coords {
   points
   facing
}
class cell.shape.Diamond.guidelines {
   points
   geom
}
class cell.shape.Diamond.__guide {
   facing
}
class cell.shape.Gnomon.validate {
   geom
}
class cell.shape.Gnomon.draw {
   clen
   dim
   geom
}
class cell.shape.Gnomon.paint {
   dim
   kwargs
}
class cell.shape.Gnomon.coords {
   dim
   facing
   size
}
class cell.shape.Gnomon.__guide {
   facing
}
class cell.shape.Parabola.validate {
   geom
}
class cell.shape.Parabola.paint {
   dim
   geom
}
class cell.shape.Parabola.coords {
   dim
   facing
}
class cell.shape.Parabola.draw {
   clen
   dim
   geom
   padding: FALSE
}
class cell.shape.Parabola.reString {
   linstr
   point
   reverse: FALSE
   append: FALSE
   case: 0
}
class cell.shape.Parabola.joinStrings {
   gnomon
   edge
}
class cell.shape.Rectangle.validate {
   geom
}
class cell.shape.Rectangle.draw {
   clen
   dim
   geom
}
class cell.shape.Rectangle.paint {
   dim
   kwargs
}
class cell.shape.Rectangle.coords {
   dim
   size
   facing
}
class cell.shape.Rectangle.__guide {
   direction
}
class cell.shape.Triangle.paint {
   points
   geom
}
class cell.shape.Triangle.coords {
   points
   facing
}
class cell.shape.Triangle.draw {
   points
   geom
}
class cell.shape.Triangle.orderGrid {
   guideline
   facing: NONE
}
class cell.shape.Triangle._orderGrid {
   guideln
}
class cell.shape.Triangle.validate {
   geom
}
class cell.shape.Triangle.guidelines {
   points
   geom
}
cell.Line <|- - cell.shape.Triangle
cell.Line <|- - cell.shape.Diamond
cell.Line <|- - cell.shape.Gnomon
cell.Line <|- - cell.shape.Parabola
cell.Line <|- - cell.shape.Rectangle

cell.Layer.background - - cell.shape.Rectangle.draw
cell.Layer.foreground - - cell.shape.Triangle
cell.Layer.foreground - - cell.shape.Diamond
cell.Layer.foreground - - cell.shape.Gnomon
cell.Layer.foreground - - cell.shape.Parabola
cell.Layer.foreground - - cell.shape.Rectangle
cell.Layer.foreground - - cell.shape.Circle


@enduml

PlantUML version 1.2020.02(Sun Mar 01 11:22:07 CET 2020)
(GPL source distribution)
Java Runtime: OpenJDK Runtime Environment
JVM: OpenJDK 64-Bit Server VM
Java Version: 21.0.10+7-Ubuntu-124.04
Operating System: Linux
Default Encoding: UTF-8
Language: en
Country: US
--></g></svg>