<?xml version="1.0" encoding="UTF-8" standalone="no"?>
<!-- Created with Inkscape (http://www.inkscape.org/) -->

<svg
   width="73.943222mm"
   height="52.892181mm"
   viewBox="0 0 73.943222 52.892181"
   version="1.1"
   id="svg87629"
   recurrence="v1"
   sodipodi:docname="soleares.svg"
   inkscape:version="1.1.1 (c3084ef, 2021-09-22)"
   xmlns:inkscape="http://www.inkscape.org/namespaces/inkscape"
   xmlns:sodipodi="http://sodipodi.sourceforge.net/DTD/sodipodi-0.dtd"
   xmlns="http://www.w3.org/2000/svg"
   xmlns:svg="http://www.w3.org/2000/svg">
  <sodipodi:namedview
     id="namedview87631"
     pagecolor="#ffffff"
     bordercolor="#666666"
     borderopacity="1.0"
     inkscape:pageshadow="2"
     inkscape:pageopacity="0.0"
     inkscape:pagecheckerboard="0"
     inkscape:document-units="mm"
     showgrid="false"
     inkscape:zoom="0.44008137"
     inkscape:cx="286.31069"
     inkscape:cy="360.16067"
     inkscape:window-width="1792"
     inkscape:window-height="995"
     inkscape:window-x="0"
     inkscape:window-y="23"
     inkscape:window-maximized="1"
     inkscape:current-layer="layer1"
     fit-margin-top="0"
     fit-margin-left="0"
     fit-margin-right="0"
     fit-margin-bottom="0" />
  <defs
     id="defs87626" />
  <g
     inkscape:label="Layer 1"
     inkscape:groupmode="layer"
     id="layer1"
     transform="translate(-20.867709,-15.867708)">
    <rect
       style="fill:#ffffff;stroke:#b3b3b3;stroke-width:0.264583;stroke-dasharray:0.529167, 0.529167"
       id="rect2857"
       width="73.678642"
       height="52.627598"
       x="21"
       y="15.999999" />
    <g
       id="a0"
       style="fill:#cccccc"
       transform="matrix(0.43856333,0,0,0.43856333,11.79017,8.9829865)">
      <rect
         x="21"
         y="16.5"
         width="24"
         height="24"
         id="a0-0-0" />
      <rect
         x="69"
         y="16.5"
         width="24"
         height="24"
         id="a0-2-0" />
      <rect
         x="93"
         y="16.5"
         width="24"
         height="24"
         id="a0-3-0" />
      <rect
         x="141"
         y="16.5"
         width="24"
         height="24"
         id="a0-5-0" />
      <rect
         x="165"
         y="16.5"
         width="24"
         height="24"
         id="a0-6-0" />
      <rect
         x="21"
         y="64.5"
         width="24"
         height="24"
         id="a0-0-2" />
      <rect
         x="69"
         y="64.5"
         width="24"
         height="24"
         id="a0-2-2" />
      <rect
         x="93"
         y="64.5"
         width="24"
         height="24"
         id="a0-3-2" />
      <rect
         x="141"
         y="64.5"
         width="24"
         height="24"
         id="a0-5-2" />
      <rect
         x="165"
         y="64.5"
         width="24"
         height="24"
         id="a0-6-2" />
      <rect
         x="21"
         y="112.5"
         width="24"
         height="24"
         id="a0-0-4" />
      <rect
         x="69"
         y="112.5"
         width="24"
         height="24"
         id="a0-2-4" />
      <rect
         x="93"
         y="112.5"
         width="24"
         height="24"
         id="a0-3-4" />
      <rect
         x="141"
         y="112.5"
         width="24"
         height="24"
         id="a0-5-4" />
      <rect
         x="165"
         y="112.5"
         width="24"
         height="24"
         id="a0-6-4" />
      <rect
         x="21"
         y="160.5"
         width="24"
         height="24"
         id="a0-0-6" />
      <rect
         x="69"
         y="160.5"
         width="24"
         height="24"
         id="a0-2-6" />
      <rect
         x="93"
         y="160.5"
         width="24"
         height="24"
         id="a0-3-6" />
      <rect
         x="141"
         y="160.5"
         width="24"
         height="24"
         id="a0-5-6" />
      <rect
         x="165"
         y="160.5"
         width="24"
         height="24"
         id="a0-6-6" />
      <rect
         x="21"
         y="208.5"
         width="24"
         height="24"
         id="a0-0-8" />
      <rect
         x="69"
         y="208.5"
         width="24"
         height="24"
         id="a0-2-8" />
      <rect
         x="93"
         y="208.5"
         width="24"
         height="24"
         id="a0-3-8" />
      <rect
         x="141"
         y="208.5"
         width="24"
         height="24"
         id="a0-5-8" />
      <rect
         x="165"
         y="208.5"
         width="24"
         height="24"
         id="a0-6-8" />
      <rect
         x="21"
         y="256.5"
         width="24"
         height="24"
         id="a0-0-10" />
      <rect
         x="69"
         y="256.5"
         width="24"
         height="24"
         id="a0-2-10" />
      <rect
         x="93"
         y="256.5"
         width="24"
         height="24"
         id="a0-3-10" />
      <rect
         x="141"
         y="256.5"
         width="24"
         height="24"
         id="a0-5-10" />
      <rect
         x="165"
         y="256.5"
         width="24"
         height="24"
         id="a0-6-10" />
    </g>
    <g
       id="a1"
       style="fill:#000000;fill-opacity:1;stroke:#000000;stroke-width:0;stroke-dasharray:none;stroke-opacity:1"
       transform="matrix(0.43856333,0,0,0.43856333,11.79017,8.9829865)">
      <rect
         x="21"
         y="16"
         width="24"
         height="24"
         inkscape:label="a"
         id="a1-0-0" />
      <rect
         x="69"
         y="16"
         width="24"
         height="24"
         inkscape:label="a"
         id="a1-2-0" />
      <rect
         x="93"
         y="16"
         width="24"
         height="24"
         inkscape:label="a"
         id="a1-3-0" />
      <rect
         x="141"
         y="16"
         width="24"
         height="24"
         inkscape:label="a"
         id="a1-5-0" />
      <rect
         x="165"
         y="16"
         width="24"
         height="24"
         inkscape:label="a"
         id="a1-6-0" />
      <rect
         x="21"
         y="64"
         width="24"
         height="24"
         inkscape:label="a"
         id="a1-0-2" />
      <rect
         x="69"
         y="64"
         width="24"
         height="24"
         inkscape:label="a"
         id="a1-2-2" />
      <rect
         x="93"
         y="64"
         width="24"
         height="24"
         inkscape:label="a"
         id="a1-3-2" />
      <rect
         x="141"
         y="64"
         width="24"
         height="24"
         inkscape:label="a"
         id="a1-5-2" />
      <rect
         x="165"
         y="64"
         width="24"
         height="24"
         inkscape:label="a"
         id="a1-6-2" />
      <rect
         x="21"
         y="112"
         width="24"
         height="24"
         inkscape:label="a"
         id="a1-0-4" />
      <rect
         x="69"
         y="112"
         width="24"
         height="24"
         inkscape:label="a"
         id="a1-2-4" />
      <rect
         x="93"
         y="112"
         width="24"
         height="24"
         inkscape:label="a"
         id="a1-3-4" />
      <rect
         x="141"
         y="112"
         width="24"
         height="24"
         inkscape:label="a"
         id="a1-5-4" />
      <rect
         x="165"
         y="112"
         width="24"
         height="24"
         inkscape:label="a"
         id="a1-6-4" />
      <rect
         x="21"
         y="160"
         width="24"
         height="24"
         inkscape:label="a"
         id="a1-0-6" />
      <rect
         x="69"
         y="160"
         width="24"
         height="24"
         inkscape:label="a"
         id="a1-2-6" />
      <rect
         x="93"
         y="160"
         width="24"
         height="24"
         inkscape:label="a"
         id="a1-3-6" />
      <rect
         x="141"
         y="160"
         width="24"
         height="24"
         inkscape:label="a"
         id="a1-5-6" />
      <rect
         x="165"
         y="160"
         width="24"
         height="24"
         inkscape:label="a"
         id="a1-6-6" />
      <rect
         x="21"
         y="208"
         width="24"
         height="24"
         inkscape:label="a"
         id="a1-0-8" />
      <rect
         x="69"
         y="208"
         width="24"
         height="24"
         inkscape:label="a"
         id="a1-2-8" />
      <rect
         x="93"
         y="208"
         width="24"
         height="24"
         inkscape:label="a"
         id="a1-3-8" />
      <rect
         x="141"
         y="208"
         width="24"
         height="24"
         inkscape:label="a"
         id="a1-5-8" />
      <rect
         x="165"
         y="208"
         width="24"
         height="24"
         inkscape:label="a"
         id="a1-6-8" />
      <rect
         x="21"
         y="256"
         width="24"
         height="24"
         inkscape:label="a"
         id="a1-0-10" />
      <rect
         x="69"
         y="256"
         width="24"
         height="24"
         inkscape:label="a"
         id="a1-2-10" />
      <rect
         x="93"
         y="256"
         width="24"
         height="24"
         inkscape:label="a"
         id="a1-3-10" />
      <rect
         x="141"
         y="256"
         width="24"
         height="24"
         inkscape:label="a"
         id="a1-5-10" />
      <rect
         x="165"
         y="256"
         width="24"
         height="24"
         inkscape:label="a"
         id="a1-6-10" />
    </g>
    <g
       id="b0"
       style="fill:#000000"
       transform="matrix(0.43856333,0,0,0.43856333,11.79017,8.9829865)">
      <rect
         x="45"
         y="16.5"
         width="24"
         height="24"
         id="b0-1-0" />
      <rect
         x="117"
         y="16.5"
         width="24"
         height="24"
         id="b0-4-0" />
      <rect
         x="45"
         y="64.5"
         width="24"
         height="24"
         id="b0-1-2" />
      <rect
         x="117"
         y="64.5"
         width="24"
         height="24"
         id="b0-4-2" />
      <rect
         x="45"
         y="112.5"
         width="24"
         height="24"
         id="b0-1-4" />
      <rect
         x="117"
         y="112.5"
         width="24"
         height="24"
         id="b0-4-4" />
      <rect
         x="45"
         y="160.5"
         width="24"
         height="24"
         id="b0-1-6" />
      <rect
         x="117"
         y="160.5"
         width="24"
         height="24"
         id="b0-4-6" />
      <rect
         x="45"
         y="208.5"
         width="24"
         height="24"
         id="b0-1-8" />
      <rect
         x="117"
         y="208.5"
         width="24"
         height="24"
         id="b0-4-8" />
      <rect
         x="45"
         y="256.5"
         width="24"
         height="24"
         id="b0-1-10" />
      <rect
         x="117"
         y="256.5"
         width="24"
         height="24"
         id="b0-4-10" />
    </g>
    <g
       id="c0"
       style="fill:#32cd32"
       transform="matrix(0.43856333,0,0,0.43856333,11.79017,8.9829865)">
      <rect
         x="29"
         y="32"
         width="8"
         height="40"
         inkscape:label="c"
         id="c0-0-1" />
      <rect
         x="77"
         y="32"
         width="8"
         height="40"
         inkscape:label="c"
         id="c0-2-1" />
      <rect
         x="101"
         y="32"
         width="8"
         height="40"
         inkscape:label="c"
         id="c0-3-1" />
      <rect
         x="149"
         y="32"
         width="8"
         height="40"
         inkscape:label="c"
         id="c0-5-1" />
      <rect
         x="173"
         y="32"
         width="8"
         height="40"
         inkscape:label="c"
         id="c0-6-1" />
      <rect
         x="29"
         y="80"
         width="8"
         height="40"
         inkscape:label="c"
         id="c0-0-3" />
      <rect
         x="77"
         y="80"
         width="8"
         height="40"
         inkscape:label="c"
         id="c0-2-3" />
      <rect
         x="101"
         y="80"
         width="8"
         height="40"
         inkscape:label="c"
         id="c0-3-3" />
      <rect
         x="149"
         y="80"
         width="8"
         height="40"
         inkscape:label="c"
         id="c0-5-3" />
      <rect
         x="173"
         y="80"
         width="8"
         height="40"
         inkscape:label="c"
         id="c0-6-3" />
      <rect
         x="29"
         y="128"
         width="8"
         height="40"
         inkscape:label="c"
         id="c0-0-5" />
      <rect
         x="77"
         y="128"
         width="8"
         height="40"
         inkscape:label="c"
         id="c0-2-5" />
      <rect
         x="101"
         y="128"
         width="8"
         height="40"
         inkscape:label="c"
         id="c0-3-5" />
      <rect
         x="149"
         y="128"
         width="8"
         height="40"
         inkscape:label="c"
         id="c0-5-5" />
      <rect
         x="173"
         y="128"
         width="8"
         height="40"
         inkscape:label="c"
         id="c0-6-5" />
      <rect
         x="29"
         y="176"
         width="8"
         height="40"
         inkscape:label="c"
         id="c0-0-7" />
      <rect
         x="77"
         y="176"
         width="8"
         height="40"
         inkscape:label="c"
         id="c0-2-7" />
      <rect
         x="101"
         y="176"
         width="8"
         height="40"
         inkscape:label="c"
         id="c0-3-7" />
      <rect
         x="149"
         y="176"
         width="8"
         height="40"
         inkscape:label="c"
         id="c0-5-7" />
      <rect
         x="173"
         y="176"
         width="8"
         height="40"
         inkscape:label="c"
         id="c0-6-7" />
      <rect
         x="29"
         y="224"
         width="8"
         height="40"
         inkscape:label="c"
         id="c0-0-9" />
      <rect
         x="77"
         y="224"
         width="8"
         height="40"
         inkscape:label="c"
         id="c0-2-9" />
      <rect
         x="101"
         y="224"
         width="8"
         height="40"
         inkscape:label="c"
         id="c0-3-9" />
      <rect
         x="149"
         y="224"
         width="8"
         height="40"
         inkscape:label="c"
         id="c0-5-9" />
      <rect
         x="173"
         y="224"
         width="8"
         height="40"
         inkscape:label="c"
         id="c0-6-9" />
    </g>
    <g
       id="d0"
       style="fill:#32cd32"
       transform="matrix(0.43856333,0,0,0.43856333,11.79017,8.9829865)">
      <rect
         x="45"
         y="40.5"
         width="24"
         height="24"
         id="d0-1-1" />
      <rect
         x="117"
         y="40.5"
         width="24"
         height="24"
         id="d0-4-1" />
      <rect
         x="45"
         y="88.5"
         width="24"
         height="24"
         id="d0-1-3" />
      <rect
         x="117"
         y="88.5"
         width="24"
         height="24"
         id="d0-4-3" />
      <rect
         x="45"
         y="136.5"
         width="24"
         height="24"
         id="d0-1-5" />
      <rect
         x="117"
         y="136.5"
         width="24"
         height="24"
         id="d0-4-5" />
      <rect
         x="45"
         y="184.5"
         width="24"
         height="24"
         id="d0-1-7" />
      <rect
         x="117"
         y="184.5"
         width="24"
         height="24"
         id="d0-4-7" />
      <rect
         x="45"
         y="232.5"
         width="24"
         height="24"
         id="d0-1-9" />
      <rect
         x="117"
         y="232.5"
         width="24"
         height="24"
         id="d0-4-9" />
    </g>
    <g
       id="b1"
       style="fill:#f08080;fill-opacity:1;stroke:#000000;stroke-width:0;stroke-dasharray:none;stroke-opacity:1"
       transform="matrix(0.43856333,0,0,0.43856333,11.79017,8.9829865)">
      <circle
         cx="57"
         cy="28"
         r="12"
         inkscape:label="b"
         id="b1-1-0"
         style="fill:#f08080" />
      <circle
         cx="129"
         cy="28"
         r="12"
         inkscape:label="b"
         id="b1-4-0"
         style="fill:#f08080" />
      <circle
         cx="57"
         cy="76"
         r="12"
         inkscape:label="b"
         id="b1-1-2"
         style="fill:#f08080" />
      <circle
         cx="129"
         cy="76"
         r="12"
         inkscape:label="b"
         id="b1-4-2"
         style="fill:#f08080" />
      <circle
         cx="57"
         cy="124"
         r="12"
         inkscape:label="b"
         id="b1-1-4"
         style="fill:#f08080" />
      <circle
         cx="129"
         cy="124"
         r="12"
         inkscape:label="b"
         id="b1-4-4"
         style="fill:#f08080" />
      <circle
         cx="57"
         cy="172"
         r="12"
         inkscape:label="b"
         id="b1-1-6"
         style="fill:#f08080" />
      <circle
         cx="129"
         cy="172"
         r="12"
         inkscape:label="b"
         id="b1-4-6"
         style="fill:#f08080" />
      <circle
         cx="57"
         cy="220"
         r="12"
         inkscape:label="b"
         id="b1-1-8"
         style="fill:#f08080" />
      <circle
         cx="129"
         cy="220"
         r="12"
         inkscape:label="b"
         id="b1-4-8"
         style="fill:#f08080" />
      <circle
         cx="57"
         cy="268"
         r="12"
         inkscape:label="b"
         id="b1-1-10"
         style="fill:#f08080" />
      <circle
         cx="129"
         cy="268"
         r="12"
         inkscape:label="b"
         id="b1-4-10"
         style="fill:#f08080" />
    </g>
    <g
       id="d1"
       style="fill:#000000;fill-opacity:1;stroke:#000000;stroke-width:0;stroke-dasharray:none;stroke-opacity:1"
       transform="matrix(0.43856333,0,0,0.43856333,11.79017,8.9829865)">
      <polygon
         points="45,40 57,64 69,40 "
         inkscape:label="d"
         id="d1-1-1" />
      <polygon
         points="117,40 129,64 141,40 "
         inkscape:label="d"
         id="d1-4-1" />
      <polygon
         points="45,88 57,112 69,88 "
         inkscape:label="d"
         id="d1-1-3" />
      <polygon
         points="117,88 129,112 141,88 "
         inkscape:label="d"
         id="d1-4-3" />
      <polygon
         points="45,136 57,160 69,136 "
         inkscape:label="d"
         id="d1-1-5" />
      <polygon
         points="117,136 129,160 141,136 "
         inkscape:label="d"
         id="d1-4-5" />
      <polygon
         points="45,184 57,208 69,184 "
         inkscape:label="d"
         id="d1-1-7" />
      <polygon
         points="117,184 129,208 141,184 "
         inkscape:label="d"
         id="d1-4-7" />
      <polygon
         points="45,232 57,256 69,232 "
         inkscape:label="d"
         id="d1-1-9" />
      <polygon
         points="117,232 129,256 141,232 "
         inkscape:label="d"
         id="d1-4-9" />
    </g>
    <g
       id="c1"
       style="opacity:1;fill:#00ff7f;fill-opacity:1;stroke:#00ff7f;stroke-width:0;stroke-dasharray:none;stroke-opacity:1"
       transform="matrix(0.43856333,0,0,0.43856333,11.79017,8.9829865)">
      <rect
         x="29"
         y="32"
         width="8"
         height="40"
         inkscape:label="c"
         id="c1-0-1"
         style="fill:#00ff7f;stroke:#00ff7f" />
      <rect
         x="77"
         y="32"
         width="8"
         height="40"
         inkscape:label="c"
         id="c1-2-1"
         style="fill:#00ff7f;stroke:#00ff7f" />
      <rect
         x="101"
         y="32"
         width="8"
         height="40"
         inkscape:label="c"
         id="c1-3-1"
         style="fill:#00ff7f;stroke:#00ff7f" />
      <rect
         x="149"
         y="32"
         width="8"
         height="40"
         inkscape:label="c"
         id="c1-5-1"
         style="fill:#00ff7f;stroke:#00ff7f" />
      <rect
         x="173"
         y="32"
         width="8"
         height="40"
         inkscape:label="c"
         id="c1-6-1"
         style="fill:#00ff7f;stroke:#00ff7f" />
      <rect
         x="29"
         y="80"
         width="8"
         height="40"
         inkscape:label="c"
         id="c1-0-3"
         style="fill:#00ff7f;stroke:#00ff7f" />
      <rect
         x="77"
         y="80"
         width="8"
         height="40"
         inkscape:label="c"
         id="c1-2-3"
         style="fill:#00ff7f;stroke:#00ff7f" />
      <rect
         x="101"
         y="80"
         width="8"
         height="40"
         inkscape:label="c"
         id="c1-3-3"
         style="fill:#00ff7f;stroke:#00ff7f" />
      <rect
         x="149"
         y="80"
         width="8"
         height="40"
         inkscape:label="c"
         id="c1-5-3"
         style="fill:#00ff7f;stroke:#00ff7f" />
      <rect
         x="173"
         y="80"
         width="8"
         height="40"
         inkscape:label="c"
         id="c1-6-3"
         style="fill:#00ff7f;stroke:#00ff7f" />
      <rect
         x="29"
         y="128"
         width="8"
         height="40"
         inkscape:label="c"
         id="c1-0-5"
         style="fill:#00ff7f;stroke:#00ff7f" />
      <rect
         x="77"
         y="128"
         width="8"
         height="40"
         inkscape:label="c"
         id="c1-2-5"
         style="fill:#00ff7f;stroke:#00ff7f" />
      <rect
         x="101"
         y="128"
         width="8"
         height="40"
         inkscape:label="c"
         id="c1-3-5"
         style="fill:#00ff7f;stroke:#00ff7f" />
      <rect
         x="149"
         y="128"
         width="8"
         height="40"
         inkscape:label="c"
         id="c1-5-5"
         style="fill:#00ff7f;stroke:#00ff7f" />
      <rect
         x="173"
         y="128"
         width="8"
         height="40"
         inkscape:label="c"
         id="c1-6-5"
         style="fill:#00ff7f;stroke:#00ff7f" />
      <rect
         x="29"
         y="176"
         width="8"
         height="40"
         inkscape:label="c"
         id="c1-0-7"
         style="fill:#00ff7f;stroke:#00ff7f" />
      <rect
         x="77"
         y="176"
         width="8"
         height="40"
         inkscape:label="c"
         id="c1-2-7"
         style="fill:#00ff7f;stroke:#00ff7f" />
      <rect
         x="101"
         y="176"
         width="8"
         height="40"
         inkscape:label="c"
         id="c1-3-7"
         style="fill:#00ff7f;stroke:#00ff7f" />
      <rect
         x="149"
         y="176"
         width="8"
         height="40"
         inkscape:label="c"
         id="c1-5-7"
         style="fill:#00ff7f;stroke:#00ff7f" />
      <rect
         x="173"
         y="176"
         width="8"
         height="40"
         inkscape:label="c"
         id="c1-6-7"
         style="fill:#00ff7f;stroke:#00ff7f" />
      <rect
         x="29"
         y="224"
         width="8"
         height="40"
         inkscape:label="c"
         id="c1-0-9"
         style="fill:#00ff7f;stroke:#00ff7f" />
      <rect
         x="77"
         y="224"
         width="8"
         height="40"
         inkscape:label="c"
         id="c1-2-9"
         style="fill:#00ff7f;stroke:#00ff7f" />
      <rect
         x="101"
         y="224"
         width="8"
         height="40"
         inkscape:label="c"
         id="c1-3-9"
         style="fill:#00ff7f;stroke:#00ff7f" />
      <rect
         x="149"
         y="224"
         width="8"
         height="40"
         inkscape:label="c"
         id="c1-5-9"
         style="fill:#00ff7f;stroke:#00ff7f" />
      <rect
         x="173"
         y="224"
         width="8"
         height="40"
         inkscape:label="c"
         id="c1-6-9"
         style="fill:#00ff7f;stroke:#00ff7f" />
    </g>
  </g>
</svg>
