<svg xmlns="http://www.w3.org/2000/svg" xmlns:svg="http://www.w3.org/2000/svg" xmlns:xlink="http://www.w3.org/1999/xlink" xmlns:sodipodi="http://sodipodi.sourceforge.net/DTD/sodipodi-0.dtd" xmlns:inkscape="http://www.inkscape.org/namespaces/inkscape" viewBox="0 0 1122.5197 793.70081" width="1122.5197px" height="793.70081px" recurrink-id="3910bed64c67164bf8789e2e94030426" recurrink-factor="0.5">
    <sodipodi:namedview inkscape:document-units="px"/><g id="a0" style="fill:orange"><rect x="33.25985000000003" y="60.85040500000002" width="96.0" height="96.0" id="a0-0-0"/><rect x="321.25985000000003" y="60.85040500000002" width="96.0" height="96.0" id="a0-3-0"/><rect x="609.25985" y="60.85040500000002" width="96.0" height="96.0" id="a0-6-0"/><rect x="897.25985" y="60.85040500000002" width="96.0" height="96.0" id="a0-9-0"/><rect x="33.25985000000003" y="252.85040500000002" width="96.0" height="96.0" id="a0-0-2"/><rect x="513.25985" y="252.85040500000002" width="96.0" height="96.0" id="a0-5-2"/><rect x="993.25985" y="252.85040500000002" width="96.0" height="96.0" id="a0-10-2"/><rect x="33.25985000000003" y="444.850405" width="96.0" height="96.0" id="a0-0-4"/><rect x="321.25985000000003" y="444.850405" width="96.0" height="96.0" id="a0-3-4"/><rect x="609.25985" y="444.850405" width="96.0" height="96.0" id="a0-6-4"/><rect x="897.25985" y="444.850405" width="96.0" height="96.0" id="a0-9-4"/><rect x="33.25985000000003" y="636.850405" width="96.0" height="96.0" id="a0-0-6"/><rect x="513.25985" y="636.850405" width="96.0" height="96.0" id="a0-5-6"/><rect x="993.25985" y="636.850405" width="96.0" height="96.0" id="a0-10-6"/></g><g id="b0" style="fill:yellowgreen"><rect x="129.25985000000003" y="60.85040500000002" width="96.0" height="96.0" id="b0-1-0"/><rect x="225.25985000000003" y="60.85040500000002" width="96.0" height="96.0" id="b0-2-0"/><rect x="417.25985000000003" y="60.85040500000002" width="96.0" height="96.0" id="b0-4-0"/><rect x="513.25985" y="60.85040500000002" width="96.0" height="96.0" id="b0-5-0"/><rect x="705.25985" y="60.85040500000002" width="96.0" height="96.0" id="b0-7-0"/><rect x="801.25985" y="60.85040500000002" width="96.0" height="96.0" id="b0-8-0"/><rect x="993.25985" y="60.85040500000002" width="96.0" height="96.0" id="b0-10-0"/><rect x="129.25985000000003" y="252.85040500000002" width="96.0" height="96.0" id="b0-1-2"/><rect x="225.25985000000003" y="252.85040500000002" width="96.0" height="96.0" id="b0-2-2"/><rect x="321.25985000000003" y="252.85040500000002" width="96.0" height="96.0" id="b0-3-2"/><rect x="417.25985000000003" y="252.85040500000002" width="96.0" height="96.0" id="b0-4-2"/><rect x="609.25985" y="252.85040500000002" width="96.0" height="96.0" id="b0-6-2"/><rect x="705.25985" y="252.85040500000002" width="96.0" height="96.0" id="b0-7-2"/><rect x="801.25985" y="252.85040500000002" width="96.0" height="96.0" id="b0-8-2"/><rect x="897.25985" y="252.85040500000002" width="96.0" height="96.0" id="b0-9-2"/><rect x="129.25985000000003" y="444.850405" width="96.0" height="96.0" id="b0-1-4"/><rect x="225.25985000000003" y="444.850405" width="96.0" height="96.0" id="b0-2-4"/><rect x="417.25985000000003" y="444.850405" width="96.0" height="96.0" id="b0-4-4"/><rect x="513.25985" y="444.850405" width="96.0" height="96.0" id="b0-5-4"/><rect x="705.25985" y="444.850405" width="96.0" height="96.0" id="b0-7-4"/><rect x="801.25985" y="444.850405" width="96.0" height="96.0" id="b0-8-4"/><rect x="993.25985" y="444.850405" width="96.0" height="96.0" id="b0-10-4"/><rect x="129.25985000000003" y="636.850405" width="96.0" height="96.0" id="b0-1-6"/><rect x="225.25985000000003" y="636.850405" width="96.0" height="96.0" id="b0-2-6"/><rect x="321.25985000000003" y="636.850405" width="96.0" height="96.0" id="b0-3-6"/><rect x="417.25985000000003" y="636.850405" width="96.0" height="96.0" id="b0-4-6"/><rect x="609.25985" y="636.850405" width="96.0" height="96.0" id="b0-6-6"/><rect x="705.25985" y="636.850405" width="96.0" height="96.0" id="b0-7-6"/><rect x="801.25985" y="636.850405" width="96.0" height="96.0" id="b0-8-6"/><rect x="897.25985" y="636.850405" width="96.0" height="96.0" id="b0-9-6"/></g><g id="c0" style="fill:limegreen"><rect x="33.25985000000003" y="156.85040500000002" width="96.0" height="96.0" id="c0-0-1"/><rect x="417.25985000000003" y="156.85040500000002" width="96.0" height="96.0" id="c0-4-1"/><rect x="801.25985" y="156.85040500000002" width="96.0" height="96.0" id="c0-8-1"/><rect x="33.25985000000003" y="348.850405" width="96.0" height="96.0" id="c0-0-3"/><rect x="417.25985000000003" y="348.850405" width="96.0" height="96.0" id="c0-4-3"/><rect x="801.25985" y="348.850405" width="96.0" height="96.0" id="c0-8-3"/><rect x="33.25985000000003" y="540.850405" width="96.0" height="96.0" id="c0-0-5"/><rect x="417.25985000000003" y="540.850405" width="96.0" height="96.0" id="c0-4-5"/><rect x="801.25985" y="540.850405" width="96.0" height="96.0" id="c0-8-5"/></g><g id="d0" style="fill:mediumvioletred"><rect x="129.25985000000003" y="156.85040500000002" width="96.0" height="96.0" id="d0-1-1"/><rect x="321.25985000000003" y="156.85040500000002" width="96.0" height="96.0" id="d0-3-1"/><rect x="513.25985" y="156.85040500000002" width="96.0" height="96.0" id="d0-5-1"/><rect x="705.25985" y="156.85040500000002" width="96.0" height="96.0" id="d0-7-1"/><rect x="897.25985" y="156.85040500000002" width="96.0" height="96.0" id="d0-9-1"/><rect x="129.25985000000003" y="348.850405" width="96.0" height="96.0" id="d0-1-3"/><rect x="321.25985000000003" y="348.850405" width="96.0" height="96.0" id="d0-3-3"/><rect x="513.25985" y="348.850405" width="96.0" height="96.0" id="d0-5-3"/><rect x="705.25985" y="348.850405" width="96.0" height="96.0" id="d0-7-3"/><rect x="897.25985" y="348.850405" width="96.0" height="96.0" id="d0-9-3"/><rect x="129.25985000000003" y="540.850405" width="96.0" height="96.0" id="d0-1-5"/><rect x="321.25985000000003" y="540.850405" width="96.0" height="96.0" id="d0-3-5"/><rect x="513.25985" y="540.850405" width="96.0" height="96.0" id="d0-5-5"/><rect x="705.25985" y="540.850405" width="96.0" height="96.0" id="d0-7-5"/><rect x="897.25985" y="540.850405" width="96.0" height="96.0" id="d0-9-5"/></g><g id="e0" style="fill:orange"><rect x="225.25985000000003" y="156.85040500000002" width="96.0" height="96.0" id="e0-2-1"/><rect x="609.25985" y="156.85040500000002" width="96.0" height="96.0" id="e0-6-1"/><rect x="993.25985" y="156.85040500000002" width="96.0" height="96.0" id="e0-10-1"/><rect x="225.25985000000003" y="348.850405" width="96.0" height="96.0" id="e0-2-3"/><rect x="609.25985" y="348.850405" width="96.0" height="96.0" id="e0-6-3"/><rect x="993.25985" y="348.850405" width="96.0" height="96.0" id="e0-10-3"/><rect x="225.25985000000003" y="540.850405" width="96.0" height="96.0" id="e0-2-5"/><rect x="609.25985" y="540.850405" width="96.0" height="96.0" id="e0-6-5"/><rect x="993.25985" y="540.850405" width="96.0" height="96.0" id="e0-10-5"/></g><g id="a1" style="fill:#000;fill-opacity:1.0;stroke:#000;stroke-dasharray:0;stroke-opacity:1.0;stroke-width:0.0"><polygon points="33.25985000000003,156.85040500000002,81.25985000000003,60.85040500000002,129.25985000000003,156.85040500000002,33.25985000000003,156.85040500000002" id="a1-0-0"/><polygon points="321.25985000000003,156.85040500000002,369.25985000000003,60.85040500000002,417.25985000000003,156.85040500000002,321.25985000000003,156.85040500000002" id="a1-3-0"/><polygon points="609.25985,156.85040500000002,657.25985,60.85040500000002,705.25985,156.85040500000002,609.25985,156.85040500000002" id="a1-6-0"/><polygon points="897.25985,156.85040500000002,945.25985,60.85040500000002,993.25985,156.85040500000002,897.25985,156.85040500000002" id="a1-9-0"/><polygon points="33.25985000000003,348.850405,81.25985000000003,252.85040500000002,129.25985000000003,348.850405,33.25985000000003,348.850405" id="a1-0-2"/><polygon points="513.25985,348.850405,561.25985,252.85040500000002,609.25985,348.850405,513.25985,348.850405" id="a1-5-2"/><polygon points="993.25985,348.850405,1041.25985,252.85040500000002,1089.25985,348.850405,993.25985,348.850405" id="a1-10-2"/><polygon points="33.25985000000003,540.850405,81.25985000000003,444.850405,129.25985000000003,540.850405,33.25985000000003,540.850405" id="a1-0-4"/><polygon points="321.25985000000003,540.850405,369.25985000000003,444.850405,417.25985000000003,540.850405,321.25985000000003,540.850405" id="a1-3-4"/><polygon points="609.25985,540.850405,657.25985,444.850405,705.25985,540.850405,609.25985,540.850405" id="a1-6-4"/><polygon points="897.25985,540.850405,945.25985,444.850405,993.25985,540.850405,897.25985,540.850405" id="a1-9-4"/><polygon points="33.25985000000003,732.850405,81.25985000000003,636.850405,129.25985000000003,732.850405,33.25985000000003,732.850405" id="a1-0-6"/><polygon points="513.25985,732.850405,561.25985,636.850405,609.25985,732.850405,513.25985,732.850405" id="a1-5-6"/><polygon points="993.25985,732.850405,1041.25985,636.850405,1089.25985,732.850405,993.25985,732.850405" id="a1-10-6"/></g><g id="b1" style="fill:#000;fill-opacity:1.0;stroke:#000;stroke-dasharray:0;stroke-opacity:1.0;stroke-width:2.0"><rect x="130.25985000000003" y="93.85040500000002" width="94.0" height="30.0" id="b1-1-0"/><rect x="226.25985000000003" y="93.85040500000002" width="94.0" height="30.0" id="b1-2-0"/><rect x="418.25985000000003" y="93.85040500000002" width="94.0" height="30.0" id="b1-4-0"/><rect x="514.25985" y="93.85040500000002" width="94.0" height="30.0" id="b1-5-0"/><rect x="706.25985" y="93.85040500000002" width="94.0" height="30.0" id="b1-7-0"/><rect x="802.25985" y="93.85040500000002" width="94.0" height="30.0" id="b1-8-0"/><rect x="994.25985" y="93.85040500000002" width="94.0" height="30.0" id="b1-10-0"/><rect x="130.25985000000003" y="285.850405" width="94.0" height="30.0" id="b1-1-2"/><rect x="226.25985000000003" y="285.850405" width="94.0" height="30.0" id="b1-2-2"/><rect x="322.25985000000003" y="285.850405" width="94.0" height="30.0" id="b1-3-2"/><rect x="418.25985000000003" y="285.850405" width="94.0" height="30.0" id="b1-4-2"/><rect x="610.25985" y="285.850405" width="94.0" height="30.0" id="b1-6-2"/><rect x="706.25985" y="285.850405" width="94.0" height="30.0" id="b1-7-2"/><rect x="802.25985" y="285.850405" width="94.0" height="30.0" id="b1-8-2"/><rect x="898.25985" y="285.850405" width="94.0" height="30.0" id="b1-9-2"/><rect x="130.25985000000003" y="477.850405" width="94.0" height="30.0" id="b1-1-4"/><rect x="226.25985000000003" y="477.850405" width="94.0" height="30.0" id="b1-2-4"/><rect x="418.25985000000003" y="477.850405" width="94.0" height="30.0" id="b1-4-4"/><rect x="514.25985" y="477.850405" width="94.0" height="30.0" id="b1-5-4"/><rect x="706.25985" y="477.850405" width="94.0" height="30.0" id="b1-7-4"/><rect x="802.25985" y="477.850405" width="94.0" height="30.0" id="b1-8-4"/><rect x="994.25985" y="477.850405" width="94.0" height="30.0" id="b1-10-4"/><rect x="130.25985000000003" y="669.850405" width="94.0" height="30.0" id="b1-1-6"/><rect x="226.25985000000003" y="669.850405" width="94.0" height="30.0" id="b1-2-6"/><rect x="322.25985000000003" y="669.850405" width="94.0" height="30.0" id="b1-3-6"/><rect x="418.25985000000003" y="669.850405" width="94.0" height="30.0" id="b1-4-6"/><rect x="610.25985" y="669.850405" width="94.0" height="30.0" id="b1-6-6"/><rect x="706.25985" y="669.850405" width="94.0" height="30.0" id="b1-7-6"/><rect x="802.25985" y="669.850405" width="94.0" height="30.0" id="b1-8-6"/><rect x="898.25985" y="669.850405" width="94.0" height="30.0" id="b1-9-6"/></g><g id="c1" style="fill:#fff;fill-opacity:1.0;stroke:#000;stroke-dasharray:0;stroke-opacity:1.0;stroke-width:8.0"><rect x="37.25985000000003" y="160.85040500000002" width="88.0" height="88.0" id="c1-0-1"/><rect x="421.25985000000003" y="160.85040500000002" width="88.0" height="88.0" id="c1-4-1"/><rect x="805.25985" y="160.85040500000002" width="88.0" height="88.0" id="c1-8-1"/><rect x="37.25985000000003" y="352.850405" width="88.0" height="88.0" id="c1-0-3"/><rect x="421.25985000000003" y="352.850405" width="88.0" height="88.0" id="c1-4-3"/><rect x="805.25985" y="352.850405" width="88.0" height="88.0" id="c1-8-3"/><rect x="37.25985000000003" y="544.850405" width="88.0" height="88.0" id="c1-0-5"/><rect x="421.25985000000003" y="544.850405" width="88.0" height="88.0" id="c1-4-5"/><rect x="805.25985" y="544.850405" width="88.0" height="88.0" id="c1-8-5"/></g><g id="d1" style="fill:#fff;fill-opacity:1.0;stroke:#000;stroke-dasharray:0;stroke-opacity:1.0;stroke-width:7.0"><circle cx="177.25985000000003" cy="204.85040500000002" r="44.5" id="d1-1-1"/><circle cx="369.25985000000003" cy="204.85040500000002" r="44.5" id="d1-3-1"/><circle cx="561.25985" cy="204.85040500000002" r="44.5" id="d1-5-1"/><circle cx="753.25985" cy="204.85040500000002" r="44.5" id="d1-7-1"/><circle cx="945.25985" cy="204.85040500000002" r="44.5" id="d1-9-1"/><circle cx="177.25985000000003" cy="396.850405" r="44.5" id="d1-1-3"/><circle cx="369.25985000000003" cy="396.850405" r="44.5" id="d1-3-3"/><circle cx="561.25985" cy="396.850405" r="44.5" id="d1-5-3"/><circle cx="753.25985" cy="396.850405" r="44.5" id="d1-7-3"/><circle cx="945.25985" cy="396.850405" r="44.5" id="d1-9-3"/><circle cx="177.25985000000003" cy="588.850405" r="44.5" id="d1-1-5"/><circle cx="369.25985000000003" cy="588.850405" r="44.5" id="d1-3-5"/><circle cx="561.25985" cy="588.850405" r="44.5" id="d1-5-5"/><circle cx="753.25985" cy="588.850405" r="44.5" id="d1-7-5"/><circle cx="945.25985" cy="588.850405" r="44.5" id="d1-9-5"/></g><g id="e1" style="fill:#fff;fill-opacity:1.0;stroke:#000;stroke-dasharray:0;stroke-opacity:1.0;stroke-width:4.0"><rect x="227.25985000000003" y="158.85040500000002" width="92.0" height="92.0" id="e1-2-1"/><rect x="611.25985" y="158.85040500000002" width="92.0" height="92.0" id="e1-6-1"/><rect x="995.25985" y="158.85040500000002" width="92.0" height="92.0" id="e1-10-1"/><rect x="227.25985000000003" y="350.850405" width="92.0" height="92.0" id="e1-2-3"/><rect x="611.25985" y="350.850405" width="92.0" height="92.0" id="e1-6-3"/><rect x="995.25985" y="350.850405" width="92.0" height="92.0" id="e1-10-3"/><rect x="227.25985000000003" y="542.850405" width="92.0" height="92.0" id="e1-2-5"/><rect x="611.25985" y="542.850405" width="92.0" height="92.0" id="e1-6-5"/><rect x="995.25985" y="542.850405" width="92.0" height="92.0" id="e1-10-5"/></g></svg>