<?xml version="1.0" encoding="UTF-8" standalone="no"?>
<!-- Created with Inkscape (http://www.inkscape.org/) -->

<svg
   width="200.6609mm"
   height="300mm"
   viewBox="0 0 200.6609 300"
   version="1.1"
   id="svg22810"
   recurrence="v1"
   sodipodi:docname="afroclave.svg"
   inkscape:version="1.1.1 (1:1.1+202109281943+c3084ef5ed)"
   xmlns:inkscape="http://www.inkscape.org/namespaces/inkscape"
   xmlns:sodipodi="http://sodipodi.sourceforge.net/DTD/sodipodi-0.dtd"
   xmlns="http://www.w3.org/2000/svg"
   xmlns:svg="http://www.w3.org/2000/svg">
  <sodipodi:namedview
     id="namedview22812"
     pagecolor="#ffffff"
     bordercolor="#666666"
     borderopacity="1.0"
     inkscape:pageshadow="2"
     inkscape:pageopacity="0.0"
     inkscape:pagecheckerboard="0"
     inkscape:document-units="mm"
     showgrid="false"
     inkscape:zoom="0.46057099"
     inkscape:cx="396.24728"
     inkscape:cy="561.25984"
     inkscape:window-width="1366"
     inkscape:window-height="768"
     inkscape:window-x="0"
     inkscape:window-y="0"
     inkscape:window-maximized="0"
     inkscape:current-layer="layer1"
     fit-margin-top="0"
     fit-margin-left="0"
     fit-margin-right="0"
     fit-margin-bottom="0" />
  <defs
     id="defs22807" />
  <g
     inkscape:label="Layer 1"
     inkscape:groupmode="layer"
     id="layer1">
    <g
       id="bg-a"
       style="fill:#cccccc">
      <rect
         x="0"
         y="0"
         width="20"
         height="20"
         id="bg-a-0-0" />
      <rect
         x="0"
         y="20"
         width="20"
         height="20"
         id="bg-a-0-20" />
      <rect
         x="180"
         y="40"
         width="20"
         height="20"
         id="bg-a-180-40" />
      <rect
         x="80"
         y="80"
         width="20"
         height="20"
         id="bg-a-80-80" />
      <rect
         x="160"
         y="100"
         width="20"
         height="20"
         id="bg-a-160-100" />
      <rect
         x="100"
         y="120"
         width="20"
         height="20"
         id="bg-a-100-120" />
      <rect
         x="120"
         y="120"
         width="20"
         height="20"
         id="bg-a-120-120" />
      <rect
         x="100"
         y="140"
         width="20"
         height="20"
         id="bg-a-100-140" />
      <rect
         x="120"
         y="140"
         width="20"
         height="20"
         id="bg-a-120-140" />
      <rect
         x="60"
         y="160"
         width="20"
         height="20"
         id="bg-a-60-160" />
      <rect
         x="140"
         y="180"
         width="20"
         height="20"
         id="bg-a-140-180" />
      <rect
         x="40"
         y="220"
         width="20"
         height="20"
         id="bg-a-40-220" />
      <rect
         x="0"
         y="240"
         width="20"
         height="20"
         id="bg-a-0-240" />
      <rect
         x="0"
         y="260"
         width="20"
         height="20"
         id="bg-a-0-260" />
    </g>
    <g
       id="fg-a"
       style="fill:#b8860b;fill-opacity:1;stroke:#cccccc;stroke-width:2;stroke-dasharray:none;stroke-opacity:1">
      <circle
         cx="10"
         cy="10"
         r="9"
         inkscape:label="a"
         id="fg-a-0-0"
         style="fill:#b8860b" />
      <circle
         cx="10"
         cy="30"
         r="9"
         inkscape:label="a"
         id="fg-a-0-20"
         style="fill:#b8860b" />
      <circle
         cx="190"
         cy="50"
         r="9"
         inkscape:label="a"
         id="fg-a-180-40"
         style="fill:#b8860b" />
      <circle
         cx="90"
         cy="90"
         r="9"
         inkscape:label="a"
         id="fg-a-80-80"
         style="fill:#b8860b" />
      <circle
         cx="170"
         cy="110"
         r="9"
         inkscape:label="a"
         id="fg-a-160-100"
         style="fill:#b8860b" />
      <circle
         cx="110"
         cy="130"
         r="9"
         inkscape:label="a"
         id="fg-a-100-120"
         style="fill:#b8860b" />
      <circle
         cx="130"
         cy="130"
         r="9"
         inkscape:label="a"
         id="fg-a-120-120"
         style="fill:#b8860b" />
      <circle
         cx="110"
         cy="150"
         r="9"
         inkscape:label="a"
         id="fg-a-100-140"
         style="fill:#b8860b" />
      <circle
         cx="130"
         cy="150"
         r="9"
         inkscape:label="a"
         id="fg-a-120-140"
         style="fill:#b8860b" />
      <circle
         cx="70"
         cy="170"
         r="9"
         inkscape:label="a"
         id="fg-a-60-160"
         style="fill:#b8860b" />
      <circle
         cx="150"
         cy="190"
         r="9"
         inkscape:label="a"
         id="fg-a-140-180"
         style="fill:#b8860b" />
      <circle
         cx="50"
         cy="230"
         r="9"
         inkscape:label="a"
         id="fg-a-40-220"
         style="fill:#b8860b" />
      <circle
         cx="10"
         cy="250"
         r="9"
         inkscape:label="a"
         id="fg-a-0-240"
         style="fill:#b8860b" />
      <circle
         cx="10"
         cy="270"
         r="9"
         inkscape:label="a"
         id="fg-a-0-260"
         style="fill:#b8860b" />
    </g>
    <g
       id="bg-b"
       style="fill:#cccccc">
      <rect
         x="20"
         y="0"
         width="20"
         height="20"
         id="bg-b-20-0" />
      <rect
         x="60"
         y="0"
         width="20"
         height="20"
         id="bg-b-60-0" />
      <rect
         x="120"
         y="0"
         width="20"
         height="20"
         id="bg-b-120-0" />
      <rect
         x="160"
         y="0"
         width="20"
         height="20"
         id="bg-b-160-0" />
      <rect
         x="20"
         y="20"
         width="20"
         height="20"
         id="bg-b-20-20" />
      <rect
         x="60"
         y="20"
         width="20"
         height="20"
         id="bg-b-60-20" />
      <rect
         x="80"
         y="20"
         width="20"
         height="20"
         id="bg-b-80-20" />
      <rect
         x="120"
         y="20"
         width="20"
         height="20"
         id="bg-b-120-20" />
      <rect
         x="140"
         y="20"
         width="20"
         height="20"
         id="bg-b-140-20" />
      <rect
         x="180"
         y="20"
         width="20"
         height="20"
         id="bg-b-180-20" />
      <rect
         x="140"
         y="80"
         width="20"
         height="20"
         id="bg-b-140-80" />
      <rect
         x="20"
         y="100"
         width="20"
         height="20"
         id="bg-b-20-100" />
      <rect
         x="40"
         y="100"
         width="20"
         height="20"
         id="bg-b-40-100" />
      <rect
         x="100"
         y="100"
         width="20"
         height="20"
         id="bg-b-100-100" />
      <rect
         x="180"
         y="100"
         width="20"
         height="20"
         id="bg-b-180-100" />
      <rect
         x="20"
         y="160"
         width="20"
         height="20"
         id="bg-b-20-160" />
      <rect
         x="40"
         y="160"
         width="20"
         height="20"
         id="bg-b-40-160" />
      <rect
         x="180"
         y="160"
         width="20"
         height="20"
         id="bg-b-180-160" />
      <rect
         x="80"
         y="180"
         width="20"
         height="20"
         id="bg-b-80-180" />
      <rect
         x="20"
         y="240"
         width="20"
         height="20"
         id="bg-b-20-240" />
      <rect
         x="40"
         y="240"
         width="20"
         height="20"
         id="bg-b-40-240" />
      <rect
         x="80"
         y="240"
         width="20"
         height="20"
         id="bg-b-80-240" />
      <rect
         x="100"
         y="240"
         width="20"
         height="20"
         id="bg-b-100-240" />
      <rect
         x="140"
         y="240"
         width="20"
         height="20"
         id="bg-b-140-240" />
      <rect
         x="160"
         y="240"
         width="20"
         height="20"
         id="bg-b-160-240" />
      <rect
         x="20"
         y="260"
         width="20"
         height="20"
         id="bg-b-20-260" />
      <rect
         x="60"
         y="260"
         width="20"
         height="20"
         id="bg-b-60-260" />
      <rect
         x="100"
         y="260"
         width="20"
         height="20"
         id="bg-b-100-260" />
      <rect
         x="160"
         y="260"
         width="20"
         height="20"
         id="bg-b-160-260" />
      <rect
         x="20"
         y="280"
         width="20"
         height="20"
         id="bg-b-20-280" />
      <rect
         x="180"
         y="280"
         width="20"
         height="20"
         id="bg-b-180-280" />
    </g>
    <g
       id="fg-b"
       style="fill:#ffffff;fill-opacity:1;stroke:#cccccc;stroke-width:2;stroke-dasharray:none;stroke-opacity:1">
      <rect
         x="21"
         y="7.6666665"
         width="18"
         height="4.6666665"
         inkscape:label="b"
         id="fg-b-20-0" />
      <rect
         x="61"
         y="7.6666665"
         width="18"
         height="4.6666665"
         inkscape:label="b"
         id="fg-b-60-0" />
      <rect
         x="121"
         y="7.6666665"
         width="18"
         height="4.6666665"
         inkscape:label="b"
         id="fg-b-120-0" />
      <rect
         x="161"
         y="7.6666665"
         width="18"
         height="4.6666665"
         inkscape:label="b"
         id="fg-b-160-0" />
      <rect
         x="21"
         y="27.666666"
         width="18"
         height="4.6666665"
         inkscape:label="b"
         id="fg-b-20-20" />
      <rect
         x="61"
         y="27.666666"
         width="18"
         height="4.6666665"
         inkscape:label="b"
         id="fg-b-60-20" />
      <rect
         x="81"
         y="27.666666"
         width="18"
         height="4.6666665"
         inkscape:label="b"
         id="fg-b-80-20" />
      <rect
         x="121"
         y="27.666666"
         width="18"
         height="4.6666665"
         inkscape:label="b"
         id="fg-b-120-20" />
      <rect
         x="141"
         y="27.666666"
         width="18"
         height="4.6666665"
         inkscape:label="b"
         id="fg-b-140-20" />
      <rect
         x="181"
         y="27.666666"
         width="18"
         height="4.6666665"
         inkscape:label="b"
         id="fg-b-180-20" />
      <rect
         x="141"
         y="87.666664"
         width="18"
         height="4.6666665"
         inkscape:label="b"
         id="fg-b-140-80" />
      <rect
         x="21"
         y="107.66666"
         width="18"
         height="4.6666665"
         inkscape:label="b"
         id="fg-b-20-100" />
      <rect
         x="41"
         y="107.66666"
         width="18"
         height="4.6666665"
         inkscape:label="b"
         id="fg-b-40-100" />
      <rect
         x="101"
         y="107.66666"
         width="18"
         height="4.6666665"
         inkscape:label="b"
         id="fg-b-100-100" />
      <rect
         x="181"
         y="107.66666"
         width="18"
         height="4.6666665"
         inkscape:label="b"
         id="fg-b-180-100" />
      <rect
         x="21"
         y="167.66667"
         width="18"
         height="4.6666665"
         inkscape:label="b"
         id="fg-b-20-160" />
      <rect
         x="41"
         y="167.66667"
         width="18"
         height="4.6666665"
         inkscape:label="b"
         id="fg-b-40-160" />
      <rect
         x="181"
         y="167.66667"
         width="18"
         height="4.6666665"
         inkscape:label="b"
         id="fg-b-180-160" />
      <rect
         x="81"
         y="187.66667"
         width="18"
         height="4.6666665"
         inkscape:label="b"
         id="fg-b-80-180" />
      <rect
         x="21"
         y="247.66667"
         width="18"
         height="4.6666665"
         inkscape:label="b"
         id="fg-b-20-240" />
      <rect
         x="41"
         y="247.66667"
         width="18"
         height="4.6666665"
         inkscape:label="b"
         id="fg-b-40-240" />
      <rect
         x="81"
         y="247.66667"
         width="18"
         height="4.6666665"
         inkscape:label="b"
         id="fg-b-80-240" />
      <rect
         x="101"
         y="247.66667"
         width="18"
         height="4.6666665"
         inkscape:label="b"
         id="fg-b-100-240" />
      <rect
         x="141"
         y="247.66667"
         width="18"
         height="4.6666665"
         inkscape:label="b"
         id="fg-b-140-240" />
      <rect
         x="161"
         y="247.66667"
         width="18"
         height="4.6666665"
         inkscape:label="b"
         id="fg-b-160-240" />
      <rect
         x="21"
         y="267.66666"
         width="18"
         height="4.6666665"
         inkscape:label="b"
         id="fg-b-20-260" />
      <rect
         x="61"
         y="267.66666"
         width="18"
         height="4.6666665"
         inkscape:label="b"
         id="fg-b-60-260" />
      <rect
         x="101"
         y="267.66666"
         width="18"
         height="4.6666665"
         inkscape:label="b"
         id="fg-b-100-260" />
      <rect
         x="161"
         y="267.66666"
         width="18"
         height="4.6666665"
         inkscape:label="b"
         id="fg-b-160-260" />
      <rect
         x="21"
         y="287.66666"
         width="18"
         height="4.6666665"
         inkscape:label="b"
         id="fg-b-20-280" />
      <rect
         x="181"
         y="287.66666"
         width="18"
         height="4.6666665"
         inkscape:label="b"
         id="fg-b-180-280" />
    </g>
    <g
       id="bg-c"
       style="fill:#cccccc">
      <rect
         x="40"
         y="0"
         width="20"
         height="20"
         id="bg-c-40-0" />
      <rect
         x="80"
         y="0"
         width="20"
         height="20"
         id="bg-c-80-0" />
      <rect
         x="100"
         y="0"
         width="20"
         height="20"
         id="bg-c-100-0" />
      <rect
         x="140"
         y="0"
         width="20"
         height="20"
         id="bg-c-140-0" />
      <rect
         x="180"
         y="0"
         width="20"
         height="20"
         id="bg-c-180-0" />
      <rect
         x="0"
         y="60"
         width="20"
         height="20"
         id="bg-c-0-60" />
      <rect
         x="180"
         y="60"
         width="20"
         height="20"
         id="bg-c-180-60" />
      <rect
         x="120"
         y="80"
         width="20"
         height="20"
         id="bg-c-120-80" />
      <rect
         x="0"
         y="100"
         width="20"
         height="20"
         id="bg-c-0-100" />
      <rect
         x="0"
         y="120"
         width="20"
         height="20"
         id="bg-c-0-120" />
      <rect
         x="60"
         y="120"
         width="20"
         height="20"
         id="bg-c-60-120" />
      <rect
         x="160"
         y="140"
         width="20"
         height="20"
         id="bg-c-160-140" />
      <rect
         x="0"
         y="160"
         width="20"
         height="20"
         id="bg-c-0-160" />
      <rect
         x="100"
         y="180"
         width="20"
         height="20"
         id="bg-c-100-180" />
      <rect
         x="0"
         y="200"
         width="20"
         height="20"
         id="bg-c-0-200" />
      <rect
         x="40"
         y="200"
         width="20"
         height="20"
         id="bg-c-40-200" />
      <rect
         x="40"
         y="260"
         width="20"
         height="20"
         id="bg-c-40-260" />
      <rect
         x="80"
         y="260"
         width="20"
         height="20"
         id="bg-c-80-260" />
      <rect
         x="120"
         y="260"
         width="20"
         height="20"
         id="bg-c-120-260" />
      <rect
         x="140"
         y="260"
         width="20"
         height="20"
         id="bg-c-140-260" />
      <rect
         x="180"
         y="260"
         width="20"
         height="20"
         id="bg-c-180-260" />
    </g>
    <g
       id="fg-c"
       style="fill:#000000;fill-opacity:1;stroke:#000000;stroke-width:1;stroke-dasharray:none;stroke-opacity:1">
      <circle
         cx="50"
         cy="10"
         r="9.5"
         inkscape:label="c"
         id="fg-c-40-0"
         style="fill:#000000" />
      <circle
         cx="90"
         cy="10"
         r="9.5"
         inkscape:label="c"
         id="fg-c-80-0"
         style="fill:#000000" />
      <circle
         cx="110"
         cy="10"
         r="9.5"
         inkscape:label="c"
         id="fg-c-100-0"
         style="fill:#000000" />
      <circle
         cx="150"
         cy="10"
         r="9.5"
         inkscape:label="c"
         id="fg-c-140-0"
         style="fill:#000000" />
      <circle
         cx="190"
         cy="10"
         r="9.5"
         inkscape:label="c"
         id="fg-c-180-0"
         style="fill:#000000" />
      <circle
         cx="10"
         cy="70"
         r="9.5"
         inkscape:label="c"
         id="fg-c-0-60"
         style="fill:#000000" />
      <circle
         cx="190"
         cy="70"
         r="9.5"
         inkscape:label="c"
         id="fg-c-180-60"
         style="fill:#000000" />
      <circle
         cx="130"
         cy="90"
         r="9.5"
         inkscape:label="c"
         id="fg-c-120-80"
         style="fill:#000000" />
      <circle
         cx="10"
         cy="110"
         r="9.5"
         inkscape:label="c"
         id="fg-c-0-100"
         style="fill:#000000" />
      <circle
         cx="10"
         cy="130"
         r="9.5"
         inkscape:label="c"
         id="fg-c-0-120"
         style="fill:#000000" />
      <circle
         cx="70"
         cy="130"
         r="9.5"
         inkscape:label="c"
         id="fg-c-60-120"
         style="fill:#000000" />
      <circle
         cx="170"
         cy="150"
         r="9.5"
         inkscape:label="c"
         id="fg-c-160-140"
         style="fill:#000000" />
      <circle
         cx="10"
         cy="170"
         r="9.5"
         inkscape:label="c"
         id="fg-c-0-160"
         style="fill:#000000" />
      <circle
         cx="110"
         cy="190"
         r="9.5"
         inkscape:label="c"
         id="fg-c-100-180"
         style="fill:#000000" />
      <circle
         cx="10"
         cy="210"
         r="9.5"
         inkscape:label="c"
         id="fg-c-0-200"
         style="fill:#000000" />
      <circle
         cx="50"
         cy="210"
         r="9.5"
         inkscape:label="c"
         id="fg-c-40-200"
         style="fill:#000000" />
      <circle
         cx="50"
         cy="270"
         r="9.5"
         inkscape:label="c"
         id="fg-c-40-260"
         style="fill:#000000" />
      <circle
         cx="90"
         cy="270"
         r="9.5"
         inkscape:label="c"
         id="fg-c-80-260"
         style="fill:#000000" />
      <circle
         cx="130"
         cy="270"
         r="9.5"
         inkscape:label="c"
         id="fg-c-120-260"
         style="fill:#000000" />
      <circle
         cx="150"
         cy="270"
         r="9.5"
         inkscape:label="c"
         id="fg-c-140-260"
         style="fill:#000000" />
      <circle
         cx="190"
         cy="270"
         r="9.5"
         inkscape:label="c"
         id="fg-c-180-260"
         style="fill:#000000" />
    </g>
    <g
       id="bg-d"
       style="fill:#cccccc">
      <rect
         x="80"
         y="40"
         width="20"
         height="20"
         id="bg-d-80-40" />
      <rect
         x="140"
         y="40"
         width="20"
         height="20"
         id="bg-d-140-40" />
      <rect
         x="140"
         y="100"
         width="20"
         height="20"
         id="bg-d-140-100" />
      <rect
         x="160"
         y="120"
         width="20"
         height="20"
         id="bg-d-160-120" />
      <rect
         x="160"
         y="180"
         width="20"
         height="20"
         id="bg-d-160-180" />
      <rect
         x="80"
         y="200"
         width="20"
         height="20"
         id="bg-d-80-200" />
      <rect
         x="140"
         y="200"
         width="20"
         height="20"
         id="bg-d-140-200" />
    </g>
    <g
       id="fg-d"
       style="fill:#000000;fill-opacity:1;stroke:#000000;stroke-width:1;stroke-dasharray:none;stroke-opacity:1">
      <polygon
         points="99.5,40.5 80.5,40.5 90,59 "
         inkscape:label="d"
         id="fg-d-80-40" />
      <polygon
         points="159.5,40.5 140.5,40.5 150,59 "
         inkscape:label="d"
         id="fg-d-140-40" />
      <polygon
         points="159.5,100.5 140.5,100.5 150,119 "
         inkscape:label="d"
         id="fg-d-140-100" />
      <polygon
         points="179.5,120.5 160.5,120.5 170,139 "
         inkscape:label="d"
         id="fg-d-160-120" />
      <polygon
         points="179.5,180.5 160.5,180.5 170,199 "
         inkscape:label="d"
         id="fg-d-160-180" />
      <polygon
         points="99.5,200.5 80.5,200.5 90,219 "
         inkscape:label="d"
         id="fg-d-80-200" />
      <polygon
         points="159.5,200.5 140.5,200.5 150,219 "
         inkscape:label="d"
         id="fg-d-140-200" />
    </g>
    <g
       id="bg-e"
       style="fill:#cccccc">
      <rect
         x="140"
         y="160"
         width="20"
         height="20"
         id="bg-e-140-160" />
      <rect
         x="60"
         y="180"
         width="20"
         height="20"
         id="bg-e-60-180" />
      <rect
         x="120"
         y="180"
         width="20"
         height="20"
         id="bg-e-120-180" />
      <rect
         x="180"
         y="220"
         width="20"
         height="20"
         id="bg-e-180-220" />
      <rect
         x="60"
         y="240"
         width="20"
         height="20"
         id="bg-e-60-240" />
      <rect
         x="120"
         y="240"
         width="20"
         height="20"
         id="bg-e-120-240" />
      <rect
         x="180"
         y="240"
         width="20"
         height="20"
         id="bg-e-180-240" />
    </g>
    <g
       id="fg-e"
       style="fill:#000000;fill-opacity:1;stroke:#000000;stroke-width:1;stroke-dasharray:none;stroke-opacity:1">
      <polygon
         points="159.5,179 141,170 159.5,161 "
         inkscape:label="e"
         id="fg-e-140-160" />
      <polygon
         points="79.5,199 61,190 79.5,181 "
         inkscape:label="e"
         id="fg-e-60-180" />
      <polygon
         points="139.5,199 121,190 139.5,181 "
         inkscape:label="e"
         id="fg-e-120-180" />
      <polygon
         points="199.5,239 181,230 199.5,221 "
         inkscape:label="e"
         id="fg-e-180-220" />
      <polygon
         points="79.5,259 61,250 79.5,241 "
         inkscape:label="e"
         id="fg-e-60-240" />
      <polygon
         points="139.5,259 121,250 139.5,241 "
         inkscape:label="e"
         id="fg-e-120-240" />
      <polygon
         points="199.5,259 181,250 199.5,241 "
         inkscape:label="e"
         id="fg-e-180-240" />
    </g>
    <g
       id="bg-f"
       style="fill:#cccccc">
      <rect
         x="40"
         y="20"
         width="20"
         height="20"
         id="bg-f-40-20" />
      <rect
         x="100"
         y="20"
         width="20"
         height="20"
         id="bg-f-100-20" />
      <rect
         x="160"
         y="20"
         width="20"
         height="20"
         id="bg-f-160-20" />
      <rect
         x="40"
         y="40"
         width="20"
         height="20"
         id="bg-f-40-40" />
      <rect
         x="100"
         y="80"
         width="20"
         height="20"
         id="bg-f-100-80" />
      <rect
         x="160"
         y="80"
         width="20"
         height="20"
         id="bg-f-160-80" />
      <rect
         x="80"
         y="100"
         width="20"
         height="20"
         id="bg-f-80-100" />
    </g>
    <g
       id="fg-f"
       style="fill:#000000;fill-opacity:1;stroke:#000000;stroke-width:1;stroke-dasharray:none;stroke-opacity:1">
      <polygon
         points="40.5,39 40.5,21 59,30 "
         inkscape:label="f"
         id="fg-f-40-20" />
      <polygon
         points="100.5,39 100.5,21 119,30 "
         inkscape:label="f"
         id="fg-f-100-20" />
      <polygon
         points="160.5,39 160.5,21 179,30 "
         inkscape:label="f"
         id="fg-f-160-20" />
      <polygon
         points="40.5,59 40.5,41 59,50 "
         inkscape:label="f"
         id="fg-f-40-40" />
      <polygon
         points="100.5,99 100.5,81 119,90 "
         inkscape:label="f"
         id="fg-f-100-80" />
      <polygon
         points="160.5,99 160.5,81 179,90 "
         inkscape:label="f"
         id="fg-f-160-80" />
      <polygon
         points="80.5,119 80.5,101 99,110 "
         inkscape:label="f"
         id="fg-f-80-100" />
    </g>
    <g
       id="bg-g"
       style="fill:#cccccc">
      <rect
         x="80"
         y="60"
         width="20"
         height="20"
         id="bg-g-80-60" />
      <rect
         x="140"
         y="60"
         width="20"
         height="20"
         id="bg-g-140-60" />
      <rect
         x="60"
         y="80"
         width="20"
         height="20"
         id="bg-g-60-80" />
      <rect
         x="60"
         y="140"
         width="20"
         height="20"
         id="bg-g-60-140" />
      <rect
         x="80"
         y="160"
         width="20"
         height="20"
         id="bg-g-80-160" />
      <rect
         x="80"
         y="220"
         width="20"
         height="20"
         id="bg-g-80-220" />
      <rect
         x="140"
         y="220"
         width="20"
         height="20"
         id="bg-g-140-220" />
    </g>
    <g
       id="fg-g"
       style="fill:#000000;fill-opacity:1;stroke:#000000;stroke-width:1;stroke-dasharray:none;stroke-opacity:1">
      <polygon
         points="99,79.5 81,79.5 90,61 "
         inkscape:label="g"
         id="fg-g-80-60" />
      <polygon
         points="159,79.5 141,79.5 150,61 "
         inkscape:label="g"
         id="fg-g-140-60" />
      <polygon
         points="79,99.5 61,99.5 70,81 "
         inkscape:label="g"
         id="fg-g-60-80" />
      <polygon
         points="79,159.5 61,159.5 70,141 "
         inkscape:label="g"
         id="fg-g-60-140" />
      <polygon
         points="99,179.5 81,179.5 90,161 "
         inkscape:label="g"
         id="fg-g-80-160" />
      <polygon
         points="99,239.5 81,239.5 90,221 "
         inkscape:label="g"
         id="fg-g-80-220" />
      <polygon
         points="159,239.5 141,239.5 150,221 "
         inkscape:label="g"
         id="fg-g-140-220" />
    </g>
    <g
       id="bg-h"
       style="fill:#cccccc">
      <rect
         x="0"
         y="40"
         width="20"
         height="20"
         id="bg-h-0-40" />
      <rect
         x="20"
         y="60"
         width="20"
         height="20"
         id="bg-h-20-60" />
      <rect
         x="0"
         y="80"
         width="20"
         height="20"
         id="bg-h-0-80" />
      <rect
         x="60"
         y="100"
         width="20"
         height="20"
         id="bg-h-60-100" />
      <rect
         x="140"
         y="120"
         width="20"
         height="20"
         id="bg-h-140-120" />
      <rect
         x="0"
         y="140"
         width="20"
         height="20"
         id="bg-h-0-140" />
      <rect
         x="80"
         y="140"
         width="20"
         height="20"
         id="bg-h-80-140" />
      <rect
         x="120"
         y="160"
         width="20"
         height="20"
         id="bg-h-120-160" />
      <rect
         x="160"
         y="160"
         width="20"
         height="20"
         id="bg-h-160-160" />
      <rect
         x="0"
         y="180"
         width="20"
         height="20"
         id="bg-h-0-180" />
      <rect
         x="0"
         y="220"
         width="20"
         height="20"
         id="bg-h-0-220" />
      <rect
         x="20"
         y="220"
         width="20"
         height="20"
         id="bg-h-20-220" />
      <rect
         x="0"
         y="280"
         width="20"
         height="20"
         id="bg-h-0-280" />
      <rect
         x="80"
         y="280"
         width="20"
         height="20"
         id="bg-h-80-280" />
      <rect
         x="140"
         y="280"
         width="20"
         height="20"
         id="bg-h-140-280" />
    </g>
    <g
       id="fg-h"
       style="fill:#ffffff;fill-opacity:1;stroke:#cccccc;stroke-width:2;stroke-dasharray:none;stroke-opacity:1">
      <rect
         x="7.6666665"
         y="41"
         width="4.6666665"
         height="18"
         inkscape:label="h"
         id="fg-h-0-40" />
      <rect
         x="27.666666"
         y="61"
         width="4.6666665"
         height="18"
         inkscape:label="h"
         id="fg-h-20-60" />
      <rect
         x="7.6666665"
         y="81"
         width="4.6666665"
         height="18"
         inkscape:label="h"
         id="fg-h-0-80" />
      <rect
         x="67.666664"
         y="101"
         width="4.6666665"
         height="18"
         inkscape:label="h"
         id="fg-h-60-100" />
      <rect
         x="147.66667"
         y="121"
         width="4.6666665"
         height="18"
         inkscape:label="h"
         id="fg-h-140-120" />
      <rect
         x="7.6666665"
         y="141"
         width="4.6666665"
         height="18"
         inkscape:label="h"
         id="fg-h-0-140" />
      <rect
         x="87.666664"
         y="141"
         width="4.6666665"
         height="18"
         inkscape:label="h"
         id="fg-h-80-140" />
      <rect
         x="127.66666"
         y="161"
         width="4.6666665"
         height="18"
         inkscape:label="h"
         id="fg-h-120-160" />
      <rect
         x="167.66667"
         y="161"
         width="4.6666665"
         height="18"
         inkscape:label="h"
         id="fg-h-160-160" />
      <rect
         x="7.6666665"
         y="181"
         width="4.6666665"
         height="18"
         inkscape:label="h"
         id="fg-h-0-180" />
      <rect
         x="7.6666665"
         y="221"
         width="4.6666665"
         height="18"
         inkscape:label="h"
         id="fg-h-0-220" />
      <rect
         x="27.666666"
         y="221"
         width="4.6666665"
         height="18"
         inkscape:label="h"
         id="fg-h-20-220" />
      <rect
         x="7.6666665"
         y="281"
         width="4.6666665"
         height="18"
         inkscape:label="h"
         id="fg-h-0-280" />
      <rect
         x="87.666664"
         y="281"
         width="4.6666665"
         height="18"
         inkscape:label="h"
         id="fg-h-80-280" />
      <rect
         x="147.66667"
         y="281"
         width="4.6666665"
         height="18"
         inkscape:label="h"
         id="fg-h-140-280" />
    </g>
    <g
       id="bg-i"
       style="fill:#cccccc">
      <rect
         x="20"
         y="40"
         width="20"
         height="20"
         id="bg-i-20-40" />
      <rect
         x="180"
         y="80"
         width="20"
         height="20"
         id="bg-i-180-80" />
      <rect
         x="120"
         y="100"
         width="20"
         height="20"
         id="bg-i-120-100" />
      <rect
         x="20"
         y="120"
         width="20"
         height="20"
         id="bg-i-20-120" />
      <rect
         x="40"
         y="120"
         width="20"
         height="20"
         id="bg-i-40-120" />
      <rect
         x="180"
         y="140"
         width="20"
         height="20"
         id="bg-i-180-140" />
      <rect
         x="100"
         y="160"
         width="20"
         height="20"
         id="bg-i-100-160" />
      <rect
         x="20"
         y="180"
         width="20"
         height="20"
         id="bg-i-20-180" />
      <rect
         x="40"
         y="180"
         width="20"
         height="20"
         id="bg-i-40-180" />
      <rect
         x="20"
         y="200"
         width="20"
         height="20"
         id="bg-i-20-200" />
      <rect
         x="100"
         y="280"
         width="20"
         height="20"
         id="bg-i-100-280" />
      <rect
         x="160"
         y="280"
         width="20"
         height="20"
         id="bg-i-160-280" />
    </g>
    <g
       id="fg-i"
       style="fill:#000000;fill-opacity:1;stroke:#000000;stroke-width:1;stroke-dasharray:none;stroke-opacity:1">
      <rect
         x="20.5"
         y="47.166668"
         width="19"
         height="5.6666665"
         inkscape:label="i"
         id="fg-i-20-40" />
      <rect
         x="180.5"
         y="87.166664"
         width="19"
         height="5.6666665"
         inkscape:label="i"
         id="fg-i-180-80" />
      <rect
         x="120.5"
         y="107.16666"
         width="19"
         height="5.6666665"
         inkscape:label="i"
         id="fg-i-120-100" />
      <rect
         x="20.5"
         y="127.16666"
         width="19"
         height="5.6666665"
         inkscape:label="i"
         id="fg-i-20-120" />
      <rect
         x="40.5"
         y="127.16666"
         width="19"
         height="5.6666665"
         inkscape:label="i"
         id="fg-i-40-120" />
      <rect
         x="180.5"
         y="147.16667"
         width="19"
         height="5.6666665"
         inkscape:label="i"
         id="fg-i-180-140" />
      <rect
         x="100.5"
         y="167.16667"
         width="19"
         height="5.6666665"
         inkscape:label="i"
         id="fg-i-100-160" />
      <rect
         x="20.5"
         y="187.16667"
         width="19"
         height="5.6666665"
         inkscape:label="i"
         id="fg-i-20-180" />
      <rect
         x="40.5"
         y="187.16667"
         width="19"
         height="5.6666665"
         inkscape:label="i"
         id="fg-i-40-180" />
      <rect
         x="20.5"
         y="207.16667"
         width="19"
         height="5.6666665"
         inkscape:label="i"
         id="fg-i-20-200" />
      <rect
         x="100.5"
         y="287.16666"
         width="19"
         height="5.6666665"
         inkscape:label="i"
         id="fg-i-100-280" />
      <rect
         x="160.5"
         y="287.16666"
         width="19"
         height="5.6666665"
         inkscape:label="i"
         id="fg-i-160-280" />
    </g>
    <g
       id="bg-j"
       style="fill:#cccccc">
      <rect
         x="60"
         y="40"
         width="20"
         height="20"
         id="bg-j-60-40" />
      <rect
         x="120"
         y="40"
         width="20"
         height="20"
         id="bg-j-120-40" />
      <rect
         x="100"
         y="200"
         width="20"
         height="20"
         id="bg-j-100-200" />
      <rect
         x="160"
         y="200"
         width="20"
         height="20"
         id="bg-j-160-200" />
      <rect
         x="180"
         y="200"
         width="20"
         height="20"
         id="bg-j-180-200" />
    </g>
    <g
       id="fg-j"
       style="fill:#ff0000;fill-opacity:1;stroke:#cccccc;stroke-width:2;stroke-dasharray:none;stroke-opacity:1">
      <polygon
         points="79,41 61,41 70,58 "
         inkscape:label="j"
         id="fg-j-60-40"
         style="fill:#ff0000" />
      <polygon
         points="139,41 121,41 130,58 "
         inkscape:label="j"
         id="fg-j-120-40"
         style="fill:#ff0000" />
      <polygon
         points="119,201 101,201 110,218 "
         inkscape:label="j"
         id="fg-j-100-200"
         style="fill:#ff0000" />
      <polygon
         points="179,201 161,201 170,218 "
         inkscape:label="j"
         id="fg-j-160-200"
         style="fill:#ff0000" />
      <polygon
         points="199,201 181,201 190,218 "
         inkscape:label="j"
         id="fg-j-180-200"
         style="fill:#ff0000" />
    </g>
    <g
       id="bg-k"
       style="fill:#cccccc">
      <rect
         x="100"
         y="40"
         width="20"
         height="20"
         id="bg-k-100-40" />
      <rect
         x="160"
         y="40"
         width="20"
         height="20"
         id="bg-k-160-40" />
      <rect
         x="100"
         y="60"
         width="20"
         height="20"
         id="bg-k-100-60" />
      <rect
         x="160"
         y="60"
         width="20"
         height="20"
         id="bg-k-160-60" />
    </g>
    <g
       id="fg-k"
       style="fill:#ffffff;fill-opacity:1;stroke:#cccccc;stroke-width:2;stroke-dasharray:none;stroke-opacity:1">
      <polygon
         points="101,58 101,42 118,50 "
         inkscape:label="k"
         id="fg-k-100-40" />
      <polygon
         points="161,58 161,42 178,50 "
         inkscape:label="k"
         id="fg-k-160-40" />
      <polygon
         points="101,78 101,62 118,70 "
         inkscape:label="k"
         id="fg-k-100-60" />
      <polygon
         points="161,78 161,62 178,70 "
         inkscape:label="k"
         id="fg-k-160-60" />
    </g>
    <g
       id="bg-l"
       style="fill:#cccccc">
      <rect
         x="20"
         y="80"
         width="20"
         height="20"
         id="bg-l-20-80" />
      <rect
         x="40"
         y="80"
         width="20"
         height="20"
         id="bg-l-40-80" />
      <rect
         x="80"
         y="120"
         width="20"
         height="20"
         id="bg-l-80-120" />
      <rect
         x="180"
         y="120"
         width="20"
         height="20"
         id="bg-l-180-120" />
      <rect
         x="20"
         y="140"
         width="20"
         height="20"
         id="bg-l-20-140" />
      <rect
         x="40"
         y="140"
         width="20"
         height="20"
         id="bg-l-40-140" />
      <rect
         x="140"
         y="140"
         width="20"
         height="20"
         id="bg-l-140-140" />
      <rect
         x="180"
         y="180"
         width="20"
         height="20"
         id="bg-l-180-180" />
      <rect
         x="40"
         y="280"
         width="20"
         height="20"
         id="bg-l-40-280" />
      <rect
         x="60"
         y="280"
         width="20"
         height="20"
         id="bg-l-60-280" />
      <rect
         x="120"
         y="280"
         width="20"
         height="20"
         id="bg-l-120-280" />
    </g>
    <g
       id="fg-l"
       style="fill:#000000;fill-opacity:1;stroke:#000000;stroke-width:1;stroke-dasharray:none;stroke-opacity:1">
      <rect
         x="27.166666"
         y="80.5"
         width="5.6666665"
         height="19"
         inkscape:label="l"
         id="fg-l-20-80" />
      <rect
         x="47.166668"
         y="80.5"
         width="5.6666665"
         height="19"
         inkscape:label="l"
         id="fg-l-40-80" />
      <rect
         x="87.166664"
         y="120.5"
         width="5.6666665"
         height="19"
         inkscape:label="l"
         id="fg-l-80-120" />
      <rect
         x="187.16667"
         y="120.5"
         width="5.6666665"
         height="19"
         inkscape:label="l"
         id="fg-l-180-120" />
      <rect
         x="27.166666"
         y="140.5"
         width="5.6666665"
         height="19"
         inkscape:label="l"
         id="fg-l-20-140" />
      <rect
         x="47.166668"
         y="140.5"
         width="5.6666665"
         height="19"
         inkscape:label="l"
         id="fg-l-40-140" />
      <rect
         x="147.16667"
         y="140.5"
         width="5.6666665"
         height="19"
         inkscape:label="l"
         id="fg-l-140-140" />
      <rect
         x="187.16667"
         y="180.5"
         width="5.6666665"
         height="19"
         inkscape:label="l"
         id="fg-l-180-180" />
      <rect
         x="47.166668"
         y="280.5"
         width="5.6666665"
         height="19"
         inkscape:label="l"
         id="fg-l-40-280" />
      <rect
         x="67.166664"
         y="280.5"
         width="5.6666665"
         height="19"
         inkscape:label="l"
         id="fg-l-60-280" />
      <rect
         x="127.16666"
         y="280.5"
         width="5.6666665"
         height="19"
         inkscape:label="l"
         id="fg-l-120-280" />
    </g>
    <g
       id="bg-m"
       style="fill:#cccccc">
      <rect
         x="40"
         y="60"
         width="20"
         height="20"
         id="bg-m-40-60" />
      <rect
         x="60"
         y="60"
         width="20"
         height="20"
         id="bg-m-60-60" />
      <rect
         x="120"
         y="60"
         width="20"
         height="20"
         id="bg-m-120-60" />
      <rect
         x="100"
         y="220"
         width="20"
         height="20"
         id="bg-m-100-220" />
      <rect
         x="160"
         y="220"
         width="20"
         height="20"
         id="bg-m-160-220" />
    </g>
    <g
       id="fg-m"
       style="fill:#ffffff;fill-opacity:1;stroke:#cccccc;stroke-width:2;stroke-dasharray:none;stroke-opacity:1">
      <polygon
         points="58,79 42,79 50,62 "
         inkscape:label="m"
         id="fg-m-40-60" />
      <polygon
         points="78,79 62,79 70,62 "
         inkscape:label="m"
         id="fg-m-60-60" />
      <polygon
         points="138,79 122,79 130,62 "
         inkscape:label="m"
         id="fg-m-120-60" />
      <polygon
         points="118,239 102,239 110,222 "
         inkscape:label="m"
         id="fg-m-100-220" />
      <polygon
         points="178,239 162,239 170,222 "
         inkscape:label="m"
         id="fg-m-160-220" />
    </g>
    <g
       id="bg-n"
       style="fill:#cccccc">
      <rect
         x="60"
         y="200"
         width="20"
         height="20"
         id="bg-n-60-200" />
      <rect
         x="120"
         y="200"
         width="20"
         height="20"
         id="bg-n-120-200" />
      <rect
         x="60"
         y="220"
         width="20"
         height="20"
         id="bg-n-60-220" />
      <rect
         x="120"
         y="220"
         width="20"
         height="20"
         id="bg-n-120-220" />
    </g>
    <g
       id="fg-n"
       style="fill:#ffffff;fill-opacity:1;stroke:#cccccc;stroke-width:2;stroke-dasharray:none;stroke-opacity:1">
      <polygon
         points="79,218 62,210 79,202 "
         inkscape:label="n"
         id="fg-n-60-200" />
      <polygon
         points="139,218 122,210 139,202 "
         inkscape:label="n"
         id="fg-n-120-200" />
      <polygon
         points="79,238 62,230 79,222 "
         inkscape:label="n"
         id="fg-n-60-220" />
      <polygon
         points="139,238 122,230 139,222 "
         inkscape:label="n"
         id="fg-n-120-220" />
    </g>
  </g>
</svg>
