<?xml version="1.0" encoding="UTF-8" standalone="no"?>
<svg
   viewBox="0 0 1122.5197 793.70081"
   width="1122.5197px"
   height="793.70081px"
   recurrink-id="c5ab148a094c783593f963d414ae88d9"
   recurrink-factor="0.5"
   version="1.1"
   id="svg18898"
   sodipodi:docname="buleria.svg"
   inkscape:version="1.1.1 (c3084ef, 2021-09-22)"
   xmlns:inkscape="http://www.inkscape.org/namespaces/inkscape"
   xmlns:sodipodi="http://sodipodi.sourceforge.net/DTD/sodipodi-0.dtd"
   xmlns="http://www.w3.org/2000/svg"
   xmlns:svg="http://www.w3.org/2000/svg">
  <defs
     id="defs18900" />
  <sodipodi:namedview
     inkscape:document-units="px"
     id="namedview18730"
     pagecolor="#ffffff"
     bordercolor="#666666"
     borderopacity="1.0"
     inkscape:pageshadow="2"
     inkscape:pageopacity="0.0"
     inkscape:pagecheckerboard="0"
     showgrid="false"
     inkscape:zoom="0.6672489"
     inkscape:cx="561.25983"
     inkscape:cy="396.4038"
     inkscape:window-width="1312"
     inkscape:window-height="969"
     inkscape:window-x="274"
     inkscape:window-y="48"
     inkscape:window-maximized="0"
     inkscape:current-layer="svg18898" />
  <g
     id="a0"
     style="fill:#000;stroke:#fff;stroke-width:0.0">
    <rect
       x="33.25985000000003"
       y="60.85040500000002"
       width="96.0"
       height="96.0"
       id="a0-0-0" />
    <rect
       x="321.25985000000003"
       y="60.85040500000002"
       width="96.0"
       height="96.0"
       id="a0-3-0" />
    <rect
       x="609.25985"
       y="60.85040500000002"
       width="96.0"
       height="96.0"
       id="a0-6-0" />
    <rect
       x="897.25985"
       y="60.85040500000002"
       width="96.0"
       height="96.0"
       id="a0-9-0" />
    <rect
       x="33.25985000000003"
       y="252.85040500000002"
       width="96.0"
       height="96.0"
       id="a0-0-2" />
    <rect
       x="321.25985000000003"
       y="252.85040500000002"
       width="96.0"
       height="96.0"
       id="a0-3-2" />
    <rect
       x="609.25985"
       y="252.85040500000002"
       width="96.0"
       height="96.0"
       id="a0-6-2" />
    <rect
       x="897.25985"
       y="252.85040500000002"
       width="96.0"
       height="96.0"
       id="a0-9-2" />
    <rect
       x="33.25985000000003"
       y="444.850405"
       width="96.0"
       height="96.0"
       id="a0-0-4" />
    <rect
       x="321.25985000000003"
       y="444.850405"
       width="96.0"
       height="96.0"
       id="a0-3-4" />
    <rect
       x="609.25985"
       y="444.850405"
       width="96.0"
       height="96.0"
       id="a0-6-4" />
    <rect
       x="897.25985"
       y="444.850405"
       width="96.0"
       height="96.0"
       id="a0-9-4" />
    <rect
       x="33.25985000000003"
       y="636.850405"
       width="96.0"
       height="96.0"
       id="a0-0-6" />
    <rect
       x="321.25985000000003"
       y="636.850405"
       width="96.0"
       height="96.0"
       id="a0-3-6" />
    <rect
       x="609.25985"
       y="636.850405"
       width="96.0"
       height="96.0"
       id="a0-6-6" />
    <rect
       x="897.25985"
       y="636.850405"
       width="96.0"
       height="96.0"
       id="a0-9-6" />
  </g>
  <g
     id="a1"
     style="fill:#fff;fill-opacity:1.0;stroke:#ccc;stroke-dasharray:1;stroke-opacity:1.0;stroke-width:1.0">
    <polygon
       points="33.75985000000003,61.35040500000002,81.25985000000003,155.85040500000002,128.75985000000003,61.35040500000002,33.75985000000003,61.35040500000002"
       id="a1-0-0" />
    <polygon
       points="321.75985000000003,61.35040500000002,369.25985000000003,155.85040500000002,416.75985000000003,61.35040500000002,321.75985000000003,61.35040500000002"
       id="a1-3-0" />
    <polygon
       points="609.75985,61.35040500000002,657.25985,155.85040500000002,704.75985,61.35040500000002,609.75985,61.35040500000002"
       id="a1-6-0" />
    <polygon
       points="897.75985,61.35040500000002,945.25985,155.85040500000002,992.75985,61.35040500000002,897.75985,61.35040500000002"
       id="a1-9-0" />
    <polygon
       points="33.75985000000003,253.35040500000002,81.25985000000003,347.850405,128.75985000000003,253.35040500000002,33.75985000000003,253.35040500000002"
       id="a1-0-2" />
    <polygon
       points="321.75985000000003,253.35040500000002,369.25985000000003,347.850405,416.75985000000003,253.35040500000002,321.75985000000003,253.35040500000002"
       id="a1-3-2" />
    <polygon
       points="609.75985,253.35040500000002,657.25985,347.850405,704.75985,253.35040500000002,609.75985,253.35040500000002"
       id="a1-6-2" />
    <polygon
       points="897.75985,253.35040500000002,945.25985,347.850405,992.75985,253.35040500000002,897.75985,253.35040500000002"
       id="a1-9-2" />
    <polygon
       points="33.75985000000003,445.350405,81.25985000000003,539.850405,128.75985000000003,445.350405,33.75985000000003,445.350405"
       id="a1-0-4" />
    <polygon
       points="321.75985000000003,445.350405,369.25985000000003,539.850405,416.75985000000003,445.350405,321.75985000000003,445.350405"
       id="a1-3-4" />
    <polygon
       points="609.75985,445.350405,657.25985,539.850405,704.75985,445.350405,609.75985,445.350405"
       id="a1-6-4" />
    <polygon
       points="897.75985,445.350405,945.25985,539.850405,992.75985,445.350405,897.75985,445.350405"
       id="a1-9-4" />
    <polygon
       points="33.75985000000003,637.350405,81.25985000000003,731.850405,128.75985000000003,637.350405,33.75985000000003,637.350405"
       id="a1-0-6" />
    <polygon
       points="321.75985000000003,637.350405,369.25985000000003,731.850405,416.75985000000003,637.350405,321.75985000000003,637.350405"
       id="a1-3-6" />
    <polygon
       points="609.75985,637.350405,657.25985,731.850405,704.75985,637.350405,609.75985,637.350405"
       id="a1-6-6" />
    <polygon
       points="897.75985,637.350405,945.25985,731.850405,992.75985,637.350405,897.75985,637.350405"
       id="a1-9-6" />
  </g>
  <g
     id="b0"
     style="fill:#000;stroke:#fff;stroke-width:0.0">
    <rect
       x="129.25985000000003"
       y="60.85040500000002"
       width="96.0"
       height="96.0"
       id="b0-1-0" />
    <rect
       x="417.25985000000003"
       y="60.85040500000002"
       width="96.0"
       height="96.0"
       id="b0-4-0" />
    <rect
       x="705.25985"
       y="60.85040500000002"
       width="96.0"
       height="96.0"
       id="b0-7-0" />
    <rect
       x="993.25985"
       y="60.85040500000002"
       width="96.0"
       height="96.0"
       id="b0-10-0" />
    <rect
       x="129.25985000000003"
       y="252.85040500000002"
       width="96.0"
       height="96.0"
       id="b0-1-2" />
    <rect
       x="417.25985000000003"
       y="252.85040500000002"
       width="96.0"
       height="96.0"
       id="b0-4-2" />
    <rect
       x="705.25985"
       y="252.85040500000002"
       width="96.0"
       height="96.0"
       id="b0-7-2" />
    <rect
       x="993.25985"
       y="252.85040500000002"
       width="96.0"
       height="96.0"
       id="b0-10-2" />
    <rect
       x="129.25985000000003"
       y="444.850405"
       width="96.0"
       height="96.0"
       id="b0-1-4" />
    <rect
       x="417.25985000000003"
       y="444.850405"
       width="96.0"
       height="96.0"
       id="b0-4-4" />
    <rect
       x="705.25985"
       y="444.850405"
       width="96.0"
       height="96.0"
       id="b0-7-4" />
    <rect
       x="993.25985"
       y="444.850405"
       width="96.0"
       height="96.0"
       id="b0-10-4" />
    <rect
       x="129.25985000000003"
       y="636.850405"
       width="96.0"
       height="96.0"
       id="b0-1-6" />
    <rect
       x="417.25985000000003"
       y="636.850405"
       width="96.0"
       height="96.0"
       id="b0-4-6" />
    <rect
       x="705.25985"
       y="636.850405"
       width="96.0"
       height="96.0"
       id="b0-7-6" />
    <rect
       x="993.25985"
       y="636.850405"
       width="96.0"
       height="96.0"
       id="b0-10-6" />
  </g>
  <g
     id="b1"
     style="fill:#fff;fill-opacity:1.0;stroke:#ccc;stroke-dasharray:1;stroke-opacity:1.0;stroke-width:1.0">
    <polygon
       points="130.25985000000003,156.35040500000002,177.25985000000003,61.85040500000002,224.25985000000003,156.35040500000002,130.25985000000003,156.35040500000002"
       id="b1-1-0" />
    <polygon
       points="418.25985000000003,156.35040500000002,465.25985000000003,61.85040500000002,512.25985,156.35040500000002,418.25985000000003,156.35040500000002"
       id="b1-4-0" />
    <polygon
       points="706.25985,156.35040500000002,753.25985,61.85040500000002,800.25985,156.35040500000002,706.25985,156.35040500000002"
       id="b1-7-0" />
    <polygon
       points="994.25985,156.35040500000002,1041.25985,61.85040500000002,1088.25985,156.35040500000002,994.25985,156.35040500000002"
       id="b1-10-0" />
    <polygon
       points="130.25985000000003,348.350405,177.25985000000003,253.85040500000002,224.25985000000003,348.350405,130.25985000000003,348.350405"
       id="b1-1-2" />
    <polygon
       points="418.25985000000003,348.350405,465.25985000000003,253.85040500000002,512.25985,348.350405,418.25985000000003,348.350405"
       id="b1-4-2" />
    <polygon
       points="706.25985,348.350405,753.25985,253.85040500000002,800.25985,348.350405,706.25985,348.350405"
       id="b1-7-2" />
    <polygon
       points="994.25985,348.350405,1041.25985,253.85040500000002,1088.25985,348.350405,994.25985,348.350405"
       id="b1-10-2" />
    <polygon
       points="130.25985000000003,540.350405,177.25985000000003,445.850405,224.25985000000003,540.350405,130.25985000000003,540.350405"
       id="b1-1-4" />
    <polygon
       points="418.25985000000003,540.350405,465.25985000000003,445.850405,512.25985,540.350405,418.25985000000003,540.350405"
       id="b1-4-4" />
    <polygon
       points="706.25985,540.350405,753.25985,445.850405,800.25985,540.350405,706.25985,540.350405"
       id="b1-7-4" />
    <polygon
       points="994.25985,540.350405,1041.25985,445.850405,1088.25985,540.350405,994.25985,540.350405"
       id="b1-10-4" />
    <polygon
       points="130.25985000000003,732.350405,177.25985000000003,637.850405,224.25985000000003,732.350405,130.25985000000003,732.350405"
       id="b1-1-6" />
    <polygon
       points="418.25985000000003,732.350405,465.25985000000003,637.850405,512.25985,732.350405,418.25985000000003,732.350405"
       id="b1-4-6" />
    <polygon
       points="706.25985,732.350405,753.25985,637.850405,800.25985,732.350405,706.25985,732.350405"
       id="b1-7-6" />
    <polygon
       points="994.25985,732.350405,1041.25985,637.850405,1088.25985,732.350405,994.25985,732.350405"
       id="b1-10-6" />
  </g>
  <g
     id="c0"
     style="fill:#000;stroke:#fff;stroke-width:0.0">
    <rect
       x="225.25985000000003"
       y="60.85040500000002"
       width="96.0"
       height="96.0"
       id="c0-2-0" />
    <rect
       x="801.25985"
       y="60.85040500000002"
       width="96.0"
       height="96.0"
       id="c0-8-0" />
    <rect
       x="225.25985000000003"
       y="252.85040500000002"
       width="96.0"
       height="96.0"
       id="c0-2-2" />
    <rect
       x="801.25985"
       y="252.85040500000002"
       width="96.0"
       height="96.0"
       id="c0-8-2" />
    <rect
       x="225.25985000000003"
       y="444.850405"
       width="96.0"
       height="96.0"
       id="c0-2-4" />
    <rect
       x="801.25985"
       y="444.850405"
       width="96.0"
       height="96.0"
       id="c0-8-4" />
    <rect
       x="225.25985000000003"
       y="636.850405"
       width="96.0"
       height="96.0"
       id="c0-2-6" />
    <rect
       x="801.25985"
       y="636.850405"
       width="96.0"
       height="96.0"
       id="c0-8-6" />
  </g>
  <g
     id="c1"
     style="fill:#fff;fill-opacity:1.0;stroke:#ccc;stroke-dasharray:1;stroke-opacity:1.0;stroke-width:1.0">
    <polygon
       points="225.75985000000003,61.85040500000002,320.25985000000003,108.85040500000002,225.75985000000003,155.85040500000002,225.75985000000003,61.85040500000002"
       id="c1-2-0" />
    <polygon
       points="801.75985,61.85040500000002,896.25985,108.85040500000002,801.75985,155.85040500000002,801.75985,61.85040500000002"
       id="c1-8-0" />
    <polygon
       points="225.75985000000003,253.85040500000002,320.25985000000003,300.850405,225.75985000000003,347.850405,225.75985000000003,253.85040500000002"
       id="c1-2-2" />
    <polygon
       points="801.75985,253.85040500000002,896.25985,300.850405,801.75985,347.850405,801.75985,253.85040500000002"
       id="c1-8-2" />
    <polygon
       points="225.75985000000003,445.850405,320.25985000000003,492.850405,225.75985000000003,539.850405,225.75985000000003,445.850405"
       id="c1-2-4" />
    <polygon
       points="801.75985,445.850405,896.25985,492.850405,801.75985,539.850405,801.75985,445.850405"
       id="c1-8-4" />
    <polygon
       points="225.75985000000003,637.850405,320.25985000000003,684.850405,225.75985000000003,731.850405,225.75985000000003,637.850405"
       id="c1-2-6" />
    <polygon
       points="801.75985,637.850405,896.25985,684.850405,801.75985,731.850405,801.75985,637.850405"
       id="c1-8-6" />
  </g>
  <g
     id="d0"
     style="fill:#000;stroke:#fff;stroke-width:0.0">
    <rect
       x="513.25985"
       y="60.85040500000002"
       width="96.0"
       height="96.0"
       id="d0-5-0" />
    <rect
       x="513.25985"
       y="252.85040500000002"
       width="96.0"
       height="96.0"
       id="d0-5-2" />
    <rect
       x="513.25985"
       y="444.850405"
       width="96.0"
       height="96.0"
       id="d0-5-4" />
    <rect
       x="513.25985"
       y="636.850405"
       width="96.0"
       height="96.0"
       id="d0-5-6" />
  </g>
  <g
     id="d1"
     style="fill:#fff;fill-opacity:1.0;stroke:#ccc;stroke-dasharray:1;stroke-opacity:1.0;stroke-width:1.0">
    <polygon
       points="514.25985,108.85040500000002,608.75985,61.85040500000002,608.75985,155.85040500000002,514.25985,108.85040500000002"
       id="d1-5-0" />
    <polygon
       points="514.25985,300.850405,608.75985,253.85040500000002,608.75985,347.850405,514.25985,300.850405"
       id="d1-5-2" />
    <polygon
       points="514.25985,492.850405,608.75985,445.850405,608.75985,539.850405,514.25985,492.850405"
       id="d1-5-4" />
    <polygon
       points="514.25985,684.850405,608.75985,637.850405,608.75985,731.850405,514.25985,684.850405"
       id="d1-5-6" />
  </g>
  <g
     id="e0"
     style="fill:#ccc;stroke:#fff;stroke-width:0.0">
    <rect
       x="33.25985000000003"
       y="156.85040500000002"
       width="96.0"
       height="96.0"
       id="e0-0-1" />
    <rect
       x="225.25985000000003"
       y="156.85040500000002"
       width="96.0"
       height="96.0"
       id="e0-2-1" />
    <rect
       x="417.25985000000003"
       y="156.85040500000002"
       width="96.0"
       height="96.0"
       id="e0-4-1" />
    <rect
       x="609.25985"
       y="156.85040500000002"
       width="96.0"
       height="96.0"
       id="e0-6-1" />
    <rect
       x="801.25985"
       y="156.85040500000002"
       width="96.0"
       height="96.0"
       id="e0-8-1" />
    <rect
       x="993.25985"
       y="156.85040500000002"
       width="96.0"
       height="96.0"
       id="e0-10-1" />
    <rect
       x="33.25985000000003"
       y="348.850405"
       width="96.0"
       height="96.0"
       id="e0-0-3" />
    <rect
       x="225.25985000000003"
       y="348.850405"
       width="96.0"
       height="96.0"
       id="e0-2-3" />
    <rect
       x="417.25985000000003"
       y="348.850405"
       width="96.0"
       height="96.0"
       id="e0-4-3" />
    <rect
       x="609.25985"
       y="348.850405"
       width="96.0"
       height="96.0"
       id="e0-6-3" />
    <rect
       x="801.25985"
       y="348.850405"
       width="96.0"
       height="96.0"
       id="e0-8-3" />
    <rect
       x="993.25985"
       y="348.850405"
       width="96.0"
       height="96.0"
       id="e0-10-3" />
    <rect
       x="33.25985000000003"
       y="540.850405"
       width="96.0"
       height="96.0"
       id="e0-0-5" />
    <rect
       x="225.25985000000003"
       y="540.850405"
       width="96.0"
       height="96.0"
       id="e0-2-5" />
    <rect
       x="417.25985000000003"
       y="540.850405"
       width="96.0"
       height="96.0"
       id="e0-4-5" />
    <rect
       x="609.25985"
       y="540.850405"
       width="96.0"
       height="96.0"
       id="e0-6-5" />
    <rect
       x="801.25985"
       y="540.850405"
       width="96.0"
       height="96.0"
       id="e0-8-5" />
    <rect
       x="993.25985"
       y="540.850405"
       width="96.0"
       height="96.0"
       id="e0-10-5" />
  </g>
  <g
     id="e1"
     style="fill:#000;fill-opacity:1.0;stroke:#fff;stroke-dasharray:0;stroke-opacity:1.0;stroke-width:8.0">
    <rect
       x="37.25985000000003"
       y="160.85040500000002"
       width="88.0"
       height="88.0"
       id="e1-0-1" />
    <rect
       x="229.25985000000003"
       y="160.85040500000002"
       width="88.0"
       height="88.0"
       id="e1-2-1" />
    <rect
       x="421.25985000000003"
       y="160.85040500000002"
       width="88.0"
       height="88.0"
       id="e1-4-1" />
    <rect
       x="613.25985"
       y="160.85040500000002"
       width="88.0"
       height="88.0"
       id="e1-6-1" />
    <rect
       x="805.25985"
       y="160.85040500000002"
       width="88.0"
       height="88.0"
       id="e1-8-1" />
    <rect
       x="997.25985"
       y="160.85040500000002"
       width="88.0"
       height="88.0"
       id="e1-10-1" />
    <rect
       x="37.25985000000003"
       y="352.850405"
       width="88.0"
       height="88.0"
       id="e1-0-3" />
    <rect
       x="229.25985000000003"
       y="352.850405"
       width="88.0"
       height="88.0"
       id="e1-2-3" />
    <rect
       x="421.25985000000003"
       y="352.850405"
       width="88.0"
       height="88.0"
       id="e1-4-3" />
    <rect
       x="613.25985"
       y="352.850405"
       width="88.0"
       height="88.0"
       id="e1-6-3" />
    <rect
       x="805.25985"
       y="352.850405"
       width="88.0"
       height="88.0"
       id="e1-8-3" />
    <rect
       x="997.25985"
       y="352.850405"
       width="88.0"
       height="88.0"
       id="e1-10-3" />
    <rect
       x="37.25985000000003"
       y="544.850405"
       width="88.0"
       height="88.0"
       id="e1-0-5" />
    <rect
       x="229.25985000000003"
       y="544.850405"
       width="88.0"
       height="88.0"
       id="e1-2-5" />
    <rect
       x="421.25985000000003"
       y="544.850405"
       width="88.0"
       height="88.0"
       id="e1-4-5" />
    <rect
       x="613.25985"
       y="544.850405"
       width="88.0"
       height="88.0"
       id="e1-6-5" />
    <rect
       x="805.25985"
       y="544.850405"
       width="88.0"
       height="88.0"
       id="e1-8-5" />
    <rect
       x="997.25985"
       y="544.850405"
       width="88.0"
       height="88.0"
       id="e1-10-5" />
  </g>
  <g
     id="f0"
     style="fill:#ccc;stroke:#fff;stroke-width:0.0">
    <rect
       x="129.25985000000003"
       y="156.85040500000002"
       width="96.0"
       height="96.0"
       id="f0-1-1" />
    <rect
       x="321.25985000000003"
       y="156.85040500000002"
       width="96.0"
       height="96.0"
       id="f0-3-1" />
    <rect
       x="513.25985"
       y="156.85040500000002"
       width="96.0"
       height="96.0"
       id="f0-5-1" />
    <rect
       x="705.25985"
       y="156.85040500000002"
       width="96.0"
       height="96.0"
       id="f0-7-1" />
    <rect
       x="897.25985"
       y="156.85040500000002"
       width="96.0"
       height="96.0"
       id="f0-9-1" />
    <rect
       x="129.25985000000003"
       y="348.850405"
       width="96.0"
       height="96.0"
       id="f0-1-3" />
    <rect
       x="321.25985000000003"
       y="348.850405"
       width="96.0"
       height="96.0"
       id="f0-3-3" />
    <rect
       x="513.25985"
       y="348.850405"
       width="96.0"
       height="96.0"
       id="f0-5-3" />
    <rect
       x="705.25985"
       y="348.850405"
       width="96.0"
       height="96.0"
       id="f0-7-3" />
    <rect
       x="897.25985"
       y="348.850405"
       width="96.0"
       height="96.0"
       id="f0-9-3" />
    <rect
       x="129.25985000000003"
       y="540.850405"
       width="96.0"
       height="96.0"
       id="f0-1-5" />
    <rect
       x="321.25985000000003"
       y="540.850405"
       width="96.0"
       height="96.0"
       id="f0-3-5" />
    <rect
       x="513.25985"
       y="540.850405"
       width="96.0"
       height="96.0"
       id="f0-5-5" />
    <rect
       x="705.25985"
       y="540.850405"
       width="96.0"
       height="96.0"
       id="f0-7-5" />
    <rect
       x="897.25985"
       y="540.850405"
       width="96.0"
       height="96.0"
       id="f0-9-5" />
  </g>
  <g
     id="f1"
     style="fill:#fff;fill-opacity:1.0;stroke:#000;stroke-dasharray:0;stroke-opacity:1.0;stroke-width:8.0">
    <rect
       x="133.25985000000003"
       y="160.85040500000002"
       width="88.0"
       height="88.0"
       id="f1-1-1" />
    <rect
       x="325.25985000000003"
       y="160.85040500000002"
       width="88.0"
       height="88.0"
       id="f1-3-1" />
    <rect
       x="517.25985"
       y="160.85040500000002"
       width="88.0"
       height="88.0"
       id="f1-5-1" />
    <rect
       x="709.25985"
       y="160.85040500000002"
       width="88.0"
       height="88.0"
       id="f1-7-1" />
    <rect
       x="901.25985"
       y="160.85040500000002"
       width="88.0"
       height="88.0"
       id="f1-9-1" />
    <rect
       x="133.25985000000003"
       y="352.850405"
       width="88.0"
       height="88.0"
       id="f1-1-3" />
    <rect
       x="325.25985000000003"
       y="352.850405"
       width="88.0"
       height="88.0"
       id="f1-3-3" />
    <rect
       x="517.25985"
       y="352.850405"
       width="88.0"
       height="88.0"
       id="f1-5-3" />
    <rect
       x="709.25985"
       y="352.850405"
       width="88.0"
       height="88.0"
       id="f1-7-3" />
    <rect
       x="901.25985"
       y="352.850405"
       width="88.0"
       height="88.0"
       id="f1-9-3" />
    <rect
       x="133.25985000000003"
       y="544.850405"
       width="88.0"
       height="88.0"
       id="f1-1-5" />
    <rect
       x="325.25985000000003"
       y="544.850405"
       width="88.0"
       height="88.0"
       id="f1-3-5" />
    <rect
       x="517.25985"
       y="544.850405"
       width="88.0"
       height="88.0"
       id="f1-5-5" />
    <rect
       x="709.25985"
       y="544.850405"
       width="88.0"
       height="88.0"
       id="f1-7-5" />
    <rect
       x="901.25985"
       y="544.850405"
       width="88.0"
       height="88.0"
       id="f1-9-5" />
  </g>
</svg>
