<svg xmlns="http://www.w3.org/2000/svg" xmlns:svg="http://www.w3.org/2000/svg" xmlns:xlink="http://www.w3.org/1999/xlink" xmlns:sodipodi="http://sodipodi.sourceforge.net/DTD/sodipodi-0.dtd" xmlns:inkscape="http://www.inkscape.org/namespaces/inkscape" viewBox="0 0 1122.5197 793.70081" width="1122.5197px" height="793.70081px" recurrink-id="soleares" recurrink-factor="Namespace(input_file='/tmp/soleares.txt', output='/tmp/soleares.svg')">
    <sodipodi:namedview inkscape:document-units="px"/><g id="a0" style="fill:#32CD32;stroke:#fff;stroke-width:0.0"><rect x="33.25985000000003" y="36.85040500000002" width="48.0" height="48.0" id="a0-0-0"/><rect x="129.25985000000003" y="36.85040500000002" width="48.0" height="48.0" id="a0-2-0"/><rect x="177.25985000000003" y="36.85040500000002" width="48.0" height="48.0" id="a0-3-0"/><rect x="273.25985000000003" y="36.85040500000002" width="48.0" height="48.0" id="a0-5-0"/><rect x="321.25985000000003" y="36.85040500000002" width="48.0" height="48.0" id="a0-6-0"/><rect x="417.25985000000003" y="36.85040500000002" width="48.0" height="48.0" id="a0-8-0"/><rect x="465.25985000000003" y="36.85040500000002" width="48.0" height="48.0" id="a0-9-0"/><rect x="561.25985" y="36.85040500000002" width="48.0" height="48.0" id="a0-11-0"/><rect x="609.25985" y="36.85040500000002" width="48.0" height="48.0" id="a0-12-0"/><rect x="705.25985" y="36.85040500000002" width="48.0" height="48.0" id="a0-14-0"/><rect x="753.25985" y="36.85040500000002" width="48.0" height="48.0" id="a0-15-0"/><rect x="849.25985" y="36.85040500000002" width="48.0" height="48.0" id="a0-17-0"/><rect x="897.25985" y="36.85040500000002" width="48.0" height="48.0" id="a0-18-0"/><rect x="993.25985" y="36.85040500000002" width="48.0" height="48.0" id="a0-20-0"/><rect x="1041.25985" y="36.85040500000002" width="48.0" height="48.0" id="a0-21-0"/><rect x="33.25985000000003" y="132.85040500000002" width="48.0" height="48.0" id="a0-0-2"/><rect x="129.25985000000003" y="132.85040500000002" width="48.0" height="48.0" id="a0-2-2"/><rect x="177.25985000000003" y="132.85040500000002" width="48.0" height="48.0" id="a0-3-2"/><rect x="273.25985000000003" y="132.85040500000002" width="48.0" height="48.0" id="a0-5-2"/><rect x="321.25985000000003" y="132.85040500000002" width="48.0" height="48.0" id="a0-6-2"/><rect x="417.25985000000003" y="132.85040500000002" width="48.0" height="48.0" id="a0-8-2"/><rect x="465.25985000000003" y="132.85040500000002" width="48.0" height="48.0" id="a0-9-2"/><rect x="561.25985" y="132.85040500000002" width="48.0" height="48.0" id="a0-11-2"/><rect x="609.25985" y="132.85040500000002" width="48.0" height="48.0" id="a0-12-2"/><rect x="705.25985" y="132.85040500000002" width="48.0" height="48.0" id="a0-14-2"/><rect x="753.25985" y="132.85040500000002" width="48.0" height="48.0" id="a0-15-2"/><rect x="849.25985" y="132.85040500000002" width="48.0" height="48.0" id="a0-17-2"/><rect x="897.25985" y="132.85040500000002" width="48.0" height="48.0" id="a0-18-2"/><rect x="993.25985" y="132.85040500000002" width="48.0" height="48.0" id="a0-20-2"/><rect x="1041.25985" y="132.85040500000002" width="48.0" height="48.0" id="a0-21-2"/><rect x="33.25985000000003" y="228.85040500000002" width="48.0" height="48.0" id="a0-0-4"/><rect x="129.25985000000003" y="228.85040500000002" width="48.0" height="48.0" id="a0-2-4"/><rect x="177.25985000000003" y="228.85040500000002" width="48.0" height="48.0" id="a0-3-4"/><rect x="273.25985000000003" y="228.85040500000002" width="48.0" height="48.0" id="a0-5-4"/><rect x="321.25985000000003" y="228.85040500000002" width="48.0" height="48.0" id="a0-6-4"/><rect x="417.25985000000003" y="228.85040500000002" width="48.0" height="48.0" id="a0-8-4"/><rect x="465.25985000000003" y="228.85040500000002" width="48.0" height="48.0" id="a0-9-4"/><rect x="561.25985" y="228.85040500000002" width="48.0" height="48.0" id="a0-11-4"/><rect x="609.25985" y="228.85040500000002" width="48.0" height="48.0" id="a0-12-4"/><rect x="705.25985" y="228.85040500000002" width="48.0" height="48.0" id="a0-14-4"/><rect x="753.25985" y="228.85040500000002" width="48.0" height="48.0" id="a0-15-4"/><rect x="849.25985" y="228.85040500000002" width="48.0" height="48.0" id="a0-17-4"/><rect x="897.25985" y="228.85040500000002" width="48.0" height="48.0" id="a0-18-4"/><rect x="993.25985" y="228.85040500000002" width="48.0" height="48.0" id="a0-20-4"/><rect x="1041.25985" y="228.85040500000002" width="48.0" height="48.0" id="a0-21-4"/><rect x="33.25985000000003" y="324.850405" width="48.0" height="48.0" id="a0-0-6"/><rect x="129.25985000000003" y="324.850405" width="48.0" height="48.0" id="a0-2-6"/><rect x="177.25985000000003" y="324.850405" width="48.0" height="48.0" id="a0-3-6"/><rect x="273.25985000000003" y="324.850405" width="48.0" height="48.0" id="a0-5-6"/><rect x="321.25985000000003" y="324.850405" width="48.0" height="48.0" id="a0-6-6"/><rect x="417.25985000000003" y="324.850405" width="48.0" height="48.0" id="a0-8-6"/><rect x="465.25985000000003" y="324.850405" width="48.0" height="48.0" id="a0-9-6"/><rect x="561.25985" y="324.850405" width="48.0" height="48.0" id="a0-11-6"/><rect x="609.25985" y="324.850405" width="48.0" height="48.0" id="a0-12-6"/><rect x="705.25985" y="324.850405" width="48.0" height="48.0" id="a0-14-6"/><rect x="753.25985" y="324.850405" width="48.0" height="48.0" id="a0-15-6"/><rect x="849.25985" y="324.850405" width="48.0" height="48.0" id="a0-17-6"/><rect x="897.25985" y="324.850405" width="48.0" height="48.0" id="a0-18-6"/><rect x="993.25985" y="324.850405" width="48.0" height="48.0" id="a0-20-6"/><rect x="1041.25985" y="324.850405" width="48.0" height="48.0" id="a0-21-6"/><rect x="33.25985000000003" y="420.850405" width="48.0" height="48.0" id="a0-0-8"/><rect x="129.25985000000003" y="420.850405" width="48.0" height="48.0" id="a0-2-8"/><rect x="177.25985000000003" y="420.850405" width="48.0" height="48.0" id="a0-3-8"/><rect x="273.25985000000003" y="420.850405" width="48.0" height="48.0" id="a0-5-8"/><rect x="321.25985000000003" y="420.850405" width="48.0" height="48.0" id="a0-6-8"/><rect x="417.25985000000003" y="420.850405" width="48.0" height="48.0" id="a0-8-8"/><rect x="465.25985000000003" y="420.850405" width="48.0" height="48.0" id="a0-9-8"/><rect x="561.25985" y="420.850405" width="48.0" height="48.0" id="a0-11-8"/><rect x="609.25985" y="420.850405" width="48.0" height="48.0" id="a0-12-8"/><rect x="705.25985" y="420.850405" width="48.0" height="48.0" id="a0-14-8"/><rect x="753.25985" y="420.850405" width="48.0" height="48.0" id="a0-15-8"/><rect x="849.25985" y="420.850405" width="48.0" height="48.0" id="a0-17-8"/><rect x="897.25985" y="420.850405" width="48.0" height="48.0" id="a0-18-8"/><rect x="993.25985" y="420.850405" width="48.0" height="48.0" id="a0-20-8"/><rect x="1041.25985" y="420.850405" width="48.0" height="48.0" id="a0-21-8"/><rect x="33.25985000000003" y="516.850405" width="48.0" height="48.0" id="a0-0-10"/><rect x="129.25985000000003" y="516.850405" width="48.0" height="48.0" id="a0-2-10"/><rect x="177.25985000000003" y="516.850405" width="48.0" height="48.0" id="a0-3-10"/><rect x="273.25985000000003" y="516.850405" width="48.0" height="48.0" id="a0-5-10"/><rect x="321.25985000000003" y="516.850405" width="48.0" height="48.0" id="a0-6-10"/><rect x="417.25985000000003" y="516.850405" width="48.0" height="48.0" id="a0-8-10"/><rect x="465.25985000000003" y="516.850405" width="48.0" height="48.0" id="a0-9-10"/><rect x="561.25985" y="516.850405" width="48.0" height="48.0" id="a0-11-10"/><rect x="609.25985" y="516.850405" width="48.0" height="48.0" id="a0-12-10"/><rect x="705.25985" y="516.850405" width="48.0" height="48.0" id="a0-14-10"/><rect x="753.25985" y="516.850405" width="48.0" height="48.0" id="a0-15-10"/><rect x="849.25985" y="516.850405" width="48.0" height="48.0" id="a0-17-10"/><rect x="897.25985" y="516.850405" width="48.0" height="48.0" id="a0-18-10"/><rect x="993.25985" y="516.850405" width="48.0" height="48.0" id="a0-20-10"/><rect x="1041.25985" y="516.850405" width="48.0" height="48.0" id="a0-21-10"/><rect x="33.25985000000003" y="612.850405" width="48.0" height="48.0" id="a0-0-12"/><rect x="129.25985000000003" y="612.850405" width="48.0" height="48.0" id="a0-2-12"/><rect x="177.25985000000003" y="612.850405" width="48.0" height="48.0" id="a0-3-12"/><rect x="273.25985000000003" y="612.850405" width="48.0" height="48.0" id="a0-5-12"/><rect x="321.25985000000003" y="612.850405" width="48.0" height="48.0" id="a0-6-12"/><rect x="417.25985000000003" y="612.850405" width="48.0" height="48.0" id="a0-8-12"/><rect x="465.25985000000003" y="612.850405" width="48.0" height="48.0" id="a0-9-12"/><rect x="561.25985" y="612.850405" width="48.0" height="48.0" id="a0-11-12"/><rect x="609.25985" y="612.850405" width="48.0" height="48.0" id="a0-12-12"/><rect x="705.25985" y="612.850405" width="48.0" height="48.0" id="a0-14-12"/><rect x="753.25985" y="612.850405" width="48.0" height="48.0" id="a0-15-12"/><rect x="849.25985" y="612.850405" width="48.0" height="48.0" id="a0-17-12"/><rect x="897.25985" y="612.850405" width="48.0" height="48.0" id="a0-18-12"/><rect x="993.25985" y="612.850405" width="48.0" height="48.0" id="a0-20-12"/><rect x="1041.25985" y="612.850405" width="48.0" height="48.0" id="a0-21-12"/><rect x="33.25985000000003" y="708.850405" width="48.0" height="48.0" id="a0-0-14"/><rect x="129.25985000000003" y="708.850405" width="48.0" height="48.0" id="a0-2-14"/><rect x="177.25985000000003" y="708.850405" width="48.0" height="48.0" id="a0-3-14"/><rect x="273.25985000000003" y="708.850405" width="48.0" height="48.0" id="a0-5-14"/><rect x="321.25985000000003" y="708.850405" width="48.0" height="48.0" id="a0-6-14"/><rect x="417.25985000000003" y="708.850405" width="48.0" height="48.0" id="a0-8-14"/><rect x="465.25985000000003" y="708.850405" width="48.0" height="48.0" id="a0-9-14"/><rect x="561.25985" y="708.850405" width="48.0" height="48.0" id="a0-11-14"/><rect x="609.25985" y="708.850405" width="48.0" height="48.0" id="a0-12-14"/><rect x="705.25985" y="708.850405" width="48.0" height="48.0" id="a0-14-14"/><rect x="753.25985" y="708.850405" width="48.0" height="48.0" id="a0-15-14"/><rect x="849.25985" y="708.850405" width="48.0" height="48.0" id="a0-17-14"/><rect x="897.25985" y="708.850405" width="48.0" height="48.0" id="a0-18-14"/><rect x="993.25985" y="708.850405" width="48.0" height="48.0" id="a0-20-14"/><rect x="1041.25985" y="708.850405" width="48.0" height="48.0" id="a0-21-14"/></g><g id="a1" style="fill:#FFF;fill-opacity:1.0;stroke:#000;stroke-dasharray:0;stroke-opacity:1.0;stroke-width:0.0"><rect x="17.25985000000003" y="52.85040500000002" width="80.0" height="16.0" id="a1-0-0"/><rect x="113.25985000000003" y="52.85040500000002" width="80.0" height="16.0" id="a1-2-0"/><rect x="161.25985000000003" y="52.85040500000002" width="80.0" height="16.0" id="a1-3-0"/><rect x="257.25985000000003" y="52.85040500000002" width="80.0" height="16.0" id="a1-5-0"/><rect x="305.25985000000003" y="52.85040500000002" width="80.0" height="16.0" id="a1-6-0"/><rect x="401.25985000000003" y="52.85040500000002" width="80.0" height="16.0" id="a1-8-0"/><rect x="449.25985000000003" y="52.85040500000002" width="80.0" height="16.0" id="a1-9-0"/><rect x="545.25985" y="52.85040500000002" width="80.0" height="16.0" id="a1-11-0"/><rect x="593.25985" y="52.85040500000002" width="80.0" height="16.0" id="a1-12-0"/><rect x="689.25985" y="52.85040500000002" width="80.0" height="16.0" id="a1-14-0"/><rect x="737.25985" y="52.85040500000002" width="80.0" height="16.0" id="a1-15-0"/><rect x="833.25985" y="52.85040500000002" width="80.0" height="16.0" id="a1-17-0"/><rect x="881.25985" y="52.85040500000002" width="80.0" height="16.0" id="a1-18-0"/><rect x="977.25985" y="52.85040500000002" width="80.0" height="16.0" id="a1-20-0"/><rect x="1025.25985" y="52.85040500000002" width="80.0" height="16.0" id="a1-21-0"/><rect x="17.25985000000003" y="148.85040500000002" width="80.0" height="16.0" id="a1-0-2"/><rect x="113.25985000000003" y="148.85040500000002" width="80.0" height="16.0" id="a1-2-2"/><rect x="161.25985000000003" y="148.85040500000002" width="80.0" height="16.0" id="a1-3-2"/><rect x="257.25985000000003" y="148.85040500000002" width="80.0" height="16.0" id="a1-5-2"/><rect x="305.25985000000003" y="148.85040500000002" width="80.0" height="16.0" id="a1-6-2"/><rect x="401.25985000000003" y="148.85040500000002" width="80.0" height="16.0" id="a1-8-2"/><rect x="449.25985000000003" y="148.85040500000002" width="80.0" height="16.0" id="a1-9-2"/><rect x="545.25985" y="148.85040500000002" width="80.0" height="16.0" id="a1-11-2"/><rect x="593.25985" y="148.85040500000002" width="80.0" height="16.0" id="a1-12-2"/><rect x="689.25985" y="148.85040500000002" width="80.0" height="16.0" id="a1-14-2"/><rect x="737.25985" y="148.85040500000002" width="80.0" height="16.0" id="a1-15-2"/><rect x="833.25985" y="148.85040500000002" width="80.0" height="16.0" id="a1-17-2"/><rect x="881.25985" y="148.85040500000002" width="80.0" height="16.0" id="a1-18-2"/><rect x="977.25985" y="148.85040500000002" width="80.0" height="16.0" id="a1-20-2"/><rect x="1025.25985" y="148.85040500000002" width="80.0" height="16.0" id="a1-21-2"/><rect x="17.25985000000003" y="244.85040500000002" width="80.0" height="16.0" id="a1-0-4"/><rect x="113.25985000000003" y="244.85040500000002" width="80.0" height="16.0" id="a1-2-4"/><rect x="161.25985000000003" y="244.85040500000002" width="80.0" height="16.0" id="a1-3-4"/><rect x="257.25985000000003" y="244.85040500000002" width="80.0" height="16.0" id="a1-5-4"/><rect x="305.25985000000003" y="244.85040500000002" width="80.0" height="16.0" id="a1-6-4"/><rect x="401.25985000000003" y="244.85040500000002" width="80.0" height="16.0" id="a1-8-4"/><rect x="449.25985000000003" y="244.85040500000002" width="80.0" height="16.0" id="a1-9-4"/><rect x="545.25985" y="244.85040500000002" width="80.0" height="16.0" id="a1-11-4"/><rect x="593.25985" y="244.85040500000002" width="80.0" height="16.0" id="a1-12-4"/><rect x="689.25985" y="244.85040500000002" width="80.0" height="16.0" id="a1-14-4"/><rect x="737.25985" y="244.85040500000002" width="80.0" height="16.0" id="a1-15-4"/><rect x="833.25985" y="244.85040500000002" width="80.0" height="16.0" id="a1-17-4"/><rect x="881.25985" y="244.85040500000002" width="80.0" height="16.0" id="a1-18-4"/><rect x="977.25985" y="244.85040500000002" width="80.0" height="16.0" id="a1-20-4"/><rect x="1025.25985" y="244.85040500000002" width="80.0" height="16.0" id="a1-21-4"/><rect x="17.25985000000003" y="340.850405" width="80.0" height="16.0" id="a1-0-6"/><rect x="113.25985000000003" y="340.850405" width="80.0" height="16.0" id="a1-2-6"/><rect x="161.25985000000003" y="340.850405" width="80.0" height="16.0" id="a1-3-6"/><rect x="257.25985000000003" y="340.850405" width="80.0" height="16.0" id="a1-5-6"/><rect x="305.25985000000003" y="340.850405" width="80.0" height="16.0" id="a1-6-6"/><rect x="401.25985000000003" y="340.850405" width="80.0" height="16.0" id="a1-8-6"/><rect x="449.25985000000003" y="340.850405" width="80.0" height="16.0" id="a1-9-6"/><rect x="545.25985" y="340.850405" width="80.0" height="16.0" id="a1-11-6"/><rect x="593.25985" y="340.850405" width="80.0" height="16.0" id="a1-12-6"/><rect x="689.25985" y="340.850405" width="80.0" height="16.0" id="a1-14-6"/><rect x="737.25985" y="340.850405" width="80.0" height="16.0" id="a1-15-6"/><rect x="833.25985" y="340.850405" width="80.0" height="16.0" id="a1-17-6"/><rect x="881.25985" y="340.850405" width="80.0" height="16.0" id="a1-18-6"/><rect x="977.25985" y="340.850405" width="80.0" height="16.0" id="a1-20-6"/><rect x="1025.25985" y="340.850405" width="80.0" height="16.0" id="a1-21-6"/><rect x="17.25985000000003" y="436.850405" width="80.0" height="16.0" id="a1-0-8"/><rect x="113.25985000000003" y="436.850405" width="80.0" height="16.0" id="a1-2-8"/><rect x="161.25985000000003" y="436.850405" width="80.0" height="16.0" id="a1-3-8"/><rect x="257.25985000000003" y="436.850405" width="80.0" height="16.0" id="a1-5-8"/><rect x="305.25985000000003" y="436.850405" width="80.0" height="16.0" id="a1-6-8"/><rect x="401.25985000000003" y="436.850405" width="80.0" height="16.0" id="a1-8-8"/><rect x="449.25985000000003" y="436.850405" width="80.0" height="16.0" id="a1-9-8"/><rect x="545.25985" y="436.850405" width="80.0" height="16.0" id="a1-11-8"/><rect x="593.25985" y="436.850405" width="80.0" height="16.0" id="a1-12-8"/><rect x="689.25985" y="436.850405" width="80.0" height="16.0" id="a1-14-8"/><rect x="737.25985" y="436.850405" width="80.0" height="16.0" id="a1-15-8"/><rect x="833.25985" y="436.850405" width="80.0" height="16.0" id="a1-17-8"/><rect x="881.25985" y="436.850405" width="80.0" height="16.0" id="a1-18-8"/><rect x="977.25985" y="436.850405" width="80.0" height="16.0" id="a1-20-8"/><rect x="1025.25985" y="436.850405" width="80.0" height="16.0" id="a1-21-8"/><rect x="17.25985000000003" y="532.850405" width="80.0" height="16.0" id="a1-0-10"/><rect x="113.25985000000003" y="532.850405" width="80.0" height="16.0" id="a1-2-10"/><rect x="161.25985000000003" y="532.850405" width="80.0" height="16.0" id="a1-3-10"/><rect x="257.25985000000003" y="532.850405" width="80.0" height="16.0" id="a1-5-10"/><rect x="305.25985000000003" y="532.850405" width="80.0" height="16.0" id="a1-6-10"/><rect x="401.25985000000003" y="532.850405" width="80.0" height="16.0" id="a1-8-10"/><rect x="449.25985000000003" y="532.850405" width="80.0" height="16.0" id="a1-9-10"/><rect x="545.25985" y="532.850405" width="80.0" height="16.0" id="a1-11-10"/><rect x="593.25985" y="532.850405" width="80.0" height="16.0" id="a1-12-10"/><rect x="689.25985" y="532.850405" width="80.0" height="16.0" id="a1-14-10"/><rect x="737.25985" y="532.850405" width="80.0" height="16.0" id="a1-15-10"/><rect x="833.25985" y="532.850405" width="80.0" height="16.0" id="a1-17-10"/><rect x="881.25985" y="532.850405" width="80.0" height="16.0" id="a1-18-10"/><rect x="977.25985" y="532.850405" width="80.0" height="16.0" id="a1-20-10"/><rect x="1025.25985" y="532.850405" width="80.0" height="16.0" id="a1-21-10"/><rect x="17.25985000000003" y="628.850405" width="80.0" height="16.0" id="a1-0-12"/><rect x="113.25985000000003" y="628.850405" width="80.0" height="16.0" id="a1-2-12"/><rect x="161.25985000000003" y="628.850405" width="80.0" height="16.0" id="a1-3-12"/><rect x="257.25985000000003" y="628.850405" width="80.0" height="16.0" id="a1-5-12"/><rect x="305.25985000000003" y="628.850405" width="80.0" height="16.0" id="a1-6-12"/><rect x="401.25985000000003" y="628.850405" width="80.0" height="16.0" id="a1-8-12"/><rect x="449.25985000000003" y="628.850405" width="80.0" height="16.0" id="a1-9-12"/><rect x="545.25985" y="628.850405" width="80.0" height="16.0" id="a1-11-12"/><rect x="593.25985" y="628.850405" width="80.0" height="16.0" id="a1-12-12"/><rect x="689.25985" y="628.850405" width="80.0" height="16.0" id="a1-14-12"/><rect x="737.25985" y="628.850405" width="80.0" height="16.0" id="a1-15-12"/><rect x="833.25985" y="628.850405" width="80.0" height="16.0" id="a1-17-12"/><rect x="881.25985" y="628.850405" width="80.0" height="16.0" id="a1-18-12"/><rect x="977.25985" y="628.850405" width="80.0" height="16.0" id="a1-20-12"/><rect x="1025.25985" y="628.850405" width="80.0" height="16.0" id="a1-21-12"/><rect x="17.25985000000003" y="724.850405" width="80.0" height="16.0" id="a1-0-14"/><rect x="113.25985000000003" y="724.850405" width="80.0" height="16.0" id="a1-2-14"/><rect x="161.25985000000003" y="724.850405" width="80.0" height="16.0" id="a1-3-14"/><rect x="257.25985000000003" y="724.850405" width="80.0" height="16.0" id="a1-5-14"/><rect x="305.25985000000003" y="724.850405" width="80.0" height="16.0" id="a1-6-14"/><rect x="401.25985000000003" y="724.850405" width="80.0" height="16.0" id="a1-8-14"/><rect x="449.25985000000003" y="724.850405" width="80.0" height="16.0" id="a1-9-14"/><rect x="545.25985" y="724.850405" width="80.0" height="16.0" id="a1-11-14"/><rect x="593.25985" y="724.850405" width="80.0" height="16.0" id="a1-12-14"/><rect x="689.25985" y="724.850405" width="80.0" height="16.0" id="a1-14-14"/><rect x="737.25985" y="724.850405" width="80.0" height="16.0" id="a1-15-14"/><rect x="833.25985" y="724.850405" width="80.0" height="16.0" id="a1-17-14"/><rect x="881.25985" y="724.850405" width="80.0" height="16.0" id="a1-18-14"/><rect x="977.25985" y="724.850405" width="80.0" height="16.0" id="a1-20-14"/><rect x="1025.25985" y="724.850405" width="80.0" height="16.0" id="a1-21-14"/></g><g id="b0" style="fill:#CCC;stroke:#fff;stroke-width:0.0"><rect x="81.25985000000003" y="36.85040500000002" width="48.0" height="48.0" id="b0-1-0"/><rect x="225.25985000000003" y="36.85040500000002" width="48.0" height="48.0" id="b0-4-0"/><rect x="369.25985000000003" y="36.85040500000002" width="48.0" height="48.0" id="b0-7-0"/><rect x="513.25985" y="36.85040500000002" width="48.0" height="48.0" id="b0-10-0"/><rect x="657.25985" y="36.85040500000002" width="48.0" height="48.0" id="b0-13-0"/><rect x="801.25985" y="36.85040500000002" width="48.0" height="48.0" id="b0-16-0"/><rect x="945.25985" y="36.85040500000002" width="48.0" height="48.0" id="b0-19-0"/><rect x="81.25985000000003" y="132.85040500000002" width="48.0" height="48.0" id="b0-1-2"/><rect x="225.25985000000003" y="132.85040500000002" width="48.0" height="48.0" id="b0-4-2"/><rect x="369.25985000000003" y="132.85040500000002" width="48.0" height="48.0" id="b0-7-2"/><rect x="513.25985" y="132.85040500000002" width="48.0" height="48.0" id="b0-10-2"/><rect x="657.25985" y="132.85040500000002" width="48.0" height="48.0" id="b0-13-2"/><rect x="801.25985" y="132.85040500000002" width="48.0" height="48.0" id="b0-16-2"/><rect x="945.25985" y="132.85040500000002" width="48.0" height="48.0" id="b0-19-2"/><rect x="81.25985000000003" y="228.85040500000002" width="48.0" height="48.0" id="b0-1-4"/><rect x="225.25985000000003" y="228.85040500000002" width="48.0" height="48.0" id="b0-4-4"/><rect x="369.25985000000003" y="228.85040500000002" width="48.0" height="48.0" id="b0-7-4"/><rect x="513.25985" y="228.85040500000002" width="48.0" height="48.0" id="b0-10-4"/><rect x="657.25985" y="228.85040500000002" width="48.0" height="48.0" id="b0-13-4"/><rect x="801.25985" y="228.85040500000002" width="48.0" height="48.0" id="b0-16-4"/><rect x="945.25985" y="228.85040500000002" width="48.0" height="48.0" id="b0-19-4"/><rect x="81.25985000000003" y="324.850405" width="48.0" height="48.0" id="b0-1-6"/><rect x="225.25985000000003" y="324.850405" width="48.0" height="48.0" id="b0-4-6"/><rect x="369.25985000000003" y="324.850405" width="48.0" height="48.0" id="b0-7-6"/><rect x="513.25985" y="324.850405" width="48.0" height="48.0" id="b0-10-6"/><rect x="657.25985" y="324.850405" width="48.0" height="48.0" id="b0-13-6"/><rect x="801.25985" y="324.850405" width="48.0" height="48.0" id="b0-16-6"/><rect x="945.25985" y="324.850405" width="48.0" height="48.0" id="b0-19-6"/><rect x="81.25985000000003" y="420.850405" width="48.0" height="48.0" id="b0-1-8"/><rect x="225.25985000000003" y="420.850405" width="48.0" height="48.0" id="b0-4-8"/><rect x="369.25985000000003" y="420.850405" width="48.0" height="48.0" id="b0-7-8"/><rect x="513.25985" y="420.850405" width="48.0" height="48.0" id="b0-10-8"/><rect x="657.25985" y="420.850405" width="48.0" height="48.0" id="b0-13-8"/><rect x="801.25985" y="420.850405" width="48.0" height="48.0" id="b0-16-8"/><rect x="945.25985" y="420.850405" width="48.0" height="48.0" id="b0-19-8"/><rect x="81.25985000000003" y="516.850405" width="48.0" height="48.0" id="b0-1-10"/><rect x="225.25985000000003" y="516.850405" width="48.0" height="48.0" id="b0-4-10"/><rect x="369.25985000000003" y="516.850405" width="48.0" height="48.0" id="b0-7-10"/><rect x="513.25985" y="516.850405" width="48.0" height="48.0" id="b0-10-10"/><rect x="657.25985" y="516.850405" width="48.0" height="48.0" id="b0-13-10"/><rect x="801.25985" y="516.850405" width="48.0" height="48.0" id="b0-16-10"/><rect x="945.25985" y="516.850405" width="48.0" height="48.0" id="b0-19-10"/><rect x="81.25985000000003" y="612.850405" width="48.0" height="48.0" id="b0-1-12"/><rect x="225.25985000000003" y="612.850405" width="48.0" height="48.0" id="b0-4-12"/><rect x="369.25985000000003" y="612.850405" width="48.0" height="48.0" id="b0-7-12"/><rect x="513.25985" y="612.850405" width="48.0" height="48.0" id="b0-10-12"/><rect x="657.25985" y="612.850405" width="48.0" height="48.0" id="b0-13-12"/><rect x="801.25985" y="612.850405" width="48.0" height="48.0" id="b0-16-12"/><rect x="945.25985" y="612.850405" width="48.0" height="48.0" id="b0-19-12"/><rect x="81.25985000000003" y="708.850405" width="48.0" height="48.0" id="b0-1-14"/><rect x="225.25985000000003" y="708.850405" width="48.0" height="48.0" id="b0-4-14"/><rect x="369.25985000000003" y="708.850405" width="48.0" height="48.0" id="b0-7-14"/><rect x="513.25985" y="708.850405" width="48.0" height="48.0" id="b0-10-14"/><rect x="657.25985" y="708.850405" width="48.0" height="48.0" id="b0-13-14"/><rect x="801.25985" y="708.850405" width="48.0" height="48.0" id="b0-16-14"/><rect x="945.25985" y="708.850405" width="48.0" height="48.0" id="b0-19-14"/></g><g id="b1" style="fill:#FFF;fill-opacity:1.0;stroke:#000;stroke-dasharray:0;stroke-opacity:1.0;stroke-width:0.0"><circle cx="105.25985000000003" cy="60.85040500000002" r="24.0" id="b1-1-0"/><circle cx="249.25985000000003" cy="60.85040500000002" r="24.0" id="b1-4-0"/><circle cx="393.25985000000003" cy="60.85040500000002" r="24.0" id="b1-7-0"/><circle cx="537.25985" cy="60.85040500000002" r="24.0" id="b1-10-0"/><circle cx="681.25985" cy="60.85040500000002" r="24.0" id="b1-13-0"/><circle cx="825.25985" cy="60.85040500000002" r="24.0" id="b1-16-0"/><circle cx="969.25985" cy="60.85040500000002" r="24.0" id="b1-19-0"/><circle cx="105.25985000000003" cy="156.85040500000002" r="24.0" id="b1-1-2"/><circle cx="249.25985000000003" cy="156.85040500000002" r="24.0" id="b1-4-2"/><circle cx="393.25985000000003" cy="156.85040500000002" r="24.0" id="b1-7-2"/><circle cx="537.25985" cy="156.85040500000002" r="24.0" id="b1-10-2"/><circle cx="681.25985" cy="156.85040500000002" r="24.0" id="b1-13-2"/><circle cx="825.25985" cy="156.85040500000002" r="24.0" id="b1-16-2"/><circle cx="969.25985" cy="156.85040500000002" r="24.0" id="b1-19-2"/><circle cx="105.25985000000003" cy="252.85040500000002" r="24.0" id="b1-1-4"/><circle cx="249.25985000000003" cy="252.85040500000002" r="24.0" id="b1-4-4"/><circle cx="393.25985000000003" cy="252.85040500000002" r="24.0" id="b1-7-4"/><circle cx="537.25985" cy="252.85040500000002" r="24.0" id="b1-10-4"/><circle cx="681.25985" cy="252.85040500000002" r="24.0" id="b1-13-4"/><circle cx="825.25985" cy="252.85040500000002" r="24.0" id="b1-16-4"/><circle cx="969.25985" cy="252.85040500000002" r="24.0" id="b1-19-4"/><circle cx="105.25985000000003" cy="348.850405" r="24.0" id="b1-1-6"/><circle cx="249.25985000000003" cy="348.850405" r="24.0" id="b1-4-6"/><circle cx="393.25985000000003" cy="348.850405" r="24.0" id="b1-7-6"/><circle cx="537.25985" cy="348.850405" r="24.0" id="b1-10-6"/><circle cx="681.25985" cy="348.850405" r="24.0" id="b1-13-6"/><circle cx="825.25985" cy="348.850405" r="24.0" id="b1-16-6"/><circle cx="969.25985" cy="348.850405" r="24.0" id="b1-19-6"/><circle cx="105.25985000000003" cy="444.850405" r="24.0" id="b1-1-8"/><circle cx="249.25985000000003" cy="444.850405" r="24.0" id="b1-4-8"/><circle cx="393.25985000000003" cy="444.850405" r="24.0" id="b1-7-8"/><circle cx="537.25985" cy="444.850405" r="24.0" id="b1-10-8"/><circle cx="681.25985" cy="444.850405" r="24.0" id="b1-13-8"/><circle cx="825.25985" cy="444.850405" r="24.0" id="b1-16-8"/><circle cx="969.25985" cy="444.850405" r="24.0" id="b1-19-8"/><circle cx="105.25985000000003" cy="540.850405" r="24.0" id="b1-1-10"/><circle cx="249.25985000000003" cy="540.850405" r="24.0" id="b1-4-10"/><circle cx="393.25985000000003" cy="540.850405" r="24.0" id="b1-7-10"/><circle cx="537.25985" cy="540.850405" r="24.0" id="b1-10-10"/><circle cx="681.25985" cy="540.850405" r="24.0" id="b1-13-10"/><circle cx="825.25985" cy="540.850405" r="24.0" id="b1-16-10"/><circle cx="969.25985" cy="540.850405" r="24.0" id="b1-19-10"/><circle cx="105.25985000000003" cy="636.850405" r="24.0" id="b1-1-12"/><circle cx="249.25985000000003" cy="636.850405" r="24.0" id="b1-4-12"/><circle cx="393.25985000000003" cy="636.850405" r="24.0" id="b1-7-12"/><circle cx="537.25985" cy="636.850405" r="24.0" id="b1-10-12"/><circle cx="681.25985" cy="636.850405" r="24.0" id="b1-13-12"/><circle cx="825.25985" cy="636.850405" r="24.0" id="b1-16-12"/><circle cx="969.25985" cy="636.850405" r="24.0" id="b1-19-12"/><circle cx="105.25985000000003" cy="732.850405" r="24.0" id="b1-1-14"/><circle cx="249.25985000000003" cy="732.850405" r="24.0" id="b1-4-14"/><circle cx="393.25985000000003" cy="732.850405" r="24.0" id="b1-7-14"/><circle cx="537.25985" cy="732.850405" r="24.0" id="b1-10-14"/><circle cx="681.25985" cy="732.850405" r="24.0" id="b1-13-14"/><circle cx="825.25985" cy="732.850405" r="24.0" id="b1-16-14"/><circle cx="969.25985" cy="732.850405" r="24.0" id="b1-19-14"/></g><g id="c0" style="fill:#9ACD32;stroke:#fff;stroke-width:0.0"><rect x="33.25985000000003" y="84.85040500000002" width="48.0" height="48.0" id="c0-0-1"/><rect x="129.25985000000003" y="84.85040500000002" width="48.0" height="48.0" id="c0-2-1"/><rect x="177.25985000000003" y="84.85040500000002" width="48.0" height="48.0" id="c0-3-1"/><rect x="273.25985000000003" y="84.85040500000002" width="48.0" height="48.0" id="c0-5-1"/><rect x="321.25985000000003" y="84.85040500000002" width="48.0" height="48.0" id="c0-6-1"/><rect x="417.25985000000003" y="84.85040500000002" width="48.0" height="48.0" id="c0-8-1"/><rect x="465.25985000000003" y="84.85040500000002" width="48.0" height="48.0" id="c0-9-1"/><rect x="561.25985" y="84.85040500000002" width="48.0" height="48.0" id="c0-11-1"/><rect x="609.25985" y="84.85040500000002" width="48.0" height="48.0" id="c0-12-1"/><rect x="705.25985" y="84.85040500000002" width="48.0" height="48.0" id="c0-14-1"/><rect x="753.25985" y="84.85040500000002" width="48.0" height="48.0" id="c0-15-1"/><rect x="849.25985" y="84.85040500000002" width="48.0" height="48.0" id="c0-17-1"/><rect x="897.25985" y="84.85040500000002" width="48.0" height="48.0" id="c0-18-1"/><rect x="993.25985" y="84.85040500000002" width="48.0" height="48.0" id="c0-20-1"/><rect x="1041.25985" y="84.85040500000002" width="48.0" height="48.0" id="c0-21-1"/><rect x="33.25985000000003" y="180.85040500000002" width="48.0" height="48.0" id="c0-0-3"/><rect x="129.25985000000003" y="180.85040500000002" width="48.0" height="48.0" id="c0-2-3"/><rect x="177.25985000000003" y="180.85040500000002" width="48.0" height="48.0" id="c0-3-3"/><rect x="273.25985000000003" y="180.85040500000002" width="48.0" height="48.0" id="c0-5-3"/><rect x="321.25985000000003" y="180.85040500000002" width="48.0" height="48.0" id="c0-6-3"/><rect x="417.25985000000003" y="180.85040500000002" width="48.0" height="48.0" id="c0-8-3"/><rect x="465.25985000000003" y="180.85040500000002" width="48.0" height="48.0" id="c0-9-3"/><rect x="561.25985" y="180.85040500000002" width="48.0" height="48.0" id="c0-11-3"/><rect x="609.25985" y="180.85040500000002" width="48.0" height="48.0" id="c0-12-3"/><rect x="705.25985" y="180.85040500000002" width="48.0" height="48.0" id="c0-14-3"/><rect x="753.25985" y="180.85040500000002" width="48.0" height="48.0" id="c0-15-3"/><rect x="849.25985" y="180.85040500000002" width="48.0" height="48.0" id="c0-17-3"/><rect x="897.25985" y="180.85040500000002" width="48.0" height="48.0" id="c0-18-3"/><rect x="993.25985" y="180.85040500000002" width="48.0" height="48.0" id="c0-20-3"/><rect x="1041.25985" y="180.85040500000002" width="48.0" height="48.0" id="c0-21-3"/><rect x="33.25985000000003" y="276.850405" width="48.0" height="48.0" id="c0-0-5"/><rect x="129.25985000000003" y="276.850405" width="48.0" height="48.0" id="c0-2-5"/><rect x="177.25985000000003" y="276.850405" width="48.0" height="48.0" id="c0-3-5"/><rect x="273.25985000000003" y="276.850405" width="48.0" height="48.0" id="c0-5-5"/><rect x="321.25985000000003" y="276.850405" width="48.0" height="48.0" id="c0-6-5"/><rect x="417.25985000000003" y="276.850405" width="48.0" height="48.0" id="c0-8-5"/><rect x="465.25985000000003" y="276.850405" width="48.0" height="48.0" id="c0-9-5"/><rect x="561.25985" y="276.850405" width="48.0" height="48.0" id="c0-11-5"/><rect x="609.25985" y="276.850405" width="48.0" height="48.0" id="c0-12-5"/><rect x="705.25985" y="276.850405" width="48.0" height="48.0" id="c0-14-5"/><rect x="753.25985" y="276.850405" width="48.0" height="48.0" id="c0-15-5"/><rect x="849.25985" y="276.850405" width="48.0" height="48.0" id="c0-17-5"/><rect x="897.25985" y="276.850405" width="48.0" height="48.0" id="c0-18-5"/><rect x="993.25985" y="276.850405" width="48.0" height="48.0" id="c0-20-5"/><rect x="1041.25985" y="276.850405" width="48.0" height="48.0" id="c0-21-5"/><rect x="33.25985000000003" y="372.850405" width="48.0" height="48.0" id="c0-0-7"/><rect x="129.25985000000003" y="372.850405" width="48.0" height="48.0" id="c0-2-7"/><rect x="177.25985000000003" y="372.850405" width="48.0" height="48.0" id="c0-3-7"/><rect x="273.25985000000003" y="372.850405" width="48.0" height="48.0" id="c0-5-7"/><rect x="321.25985000000003" y="372.850405" width="48.0" height="48.0" id="c0-6-7"/><rect x="417.25985000000003" y="372.850405" width="48.0" height="48.0" id="c0-8-7"/><rect x="465.25985000000003" y="372.850405" width="48.0" height="48.0" id="c0-9-7"/><rect x="561.25985" y="372.850405" width="48.0" height="48.0" id="c0-11-7"/><rect x="609.25985" y="372.850405" width="48.0" height="48.0" id="c0-12-7"/><rect x="705.25985" y="372.850405" width="48.0" height="48.0" id="c0-14-7"/><rect x="753.25985" y="372.850405" width="48.0" height="48.0" id="c0-15-7"/><rect x="849.25985" y="372.850405" width="48.0" height="48.0" id="c0-17-7"/><rect x="897.25985" y="372.850405" width="48.0" height="48.0" id="c0-18-7"/><rect x="993.25985" y="372.850405" width="48.0" height="48.0" id="c0-20-7"/><rect x="1041.25985" y="372.850405" width="48.0" height="48.0" id="c0-21-7"/><rect x="33.25985000000003" y="468.850405" width="48.0" height="48.0" id="c0-0-9"/><rect x="129.25985000000003" y="468.850405" width="48.0" height="48.0" id="c0-2-9"/><rect x="177.25985000000003" y="468.850405" width="48.0" height="48.0" id="c0-3-9"/><rect x="273.25985000000003" y="468.850405" width="48.0" height="48.0" id="c0-5-9"/><rect x="321.25985000000003" y="468.850405" width="48.0" height="48.0" id="c0-6-9"/><rect x="417.25985000000003" y="468.850405" width="48.0" height="48.0" id="c0-8-9"/><rect x="465.25985000000003" y="468.850405" width="48.0" height="48.0" id="c0-9-9"/><rect x="561.25985" y="468.850405" width="48.0" height="48.0" id="c0-11-9"/><rect x="609.25985" y="468.850405" width="48.0" height="48.0" id="c0-12-9"/><rect x="705.25985" y="468.850405" width="48.0" height="48.0" id="c0-14-9"/><rect x="753.25985" y="468.850405" width="48.0" height="48.0" id="c0-15-9"/><rect x="849.25985" y="468.850405" width="48.0" height="48.0" id="c0-17-9"/><rect x="897.25985" y="468.850405" width="48.0" height="48.0" id="c0-18-9"/><rect x="993.25985" y="468.850405" width="48.0" height="48.0" id="c0-20-9"/><rect x="1041.25985" y="468.850405" width="48.0" height="48.0" id="c0-21-9"/><rect x="33.25985000000003" y="564.850405" width="48.0" height="48.0" id="c0-0-11"/><rect x="129.25985000000003" y="564.850405" width="48.0" height="48.0" id="c0-2-11"/><rect x="177.25985000000003" y="564.850405" width="48.0" height="48.0" id="c0-3-11"/><rect x="273.25985000000003" y="564.850405" width="48.0" height="48.0" id="c0-5-11"/><rect x="321.25985000000003" y="564.850405" width="48.0" height="48.0" id="c0-6-11"/><rect x="417.25985000000003" y="564.850405" width="48.0" height="48.0" id="c0-8-11"/><rect x="465.25985000000003" y="564.850405" width="48.0" height="48.0" id="c0-9-11"/><rect x="561.25985" y="564.850405" width="48.0" height="48.0" id="c0-11-11"/><rect x="609.25985" y="564.850405" width="48.0" height="48.0" id="c0-12-11"/><rect x="705.25985" y="564.850405" width="48.0" height="48.0" id="c0-14-11"/><rect x="753.25985" y="564.850405" width="48.0" height="48.0" id="c0-15-11"/><rect x="849.25985" y="564.850405" width="48.0" height="48.0" id="c0-17-11"/><rect x="897.25985" y="564.850405" width="48.0" height="48.0" id="c0-18-11"/><rect x="993.25985" y="564.850405" width="48.0" height="48.0" id="c0-20-11"/><rect x="1041.25985" y="564.850405" width="48.0" height="48.0" id="c0-21-11"/><rect x="33.25985000000003" y="660.850405" width="48.0" height="48.0" id="c0-0-13"/><rect x="129.25985000000003" y="660.850405" width="48.0" height="48.0" id="c0-2-13"/><rect x="177.25985000000003" y="660.850405" width="48.0" height="48.0" id="c0-3-13"/><rect x="273.25985000000003" y="660.850405" width="48.0" height="48.0" id="c0-5-13"/><rect x="321.25985000000003" y="660.850405" width="48.0" height="48.0" id="c0-6-13"/><rect x="417.25985000000003" y="660.850405" width="48.0" height="48.0" id="c0-8-13"/><rect x="465.25985000000003" y="660.850405" width="48.0" height="48.0" id="c0-9-13"/><rect x="561.25985" y="660.850405" width="48.0" height="48.0" id="c0-11-13"/><rect x="609.25985" y="660.850405" width="48.0" height="48.0" id="c0-12-13"/><rect x="705.25985" y="660.850405" width="48.0" height="48.0" id="c0-14-13"/><rect x="753.25985" y="660.850405" width="48.0" height="48.0" id="c0-15-13"/><rect x="849.25985" y="660.850405" width="48.0" height="48.0" id="c0-17-13"/><rect x="897.25985" y="660.850405" width="48.0" height="48.0" id="c0-18-13"/><rect x="993.25985" y="660.850405" width="48.0" height="48.0" id="c0-20-13"/><rect x="1041.25985" y="660.850405" width="48.0" height="48.0" id="c0-21-13"/></g><g id="c1" style="fill:#FFF;fill-opacity:1.0;stroke:#000;stroke-dasharray:0;stroke-opacity:1.0;stroke-width:0.0"><rect x="49.25985000000003" y="84.85040500000002" width="16.0" height="48.0" id="c1-0-1"/><rect x="145.25985000000003" y="84.85040500000002" width="16.0" height="48.0" id="c1-2-1"/><rect x="193.25985000000003" y="84.85040500000002" width="16.0" height="48.0" id="c1-3-1"/><rect x="289.25985000000003" y="84.85040500000002" width="16.0" height="48.0" id="c1-5-1"/><rect x="337.25985000000003" y="84.85040500000002" width="16.0" height="48.0" id="c1-6-1"/><rect x="433.25985000000003" y="84.85040500000002" width="16.0" height="48.0" id="c1-8-1"/><rect x="481.25985000000003" y="84.85040500000002" width="16.0" height="48.0" id="c1-9-1"/><rect x="577.25985" y="84.85040500000002" width="16.0" height="48.0" id="c1-11-1"/><rect x="625.25985" y="84.85040500000002" width="16.0" height="48.0" id="c1-12-1"/><rect x="721.25985" y="84.85040500000002" width="16.0" height="48.0" id="c1-14-1"/><rect x="769.25985" y="84.85040500000002" width="16.0" height="48.0" id="c1-15-1"/><rect x="865.25985" y="84.85040500000002" width="16.0" height="48.0" id="c1-17-1"/><rect x="913.25985" y="84.85040500000002" width="16.0" height="48.0" id="c1-18-1"/><rect x="1009.25985" y="84.85040500000002" width="16.0" height="48.0" id="c1-20-1"/><rect x="1057.25985" y="84.85040500000002" width="16.0" height="48.0" id="c1-21-1"/><rect x="49.25985000000003" y="180.85040500000002" width="16.0" height="48.0" id="c1-0-3"/><rect x="145.25985000000003" y="180.85040500000002" width="16.0" height="48.0" id="c1-2-3"/><rect x="193.25985000000003" y="180.85040500000002" width="16.0" height="48.0" id="c1-3-3"/><rect x="289.25985000000003" y="180.85040500000002" width="16.0" height="48.0" id="c1-5-3"/><rect x="337.25985000000003" y="180.85040500000002" width="16.0" height="48.0" id="c1-6-3"/><rect x="433.25985000000003" y="180.85040500000002" width="16.0" height="48.0" id="c1-8-3"/><rect x="481.25985000000003" y="180.85040500000002" width="16.0" height="48.0" id="c1-9-3"/><rect x="577.25985" y="180.85040500000002" width="16.0" height="48.0" id="c1-11-3"/><rect x="625.25985" y="180.85040500000002" width="16.0" height="48.0" id="c1-12-3"/><rect x="721.25985" y="180.85040500000002" width="16.0" height="48.0" id="c1-14-3"/><rect x="769.25985" y="180.85040500000002" width="16.0" height="48.0" id="c1-15-3"/><rect x="865.25985" y="180.85040500000002" width="16.0" height="48.0" id="c1-17-3"/><rect x="913.25985" y="180.85040500000002" width="16.0" height="48.0" id="c1-18-3"/><rect x="1009.25985" y="180.85040500000002" width="16.0" height="48.0" id="c1-20-3"/><rect x="1057.25985" y="180.85040500000002" width="16.0" height="48.0" id="c1-21-3"/><rect x="49.25985000000003" y="276.850405" width="16.0" height="48.0" id="c1-0-5"/><rect x="145.25985000000003" y="276.850405" width="16.0" height="48.0" id="c1-2-5"/><rect x="193.25985000000003" y="276.850405" width="16.0" height="48.0" id="c1-3-5"/><rect x="289.25985000000003" y="276.850405" width="16.0" height="48.0" id="c1-5-5"/><rect x="337.25985000000003" y="276.850405" width="16.0" height="48.0" id="c1-6-5"/><rect x="433.25985000000003" y="276.850405" width="16.0" height="48.0" id="c1-8-5"/><rect x="481.25985000000003" y="276.850405" width="16.0" height="48.0" id="c1-9-5"/><rect x="577.25985" y="276.850405" width="16.0" height="48.0" id="c1-11-5"/><rect x="625.25985" y="276.850405" width="16.0" height="48.0" id="c1-12-5"/><rect x="721.25985" y="276.850405" width="16.0" height="48.0" id="c1-14-5"/><rect x="769.25985" y="276.850405" width="16.0" height="48.0" id="c1-15-5"/><rect x="865.25985" y="276.850405" width="16.0" height="48.0" id="c1-17-5"/><rect x="913.25985" y="276.850405" width="16.0" height="48.0" id="c1-18-5"/><rect x="1009.25985" y="276.850405" width="16.0" height="48.0" id="c1-20-5"/><rect x="1057.25985" y="276.850405" width="16.0" height="48.0" id="c1-21-5"/><rect x="49.25985000000003" y="372.850405" width="16.0" height="48.0" id="c1-0-7"/><rect x="145.25985000000003" y="372.850405" width="16.0" height="48.0" id="c1-2-7"/><rect x="193.25985000000003" y="372.850405" width="16.0" height="48.0" id="c1-3-7"/><rect x="289.25985000000003" y="372.850405" width="16.0" height="48.0" id="c1-5-7"/><rect x="337.25985000000003" y="372.850405" width="16.0" height="48.0" id="c1-6-7"/><rect x="433.25985000000003" y="372.850405" width="16.0" height="48.0" id="c1-8-7"/><rect x="481.25985000000003" y="372.850405" width="16.0" height="48.0" id="c1-9-7"/><rect x="577.25985" y="372.850405" width="16.0" height="48.0" id="c1-11-7"/><rect x="625.25985" y="372.850405" width="16.0" height="48.0" id="c1-12-7"/><rect x="721.25985" y="372.850405" width="16.0" height="48.0" id="c1-14-7"/><rect x="769.25985" y="372.850405" width="16.0" height="48.0" id="c1-15-7"/><rect x="865.25985" y="372.850405" width="16.0" height="48.0" id="c1-17-7"/><rect x="913.25985" y="372.850405" width="16.0" height="48.0" id="c1-18-7"/><rect x="1009.25985" y="372.850405" width="16.0" height="48.0" id="c1-20-7"/><rect x="1057.25985" y="372.850405" width="16.0" height="48.0" id="c1-21-7"/><rect x="49.25985000000003" y="468.850405" width="16.0" height="48.0" id="c1-0-9"/><rect x="145.25985000000003" y="468.850405" width="16.0" height="48.0" id="c1-2-9"/><rect x="193.25985000000003" y="468.850405" width="16.0" height="48.0" id="c1-3-9"/><rect x="289.25985000000003" y="468.850405" width="16.0" height="48.0" id="c1-5-9"/><rect x="337.25985000000003" y="468.850405" width="16.0" height="48.0" id="c1-6-9"/><rect x="433.25985000000003" y="468.850405" width="16.0" height="48.0" id="c1-8-9"/><rect x="481.25985000000003" y="468.850405" width="16.0" height="48.0" id="c1-9-9"/><rect x="577.25985" y="468.850405" width="16.0" height="48.0" id="c1-11-9"/><rect x="625.25985" y="468.850405" width="16.0" height="48.0" id="c1-12-9"/><rect x="721.25985" y="468.850405" width="16.0" height="48.0" id="c1-14-9"/><rect x="769.25985" y="468.850405" width="16.0" height="48.0" id="c1-15-9"/><rect x="865.25985" y="468.850405" width="16.0" height="48.0" id="c1-17-9"/><rect x="913.25985" y="468.850405" width="16.0" height="48.0" id="c1-18-9"/><rect x="1009.25985" y="468.850405" width="16.0" height="48.0" id="c1-20-9"/><rect x="1057.25985" y="468.850405" width="16.0" height="48.0" id="c1-21-9"/><rect x="49.25985000000003" y="564.850405" width="16.0" height="48.0" id="c1-0-11"/><rect x="145.25985000000003" y="564.850405" width="16.0" height="48.0" id="c1-2-11"/><rect x="193.25985000000003" y="564.850405" width="16.0" height="48.0" id="c1-3-11"/><rect x="289.25985000000003" y="564.850405" width="16.0" height="48.0" id="c1-5-11"/><rect x="337.25985000000003" y="564.850405" width="16.0" height="48.0" id="c1-6-11"/><rect x="433.25985000000003" y="564.850405" width="16.0" height="48.0" id="c1-8-11"/><rect x="481.25985000000003" y="564.850405" width="16.0" height="48.0" id="c1-9-11"/><rect x="577.25985" y="564.850405" width="16.0" height="48.0" id="c1-11-11"/><rect x="625.25985" y="564.850405" width="16.0" height="48.0" id="c1-12-11"/><rect x="721.25985" y="564.850405" width="16.0" height="48.0" id="c1-14-11"/><rect x="769.25985" y="564.850405" width="16.0" height="48.0" id="c1-15-11"/><rect x="865.25985" y="564.850405" width="16.0" height="48.0" id="c1-17-11"/><rect x="913.25985" y="564.850405" width="16.0" height="48.0" id="c1-18-11"/><rect x="1009.25985" y="564.850405" width="16.0" height="48.0" id="c1-20-11"/><rect x="1057.25985" y="564.850405" width="16.0" height="48.0" id="c1-21-11"/><rect x="49.25985000000003" y="660.850405" width="16.0" height="48.0" id="c1-0-13"/><rect x="145.25985000000003" y="660.850405" width="16.0" height="48.0" id="c1-2-13"/><rect x="193.25985000000003" y="660.850405" width="16.0" height="48.0" id="c1-3-13"/><rect x="289.25985000000003" y="660.850405" width="16.0" height="48.0" id="c1-5-13"/><rect x="337.25985000000003" y="660.850405" width="16.0" height="48.0" id="c1-6-13"/><rect x="433.25985000000003" y="660.850405" width="16.0" height="48.0" id="c1-8-13"/><rect x="481.25985000000003" y="660.850405" width="16.0" height="48.0" id="c1-9-13"/><rect x="577.25985" y="660.850405" width="16.0" height="48.0" id="c1-11-13"/><rect x="625.25985" y="660.850405" width="16.0" height="48.0" id="c1-12-13"/><rect x="721.25985" y="660.850405" width="16.0" height="48.0" id="c1-14-13"/><rect x="769.25985" y="660.850405" width="16.0" height="48.0" id="c1-15-13"/><rect x="865.25985" y="660.850405" width="16.0" height="48.0" id="c1-17-13"/><rect x="913.25985" y="660.850405" width="16.0" height="48.0" id="c1-18-13"/><rect x="1009.25985" y="660.850405" width="16.0" height="48.0" id="c1-20-13"/><rect x="1057.25985" y="660.850405" width="16.0" height="48.0" id="c1-21-13"/></g><g id="d0" style="fill:#32CD32;stroke:#fff;stroke-width:0.0"><rect x="81.25985000000003" y="84.85040500000002" width="48.0" height="48.0" id="d0-1-1"/><rect x="225.25985000000003" y="84.85040500000002" width="48.0" height="48.0" id="d0-4-1"/><rect x="369.25985000000003" y="84.85040500000002" width="48.0" height="48.0" id="d0-7-1"/><rect x="513.25985" y="84.85040500000002" width="48.0" height="48.0" id="d0-10-1"/><rect x="657.25985" y="84.85040500000002" width="48.0" height="48.0" id="d0-13-1"/><rect x="801.25985" y="84.85040500000002" width="48.0" height="48.0" id="d0-16-1"/><rect x="945.25985" y="84.85040500000002" width="48.0" height="48.0" id="d0-19-1"/><rect x="81.25985000000003" y="180.85040500000002" width="48.0" height="48.0" id="d0-1-3"/><rect x="225.25985000000003" y="180.85040500000002" width="48.0" height="48.0" id="d0-4-3"/><rect x="369.25985000000003" y="180.85040500000002" width="48.0" height="48.0" id="d0-7-3"/><rect x="513.25985" y="180.85040500000002" width="48.0" height="48.0" id="d0-10-3"/><rect x="657.25985" y="180.85040500000002" width="48.0" height="48.0" id="d0-13-3"/><rect x="801.25985" y="180.85040500000002" width="48.0" height="48.0" id="d0-16-3"/><rect x="945.25985" y="180.85040500000002" width="48.0" height="48.0" id="d0-19-3"/><rect x="81.25985000000003" y="276.850405" width="48.0" height="48.0" id="d0-1-5"/><rect x="225.25985000000003" y="276.850405" width="48.0" height="48.0" id="d0-4-5"/><rect x="369.25985000000003" y="276.850405" width="48.0" height="48.0" id="d0-7-5"/><rect x="513.25985" y="276.850405" width="48.0" height="48.0" id="d0-10-5"/><rect x="657.25985" y="276.850405" width="48.0" height="48.0" id="d0-13-5"/><rect x="801.25985" y="276.850405" width="48.0" height="48.0" id="d0-16-5"/><rect x="945.25985" y="276.850405" width="48.0" height="48.0" id="d0-19-5"/><rect x="81.25985000000003" y="372.850405" width="48.0" height="48.0" id="d0-1-7"/><rect x="225.25985000000003" y="372.850405" width="48.0" height="48.0" id="d0-4-7"/><rect x="369.25985000000003" y="372.850405" width="48.0" height="48.0" id="d0-7-7"/><rect x="513.25985" y="372.850405" width="48.0" height="48.0" id="d0-10-7"/><rect x="657.25985" y="372.850405" width="48.0" height="48.0" id="d0-13-7"/><rect x="801.25985" y="372.850405" width="48.0" height="48.0" id="d0-16-7"/><rect x="945.25985" y="372.850405" width="48.0" height="48.0" id="d0-19-7"/><rect x="81.25985000000003" y="468.850405" width="48.0" height="48.0" id="d0-1-9"/><rect x="225.25985000000003" y="468.850405" width="48.0" height="48.0" id="d0-4-9"/><rect x="369.25985000000003" y="468.850405" width="48.0" height="48.0" id="d0-7-9"/><rect x="513.25985" y="468.850405" width="48.0" height="48.0" id="d0-10-9"/><rect x="657.25985" y="468.850405" width="48.0" height="48.0" id="d0-13-9"/><rect x="801.25985" y="468.850405" width="48.0" height="48.0" id="d0-16-9"/><rect x="945.25985" y="468.850405" width="48.0" height="48.0" id="d0-19-9"/><rect x="81.25985000000003" y="564.850405" width="48.0" height="48.0" id="d0-1-11"/><rect x="225.25985000000003" y="564.850405" width="48.0" height="48.0" id="d0-4-11"/><rect x="369.25985000000003" y="564.850405" width="48.0" height="48.0" id="d0-7-11"/><rect x="513.25985" y="564.850405" width="48.0" height="48.0" id="d0-10-11"/><rect x="657.25985" y="564.850405" width="48.0" height="48.0" id="d0-13-11"/><rect x="801.25985" y="564.850405" width="48.0" height="48.0" id="d0-16-11"/><rect x="945.25985" y="564.850405" width="48.0" height="48.0" id="d0-19-11"/><rect x="81.25985000000003" y="660.850405" width="48.0" height="48.0" id="d0-1-13"/><rect x="225.25985000000003" y="660.850405" width="48.0" height="48.0" id="d0-4-13"/><rect x="369.25985000000003" y="660.850405" width="48.0" height="48.0" id="d0-7-13"/><rect x="513.25985" y="660.850405" width="48.0" height="48.0" id="d0-10-13"/><rect x="657.25985" y="660.850405" width="48.0" height="48.0" id="d0-13-13"/><rect x="801.25985" y="660.850405" width="48.0" height="48.0" id="d0-16-13"/><rect x="945.25985" y="660.850405" width="48.0" height="48.0" id="d0-19-13"/></g><g id="d1" style="fill:#CCC;fill-opacity:0.7;stroke:#000;stroke-dasharray:0;stroke-opacity:1.0;stroke-width:0.0"><polygon points="81.25985000000003,84.85040500000002,129.25985000000003,108.85040500000002,81.25985000000003,132.85040500000002,81.25985000000003,84.85040500000002" id="d1-1-1"/><polygon points="225.25985000000003,84.85040500000002,273.25985000000003,108.85040500000002,225.25985000000003,132.85040500000002,225.25985000000003,84.85040500000002" id="d1-4-1"/><polygon points="369.25985000000003,84.85040500000002,417.25985000000003,108.85040500000002,369.25985000000003,132.85040500000002,369.25985000000003,84.85040500000002" id="d1-7-1"/><polygon points="513.25985,84.85040500000002,561.25985,108.85040500000002,513.25985,132.85040500000002,513.25985,84.85040500000002" id="d1-10-1"/><polygon points="657.25985,84.85040500000002,705.25985,108.85040500000002,657.25985,132.85040500000002,657.25985,84.85040500000002" id="d1-13-1"/><polygon points="801.25985,84.85040500000002,849.25985,108.85040500000002,801.25985,132.85040500000002,801.25985,84.85040500000002" id="d1-16-1"/><polygon points="945.25985,84.85040500000002,993.25985,108.85040500000002,945.25985,132.85040500000002,945.25985,84.85040500000002" id="d1-19-1"/><polygon points="81.25985000000003,180.85040500000002,129.25985000000003,204.85040500000002,81.25985000000003,228.85040500000002,81.25985000000003,180.85040500000002" id="d1-1-3"/><polygon points="225.25985000000003,180.85040500000002,273.25985000000003,204.85040500000002,225.25985000000003,228.85040500000002,225.25985000000003,180.85040500000002" id="d1-4-3"/><polygon points="369.25985000000003,180.85040500000002,417.25985000000003,204.85040500000002,369.25985000000003,228.85040500000002,369.25985000000003,180.85040500000002" id="d1-7-3"/><polygon points="513.25985,180.85040500000002,561.25985,204.85040500000002,513.25985,228.85040500000002,513.25985,180.85040500000002" id="d1-10-3"/><polygon points="657.25985,180.85040500000002,705.25985,204.85040500000002,657.25985,228.85040500000002,657.25985,180.85040500000002" id="d1-13-3"/><polygon points="801.25985,180.85040500000002,849.25985,204.85040500000002,801.25985,228.85040500000002,801.25985,180.85040500000002" id="d1-16-3"/><polygon points="945.25985,180.85040500000002,993.25985,204.85040500000002,945.25985,228.85040500000002,945.25985,180.85040500000002" id="d1-19-3"/><polygon points="81.25985000000003,276.850405,129.25985000000003,300.850405,81.25985000000003,324.850405,81.25985000000003,276.850405" id="d1-1-5"/><polygon points="225.25985000000003,276.850405,273.25985000000003,300.850405,225.25985000000003,324.850405,225.25985000000003,276.850405" id="d1-4-5"/><polygon points="369.25985000000003,276.850405,417.25985000000003,300.850405,369.25985000000003,324.850405,369.25985000000003,276.850405" id="d1-7-5"/><polygon points="513.25985,276.850405,561.25985,300.850405,513.25985,324.850405,513.25985,276.850405" id="d1-10-5"/><polygon points="657.25985,276.850405,705.25985,300.850405,657.25985,324.850405,657.25985,276.850405" id="d1-13-5"/><polygon points="801.25985,276.850405,849.25985,300.850405,801.25985,324.850405,801.25985,276.850405" id="d1-16-5"/><polygon points="945.25985,276.850405,993.25985,300.850405,945.25985,324.850405,945.25985,276.850405" id="d1-19-5"/><polygon points="81.25985000000003,372.850405,129.25985000000003,396.850405,81.25985000000003,420.850405,81.25985000000003,372.850405" id="d1-1-7"/><polygon points="225.25985000000003,372.850405,273.25985000000003,396.850405,225.25985000000003,420.850405,225.25985000000003,372.850405" id="d1-4-7"/><polygon points="369.25985000000003,372.850405,417.25985000000003,396.850405,369.25985000000003,420.850405,369.25985000000003,372.850405" id="d1-7-7"/><polygon points="513.25985,372.850405,561.25985,396.850405,513.25985,420.850405,513.25985,372.850405" id="d1-10-7"/><polygon points="657.25985,372.850405,705.25985,396.850405,657.25985,420.850405,657.25985,372.850405" id="d1-13-7"/><polygon points="801.25985,372.850405,849.25985,396.850405,801.25985,420.850405,801.25985,372.850405" id="d1-16-7"/><polygon points="945.25985,372.850405,993.25985,396.850405,945.25985,420.850405,945.25985,372.850405" id="d1-19-7"/><polygon points="81.25985000000003,468.850405,129.25985000000003,492.850405,81.25985000000003,516.850405,81.25985000000003,468.850405" id="d1-1-9"/><polygon points="225.25985000000003,468.850405,273.25985000000003,492.850405,225.25985000000003,516.850405,225.25985000000003,468.850405" id="d1-4-9"/><polygon points="369.25985000000003,468.850405,417.25985000000003,492.850405,369.25985000000003,516.850405,369.25985000000003,468.850405" id="d1-7-9"/><polygon points="513.25985,468.850405,561.25985,492.850405,513.25985,516.850405,513.25985,468.850405" id="d1-10-9"/><polygon points="657.25985,468.850405,705.25985,492.850405,657.25985,516.850405,657.25985,468.850405" id="d1-13-9"/><polygon points="801.25985,468.850405,849.25985,492.850405,801.25985,516.850405,801.25985,468.850405" id="d1-16-9"/><polygon points="945.25985,468.850405,993.25985,492.850405,945.25985,516.850405,945.25985,468.850405" id="d1-19-9"/><polygon points="81.25985000000003,564.850405,129.25985000000003,588.850405,81.25985000000003,612.850405,81.25985000000003,564.850405" id="d1-1-11"/><polygon points="225.25985000000003,564.850405,273.25985000000003,588.850405,225.25985000000003,612.850405,225.25985000000003,564.850405" id="d1-4-11"/><polygon points="369.25985000000003,564.850405,417.25985000000003,588.850405,369.25985000000003,612.850405,369.25985000000003,564.850405" id="d1-7-11"/><polygon points="513.25985,564.850405,561.25985,588.850405,513.25985,612.850405,513.25985,564.850405" id="d1-10-11"/><polygon points="657.25985,564.850405,705.25985,588.850405,657.25985,612.850405,657.25985,564.850405" id="d1-13-11"/><polygon points="801.25985,564.850405,849.25985,588.850405,801.25985,612.850405,801.25985,564.850405" id="d1-16-11"/><polygon points="945.25985,564.850405,993.25985,588.850405,945.25985,612.850405,945.25985,564.850405" id="d1-19-11"/><polygon points="81.25985000000003,660.850405,129.25985000000003,684.850405,81.25985000000003,708.850405,81.25985000000003,660.850405" id="d1-1-13"/><polygon points="225.25985000000003,660.850405,273.25985000000003,684.850405,225.25985000000003,708.850405,225.25985000000003,660.850405" id="d1-4-13"/><polygon points="369.25985000000003,660.850405,417.25985000000003,684.850405,369.25985000000003,708.850405,369.25985000000003,660.850405" id="d1-7-13"/><polygon points="513.25985,660.850405,561.25985,684.850405,513.25985,708.850405,513.25985,660.850405" id="d1-10-13"/><polygon points="657.25985,660.850405,705.25985,684.850405,657.25985,708.850405,657.25985,660.850405" id="d1-13-13"/><polygon points="801.25985,660.850405,849.25985,684.850405,801.25985,708.850405,801.25985,660.850405" id="d1-16-13"/><polygon points="945.25985,660.850405,993.25985,684.850405,945.25985,708.850405,945.25985,660.850405" id="d1-19-13"/></g></svg>