<?xml version="1.0" encoding="UTF-8" standalone="no"?>
<svg
   viewBox="0 0 1122.5197 793.70081"
   width="1122.5197px"
   height="793.70081px"
   recurrink-id="8b2c78bf119f3082714dabb23d5d46dc"
   recurrink-factor="0.5"
   version="1.1"
   id="svg24138"
   sodipodi:docname="soleares.svg"
   inkscape:version="1.1.1 (c3084ef, 2021-09-22)"
   xmlns:inkscape="http://www.inkscape.org/namespaces/inkscape"
   xmlns:sodipodi="http://sodipodi.sourceforge.net/DTD/sodipodi-0.dtd"
   xmlns="http://www.w3.org/2000/svg"
   xmlns:svg="http://www.w3.org/2000/svg">
  <defs
     id="defs24140">
    <filter
       inkscape:collect="always"
       style="color-interpolation-filters:sRGB"
       id="filter26762"
       x="-0.0029502827"
       y="-0.0048628047"
       width="1.0059006"
       height="1.0097256">
      <feGaussianBlur
         inkscape:collect="always"
         stdDeviation="0.89187621"
         id="feGaussianBlur26764" />
    </filter>
  </defs>
  <sodipodi:namedview
     inkscape:document-units="px"
     id="namedview23974"
     pagecolor="#ffffff"
     bordercolor="#666666"
     borderopacity="1.0"
     inkscape:pageshadow="2"
     inkscape:pageopacity="0.0"
     inkscape:pagecheckerboard="0"
     showgrid="false"
     inkscape:zoom="2.5337151"
     inkscape:cx="562.02058"
     inkscape:cy="396.8481"
     inkscape:window-width="1792"
     inkscape:window-height="937"
     inkscape:window-x="94"
     inkscape:window-y="59"
     inkscape:window-maximized="0"
     inkscape:current-layer="svg24138" />
  <g
     id="a0"
     style="fill:#ccc;stroke:#fff;stroke-width:0.0">
    <rect
       x="33.25985000000003"
       y="60.85040500000002"
       width="96.0"
       height="96.0"
       id="a0-0-0" />
    <rect
       x="225.25985000000003"
       y="60.85040500000002"
       width="96.0"
       height="96.0"
       id="a0-2-0" />
    <rect
       x="321.25985000000003"
       y="60.85040500000002"
       width="96.0"
       height="96.0"
       id="a0-3-0" />
    <rect
       x="513.25985"
       y="60.85040500000002"
       width="96.0"
       height="96.0"
       id="a0-5-0" />
    <rect
       x="609.25985"
       y="60.85040500000002"
       width="96.0"
       height="96.0"
       id="a0-6-0" />
    <rect
       x="801.25985"
       y="60.85040500000002"
       width="96.0"
       height="96.0"
       id="a0-8-0" />
    <rect
       x="897.25985"
       y="60.85040500000002"
       width="96.0"
       height="96.0"
       id="a0-9-0" />
    <rect
       x="33.25985000000003"
       y="252.85040500000002"
       width="96.0"
       height="96.0"
       id="a0-0-2" />
    <rect
       x="225.25985000000003"
       y="252.85040500000002"
       width="96.0"
       height="96.0"
       id="a0-2-2" />
    <rect
       x="321.25985000000003"
       y="252.85040500000002"
       width="96.0"
       height="96.0"
       id="a0-3-2" />
    <rect
       x="513.25985"
       y="252.85040500000002"
       width="96.0"
       height="96.0"
       id="a0-5-2" />
    <rect
       x="609.25985"
       y="252.85040500000002"
       width="96.0"
       height="96.0"
       id="a0-6-2" />
    <rect
       x="801.25985"
       y="252.85040500000002"
       width="96.0"
       height="96.0"
       id="a0-8-2" />
    <rect
       x="897.25985"
       y="252.85040500000002"
       width="96.0"
       height="96.0"
       id="a0-9-2" />
    <rect
       x="33.25985000000003"
       y="444.850405"
       width="96.0"
       height="96.0"
       id="a0-0-4" />
    <rect
       x="225.25985000000003"
       y="444.850405"
       width="96.0"
       height="96.0"
       id="a0-2-4" />
    <rect
       x="321.25985000000003"
       y="444.850405"
       width="96.0"
       height="96.0"
       id="a0-3-4" />
    <rect
       x="513.25985"
       y="444.850405"
       width="96.0"
       height="96.0"
       id="a0-5-4" />
    <rect
       x="609.25985"
       y="444.850405"
       width="96.0"
       height="96.0"
       id="a0-6-4" />
    <rect
       x="801.25985"
       y="444.850405"
       width="96.0"
       height="96.0"
       id="a0-8-4" />
    <rect
       x="897.25985"
       y="444.850405"
       width="96.0"
       height="96.0"
       id="a0-9-4" />
    <rect
       x="33.25985000000003"
       y="636.850405"
       width="96.0"
       height="96.0"
       id="a0-0-6" />
    <rect
       x="225.25985000000003"
       y="636.850405"
       width="96.0"
       height="96.0"
       id="a0-2-6" />
    <rect
       x="321.25985000000003"
       y="636.850405"
       width="96.0"
       height="96.0"
       id="a0-3-6" />
    <rect
       x="513.25985"
       y="636.850405"
       width="96.0"
       height="96.0"
       id="a0-5-6" />
    <rect
       x="609.25985"
       y="636.850405"
       width="96.0"
       height="96.0"
       id="a0-6-6" />
    <rect
       x="801.25985"
       y="636.850405"
       width="96.0"
       height="96.0"
       id="a0-8-6" />
    <rect
       x="897.25985"
       y="636.850405"
       width="96.0"
       height="96.0"
       id="a0-9-6" />
  </g>
  <g
     id="a1"
     style="fill:#000000;fill-opacity:1;stroke:#000000;stroke-width:1;stroke-dasharray:none;stroke-opacity:1">
    <rect
       x="33.75985"
       y="61.350407"
       width="95"
       height="95"
       id="a1-0-0"
       style="fill:#000000" />
    <rect
       x="225.75986"
       y="61.350407"
       width="95"
       height="95"
       id="a1-2-0"
       style="fill:#000000" />
    <rect
       x="321.75986"
       y="61.350407"
       width="95"
       height="95"
       id="a1-3-0"
       style="fill:#000000" />
    <rect
       x="513.75983"
       y="61.350407"
       width="95"
       height="95"
       id="a1-5-0"
       style="fill:#000000" />
    <rect
       x="609.75983"
       y="61.350407"
       width="95"
       height="95"
       id="a1-6-0"
       style="fill:#000000" />
    <rect
       x="801.75983"
       y="61.350407"
       width="95"
       height="95"
       id="a1-8-0"
       style="fill:#000000" />
    <rect
       x="897.75983"
       y="61.350407"
       width="95"
       height="95"
       id="a1-9-0"
       style="fill:#000000" />
    <rect
       x="33.75985"
       y="253.3504"
       width="95"
       height="95"
       id="a1-0-2"
       style="fill:#000000" />
    <rect
       x="225.75986"
       y="253.3504"
       width="95"
       height="95"
       id="a1-2-2"
       style="fill:#000000" />
    <rect
       x="321.75986"
       y="253.3504"
       width="95"
       height="95"
       id="a1-3-2"
       style="fill:#000000" />
    <rect
       x="513.75983"
       y="253.3504"
       width="95"
       height="95"
       id="a1-5-2"
       style="fill:#000000" />
    <rect
       x="609.75983"
       y="253.3504"
       width="95"
       height="95"
       id="a1-6-2"
       style="fill:#000000" />
    <rect
       x="801.75983"
       y="253.3504"
       width="95"
       height="95"
       id="a1-8-2"
       style="fill:#000000" />
    <rect
       x="897.75983"
       y="253.3504"
       width="95"
       height="95"
       id="a1-9-2"
       style="fill:#000000" />
    <rect
       x="33.75985"
       y="445.3504"
       width="95"
       height="95"
       id="a1-0-4"
       style="fill:#000000" />
    <rect
       x="225.75986"
       y="445.3504"
       width="95"
       height="95"
       id="a1-2-4"
       style="fill:#000000" />
    <rect
       x="321.75986"
       y="445.3504"
       width="95"
       height="95"
       id="a1-3-4"
       style="fill:#000000" />
    <rect
       x="513.75983"
       y="445.3504"
       width="95"
       height="95"
       id="a1-5-4"
       style="fill:#000000" />
    <rect
       x="609.75983"
       y="445.3504"
       width="95"
       height="95"
       id="a1-6-4"
       style="fill:#000000" />
    <rect
       x="801.75983"
       y="445.3504"
       width="95"
       height="95"
       id="a1-8-4"
       style="fill:#000000" />
    <rect
       x="897.75983"
       y="445.3504"
       width="95"
       height="95"
       id="a1-9-4"
       style="fill:#000000" />
    <rect
       x="33.75985"
       y="637.3504"
       width="95"
       height="95"
       id="a1-0-6"
       style="fill:#000000" />
    <rect
       x="225.75986"
       y="637.3504"
       width="95"
       height="95"
       id="a1-2-6"
       style="fill:#000000" />
    <rect
       x="321.75986"
       y="637.3504"
       width="95"
       height="95"
       id="a1-3-6"
       style="fill:#000000" />
    <rect
       x="513.75983"
       y="637.3504"
       width="95"
       height="95"
       id="a1-5-6"
       style="fill:#000000" />
    <rect
       x="609.75983"
       y="637.3504"
       width="95"
       height="95"
       id="a1-6-6"
       style="fill:#000000" />
    <rect
       x="801.75983"
       y="637.3504"
       width="95"
       height="95"
       id="a1-8-6"
       style="fill:#000000" />
    <rect
       x="897.75983"
       y="637.3504"
       width="95"
       height="95"
       id="a1-9-6"
       style="fill:#000000" />
  </g>
  <g
     id="b0"
     style="fill:#000">
    <rect
       x="129.25985000000003"
       y="60.85040500000002"
       width="96.0"
       height="96.0"
       id="b0-1-0" />
    <rect
       x="417.25985000000003"
       y="60.85040500000002"
       width="96.0"
       height="96.0"
       id="b0-4-0" />
    <rect
       x="705.25985"
       y="60.85040500000002"
       width="96.0"
       height="96.0"
       id="b0-7-0" />
    <rect
       x="993.25985"
       y="60.85040500000002"
       width="96.0"
       height="96.0"
       id="b0-10-0" />
    <rect
       x="129.25985000000003"
       y="252.85040500000002"
       width="96.0"
       height="96.0"
       id="b0-1-2" />
    <rect
       x="417.25985000000003"
       y="252.85040500000002"
       width="96.0"
       height="96.0"
       id="b0-4-2" />
    <rect
       x="705.25985"
       y="252.85040500000002"
       width="96.0"
       height="96.0"
       id="b0-7-2" />
    <rect
       x="993.25985"
       y="252.85040500000002"
       width="96.0"
       height="96.0"
       id="b0-10-2" />
    <rect
       x="129.25985000000003"
       y="444.850405"
       width="96.0"
       height="96.0"
       id="b0-1-4" />
    <rect
       x="417.25985000000003"
       y="444.850405"
       width="96.0"
       height="96.0"
       id="b0-4-4" />
    <rect
       x="705.25985"
       y="444.850405"
       width="96.0"
       height="96.0"
       id="b0-7-4" />
    <rect
       x="993.25985"
       y="444.850405"
       width="96.0"
       height="96.0"
       id="b0-10-4" />
    <rect
       x="129.25985000000003"
       y="636.850405"
       width="96.0"
       height="96.0"
       id="b0-1-6" />
    <rect
       x="417.25985000000003"
       y="636.850405"
       width="96.0"
       height="96.0"
       id="b0-4-6" />
    <rect
       x="705.25985"
       y="636.850405"
       width="96.0"
       height="96.0"
       id="b0-7-6" />
    <rect
       x="993.25985"
       y="636.850405"
       width="96.0"
       height="96.0"
       id="b0-10-6" />
  </g>
  <g
     id="b1"
     style="fill:#ff8080;fill-opacity:1;stroke:#000000;stroke-width:0;stroke-dasharray:none;stroke-opacity:1">
    <circle
       cx="177.25986"
       cy="108.8504"
       r="48"
       id="b1-1-0"
       style="fill:#ff8080" />
    <circle
       cx="465.25986"
       cy="108.8504"
       r="48"
       id="b1-4-0"
       style="fill:#ff8080" />
    <circle
       cx="753.25983"
       cy="108.8504"
       r="48"
       id="b1-7-0"
       style="fill:#ff8080" />
    <circle
       cx="1041.2599"
       cy="108.8504"
       r="48"
       id="b1-10-0"
       style="fill:#ff8080" />
    <circle
       cx="177.25986"
       cy="300.8504"
       r="48"
       id="b1-1-2"
       style="fill:#ff8080" />
    <circle
       cx="465.25986"
       cy="300.8504"
       r="48"
       id="b1-4-2"
       style="fill:#ff8080" />
    <circle
       cx="753.25983"
       cy="300.8504"
       r="48"
       id="b1-7-2"
       style="fill:#ff8080" />
    <circle
       cx="1041.2599"
       cy="300.8504"
       r="48"
       id="b1-10-2"
       style="fill:#ff8080" />
    <circle
       cx="177.25986"
       cy="492.8504"
       r="48"
       id="b1-1-4"
       style="fill:#ff8080" />
    <circle
       cx="465.25986"
       cy="492.8504"
       r="48"
       id="b1-4-4"
       style="fill:#ff8080" />
    <circle
       cx="753.25983"
       cy="492.8504"
       r="48"
       id="b1-7-4"
       style="fill:#ff8080" />
    <circle
       cx="1041.2599"
       cy="492.8504"
       r="48"
       id="b1-10-4"
       style="fill:#ff8080" />
    <circle
       cx="177.25986"
       cy="684.8504"
       r="48"
       id="b1-1-6"
       style="fill:#ff8080" />
    <circle
       cx="465.25986"
       cy="684.8504"
       r="48"
       id="b1-4-6"
       style="fill:#ff8080" />
    <circle
       cx="753.25983"
       cy="684.8504"
       r="48"
       id="b1-7-6"
       style="fill:#ff8080" />
    <circle
       cx="1041.2599"
       cy="684.8504"
       r="48"
       id="b1-10-6"
       style="fill:#ff8080" />
  </g>
  <g
     id="c0"
     style="fill:#fff">
    <rect
       x="33.25985000000003"
       y="156.85040500000002"
       width="96.0"
       height="96.0"
       id="c0-0-1" />
    <rect
       x="225.25985000000003"
       y="156.85040500000002"
       width="96.0"
       height="96.0"
       id="c0-2-1" />
    <rect
       x="321.25985000000003"
       y="156.85040500000002"
       width="96.0"
       height="96.0"
       id="c0-3-1" />
    <rect
       x="513.25985"
       y="156.85040500000002"
       width="96.0"
       height="96.0"
       id="c0-5-1" />
    <rect
       x="609.25985"
       y="156.85040500000002"
       width="96.0"
       height="96.0"
       id="c0-6-1" />
    <rect
       x="801.25985"
       y="156.85040500000002"
       width="96.0"
       height="96.0"
       id="c0-8-1" />
    <rect
       x="897.25985"
       y="156.85040500000002"
       width="96.0"
       height="96.0"
       id="c0-9-1" />
    <rect
       x="33.25985000000003"
       y="348.850405"
       width="96.0"
       height="96.0"
       id="c0-0-3" />
    <rect
       x="225.25985000000003"
       y="348.850405"
       width="96.0"
       height="96.0"
       id="c0-2-3" />
    <rect
       x="321.25985000000003"
       y="348.850405"
       width="96.0"
       height="96.0"
       id="c0-3-3" />
    <rect
       x="513.25985"
       y="348.850405"
       width="96.0"
       height="96.0"
       id="c0-5-3" />
    <rect
       x="609.25985"
       y="348.850405"
       width="96.0"
       height="96.0"
       id="c0-6-3" />
    <rect
       x="801.25985"
       y="348.850405"
       width="96.0"
       height="96.0"
       id="c0-8-3" />
    <rect
       x="897.25985"
       y="348.850405"
       width="96.0"
       height="96.0"
       id="c0-9-3" />
    <rect
       x="33.25985000000003"
       y="540.850405"
       width="96.0"
       height="96.0"
       id="c0-0-5" />
    <rect
       x="225.25985000000003"
       y="540.850405"
       width="96.0"
       height="96.0"
       id="c0-2-5" />
    <rect
       x="321.25985000000003"
       y="540.850405"
       width="96.0"
       height="96.0"
       id="c0-3-5" />
    <rect
       x="513.25985"
       y="540.850405"
       width="96.0"
       height="96.0"
       id="c0-5-5" />
    <rect
       x="609.25985"
       y="540.850405"
       width="96.0"
       height="96.0"
       id="c0-6-5" />
    <rect
       x="801.25985"
       y="540.850405"
       width="96.0"
       height="96.0"
       id="c0-8-5" />
    <rect
       x="897.25985"
       y="540.850405"
       width="96.0"
       height="96.0"
       id="c0-9-5" />
  </g>
  <g
     id="d0"
     style="fill:#32cd32">
    <rect
       x="129.25986"
       y="156.8504"
       width="96"
       height="96"
       id="d0-1-1" />
    <rect
       x="417.25986"
       y="156.8504"
       width="96"
       height="96"
       id="d0-4-1" />
    <rect
       x="705.25983"
       y="156.8504"
       width="96"
       height="96"
       id="d0-7-1" />
    <rect
       x="993.25983"
       y="156.8504"
       width="96"
       height="96"
       id="d0-10-1" />
    <rect
       x="129.25986"
       y="348.8504"
       width="96"
       height="96"
       id="d0-1-3" />
    <rect
       x="417.25986"
       y="348.8504"
       width="96"
       height="96"
       id="d0-4-3" />
    <rect
       x="705.25983"
       y="348.8504"
       width="96"
       height="96"
       id="d0-7-3" />
    <rect
       x="993.25983"
       y="348.8504"
       width="96"
       height="96"
       id="d0-10-3" />
    <rect
       x="129.25986"
       y="540.8504"
       width="96"
       height="96"
       id="d0-1-5" />
    <rect
       x="417.25986"
       y="540.8504"
       width="96"
       height="96"
       id="d0-4-5" />
    <rect
       x="705.25983"
       y="540.8504"
       width="96"
       height="96"
       id="d0-7-5" />
    <rect
       x="993.25983"
       y="540.8504"
       width="96"
       height="96"
       id="d0-10-5" />
  </g>
  <g
     id="d1"
     style="fill:#000000;fill-opacity:1;stroke:#000000;stroke-width:0;stroke-dasharray:none;stroke-opacity:1">
    <polygon
       points="225.25985,156.85041 129.25985,156.85041 177.25985,252.85041 "
       id="d1-1-1"
       style="fill:#000000" />
    <polygon
       points="513.25985,156.85041 417.25985,156.85041 465.25985,252.85041 "
       id="d1-4-1"
       style="fill:#000000" />
    <polygon
       points="801.25985,156.85041 705.25985,156.85041 753.25985,252.85041 "
       id="d1-7-1"
       style="fill:#000000" />
    <polygon
       points="1089.2598,156.85041 993.25985,156.85041 1041.2598,252.85041 "
       id="d1-10-1"
       style="fill:#000000" />
    <polygon
       points="225.25985,348.85041 129.25985,348.85041 177.25985,444.85041 "
       id="d1-1-3"
       style="fill:#000000" />
    <polygon
       points="513.25985,348.85041 417.25985,348.85041 465.25985,444.85041 "
       id="d1-4-3"
       style="fill:#000000" />
    <polygon
       points="801.25985,348.85041 705.25985,348.85041 753.25985,444.85041 "
       id="d1-7-3"
       style="fill:#000000" />
    <polygon
       points="1089.2598,348.85041 993.25985,348.85041 1041.2598,444.85041 "
       id="d1-10-3"
       style="fill:#000000" />
    <polygon
       points="225.25985,540.85041 129.25985,540.85041 177.25985,636.85041 "
       id="d1-1-5"
       style="fill:#000000" />
    <polygon
       points="513.25985,540.85041 417.25985,540.85041 465.25985,636.85041 "
       id="d1-4-5"
       style="fill:#000000" />
    <polygon
       points="801.25985,540.85041 705.25985,540.85041 753.25985,636.85041 "
       id="d1-7-5"
       style="fill:#000000" />
    <polygon
       points="1089.2598,540.85041 993.25985,540.85041 1041.2598,636.85041 "
       id="d1-10-5"
       style="fill:#000000" />
  </g>
  <g
     id="c1"
     style="fill:#00ff00;fill-opacity:1;stroke:#00ff00;stroke-width:1;stroke-miterlimit:4;stroke-dasharray:none;stroke-dashoffset:0;stroke-opacity:1;filter:url(#filter26762)">
    <rect
       x="65.75985"
       y="125.3504"
       width="31"
       height="159"
       id="c1-0-1"
       style="fill:#00ff00;stroke:#00ff00;stroke-width:1;stroke-miterlimit:4;stroke-dasharray:none;stroke-dashoffset:0" />
    <rect
       x="257.75986"
       y="125.3504"
       width="31"
       height="159"
       id="c1-2-1"
       style="fill:#00ff00;stroke:#00ff00;stroke-width:1;stroke-miterlimit:4;stroke-dasharray:none;stroke-dashoffset:0" />
    <rect
       x="353.75986"
       y="125.3504"
       width="31"
       height="159"
       id="c1-3-1"
       style="fill:#00ff00;stroke:#00ff00;stroke-width:1;stroke-miterlimit:4;stroke-dasharray:none;stroke-dashoffset:0" />
    <rect
       x="545.75983"
       y="125.3504"
       width="31"
       height="159"
       id="c1-5-1"
       style="fill:#00ff00;stroke:#00ff00;stroke-width:1;stroke-miterlimit:4;stroke-dasharray:none;stroke-dashoffset:0" />
    <rect
       x="641.75983"
       y="125.3504"
       width="31"
       height="159"
       id="c1-6-1"
       style="fill:#00ff00;stroke:#00ff00;stroke-width:1;stroke-miterlimit:4;stroke-dasharray:none;stroke-dashoffset:0" />
    <rect
       x="833.75983"
       y="125.3504"
       width="31"
       height="159"
       id="c1-8-1"
       style="fill:#00ff00;stroke:#00ff00;stroke-width:1;stroke-miterlimit:4;stroke-dasharray:none;stroke-dashoffset:0" />
    <rect
       x="929.75983"
       y="125.3504"
       width="31"
       height="159"
       id="c1-9-1"
       style="fill:#00ff00;stroke:#00ff00;stroke-width:1;stroke-miterlimit:4;stroke-dasharray:none;stroke-dashoffset:0" />
    <rect
       x="65.75985"
       y="317.3504"
       width="31"
       height="159"
       id="c1-0-3"
       style="fill:#00ff00;stroke:#00ff00;stroke-width:1;stroke-miterlimit:4;stroke-dasharray:none;stroke-dashoffset:0" />
    <rect
       x="257.75986"
       y="317.3504"
       width="31"
       height="159"
       id="c1-2-3"
       style="fill:#00ff00;stroke:#00ff00;stroke-width:1;stroke-miterlimit:4;stroke-dasharray:none;stroke-dashoffset:0" />
    <rect
       x="353.75986"
       y="317.3504"
       width="31"
       height="159"
       id="c1-3-3"
       style="fill:#00ff00;stroke:#00ff00;stroke-width:1;stroke-miterlimit:4;stroke-dasharray:none;stroke-dashoffset:0" />
    <rect
       x="545.75983"
       y="317.3504"
       width="31"
       height="159"
       id="c1-5-3"
       style="fill:#00ff00;stroke:#00ff00;stroke-width:1;stroke-miterlimit:4;stroke-dasharray:none;stroke-dashoffset:0" />
    <rect
       x="641.75983"
       y="317.3504"
       width="31"
       height="159"
       id="c1-6-3"
       style="fill:#00ff00;stroke:#00ff00;stroke-width:1;stroke-miterlimit:4;stroke-dasharray:none;stroke-dashoffset:0" />
    <rect
       x="833.75983"
       y="317.3504"
       width="31"
       height="159"
       id="c1-8-3"
       style="fill:#00ff00;stroke:#00ff00;stroke-width:1;stroke-miterlimit:4;stroke-dasharray:none;stroke-dashoffset:0" />
    <rect
       x="929.75983"
       y="317.3504"
       width="31"
       height="159"
       id="c1-9-3"
       style="fill:#00ff00;stroke:#00ff00;stroke-width:1;stroke-miterlimit:4;stroke-dasharray:none;stroke-dashoffset:0" />
    <rect
       x="65.75985"
       y="509.3504"
       width="31"
       height="159"
       id="c1-0-5"
       style="fill:#00ff00;stroke:#00ff00;stroke-width:1;stroke-miterlimit:4;stroke-dasharray:none;stroke-dashoffset:0" />
    <rect
       x="257.75986"
       y="509.3504"
       width="31"
       height="159"
       id="c1-2-5"
       style="fill:#00ff00;stroke:#00ff00;stroke-width:1;stroke-miterlimit:4;stroke-dasharray:none;stroke-dashoffset:0" />
    <rect
       x="353.75986"
       y="509.3504"
       width="31"
       height="159"
       id="c1-3-5"
       style="fill:#00ff00;stroke:#00ff00;stroke-width:1;stroke-miterlimit:4;stroke-dasharray:none;stroke-dashoffset:0" />
    <rect
       x="545.75983"
       y="509.3504"
       width="31"
       height="159"
       id="c1-5-5"
       style="fill:#00ff00;stroke:#00ff00;stroke-width:1;stroke-miterlimit:4;stroke-dasharray:none;stroke-dashoffset:0" />
    <rect
       x="641.75983"
       y="509.3504"
       width="31"
       height="159"
       id="c1-6-5"
       style="fill:#00ff00;stroke:#00ff00;stroke-width:1;stroke-miterlimit:4;stroke-dasharray:none;stroke-dashoffset:0" />
    <rect
       x="833.75983"
       y="509.3504"
       width="31"
       height="159"
       id="c1-8-5"
       style="fill:#00ff00;stroke:#00ff00;stroke-width:1;stroke-miterlimit:4;stroke-dasharray:none;stroke-dashoffset:0" />
    <rect
       x="929.75983"
       y="509.3504"
       width="31"
       height="159"
       id="c1-9-5"
       style="fill:#00ff00;stroke:#00ff00;stroke-width:1;stroke-miterlimit:4;stroke-dasharray:none;stroke-dashoffset:0" />
  </g>
</svg>
