<?xml version="1.0" encoding="UTF-8" standalone="no"?>
<!-- Created with Inkscape (http://www.inkscape.org/) -->

<svg
   width="210mm"
   height="297mm"
   viewBox="0 0 210 297"
   version="1.1"
   id="svg87629"
   recurrence="v1"
   sodipodi:docname="soleares-green.svg"
   inkscape:version="1.1.1 (1:1.1+202109281943+c3084ef5ed)"
   xmlns:inkscape="http://www.inkscape.org/namespaces/inkscape"
   xmlns:sodipodi="http://sodipodi.sourceforge.net/DTD/sodipodi-0.dtd"
   xmlns="http://www.w3.org/2000/svg"
   xmlns:svg="http://www.w3.org/2000/svg">
  <sodipodi:namedview
     id="namedview87631"
     pagecolor="#ffffff"
     bordercolor="#666666"
     borderopacity="1.0"
     inkscape:pageshadow="2"
     inkscape:pageopacity="0.0"
     inkscape:pagecheckerboard="0"
     inkscape:document-units="mm"
     showgrid="false"
     inkscape:zoom="0.44008137"
     inkscape:cx="396.51758"
     inkscape:cy="561.25984"
     inkscape:window-width="1294"
     inkscape:window-height="704"
     inkscape:window-x="72"
     inkscape:window-y="27"
     inkscape:window-maximized="1"
     inkscape:current-layer="layer1" />
  <defs
     id="defs87626" />
  <g
     inkscape:label="Layer 1"
     inkscape:groupmode="layer"
     id="layer1">
    <g
       id="a0"
       style="fill:#ccc">
      <rect
         x="21.0"
         y="16.5"
         width="24.0"
         height="24.0"
         id="a0-0-0" />
      <rect
         x="69.0"
         y="16.5"
         width="24.0"
         height="24.0"
         id="a0-2-0" />
      <rect
         x="93.0"
         y="16.5"
         width="24.0"
         height="24.0"
         id="a0-3-0" />
      <rect
         x="141.0"
         y="16.5"
         width="24.0"
         height="24.0"
         id="a0-5-0" />
      <rect
         x="165.0"
         y="16.5"
         width="24.0"
         height="24.0"
         id="a0-6-0" />
      <rect
         x="21.0"
         y="64.5"
         width="24.0"
         height="24.0"
         id="a0-0-2" />
      <rect
         x="69.0"
         y="64.5"
         width="24.0"
         height="24.0"
         id="a0-2-2" />
      <rect
         x="93.0"
         y="64.5"
         width="24.0"
         height="24.0"
         id="a0-3-2" />
      <rect
         x="141.0"
         y="64.5"
         width="24.0"
         height="24.0"
         id="a0-5-2" />
      <rect
         x="165.0"
         y="64.5"
         width="24.0"
         height="24.0"
         id="a0-6-2" />
      <rect
         x="21.0"
         y="112.5"
         width="24.0"
         height="24.0"
         id="a0-0-4" />
      <rect
         x="69.0"
         y="112.5"
         width="24.0"
         height="24.0"
         id="a0-2-4" />
      <rect
         x="93.0"
         y="112.5"
         width="24.0"
         height="24.0"
         id="a0-3-4" />
      <rect
         x="141.0"
         y="112.5"
         width="24.0"
         height="24.0"
         id="a0-5-4" />
      <rect
         x="165.0"
         y="112.5"
         width="24.0"
         height="24.0"
         id="a0-6-4" />
      <rect
         x="21.0"
         y="160.5"
         width="24.0"
         height="24.0"
         id="a0-0-6" />
      <rect
         x="69.0"
         y="160.5"
         width="24.0"
         height="24.0"
         id="a0-2-6" />
      <rect
         x="93.0"
         y="160.5"
         width="24.0"
         height="24.0"
         id="a0-3-6" />
      <rect
         x="141.0"
         y="160.5"
         width="24.0"
         height="24.0"
         id="a0-5-6" />
      <rect
         x="165.0"
         y="160.5"
         width="24.0"
         height="24.0"
         id="a0-6-6" />
      <rect
         x="21.0"
         y="208.5"
         width="24.0"
         height="24.0"
         id="a0-0-8" />
      <rect
         x="69.0"
         y="208.5"
         width="24.0"
         height="24.0"
         id="a0-2-8" />
      <rect
         x="93.0"
         y="208.5"
         width="24.0"
         height="24.0"
         id="a0-3-8" />
      <rect
         x="141.0"
         y="208.5"
         width="24.0"
         height="24.0"
         id="a0-5-8" />
      <rect
         x="165.0"
         y="208.5"
         width="24.0"
         height="24.0"
         id="a0-6-8" />
      <rect
         x="21.0"
         y="256.5"
         width="24.0"
         height="24.0"
         id="a0-0-10" />
      <rect
         x="69.0"
         y="256.5"
         width="24.0"
         height="24.0"
         id="a0-2-10" />
      <rect
         x="93.0"
         y="256.5"
         width="24.0"
         height="24.0"
         id="a0-3-10" />
      <rect
         x="141.0"
         y="256.5"
         width="24.0"
         height="24.0"
         id="a0-5-10" />
      <rect
         x="165.0"
         y="256.5"
         width="24.0"
         height="24.0"
         id="a0-6-10" />
    </g>
    <g
       id="a1"
       style="fill:#000;fill-opacity:1.0;stroke:#000;stroke-dasharray:0;stroke-opacity:1.0;stroke-width:0">
      <rect
         x="21.0"
         y="16.0"
         width="24.0"
         height="24.0"
         inkscape:label="a"
         id="a1-0-0" />
      <rect
         x="69.0"
         y="16.0"
         width="24.0"
         height="24.0"
         inkscape:label="a"
         id="a1-2-0" />
      <rect
         x="93.0"
         y="16.0"
         width="24.0"
         height="24.0"
         inkscape:label="a"
         id="a1-3-0" />
      <rect
         x="141.0"
         y="16.0"
         width="24.0"
         height="24.0"
         inkscape:label="a"
         id="a1-5-0" />
      <rect
         x="165.0"
         y="16.0"
         width="24.0"
         height="24.0"
         inkscape:label="a"
         id="a1-6-0" />
      <rect
         x="21.0"
         y="64.0"
         width="24.0"
         height="24.0"
         inkscape:label="a"
         id="a1-0-2" />
      <rect
         x="69.0"
         y="64.0"
         width="24.0"
         height="24.0"
         inkscape:label="a"
         id="a1-2-2" />
      <rect
         x="93.0"
         y="64.0"
         width="24.0"
         height="24.0"
         inkscape:label="a"
         id="a1-3-2" />
      <rect
         x="141.0"
         y="64.0"
         width="24.0"
         height="24.0"
         inkscape:label="a"
         id="a1-5-2" />
      <rect
         x="165.0"
         y="64.0"
         width="24.0"
         height="24.0"
         inkscape:label="a"
         id="a1-6-2" />
      <rect
         x="21.0"
         y="112.0"
         width="24.0"
         height="24.0"
         inkscape:label="a"
         id="a1-0-4" />
      <rect
         x="69.0"
         y="112.0"
         width="24.0"
         height="24.0"
         inkscape:label="a"
         id="a1-2-4" />
      <rect
         x="93.0"
         y="112.0"
         width="24.0"
         height="24.0"
         inkscape:label="a"
         id="a1-3-4" />
      <rect
         x="141.0"
         y="112.0"
         width="24.0"
         height="24.0"
         inkscape:label="a"
         id="a1-5-4" />
      <rect
         x="165.0"
         y="112.0"
         width="24.0"
         height="24.0"
         inkscape:label="a"
         id="a1-6-4" />
      <rect
         x="21.0"
         y="160.0"
         width="24.0"
         height="24.0"
         inkscape:label="a"
         id="a1-0-6" />
      <rect
         x="69.0"
         y="160.0"
         width="24.0"
         height="24.0"
         inkscape:label="a"
         id="a1-2-6" />
      <rect
         x="93.0"
         y="160.0"
         width="24.0"
         height="24.0"
         inkscape:label="a"
         id="a1-3-6" />
      <rect
         x="141.0"
         y="160.0"
         width="24.0"
         height="24.0"
         inkscape:label="a"
         id="a1-5-6" />
      <rect
         x="165.0"
         y="160.0"
         width="24.0"
         height="24.0"
         inkscape:label="a"
         id="a1-6-6" />
      <rect
         x="21.0"
         y="208.0"
         width="24.0"
         height="24.0"
         inkscape:label="a"
         id="a1-0-8" />
      <rect
         x="69.0"
         y="208.0"
         width="24.0"
         height="24.0"
         inkscape:label="a"
         id="a1-2-8" />
      <rect
         x="93.0"
         y="208.0"
         width="24.0"
         height="24.0"
         inkscape:label="a"
         id="a1-3-8" />
      <rect
         x="141.0"
         y="208.0"
         width="24.0"
         height="24.0"
         inkscape:label="a"
         id="a1-5-8" />
      <rect
         x="165.0"
         y="208.0"
         width="24.0"
         height="24.0"
         inkscape:label="a"
         id="a1-6-8" />
      <rect
         x="21.0"
         y="256.0"
         width="24.0"
         height="24.0"
         inkscape:label="a"
         id="a1-0-10" />
      <rect
         x="69.0"
         y="256.0"
         width="24.0"
         height="24.0"
         inkscape:label="a"
         id="a1-2-10" />
      <rect
         x="93.0"
         y="256.0"
         width="24.0"
         height="24.0"
         inkscape:label="a"
         id="a1-3-10" />
      <rect
         x="141.0"
         y="256.0"
         width="24.0"
         height="24.0"
         inkscape:label="a"
         id="a1-5-10" />
      <rect
         x="165.0"
         y="256.0"
         width="24.0"
         height="24.0"
         inkscape:label="a"
         id="a1-6-10" />
    </g>
    <g
       id="b0"
       style="fill:#000">
      <rect
         x="45.0"
         y="16.5"
         width="24.0"
         height="24.0"
         id="b0-1-0" />
      <rect
         x="117.0"
         y="16.5"
         width="24.0"
         height="24.0"
         id="b0-4-0" />
      <rect
         x="45.0"
         y="64.5"
         width="24.0"
         height="24.0"
         id="b0-1-2" />
      <rect
         x="117.0"
         y="64.5"
         width="24.0"
         height="24.0"
         id="b0-4-2" />
      <rect
         x="45.0"
         y="112.5"
         width="24.0"
         height="24.0"
         id="b0-1-4" />
      <rect
         x="117.0"
         y="112.5"
         width="24.0"
         height="24.0"
         id="b0-4-4" />
      <rect
         x="45.0"
         y="160.5"
         width="24.0"
         height="24.0"
         id="b0-1-6" />
      <rect
         x="117.0"
         y="160.5"
         width="24.0"
         height="24.0"
         id="b0-4-6" />
      <rect
         x="45.0"
         y="208.5"
         width="24.0"
         height="24.0"
         id="b0-1-8" />
      <rect
         x="117.0"
         y="208.5"
         width="24.0"
         height="24.0"
         id="b0-4-8" />
      <rect
         x="45.0"
         y="256.5"
         width="24.0"
         height="24.0"
         id="b0-1-10" />
      <rect
         x="117.0"
         y="256.5"
         width="24.0"
         height="24.0"
         id="b0-4-10" />
    </g>
    <g
       id="c0"
       style="fill:#32CD32">
      <rect
         x="29.0"
         y="32.0"
         width="8.0"
         height="40.0"
         inkscape:label="c"
         id="c0-0-1" />
      <rect
         x="77.0"
         y="32.0"
         width="8.0"
         height="40.0"
         inkscape:label="c"
         id="c0-2-1" />
      <rect
         x="101.0"
         y="32.0"
         width="8.0"
         height="40.0"
         inkscape:label="c"
         id="c0-3-1" />
      <rect
         x="149.0"
         y="32.0"
         width="8.0"
         height="40.0"
         inkscape:label="c"
         id="c0-5-1" />
      <rect
         x="173.0"
         y="32.0"
         width="8.0"
         height="40.0"
         inkscape:label="c"
         id="c0-6-1" />
      <rect
         x="29.0"
         y="80.0"
         width="8.0"
         height="40.0"
         inkscape:label="c"
         id="c0-0-3" />
      <rect
         x="77.0"
         y="80.0"
         width="8.0"
         height="40.0"
         inkscape:label="c"
         id="c0-2-3" />
      <rect
         x="101.0"
         y="80.0"
         width="8.0"
         height="40.0"
         inkscape:label="c"
         id="c0-3-3" />
      <rect
         x="149.0"
         y="80.0"
         width="8.0"
         height="40.0"
         inkscape:label="c"
         id="c0-5-3" />
      <rect
         x="173.0"
         y="80.0"
         width="8.0"
         height="40.0"
         inkscape:label="c"
         id="c0-6-3" />
      <rect
         x="29.0"
         y="128.0"
         width="8.0"
         height="40.0"
         inkscape:label="c"
         id="c0-0-5" />
      <rect
         x="77.0"
         y="128.0"
         width="8.0"
         height="40.0"
         inkscape:label="c"
         id="c0-2-5" />
      <rect
         x="101.0"
         y="128.0"
         width="8.0"
         height="40.0"
         inkscape:label="c"
         id="c0-3-5" />
      <rect
         x="149.0"
         y="128.0"
         width="8.0"
         height="40.0"
         inkscape:label="c"
         id="c0-5-5" />
      <rect
         x="173.0"
         y="128.0"
         width="8.0"
         height="40.0"
         inkscape:label="c"
         id="c0-6-5" />
      <rect
         x="29.0"
         y="176.0"
         width="8.0"
         height="40.0"
         inkscape:label="c"
         id="c0-0-7" />
      <rect
         x="77.0"
         y="176.0"
         width="8.0"
         height="40.0"
         inkscape:label="c"
         id="c0-2-7" />
      <rect
         x="101.0"
         y="176.0"
         width="8.0"
         height="40.0"
         inkscape:label="c"
         id="c0-3-7" />
      <rect
         x="149.0"
         y="176.0"
         width="8.0"
         height="40.0"
         inkscape:label="c"
         id="c0-5-7" />
      <rect
         x="173.0"
         y="176.0"
         width="8.0"
         height="40.0"
         inkscape:label="c"
         id="c0-6-7" />
      <rect
         x="29.0"
         y="224.0"
         width="8.0"
         height="40.0"
         inkscape:label="c"
         id="c0-0-9" />
      <rect
         x="77.0"
         y="224.0"
         width="8.0"
         height="40.0"
         inkscape:label="c"
         id="c0-2-9" />
      <rect
         x="101.0"
         y="224.0"
         width="8.0"
         height="40.0"
         inkscape:label="c"
         id="c0-3-9" />
      <rect
         x="149.0"
         y="224.0"
         width="8.0"
         height="40.0"
         inkscape:label="c"
         id="c0-5-9" />
      <rect
         x="173.0"
         y="224.0"
         width="8.0"
         height="40.0"
         inkscape:label="c"
         id="c0-6-9" />
    </g>
    <g
       id="d0"
       style="fill:#32CD32">
      <rect
         x="45.0"
         y="40.5"
         width="24.0"
         height="24.0"
         id="d0-1-1" />
      <rect
         x="117.0"
         y="40.5"
         width="24.0"
         height="24.0"
         id="d0-4-1" />
      <rect
         x="45.0"
         y="88.5"
         width="24.0"
         height="24.0"
         id="d0-1-3" />
      <rect
         x="117.0"
         y="88.5"
         width="24.0"
         height="24.0"
         id="d0-4-3" />
      <rect
         x="45.0"
         y="136.5"
         width="24.0"
         height="24.0"
         id="d0-1-5" />
      <rect
         x="117.0"
         y="136.5"
         width="24.0"
         height="24.0"
         id="d0-4-5" />
      <rect
         x="45.0"
         y="184.5"
         width="24.0"
         height="24.0"
         id="d0-1-7" />
      <rect
         x="117.0"
         y="184.5"
         width="24.0"
         height="24.0"
         id="d0-4-7" />
      <rect
         x="45.0"
         y="232.5"
         width="24.0"
         height="24.0"
         id="d0-1-9" />
      <rect
         x="117.0"
         y="232.5"
         width="24.0"
         height="24.0"
         id="d0-4-9" />
    </g>
    <g
       id="b1"
       style="fill:#f08080;fill-opacity:1;stroke:#000;stroke-dasharray:0;stroke-opacity:1;stroke-width:0">
      <circle
         cx="57.0"
         cy="28.0"
         r="12.0"
         inkscape:label="b"
         id="b1-1-0"
         style="fill:#f08080" />
      <circle
         cx="129.0"
         cy="28.0"
         r="12.0"
         inkscape:label="b"
         id="b1-4-0"
         style="fill:#f08080" />
      <circle
         cx="57.0"
         cy="76.0"
         r="12.0"
         inkscape:label="b"
         id="b1-1-2"
         style="fill:#f08080" />
      <circle
         cx="129.0"
         cy="76.0"
         r="12.0"
         inkscape:label="b"
         id="b1-4-2"
         style="fill:#f08080" />
      <circle
         cx="57.0"
         cy="124.0"
         r="12.0"
         inkscape:label="b"
         id="b1-1-4"
         style="fill:#f08080" />
      <circle
         cx="129.0"
         cy="124.0"
         r="12.0"
         inkscape:label="b"
         id="b1-4-4"
         style="fill:#f08080" />
      <circle
         cx="57.0"
         cy="172.0"
         r="12.0"
         inkscape:label="b"
         id="b1-1-6"
         style="fill:#f08080" />
      <circle
         cx="129.0"
         cy="172.0"
         r="12.0"
         inkscape:label="b"
         id="b1-4-6"
         style="fill:#f08080" />
      <circle
         cx="57.0"
         cy="220.0"
         r="12.0"
         inkscape:label="b"
         id="b1-1-8"
         style="fill:#f08080" />
      <circle
         cx="129.0"
         cy="220.0"
         r="12.0"
         inkscape:label="b"
         id="b1-4-8"
         style="fill:#f08080" />
      <circle
         cx="57.0"
         cy="268.0"
         r="12.0"
         inkscape:label="b"
         id="b1-1-10"
         style="fill:#f08080" />
      <circle
         cx="129.0"
         cy="268.0"
         r="12.0"
         inkscape:label="b"
         id="b1-4-10"
         style="fill:#f08080" />
    </g>
    <g
       id="d1"
       style="fill:#000;fill-opacity:1.0;stroke:#000;stroke-dasharray:0;stroke-opacity:1.0;stroke-width:0">
      <polygon
         points="45.0,40.0,57.0,64.0,69.0,40.0,45.0,40.0"
         inkscape:label="d"
         id="d1-1-1" />
      <polygon
         points="117.0,40.0,129.0,64.0,141.0,40.0,117.0,40.0"
         inkscape:label="d"
         id="d1-4-1" />
      <polygon
         points="45.0,88.0,57.0,112.0,69.0,88.0,45.0,88.0"
         inkscape:label="d"
         id="d1-1-3" />
      <polygon
         points="117.0,88.0,129.0,112.0,141.0,88.0,117.0,88.0"
         inkscape:label="d"
         id="d1-4-3" />
      <polygon
         points="45.0,136.0,57.0,160.0,69.0,136.0,45.0,136.0"
         inkscape:label="d"
         id="d1-1-5" />
      <polygon
         points="117.0,136.0,129.0,160.0,141.0,136.0,117.0,136.0"
         inkscape:label="d"
         id="d1-4-5" />
      <polygon
         points="45.0,184.0,57.0,208.0,69.0,184.0,45.0,184.0"
         inkscape:label="d"
         id="d1-1-7" />
      <polygon
         points="117.0,184.0,129.0,208.0,141.0,184.0,117.0,184.0"
         inkscape:label="d"
         id="d1-4-7" />
      <polygon
         points="45.0,232.0,57.0,256.0,69.0,232.0,45.0,232.0"
         inkscape:label="d"
         id="d1-1-9" />
      <polygon
         points="117.0,232.0,129.0,256.0,141.0,232.0,117.0,232.0"
         inkscape:label="d"
         id="d1-4-9" />
    </g>
    <g
       id="c1"
       style="fill:#00ff7f;fill-opacity:1;stroke:#00ff7f;stroke-dasharray:0;stroke-opacity:1;stroke-width:0;opacity:1">
      <rect
         x="29.0"
         y="32.0"
         width="8.0"
         height="40.0"
         inkscape:label="c"
         id="c1-0-1"
         style="stroke:#00ff7f;fill:#00ff7f" />
      <rect
         x="77.0"
         y="32.0"
         width="8.0"
         height="40.0"
         inkscape:label="c"
         id="c1-2-1"
         style="stroke:#00ff7f;fill:#00ff7f" />
      <rect
         x="101.0"
         y="32.0"
         width="8.0"
         height="40.0"
         inkscape:label="c"
         id="c1-3-1"
         style="stroke:#00ff7f;fill:#00ff7f" />
      <rect
         x="149.0"
         y="32.0"
         width="8.0"
         height="40.0"
         inkscape:label="c"
         id="c1-5-1"
         style="stroke:#00ff7f;fill:#00ff7f" />
      <rect
         x="173.0"
         y="32.0"
         width="8.0"
         height="40.0"
         inkscape:label="c"
         id="c1-6-1"
         style="stroke:#00ff7f;fill:#00ff7f" />
      <rect
         x="29.0"
         y="80.0"
         width="8.0"
         height="40.0"
         inkscape:label="c"
         id="c1-0-3"
         style="stroke:#00ff7f;fill:#00ff7f" />
      <rect
         x="77.0"
         y="80.0"
         width="8.0"
         height="40.0"
         inkscape:label="c"
         id="c1-2-3"
         style="stroke:#00ff7f;fill:#00ff7f" />
      <rect
         x="101.0"
         y="80.0"
         width="8.0"
         height="40.0"
         inkscape:label="c"
         id="c1-3-3"
         style="stroke:#00ff7f;fill:#00ff7f" />
      <rect
         x="149.0"
         y="80.0"
         width="8.0"
         height="40.0"
         inkscape:label="c"
         id="c1-5-3"
         style="stroke:#00ff7f;fill:#00ff7f" />
      <rect
         x="173.0"
         y="80.0"
         width="8.0"
         height="40.0"
         inkscape:label="c"
         id="c1-6-3"
         style="stroke:#00ff7f;fill:#00ff7f" />
      <rect
         x="29.0"
         y="128.0"
         width="8.0"
         height="40.0"
         inkscape:label="c"
         id="c1-0-5"
         style="stroke:#00ff7f;fill:#00ff7f" />
      <rect
         x="77.0"
         y="128.0"
         width="8.0"
         height="40.0"
         inkscape:label="c"
         id="c1-2-5"
         style="stroke:#00ff7f;fill:#00ff7f" />
      <rect
         x="101.0"
         y="128.0"
         width="8.0"
         height="40.0"
         inkscape:label="c"
         id="c1-3-5"
         style="stroke:#00ff7f;fill:#00ff7f" />
      <rect
         x="149.0"
         y="128.0"
         width="8.0"
         height="40.0"
         inkscape:label="c"
         id="c1-5-5"
         style="stroke:#00ff7f;fill:#00ff7f" />
      <rect
         x="173.0"
         y="128.0"
         width="8.0"
         height="40.0"
         inkscape:label="c"
         id="c1-6-5"
         style="stroke:#00ff7f;fill:#00ff7f" />
      <rect
         x="29.0"
         y="176.0"
         width="8.0"
         height="40.0"
         inkscape:label="c"
         id="c1-0-7"
         style="stroke:#00ff7f;fill:#00ff7f" />
      <rect
         x="77.0"
         y="176.0"
         width="8.0"
         height="40.0"
         inkscape:label="c"
         id="c1-2-7"
         style="stroke:#00ff7f;fill:#00ff7f" />
      <rect
         x="101.0"
         y="176.0"
         width="8.0"
         height="40.0"
         inkscape:label="c"
         id="c1-3-7"
         style="stroke:#00ff7f;fill:#00ff7f" />
      <rect
         x="149.0"
         y="176.0"
         width="8.0"
         height="40.0"
         inkscape:label="c"
         id="c1-5-7"
         style="stroke:#00ff7f;fill:#00ff7f" />
      <rect
         x="173.0"
         y="176.0"
         width="8.0"
         height="40.0"
         inkscape:label="c"
         id="c1-6-7"
         style="stroke:#00ff7f;fill:#00ff7f" />
      <rect
         x="29.0"
         y="224.0"
         width="8.0"
         height="40.0"
         inkscape:label="c"
         id="c1-0-9"
         style="stroke:#00ff7f;fill:#00ff7f" />
      <rect
         x="77.0"
         y="224.0"
         width="8.0"
         height="40.0"
         inkscape:label="c"
         id="c1-2-9"
         style="stroke:#00ff7f;fill:#00ff7f" />
      <rect
         x="101.0"
         y="224.0"
         width="8.0"
         height="40.0"
         inkscape:label="c"
         id="c1-3-9"
         style="stroke:#00ff7f;fill:#00ff7f" />
      <rect
         x="149.0"
         y="224.0"
         width="8.0"
         height="40.0"
         inkscape:label="c"
         id="c1-5-9"
         style="stroke:#00ff7f;fill:#00ff7f" />
      <rect
         x="173.0"
         y="224.0"
         width="8.0"
         height="40.0"
         inkscape:label="c"
         id="c1-6-9"
         style="stroke:#00ff7f;fill:#00ff7f" />
    </g>
  </g>
</svg>
