<svg xmlns="http://www.w3.org/2000/svg" viewBox="0 0 1080 1080" width="1080px" height="1080px" transform="scale(1)">
  <!-- scale:1.00 cellpx:60 -->
  <g id="1" style="fill:#00F;stroke-width:0">
    <rect id="2" x="0" y="0" width="60" height="60" />
    <rect id="3" x="120" y="0" width="60" height="60" />
    <rect id="4" x="180" y="0" width="60" height="60" />
    <rect id="5" x="300" y="0" width="60" height="60" />
    <rect id="6" x="360" y="0" width="60" height="60" />
    <rect id="7" x="480" y="0" width="60" height="60" />
    <rect id="8" x="540" y="0" width="60" height="60" />
    <rect id="9" x="660" y="0" width="60" height="60" />
    <rect id="10" x="720" y="0" width="60" height="60" />
    <rect id="11" x="840" y="0" width="60" height="60" />
    <rect id="12" x="900" y="0" width="60" height="60" />
    <rect id="13" x="1020" y="0" width="60" height="60" />
    <rect id="14" x="0" y="120" width="60" height="60" />
    <rect id="15" x="120" y="120" width="60" height="60" />
    <rect id="16" x="180" y="120" width="60" height="60" />
    <rect id="17" x="300" y="120" width="60" height="60" />
    <rect id="18" x="360" y="120" width="60" height="60" />
    <rect id="19" x="480" y="120" width="60" height="60" />
    <rect id="20" x="540" y="120" width="60" height="60" />
    <rect id="21" x="660" y="120" width="60" height="60" />
    <rect id="22" x="720" y="120" width="60" height="60" />
    <rect id="23" x="840" y="120" width="60" height="60" />
    <rect id="24" x="900" y="120" width="60" height="60" />
    <rect id="25" x="1020" y="120" width="60" height="60" />
    <rect id="26" x="0" y="240" width="60" height="60" />
    <rect id="27" x="120" y="240" width="60" height="60" />
    <rect id="28" x="180" y="240" width="60" height="60" />
    <rect id="29" x="300" y="240" width="60" height="60" />
    <rect id="30" x="360" y="240" width="60" height="60" />
    <rect id="31" x="480" y="240" width="60" height="60" />
    <rect id="32" x="540" y="240" width="60" height="60" />
    <rect id="33" x="660" y="240" width="60" height="60" />
    <rect id="34" x="720" y="240" width="60" height="60" />
    <rect id="35" x="840" y="240" width="60" height="60" />
    <rect id="36" x="900" y="240" width="60" height="60" />
    <rect id="37" x="1020" y="240" width="60" height="60" />
    <rect id="38" x="0" y="360" width="60" height="60" />
    <rect id="39" x="120" y="360" width="60" height="60" />
    <rect id="40" x="180" y="360" width="60" height="60" />
    <rect id="41" x="300" y="360" width="60" height="60" />
    <rect id="42" x="360" y="360" width="60" height="60" />
    <rect id="43" x="480" y="360" width="60" height="60" />
    <rect id="44" x="540" y="360" width="60" height="60" />
    <rect id="45" x="660" y="360" width="60" height="60" />
    <rect id="46" x="720" y="360" width="60" height="60" />
    <rect id="47" x="840" y="360" width="60" height="60" />
    <rect id="48" x="900" y="360" width="60" height="60" />
    <rect id="49" x="1020" y="360" width="60" height="60" />
    <rect id="50" x="0" y="480" width="60" height="60" />
    <rect id="51" x="120" y="480" width="60" height="60" />
    <rect id="52" x="180" y="480" width="60" height="60" />
    <rect id="53" x="300" y="480" width="60" height="60" />
    <rect id="54" x="360" y="480" width="60" height="60" />
    <rect id="55" x="480" y="480" width="60" height="60" />
    <rect id="56" x="540" y="480" width="60" height="60" />
    <rect id="57" x="660" y="480" width="60" height="60" />
    <rect id="58" x="720" y="480" width="60" height="60" />
    <rect id="59" x="840" y="480" width="60" height="60" />
    <rect id="60" x="900" y="480" width="60" height="60" />
    <rect id="61" x="1020" y="480" width="60" height="60" />
    <rect id="62" x="0" y="600" width="60" height="60" />
    <rect id="63" x="120" y="600" width="60" height="60" />
    <rect id="64" x="180" y="600" width="60" height="60" />
    <rect id="65" x="300" y="600" width="60" height="60" />
    <rect id="66" x="360" y="600" width="60" height="60" />
    <rect id="67" x="480" y="600" width="60" height="60" />
    <rect id="68" x="540" y="600" width="60" height="60" />
    <rect id="69" x="660" y="600" width="60" height="60" />
    <rect id="70" x="720" y="600" width="60" height="60" />
    <rect id="71" x="840" y="600" width="60" height="60" />
    <rect id="72" x="900" y="600" width="60" height="60" />
    <rect id="73" x="1020" y="600" width="60" height="60" />
    <rect id="74" x="0" y="720" width="60" height="60" />
    <rect id="75" x="120" y="720" width="60" height="60" />
    <rect id="76" x="180" y="720" width="60" height="60" />
    <rect id="77" x="300" y="720" width="60" height="60" />
    <rect id="78" x="360" y="720" width="60" height="60" />
    <rect id="79" x="480" y="720" width="60" height="60" />
    <rect id="80" x="540" y="720" width="60" height="60" />
    <rect id="81" x="660" y="720" width="60" height="60" />
    <rect id="82" x="720" y="720" width="60" height="60" />
    <rect id="83" x="840" y="720" width="60" height="60" />
    <rect id="84" x="900" y="720" width="60" height="60" />
    <rect id="85" x="1020" y="720" width="60" height="60" />
    <rect id="86" x="0" y="840" width="60" height="60" />
    <rect id="87" x="120" y="840" width="60" height="60" />
    <rect id="88" x="180" y="840" width="60" height="60" />
    <rect id="89" x="300" y="840" width="60" height="60" />
    <rect id="90" x="360" y="840" width="60" height="60" />
    <rect id="91" x="480" y="840" width="60" height="60" />
    <rect id="92" x="540" y="840" width="60" height="60" />
    <rect id="93" x="660" y="840" width="60" height="60" />
    <rect id="94" x="720" y="840" width="60" height="60" />
    <rect id="95" x="840" y="840" width="60" height="60" />
    <rect id="96" x="900" y="840" width="60" height="60" />
    <rect id="97" x="1020" y="840" width="60" height="60" />
    <rect id="98" x="0" y="960" width="60" height="60" />
    <rect id="99" x="120" y="960" width="60" height="60" />
    <rect id="100" x="180" y="960" width="60" height="60" />
    <rect id="101" x="300" y="960" width="60" height="60" />
    <rect id="102" x="360" y="960" width="60" height="60" />
    <rect id="103" x="480" y="960" width="60" height="60" />
    <rect id="104" x="540" y="960" width="60" height="60" />
    <rect id="105" x="660" y="960" width="60" height="60" />
    <rect id="106" x="720" y="960" width="60" height="60" />
    <rect id="107" x="840" y="960" width="60" height="60" />
    <rect id="108" x="900" y="960" width="60" height="60" />
    <rect id="109" x="1020" y="960" width="60" height="60" />
  </g>
  <g id="110" style="fill:#FF0;stroke-width:0">
    <rect id="111" x="60" y="60" width="60" height="60" />
    <rect id="112" x="240" y="60" width="60" height="60" />
    <rect id="113" x="420" y="60" width="60" height="60" />
    <rect id="114" x="600" y="60" width="60" height="60" />
    <rect id="115" x="780" y="60" width="60" height="60" />
    <rect id="116" x="960" y="60" width="60" height="60" />
    <rect id="117" x="60" y="180" width="60" height="60" />
    <rect id="118" x="240" y="180" width="60" height="60" />
    <rect id="119" x="420" y="180" width="60" height="60" />
    <rect id="120" x="600" y="180" width="60" height="60" />
    <rect id="121" x="780" y="180" width="60" height="60" />
    <rect id="122" x="960" y="180" width="60" height="60" />
    <rect id="123" x="60" y="300" width="60" height="60" />
    <rect id="124" x="240" y="300" width="60" height="60" />
    <rect id="125" x="420" y="300" width="60" height="60" />
    <rect id="126" x="600" y="300" width="60" height="60" />
    <rect id="127" x="780" y="300" width="60" height="60" />
    <rect id="128" x="960" y="300" width="60" height="60" />
    <rect id="129" x="60" y="420" width="60" height="60" />
    <rect id="130" x="240" y="420" width="60" height="60" />
    <rect id="131" x="420" y="420" width="60" height="60" />
    <rect id="132" x="600" y="420" width="60" height="60" />
    <rect id="133" x="780" y="420" width="60" height="60" />
    <rect id="134" x="960" y="420" width="60" height="60" />
    <rect id="135" x="60" y="540" width="60" height="60" />
    <rect id="136" x="240" y="540" width="60" height="60" />
    <rect id="137" x="420" y="540" width="60" height="60" />
    <rect id="138" x="600" y="540" width="60" height="60" />
    <rect id="139" x="780" y="540" width="60" height="60" />
    <rect id="140" x="960" y="540" width="60" height="60" />
    <rect id="141" x="60" y="660" width="60" height="60" />
    <rect id="142" x="240" y="660" width="60" height="60" />
    <rect id="143" x="420" y="660" width="60" height="60" />
    <rect id="144" x="600" y="660" width="60" height="60" />
    <rect id="145" x="780" y="660" width="60" height="60" />
    <rect id="146" x="960" y="660" width="60" height="60" />
    <rect id="147" x="60" y="780" width="60" height="60" />
    <rect id="148" x="240" y="780" width="60" height="60" />
    <rect id="149" x="420" y="780" width="60" height="60" />
    <rect id="150" x="600" y="780" width="60" height="60" />
    <rect id="151" x="780" y="780" width="60" height="60" />
    <rect id="152" x="960" y="780" width="60" height="60" />
    <rect id="153" x="60" y="900" width="60" height="60" />
    <rect id="154" x="240" y="900" width="60" height="60" />
    <rect id="155" x="420" y="900" width="60" height="60" />
    <rect id="156" x="600" y="900" width="60" height="60" />
    <rect id="157" x="780" y="900" width="60" height="60" />
    <rect id="158" x="960" y="900" width="60" height="60" />
    <rect id="159" x="60" y="1020" width="60" height="60" />
    <rect id="160" x="240" y="1020" width="60" height="60" />
    <rect id="161" x="420" y="1020" width="60" height="60" />
    <rect id="162" x="600" y="1020" width="60" height="60" />
    <rect id="163" x="780" y="1020" width="60" height="60" />
    <rect id="164" x="960" y="1020" width="60" height="60" />
  </g>
  <g id="165" style="fill:#F00;stroke-width:0">
    <rect id="166" x="60" y="0" width="60" height="60" />
    <rect id="167" x="240" y="0" width="60" height="60" />
    <rect id="168" x="420" y="0" width="60" height="60" />
    <rect id="169" x="600" y="0" width="60" height="60" />
    <rect id="170" x="780" y="0" width="60" height="60" />
    <rect id="171" x="960" y="0" width="60" height="60" />
    <rect id="172" x="60" y="120" width="60" height="60" />
    <rect id="173" x="240" y="120" width="60" height="60" />
    <rect id="174" x="420" y="120" width="60" height="60" />
    <rect id="175" x="600" y="120" width="60" height="60" />
    <rect id="176" x="780" y="120" width="60" height="60" />
    <rect id="177" x="960" y="120" width="60" height="60" />
    <rect id="178" x="60" y="240" width="60" height="60" />
    <rect id="179" x="240" y="240" width="60" height="60" />
    <rect id="180" x="420" y="240" width="60" height="60" />
    <rect id="181" x="600" y="240" width="60" height="60" />
    <rect id="182" x="780" y="240" width="60" height="60" />
    <rect id="183" x="960" y="240" width="60" height="60" />
    <rect id="184" x="60" y="360" width="60" height="60" />
    <rect id="185" x="240" y="360" width="60" height="60" />
    <rect id="186" x="420" y="360" width="60" height="60" />
    <rect id="187" x="600" y="360" width="60" height="60" />
    <rect id="188" x="780" y="360" width="60" height="60" />
    <rect id="189" x="960" y="360" width="60" height="60" />
    <rect id="190" x="60" y="480" width="60" height="60" />
    <rect id="191" x="240" y="480" width="60" height="60" />
    <rect id="192" x="420" y="480" width="60" height="60" />
    <rect id="193" x="600" y="480" width="60" height="60" />
    <rect id="194" x="780" y="480" width="60" height="60" />
    <rect id="195" x="960" y="480" width="60" height="60" />
    <rect id="196" x="60" y="600" width="60" height="60" />
    <rect id="197" x="240" y="600" width="60" height="60" />
    <rect id="198" x="420" y="600" width="60" height="60" />
    <rect id="199" x="600" y="600" width="60" height="60" />
    <rect id="200" x="780" y="600" width="60" height="60" />
    <rect id="201" x="960" y="600" width="60" height="60" />
    <rect id="202" x="60" y="720" width="60" height="60" />
    <rect id="203" x="240" y="720" width="60" height="60" />
    <rect id="204" x="420" y="720" width="60" height="60" />
    <rect id="205" x="600" y="720" width="60" height="60" />
    <rect id="206" x="780" y="720" width="60" height="60" />
    <rect id="207" x="960" y="720" width="60" height="60" />
    <rect id="208" x="60" y="840" width="60" height="60" />
    <rect id="209" x="240" y="840" width="60" height="60" />
    <rect id="210" x="420" y="840" width="60" height="60" />
    <rect id="211" x="600" y="840" width="60" height="60" />
    <rect id="212" x="780" y="840" width="60" height="60" />
    <rect id="213" x="960" y="840" width="60" height="60" />
    <rect id="214" x="60" y="960" width="60" height="60" />
    <rect id="215" x="240" y="960" width="60" height="60" />
    <rect id="216" x="420" y="960" width="60" height="60" />
    <rect id="217" x="600" y="960" width="60" height="60" />
    <rect id="218" x="780" y="960" width="60" height="60" />
    <rect id="219" x="960" y="960" width="60" height="60" />
  </g>
  <g id="220" style="fill:#FFF;stroke-width:0">
    <rect id="221" x="0" y="60" width="60" height="60" />
    <rect id="222" x="120" y="60" width="60" height="60" />
    <rect id="223" x="180" y="60" width="60" height="60" />
    <rect id="224" x="300" y="60" width="60" height="60" />
    <rect id="225" x="360" y="60" width="60" height="60" />
    <rect id="226" x="480" y="60" width="60" height="60" />
    <rect id="227" x="540" y="60" width="60" height="60" />
    <rect id="228" x="660" y="60" width="60" height="60" />
    <rect id="229" x="720" y="60" width="60" height="60" />
    <rect id="230" x="840" y="60" width="60" height="60" />
    <rect id="231" x="900" y="60" width="60" height="60" />
    <rect id="232" x="1020" y="60" width="60" height="60" />
    <rect id="233" x="0" y="180" width="60" height="60" />
    <rect id="234" x="120" y="180" width="60" height="60" />
    <rect id="235" x="180" y="180" width="60" height="60" />
    <rect id="236" x="300" y="180" width="60" height="60" />
    <rect id="237" x="360" y="180" width="60" height="60" />
    <rect id="238" x="480" y="180" width="60" height="60" />
    <rect id="239" x="540" y="180" width="60" height="60" />
    <rect id="240" x="660" y="180" width="60" height="60" />
    <rect id="241" x="720" y="180" width="60" height="60" />
    <rect id="242" x="840" y="180" width="60" height="60" />
    <rect id="243" x="900" y="180" width="60" height="60" />
    <rect id="244" x="1020" y="180" width="60" height="60" />
    <rect id="245" x="0" y="300" width="60" height="60" />
    <rect id="246" x="120" y="300" width="60" height="60" />
    <rect id="247" x="180" y="300" width="60" height="60" />
    <rect id="248" x="300" y="300" width="60" height="60" />
    <rect id="249" x="360" y="300" width="60" height="60" />
    <rect id="250" x="480" y="300" width="60" height="60" />
    <rect id="251" x="540" y="300" width="60" height="60" />
    <rect id="252" x="660" y="300" width="60" height="60" />
    <rect id="253" x="720" y="300" width="60" height="60" />
    <rect id="254" x="840" y="300" width="60" height="60" />
    <rect id="255" x="900" y="300" width="60" height="60" />
    <rect id="256" x="1020" y="300" width="60" height="60" />
    <rect id="257" x="0" y="420" width="60" height="60" />
    <rect id="258" x="120" y="420" width="60" height="60" />
    <rect id="259" x="180" y="420" width="60" height="60" />
    <rect id="260" x="300" y="420" width="60" height="60" />
    <rect id="261" x="360" y="420" width="60" height="60" />
    <rect id="262" x="480" y="420" width="60" height="60" />
    <rect id="263" x="540" y="420" width="60" height="60" />
    <rect id="264" x="660" y="420" width="60" height="60" />
    <rect id="265" x="720" y="420" width="60" height="60" />
    <rect id="266" x="840" y="420" width="60" height="60" />
    <rect id="267" x="900" y="420" width="60" height="60" />
    <rect id="268" x="1020" y="420" width="60" height="60" />
    <rect id="269" x="0" y="540" width="60" height="60" />
    <rect id="270" x="120" y="540" width="60" height="60" />
    <rect id="271" x="180" y="540" width="60" height="60" />
    <rect id="272" x="300" y="540" width="60" height="60" />
    <rect id="273" x="360" y="540" width="60" height="60" />
    <rect id="274" x="480" y="540" width="60" height="60" />
    <rect id="275" x="540" y="540" width="60" height="60" />
    <rect id="276" x="660" y="540" width="60" height="60" />
    <rect id="277" x="720" y="540" width="60" height="60" />
    <rect id="278" x="840" y="540" width="60" height="60" />
    <rect id="279" x="900" y="540" width="60" height="60" />
    <rect id="280" x="1020" y="540" width="60" height="60" />
    <rect id="281" x="0" y="660" width="60" height="60" />
    <rect id="282" x="120" y="660" width="60" height="60" />
    <rect id="283" x="180" y="660" width="60" height="60" />
    <rect id="284" x="300" y="660" width="60" height="60" />
    <rect id="285" x="360" y="660" width="60" height="60" />
    <rect id="286" x="480" y="660" width="60" height="60" />
    <rect id="287" x="540" y="660" width="60" height="60" />
    <rect id="288" x="660" y="660" width="60" height="60" />
    <rect id="289" x="720" y="660" width="60" height="60" />
    <rect id="290" x="840" y="660" width="60" height="60" />
    <rect id="291" x="900" y="660" width="60" height="60" />
    <rect id="292" x="1020" y="660" width="60" height="60" />
    <rect id="293" x="0" y="780" width="60" height="60" />
    <rect id="294" x="120" y="780" width="60" height="60" />
    <rect id="295" x="180" y="780" width="60" height="60" />
    <rect id="296" x="300" y="780" width="60" height="60" />
    <rect id="297" x="360" y="780" width="60" height="60" />
    <rect id="298" x="480" y="780" width="60" height="60" />
    <rect id="299" x="540" y="780" width="60" height="60" />
    <rect id="300" x="660" y="780" width="60" height="60" />
    <rect id="301" x="720" y="780" width="60" height="60" />
    <rect id="302" x="840" y="780" width="60" height="60" />
    <rect id="303" x="900" y="780" width="60" height="60" />
    <rect id="304" x="1020" y="780" width="60" height="60" />
    <rect id="305" x="0" y="900" width="60" height="60" />
    <rect id="306" x="120" y="900" width="60" height="60" />
    <rect id="307" x="180" y="900" width="60" height="60" />
    <rect id="308" x="300" y="900" width="60" height="60" />
    <rect id="309" x="360" y="900" width="60" height="60" />
    <rect id="310" x="480" y="900" width="60" height="60" />
    <rect id="311" x="540" y="900" width="60" height="60" />
    <rect id="312" x="660" y="900" width="60" height="60" />
    <rect id="313" x="720" y="900" width="60" height="60" />
    <rect id="314" x="840" y="900" width="60" height="60" />
    <rect id="315" x="900" y="900" width="60" height="60" />
    <rect id="316" x="1020" y="900" width="60" height="60" />
    <rect id="317" x="0" y="1020" width="60" height="60" />
    <rect id="318" x="120" y="1020" width="60" height="60" />
    <rect id="319" x="180" y="1020" width="60" height="60" />
    <rect id="320" x="300" y="1020" width="60" height="60" />
    <rect id="321" x="360" y="1020" width="60" height="60" />
    <rect id="322" x="480" y="1020" width="60" height="60" />
    <rect id="323" x="540" y="1020" width="60" height="60" />
    <rect id="324" x="660" y="1020" width="60" height="60" />
    <rect id="325" x="720" y="1020" width="60" height="60" />
    <rect id="326" x="840" y="1020" width="60" height="60" />
    <rect id="327" x="900" y="1020" width="60" height="60" />
    <rect id="328" x="1020" y="1020" width="60" height="60" />
  </g>
  <g id="329" style="fill:#000;fill-opacity:1.0">
    <circle id="330" cx="30" cy="30" r="20" />
    <circle id="331" cx="150" cy="30" r="20" />
    <circle id="332" cx="210" cy="30" r="20" />
    <circle id="333" cx="330" cy="30" r="20" />
    <circle id="334" cx="390" cy="30" r="20" />
    <circle id="335" cx="510" cy="30" r="20" />
    <circle id="336" cx="570" cy="30" r="20" />
    <circle id="337" cx="690" cy="30" r="20" />
    <circle id="338" cx="750" cy="30" r="20" />
    <circle id="339" cx="870" cy="30" r="20" />
    <circle id="340" cx="930" cy="30" r="20" />
    <circle id="341" cx="1050" cy="30" r="20" />
    <circle id="342" cx="30" cy="150" r="20" />
    <circle id="343" cx="150" cy="150" r="20" />
    <circle id="344" cx="210" cy="150" r="20" />
    <circle id="345" cx="330" cy="150" r="20" />
    <circle id="346" cx="390" cy="150" r="20" />
    <circle id="347" cx="510" cy="150" r="20" />
    <circle id="348" cx="570" cy="150" r="20" />
    <circle id="349" cx="690" cy="150" r="20" />
    <circle id="350" cx="750" cy="150" r="20" />
    <circle id="351" cx="870" cy="150" r="20" />
    <circle id="352" cx="930" cy="150" r="20" />
    <circle id="353" cx="1050" cy="150" r="20" />
    <circle id="354" cx="30" cy="270" r="20" />
    <circle id="355" cx="150" cy="270" r="20" />
    <circle id="356" cx="210" cy="270" r="20" />
    <circle id="357" cx="330" cy="270" r="20" />
    <circle id="358" cx="390" cy="270" r="20" />
    <circle id="359" cx="510" cy="270" r="20" />
    <circle id="360" cx="570" cy="270" r="20" />
    <circle id="361" cx="690" cy="270" r="20" />
    <circle id="362" cx="750" cy="270" r="20" />
    <circle id="363" cx="870" cy="270" r="20" />
    <circle id="364" cx="930" cy="270" r="20" />
    <circle id="365" cx="1050" cy="270" r="20" />
    <circle id="366" cx="30" cy="390" r="20" />
    <circle id="367" cx="150" cy="390" r="20" />
    <circle id="368" cx="210" cy="390" r="20" />
    <circle id="369" cx="330" cy="390" r="20" />
    <circle id="370" cx="390" cy="390" r="20" />
    <circle id="371" cx="510" cy="390" r="20" />
    <circle id="372" cx="570" cy="390" r="20" />
    <circle id="373" cx="690" cy="390" r="20" />
    <circle id="374" cx="750" cy="390" r="20" />
    <circle id="375" cx="870" cy="390" r="20" />
    <circle id="376" cx="930" cy="390" r="20" />
    <circle id="377" cx="1050" cy="390" r="20" />
    <circle id="378" cx="30" cy="510" r="20" />
    <circle id="379" cx="150" cy="510" r="20" />
    <circle id="380" cx="210" cy="510" r="20" />
    <circle id="381" cx="330" cy="510" r="20" />
    <circle id="382" cx="390" cy="510" r="20" />
    <circle id="383" cx="510" cy="510" r="20" />
    <circle id="384" cx="570" cy="510" r="20" />
    <circle id="385" cx="690" cy="510" r="20" />
    <circle id="386" cx="750" cy="510" r="20" />
    <circle id="387" cx="870" cy="510" r="20" />
    <circle id="388" cx="930" cy="510" r="20" />
    <circle id="389" cx="1050" cy="510" r="20" />
    <circle id="390" cx="30" cy="630" r="20" />
    <circle id="391" cx="150" cy="630" r="20" />
    <circle id="392" cx="210" cy="630" r="20" />
    <circle id="393" cx="330" cy="630" r="20" />
    <circle id="394" cx="390" cy="630" r="20" />
    <circle id="395" cx="510" cy="630" r="20" />
    <circle id="396" cx="570" cy="630" r="20" />
    <circle id="397" cx="690" cy="630" r="20" />
    <circle id="398" cx="750" cy="630" r="20" />
    <circle id="399" cx="870" cy="630" r="20" />
    <circle id="400" cx="930" cy="630" r="20" />
    <circle id="401" cx="1050" cy="630" r="20" />
    <circle id="402" cx="30" cy="750" r="20" />
    <circle id="403" cx="150" cy="750" r="20" />
    <circle id="404" cx="210" cy="750" r="20" />
    <circle id="405" cx="330" cy="750" r="20" />
    <circle id="406" cx="390" cy="750" r="20" />
    <circle id="407" cx="510" cy="750" r="20" />
    <circle id="408" cx="570" cy="750" r="20" />
    <circle id="409" cx="690" cy="750" r="20" />
    <circle id="410" cx="750" cy="750" r="20" />
    <circle id="411" cx="870" cy="750" r="20" />
    <circle id="412" cx="930" cy="750" r="20" />
    <circle id="413" cx="1050" cy="750" r="20" />
    <circle id="414" cx="30" cy="870" r="20" />
    <circle id="415" cx="150" cy="870" r="20" />
    <circle id="416" cx="210" cy="870" r="20" />
    <circle id="417" cx="330" cy="870" r="20" />
    <circle id="418" cx="390" cy="870" r="20" />
    <circle id="419" cx="510" cy="870" r="20" />
    <circle id="420" cx="570" cy="870" r="20" />
    <circle id="421" cx="690" cy="870" r="20" />
    <circle id="422" cx="750" cy="870" r="20" />
    <circle id="423" cx="870" cy="870" r="20" />
    <circle id="424" cx="930" cy="870" r="20" />
    <circle id="425" cx="1050" cy="870" r="20" />
    <circle id="426" cx="30" cy="990" r="20" />
    <circle id="427" cx="150" cy="990" r="20" />
    <circle id="428" cx="210" cy="990" r="20" />
    <circle id="429" cx="330" cy="990" r="20" />
    <circle id="430" cx="390" cy="990" r="20" />
    <circle id="431" cx="510" cy="990" r="20" />
    <circle id="432" cx="570" cy="990" r="20" />
    <circle id="433" cx="690" cy="990" r="20" />
    <circle id="434" cx="750" cy="990" r="20" />
    <circle id="435" cx="870" cy="990" r="20" />
    <circle id="436" cx="930" cy="990" r="20" />
    <circle id="437" cx="1050" cy="990" r="20" />
  </g>
  <g id="438" style="fill:#000;fill-opacity:1.0;stroke:#FFF;stroke-width:9;stroke-dasharray:0;stroke-opacity:1.0">
    <rect id="439" x="84.5" y="44.5" width="11" height="91" />
    <rect id="440" x="264.5" y="44.5" width="11" height="91" />
    <rect id="441" x="444.5" y="44.5" width="11" height="91" />
    <rect id="442" x="624.5" y="44.5" width="11" height="91" />
    <rect id="443" x="804.5" y="44.5" width="11" height="91" />
    <rect id="444" x="984.5" y="44.5" width="11" height="91" />
    <rect id="445" x="84.5" y="164.5" width="11" height="91" />
    <rect id="446" x="264.5" y="164.5" width="11" height="91" />
    <rect id="447" x="444.5" y="164.5" width="11" height="91" />
    <rect id="448" x="624.5" y="164.5" width="11" height="91" />
    <rect id="449" x="804.5" y="164.5" width="11" height="91" />
    <rect id="450" x="984.5" y="164.5" width="11" height="91" />
    <rect id="451" x="84.5" y="284.5" width="11" height="91" />
    <rect id="452" x="264.5" y="284.5" width="11" height="91" />
    <rect id="453" x="444.5" y="284.5" width="11" height="91" />
    <rect id="454" x="624.5" y="284.5" width="11" height="91" />
    <rect id="455" x="804.5" y="284.5" width="11" height="91" />
    <rect id="456" x="984.5" y="284.5" width="11" height="91" />
    <rect id="457" x="84.5" y="404.5" width="11" height="91" />
    <rect id="458" x="264.5" y="404.5" width="11" height="91" />
    <rect id="459" x="444.5" y="404.5" width="11" height="91" />
    <rect id="460" x="624.5" y="404.5" width="11" height="91" />
    <rect id="461" x="804.5" y="404.5" width="11" height="91" />
    <rect id="462" x="984.5" y="404.5" width="11" height="91" />
    <rect id="463" x="84.5" y="524.5" width="11" height="91" />
    <rect id="464" x="264.5" y="524.5" width="11" height="91" />
    <rect id="465" x="444.5" y="524.5" width="11" height="91" />
    <rect id="466" x="624.5" y="524.5" width="11" height="91" />
    <rect id="467" x="804.5" y="524.5" width="11" height="91" />
    <rect id="468" x="984.5" y="524.5" width="11" height="91" />
    <rect id="469" x="84.5" y="644.5" width="11" height="91" />
    <rect id="470" x="264.5" y="644.5" width="11" height="91" />
    <rect id="471" x="444.5" y="644.5" width="11" height="91" />
    <rect id="472" x="624.5" y="644.5" width="11" height="91" />
    <rect id="473" x="804.5" y="644.5" width="11" height="91" />
    <rect id="474" x="984.5" y="644.5" width="11" height="91" />
    <rect id="475" x="84.5" y="764.5" width="11" height="91" />
    <rect id="476" x="264.5" y="764.5" width="11" height="91" />
    <rect id="477" x="444.5" y="764.5" width="11" height="91" />
    <rect id="478" x="624.5" y="764.5" width="11" height="91" />
    <rect id="479" x="804.5" y="764.5" width="11" height="91" />
    <rect id="480" x="984.5" y="764.5" width="11" height="91" />
    <rect id="481" x="84.5" y="884.5" width="11" height="91" />
    <rect id="482" x="264.5" y="884.5" width="11" height="91" />
    <rect id="483" x="444.5" y="884.5" width="11" height="91" />
    <rect id="484" x="624.5" y="884.5" width="11" height="91" />
    <rect id="485" x="804.5" y="884.5" width="11" height="91" />
    <rect id="486" x="984.5" y="884.5" width="11" height="91" />
    <rect id="487" x="84.5" y="1004.5" width="11" height="91" />
    <rect id="488" x="264.5" y="1004.5" width="11" height="91" />
    <rect id="489" x="444.5" y="1004.5" width="11" height="91" />
    <rect id="490" x="624.5" y="1004.5" width="11" height="91" />
    <rect id="491" x="804.5" y="1004.5" width="11" height="91" />
    <rect id="492" x="984.5" y="1004.5" width="11" height="91" />
  </g>
  <g id="493" style="fill:#FFF;fill-opacity:1.0;stroke:#000;stroke-width:8;stroke-dasharray:1;stroke-opacity:1.0">
    <polygon id="494" points="68.0,52.0,90.0,8.0,112.0,52.0,68.0,52.0" />
    <polygon id="495" points="248.0,52.0,270.0,8.0,292.0,52.0,248.0,52.0" />
    <polygon id="496" points="428.0,52.0,450.0,8.0,472.0,52.0,428.0,52.0" />
    <polygon id="497" points="608.0,52.0,630.0,8.0,652.0,52.0,608.0,52.0" />
    <polygon id="498" points="788.0,52.0,810.0,8.0,832.0,52.0,788.0,52.0" />
    <polygon id="499" points="968.0,52.0,990.0,8.0,1012.0,52.0,968.0,52.0" />
    <polygon id="500" points="68.0,172.0,90.0,128.0,112.0,172.0,68.0,172.0" />
    <polygon id="501" points="248.0,172.0,270.0,128.0,292.0,172.0,248.0,172.0" />
    <polygon id="502" points="428.0,172.0,450.0,128.0,472.0,172.0,428.0,172.0" />
    <polygon id="503" points="608.0,172.0,630.0,128.0,652.0,172.0,608.0,172.0" />
    <polygon id="504" points="788.0,172.0,810.0,128.0,832.0,172.0,788.0,172.0" />
    <polygon id="505" points="968.0,172.0,990.0,128.0,1012.0,172.0,968.0,172.0" />
    <polygon id="506" points="68.0,292.0,90.0,248.0,112.0,292.0,68.0,292.0" />
    <polygon id="507" points="248.0,292.0,270.0,248.0,292.0,292.0,248.0,292.0" />
    <polygon id="508" points="428.0,292.0,450.0,248.0,472.0,292.0,428.0,292.0" />
    <polygon id="509" points="608.0,292.0,630.0,248.0,652.0,292.0,608.0,292.0" />
    <polygon id="510" points="788.0,292.0,810.0,248.0,832.0,292.0,788.0,292.0" />
    <polygon id="511" points="968.0,292.0,990.0,248.0,1012.0,292.0,968.0,292.0" />
    <polygon id="512" points="68.0,412.0,90.0,368.0,112.0,412.0,68.0,412.0" />
    <polygon id="513" points="248.0,412.0,270.0,368.0,292.0,412.0,248.0,412.0" />
    <polygon id="514" points="428.0,412.0,450.0,368.0,472.0,412.0,428.0,412.0" />
    <polygon id="515" points="608.0,412.0,630.0,368.0,652.0,412.0,608.0,412.0" />
    <polygon id="516" points="788.0,412.0,810.0,368.0,832.0,412.0,788.0,412.0" />
    <polygon id="517" points="968.0,412.0,990.0,368.0,1012.0,412.0,968.0,412.0" />
    <polygon id="518" points="68.0,532.0,90.0,488.0,112.0,532.0,68.0,532.0" />
    <polygon id="519" points="248.0,532.0,270.0,488.0,292.0,532.0,248.0,532.0" />
    <polygon id="520" points="428.0,532.0,450.0,488.0,472.0,532.0,428.0,532.0" />
    <polygon id="521" points="608.0,532.0,630.0,488.0,652.0,532.0,608.0,532.0" />
    <polygon id="522" points="788.0,532.0,810.0,488.0,832.0,532.0,788.0,532.0" />
    <polygon id="523" points="968.0,532.0,990.0,488.0,1012.0,532.0,968.0,532.0" />
    <polygon id="524" points="68.0,652.0,90.0,608.0,112.0,652.0,68.0,652.0" />
    <polygon id="525" points="248.0,652.0,270.0,608.0,292.0,652.0,248.0,652.0" />
    <polygon id="526" points="428.0,652.0,450.0,608.0,472.0,652.0,428.0,652.0" />
    <polygon id="527" points="608.0,652.0,630.0,608.0,652.0,652.0,608.0,652.0" />
    <polygon id="528" points="788.0,652.0,810.0,608.0,832.0,652.0,788.0,652.0" />
    <polygon id="529" points="968.0,652.0,990.0,608.0,1012.0,652.0,968.0,652.0" />
    <polygon id="530" points="68.0,772.0,90.0,728.0,112.0,772.0,68.0,772.0" />
    <polygon id="531" points="248.0,772.0,270.0,728.0,292.0,772.0,248.0,772.0" />
    <polygon id="532" points="428.0,772.0,450.0,728.0,472.0,772.0,428.0,772.0" />
    <polygon id="533" points="608.0,772.0,630.0,728.0,652.0,772.0,608.0,772.0" />
    <polygon id="534" points="788.0,772.0,810.0,728.0,832.0,772.0,788.0,772.0" />
    <polygon id="535" points="968.0,772.0,990.0,728.0,1012.0,772.0,968.0,772.0" />
    <polygon id="536" points="68.0,892.0,90.0,848.0,112.0,892.0,68.0,892.0" />
    <polygon id="537" points="248.0,892.0,270.0,848.0,292.0,892.0,248.0,892.0" />
    <polygon id="538" points="428.0,892.0,450.0,848.0,472.0,892.0,428.0,892.0" />
    <polygon id="539" points="608.0,892.0,630.0,848.0,652.0,892.0,608.0,892.0" />
    <polygon id="540" points="788.0,892.0,810.0,848.0,832.0,892.0,788.0,892.0" />
    <polygon id="541" points="968.0,892.0,990.0,848.0,1012.0,892.0,968.0,892.0" />
    <polygon id="542" points="68.0,1012.0,90.0,968.0,112.0,1012.0,68.0,1012.0" />
    <polygon id="543" points="248.0,1012.0,270.0,968.0,292.0,1012.0,248.0,1012.0" />
    <polygon id="544" points="428.0,1012.0,450.0,968.0,472.0,1012.0,428.0,1012.0" />
    <polygon id="545" points="608.0,1012.0,630.0,968.0,652.0,1012.0,608.0,1012.0" />
    <polygon id="546" points="788.0,1012.0,810.0,968.0,832.0,1012.0,788.0,1012.0" />
    <polygon id="547" points="968.0,1012.0,990.0,968.0,1012.0,1012.0,968.0,1012.0" />
  </g>
  <g id="548" style="fill:#FF0;fill-opacity:1.0;stroke:#000;stroke-width:8;stroke-dasharray:1;stroke-opacity:1.0">
    <rect id="549" x="24" y="84" width="12" height="12" />
    <rect id="550" x="144" y="84" width="12" height="12" />
    <rect id="551" x="204" y="84" width="12" height="12" />
    <rect id="552" x="324" y="84" width="12" height="12" />
    <rect id="553" x="384" y="84" width="12" height="12" />
    <rect id="554" x="504" y="84" width="12" height="12" />
    <rect id="555" x="564" y="84" width="12" height="12" />
    <rect id="556" x="684" y="84" width="12" height="12" />
    <rect id="557" x="744" y="84" width="12" height="12" />
    <rect id="558" x="864" y="84" width="12" height="12" />
    <rect id="559" x="924" y="84" width="12" height="12" />
    <rect id="560" x="1044" y="84" width="12" height="12" />
    <rect id="561" x="24" y="204" width="12" height="12" />
    <rect id="562" x="144" y="204" width="12" height="12" />
    <rect id="563" x="204" y="204" width="12" height="12" />
    <rect id="564" x="324" y="204" width="12" height="12" />
    <rect id="565" x="384" y="204" width="12" height="12" />
    <rect id="566" x="504" y="204" width="12" height="12" />
    <rect id="567" x="564" y="204" width="12" height="12" />
    <rect id="568" x="684" y="204" width="12" height="12" />
    <rect id="569" x="744" y="204" width="12" height="12" />
    <rect id="570" x="864" y="204" width="12" height="12" />
    <rect id="571" x="924" y="204" width="12" height="12" />
    <rect id="572" x="1044" y="204" width="12" height="12" />
    <rect id="573" x="24" y="324" width="12" height="12" />
    <rect id="574" x="144" y="324" width="12" height="12" />
    <rect id="575" x="204" y="324" width="12" height="12" />
    <rect id="576" x="324" y="324" width="12" height="12" />
    <rect id="577" x="384" y="324" width="12" height="12" />
    <rect id="578" x="504" y="324" width="12" height="12" />
    <rect id="579" x="564" y="324" width="12" height="12" />
    <rect id="580" x="684" y="324" width="12" height="12" />
    <rect id="581" x="744" y="324" width="12" height="12" />
    <rect id="582" x="864" y="324" width="12" height="12" />
    <rect id="583" x="924" y="324" width="12" height="12" />
    <rect id="584" x="1044" y="324" width="12" height="12" />
    <rect id="585" x="24" y="444" width="12" height="12" />
    <rect id="586" x="144" y="444" width="12" height="12" />
    <rect id="587" x="204" y="444" width="12" height="12" />
    <rect id="588" x="324" y="444" width="12" height="12" />
    <rect id="589" x="384" y="444" width="12" height="12" />
    <rect id="590" x="504" y="444" width="12" height="12" />
    <rect id="591" x="564" y="444" width="12" height="12" />
    <rect id="592" x="684" y="444" width="12" height="12" />
    <rect id="593" x="744" y="444" width="12" height="12" />
    <rect id="594" x="864" y="444" width="12" height="12" />
    <rect id="595" x="924" y="444" width="12" height="12" />
    <rect id="596" x="1044" y="444" width="12" height="12" />
    <rect id="597" x="24" y="564" width="12" height="12" />
    <rect id="598" x="144" y="564" width="12" height="12" />
    <rect id="599" x="204" y="564" width="12" height="12" />
    <rect id="600" x="324" y="564" width="12" height="12" />
    <rect id="601" x="384" y="564" width="12" height="12" />
    <rect id="602" x="504" y="564" width="12" height="12" />
    <rect id="603" x="564" y="564" width="12" height="12" />
    <rect id="604" x="684" y="564" width="12" height="12" />
    <rect id="605" x="744" y="564" width="12" height="12" />
    <rect id="606" x="864" y="564" width="12" height="12" />
    <rect id="607" x="924" y="564" width="12" height="12" />
    <rect id="608" x="1044" y="564" width="12" height="12" />
    <rect id="609" x="24" y="684" width="12" height="12" />
    <rect id="610" x="144" y="684" width="12" height="12" />
    <rect id="611" x="204" y="684" width="12" height="12" />
    <rect id="612" x="324" y="684" width="12" height="12" />
    <rect id="613" x="384" y="684" width="12" height="12" />
    <rect id="614" x="504" y="684" width="12" height="12" />
    <rect id="615" x="564" y="684" width="12" height="12" />
    <rect id="616" x="684" y="684" width="12" height="12" />
    <rect id="617" x="744" y="684" width="12" height="12" />
    <rect id="618" x="864" y="684" width="12" height="12" />
    <rect id="619" x="924" y="684" width="12" height="12" />
    <rect id="620" x="1044" y="684" width="12" height="12" />
    <rect id="621" x="24" y="804" width="12" height="12" />
    <rect id="622" x="144" y="804" width="12" height="12" />
    <rect id="623" x="204" y="804" width="12" height="12" />
    <rect id="624" x="324" y="804" width="12" height="12" />
    <rect id="625" x="384" y="804" width="12" height="12" />
    <rect id="626" x="504" y="804" width="12" height="12" />
    <rect id="627" x="564" y="804" width="12" height="12" />
    <rect id="628" x="684" y="804" width="12" height="12" />
    <rect id="629" x="744" y="804" width="12" height="12" />
    <rect id="630" x="864" y="804" width="12" height="12" />
    <rect id="631" x="924" y="804" width="12" height="12" />
    <rect id="632" x="1044" y="804" width="12" height="12" />
    <rect id="633" x="24" y="924" width="12" height="12" />
    <rect id="634" x="144" y="924" width="12" height="12" />
    <rect id="635" x="204" y="924" width="12" height="12" />
    <rect id="636" x="324" y="924" width="12" height="12" />
    <rect id="637" x="384" y="924" width="12" height="12" />
    <rect id="638" x="504" y="924" width="12" height="12" />
    <rect id="639" x="564" y="924" width="12" height="12" />
    <rect id="640" x="684" y="924" width="12" height="12" />
    <rect id="641" x="744" y="924" width="12" height="12" />
    <rect id="642" x="864" y="924" width="12" height="12" />
    <rect id="643" x="924" y="924" width="12" height="12" />
    <rect id="644" x="1044" y="924" width="12" height="12" />
    <rect id="645" x="24" y="1044" width="12" height="12" />
    <rect id="646" x="144" y="1044" width="12" height="12" />
    <rect id="647" x="204" y="1044" width="12" height="12" />
    <rect id="648" x="324" y="1044" width="12" height="12" />
    <rect id="649" x="384" y="1044" width="12" height="12" />
    <rect id="650" x="504" y="1044" width="12" height="12" />
    <rect id="651" x="564" y="1044" width="12" height="12" />
    <rect id="652" x="684" y="1044" width="12" height="12" />
    <rect id="653" x="744" y="1044" width="12" height="12" />
    <rect id="654" x="864" y="1044" width="12" height="12" />
    <rect id="655" x="924" y="1044" width="12" height="12" />
    <rect id="656" x="1044" y="1044" width="12" height="12" />
    <rect id="657" x="24" y="24" width="12" height="12" />
    <rect id="658" x="144" y="24" width="12" height="12" />
    <rect id="659" x="204" y="24" width="12" height="12" />
    <rect id="660" x="324" y="24" width="12" height="12" />
    <rect id="661" x="384" y="24" width="12" height="12" />
    <rect id="662" x="504" y="24" width="12" height="12" />
    <rect id="663" x="564" y="24" width="12" height="12" />
    <rect id="664" x="684" y="24" width="12" height="12" />
    <rect id="665" x="744" y="24" width="12" height="12" />
    <rect id="666" x="864" y="24" width="12" height="12" />
    <rect id="667" x="924" y="24" width="12" height="12" />
    <rect id="668" x="1044" y="24" width="12" height="12" />
    <rect id="669" x="24" y="144" width="12" height="12" />
    <rect id="670" x="144" y="144" width="12" height="12" />
    <rect id="671" x="204" y="144" width="12" height="12" />
    <rect id="672" x="324" y="144" width="12" height="12" />
    <rect id="673" x="384" y="144" width="12" height="12" />
    <rect id="674" x="504" y="144" width="12" height="12" />
    <rect id="675" x="564" y="144" width="12" height="12" />
    <rect id="676" x="684" y="144" width="12" height="12" />
    <rect id="677" x="744" y="144" width="12" height="12" />
    <rect id="678" x="864" y="144" width="12" height="12" />
    <rect id="679" x="924" y="144" width="12" height="12" />
    <rect id="680" x="1044" y="144" width="12" height="12" />
    <rect id="681" x="24" y="264" width="12" height="12" />
    <rect id="682" x="144" y="264" width="12" height="12" />
    <rect id="683" x="204" y="264" width="12" height="12" />
    <rect id="684" x="324" y="264" width="12" height="12" />
    <rect id="685" x="384" y="264" width="12" height="12" />
    <rect id="686" x="504" y="264" width="12" height="12" />
    <rect id="687" x="564" y="264" width="12" height="12" />
    <rect id="688" x="684" y="264" width="12" height="12" />
    <rect id="689" x="744" y="264" width="12" height="12" />
    <rect id="690" x="864" y="264" width="12" height="12" />
    <rect id="691" x="924" y="264" width="12" height="12" />
    <rect id="692" x="1044" y="264" width="12" height="12" />
    <rect id="693" x="24" y="384" width="12" height="12" />
    <rect id="694" x="144" y="384" width="12" height="12" />
    <rect id="695" x="204" y="384" width="12" height="12" />
    <rect id="696" x="324" y="384" width="12" height="12" />
    <rect id="697" x="384" y="384" width="12" height="12" />
    <rect id="698" x="504" y="384" width="12" height="12" />
    <rect id="699" x="564" y="384" width="12" height="12" />
    <rect id="700" x="684" y="384" width="12" height="12" />
    <rect id="701" x="744" y="384" width="12" height="12" />
    <rect id="702" x="864" y="384" width="12" height="12" />
    <rect id="703" x="924" y="384" width="12" height="12" />
    <rect id="704" x="1044" y="384" width="12" height="12" />
    <rect id="705" x="24" y="504" width="12" height="12" />
    <rect id="706" x="144" y="504" width="12" height="12" />
    <rect id="707" x="204" y="504" width="12" height="12" />
    <rect id="708" x="324" y="504" width="12" height="12" />
    <rect id="709" x="384" y="504" width="12" height="12" />
    <rect id="710" x="504" y="504" width="12" height="12" />
    <rect id="711" x="564" y="504" width="12" height="12" />
    <rect id="712" x="684" y="504" width="12" height="12" />
    <rect id="713" x="744" y="504" width="12" height="12" />
    <rect id="714" x="864" y="504" width="12" height="12" />
    <rect id="715" x="924" y="504" width="12" height="12" />
    <rect id="716" x="1044" y="504" width="12" height="12" />
    <rect id="717" x="24" y="624" width="12" height="12" />
    <rect id="718" x="144" y="624" width="12" height="12" />
    <rect id="719" x="204" y="624" width="12" height="12" />
    <rect id="720" x="324" y="624" width="12" height="12" />
    <rect id="721" x="384" y="624" width="12" height="12" />
    <rect id="722" x="504" y="624" width="12" height="12" />
    <rect id="723" x="564" y="624" width="12" height="12" />
    <rect id="724" x="684" y="624" width="12" height="12" />
    <rect id="725" x="744" y="624" width="12" height="12" />
    <rect id="726" x="864" y="624" width="12" height="12" />
    <rect id="727" x="924" y="624" width="12" height="12" />
    <rect id="728" x="1044" y="624" width="12" height="12" />
    <rect id="729" x="24" y="744" width="12" height="12" />
    <rect id="730" x="144" y="744" width="12" height="12" />
    <rect id="731" x="204" y="744" width="12" height="12" />
    <rect id="732" x="324" y="744" width="12" height="12" />
    <rect id="733" x="384" y="744" width="12" height="12" />
    <rect id="734" x="504" y="744" width="12" height="12" />
    <rect id="735" x="564" y="744" width="12" height="12" />
    <rect id="736" x="684" y="744" width="12" height="12" />
    <rect id="737" x="744" y="744" width="12" height="12" />
    <rect id="738" x="864" y="744" width="12" height="12" />
    <rect id="739" x="924" y="744" width="12" height="12" />
    <rect id="740" x="1044" y="744" width="12" height="12" />
    <rect id="741" x="24" y="864" width="12" height="12" />
    <rect id="742" x="144" y="864" width="12" height="12" />
    <rect id="743" x="204" y="864" width="12" height="12" />
    <rect id="744" x="324" y="864" width="12" height="12" />
    <rect id="745" x="384" y="864" width="12" height="12" />
    <rect id="746" x="504" y="864" width="12" height="12" />
    <rect id="747" x="564" y="864" width="12" height="12" />
    <rect id="748" x="684" y="864" width="12" height="12" />
    <rect id="749" x="744" y="864" width="12" height="12" />
    <rect id="750" x="864" y="864" width="12" height="12" />
    <rect id="751" x="924" y="864" width="12" height="12" />
    <rect id="752" x="1044" y="864" width="12" height="12" />
    <rect id="753" x="24" y="984" width="12" height="12" />
    <rect id="754" x="144" y="984" width="12" height="12" />
    <rect id="755" x="204" y="984" width="12" height="12" />
    <rect id="756" x="324" y="984" width="12" height="12" />
    <rect id="757" x="384" y="984" width="12" height="12" />
    <rect id="758" x="504" y="984" width="12" height="12" />
    <rect id="759" x="564" y="984" width="12" height="12" />
    <rect id="760" x="684" y="984" width="12" height="12" />
    <rect id="761" x="744" y="984" width="12" height="12" />
    <rect id="762" x="864" y="984" width="12" height="12" />
    <rect id="763" x="924" y="984" width="12" height="12" />
    <rect id="764" x="1044" y="984" width="12" height="12" />
  </g>
</svg>